<?xml version="1.0" encoding="UTF-8"?>
<svg xmlns="http://www.w3.org/2000/svg" viewBox="0 0 1600 1280" width="1600" height="1280" role="img" aria-labelledby="title desc">
  <title id="title">BillBandit raccoon - Searching Couch</title>
  <desc id="desc">Transparent two-color vector mascot scene using cobalt and warm cream.</desc>
  <g id="mascot-searching-couch" shape-rendering="geometricPrecision">
    <g id="warm-cream-base">
      <path d="M 922.500 171.478 C 907.940 174.486, 891.438 182.326, 882.154 190.646 C 879.268 193.233, 874.640 198.465, 871.871 202.272 C 865.988 210.361, 868.537 210.092, 844 205.213 C 835.475 203.518, 825.575 201.847, 822 201.500 C 814.309 200.753, 777.033 200.822, 772 201.593 C 755.994 204.043, 733.298 209.397, 723.465 213.042 C 720.184 214.258, 716.095 215.464, 714.377 215.721 C 711.464 216.158, 711.036 215.806, 707.977 210.460 C 704.804 204.914, 694.068 193.423, 686.724 187.712 C 676.280 179.591, 659.558 174.284, 652.988 177.005 C 648.309 178.943, 646.345 182.818, 642.854 197 C 640.636 206.009, 641.152 225.528, 643.971 239.236 C 646.699 252.504, 646.665 252.684, 639.425 263.651 C 637.555 266.483, 633.049 274.133, 629.411 280.651 C 625.774 287.168, 621.117 294.975, 619.064 298 C 617.010 301.025, 615.143 303.950, 614.915 304.500 C 614.687 305.050, 608.333 314.779, 600.796 326.120 C 580.212 357.091, 580.094 357.589, 593.380 357.380 C 600.643 357.265, 601 357.365, 601 359.501 C 601 361.322, 599.134 362.724, 591.045 366.976 C 579.194 373.207, 573.353 377.872, 574.303 380.348 C 575.520 383.519, 583.810 386.294, 591.806 386.208 C 596.944 386.152, 599.261 386.515, 599.612 387.431 C 599.887 388.147, 598.655 391.989, 596.876 395.969 C 592.019 406.831, 594.373 408.908, 607.082 404.975 L 614.102 402.802 618.051 405.415 C 622.320 408.240, 622.735 409.445, 620.468 412.441 C 618.413 415.159, 618.640 418.365, 621.044 420.540 C 622.829 422.155, 623.621 422.246, 627.294 421.257 C 630.714 420.336, 631.921 420.397, 633.750 421.585 C 634.987 422.389, 636 423.494, 636 424.041 C 636 424.588, 632.487 428.515, 628.194 432.768 C 620.924 439.969, 607.349 458.900, 600.780 471 L 598.336 475.500 579.918 476.140 C 561.501 476.780, 546.980 478.067, 537.418 479.907 C 527.015 481.908, 508.225 487.508, 502.500 490.312 C 500.850 491.121, 497.837 492.546, 495.803 493.479 C 489.335 496.450, 473.722 509.342, 467.256 517.052 C 458.247 527.792, 449.548 546.479, 445.166 564.500 C 441.582 579.240, 440.619 592.870, 440.707 627.612 L 440.792 660.724 433.603 661.332 C 400.159 664.159, 373.286 679.682, 357.068 705.541 C 349.909 716.956, 345.437 728.354, 343.548 740.005 C 336.885 781.090, 352.360 814.834, 384.500 829.304 L 392.500 832.906 392.730 901.203 C 392.857 938.766, 393.413 978.589, 393.967 989.697 C 394.870 1007.822, 395.283 1010.860, 397.990 1019.310 C 401.220 1029.395, 405.100 1035.345, 411.106 1039.426 L 414.637 1041.826 415.793 1056.032 C 417.153 1072.747, 418.556 1076.528, 424.500 1079.500 C 428.258 1081.379, 430.500 1081.500, 461.574 1081.500 L 494.647 1081.500 498.781 1078.764 C 503.654 1075.539, 504.627 1072.772, 505.554 1059.500 C 505.899 1054.550, 506.668 1049.911, 507.263 1049.191 C 507.957 1048.350, 509.622 1048.070, 511.921 1048.408 C 513.890 1048.697, 536.425 1049.175, 562 1049.470 C 587.575 1049.765, 616.375 1050.225, 626 1050.493 C 674.856 1051.850, 869.824 1052.084, 958 1050.892 C 1010.525 1050.182, 1059.125 1049.578, 1066 1049.550 L 1078.500 1049.500 1079.162 1060.180 C 1079.909 1072.230, 1081.071 1075.463, 1085.800 1078.647 C 1090.504 1081.813, 1096.091 1082.234, 1128.081 1081.827 C 1166.777 1081.335, 1166.758 1081.344, 1168.948 1062.500 C 1169.524 1057.550, 1169.996 1051.078, 1169.997 1048.117 C 1170 1042.764, 1170.036 1042.702, 1176.591 1036.696 C 1181.622 1032.085, 1183.981 1028.948, 1186.563 1023.434 C 1193.605 1008.392, 1194.206 1000.430, 1194.099 923.500 C 1194.051 888.300, 1193.723 853.360, 1193.370 845.856 C 1193.018 838.352, 1193.010 831.096, 1193.353 829.731 C 1193.781 828.026, 1195.619 826.417, 1199.238 824.582 C 1211.001 818.616, 1223.493 805.862, 1230.973 792.183 C 1237.223 780.752, 1241 764.506, 1241 749.052 C 1241 741.009, 1238.894 724.422, 1237.087 718.242 C 1235.989 714.483, 1228.553 700.370, 1224.580 694.500 C 1213.548 678.205, 1193.695 665.584, 1169.500 659.484 C 1167.850 659.068, 1162 658.208, 1156.500 657.573 L 1146.500 656.419 1146.802 645.026 C 1147.150 631.925, 1145.483 592.687, 1143.891 576.500 C 1142.268 559.990, 1137.533 542.636, 1131.398 530.709 C 1122.698 513.797, 1115.693 505.846, 1101.051 496.262 C 1096.405 493.221, 1091.005 490.097, 1089.051 489.321 C 1087.098 488.545, 1084.600 487.503, 1083.500 487.005 C 1078.993 484.965, 1064.334 480.894, 1058.133 479.960 C 1039.481 477.152, 1026.853 475.920, 1010.668 475.329 L 992.836 474.678 989.985 471.089 C 984.563 464.264, 974.512 449.588, 960.816 428.500 C 953.809 417.710, 951.184 410.393, 953.063 406.883 C 953.998 405.134, 954.882 404.887, 958.834 405.265 C 961.400 405.511, 965.003 406.207, 966.840 406.812 C 969.840 407.800, 970.433 407.658, 972.679 405.411 C 974.402 403.689, 974.945 402.380, 974.424 401.206 C 974.008 400.267, 973.630 398.166, 973.584 396.536 C 973.423 390.862, 978.528 390.893, 993.549 396.657 C 994.147 396.887, 995.837 396.129, 997.305 394.975 C 999.923 392.915, 999.945 392.804, 998.435 389.187 C 997.081 385.943, 994.294 381.372, 987.828 371.790 C 983.330 365.124, 986.987 363.080, 995.668 367.410 C 1001.923 370.531, 1011.117 371.769, 1012.818 369.719 C 1013.546 368.842, 1013.725 367.445, 1013.265 366.223 C 1012.062 363.024, 991.496 346.850, 983.250 342.617 C 980.908 341.415, 980 340.257, 980 338.474 C 980 335.618, 979.887 335.632, 990.704 337.144 C 997.930 338.154, 999.212 338.091, 1001.454 336.622 C 1002.854 335.705, 1004 334.338, 1004 333.585 C 1004 331.457, 993.301 322.063, 983.070 315.209 C 977.973 311.794, 973.398 309, 972.902 309 C 972.406 309, 972 307.225, 972 305.055 C 972 300.483, 967.226 290.354, 959.997 279.587 C 957.380 275.689, 953.798 270.056, 952.039 267.069 C 950.279 264.082, 946.738 258.964, 944.169 255.695 C 930.526 238.329, 930.679 238.784, 933.941 225.440 C 938.006 208.806, 940.694 183.290, 939.030 177.113 C 938.159 173.877, 937.293 172.934, 933.969 171.604 C 931.764 170.722, 929.631 170.054, 929.230 170.119 C 928.828 170.185, 925.800 170.796, 922.500 171.478" stroke="none" fill="#F7F1DD" fill-rule="evenodd"/>
    </g>
    <g id="cobalt-ink">
      <path d="M 922.500 171.478 C 907.940 174.486, 891.438 182.326, 882.154 190.646 C 879.268 193.233, 874.640 198.465, 871.871 202.272 C 865.988 210.361, 868.537 210.092, 844 205.213 C 835.475 203.518, 825.575 201.847, 822 201.500 C 814.309 200.753, 777.033 200.822, 772 201.593 C 755.994 204.043, 733.298 209.397, 723.465 213.042 C 720.184 214.258, 716.095 215.464, 714.377 215.721 C 711.464 216.158, 711.036 215.806, 707.977 210.460 C 704.804 204.914, 694.068 193.423, 686.724 187.712 C 676.280 179.591, 659.558 174.284, 652.988 177.005 C 648.309 178.943, 646.345 182.818, 642.854 197 C 640.636 206.009, 641.152 225.528, 643.971 239.236 C 646.699 252.504, 646.665 252.684, 639.425 263.651 C 637.555 266.483, 633.049 274.133, 629.411 280.651 C 625.774 287.168, 621.117 294.975, 619.064 298 C 617.010 301.025, 615.143 303.950, 614.915 304.500 C 614.687 305.050, 608.333 314.779, 600.796 326.120 C 580.212 357.091, 580.094 357.589, 593.380 357.380 C 600.643 357.265, 601 357.365, 601 359.501 C 601 361.322, 599.134 362.724, 591.045 366.976 C 579.194 373.207, 573.353 377.872, 574.303 380.348 C 575.520 383.519, 583.810 386.294, 591.806 386.208 C 596.944 386.152, 599.261 386.515, 599.612 387.431 C 599.887 388.147, 598.655 391.989, 596.876 395.969 C 593.395 403.754, 593.621 406.191, 597.883 406.824 C 601.262 407.325, 614.104 403.049, 617.996 400.126 C 625.761 394.294, 627.592 393.261, 653.145 380.300 C 658.350 377.660, 658.306 376.783, 652.657 370.714 C 630.848 347.280, 626.140 310.075, 641.251 280.576 C 644.571 274.095, 648.646 267.785, 651.655 264.465 C 656.883 258.698, 660.191 253.599, 660.687 250.540 C 660.992 248.664, 660.519 243.387, 659.637 238.814 C 656.339 221.711, 655.894 214.322, 657.544 204.067 C 658.389 198.816, 659.457 194.143, 659.917 193.683 C 661.262 192.338, 678.119 201.498, 683.128 206.298 C 687.987 210.954, 694.290 219.691, 697.872 226.735 C 699.057 229.065, 701.104 231.677, 702.421 232.540 C 704.601 233.969, 705.343 233.964, 710.659 232.491 C 732.377 226.473, 747.256 222.898, 760.500 220.517 C 764.900 219.727, 770.300 218.558, 772.500 217.920 C 777.363 216.511, 795.248 216.221, 811.500 217.288 C 822.665 218.020, 829.657 219.041, 847.554 222.553 C 851.434 223.314, 857.184 224.239, 860.332 224.609 C 863.480 224.979, 866.295 225.669, 866.587 226.141 C 867.563 227.720, 870.629 227.024, 872.720 224.750 C 873.858 223.512, 875.706 220.764, 876.827 218.642 C 877.947 216.520, 879.794 214.132, 880.932 213.335 C 882.069 212.538, 883 211.328, 883 210.646 C 883 209.964, 885.727 206.832, 889.059 203.687 C 896.798 196.384, 906.836 191.273, 919.865 188.003 L 923.231 187.159 922.640 194.829 C 921.958 203.700, 920.908 209.611, 917.978 221.087 C 915.499 230.795, 915.118 238.866, 916.957 242.724 C 917.685 244.251, 919.001 247.075, 919.882 249 C 920.763 250.925, 922.950 254.585, 924.742 257.134 C 926.534 259.683, 928 262.049, 928 262.393 C 928 262.736, 929.350 264.881, 931 267.159 C 932.650 269.436, 934 271.838, 934 272.495 C 934 273.152, 934.788 274.407, 935.750 275.282 C 936.712 276.158, 938.396 278.590, 939.490 280.687 C 940.585 282.784, 941.762 284.725, 942.106 285 C 943.294 285.951, 944.142 290, 943.152 290 C 942.611 290, 939.319 288.442, 935.835 286.538 C 930.346 283.539, 919.183 277.654, 911 273.446 C 887.139 261.176, 864.950 254.355, 847.500 253.926 C 827.222 253.427, 818.580 254.805, 809.539 259.978 C 801.609 264.515, 801.677 264.313, 801.638 283.500 C 801.616 294.419, 802.497 298.640, 806.649 307.500 C 809.894 314.425, 817.800 325.595, 823.140 330.801 C 831.832 339.274, 848.404 350, 852.802 350 C 853.412 350, 855.569 351.125, 857.595 352.500 C 859.621 353.875, 862.251 355, 863.440 355 C 864.628 355, 866.035 355.435, 866.566 355.966 C 867.098 356.498, 870.450 357.580, 874.016 358.372 C 879.903 359.678, 883.841 360.875, 889.500 363.078 C 890.600 363.506, 893.300 364.154, 895.500 364.518 C 897.700 364.881, 899.950 365.535, 900.500 365.971 C 901.050 366.407, 903.075 366.990, 905 367.268 C 906.925 367.546, 911.875 368.989, 916 370.475 C 924.808 373.649, 938.727 377.418, 951.911 380.202 C 959.514 381.807, 962.826 383.131, 969.150 387.094 C 973.456 389.792, 977.772 392, 978.743 392 C 979.714 392, 983.596 393.120, 987.369 394.488 C 994.239 396.980, 995.025 396.961, 998.213 394.227 C 999.780 392.882, 999.797 392.449, 998.411 389.129 C 997.078 385.936, 994.277 381.347, 987.828 371.790 C 983.330 365.124, 986.987 363.080, 995.668 367.410 C 1001.923 370.531, 1011.117 371.769, 1012.818 369.719 C 1013.546 368.842, 1013.725 367.445, 1013.265 366.223 C 1012.062 363.024, 991.496 346.850, 983.250 342.617 C 980.908 341.415, 980 340.257, 980 338.474 C 980 335.618, 979.887 335.632, 990.704 337.144 C 997.930 338.154, 999.212 338.091, 1001.454 336.622 C 1002.854 335.705, 1004 334.338, 1004 333.585 C 1004 331.457, 993.301 322.063, 983.070 315.209 C 977.973 311.794, 973.398 309, 972.902 309 C 972.406 309, 972 307.225, 972 305.055 C 972 300.483, 967.226 290.354, 959.997 279.587 C 957.380 275.689, 953.798 270.056, 952.039 267.069 C 950.279 264.082, 946.738 258.964, 944.169 255.695 C 930.526 238.329, 930.679 238.784, 933.941 225.440 C 938.006 208.806, 940.694 183.290, 939.030 177.113 C 938.159 173.877, 937.293 172.934, 933.969 171.604 C 931.764 170.722, 929.631 170.054, 929.230 170.119 C 928.828 170.185, 925.800 170.796, 922.500 171.478 M 902.661 203.993 C 898.178 207.929, 894.659 216.104, 894.724 222.431 C 894.781 228.006, 896 229.402, 901.755 230.482 C 906.393 231.352, 907.663 229.782, 908.506 222.138 C 908.848 219.037, 909.999 214.864, 911.064 212.864 C 916.193 203.232, 910.442 197.161, 902.661 203.993 M 664.655 210.829 C 661.594 214.211, 663.241 233.971, 666.957 238.448 C 669.088 241.016, 672.103 240.988, 674.715 238.376 C 676.664 236.427, 677.096 235.183, 676.692 232.691 C 676.407 230.936, 676.643 227.856, 677.217 225.846 C 680.156 215.543, 670.661 204.192, 664.655 210.829 M 795.913 224.282 C 793.429 226.189, 792.338 228.936, 790.959 236.751 C 789.548 244.744, 790.351 248.335, 793.744 249.223 C 797.286 250.149, 798.842 247.659, 800.799 237.925 C 802.686 228.538, 802.443 225.663, 799.600 223.765 C 798.146 222.794, 797.785 222.845, 795.913 224.282 M 770.238 226.213 C 768.481 228.330, 766.839 236.239, 767.183 240.932 C 767.562 246.122, 770.452 248.852, 773.335 246.744 C 775.690 245.022, 778.882 229.627, 777.381 227.230 C 776.031 225.074, 771.696 224.456, 770.238 226.213 M 702 242.194 C 671.413 248.346, 648.233 269.739, 640.449 299 C 638.622 305.868, 638.008 320.417, 639.225 328 C 642.336 347.376, 652.266 363.667, 667.663 374.654 L 673.854 379.072 671.053 385.786 C 664.075 402.513, 661.904 407.924, 659.778 413.891 L 657.500 420.281 650.654 420.572 C 646.889 420.732, 642.298 421.580, 640.452 422.456 C 634.048 425.494, 620.806 439.841, 611.797 453.500 C 607.081 460.650, 602.124 468.525, 600.780 471 L 598.336 475.500 579.918 476.140 C 561.501 476.780, 546.980 478.067, 537.418 479.907 C 527.015 481.908, 508.225 487.508, 502.500 490.312 C 500.850 491.121, 497.837 492.546, 495.803 493.479 C 489.335 496.450, 473.722 509.342, 467.256 517.052 C 458.247 527.792, 449.548 546.479, 445.166 564.500 C 441.582 579.240, 440.619 592.870, 440.707 627.612 L 440.792 660.724 433.603 661.332 C 400.159 664.159, 373.286 679.682, 357.068 705.541 C 349.909 716.956, 345.437 728.354, 343.548 740.005 C 336.885 781.090, 352.360 814.834, 384.500 829.304 L 392.500 832.906 392.730 901.203 C 392.857 938.766, 393.413 978.589, 393.967 989.697 C 394.870 1007.822, 395.283 1010.860, 397.990 1019.310 C 401.220 1029.395, 405.100 1035.345, 411.106 1039.426 L 414.637 1041.826 415.793 1056.032 C 417.153 1072.747, 418.556 1076.528, 424.500 1079.500 C 428.258 1081.379, 430.500 1081.500, 461.574 1081.500 L 494.647 1081.500 498.781 1078.764 C 503.654 1075.539, 504.627 1072.772, 505.554 1059.500 C 505.899 1054.550, 506.668 1049.911, 507.263 1049.191 C 507.957 1048.350, 509.622 1048.070, 511.921 1048.408 C 513.890 1048.697, 536.425 1049.175, 562 1049.470 C 587.575 1049.765, 616.375 1050.225, 626 1050.493 C 674.856 1051.850, 869.824 1052.084, 958 1050.892 C 1010.525 1050.182, 1059.125 1049.578, 1066 1049.550 L 1078.500 1049.500 1079.162 1060.180 C 1079.909 1072.230, 1081.071 1075.463, 1085.800 1078.647 C 1090.504 1081.813, 1096.091 1082.234, 1128.081 1081.827 C 1166.777 1081.335, 1166.758 1081.344, 1168.948 1062.500 C 1169.524 1057.550, 1169.996 1051.078, 1169.997 1048.117 C 1170 1042.764, 1170.036 1042.702, 1176.591 1036.696 C 1181.622 1032.085, 1183.981 1028.948, 1186.563 1023.434 C 1193.605 1008.392, 1194.206 1000.430, 1194.099 923.500 C 1194.051 888.300, 1193.723 853.360, 1193.370 845.856 C 1193.018 838.352, 1193.010 831.096, 1193.353 829.731 C 1193.781 828.026, 1195.619 826.417, 1199.238 824.582 C 1211.001 818.616, 1223.493 805.862, 1230.973 792.183 C 1237.223 780.752, 1241 764.506, 1241 749.052 C 1241 741.009, 1238.894 724.422, 1237.087 718.242 C 1235.989 714.483, 1228.553 700.370, 1224.580 694.500 C 1213.548 678.205, 1193.695 665.584, 1169.500 659.484 C 1167.850 659.068, 1162 658.208, 1156.500 657.573 L 1146.500 656.419 1146.802 645.026 C 1147.150 631.925, 1145.483 592.687, 1143.891 576.500 C 1142.268 559.990, 1137.533 542.636, 1131.398 530.709 C 1122.698 513.797, 1115.693 505.846, 1101.051 496.262 C 1096.405 493.221, 1091.005 490.097, 1089.051 489.321 C 1087.098 488.545, 1084.600 487.503, 1083.500 487.005 C 1078.993 484.965, 1064.334 480.894, 1058.133 479.960 C 1039.481 477.152, 1026.853 475.920, 1010.668 475.329 L 992.836 474.678 989.985 471.089 C 984.563 464.264, 974.512 449.588, 960.816 428.500 C 953.891 417.837, 951.189 410.383, 953.014 406.974 C 954.295 404.580, 959.537 404.347, 965.494 406.420 C 972.192 408.751, 976.131 404.950, 973.512 398.683 C 972.368 395.946, 971.012 394.784, 967.275 393.342 C 958.285 389.874, 946.645 391.819, 945.285 397.017 C 945.024 398.015, 943.741 399.099, 942.433 399.427 C 939.120 400.259, 936.003 403.890, 935.985 406.939 C 935.976 408.347, 935.598 410.085, 935.144 410.801 C 934.319 412.101, 935.819 419.262, 937.909 424 C 938.516 425.375, 940.585 429.200, 942.508 432.500 C 944.430 435.800, 946.280 439.288, 946.618 440.250 C 946.956 441.212, 947.586 442, 948.017 442 C 948.797 442, 959 457.504, 959 458.689 C 959 459.031, 960.125 460.786, 961.500 462.589 C 962.875 464.392, 964 466.262, 964 466.746 C 964 467.230, 965.395 468.948, 967.101 470.563 C 968.806 472.178, 970.552 474.400, 970.982 475.500 C 971.411 476.600, 976.090 483.433, 981.381 490.684 C 986.671 497.935, 991 504.299, 991 504.827 C 991 505.354, 991.604 506.018, 992.342 506.301 C 993.081 506.585, 994.447 508.320, 995.379 510.158 C 996.310 511.996, 999.524 516.875, 1002.520 521 C 1008.301 528.958, 1018.828 544.034, 1020.500 546.751 C 1021.050 547.645, 1023.737 551.779, 1026.470 555.938 C 1029.204 560.097, 1032.614 565.750, 1034.047 568.500 C 1035.480 571.250, 1037.692 575.300, 1038.962 577.500 C 1043.843 585.955, 1047.040 592.162, 1047.358 593.798 C 1048.067 597.445, 1049.309 601.546, 1049.994 602.500 C 1050.388 603.050, 1051.268 605.750, 1051.947 608.500 C 1052.627 611.250, 1053.412 614.400, 1053.692 615.500 C 1054.642 619.228, 1054.808 636.001, 1053.901 636.561 C 1053.405 636.867, 1052.993 638.104, 1052.984 639.309 C 1052.975 640.514, 1051.854 643.300, 1050.494 645.500 C 1049.133 647.700, 1047.752 650.175, 1047.425 651 C 1046.038 654.492, 1026.743 667.955, 1023.079 667.987 C 1022.297 667.994, 1020.947 668.600, 1020.079 669.333 C 1019.210 670.066, 1014.225 672.151, 1009 673.966 C 1003.775 675.782, 998.825 677.847, 998 678.556 C 997.175 679.264, 995.294 680.145, 993.820 680.513 C 990.662 681.301, 979.982 690.686, 978.340 694.116 C 974.571 701.991, 972.949 706.715, 970.480 717 C 967.619 728.916, 965.666 734, 963.950 734 C 961.291 734, 960.417 726.201, 961.331 710.612 C 961.536 707.107, 958.937 704.977, 956.711 706.825 C 954.760 708.444, 951.995 718.583, 951.414 726.250 C 950.877 733.328, 949.754 735.183, 947.419 732.848 C 945.164 730.592, 944.155 725.003, 944.797 718.313 C 945.103 715.116, 945.387 710.025, 945.427 707 C 945.492 702.119, 945.260 701.466, 943.366 701.196 C 940.430 700.777, 937.401 707.251, 935.843 717.269 C 935.182 721.521, 934.261 725, 933.796 725 C 932.661 725, 931.415 721.475, 930.614 716 C 929.476 708.225, 934.278 686.171, 938.609 679.283 C 939.375 678.064, 941.179 674.914, 942.616 672.283 C 947.308 663.698, 958.668 649.657, 967.116 642 C 971.668 637.875, 976.688 633.263, 978.273 631.750 C 979.857 630.237, 981.408 629, 981.718 629 C 983.241 629, 991 619.764, 991 617.950 C 991 614.885, 987.160 606.315, 982.813 599.679 C 980.716 596.478, 979 593.522, 979 593.110 C 979 592.698, 977.987 591.400, 976.750 590.226 C 975.513 589.052, 972.522 585.479, 970.103 582.285 C 965.497 576.201, 959.614 571, 957.339 571 C 956.603 571, 955.176 571.824, 954.168 572.832 C 950.444 576.556, 953.323 585.985, 963.535 603.500 C 970.932 616.186, 970.774 615.481, 966.935 618.685 C 956.556 627.348, 938.014 647.137, 935.679 652.043 C 935.298 652.845, 933.872 655.300, 932.511 657.500 C 925.359 669.056, 920.036 683.187, 918.195 695.500 C 917.229 701.960, 917.662 717.131, 918.951 722 C 920.762 728.840, 923.839 734.686, 927.047 737.386 C 929.387 739.355, 930.688 739.717, 933.881 739.289 C 937.480 738.806, 937.959 739.021, 939.368 741.745 C 940.828 744.568, 946.206 748.004, 949.151 747.996 C 949.893 747.994, 951.979 747.091, 953.786 745.989 C 956.867 744.110, 957.264 744.085, 960.157 745.581 C 964.256 747.701, 968.662 746.778, 972.751 742.945 C 976.963 738.995, 977.979 736.918, 982.789 722.409 C 984.994 715.758, 987.755 708.440, 988.926 706.145 C 991.448 701.202, 997.112 696.850, 1004.736 693.997 C 1014.271 690.430, 1014.176 690.385, 1016.198 699.500 C 1020.191 717.508, 1019.064 742.285, 1013.451 759.898 C 1010.728 768.445, 1000.635 788.995, 998.750 789.833 C 998.337 790.017, 998 790.575, 998 791.073 C 998 791.572, 995.975 795.139, 993.500 799 C 991.025 802.861, 989 806.252, 989 806.535 C 989 807.982, 980.703 819.706, 978.756 821.012 C 977.515 821.843, 973.125 824.040, 969 825.893 C 964.875 827.747, 960.375 829.806, 959 830.468 C 957.625 831.131, 953.892 832.274, 950.703 833.008 C 947.515 833.741, 944.676 834.715, 944.394 835.171 C 944.113 835.627, 942.981 836, 941.879 836 C 940.777 836, 937.766 836.637, 935.188 837.416 C 932.610 838.195, 926 839.822, 920.500 841.031 C 908.095 843.759, 897.589 846.710, 893 848.758 C 889.390 850.368, 888.584 850.661, 887.177 850.875 C 886.724 850.944, 883.890 853.405, 880.880 856.344 C 869.911 867.053, 859.341 896.308, 856.435 924 C 856.060 927.575, 855.389 931.460, 854.946 932.633 C 853.533 936.367, 832.776 963.241, 825.891 970.250 C 822.244 973.962, 818.536 977, 817.649 977 C 814.058 977, 814.575 968.860, 818.838 958.291 C 820.730 953.599, 820.786 952.928, 819.398 951.541 C 817.356 949.498, 816.405 949.595, 813.901 952.099 C 810.687 955.313, 807.202 964.092, 806.429 970.922 C 805.776 976.697, 805.628 976.973, 803.983 975.484 C 800.942 972.733, 799.703 966.150, 800.941 959.324 C 802.185 952.464, 805.451 945.294, 812.927 933.008 C 817.487 925.513, 818.019 924.074, 817.459 920.756 C 816.715 916.354, 812.707 905.775, 807.511 894.500 C 804.072 887.038, 802.012 882.340, 800.057 877.500 C 799.613 876.400, 798.700 874.150, 798.030 872.500 C 796.931 869.797, 796.274 867.818, 793.046 857.500 C 792.530 855.850, 790.903 848.650, 789.430 841.500 C 786.252 826.065, 785.579 806.738, 787.828 795.500 C 788.599 791.650, 789.324 787.600, 789.439 786.500 C 790.061 780.569, 796.724 766.597, 803.268 757.500 C 809.485 748.858, 826.379 734, 829.987 734 C 830.481 734, 832.416 733.097, 834.286 731.994 C 838.880 729.284, 856.631 723.185, 863.741 721.874 C 872.176 720.318, 876 718.494, 876 716.026 C 876 712.756, 871.698 711.743, 857.500 711.671 C 843.718 711.601, 839.415 712.442, 826 717.826 C 818.134 720.983, 811.032 725.010, 805 729.733 C 791.934 739.964, 779.778 757.282, 774.982 772.500 C 774.288 774.700, 773.328 777.625, 772.847 779 C 772.367 780.375, 771.762 782.625, 771.504 784 C 771.245 785.375, 770.810 787.625, 770.537 789 C 769.174 795.854, 768.284 812.473, 768.862 820.258 L 769.512 829.015 752.006 828.975 C 736.732 828.940, 721.900 829.997, 717.025 831.468 C 716.186 831.721, 714.150 832.162, 712.500 832.448 C 710.850 832.734, 707.928 833.425, 706.007 833.984 C 704.085 834.543, 702.211 835, 701.843 835 C 701.474 835, 702.125 832.745, 703.289 829.989 C 705.224 825.409, 705.270 824.841, 703.817 823.388 C 702.364 821.935, 701.908 821.950, 698.524 823.556 C 694.259 825.580, 684.375 835.244, 683.387 838.357 C 683.019 839.514, 681.888 841.595, 680.873 842.981 C 678.662 846, 672.400 863.471, 671.013 870.493 C 669.083 880.268, 666.976 892.096, 666.510 895.772 C 666.250 897.822, 665.813 901.300, 665.539 903.500 C 665.264 905.700, 664.777 911.550, 664.455 916.500 C 664.060 922.595, 663.224 926.763, 661.867 929.413 C 660.225 932.618, 650.660 945.192, 646.522 949.585 C 645.960 950.182, 643.926 952.657, 642.002 955.085 C 637.001 961.398, 625.834 973.011, 623.623 974.198 C 622.252 974.935, 621.513 974.842, 620.884 973.853 C 619.271 971.319, 621.594 960.266, 625.123 953.687 C 627.542 949.177, 622.127 945.754, 618.894 949.750 C 614.951 954.623, 611 965.604, 611 971.690 C 611 974.767, 610.850 974.923, 609 973.768 C 607.900 973.081, 607 971.754, 607 970.818 C 607 969.883, 606.550 968.840, 606 968.500 C 605.450 968.160, 605.016 966.221, 605.036 964.191 C 605.125 954.880, 610.175 942.155, 619 929 C 621.030 925.975, 622.992 922.269, 623.360 920.765 C 624.131 917.621, 621.709 905.831, 618.787 898.500 C 617.690 895.750, 616.442 892.600, 616.012 891.500 C 614.373 887.309, 604.866 868.241, 601.553 862.500 C 599.649 859.200, 597.112 854.475, 595.917 852 C 594.722 849.525, 593.331 847.235, 592.825 846.912 C 591.889 846.313, 589.548 842.274, 586.501 836 C 585.566 834.075, 583.988 830.925, 582.995 829 C 582.001 827.075, 580.068 822.125, 578.700 818 C 568.590 787.529, 573.257 750.908, 590.162 728.057 C 598.960 716.165, 611.883 706.595, 626.678 701.016 C 630.736 699.485, 633.222 696.742, 632.428 694.672 C 631.575 692.450, 626.312 691.644, 617.862 692.442 L 610.757 693.112 611.368 689.806 C 611.704 687.988, 612.241 684.707, 612.562 682.515 C 612.882 680.324, 613.501 678.074, 613.936 677.515 C 614.371 676.957, 615.022 674.568, 615.382 672.206 C 615.743 669.845, 616.454 667.145, 616.964 666.206 C 617.473 665.268, 619.308 660.450, 621.041 655.500 C 622.774 650.550, 625.048 644.770, 626.096 642.655 C 627.143 640.541, 628 638.450, 628 638.009 C 628 637.568, 631.084 634.123, 634.853 630.353 C 638.622 626.584, 643.301 621.005, 645.252 617.956 C 649.752 610.920, 654.343 596.509, 652.926 593.862 C 651.246 590.723, 649.396 591.726, 643.916 598.750 C 638.122 606.177, 626.387 618, 624.809 618 C 624.259 618, 622.614 618.827, 621.154 619.838 C 615.750 623.579, 606.144 625.043, 599.401 623.153 C 586.006 619.398, 578.431 606.470, 577.280 585.402 C 576.333 568.071, 580.396 549.948, 590.481 526.515 C 594.913 516.217, 612.500 480.995, 618.201 471 C 619.612 468.525, 622.384 463.446, 624.360 459.712 C 630.624 447.875, 636.771 439.180, 640.699 436.597 C 649.806 430.608, 662.366 431.389, 670.777 438.466 C 674.453 441.559, 676.464 447.284, 674.807 449.937 C 673.810 451.534, 673.317 451.405, 668.808 448.371 C 663.866 445.045, 658.378 443.016, 654.297 443.006 C 650.420 442.996, 647 445.146, 647 447.593 C 647 449.879, 648.249 450.634, 653.659 451.615 C 658.429 452.480, 666.901 457.052, 668.878 459.829 C 671.498 463.507, 671.918 467.002, 670.088 469.892 C 669.367 471.030, 668.599 470.848, 665.866 468.892 C 655.578 461.526, 642 459.831, 642 465.913 C 642 468.400, 643.611 469.494, 649.321 470.888 C 659.391 473.346, 666.161 480.038, 663.657 485.061 C 662.010 488.365, 659.447 488.620, 654.698 485.950 C 648.004 482.188, 643.242 481.152, 639.133 482.565 C 636.805 483.365, 635.346 484.609, 634.932 486.146 C 634.583 487.441, 632.016 491.992, 629.226 496.260 C 626.437 500.528, 623.852 505.395, 623.483 507.076 C 622.065 513.533, 627.418 519.456, 635.659 520.549 C 640.277 521.162, 640.848 520.993, 643.568 518.215 C 645.181 516.568, 647.537 512.359, 648.805 508.860 C 653.030 497.198, 652.312 498.013, 657.800 498.663 C 666.736 499.721, 675 492.460, 675 483.550 C 675 481.597, 675.431 480, 675.958 480 C 676.485 480, 678.124 477.938, 679.601 475.418 C 681.653 471.916, 682.286 469.511, 682.286 465.208 C 682.286 461.487, 682.914 458.548, 684.139 456.539 C 686.608 452.491, 686.599 442.914, 684.120 437.459 C 683.111 435.236, 680.866 432.223, 679.132 430.764 C 676.043 428.165, 676.009 428.045, 677.469 424.806 C 678.289 422.988, 680.570 417.225, 682.539 412 C 684.508 406.775, 687.566 398.900, 689.334 394.500 L 692.549 386.500 696.025 387 C 697.936 387.275, 704.900 387.474, 711.500 387.443 C 721.926 387.393, 724.549 387.023, 731.500 384.617 C 755.775 376.218, 771.717 359.922, 780.041 335 C 782.694 327.054, 783.275 323.618, 783.588 314 C 784.008 301.099, 782.681 292.933, 778.578 283.186 C 769.999 262.802, 753.996 249.062, 732.228 243.388 C 725.676 241.680, 708.022 240.983, 702 242.194 M 704 255.627 C 698.456 256.678, 689.167 260.070, 683.500 263.114 C 674.952 267.706, 663.368 279.751, 659.093 288.494 C 654.933 297, 654.087 300.056, 652.804 311.223 C 649.675 338.445, 667.264 364.413, 694.026 372.085 C 699.674 373.704, 717.070 373.702, 723 372.082 C 730.344 370.075, 741.289 364.252, 747.353 359.124 C 762.540 346.283, 771.003 326.910, 769.664 308.050 C 768.828 296.276, 765.935 287.565, 759.825 278.430 C 753.717 269.298, 744.970 262.379, 734.500 258.398 C 728.850 256.249, 725.474 255.680, 717 255.445 C 711.225 255.285, 705.375 255.367, 704 255.627 M 700 269.374 C 689.425 272.476, 682.663 276.474, 674.980 284.164 C 664.490 294.665, 658.680 308.388, 659.110 321.649 C 659.508 333.941, 663.233 343.076, 671.157 351.193 C 677.890 358.090, 684.707 361.626, 694.064 363.078 C 705.078 364.787, 713.671 363.477, 724.854 358.383 C 734.915 353.801, 746.041 342.652, 751.180 332 C 756.670 320.623, 758.450 311.936, 757.203 302.603 C 754.990 286.046, 745.900 274.394, 731.252 269.337 C 723.633 266.707, 709.030 266.724, 700 269.374 M 840.655 278.402 C 833.225 281.160, 828 288.523, 828 296.232 C 828 305.873, 839.066 312.654, 850.795 310.201 C 860.220 308.229, 864.968 303.387, 865.782 294.917 C 866.396 288.524, 864.574 284.678, 859.081 280.773 C 854.286 277.365, 846.238 276.329, 840.655 278.402 M 702.754 290.599 C 693.811 293.349, 687.810 301.893, 687.724 312 C 687.644 321.379, 692.679 327.638, 702.237 330.040 C 715.829 333.457, 728.827 324.546, 729.796 311.148 C 730.548 300.741, 725.104 292.727, 715.500 290.104 C 710.443 288.723, 708.626 288.793, 702.754 290.599 M 844.529 293.156 C 842.209 294.980, 841.875 295.841, 842.349 298.762 C 843.287 304.545, 848.621 306.826, 852.847 303.250 C 856.287 300.339, 856.600 296.509, 853.641 293.550 C 850.525 290.434, 848.121 290.330, 844.529 293.156 M 704.789 303.310 C 702.580 305.057, 700.794 309.776, 701.500 312 C 703.124 317.117, 710.494 318.951, 714.268 315.176 C 716.805 312.640, 717.143 306.715, 714.881 304.452 C 712.747 302.319, 706.881 301.655, 704.789 303.310 M 786.500 341.608 C 775.802 347.440, 775.383 356.840, 785.593 361.939 C 790.181 364.231, 790.744 365.543, 790.163 372.581 C 789.859 376.262, 789.468 376.788, 786.163 377.962 C 784.148 378.677, 780.414 380.779, 777.864 382.633 C 769.537 388.686, 767.809 394.196, 773.400 396.867 C 776.205 398.207, 776.423 398.119, 780.064 394.175 C 788.953 384.549, 801.541 384.286, 811.804 393.513 C 817.387 398.533, 819.053 398.933, 821.855 395.926 C 825.096 392.447, 822.120 386.717, 814.495 381.751 C 811.054 379.510, 803.716 376.793, 800.500 376.570 C 799.950 376.531, 799.366 373.685, 799.202 370.243 C 798.914 364.202, 799 363.950, 801.698 362.925 C 806.854 360.964, 810.883 357.138, 811.554 353.566 C 812.290 349.639, 810.499 345.230, 807.500 343.592 C 806.400 342.992, 805.185 342.060, 804.800 341.522 C 804.415 340.984, 800.815 340.415, 796.800 340.258 C 791.497 340.050, 788.679 340.419, 786.500 341.608 M 914.780 390.750 C 912.495 393.363, 913.260 409.527, 915.833 412.990 C 918.175 416.142, 921.965 416.659, 924.960 414.233 C 927.238 412.389, 927.252 412.250, 926.119 402.433 C 924.892 391.796, 923.315 389, 918.544 389 C 917.315 389, 915.621 389.788, 914.780 390.750 M 639.500 401.344 C 629.947 404.283, 623.155 408.042, 620.935 411.618 C 618.453 415.617, 618.485 418.224, 621.045 420.540 C 622.864 422.187, 623.587 422.258, 627.608 421.182 C 630.094 420.517, 633.786 419.237, 635.814 418.338 C 637.841 417.438, 639.950 416.629, 640.500 416.540 C 641.050 416.451, 643.173 415.618, 645.218 414.689 C 647.263 413.760, 649.374 413, 649.909 413 C 652.360 413, 654.204 405.999, 652.402 403.536 C 650.758 401.286, 643.625 400.075, 639.500 401.344 M 870.094 401.647 C 867.850 403.218, 867.765 403.710, 868.221 412.431 C 868.696 421.520, 869.885 425.393, 872.913 427.718 C 876.902 430.781, 881.004 427.584, 880.992 421.421 C 880.978 413.814, 878.938 404.565, 876.764 402.250 C 874.244 399.566, 873.200 399.471, 870.094 401.647 M 714.391 410.750 C 712.972 412.873, 712.548 415.439, 712.530 422 C 712.492 436.647, 715.640 445, 721.199 445 C 723.936 445, 726.216 440.703, 725.534 436.833 C 724.711 432.170, 724.174 427.684, 723.396 419 C 723.027 414.875, 722.321 410.712, 721.827 409.750 C 720.447 407.059, 716.504 407.590, 714.391 410.750 M 778.759 429.714 C 776.832 431.843, 774.368 443.168, 774.098 451.132 C 773.838 458.794, 776.818 461.773, 781.981 459.010 C 785.356 457.204, 788.267 435.707, 785.774 431 C 784.137 427.909, 780.925 427.320, 778.759 429.714 M 803.469 434.407 C 802.201 436.343, 801.930 439.469, 802.088 450.376 C 802.199 458.030, 802.777 464.931, 803.415 466.219 C 804.154 467.710, 805.606 468.604, 807.608 468.801 C 812.862 469.318, 813.500 467.450, 813.500 451.552 C 813.500 439.699, 813.213 436.974, 811.727 434.706 C 809.459 431.244, 805.632 431.106, 803.469 434.407 M 915.875 438.125 C 914.787 439.213, 914.119 440.867, 914.389 441.801 C 914.660 442.736, 915.393 445.480, 916.019 447.900 C 917.864 455.027, 921.657 462.746, 923.908 463.951 C 926.439 465.305, 929.567 463.941, 930.472 461.087 C 931.123 459.036, 926.175 443.441, 923.650 439.589 C 921.507 436.318, 918.288 435.712, 915.875 438.125 M 885.894 445.884 C 883.560 447.773, 883.495 448.234, 883.306 464.321 C 883.109 481.068, 883.849 486.706, 886.609 489.466 C 889.855 492.712, 894.750 490.438, 895.835 485.181 C 896.201 483.409, 896.236 475.320, 895.913 467.206 C 895.299 451.770, 894.321 447.896, 890.394 445.325 C 888.548 444.117, 887.991 444.186, 885.894 445.884 M 848.736 446.722 C 845.222 447.579, 843.961 452.216, 844.525 462.201 C 845.170 473.619, 845.436 475.770, 846.313 476.646 C 846.691 477.024, 847 478.086, 847 479.006 C 847 479.926, 848.094 481.178, 849.432 481.787 C 851.450 482.706, 852.319 482.537, 854.536 480.793 C 857.161 478.728, 857.197 478.542, 856.597 470.096 C 855.477 454.346, 854.846 450.923, 852.623 448.554 C 851.443 447.296, 849.717 446.482, 848.736 446.722 M 732.807 470.750 C 730.468 473.473, 729.979 475.625, 729.387 485.794 C 728.682 497.894, 730.430 507.581, 733.706 509.727 C 735.762 511.074, 736.260 511.060, 738.500 509.592 C 740.119 508.531, 741.019 506.993, 741.054 505.227 C 741.194 498.209, 741.242 479.114, 741.128 475.821 C 740.919 469.801, 736.129 466.882, 732.807 470.750 M 946.148 485.124 C 944.020 485.927, 943.845 486.463, 944.312 490.756 C 944.940 496.522, 950.577 515.662, 952.534 518.674 C 955.300 522.930, 959.556 522.567, 962.076 517.859 C 963.323 515.527, 960.143 501.922, 956.911 495.764 C 956.410 494.809, 956 493.528, 956 492.918 C 956 491.311, 952.147 486.146, 950.180 485.116 C 949.211 484.609, 947.505 484.612, 946.148 485.124 M 1008.406 495.002 C 1010.383 497.754, 1012 500.232, 1012 500.510 C 1012 500.789, 1014.925 505.059, 1018.500 510 C 1022.075 514.941, 1025 519.176, 1025 519.410 C 1025 519.644, 1028.037 524.495, 1031.750 530.190 C 1035.463 535.884, 1039.039 541.433, 1039.698 542.521 C 1040.357 543.610, 1042.828 547.650, 1045.188 551.500 C 1051.439 561.697, 1051.436 561.692, 1056.333 571.500 C 1063.327 585.509, 1066.853 594.139, 1068.469 601.201 C 1070.712 611.003, 1072.037 619.172, 1072.229 624.376 C 1072.534 632.645, 1070.839 644.895, 1069.030 647.500 C 1068.648 648.050, 1067.735 650.075, 1067.001 652 C 1065.412 656.166, 1060.233 663.007, 1054.585 668.402 C 1050.111 672.675, 1038.763 680.343, 1035.340 681.407 C 1031.258 682.675, 1030.958 684.092, 1032.982 692.554 C 1035.919 704.829, 1038.136 727.394, 1037.103 734.500 C 1036.204 740.679, 1036.902 743, 1039.656 743 C 1041.430 743, 1050.714 747.655, 1053.885 750.135 C 1055.197 751.161, 1056.578 752, 1056.956 752 C 1057.333 752, 1058.198 745.985, 1058.878 738.634 C 1062.734 696.963, 1076.851 674.864, 1108 661.742 C 1111.083 660.443, 1120.383 658.036, 1128.118 656.536 C 1130.384 656.096, 1130.806 655.413, 1131.251 651.468 C 1132.499 640.391, 1130.780 597.783, 1128.347 579.500 C 1128.054 577.300, 1127.676 574.260, 1127.506 572.745 C 1126.290 561.861, 1119.901 541.358, 1114.832 532.067 C 1110.355 523.863, 1107.319 520.096, 1099.751 513.350 C 1089.167 503.918, 1071.846 496.312, 1054.571 493.511 C 1043.648 491.740, 1022.722 490, 1012.352 490 L 1004.812 490 1008.406 495.002 M 569.917 491.374 C 569.688 491.579, 565.185 492.027, 559.910 492.369 C 554.636 492.711, 547.925 493.445, 544.998 494 C 542.071 494.555, 539.478 494.811, 539.235 494.569 C 538.993 494.326, 537.603 494.591, 536.147 495.158 C 534.691 495.724, 531.804 496.392, 529.732 496.641 C 520.602 497.740, 508.931 502.567, 498.500 509.558 C 484.964 518.629, 477.565 526.471, 470.724 539 C 466.182 547.318, 460.147 565.094, 459.520 572 C 459.396 573.375, 458.811 577.650, 458.221 581.500 C 457.631 585.350, 456.846 592.550, 456.476 597.500 C 455.804 606.505, 455.805 650.287, 456.477 655 C 456.673 656.375, 456.871 657.985, 456.917 658.577 C 456.963 659.170, 460.038 660.212, 463.750 660.893 C 471.362 662.291, 480.024 664.861, 481.450 666.145 C 481.973 666.615, 483.019 667, 483.775 667 C 485.497 667, 498.524 675.306, 502.366 678.854 C 505.110 681.387, 512.145 690.292, 514.727 694.500 C 515.803 696.253, 518.098 700.987, 521.029 707.500 C 523.135 712.179, 526.934 726.024, 527.889 732.500 C 529.003 740.054, 531.164 766.542, 530.866 769 C 530.767 769.825, 530.756 776.440, 530.842 783.699 L 531 796.898 534.346 795.500 C 536.186 794.731, 541.586 793.539, 546.346 792.851 L 555 791.599 555.070 783.550 C 555.202 768.507, 556.623 759.214, 560.647 747.066 C 566.292 730.024, 572.908 719.151, 585.184 706.742 C 590.057 701.817, 590.969 700.300, 591.497 696.242 C 592.992 684.759, 599.606 659.632, 603.932 649.002 L 606.782 642 601.928 642 C 588.218 642, 572.945 630.839, 565.357 615.273 C 562.552 609.519, 561.227 604.879, 559.660 595.320 C 557.650 583.058, 557.646 582.667, 559.431 570.182 C 561.325 556.929, 564.003 544.945, 566.398 539 C 567.173 537.075, 569.265 531.675, 571.045 527 C 572.826 522.325, 577.326 512.313, 581.045 504.750 L 587.807 491 579.070 491 C 574.265 491, 570.146 491.168, 569.917 491.374 M 763.229 495.738 C 760.277 496.767, 759.106 501.599, 759.304 511.928 C 759.474 520.784, 759.763 522.356, 761.448 523.587 C 763.650 525.196, 766.886 524.579, 768.761 522.193 C 770.293 520.242, 769.801 501.364, 768.136 498.254 C 766.927 495.995, 765.132 495.074, 763.229 495.738 M 690.220 499.250 C 689.352 500.310, 687.985 504.379, 686.276 511 C 686.063 511.825, 685.638 516.586, 685.331 521.581 C 684.890 528.770, 685.107 531.307, 686.376 533.760 C 688.520 537.906, 691.620 538.825, 694.328 536.117 C 696.536 533.908, 697.359 528.910, 698.563 510.399 C 699.061 502.746, 698.893 501.036, 697.506 499.649 C 695.555 497.698, 691.667 497.485, 690.220 499.250 M 806.663 504.257 C 802.716 507.143, 801.748 532.913, 805.378 538.454 C 806.681 540.444, 807.808 541.042, 809.813 540.810 C 813.694 540.362, 814.959 535.774, 814.846 522.562 C 814.743 510.568, 813.891 506.152, 811.313 504.250 C 809.204 502.695, 808.798 502.696, 806.663 504.257 M 923.300 509.794 C 920.362 511.661, 920.183 518.168, 922.528 537.832 C 923.487 545.866, 928.368 549.489, 932.571 545.287 C 934.069 543.788, 934.206 542.126, 933.660 532.037 C 932.713 514.519, 928.864 506.256, 923.300 509.794 M 865.224 513.556 C 863.110 515.036, 860.277 525.021, 861.438 526.899 C 861.753 527.410, 861.495 532.372, 860.863 537.927 C 859.809 547.198, 859.862 548.190, 861.512 550.014 C 864.108 552.882, 867.497 552.515, 869.928 549.101 C 873.787 543.682, 875.161 521.907, 872.015 516.028 C 870.313 512.847, 867.630 511.871, 865.224 513.556 M 898.884 525.640 C 897.294 527.555, 896.388 545.950, 897.461 554.532 C 898.197 560.428, 900.320 562.668, 904.049 561.485 C 907.837 560.282, 909.175 555.637, 908.897 544.651 C 908.594 532.648, 907.531 526.962, 905.269 525.250 C 902.999 523.532, 900.507 523.684, 898.884 525.640 M 643.960 528.649 C 642.255 529.110, 639.708 533.621, 638.114 539 C 636.183 545.515, 633 562.791, 633 566.752 C 633 573.537, 639.253 576.596, 642.620 571.458 C 644.625 568.398, 649.670 547.122, 650.579 537.891 C 651.187 531.721, 651.074 531.165, 648.893 529.638 C 647.607 528.737, 646.318 528.052, 646.027 528.116 C 645.737 528.180, 644.807 528.420, 643.960 528.649 M 978.296 536.227 C 975.692 539.588, 976.052 541.469, 981.387 552.400 C 986.668 563.219, 988.733 566.072, 992.156 567.281 C 993.872 567.886, 996.227 565.822, 997.311 562.763 C 997.905 561.089, 994.739 552.821, 990.319 544.500 C 986.717 537.718, 980.471 533.420, 978.296 536.227 M 603.529 547.380 C 599.587 551.322, 595.123 569.512, 596.412 576.380 C 597.342 581.340, 601.125 583.319, 604.062 580.382 C 605.150 579.295, 606.256 576.626, 606.521 574.452 C 606.786 572.279, 607.299 569.150, 607.662 567.500 C 608.024 565.850, 608.394 563.825, 608.484 563 C 608.573 562.175, 608.913 560.600, 609.239 559.500 C 609.565 558.400, 610.114 555.414, 610.460 552.865 C 610.941 549.316, 610.710 547.852, 609.473 546.615 C 607.305 544.448, 606.337 544.573, 603.529 547.380 M 721.542 567.954 C 719.378 570.345, 716.185 592.686, 717.350 597.284 C 718.238 600.789, 721.906 602.656, 724.830 601.091 C 727.655 599.579, 728.925 594.470, 729.576 582 C 730.172 570.575, 729.165 566.748, 725.420 566.206 C 724.303 566.044, 722.558 566.831, 721.542 567.954 M 670.745 578.750 C 667.470 582.414, 662.890 601.972, 663.677 608.937 C 664.123 612.886, 665.267 614.575, 667.976 615.283 C 672.218 616.393, 673.947 611.991, 677.466 591.111 C 678.895 582.632, 678.898 581.494, 677.501 579.361 C 675.670 576.566, 672.920 576.317, 670.745 578.750 M 1011.884 580.116 C 1010.479 581.521, 1010.018 582.877, 1010.447 584.342 C 1010.795 585.529, 1011.256 587.175, 1011.473 588 C 1011.689 588.825, 1013.021 592.398, 1014.433 595.940 C 1015.845 599.481, 1017 602.969, 1017 603.690 C 1017 605.874, 1020.841 609, 1023.525 609 C 1025.327 609, 1026.334 608.252, 1027.043 606.387 C 1029.208 600.692, 1021.372 580.765, 1016.226 578.880 C 1014.511 578.251, 1013.445 578.555, 1011.884 580.116 M 920.232 584.836 C 917.912 586.308, 917.321 591.375, 917.927 604.612 C 918.582 618.944, 919.355 621, 924.087 621 C 927.670 621, 929.047 618.570, 929.729 611.047 C 930.381 603.863, 928.473 589.371, 926.474 586.320 C 924.927 583.959, 922.517 583.385, 920.232 584.836 M 771.535 590.247 C 770.113 591.486, 768.790 593.400, 768.594 594.500 C 766.648 605.430, 765.829 611.742, 765.678 616.965 C 765.531 622.063, 765.842 623.404, 767.441 624.576 C 768.509 625.359, 770.186 626, 771.168 626 C 773.312 626, 775.923 622.288, 776.548 618.353 C 776.797 616.784, 777.230 614.121, 777.511 612.435 C 778.539 606.259, 779.055 595.526, 778.454 592.792 C 777.519 588.535, 774.691 587.495, 771.535 590.247 M 870.441 591.418 C 868.693 592.696, 868.467 594.363, 868.171 608.168 C 867.976 617.258, 868.267 624.608, 868.886 626.222 C 870.344 630.025, 874.493 630.950, 877.341 628.106 C 879.283 626.167, 879.534 624.679, 879.835 613.333 C 880.222 598.719, 879.738 595.169, 876.949 592.175 C 874.583 589.636, 873.114 589.465, 870.441 591.418 M 836.836 593.673 C 834.499 594.292, 832.266 604.351, 831.311 618.563 C 830.701 627.632, 831.852 630, 836.871 630 C 839.041 630, 839.838 629.336, 840.770 626.750 C 842.419 622.178, 843.957 610.710, 843.980 602.807 C 843.997 597.011, 843.702 595.905, 841.777 594.557 C 840.555 593.701, 839.318 593.052, 839.027 593.116 C 838.737 593.180, 837.751 593.430, 836.836 593.673 M 611.395 600.250 C 605.014 605.245, 603.379 607.972, 604.976 610.955 C 607.196 615.103, 612.434 613.838, 617.381 607.959 C 623.308 600.915, 618.483 594.702, 611.395 600.250 M 1017.364 632.926 C 1005.830 640.647, 1002.346 645.203, 1005.537 648.395 C 1008.550 651.407, 1010.853 650.901, 1019.135 645.403 C 1028.145 639.423, 1031.220 634.379, 1028.127 630.654 C 1026.048 628.148, 1023.789 628.624, 1017.364 632.926 M 660.455 651.455 C 659.105 652.805, 658 654.803, 658 655.896 C 658 656.988, 657.550 658.160, 657 658.500 C 656.450 658.840, 656 660.141, 656 661.392 C 656 662.643, 655.687 663.980, 655.304 664.362 C 654.922 664.745, 654.498 665.607, 654.363 666.279 C 654.228 666.951, 653.821 668.625, 653.459 670 C 653.098 671.375, 652.566 675.104, 652.278 678.286 C 651.687 684.812, 653.444 688, 657.632 688 C 661.012 688, 662.530 684.915, 665.506 672 C 669.400 655.096, 669.682 651.972, 667.456 650.344 C 664.821 648.418, 663.241 648.668, 660.455 651.455 M 891.773 661.250 C 889.960 664.050, 889.191 667.130, 888.015 676.294 C 886.789 685.850, 885.882 691.425, 885.486 691.835 C 885.309 692.019, 885.621 693.482, 886.179 695.085 C 888.187 700.844, 897 697.906, 897 691.477 C 897 690.335, 897.416 688.973, 897.924 688.450 C 900.189 686.122, 900.927 662.822, 898.817 660.279 C 897.143 658.262, 893.371 658.783, 891.773 661.250 M 970.509 660.985 C 966.737 663.471, 962.411 669.226, 960.922 673.736 C 959.978 676.597, 960.045 677.474, 961.304 678.732 C 963.777 681.206, 967.075 679.453, 972.621 672.719 C 978.386 665.718, 979.743 662.600, 977.960 660.452 C 976.321 658.477, 974.069 658.638, 970.509 660.985 M 731.076 665.631 C 728.342 669.107, 726.916 674.248, 725.010 687.500 C 724.117 693.711, 724.212 694.782, 725.852 697 C 728.404 700.451, 731.335 700.661, 733.769 697.566 C 735.534 695.323, 736.517 691.561, 737.567 683.042 C 737.733 681.690, 738.203 678.315, 738.611 675.542 C 739.868 666.989, 738.703 663, 734.950 663 C 733.957 663, 732.214 664.184, 731.076 665.631 M 804.400 669.765 C 802.337 671.143, 801.169 674.547, 800.084 682.349 C 798.395 694.493, 798.635 699.734, 800.934 700.965 C 801.998 701.534, 803.746 702, 804.819 702 C 807.004 702, 809.895 698.219, 809.890 695.367 C 809.889 694.340, 810.345 689.979, 810.904 685.675 C 811.930 677.768, 811.535 672.539, 809.737 670.250 C 808.649 668.865, 806.095 668.633, 804.400 669.765 M 1130 671.464 C 1116.245 674.021, 1109.727 676.542, 1101 682.684 C 1093.850 687.716, 1086.710 696.558, 1082.982 705 C 1082.374 706.375, 1081.230 708.807, 1080.439 710.404 C 1079.647 712.001, 1079 714.168, 1079 715.219 C 1079 716.271, 1078.593 717.892, 1078.095 718.822 C 1076.457 721.883, 1074.092 738.312, 1073.463 751 C 1073.122 757.857, 1072.786 763.700, 1072.716 763.984 C 1072.605 764.430, 1074.988 767.313, 1081 774.006 C 1081.825 774.924, 1082.950 776.356, 1083.500 777.188 C 1084.050 778.020, 1085.666 780.456, 1087.091 782.600 C 1091.570 789.341, 1099.589 805.232, 1101.926 812 C 1103.161 815.575, 1104.758 819.625, 1105.476 821 C 1107.818 825.489, 1114.053 850.809, 1115.449 861.500 C 1118.553 885.264, 1118.758 913.630, 1115.977 934.500 C 1113.834 950.580, 1113.693 951.402, 1112.028 957.500 C 1111.427 959.700, 1110.704 962.625, 1110.421 964 C 1109.387 969.015, 1107.790 974.570, 1106.540 977.500 C 1105.835 979.150, 1104.670 982.525, 1103.951 985 C 1102.444 990.182, 1093.330 1010.440, 1090.004 1016 C 1089.511 1016.825, 1087.845 1019.677, 1086.303 1022.338 C 1084.762 1024.999, 1082.728 1028.374, 1081.784 1029.838 C 1077.626 1036.287, 1077.653 1035.997, 1081.215 1036.036 C 1124.345 1036.504, 1147.612 1035.494, 1155.358 1032.817 C 1168.305 1028.344, 1172.812 1022.734, 1177.706 1005 C 1179.369 998.974, 1179.500 992.009, 1179.500 909.500 C 1179.500 851.833, 1179.852 819.972, 1180.500 819 C 1181.405 817.643, 1183.841 816.069, 1190.303 812.671 C 1200.722 807.190, 1211.996 795.476, 1218.695 783.172 C 1221.517 777.988, 1225.107 764.166, 1226.071 754.773 C 1226.969 746.025, 1226.840 743.521, 1225.019 734.362 C 1222.756 722.982, 1219.765 713.997, 1216.859 709.846 C 1215.836 708.386, 1215 706.875, 1215 706.490 C 1215 705.198, 1208.708 697.552, 1203.577 692.608 C 1189.492 679.038, 1169.251 671.068, 1147.500 670.529 C 1141.450 670.379, 1133.575 670.800, 1130 671.464 M 430 676.122 C 423.455 676.877, 407.360 681.118, 404.500 682.841 C 403.950 683.173, 402.953 683.527, 402.285 683.628 C 399.512 684.049, 388.095 691.784, 382.618 696.951 C 369.115 709.691, 361.337 724.161, 358.405 742 C 356.607 752.937, 356.646 765.665, 358.505 774.439 C 360.347 783.135, 366.662 796.199, 371.902 802.152 C 377.865 808.926, 395.167 819.954, 399.938 820.022 C 401.944 820.051, 405.231 822.808, 407.064 826 C 408.147 827.885, 408.377 830.836, 408 838 C 407.207 853.058, 408.183 953.218, 409.422 984 C 410.541 1011.804, 412.493 1020.592, 418.774 1026.106 C 425.667 1032.159, 428.830 1032.918, 452.060 1034.096 C 463.735 1034.689, 477.776 1035.010, 483.263 1034.811 L 493.237 1034.449 493.153 982.462 C 493.075 934.449, 492.924 930.017, 491.183 924.487 C 490.146 921.194, 489.209 915.742, 489.100 912.370 C 488.992 908.999, 488.541 902.924, 488.098 898.870 C 487.250 891.114, 487.552 857.679, 488.539 850 C 489.516 842.396, 494.054 828.729, 497.104 824.200 C 498.697 821.835, 500 819.527, 500 819.071 C 500 818.616, 503.164 814.926, 507.031 810.872 L 514.063 803.500 515.164 795.500 C 515.978 789.585, 515.954 782.289, 515.075 767.500 C 513.373 738.885, 512.344 731.896, 507.884 718.654 C 500.347 696.282, 485.195 681.435, 465.766 677.384 C 457.045 675.566, 440.034 674.965, 430 676.122 M 676.635 710.073 C 675.186 711.212, 674 712.607, 674 713.171 C 674 713.736, 673.337 715.616, 672.527 717.349 C 668.191 726.626, 667.128 740.879, 670.578 743.473 C 672.437 744.871, 675.574 744.636, 677.376 742.962 C 678.600 741.825, 683.907 718.300, 683.958 713.785 C 683.988 711.108, 683.460 709.781, 682.066 709.035 C 679.554 707.691, 679.698 707.663, 676.635 710.073 M 996.916 728.601 C 996.186 729.481, 995.511 730.719, 995.418 731.351 C 995.324 731.983, 994.751 734.975, 994.144 738 C 993.537 741.025, 992.788 745.075, 992.479 747 C 992.171 748.925, 991.506 752.027, 991.001 753.893 C 989.932 757.839, 991.017 760.553, 994.047 761.515 C 995.209 761.884, 996.791 761.589, 997.703 760.833 C 1002.423 756.918, 1006.087 737.151, 1003.565 729.205 C 1002.728 726.567, 998.894 726.218, 996.916 728.601 M 617.718 729.845 C 613.636 731.457, 607.417 744.196, 606.423 752.981 C 605.781 758.650, 605.867 758.982, 608.248 760.067 C 612.114 761.828, 614.402 759.918, 616.959 752.795 C 619.406 745.981, 621.634 740.513, 623.084 737.764 C 624.452 735.170, 624.194 732.337, 622.429 730.571 C 620.712 728.855, 620.360 728.801, 617.718 729.845 M 743.080 743.145 C 740.484 745.931, 737.081 761.657, 737.446 769.180 C 737.708 774.592, 741.147 777.803, 744.394 775.668 C 747.809 773.422, 749.282 767.608, 750.662 750.924 C 751.102 745.607, 750.886 744.029, 749.532 742.674 C 747.291 740.433, 745.483 740.565, 743.080 743.145 M 868.452 749.646 C 867.104 751.101, 866 752.663, 866 753.116 C 866 753.570, 864.921 756.317, 863.601 759.220 C 861.227 764.446, 859.016 771.402, 859.006 773.679 C 858.996 775.658, 862.005 778, 864.559 778 C 867.496 778, 870.424 773.603, 874.214 763.500 C 878.215 752.836, 878.329 752.151, 876.560 749.451 C 874.475 746.269, 871.516 746.340, 868.452 749.646 M 911.727 759.356 C 909.481 761.236, 907.542 764.978, 903.536 775.157 C 899.491 785.436, 899.357 789.050, 902.946 790.971 C 905.527 792.353, 909.252 790.847, 910.640 787.862 C 916.514 775.229, 919.366 765.093, 918.034 761.590 C 917.007 758.887, 913.689 757.712, 911.727 759.356 M 822.295 765.405 C 816.532 770.255, 809.359 789.362, 810.704 796.280 C 811.001 797.809, 812.085 799.510, 813.112 800.060 C 816.399 801.819, 819.277 798.804, 821.958 790.793 C 823.301 786.782, 824.719 782.825, 825.110 782 C 827.337 777.296, 830 769.437, 830 767.567 C 830 765.176, 828.274 763, 826.377 763 C 825.704 763, 823.867 764.082, 822.295 765.405 M 955.297 764.795 C 954.635 765.216, 952.202 769.146, 949.889 773.530 C 947.577 777.913, 945.083 782.625, 944.348 784 C 942.510 787.439, 942.666 790.388, 944.787 792.307 C 948.401 795.578, 951.928 792.720, 958.053 781.560 C 961.512 775.257, 962.891 767.779, 961.012 765.514 C 959.654 763.878, 957.221 763.572, 955.297 764.795 M 1040.500 766.104 C 1037.750 767.069, 1034.279 768.119, 1032.786 768.439 C 1030.689 768.888, 1029.841 769.871, 1029.060 772.760 C 1027.887 777.099, 1021.514 789.595, 1016.385 797.612 C 1014.431 800.667, 1013.029 803.362, 1013.269 803.603 C 1013.509 803.843, 1016.810 803.300, 1020.603 802.396 C 1024.396 801.493, 1028.419 800.634, 1029.542 800.488 C 1032.794 800.064, 1053.014 793.167, 1058.500 790.610 C 1061.250 789.328, 1064.513 787.961, 1065.750 787.572 C 1068.833 786.604, 1068.575 784.733, 1064.750 780.321 C 1061.836 776.960, 1059.563 774.777, 1052.599 768.655 C 1048.075 764.677, 1045.884 764.215, 1040.500 766.104 M 696.441 767.449 C 694.567 770.310, 692.345 778.461, 691.569 785.323 C 690.885 791.372, 692.967 796, 696.371 796 C 697.646 796, 699.372 795.212, 700.205 794.250 C 703.042 790.973, 706.009 768.921, 703.947 766.437 C 702.079 764.186, 698.241 764.703, 696.441 767.449 M 640.119 789.373 C 638.266 791.346, 637.775 793.125, 637.560 798.657 C 636.784 818.541, 641.651 830.349, 648.004 823.996 C 650.042 821.958, 650.104 821.261, 649.501 807.185 C 648.995 795.362, 648.523 792.013, 647.080 790 C 644.663 786.628, 642.852 786.465, 640.119 789.373 M 598.163 790.055 C 593.878 794.655, 594.842 811.384, 600.103 823.719 C 602.195 828.625, 606.060 830.369, 608.790 827.639 C 610.236 826.193, 610.272 825.131, 609.130 817.759 C 608.427 813.217, 607.432 805.702, 606.920 801.059 C 606.211 794.627, 605.473 792.068, 603.820 790.309 C 601.162 787.480, 600.587 787.454, 598.163 790.055 M 967.191 801.520 C 959.957 811.097, 958.644 814.630, 961.452 816.960 C 963.409 818.584, 966.118 817.575, 970.164 813.715 C 973.692 810.349, 979.945 801.431, 980.077 799.579 C 980.119 798.985, 980.318 797.615, 980.520 796.534 C 981.001 793.956, 979.296 792, 976.569 792 C 974.977 792, 972.427 794.589, 967.191 801.520 M 843.881 801.007 C 839.659 803.473, 835.231 824.851, 837.476 831.925 C 838.103 833.899, 841.320 835.198, 843.505 834.360 C 844.959 833.802, 846.487 830.327, 847.619 825 C 851.450 806.987, 851.693 803.836, 849.429 801.571 C 847.645 799.788, 846.216 799.643, 843.881 801.007 M 547.514 805.621 C 532.284 808.369, 518.210 817.463, 510.577 829.485 C 507.153 834.879, 503.873 844.188, 503.642 849.169 L 503.500 852.245 513 851.968 C 528.923 851.503, 561.868 851.795, 569.299 852.466 L 576.310 853.100 574.667 850.800 C 568.997 842.867, 559.332 818.844, 557.538 808.225 C 557.145 805.901, 556.526 804.040, 556.162 804.090 C 555.798 804.139, 551.906 804.828, 547.514 805.621 M 881.833 804.820 C 878.211 806.297, 871.492 818.818, 868.931 828.864 C 867.604 834.068, 867.633 834.284, 869.893 836.114 C 871.173 837.151, 872.647 838, 873.167 838 C 874.697 838, 879.803 831.919, 880.456 829.320 C 880.786 828.004, 882.400 823.993, 884.043 820.406 C 887.669 812.489, 888.322 808.121, 886.232 805.750 C 884.560 803.853, 884.327 803.804, 881.833 804.820 M 718.120 808.599 C 715.979 810.462, 715.701 811.210, 716.598 812.689 C 718.682 816.125, 722.084 817.138, 729.478 816.524 C 736.892 815.907, 737.641 815.572, 738.166 812.634 C 738.734 809.460, 734.230 807.021, 727.120 806.651 C 721.635 806.365, 720.374 806.638, 718.120 808.599 M 923.900 812.120 C 921.480 813.837, 917.430 817.240, 914.901 819.684 C 911.245 823.216, 910.400 824.644, 910.783 826.645 C 911.937 832.680, 918.560 830.911, 928.368 821.947 C 933.028 817.688, 934 816.231, 934 813.507 C 934 810.330, 932.692 809, 929.568 809 C 928.871 809, 926.320 810.404, 923.900 812.120 M 1084.236 830.551 C 1081.341 832.448, 1078.718 834, 1078.408 834 C 1078.098 834, 1074.562 835.579, 1070.550 837.508 C 1066.538 839.438, 1059.936 841.866, 1055.878 842.905 C 1051.820 843.944, 1046.025 845.489, 1043 846.337 C 1039.975 847.185, 1035.925 848.099, 1034 848.368 C 1032.075 848.636, 1024.972 849.791, 1018.215 850.933 C 1010.124 852.300, 1004.101 852.794, 1000.572 852.380 C 995.803 851.819, 995.145 851.968, 994.583 853.738 C 993.953 855.723, 991.217 868.558, 990.547 872.672 C 990.352 873.866, 989.931 876.116, 989.610 877.672 C 989.289 879.227, 988.795 883.060, 988.511 886.188 L 987.995 891.877 992.747 892.688 C 995.361 893.135, 1004.475 893.480, 1013 893.457 C 1026.123 893.420, 1030.340 892.998, 1040.500 890.706 C 1057.819 886.799, 1062.373 885.441, 1069.577 882.037 C 1073.113 880.367, 1076.283 879, 1076.621 879 C 1078.006 879, 1093.695 867.508, 1096.215 864.649 C 1098.615 861.925, 1098.868 860.985, 1098.401 856.534 C 1097.414 847.119, 1091.735 826.917, 1090.114 827.051 C 1089.776 827.078, 1087.131 828.653, 1084.236 830.551 M 806.728 840.978 C 803.512 845.569, 806.913 867.696, 811.250 870.399 C 813.823 872.002, 816.434 869.966, 816.820 866.056 C 817.237 861.835, 814.113 841.869, 812.783 840.250 C 811.249 838.384, 808.296 838.739, 806.728 840.978 M 974.500 842.478 C 964.127 847.145, 954.754 850.063, 929.500 856.490 C 922.350 858.309, 916.950 859.904, 917.500 860.033 C 918.050 860.163, 931.197 860.387, 946.715 860.533 C 977.807 860.824, 975.246 861.344, 976.461 854.500 C 976.754 852.850, 977.629 849.138, 978.406 846.250 C 979.961 840.473, 979.641 840.165, 974.500 842.478 M 740.500 846.255 C 717.237 848.766, 712.420 849.466, 708 850.983 C 706.625 851.454, 702.892 852.619, 699.704 853.571 C 696.426 854.551, 693.479 856.105, 692.919 857.151 C 691.969 858.927, 692.946 859.001, 717.715 859.018 C 731.897 859.028, 750.587 859.311, 759.250 859.647 C 768.112 859.991, 774.984 859.874, 774.964 859.379 C 774.900 857.778, 772.142 846.809, 771.691 846.358 C 770.893 845.559, 747.659 845.483, 740.500 846.255 M 628.037 856.930 C 626.755 859.326, 626.437 869.983, 627.468 876 C 628.407 881.479, 631.356 887.539, 633.480 888.354 C 634.366 888.694, 635.896 888.104, 637.006 886.994 C 639.112 884.888, 639.114 885.545, 636.942 867.501 C 635.827 858.233, 634.259 855, 630.880 855 C 629.885 855, 628.605 855.869, 628.037 856.930 M 833.895 861.730 C 830.625 862.465, 829.678 866.429, 830.258 876.956 C 830.658 884.222, 831.334 887.889, 832.706 890.246 C 835.153 894.447, 838.324 894.962, 840.577 891.523 C 842.294 888.903, 842.281 887.145, 840.434 871.500 C 839.530 863.843, 837.564 860.905, 833.895 861.730 M 650.075 864.818 C 648.436 868.775, 648.357 880.520, 649.956 882.447 C 652.159 885.101, 654.817 884.328, 655.791 880.750 C 657.173 875.677, 657.260 865.018, 655.933 863.419 C 654.031 861.127, 651.338 861.770, 650.075 864.818 M 507.269 863.929 C 504.941 864.314, 502.691 864.976, 502.269 865.400 C 500.808 866.864, 501.656 907.978, 503.305 915.626 C 507.502 935.097, 517.865 943.397, 540.500 945.418 C 543.800 945.713, 557.126 946.206, 570.114 946.513 L 593.728 947.072 595.041 943.786 C 597.339 938.036, 600.986 930.628, 603.550 926.500 C 607.956 919.407, 608.183 918.263, 606.496 911.680 C 605.642 908.346, 603.606 903.150, 601.972 900.132 C 600.337 897.114, 599 894.309, 599 893.899 C 599 893.271, 592.868 881.833, 589.500 876.179 C 588.950 875.255, 587.035 871.967, 585.246 868.870 L 581.991 863.241 546.746 863.235 C 527.360 863.231, 509.596 863.543, 507.269 863.929 M 687.875 872.448 C 687.741 875.191, 687.638 875.695, 686.748 878 C 686.429 878.825, 686.147 880.175, 686.123 881 C 686.079 882.432, 685.018 888.239, 683.016 898 C 682.509 900.475, 681.383 908.125, 680.515 915 C 678.513 930.865, 677.837 932.956, 671.903 941.646 L 667.024 948.792 728.075 948.563 L 789.126 948.334 792.479 940.621 C 794.323 936.379, 796.272 932.366, 796.809 931.704 C 797.347 931.042, 798.711 928.840, 799.841 926.812 C 802.432 922.163, 802.218 921.413, 793.189 903.500 C 789.307 895.800, 785.175 887.025, 784.005 884 C 779.176 871.517, 778.844 871.004, 775.558 870.953 C 773.876 870.927, 753.487 870.679, 730.250 870.401 L 688 869.897 687.875 872.448 M 895 872 L 888.500 872.500 885.314 878.500 C 883.562 881.800, 881.597 886.075, 880.946 888 C 880.296 889.925, 879.177 892.850, 878.460 894.500 C 877.234 897.323, 874.047 907.705, 873.395 911 C 873.232 911.825, 872.143 917.450, 870.976 923.500 C 869.809 929.550, 868.212 935.807, 867.427 937.404 C 866.642 939.001, 866 940.731, 866 941.249 C 866 941.767, 865.044 943.533, 863.876 945.174 L 861.752 948.157 916.626 947.657 C 946.807 947.381, 971.646 947.121, 971.825 947.078 C 972.004 947.035, 971.825 944.188, 971.428 940.750 C 969.833 926.961, 970.395 890.916, 972.433 876.250 L 973.024 872 968.262 871.946 C 935.523 871.575, 900.181 871.601, 895 872 M 1099 919.024 C 1094.603 922.504, 1081.644 929.847, 1075.982 932.066 C 1072.967 933.248, 1069.600 934.571, 1068.500 935.006 C 1061.507 937.775, 1053.065 940.124, 1048.500 940.573 C 1046.850 940.734, 1041.675 941.451, 1037 942.164 C 1024.947 944.003, 997.549 943.557, 991.110 941.417 C 989.989 941.045, 989.842 941.978, 990.354 946.228 C 990.703 949.127, 991.216 952.513, 991.494 953.750 C 991.772 954.987, 992.213 956.974, 992.474 958.164 C 993.373 962.266, 996.230 970.514, 998.706 976.156 L 1001.188 981.811 1012.808 983.568 C 1024.820 985.384, 1023.862 985.413, 1048.500 982.479 C 1053.185 981.921, 1063.949 979.093, 1070 976.830 C 1078.896 973.502, 1081.243 972.331, 1087.436 968.128 C 1091.842 965.137, 1093.640 963.187, 1094.635 960.321 C 1096.259 955.638, 1099.675 939.300, 1100.451 932.500 C 1101.797 920.706, 1102.125 917.001, 1101.822 917.022 C 1101.645 917.034, 1100.375 917.935, 1099 919.024 M 504.666 989.750 C 504.774 1012.712, 504.893 1032.259, 504.931 1033.188 C 504.994 1034.717, 507.135 1034.883, 527.750 1034.964 C 540.263 1035.014, 551.850 1035.268, 553.500 1035.530 C 556.813 1036.055, 717.462 1037.255, 772 1037.161 C 834.781 1037.053, 912.139 1036.962, 937 1036.966 C 1009.369 1036.978, 1025.212 1036.821, 1024.396 1036.102 C 1023.903 1035.667, 1020.324 1032.816, 1016.442 1029.767 C 1008.058 1023.179, 1002.049 1016.674, 995.738 1007.351 C 989.826 998.616, 979.821 978.520, 979.549 974.833 C 979.522 974.467, 979.162 973.829, 978.750 973.417 C 978.337 973.004, 978 971.707, 978 970.533 C 978 969.360, 977.565 967.965, 977.033 967.433 C 976.501 966.901, 975.702 964.714, 975.257 962.574 L 974.449 958.683 940.474 959.006 C 921.788 959.183, 894.660 959.387, 880.190 959.459 L 853.879 959.588 850.370 964.044 C 839.032 978.442, 830.992 986.391, 824.180 989.936 C 820.691 991.752, 817.600 992.444, 812.035 992.655 C 805.656 992.897, 803.984 992.592, 800.535 990.554 C 791.568 985.257, 787 976.677, 787 965.135 L 787 959.500 722.250 959.626 L 657.500 959.751 651.761 966.626 C 639.158 981.722, 628.607 989.670, 618.702 991.528 C 610.075 993.146, 599.483 987.042, 595.070 977.909 C 592.611 972.820, 590.644 963.553, 591.391 960.577 L 591.958 958.318 564.229 958.181 C 536.168 958.043, 525.355 957.275, 519 954.967 C 517.075 954.269, 515.050 953.537, 514.500 953.342 C 513.950 953.146, 511.700 951.884, 509.500 950.537 C 507.300 949.189, 505.268 948.067, 504.985 948.043 C 504.702 948.020, 504.558 966.788, 504.666 989.750 M 430.424 1048.122 C 430.069 1048.698, 430.093 1052.959, 430.479 1057.591 C 431.045 1064.390, 431.566 1066.283, 433.182 1067.415 C 434.761 1068.521, 440.624 1068.845, 460.904 1068.949 C 475.050 1069.022, 487.362 1068.798, 488.264 1068.452 C 489.900 1067.824, 490.519 1065.047, 491.371 1054.500 L 491.775 1049.500 472.029 1049.274 C 453.705 1049.064, 446.058 1048.702, 435.286 1047.533 C 432.920 1047.277, 430.787 1047.535, 430.424 1048.122 M 1146.500 1049.035 C 1142.650 1049.449, 1129.199 1049.847, 1116.610 1049.921 C 1104.020 1049.995, 1093.416 1050.243, 1093.044 1050.473 C 1092.052 1051.086, 1093.857 1066.256, 1095.066 1067.467 C 1096.351 1068.755, 1145.472 1069.453, 1150.117 1068.249 C 1153.939 1067.259, 1154.729 1065.200, 1155.257 1054.850 C 1155.482 1050.440, 1155.232 1048.051, 1154.553 1048.142 C 1153.974 1048.220, 1150.350 1048.622, 1146.500 1049.035" stroke="none" fill="#2942C9" fill-rule="evenodd"/>
    </g>
  </g>
</svg>
