<?xml version="1.0" encoding="UTF-8"?>
<svg xmlns="http://www.w3.org/2000/svg" viewBox="0 0 1280 1280" width="1280" height="1280" role="img" aria-labelledby="title desc">
  <title id="title">BillBandit raccoon - Celebrating</title>
  <desc id="desc">Transparent two-color vector mascot using cobalt and warm cream.</desc>
  <g id="mascot-celebrating" shape-rendering="geometricPrecision">
    <g id="warm-cream-base">
      <path d="M 485.071 88.752 C 477.787 92.466, 474.762 98.926, 470.440 120 C 468.414 129.876, 468.223 150.520, 470.056 161.500 C 472.478 176.006, 472.489 175.894, 467.926 183 C 465.630 186.575, 462.994 190.625, 462.068 192 C 461.142 193.375, 457.572 199.225, 454.135 205 C 450.698 210.775, 447.457 216.175, 446.933 217 C 445.228 219.685, 428.881 248.307, 424.800 255.750 C 419.511 265.399, 418.166 265.340, 413.399 255.250 C 409.322 246.621, 402.580 228.212, 397.375 211.500 C 393.144 197.913, 387 173.975, 387 171.075 C 387 169.892, 388.547 164.918, 390.438 160.022 C 394.894 148.485, 395.970 142.328, 395.284 132.311 C 394.616 122.567, 392.161 117.423, 386.796 114.531 C 383.299 112.645, 382.991 112.634, 379.562 114.269 C 377.592 115.209, 374.022 117.782, 371.628 119.989 C 369.235 122.195, 366.622 124, 365.822 124 C 365.011 124, 363.406 121.678, 362.191 118.747 C 359.467 112.175, 355.912 108.291, 350.382 105.845 C 346.553 104.151, 345.714 104.093, 342.789 105.319 C 334.265 108.890, 328.476 117.079, 326.577 128.251 L 325.344 135.500 321.922 135.271 C 309.387 134.433, 309.444 134.426, 305.748 137.245 C 301.334 140.609, 298 148.806, 298.001 156.288 C 298.002 163.932, 302.461 172.612, 310.886 181.373 L 317.741 188.500 318.425 218.025 C 318.801 234.264, 319.517 249.339, 320.016 251.525 C 320.515 253.711, 321.183 260, 321.501 265.500 C 321.819 271, 322.719 279.550, 323.501 284.500 C 324.282 289.450, 325.399 298.225, 325.981 304 C 327.216 316.240, 330.459 336.865, 332.519 345.581 C 333.309 348.926, 334.615 356.351, 335.421 362.081 C 336.227 367.812, 337.542 374.075, 338.343 376 C 339.144 377.925, 341.248 386.250, 343.019 394.500 C 344.789 402.750, 347.270 411.981, 348.532 415.013 C 349.794 418.046, 351.346 423.446, 351.981 427.013 C 352.616 430.581, 355.806 441.399, 359.068 451.052 C 362.331 460.706, 365 469.258, 365 470.056 C 365 470.854, 366.515 474.655, 368.366 478.503 C 370.217 482.352, 372.289 487.300, 372.972 489.500 C 375.142 496.499, 381.070 511.250, 384.772 518.865 C 388.032 525.571, 388.242 526.510, 387.124 529.365 C 379.017 550.066, 367.708 589.763, 364.579 608.500 C 363.661 614, 361.574 625.700, 359.941 634.500 C 358.308 643.300, 356.977 652.750, 356.983 655.500 C 356.989 658.250, 356.343 664.325, 355.547 669 C 351.364 693.580, 348.716 745.815, 350.832 762 C 351.443 766.675, 352.424 777.475, 353.012 786 C 355.534 822.580, 363.890 855.845, 378.506 887.500 C 385.210 902.018, 386.921 905.570, 388.382 908 C 389.208 909.375, 392.656 915.450, 396.044 921.500 C 399.432 927.550, 404.120 934.975, 406.462 938 C 408.804 941.025, 411.744 945.514, 412.995 947.975 C 414.246 950.436, 416.559 953.654, 418.135 955.126 C 419.854 956.732, 421 958.833, 421 960.378 C 421 961.795, 422.057 965.777, 423.350 969.227 C 424.642 972.677, 426.897 981.125, 428.360 988 C 429.823 994.875, 431.669 1002.525, 432.461 1005 C 433.253 1007.475, 434.201 1012.200, 434.566 1015.500 C 434.932 1018.800, 436.055 1023.525, 437.062 1026 C 438.068 1028.475, 439.847 1035.675, 441.015 1042 C 442.182 1048.325, 444.207 1057.775, 445.515 1063 C 446.822 1068.225, 449.509 1079.250, 451.486 1087.500 C 455.897 1105.907, 459.809 1120.738, 461.060 1123.797 C 461.577 1125.060, 462 1127.139, 462 1128.417 C 462 1130.349, 461.201 1130.947, 457.250 1131.968 C 437.472 1137.082, 421.209 1148.039, 419.445 1157.440 C 418.494 1162.510, 419.721 1167.716, 422.293 1169.519 C 429.321 1174.449, 432.713 1176.175, 437.338 1177.175 C 443.421 1178.491, 507.148 1177.536, 520.287 1175.932 C 534.969 1174.140, 537.565 1172.454, 541.031 1162.452 C 542.970 1156.859, 545.341 1139.147, 545.042 1132.500 C 544.967 1130.850, 545.373 1126.800, 545.944 1123.500 C 547.217 1116.139, 551.551 1079.660, 553.014 1064 C 553.604 1057.675, 554.494 1051.375, 554.990 1050 C 555.487 1048.625, 556.379 1044.125, 556.974 1040 C 557.568 1035.875, 558.542 1030.994, 559.137 1029.153 C 560.181 1025.924, 560.366 1025.826, 564.360 1026.372 C 566.637 1026.683, 571.875 1027.200, 576 1027.519 C 580.125 1027.839, 585.300 1028.541, 587.500 1029.079 C 589.700 1029.618, 602.300 1030.478, 615.500 1030.993 C 628.700 1031.507, 642.875 1032.448, 647 1033.085 C 652.679 1033.962, 659.113 1033.963, 673.500 1033.089 C 690.822 1032.036, 696.679 1031.437, 708.500 1029.512 C 711.222 1029.068, 713.090 1029.300, 714.346 1030.237 C 716.852 1032.106, 719.961 1043.352, 724.649 1067.500 C 726.037 1074.650, 728.066 1084.325, 729.158 1089 C 730.250 1093.675, 731.821 1100.650, 732.648 1104.500 C 733.476 1108.350, 735.291 1114.875, 736.682 1119 C 738.073 1123.125, 739.276 1128.679, 739.355 1131.343 L 739.500 1136.186 734 1137.914 C 730.975 1138.865, 726.700 1140.782, 724.500 1142.175 C 722.300 1143.568, 719.500 1145.025, 718.278 1145.412 C 715.234 1146.378, 709.386 1153.421, 707.476 1158.423 C 705.267 1164.208, 707.034 1169.384, 712.535 1173.245 C 715.853 1175.573, 718.165 1176.235, 725.535 1176.965 C 738.895 1178.288, 780.918 1178.484, 793.577 1177.282 C 804.684 1176.227, 809.028 1174.837, 812.214 1171.316 C 814.855 1168.398, 817.768 1161.027, 818.466 1155.500 C 818.812 1152.750, 819.807 1147.125, 820.675 1143 C 824.344 1125.564, 825.643 1123.560, 830.280 1128.181 C 838.866 1136.736, 849.362 1145.269, 853.563 1147.110 C 856.278 1148.299, 859.626 1150.062, 861.001 1151.027 C 864.835 1153.716, 883.749 1162, 886.056 1162 C 887.180 1162, 889.405 1162.675, 891.001 1163.500 C 892.596 1164.326, 898.625 1165.912, 904.397 1167.026 C 913.890 1168.858, 916.403 1168.956, 930.696 1168.054 C 948.054 1166.959, 954.959 1165.470, 965.500 1160.550 C 983.850 1151.986, 993.094 1139.944, 997.539 1118.815 C 1000.827 1103.182, 995.943 1074.741, 986.885 1056.779 C 985.298 1053.632, 984 1050.539, 984 1049.906 C 984 1048.032, 972.936 1026.746, 970.365 1023.673 C 969.064 1022.118, 967.732 1019.643, 967.405 1018.173 C 966.109 1012.347, 963.607 1006.897, 960.571 1003.288 C 956.149 998.030, 947 984.092, 947 982.612 C 947 981.941, 945.585 979.166, 943.856 976.446 C 942.126 973.726, 938.248 965.425, 935.236 958 C 928.400 941.145, 923.521 929.344, 918.079 916.500 C 915.748 911, 913.164 904.700, 912.336 902.500 C 911.508 900.300, 909.744 896.409, 908.415 893.853 C 907.087 891.297, 906 888.471, 906 887.574 C 906 886.677, 904.650 883.269, 903 880 C 901.350 876.731, 900 873.550, 900 872.930 C 900 872.310, 899.277 870.279, 898.393 868.417 C 897.363 866.246, 896.984 863.680, 897.336 861.266 C 898.821 851.074, 900.066 845.796, 902.825 838 C 911.897 812.363, 917.344 778.673, 920.365 729.500 C 920.974 719.584, 919.152 694.199, 917.028 683 C 915.932 677.225, 914.573 668.028, 914.006 662.562 C 913.439 657.096, 912.546 651.021, 912.022 649.062 C 911.497 647.103, 910.607 641.225, 910.044 636 C 909.025 626.541, 907.650 617.333, 903.843 594.500 C 901.045 577.710, 897.653 563.795, 890.559 540 C 884.159 518.531, 882 510.334, 882 507.510 C 882 506.117, 884.679 499.442, 887.954 492.676 C 891.228 485.911, 894.372 478.302, 894.940 475.768 C 895.992 471.072, 902.116 452.365, 912.868 421 C 916.167 411.375, 920.087 399, 921.578 393.500 C 923.070 388, 925.790 378.100, 927.622 371.500 C 929.455 364.900, 931.877 355.675, 933.005 351 C 934.133 346.325, 935.546 340.700, 936.146 338.500 C 936.745 336.300, 937.812 331.125, 938.517 327 C 940.027 318.162, 944.232 296.435, 946.354 286.500 C 947.177 282.650, 948.121 277.250, 948.453 274.500 C 948.784 271.750, 949.925 262.525, 950.987 254 C 953.153 236.625, 955.238 207.783, 954.471 205.786 C 954.196 205.068, 954.365 202.371, 954.846 199.793 C 955.508 196.252, 956.552 194.433, 959.111 192.362 C 975.376 179.199, 980.074 166.363, 973.602 152.773 C 969.119 143.359, 963.391 140.483, 954.968 143.415 C 948.940 145.514, 948 145.405, 948 142.605 C 948 138.460, 943.910 126.642, 941.260 123.131 C 937.918 118.703, 931.537 115.876, 926.668 116.666 C 922.365 117.365, 917.753 122.044, 914.809 128.699 C 913.763 131.065, 912.328 133, 911.621 133 C 910.913 133, 908.886 131.197, 907.115 128.994 C 903.438 124.418, 897.452 121, 893.117 121 C 889.580 121, 884.653 125.502, 882.468 130.731 C 879.499 137.837, 881.650 162.879, 885.935 171.101 C 887.071 173.279, 887.998 176.060, 887.995 177.281 C 887.989 180.526, 881.051 201.261, 874.204 218.500 C 858.473 258.102, 855.182 265, 852.014 265 C 851.025 265, 847.669 262.863, 844.555 260.250 C 838.913 255.517, 838.894 255.484, 839.490 251 C 839.862 248.202, 839.538 244.798, 838.633 242 C 836.577 235.637, 829.661 219.329, 826.758 213.996 C 821.839 204.960, 805.898 180.373, 802.003 175.814 C 799.801 173.237, 797.997 170.087, 797.993 168.814 C 797.989 167.541, 799.073 162, 800.402 156.500 C 801.730 151, 803.323 143.800, 803.941 140.500 C 804.559 137.200, 805.719 131.575, 806.519 128 C 808.325 119.926, 809.426 98.538, 808.242 94.500 C 806.876 89.840, 801.821 87, 794.891 87 C 785.284 87, 772.666 90.522, 761.617 96.287 C 749.774 102.466, 737.928 113.033, 730.601 123.953 C 728.001 127.829, 725.212 131, 724.404 131 C 723.597 131, 721.263 130.296, 719.218 129.436 C 717.173 128.576, 712.350 127.280, 708.500 126.558 C 704.650 125.835, 699.025 124.267, 696 123.074 C 691.764 121.403, 687.628 120.793, 678 120.420 C 671.125 120.153, 661.900 119.462, 657.500 118.884 C 647.654 117.589, 628.386 118.517, 613.500 121.004 C 607.450 122.014, 600.025 123.141, 597 123.507 C 589.662 124.395, 555.212 132.860, 551.800 134.613 C 547.337 136.905, 546.185 136.310, 543.043 130.085 C 538.778 121.636, 533.392 114.259, 524.894 105.225 C 516.103 95.880, 511.581 92.717, 502.366 89.465 C 494.184 86.578, 489.697 86.393, 485.071 88.752 M 196.334 196.752 C 191.312 204.284, 191.221 206.762, 195.637 215.579 C 198.467 221.227, 201.298 224.929, 206.751 230.109 C 210.776 233.931, 216.023 238.009, 218.411 239.169 C 222.687 241.246, 222.794 241.250, 225.346 239.389 C 226.771 238.350, 227.951 236.993, 227.969 236.372 C 227.986 235.752, 228.700 234.664, 229.555 233.955 C 233.627 230.575, 233.291 229.248, 227.416 225.490 C 218.066 219.508, 207 207.051, 207 202.506 C 207 199.980, 201.737 191.996, 200.076 192.002 C 199.759 192.003, 198.075 194.140, 196.334 196.752 M 1075.221 208.739 C 1074.518 208.985, 1072.331 211.731, 1070.361 214.843 C 1068.391 217.954, 1065.817 221.570, 1064.640 222.878 C 1062.615 225.127, 1047.611 233.084, 1043.236 234.228 C 1042.118 234.520, 1040.403 235.981, 1039.425 237.474 C 1037.716 240.083, 1037.719 240.323, 1039.511 243.651 C 1042.953 250.041, 1045.473 252, 1050.255 252 C 1061.697 252, 1084.580 235.083, 1088.955 223.390 C 1091.484 216.630, 1090.793 214.939, 1084.237 211.850 C 1076.789 208.341, 1076.572 208.267, 1075.221 208.739 M 161.196 391.804 C 160.203 392.797, 158.094 396.662, 156.507 400.394 C 153.079 408.462, 153.512 409.711, 160.435 411.730 C 165.370 413.169, 167.706 415.251, 184.500 433.180 C 188.050 436.969, 192.835 440.789, 196.218 442.533 L 201.935 445.480 206.364 441.134 C 211.114 436.472, 214.610 430.031, 213.690 427.635 C 213.379 426.825, 210.252 424.791, 206.740 423.115 C 200.292 420.037, 186.732 407.885, 180.774 399.844 C 178.227 396.407, 167.531 390, 164.340 390 C 163.603 390, 162.188 390.812, 161.196 391.804 M 1071 398.330 C 1066.797 399.875, 1062.921 403.487, 1056.954 411.422 C 1051.439 418.754, 1046.448 422.453, 1039.975 424.006 C 1034.043 425.429, 1032.747 428.070, 1035.606 432.910 C 1038.521 437.845, 1044.128 438.859, 1051 435.693 C 1053.826 434.390, 1060.171 429.968, 1061.140 428.624 C 1063.872 424.838, 1075.639 414.056, 1077.567 413.573 C 1080.954 412.723, 1081.971 408.001, 1080.276 401 C 1079.296 396.950, 1076.749 396.217, 1071 398.330 M 268.888 572.360 C 266.468 574.207, 262.241 576.849, 259.494 578.230 C 254.686 580.647, 243.177 584, 239.686 584 C 238.759 584, 237.100 584.900, 236 586 C 233.346 588.654, 233.272 595.879, 235.865 599.081 C 237.675 601.317, 237.901 601.345, 243.615 600.052 C 253.495 597.816, 268.885 589.756, 276.369 582.899 C 280.016 579.557, 283 576.228, 283 575.500 C 283 573.698, 277.267 569, 275.067 569 C 274.088 569, 271.308 570.512, 268.888 572.360 M 1005.743 596.029 C 1003.659 597.308, 1000 604.145, 1000 606.760 C 1000 609.110, 1001.885 611, 1004.229 611 C 1007.115 611, 1017.240 616.525, 1020.089 619.656 C 1021.513 621.220, 1024.802 625.313, 1027.398 628.750 C 1030.021 632.225, 1032.892 635, 1033.861 635 C 1036.130 635, 1044 629.209, 1044 627.540 C 1044 626, 1033.791 610.653, 1030.163 606.738 C 1028.755 605.219, 1024.787 602.141, 1021.345 599.899 C 1014.812 595.643, 1008.802 594.152, 1005.743 596.029" stroke="none" fill="#F7F1DD" fill-rule="evenodd"/>
    </g>
    <g id="cobalt-ink">
      <path d="M 485.071 88.752 C 477.787 92.466, 474.762 98.926, 470.440 120 C 468.414 129.876, 468.223 150.520, 470.056 161.500 C 472.478 176.006, 472.489 175.894, 467.926 183 C 465.630 186.575, 462.994 190.625, 462.068 192 C 461.142 193.375, 457.572 199.225, 454.135 205 C 450.698 210.775, 447.457 216.175, 446.933 217 C 445.228 219.685, 428.881 248.307, 424.800 255.750 C 419.511 265.399, 418.166 265.340, 413.399 255.250 C 409.322 246.621, 402.580 228.212, 397.375 211.500 C 393.144 197.913, 387 173.975, 387 171.075 C 387 169.892, 388.547 164.918, 390.438 160.022 C 394.894 148.485, 395.970 142.328, 395.284 132.311 C 394.616 122.567, 392.161 117.423, 386.796 114.531 C 383.299 112.645, 382.991 112.634, 379.562 114.269 C 377.592 115.209, 374.022 117.782, 371.628 119.989 C 369.235 122.195, 366.622 124, 365.822 124 C 365.011 124, 363.406 121.678, 362.191 118.747 C 359.467 112.175, 355.912 108.291, 350.382 105.845 C 346.553 104.151, 345.714 104.093, 342.789 105.319 C 334.265 108.890, 328.476 117.079, 326.577 128.251 L 325.344 135.500 321.922 135.271 C 309.387 134.433, 309.444 134.426, 305.748 137.245 C 301.334 140.609, 298 148.806, 298.001 156.288 C 298.002 163.932, 302.461 172.612, 310.886 181.373 L 317.741 188.500 318.425 218.025 C 318.801 234.264, 319.517 249.339, 320.016 251.525 C 320.515 253.711, 321.183 260, 321.501 265.500 C 321.819 271, 322.719 279.550, 323.501 284.500 C 324.282 289.450, 325.399 298.225, 325.981 304 C 327.216 316.240, 330.459 336.865, 332.519 345.581 C 333.309 348.926, 334.615 356.351, 335.421 362.081 C 336.227 367.812, 337.542 374.075, 338.343 376 C 339.144 377.925, 341.248 386.250, 343.019 394.500 C 344.789 402.750, 347.270 411.981, 348.532 415.013 C 349.794 418.046, 351.346 423.446, 351.981 427.013 C 352.616 430.581, 355.806 441.399, 359.068 451.052 C 362.331 460.706, 365 469.258, 365 470.056 C 365 470.854, 366.515 474.655, 368.366 478.503 C 370.217 482.352, 372.289 487.300, 372.972 489.500 C 375.142 496.499, 381.070 511.250, 384.772 518.865 C 388.032 525.571, 388.242 526.510, 387.124 529.365 C 379.017 550.066, 367.708 589.763, 364.579 608.500 C 363.661 614, 361.574 625.700, 359.941 634.500 C 358.308 643.300, 356.977 652.750, 356.983 655.500 C 356.989 658.250, 356.343 664.325, 355.547 669 C 351.364 693.580, 348.716 745.815, 350.832 762 C 351.443 766.675, 352.424 777.475, 353.012 786 C 355.534 822.580, 363.890 855.845, 378.506 887.500 C 385.210 902.018, 386.921 905.570, 388.382 908 C 389.208 909.375, 392.656 915.450, 396.044 921.500 C 399.432 927.550, 404.120 934.975, 406.462 938 C 408.804 941.025, 411.744 945.514, 412.995 947.975 C 414.246 950.436, 416.559 953.654, 418.135 955.126 C 419.854 956.732, 421 958.833, 421 960.378 C 421 961.795, 422.057 965.777, 423.350 969.227 C 424.642 972.677, 426.897 981.125, 428.360 988 C 429.823 994.875, 431.669 1002.525, 432.461 1005 C 433.253 1007.475, 434.201 1012.200, 434.566 1015.500 C 434.932 1018.800, 436.055 1023.525, 437.062 1026 C 438.068 1028.475, 439.847 1035.675, 441.015 1042 C 442.182 1048.325, 444.207 1057.775, 445.515 1063 C 446.822 1068.225, 449.509 1079.250, 451.486 1087.500 C 455.897 1105.907, 459.809 1120.738, 461.060 1123.797 C 461.577 1125.060, 462 1127.139, 462 1128.417 C 462 1130.349, 461.201 1130.947, 457.250 1131.968 C 437.472 1137.082, 421.209 1148.039, 419.445 1157.440 C 418.494 1162.510, 419.721 1167.716, 422.293 1169.519 C 429.321 1174.449, 432.713 1176.175, 437.338 1177.175 C 443.421 1178.491, 507.148 1177.536, 520.287 1175.932 C 534.969 1174.140, 537.565 1172.454, 541.031 1162.452 C 542.970 1156.859, 545.341 1139.147, 545.042 1132.500 C 544.967 1130.850, 545.373 1126.800, 545.944 1123.500 C 547.217 1116.139, 551.551 1079.660, 553.014 1064 C 553.604 1057.675, 554.494 1051.375, 554.990 1050 C 555.487 1048.625, 556.379 1044.125, 556.974 1040 C 557.568 1035.875, 558.542 1030.994, 559.137 1029.153 C 560.181 1025.924, 560.366 1025.826, 564.360 1026.372 C 566.637 1026.683, 571.875 1027.200, 576 1027.519 C 580.125 1027.839, 585.300 1028.541, 587.500 1029.079 C 589.700 1029.618, 602.300 1030.478, 615.500 1030.993 C 628.700 1031.507, 642.875 1032.448, 647 1033.085 C 652.679 1033.962, 659.113 1033.963, 673.500 1033.089 C 690.822 1032.036, 696.679 1031.437, 708.500 1029.512 C 711.222 1029.068, 713.090 1029.300, 714.346 1030.237 C 716.852 1032.106, 719.961 1043.352, 724.649 1067.500 C 726.037 1074.650, 728.066 1084.325, 729.158 1089 C 730.250 1093.675, 731.821 1100.650, 732.648 1104.500 C 733.476 1108.350, 735.291 1114.875, 736.682 1119 C 738.073 1123.125, 739.276 1128.679, 739.355 1131.343 L 739.500 1136.186 734 1137.914 C 730.975 1138.865, 726.700 1140.782, 724.500 1142.175 C 722.300 1143.568, 719.500 1145.025, 718.278 1145.412 C 715.234 1146.378, 709.386 1153.421, 707.476 1158.423 C 705.267 1164.208, 707.034 1169.384, 712.535 1173.245 C 715.853 1175.573, 718.165 1176.235, 725.535 1176.965 C 738.895 1178.288, 780.918 1178.484, 793.577 1177.282 C 804.684 1176.227, 809.028 1174.837, 812.214 1171.316 C 814.855 1168.398, 817.768 1161.027, 818.466 1155.500 C 818.812 1152.750, 819.807 1147.125, 820.675 1143 C 824.344 1125.564, 825.643 1123.560, 830.280 1128.181 C 838.866 1136.736, 849.362 1145.269, 853.563 1147.110 C 856.278 1148.299, 859.626 1150.062, 861.001 1151.027 C 864.835 1153.716, 883.749 1162, 886.056 1162 C 887.180 1162, 889.405 1162.675, 891.001 1163.500 C 892.596 1164.326, 898.625 1165.912, 904.397 1167.026 C 913.890 1168.858, 916.403 1168.956, 930.696 1168.054 C 948.054 1166.959, 954.959 1165.470, 965.500 1160.550 C 983.850 1151.986, 993.094 1139.944, 997.539 1118.815 C 1000.827 1103.182, 995.943 1074.741, 986.885 1056.779 C 985.298 1053.632, 984 1050.539, 984 1049.906 C 984 1048.032, 972.936 1026.746, 970.365 1023.673 C 969.064 1022.118, 967.732 1019.643, 967.405 1018.173 C 966.109 1012.347, 963.607 1006.897, 960.571 1003.288 C 956.149 998.030, 947 984.092, 947 982.612 C 947 981.941, 945.585 979.166, 943.856 976.446 C 942.126 973.726, 938.248 965.425, 935.236 958 C 928.400 941.145, 923.521 929.344, 918.079 916.500 C 915.748 911, 913.164 904.700, 912.336 902.500 C 911.508 900.300, 909.744 896.409, 908.415 893.853 C 907.087 891.297, 906 888.471, 906 887.574 C 906 886.677, 904.650 883.269, 903 880 C 901.350 876.731, 900 873.550, 900 872.930 C 900 872.310, 899.277 870.279, 898.393 868.417 C 897.363 866.246, 896.984 863.680, 897.336 861.266 C 898.821 851.074, 900.066 845.796, 902.825 838 C 911.897 812.363, 917.344 778.673, 920.365 729.500 C 920.974 719.584, 919.152 694.199, 917.028 683 C 915.932 677.225, 914.573 668.028, 914.006 662.562 C 913.439 657.096, 912.546 651.021, 912.022 649.062 C 911.497 647.103, 910.607 641.225, 910.044 636 C 909.025 626.541, 907.650 617.333, 903.843 594.500 C 901.045 577.710, 897.653 563.795, 890.559 540 C 884.159 518.531, 882 510.334, 882 507.510 C 882 506.117, 884.679 499.442, 887.954 492.676 C 891.228 485.911, 894.372 478.302, 894.940 475.768 C 895.992 471.072, 902.116 452.365, 912.868 421 C 916.167 411.375, 920.087 399, 921.578 393.500 C 923.070 388, 925.790 378.100, 927.622 371.500 C 929.455 364.900, 931.877 355.675, 933.005 351 C 934.133 346.325, 935.546 340.700, 936.146 338.500 C 936.745 336.300, 937.812 331.125, 938.517 327 C 940.027 318.162, 944.232 296.435, 946.354 286.500 C 947.177 282.650, 948.121 277.250, 948.453 274.500 C 948.784 271.750, 949.925 262.525, 950.987 254 C 953.153 236.625, 955.238 207.783, 954.471 205.786 C 954.196 205.068, 954.365 202.371, 954.846 199.793 C 955.508 196.252, 956.552 194.433, 959.111 192.362 C 975.376 179.199, 980.074 166.363, 973.602 152.773 C 969.119 143.359, 963.391 140.483, 954.968 143.415 C 948.940 145.514, 948 145.405, 948 142.605 C 948 138.460, 943.910 126.642, 941.260 123.131 C 937.918 118.703, 931.537 115.876, 926.668 116.666 C 922.365 117.365, 917.753 122.044, 914.809 128.699 C 913.763 131.065, 912.328 133, 911.621 133 C 910.913 133, 908.886 131.197, 907.115 128.994 C 903.438 124.418, 897.452 121, 893.117 121 C 889.580 121, 884.653 125.502, 882.468 130.731 C 879.499 137.837, 881.650 162.879, 885.935 171.101 C 887.071 173.279, 887.998 176.060, 887.995 177.281 C 887.989 180.526, 881.051 201.261, 874.204 218.500 C 858.473 258.102, 855.182 265, 852.014 265 C 851.025 265, 847.669 262.863, 844.555 260.250 C 838.913 255.517, 838.894 255.484, 839.490 251 C 839.862 248.202, 839.538 244.798, 838.633 242 C 836.577 235.637, 829.661 219.329, 826.758 213.996 C 821.839 204.960, 805.898 180.373, 802.003 175.814 C 799.801 173.237, 797.997 170.087, 797.993 168.814 C 797.989 167.541, 799.073 162, 800.402 156.500 C 801.730 151, 803.323 143.800, 803.941 140.500 C 804.559 137.200, 805.719 131.575, 806.519 128 C 808.325 119.926, 809.426 98.538, 808.242 94.500 C 806.876 89.840, 801.821 87, 794.891 87 C 785.284 87, 772.666 90.522, 761.617 96.287 C 749.774 102.466, 737.928 113.033, 730.601 123.953 C 728.001 127.829, 725.212 131, 724.404 131 C 723.597 131, 721.263 130.296, 719.218 129.436 C 717.173 128.576, 712.350 127.280, 708.500 126.558 C 704.650 125.835, 699.025 124.267, 696 123.074 C 691.764 121.403, 687.628 120.793, 678 120.420 C 671.125 120.153, 661.900 119.462, 657.500 118.884 C 647.654 117.589, 628.386 118.517, 613.500 121.004 C 607.450 122.014, 600.025 123.141, 597 123.507 C 589.662 124.395, 555.212 132.860, 551.800 134.613 C 547.337 136.905, 546.185 136.310, 543.043 130.085 C 538.778 121.636, 533.392 114.259, 524.894 105.225 C 516.103 95.880, 511.581 92.717, 502.366 89.465 C 494.184 86.578, 489.697 86.393, 485.071 88.752 M 772.141 112.921 C 765.894 115.046, 759.500 117.733, 757.932 118.892 C 756.364 120.052, 754.658 121, 754.141 121 C 752.997 121, 743 131.805, 743 133.042 C 743 133.526, 742.099 134.761, 740.999 135.787 C 739.898 136.812, 737.660 140.411, 736.026 143.784 C 734.392 147.158, 731.903 150.673, 730.494 151.596 C 728.142 153.137, 727.631 153.146, 724.217 151.701 C 722.173 150.836, 718.250 149.898, 715.500 149.616 C 712.750 149.334, 707.575 148.392, 704 147.524 C 700.425 146.655, 694.463 145.519, 690.750 145 C 687.038 144.480, 681.413 143.387, 678.250 142.570 C 674.664 141.644, 669.301 141.207, 664 141.408 C 659.325 141.586, 654.375 141.303, 653 140.780 C 651.625 140.257, 643.531 139.861, 635.013 139.900 C 620.182 139.968, 610.728 141.214, 595.500 145.108 C 593.300 145.670, 589.700 146.499, 587.500 146.949 C 585.300 147.399, 578.775 148.795, 573 150.051 C 567.225 151.307, 560.925 152.380, 559 152.436 C 557.075 152.493, 553.980 153.359, 552.122 154.361 C 550.264 155.364, 547.677 155.980, 546.373 155.731 C 545.069 155.482, 543.214 155.876, 542.251 156.607 C 537.418 160.276, 530.625 155.294, 527.551 145.828 C 523.803 134.284, 513.859 119.720, 508.162 117.430 C 506.698 116.842, 503.025 115.158, 500 113.690 C 493.107 110.343, 492.198 110.349, 490.903 113.750 C 487.268 123.298, 486.249 141.884, 488.533 157 C 491.397 175.962, 491.431 176.914, 489.340 179.857 C 488.307 181.311, 486.162 184.975, 484.574 188 C 482.985 191.025, 480.743 194.825, 479.592 196.445 C 478.442 198.065, 476.150 201.773, 474.500 204.685 C 472.850 207.597, 469.314 213.386, 466.642 217.549 C 463.970 221.712, 462.053 225.386, 462.381 225.714 C 462.709 226.043, 465.399 224.104, 468.358 221.406 C 474.019 216.244, 487.886 205.978, 492.677 203.402 C 494.230 202.567, 497.750 200.550, 500.500 198.920 C 520.585 187.016, 533.733 182.490, 551.144 181.486 C 561.172 180.908, 563.287 181.080, 568.530 182.896 C 579.189 186.590, 584.247 195.091, 584.355 209.500 C 584.436 220.227, 583.478 223.876, 578.242 232.773 C 576.064 236.473, 573.983 240.749, 573.616 242.275 C 573.249 243.802, 571.418 246.746, 569.546 248.818 C 567.674 250.890, 565.863 253.691, 565.521 255.042 C 564.703 258.278, 550.027 275.347, 542.465 281.856 C 535.017 288.268, 521.306 299, 520.561 299 C 520.255 299, 517.866 300.518, 515.252 302.373 C 512.639 304.228, 505.550 308.223, 499.500 311.251 C 459.657 331.189, 448.300 337.480, 447.479 340.066 C 447.143 341.125, 447.456 343.681, 448.175 345.746 C 449.721 350.183, 455.732 361.852, 457.587 364.016 C 460.526 367.445, 465.390 379.658, 465.804 384.648 C 466.206 389.492, 465.989 390.165, 463.095 393.059 C 460.593 395.560, 459.419 396.071, 457.357 395.554 C 454.728 394.894, 446.433 388.530, 445.647 386.570 C 445.411 385.981, 442.873 382.350, 440.008 378.500 C 437.143 374.650, 433.196 368.125, 431.238 364 C 429.279 359.875, 427.158 355.825, 426.523 355 C 425.888 354.175, 424.108 350.205, 422.568 346.179 C 420.398 340.506, 419.914 337.941, 420.418 334.788 L 421.069 330.719 416.284 331.392 C 413.653 331.763, 408.009 332.343, 403.743 332.682 C 397.117 333.208, 395.696 333.034, 393.993 331.494 C 391.743 329.457, 391.461 326.875, 393.147 323.726 C 394.676 320.867, 397.393 318.657, 404 314.897 C 413.397 309.548, 415.801 306.479, 409.250 308.191 C 403.578 309.674, 399.792 309.692, 396.750 308.251 C 392.648 306.308, 393.245 303.284, 398.975 296.977 C 401.712 293.964, 403.961 290.600, 403.973 289.500 C 403.985 288.400, 402.421 284.890, 400.497 281.700 C 398.574 278.510, 397 275.509, 397 275.031 C 397 274.553, 396.335 272.888, 395.522 271.331 C 393.602 267.652, 387 250.549, 387 249.253 C 387 248.704, 386.126 246.279, 385.059 243.866 C 383.991 241.452, 381.999 235.207, 380.632 229.989 C 379.264 224.770, 377.396 217.800, 376.480 214.500 C 375.564 211.200, 374.162 205.800, 373.365 202.500 C 372.568 199.200, 371.499 195.150, 370.991 193.500 C 370.483 191.850, 369.841 188.925, 369.564 187 C 369.287 185.075, 368.501 180.435, 367.817 176.690 L 366.573 169.879 370.694 161.690 C 378.440 146.298, 381.717 135.179, 379.003 133.502 C 377.513 132.581, 369.661 140.107, 366.759 145.239 C 362.268 153.179, 354.712 151.415, 353.465 142.135 C 352.653 136.089, 350.087 126.836, 348.783 125.250 C 345.376 121.107, 341.551 128.735, 340.216 142.335 C 339.221 152.469, 337.589 156, 333.899 156 C 332.913 156, 329.420 154.425, 326.135 152.500 C 322.851 150.575, 319.732 149, 319.204 149 C 316.880 149, 315.783 152.065, 316.469 156.641 C 317.096 160.823, 318.093 162.224, 326.201 170.308 C 331.169 175.262, 335.811 180.707, 336.517 182.408 C 337.276 184.237, 338.106 192.852, 338.549 203.500 C 339.471 225.666, 339.756 230.868, 340.466 238.500 C 340.772 241.800, 341.500 249.900, 342.083 256.500 C 342.665 263.100, 343.739 270.525, 344.468 273 C 345.197 275.475, 346.337 282.225, 347 288 C 347.663 293.775, 348.834 302.037, 349.603 306.360 C 350.371 310.684, 351.011 315.859, 351.025 317.860 C 351.038 319.862, 351.874 323.975, 352.883 327 C 353.891 330.025, 355.492 337.675, 356.441 344 C 357.390 350.325, 358.793 357.300, 359.558 359.500 C 360.323 361.700, 362.264 369.125, 363.872 376 C 365.479 382.875, 367.527 390.975, 368.422 394 C 369.318 397.025, 370.480 401.654, 371.006 404.286 C 371.532 406.918, 373.348 412.534, 375.043 416.767 C 376.738 421, 378.781 427.621, 379.583 431.482 C 381.320 439.839, 384.686 450.336, 386.964 454.500 C 389.535 459.198, 391.896 466.142, 392.334 470.294 C 392.554 472.381, 393.694 475.110, 394.867 476.358 C 396.040 477.607, 397 479.078, 397 479.627 C 397 480.175, 397.871 482.427, 398.935 484.630 C 399.999 486.832, 401.151 489.729, 401.495 491.067 C 402.174 493.712, 404.748 497.616, 405.358 496.927 C 405.566 496.692, 408.983 490.200, 412.951 482.500 C 416.919 474.800, 420.710 467.825, 421.376 467 C 422.042 466.175, 423.217 464.242, 423.987 462.704 C 428.014 454.664, 435.369 449.402, 438.708 452.172 C 442.775 455.548, 442.289 458.030, 434.236 475 C 431.495 480.775, 428.240 487.975, 427.002 491 C 425.765 494.025, 423.962 498.300, 422.996 500.500 C 422.031 502.700, 419.999 508.100, 418.481 512.500 C 416.963 516.900, 413.807 525.450, 411.467 531.500 C 409.128 537.550, 406.414 545.875, 405.436 550 C 404.459 554.125, 401.894 562.865, 399.737 569.421 C 397.580 575.978, 395.631 583.628, 395.407 586.421 C 394.882 592.943, 393.988 598.214, 393.188 599.492 C 392.841 600.047, 392.418 601.400, 392.248 602.500 C 392.078 603.600, 390.828 609, 389.470 614.500 C 388.113 620, 386.990 627.200, 386.975 630.500 C 386.961 633.800, 386.072 640.325, 385 645 C 383.928 649.675, 383.042 655.525, 383.031 658 C 383.009 662.954, 381.409 679.836, 379.998 690 C 376.716 713.644, 377.063 758.470, 380.805 794.500 C 381.751 803.603, 387.668 831.371, 391.566 845 C 392.431 848.025, 393.504 851.850, 393.951 853.500 C 394.896 856.985, 396.123 860.157, 399.082 866.753 C 400.253 869.364, 401.802 872.850, 402.525 874.500 C 407.398 885.625, 413.301 897.481, 416.850 903.268 C 419.133 906.990, 421 910.300, 421 910.623 C 421 910.946, 422.306 913.145, 423.903 915.511 C 425.499 917.877, 427.109 920.767, 427.479 921.933 C 427.849 923.099, 429.805 926.056, 431.826 928.503 C 438.553 936.650, 439.668 938.467, 440.838 943.193 C 441.477 945.774, 442.862 949.374, 443.916 951.193 C 446.526 955.697, 458.477 992.608, 460.528 1002.500 C 462.452 1011.783, 463.710 1016.315, 465.524 1020.500 C 467.825 1025.813, 469 1030.220, 469 1033.544 C 469 1035.329, 469.839 1039.649, 470.864 1043.145 C 473.853 1053.331, 475.742 1060.725, 478.493 1073 C 479.911 1079.325, 481.745 1087.425, 482.568 1091 C 483.391 1094.575, 484.697 1101.100, 485.470 1105.500 C 486.243 1109.900, 487.568 1115.975, 488.415 1119 C 490.705 1127.181, 491.422 1135.342, 490.073 1137.863 C 488.732 1140.369, 478.580 1145.200, 468.523 1148.118 C 459.528 1150.727, 458.820 1150.999, 450.750 1154.930 C 438.696 1160.802, 442.281 1162.039, 467.765 1160.801 C 504.820 1159.002, 515.178 1158.222, 516.249 1157.151 C 517.694 1155.706, 517.766 1155.216, 518.999 1138.500 C 519.567 1130.800, 520.666 1120.450, 521.442 1115.500 C 522.217 1110.550, 523.125 1102.900, 523.459 1098.500 C 525.121 1076.587, 525.021 1077.613, 527.523 1056.602 C 528.367 1049.508, 529.504 1041.715, 530.049 1039.283 C 530.593 1036.852, 531.518 1031.418, 532.104 1027.208 C 532.689 1022.998, 533.518 1018.867, 533.946 1018.027 C 534.374 1017.187, 535.019 1015.263, 535.381 1013.750 C 535.883 1011.648, 535.672 1011, 534.484 1011 C 530.620 1011, 523.758 1004.544, 521.934 999.191 C 520.665 995.467, 522.048 990.579, 524.655 989.579 C 526.692 988.797, 531.260 991.337, 535.304 995.502 C 539.148 999.459, 539.657 999.581, 543.636 997.506 C 547.438 995.523, 550.311 995.614, 554.790 997.861 C 556.830 998.885, 559.137 999.498, 559.915 999.223 C 560.694 998.948, 562.719 999.435, 564.415 1000.305 C 569.305 1002.813, 579.601 1005, 586.516 1005 C 590.010 1005, 594.064 1005.454, 595.524 1006.009 C 596.984 1006.564, 603.876 1007.227, 610.839 1007.482 C 617.803 1007.737, 630.475 1008.256, 639 1008.634 C 647.525 1009.013, 656.300 1009.243, 658.500 1009.146 C 660.700 1009.049, 665.875 1008.839, 670 1008.680 C 674.125 1008.520, 679.075 1008.059, 681 1007.655 C 682.925 1007.251, 686.750 1006.735, 689.500 1006.508 C 692.250 1006.281, 698.550 1005.113, 703.500 1003.912 C 714.852 1001.159, 719.781 1001.163, 725.089 1003.929 C 728.039 1005.467, 729.598 1005.802, 730.342 1005.058 C 732.187 1003.213, 736.742 1003.912, 739.834 1006.514 C 742.931 1009.119, 746 1016.358, 746 1021.056 C 746 1022.541, 746.689 1025.405, 747.531 1027.420 C 748.373 1029.436, 748.948 1032.078, 748.809 1033.293 C 748.669 1034.507, 749.076 1037.975, 749.712 1041 C 750.348 1044.025, 751.378 1049.650, 752 1053.500 C 752.623 1057.350, 753.530 1062.525, 754.016 1065 C 756.862 1079.501, 759 1091.923, 759 1093.964 C 759 1095.254, 760.081 1100.177, 761.401 1104.904 C 764.611 1116.394, 766 1122.556, 766 1125.304 C 766 1126.556, 766.693 1130.239, 767.539 1133.489 C 769.306 1140.273, 768.443 1143.825, 764.379 1146.487 C 763.049 1147.359, 756.158 1150.038, 749.065 1152.441 C 734.592 1157.344, 730.813 1158.991, 730.282 1160.625 C 730.081 1161.244, 730.972 1161.953, 732.263 1162.199 C 736.835 1163.073, 787.759 1161.199, 789.850 1160.080 C 791.161 1159.379, 792.113 1157.612, 792.458 1155.238 C 793.518 1147.964, 797.257 1127.418, 798.598 1121.500 C 800.816 1111.716, 803.994 1092.347, 805.490 1079.500 C 807.598 1061.396, 810.825 1039.058, 812.063 1034 C 812.669 1031.525, 813.585 1025.900, 814.098 1021.500 C 814.612 1017.100, 815.435 1011.475, 815.928 1009 C 816.420 1006.525, 817.048 1003.375, 817.323 1002 C 817.598 1000.625, 818.100 997.250, 818.439 994.500 C 818.778 991.750, 819.690 985.675, 820.464 981 C 821.239 976.325, 822.607 967.325, 823.503 961 C 824.399 954.675, 825.284 948.600, 825.469 947.500 C 825.654 946.400, 826.113 943.025, 826.489 940 C 828.041 927.525, 832.990 900.952, 834.792 895.427 C 835.855 892.167, 837.300 887.343, 838.004 884.707 C 839.470 879.218, 842.319 876.565, 845.132 878.070 C 847.650 879.418, 849.277 882.778, 849.398 886.879 C 849.454 888.779, 850.019 890.508, 850.654 890.719 C 852.086 891.195, 858.256 875.521, 864.321 856 C 873.820 825.426, 878.002 811.401, 878.044 809.977 C 878.068 809.165, 878.740 806.700, 879.537 804.500 C 884.644 790.398, 892.395 724.093, 889.766 717 C 889.256 715.625, 889.131 711.737, 889.487 708.359 C 889.844 704.982, 889.683 700.482, 889.130 698.359 C 887.821 693.337, 886.873 683.191, 886.434 669.500 C 886.194 662.013, 885.469 656.743, 884.162 653 C 882.961 649.558, 881.999 643.216, 881.592 636.051 C 881.233 629.755, 880.230 622.158, 879.361 619.169 C 878.492 616.181, 878.030 612.204, 878.334 610.332 C 878.646 608.409, 878.234 605.095, 877.387 602.714 C 876.562 600.396, 875.691 595.896, 875.451 592.714 C 875.211 589.532, 874.336 585.617, 873.507 584.014 C 872.678 582.411, 872 579.081, 872 576.615 C 872 574.148, 871.510 570.863, 870.912 569.315 C 870.313 567.767, 869.222 563.800, 868.487 560.500 C 867.751 557.200, 865.302 547.525, 863.043 539 C 860.784 530.475, 858.579 521.925, 858.143 520 C 857.707 518.075, 856.781 515.441, 856.085 514.146 C 855.388 512.852, 854.428 509.252, 853.951 506.146 C 853.473 503.041, 851.274 492.664, 849.063 483.087 C 846.853 473.510, 845.302 464.646, 845.617 463.389 C 845.932 462.133, 847.314 460.369, 848.687 459.469 C 853.301 456.446, 857.499 459.602, 863.030 470.250 C 864.386 472.863, 865.780 475, 866.126 475 C 867.522 475, 869.123 471.947, 870.502 466.655 C 871.301 463.585, 872.845 459.144, 873.933 456.786 C 876.664 450.864, 887.548 420.529, 891.077 409 C 892.676 403.775, 894.844 397.025, 895.894 394 C 905.414 366.576, 913.670 334.961, 922.003 294.016 C 924.296 282.749, 926.375 273.203, 926.623 272.801 C 926.871 272.400, 927.260 268.793, 927.487 264.786 C 927.714 260.779, 928.367 255.250, 928.939 252.500 C 929.511 249.750, 930.635 242.325, 931.436 236 C 932.238 229.675, 933.352 221.350, 933.912 217.500 C 934.473 213.650, 935.102 206, 935.312 200.500 C 935.623 192.344, 936.108 189.808, 937.945 186.750 C 939.184 184.688, 940.510 183, 940.892 183 C 942.370 183, 953.312 173.005, 955.731 169.445 C 959.277 164.227, 960.343 159.037, 958.328 156.810 C 956.848 155.174, 956.538 155.195, 952.631 157.184 C 950.359 158.342, 947.065 160.381, 945.311 161.717 C 941.376 164.712, 937.389 164.439, 934.858 161 C 933.297 158.879, 933.152 157.667, 933.898 153.005 C 934.960 146.380, 933.702 136.274, 931.549 134.121 C 930.140 132.711, 929.811 132.750, 928.081 134.532 C 925.897 136.780, 921 148.019, 921 150.781 C 921 153.452, 917.310 157, 914.532 157 C 912.177 157, 909 154.691, 909 152.979 C 909 151.823, 903.444 143.613, 901.659 142.132 C 900.584 141.240, 899.974 141.326, 898.992 142.509 C 897.600 144.187, 898.212 154.539, 899.893 157.737 C 902.311 162.337, 905.178 170.942, 905.645 175 C 905.939 177.554, 905.520 181.879, 904.675 185 C 903.856 188.025, 902.211 194.100, 901.020 198.500 C 898.176 209.004, 896.357 214.383, 892.056 225 C 890.830 228.025, 888.357 234.550, 886.560 239.500 C 879.273 259.576, 863.304 292.580, 857.874 298.785 C 856.293 300.591, 855 302.534, 855 303.102 C 855 303.669, 853.875 305.608, 852.500 307.411 C 849.385 311.495, 849.383 312.474, 852.477 315.568 C 857.513 320.604, 858.421 325.579, 854.937 329.063 C 853.148 330.852, 851.865 331.084, 845.253 330.813 C 837.687 330.502, 837.616 330.523, 835.565 333.624 C 831.473 339.814, 827.459 346.300, 825.328 350.166 C 822.958 354.465, 819.566 359.082, 815.870 363.035 C 814.566 364.429, 811.250 368.917, 808.500 373.009 C 801.461 383.481, 794.838 390, 791.239 390 C 786.840 390, 784.764 387.920, 784.675 383.423 C 784.584 378.775, 792.392 361.868, 797.648 355.332 C 799.492 353.039, 801 350.713, 801 350.162 C 801 349.612, 803.250 346.699, 806 343.690 C 811.728 337.423, 812.391 334.378, 808.250 333.366 C 806.737 332.996, 803.932 331.862, 802.015 330.847 C 800.098 329.831, 797.954 329, 797.251 329 C 796.548 329, 795.191 328.565, 794.236 328.033 C 791.161 326.322, 779.393 322, 777.806 322 C 776.961 322, 775.161 321.128, 773.806 320.062 C 772.451 318.996, 770.028 317.836, 768.421 317.484 C 766.814 317.132, 764.600 316.476, 763.500 316.025 C 762.400 315.574, 754.750 312.622, 746.500 309.465 C 738.250 306.307, 729.530 302.886, 727.123 301.862 C 724.715 300.838, 722.288 300, 721.728 300 C 721.168 300, 717.513 298.495, 713.605 296.656 C 709.697 294.816, 704.925 292.723, 703 292.003 C 697.787 290.056, 689 284.987, 689 283.927 C 689 283.417, 688.570 283, 688.044 283 C 686.992 283, 681.823 279.622, 678.097 276.500 C 673.579 272.713, 658 256.626, 658 255.747 C 658 255.263, 656.938 253.434, 655.641 251.683 C 654.343 249.932, 652.265 246.250, 651.022 243.500 C 649.779 240.750, 648.371 237.728, 647.893 236.784 C 645.552 232.156, 642.772 217.179, 642.967 210.245 C 643.134 204.312, 646.643 195.638, 651.277 189.703 C 654.274 185.866, 663.380 180.539, 670 178.751 C 678.024 176.583, 691.311 176.049, 700 177.545 C 718.602 180.746, 738.206 188.084, 752 197.009 C 752.825 197.542, 755.300 198.941, 757.500 200.116 C 759.700 201.292, 765.100 204.605, 769.500 207.480 C 782.943 216.262, 803.254 229.792, 807.863 233.036 C 810.263 234.725, 812.471 235.862, 812.770 235.563 C 813.420 234.914, 810.171 227.157, 808.312 224.921 C 807.591 224.053, 807 222.732, 807 221.986 C 807 221.239, 806.067 219.636, 804.926 218.421 C 802.740 216.095, 801.983 214.817, 795.376 202.308 C 793.107 198.014, 788.928 190.685, 786.087 186.022 C 783.247 181.358, 780.195 175.058, 779.305 172.022 C 777.548 166.024, 777.581 165.764, 782.854 144.500 C 786.256 130.783, 789.346 111.369, 788.378 109.802 C 787.448 108.298, 783.506 109.055, 772.141 112.921 M 762.856 130.055 C 756.121 137.229, 753.201 147.881, 756.293 154 C 757.828 157.040, 764.256 159.468, 766.950 158.027 C 768.943 156.960, 771.975 150.235, 772.044 146.730 C 772.068 145.503, 772.731 142.700, 773.516 140.500 C 776.023 133.481, 776.382 128.524, 774.518 126.661 C 771.449 123.592, 767.974 124.604, 762.856 130.055 M 498.235 129.105 C 495.242 130.217, 493.882 134.023, 493.515 142.312 C 493.015 153.610, 496.654 163, 501.534 163 C 502.256 163, 504.183 161.875, 505.817 160.500 C 508.570 158.184, 508.839 157.345, 509.494 149.070 C 510.281 139.134, 509.300 134.516, 505.721 131.296 C 502.752 128.625, 500.947 128.097, 498.235 129.105 M 607.434 149.461 C 605.279 152.750, 604.864 168.914, 606.872 171.341 C 608.974 173.882, 612.520 173.380, 614.582 170.250 C 616.886 166.752, 617.925 150.820, 616 148.500 C 614.006 146.098, 609.291 146.627, 607.434 149.461 M 636.582 149.327 C 634.776 151.133, 633.975 153.632, 632.999 160.508 C 631.445 171.452, 632.203 174.370, 636.712 174.809 C 639.348 175.066, 640.139 174.632, 641.370 172.252 C 643.473 168.184, 645.293 153.900, 644.105 150.776 C 643.302 148.664, 641.217 147, 639.373 147 C 639.118 147, 637.862 148.047, 636.582 149.327 M 598.736 178.751 C 595.942 179.386, 593.931 184.501, 592.728 194.034 C 591.507 203.704, 592.341 209.580, 595.185 211.356 C 597.445 212.767, 601.388 210.636, 602.985 207.140 C 604.565 203.682, 606.010 184.015, 604.848 181.773 C 603.710 179.574, 601.003 178.235, 598.736 178.751 M 619.390 184.034 C 616.711 185.047, 615.286 190.507, 614.396 203.172 C 613.770 212.075, 613.869 212.869, 615.862 214.862 C 618.458 217.458, 620.110 217.549, 622.912 215.250 C 625.303 213.289, 626.985 205.282, 626.994 195.815 C 627.004 186.552, 624.203 182.214, 619.390 184.034 M 530.500 208.976 C 522.409 211.056, 516.710 215.927, 512.513 224.350 C 509.501 230.393, 509.355 233.107, 511.917 235.425 C 514.469 237.734, 517.647 236.089, 519.583 231.457 C 522.897 223.524, 532.583 216.781, 538.133 218.542 C 542.422 219.903, 545.956 223.317, 547.639 227.724 C 550.267 234.607, 554.946 235.902, 557.064 230.331 C 557.884 228.175, 557.648 226.406, 555.925 221.800 C 551.828 210.843, 542.175 205.974, 530.500 208.976 M 1075.221 208.739 C 1074.518 208.985, 1072.331 211.731, 1070.361 214.843 C 1068.391 217.954, 1065.817 221.570, 1064.640 222.878 C 1062.615 225.127, 1047.611 233.084, 1043.236 234.228 C 1042.118 234.520, 1040.403 235.981, 1039.425 237.474 C 1037.716 240.083, 1037.719 240.323, 1039.511 243.651 C 1042.953 250.041, 1045.473 252, 1050.255 252 C 1061.697 252, 1084.580 235.083, 1088.955 223.390 C 1091.484 216.630, 1090.793 214.939, 1084.237 211.850 C 1076.789 208.341, 1076.572 208.267, 1075.221 208.739 M 694.139 210.110 C 684.626 212.954, 675 223.410, 675 230.899 C 675 234.152, 677.694 236.439, 680.333 235.426 C 681.146 235.114, 683.396 232.471, 685.333 229.554 C 689.658 223.040, 696.091 219.441, 701.814 220.334 C 706.221 221.021, 711.787 226.681, 713.877 232.600 C 715.705 237.777, 716.792 239, 719.566 239 C 721.978 239, 725.001 235.678, 724.999 233.027 C 724.998 230.226, 719.340 219.494, 716.220 216.374 C 710.552 210.706, 701.107 208.026, 694.139 210.110 M 602.811 225.470 C 589.047 229.261, 584.292 239.139, 591.612 248.736 C 593.102 250.689, 596.086 252.980, 598.244 253.828 L 602.167 255.369 601.834 266.104 C 601.650 272.008, 601.178 277.160, 600.783 277.552 C 599.726 278.606, 584.309 280.957, 578.307 280.980 C 569.899 281.012, 568.462 285.029, 571.447 300.162 C 573.173 308.908, 576.247 317.475, 579.002 321.210 C 580.101 322.700, 581 324.313, 581 324.795 C 581 326.354, 588.500 332.431, 593.569 334.979 C 597.618 337.015, 599.930 337.452, 606.500 337.422 C 613.629 337.389, 615.188 337.018, 620.821 334.015 C 632.107 327.999, 639.854 316.346, 644.113 298.979 C 646.514 289.189, 646.176 284.376, 642.878 281.387 C 641.136 279.808, 638.609 279.406, 627.406 278.925 C 620.042 278.609, 613.842 278.159, 613.628 277.925 C 612.714 276.926, 611.991 264.551, 612.584 260.077 C 613.227 255.232, 613.268 255.186, 619.365 252.516 C 627.656 248.886, 631.500 244.266, 631.500 237.932 C 631.500 232.158, 629.545 229.699, 622.314 226.380 C 616.491 223.707, 610.266 223.417, 602.811 225.470 M 358.152 243.606 C 355.989 245.121, 355.887 245.701, 356.350 253.856 C 356.968 264.728, 356.936 264.492, 358.636 270.602 C 361.179 279.740, 367.837 282.941, 370.913 276.505 C 372.193 273.827, 372.121 272.612, 370.231 265.005 C 369.068 260.327, 367.610 253.916, 366.990 250.758 C 366.228 246.883, 365.162 244.526, 363.708 243.508 C 361.040 241.639, 360.958 241.640, 358.152 243.606 M 902.418 254.485 C 900.430 257.520, 893 281.282, 893 284.607 C 893 285.923, 893.900 287.900, 895 289 C 901.248 295.248, 907.577 286.238, 909.483 268.383 C 909.769 265.697, 910.255 262, 910.563 260.167 C 911.689 253.452, 905.791 249.338, 902.418 254.485 M 600.586 303.861 C 600.199 304.488, 598.896 305.002, 597.691 305.005 C 596.486 305.008, 594.194 306.055, 592.598 307.332 C 590.237 309.221, 589.821 310.149, 590.363 312.309 C 591.402 316.451, 596.503 321.539, 601.548 323.465 C 605.491 324.971, 606.765 325.046, 610.530 323.992 C 617.852 321.941, 627.133 312.394, 625.624 308.462 C 624.596 305.784, 618.795 303.857, 610.058 303.291 C 604.020 302.900, 601.070 303.077, 600.586 303.861 M 880.573 335.404 C 877.511 338.701, 871.972 352.464, 868.385 365.688 C 866.976 370.881, 866.911 372.371, 867.980 374.951 C 869.272 378.071, 872.652 379.731, 875.492 378.641 C 878.025 377.669, 880.868 371.981, 884.551 360.513 C 889.955 343.691, 890.407 333.863, 885.834 332.667 C 884.214 332.243, 882.850 332.953, 880.573 335.404 M 766.389 339.980 C 763.405 341.185, 763.064 342.714, 763.589 352.516 C 764.120 362.445, 765.907 367.653, 769.206 368.895 C 772.804 370.250, 776.778 367.701, 777.559 363.537 C 778.877 356.513, 775.983 342.802, 772.697 340.500 C 770.301 338.822, 769.432 338.750, 766.389 339.980 M 377.926 341.598 C 373.833 346.555, 378.698 369.572, 385.051 375.308 C 388.678 378.582, 390.551 378.488, 393.228 374.899 C 395.107 372.380, 395.115 372.081, 393.469 365.399 C 392.535 361.605, 390.959 356.475, 389.968 354 C 388.977 351.525, 387.923 348.375, 387.626 347 C 386.421 341.412, 380.707 338.230, 377.926 341.598 M 516.282 354.019 C 513.141 355.283, 511.310 360.431, 510.487 370.317 C 509.803 378.522, 509.873 378.964, 512.233 381.324 C 514.871 383.962, 518.915 384.013, 521.055 381.434 C 522.383 379.833, 524.241 360.367, 523.338 357.504 C 522.756 355.658, 520.163 353.022, 519 353.095 C 518.725 353.113, 517.502 353.528, 516.282 354.019 M 715.022 354.474 C 713.764 355.989, 714.180 371.827, 715.632 377.723 C 717.172 383.975, 721.767 387.265, 725.883 385.062 C 729.802 382.965, 730.415 378.808, 728.475 367.490 C 727.288 360.566, 726.048 356.356, 724.803 355.019 C 722.570 352.622, 716.825 352.302, 715.022 354.474 M 482.150 360.340 C 479.080 363.609, 477.989 368.195, 478.070 377.493 C 478.152 386.834, 478.736 388.753, 482.030 390.516 C 484.035 391.589, 484.918 391.577, 487.107 390.444 C 488.565 389.691, 490.025 388.378, 490.351 387.527 C 490.678 386.676, 491.245 380.672, 491.611 374.184 C 492.374 360.688, 491.631 358, 487.139 358 C 485.506 358, 483.437 358.971, 482.150 360.340 M 555.573 365.570 C 553.134 368.009, 552.518 371.615, 552.508 383.500 C 552.497 398.303, 555.143 407.332, 560.205 409.766 C 563.475 411.338, 567.278 409.881, 568.838 406.457 C 570.039 403.820, 568.832 385.807, 567.064 380.007 C 566.479 378.085, 566 374.698, 566 372.479 C 566 367.216, 563.730 364, 560.015 364 C 558.435 364, 556.436 364.706, 555.573 365.570 M 639.455 381.409 C 637.979 382.488, 637.487 384.183, 637.348 388.659 C 637.249 391.872, 636.885 399.675, 636.540 406 C 635.773 420.026, 637.155 427.280, 641.163 430.273 C 643.040 431.674, 644.608 432.064, 646.476 431.595 C 651.055 430.446, 651.790 426.769, 651.472 406.587 C 651.192 388.795, 650.276 382.427, 647.768 380.836 C 645.778 379.573, 641.570 379.863, 639.455 381.409 M 834.923 385.250 C 831.199 390.374, 830.057 392.926, 824.391 408.798 C 819.498 422.502, 819.075 426.075, 822 429 C 825.010 432.010, 828.492 431.544, 831.324 427.750 C 834.808 423.081, 835.775 420.988, 840.170 408.598 C 844.501 396.388, 846.167 385.111, 844.021 382.525 C 841.659 379.679, 838.225 380.708, 834.923 385.250 M 161.196 391.804 C 160.203 392.797, 158.094 396.662, 156.507 400.394 C 153.079 408.462, 153.512 409.711, 160.435 411.730 C 165.370 413.169, 167.706 415.251, 184.500 433.180 C 188.050 436.969, 192.835 440.789, 196.218 442.533 L 201.935 445.480 206.364 441.134 C 211.114 436.472, 214.610 430.031, 213.690 427.635 C 213.379 426.825, 210.252 424.791, 206.740 423.115 C 200.292 420.037, 186.732 407.885, 180.774 399.844 C 178.227 396.407, 167.531 390, 164.340 390 C 163.603 390, 162.188 390.812, 161.196 391.804 M 403.072 398.366 C 402.375 399.668, 401.790 401.805, 401.772 403.116 C 401.698 408.380, 404.362 417.937, 408.075 425.726 C 413.465 437.034, 417.934 439.656, 422.159 433.991 C 423.985 431.543, 423.985 431.311, 422.177 424.491 C 420.072 416.558, 413.420 400.381, 411.180 397.750 C 408.983 395.170, 404.604 395.503, 403.072 398.366 M 687.126 402.567 C 683.847 406.736, 681.768 418.446, 682.158 430.553 C 682.468 440.194, 682.712 441.351, 684.782 443.026 C 688.712 446.205, 694.280 443.553, 695.519 437.913 C 695.867 436.329, 696.293 429.288, 696.467 422.267 C 696.640 415.245, 697.088 408.753, 697.463 407.840 C 697.838 406.927, 697.426 404.790, 696.547 403.090 C 694.460 399.054, 690.080 398.811, 687.126 402.567 M 759.441 407.420 C 756.317 409.705, 757.329 421.627, 761.970 437.221 C 763.943 443.848, 770.495 446.227, 773.623 441.453 C 775.593 438.445, 775.668 435.895, 774.061 426.500 C 772.539 417.595, 770.349 411.669, 767.412 408.499 C 764.797 405.678, 762.287 405.338, 759.441 407.420 M 862.899 408.101 C 861.744 409.256, 859.915 412.294, 858.835 414.851 C 857.754 417.408, 856.471 420.400, 855.983 421.500 C 854.483 424.878, 851 437.106, 851 438.995 C 851 439.976, 851.837 441.812, 852.859 443.074 C 854.487 445.084, 855.139 445.249, 858.096 444.401 C 862.380 443.173, 864.993 438.738, 869.001 425.889 C 872.530 414.580, 872.744 410.744, 870 408 C 867.444 405.444, 865.529 405.471, 862.899 408.101 M 487.306 415.010 C 480.402 417.791, 469.166 440.679, 471.832 446.531 C 472.458 447.905, 474.100 449.544, 475.481 450.173 C 478.861 451.713, 481.404 449.401, 485.019 441.500 C 486.529 438.200, 489.392 432.011, 491.382 427.746 C 493.372 423.481, 495 419.543, 495 418.996 C 495 417.802, 491.313 413.974, 490.250 414.063 C 489.837 414.098, 488.513 414.524, 487.306 415.010 M 572.872 441.684 C 569.003 444.085, 567.500 451.617, 567.500 468.598 C 567.500 484.329, 568.073 486, 573.467 486 C 577.589 486, 579.595 483.741, 581.029 477.484 C 582.244 472.178, 583.142 449.042, 582.280 445.215 C 581.997 443.958, 580.491 442.271, 578.932 441.465 C 575.538 439.710, 576.085 439.690, 572.872 441.684 M 504.692 467.250 C 503.367 469.038, 501.487 472.975, 500.515 476 C 499.543 479.025, 498.342 482.562, 497.845 483.860 C 497.349 485.157, 496.466 490.961, 495.883 496.756 C 495.076 504.773, 495.115 508.340, 496.048 511.672 C 497.387 516.455, 497.674 516.759, 502.014 518.004 C 504.274 518.652, 505.486 518.427, 507.196 517.042 C 509.044 515.546, 509.557 513.792, 510.172 506.867 C 510.581 502.265, 511.337 496.025, 511.852 493 C 514.802 475.657, 516.032 466.525, 515.577 465.340 C 515.266 464.531, 513.486 464, 511.082 464 C 507.752 464, 506.708 464.531, 504.692 467.250 M 632.817 469.042 C 631.892 469.582, 630.393 472.576, 629.487 475.694 C 627.953 480.969, 627.955 482.173, 629.509 492.932 C 631.615 507.520, 632.591 510.686, 635.582 512.646 C 639.152 514.985, 642.821 513.673, 644.598 509.420 C 645.404 507.491, 645.828 505.531, 645.540 505.064 C 645.252 504.598, 644.568 497.952, 644.021 490.295 C 643.474 482.638, 642.523 474.930, 641.908 473.166 C 640.300 468.554, 636.562 466.858, 632.817 469.042 M 805.042 483.450 C 803.438 485.382, 804.675 503.910, 806.748 509 C 807.084 509.825, 807.445 511.175, 807.551 512 C 808.067 516.015, 810.207 522.020, 811.763 523.818 C 814.719 527.235, 817.636 527.455, 820.604 524.487 C 823.070 522.021, 823.198 521.449, 822.573 515.675 C 821.393 504.774, 816.128 487.344, 812.778 483.250 C 811.383 481.545, 806.518 481.671, 805.042 483.450 M 705.626 486.517 C 704.733 487.410, 703.789 489.121, 703.527 490.320 C 702.911 493.138, 700.548 526.079, 700.526 532.150 C 700.487 543.167, 710.952 544.193, 714.978 533.568 C 717.616 526.605, 718.169 493.225, 715.731 488.111 C 714.190 484.880, 708.207 483.936, 705.626 486.517 M 527.500 492 C 527.160 492.550, 527.359 493, 527.941 493 C 528.523 493, 529 492.550, 529 492 C 529 491.450, 528.802 491, 528.559 491 C 528.316 491, 527.840 491.450, 527.500 492 M 451.163 501.516 C 448.086 504.105, 442.882 515.171, 440.355 524.500 C 439.610 527.250, 438.782 533.240, 438.515 537.810 C 438.059 545.611, 438.179 546.270, 440.469 548.560 C 443.444 551.535, 445.921 551.654, 448.811 548.961 C 450.015 547.840, 451 546.756, 451 546.553 C 451 544.435, 457.536 515.673, 458.596 513.128 C 461.355 506.503, 459.713 499, 455.505 499 C 454.762 499, 452.808 500.132, 451.163 501.516 M 768.322 511.750 L 765.739 514.500 766.400 533 C 767.173 554.651, 768.038 560.824, 770.558 562.666 C 773.119 564.539, 776.377 564.325, 779.119 562.105 C 781.241 560.387, 781.508 559.197, 781.987 549.355 C 782.491 538.998, 782.110 532.781, 780.161 519.572 C 779.488 515.012, 778.663 513.107, 776.587 511.322 C 773.087 508.311, 771.473 508.395, 768.322 511.750 M 542.121 553.390 C 539.468 554.860, 536.784 560.273, 537.623 562.460 C 537.922 563.240, 537.671 566.268, 537.065 569.189 C 535.651 576.005, 537.318 601.255, 539.551 606.835 C 541.365 611.369, 544.728 613.536, 548.489 612.592 C 551.807 611.759, 554.325 606.252, 553.471 601.697 C 553.141 599.939, 552.736 589.725, 552.571 579 C 552.405 568.275, 551.927 558.469, 551.508 557.210 C 551.089 555.950, 549.475 554.263, 547.923 553.460 C 544.594 551.739, 545.089 551.745, 542.121 553.390 M 836.655 565.829 C 835.362 567.258, 835.016 569.607, 835.073 576.579 C 835.113 581.485, 835.581 587.975, 836.112 591 C 836.643 594.025, 837.462 599.407, 837.931 602.959 C 838.616 608.139, 839.321 609.879, 841.490 611.745 C 847.001 616.486, 851.664 611.672, 851.900 601 C 852.031 595.063, 848.308 575.434, 845.776 568.712 C 844.014 564.036, 839.554 562.626, 836.655 565.829 M 640.129 576.092 C 638.887 577.425, 638.034 580.052, 637.775 583.342 C 637.124 591.632, 638.916 620.051, 640.267 622.872 C 642.034 626.557, 646.335 627.867, 649.789 625.771 C 651.279 624.867, 652.791 623.086, 653.149 621.814 C 654.188 618.124, 654.058 605.307, 652.877 595 C 652.278 589.775, 651.813 584.646, 651.843 583.602 C 651.907 581.408, 649.242 575.845, 647.610 574.765 C 645.526 573.386, 642.081 573.997, 640.129 576.092 M 419.822 580.925 C 414.981 584.733, 409.464 602.587, 408.413 617.847 C 407.657 628.836, 409.046 633.471, 413.425 634.571 C 419.133 636.003, 420.930 632.648, 422.938 616.813 C 423.543 612.036, 425.155 603.080, 426.519 596.912 C 429.508 583.401, 429.505 583.505, 427 581 C 424.499 578.499, 422.927 578.483, 419.822 580.925 M 796.037 595.680 C 794.029 598.233, 793.936 599.394, 794.061 620.322 C 794.191 641.979, 794.226 642.317, 796.551 644.642 C 797.848 645.939, 799.850 647, 801 647 C 803.764 647, 807.987 642.685, 808.051 639.795 C 808.080 638.533, 808.480 634.350, 808.942 630.500 C 809.810 623.253, 807.925 603.218, 805.872 597.880 C 804.973 595.541, 801.407 593, 799.026 593 C 798.541 593, 797.197 594.206, 796.037 595.680 M 1005.743 596.029 C 1003.659 597.308, 1000 604.145, 1000 606.760 C 1000 609.110, 1001.885 611, 1004.229 611 C 1007.115 611, 1017.240 616.525, 1020.089 619.656 C 1021.513 621.220, 1024.802 625.313, 1027.398 628.750 C 1030.021 632.225, 1032.892 635, 1033.861 635 C 1036.130 635, 1044 629.209, 1044 627.540 C 1044 626, 1033.791 610.653, 1030.163 606.738 C 1028.755 605.219, 1024.787 602.141, 1021.345 599.899 C 1014.812 595.643, 1008.802 594.152, 1005.743 596.029 M 719.142 600.546 C 717.993 602.007, 716.806 604.620, 716.505 606.351 C 714.243 619.356, 714.029 638.529, 716.077 644.732 C 717.569 649.255, 721.271 651.653, 724.493 650.185 C 729.293 647.998, 729.984 644.732, 730.141 623.483 C 730.274 605.323, 730.136 603.659, 728.294 601.179 C 725.523 597.452, 721.780 597.193, 719.142 600.546 M 464.618 602.334 C 460.093 607.172, 456.874 619.369, 455.443 637.104 C 454.641 647.043, 455.802 651.913, 459.707 654.984 C 463.016 657.587, 464.566 657.525, 467.412 654.679 C 469.331 652.760, 469.871 650.808, 470.524 643.429 C 470.959 638.518, 471.410 633.825, 471.527 633 C 471.644 632.175, 472.473 626.422, 473.370 620.216 C 475.467 605.697, 475.423 603.423, 473 601 C 470.184 598.184, 468.205 598.499, 464.618 602.334 M 842.686 652.156 C 841.759 652.675, 840.234 654.540, 839.297 656.300 C 837.823 659.071, 837.588 662.995, 837.547 685.543 C 837.505 708.841, 837.687 711.872, 839.273 714.293 C 842.952 719.909, 849.533 716.311, 852.055 707.304 C 853.850 700.894, 853.931 671.290, 852.174 664 C 851.445 660.975, 850.403 657.321, 849.857 655.880 C 848.648 652.686, 845.064 650.825, 842.686 652.156 M 565.278 663.093 C 561.862 664.357, 560.948 667.282, 559.792 680.657 C 558.988 689.964, 559.004 694.505, 559.853 698.185 C 560.484 700.917, 561 704.459, 561 706.056 C 561 710.070, 563.866 716.858, 566.055 718.029 C 571.507 720.947, 576.466 717.431, 576.429 710.672 C 576.360 697.609, 573.726 667.288, 572.496 665.383 C 570.860 662.851, 568.208 662.009, 565.278 663.093 M 414.339 670.475 C 411.084 672.755, 409.003 679.298, 407.765 691.139 C 406.590 702.376, 407.624 717.776, 410.012 724.612 C 411.792 729.705, 418.219 731.625, 421.468 728.035 C 423.073 726.262, 423.241 723.704, 423.191 701.785 C 423.161 688.428, 423.105 676.574, 423.068 675.441 C 422.915 670.818, 417.912 667.972, 414.339 670.475 M 789.433 701.461 C 787.185 704.893, 785.222 723.568, 786.013 734 C 786.201 736.475, 785.993 741.481, 785.552 745.125 C 784.823 751.139, 784.945 751.945, 786.875 753.875 C 791.943 758.943, 797.305 754.951, 799.645 744.368 C 801.292 736.919, 802.229 707.929, 800.936 704.405 C 798.845 698.706, 792.331 697.039, 789.433 701.461 M 686.659 715.054 C 682.848 718.052, 681.875 723.289, 681.677 741.878 C 681.468 761.493, 682.367 765.420, 687.562 767.590 C 691.459 769.218, 695.539 768.157, 696.332 765.307 C 697.070 762.660, 696.386 718.784, 695.577 716.885 C 695.027 715.592, 691.031 713, 689.588 713 C 689.413 713, 688.095 713.924, 686.659 715.054 M 472.917 720.783 C 469.439 724.845, 467.790 731.571, 466.856 745.500 C 465.658 763.378, 466.449 772.907, 469.705 779.820 C 472.429 785.601, 475.350 787.631, 479.462 786.599 C 482.754 785.773, 484.398 781.728, 483.360 777.010 C 482.935 775.080, 482.565 762.181, 482.536 748.346 C 482.488 725.093, 482.341 723.034, 480.587 721.096 C 478.265 718.530, 474.962 718.395, 472.917 720.783 M 849.733 763.410 C 848.498 764.644, 846.282 775.857, 844.476 790 C 844.160 792.475, 843.231 798.764, 842.413 803.975 C 840.723 814.732, 840.312 823.078, 841.387 824.817 C 842.505 826.627, 848.478 826.243, 850.217 824.250 C 853.522 820.463, 857.333 808.545, 859.090 796.500 C 860.418 787.395, 860.018 768.973, 858.424 765.871 C 856.407 761.944, 852.348 760.795, 849.733 763.410 M 587.607 767.298 C 585.402 768.910, 583.024 778.676, 583.052 786 C 583.082 793.834, 585.372 804.649, 587.498 806.998 C 590.112 809.886, 594.405 809.572, 596.975 806.305 C 598.771 804.022, 598.995 802.806, 598.439 798.358 C 598.078 795.470, 597.676 788.695, 597.544 783.303 C 597.228 770.299, 597.296 770.695, 594.961 768.189 C 592.645 765.703, 590.194 765.406, 587.607 767.298 M 405.353 781.465 C 403.885 782.494, 403.058 784.506, 402.578 788.215 C 401.242 798.563, 401.223 809.602, 402.531 816.500 C 404.861 828.787, 405.445 830.551, 409.971 839 C 410.708 840.375, 411.625 842.172, 412.010 842.992 C 413.038 845.190, 418.024 846.325, 421.250 845.096 C 424.720 843.776, 424.749 841.997, 421.487 830.745 C 419.287 823.158, 415.505 800.079, 414.572 788.557 C 414.347 785.772, 413.466 783.937, 411.571 782.307 C 408.412 779.591, 408.092 779.547, 405.353 781.465 M 739.185 790.684 C 737.698 791.279, 735.905 795.270, 735.449 799 C 733.657 813.673, 733.209 820.720, 733.502 829.631 C 733.889 841.426, 735.300 845, 739.571 845 C 742.477 845, 746.704 840.909, 747.756 837.078 C 748.616 833.943, 748.683 800.675, 747.837 796.553 C 746.899 791.986, 742.830 789.226, 739.185 790.684 M 808.636 794.277 C 806.573 795.786, 805.811 798.751, 802.540 818 C 801.185 825.975, 799.512 835.108, 798.822 838.296 C 797.506 844.379, 797.987 846.328, 801.325 848.433 C 806.050 851.412, 813.950 839.992, 816.544 826.433 C 817.345 822.248, 818 814.118, 818 808.367 C 818 798.597, 817.839 797.748, 815.545 795.455 C 812.784 792.693, 811.177 792.419, 808.636 794.277 M 511.089 812.911 C 506.425 817.575, 505.211 842.928, 508.981 856.929 C 510.571 862.835, 515.101 865.822, 519.457 863.838 C 520.795 863.228, 522.076 862.228, 522.304 861.615 C 522.912 859.977, 521.153 818.056, 520.373 815.600 C 518.934 811.067, 514.281 809.719, 511.089 812.911 M 819.823 864.706 C 817.305 867.590, 815.980 870.661, 813.288 879.851 C 807.795 898.603, 807.595 903.102, 812.188 904.560 C 816.479 905.922, 823.033 897.599, 825.105 888.156 C 825.547 886.145, 826.696 881.019, 827.660 876.764 C 829.387 869.135, 829.383 868.990, 827.355 866.264 C 824.856 862.903, 821.926 862.298, 819.823 864.706 M 463.806 867.250 C 458.427 871.515, 462.883 894.774, 470.874 904.149 C 473.658 907.415, 474.790 908.055, 477.343 907.804 C 479.439 907.598, 480.902 906.669, 481.876 904.925 C 483.180 902.590, 483.071 901.703, 480.713 895.425 C 478.124 888.529, 474.824 878.007, 473.595 872.725 C 472.315 867.225, 467.344 864.445, 463.806 867.250 M 694.785 870.554 C 690.566 872.843, 689.520 878.142, 689.747 896.085 C 689.975 914.154, 691.072 918.952, 695.318 920.444 C 699.057 921.757, 703.060 919.534, 704.220 915.500 C 704.694 913.850, 704.800 906.875, 704.456 900 C 704.112 893.125, 703.701 884.153, 703.543 880.063 C 703.300 873.766, 702.913 872.348, 701.017 870.813 C 698.364 868.664, 698.273 868.661, 694.785 870.554 M 424.128 871.345 C 421.398 874.636, 421.662 879.026, 425.109 887.649 C 429.519 898.684, 433.003 903, 437.501 903 C 440.981 903, 444 900.889, 444 898.456 C 444 895.786, 434.087 875.110, 431.196 871.750 C 429.407 869.671, 425.695 869.458, 424.128 871.345 M 564.500 888.638 C 557.637 890.032, 549.083 892.572, 546.585 893.959 C 542.749 896.088, 541.564 898.127, 542.347 901.247 C 543.059 904.082, 550.446 909, 553.994 909 C 555.170 909, 556.974 909.451, 558.004 910.002 C 560.156 911.154, 578.019 909.665, 584.500 907.795 C 594.837 904.811, 600.549 899.013, 597.594 894.503 C 594.757 890.174, 574.562 886.595, 564.500 888.638 M 748.229 913.669 C 747.530 913.951, 746.331 915.392, 745.565 916.874 C 743.621 920.633, 741.659 935.052, 742.390 940.209 C 742.725 942.569, 743.009 945.442, 743.023 946.593 C 743.037 947.744, 743.737 952.244, 744.579 956.593 C 745.421 960.942, 746.364 965.850, 746.674 967.500 C 747.402 971.378, 750.740 975, 753.585 975 C 756.830 975, 761.232 969.426, 760.602 966.114 C 759.989 962.889, 759.223 954.342, 758.485 942.500 C 758.177 937.550, 757.533 931.250, 757.055 928.500 C 756.577 925.750, 756.234 921.760, 756.293 919.633 C 756.438 914.412, 752.895 911.792, 748.229 913.669 M 455 922 C 453.873 923.127, 453 925.333, 453 927.055 C 453 933.775, 463.687 953.157, 468.943 955.970 C 473.327 958.316, 478 955.775, 478 951.044 C 478 947.538, 464.833 924.963, 460.913 921.750 C 458.193 919.520, 457.448 919.552, 455 922 M 793.789 926.750 C 791.381 929.521, 791.130 932.110, 790.875 956.720 C 790.655 978.048, 790.785 980.105, 792.473 981.970 C 796.321 986.222, 801.108 984.025, 803.424 976.941 C 805.164 971.623, 807.150 953.439, 806.473 949.026 C 803.647 930.590, 802.764 927.479, 799.929 925.962 C 797.291 924.550, 795.501 924.780, 793.789 926.750 M 891.753 926.731 C 879.987 939.448, 865.757 950, 860.373 950 C 858.557 950, 857.877 950.783, 857.121 953.750 C 855.643 959.546, 855.035 962.881, 853.980 971 C 852.911 979.230, 851.540 987.664, 850.430 992.840 L 849.714 996.180 855.607 995.461 C 862.609 994.608, 870.395 991.916, 879.500 987.202 C 881.150 986.348, 884.193 984.778, 886.263 983.714 C 891.270 981.138, 899.927 971.101, 904.342 962.751 L 907.911 956.001 904.854 948.751 C 903.173 944.763, 901.188 940.150, 900.443 938.500 C 899.698 936.850, 898.229 933.270, 897.179 930.545 C 895.004 924.899, 894.061 924.236, 891.753 926.731 M 623.655 936.829 C 620.191 940.656, 622.139 950.750, 628.745 963.212 C 636.710 978.238, 639.969 982, 645.023 982 C 648.164 982, 650 980.321, 650 977.448 C 650 973.910, 635.256 940.078, 632.263 936.750 C 630.214 934.471, 625.752 934.512, 623.655 936.829 M 569.350 940.559 C 567.075 942.834, 566.865 943.640, 567.458 947.809 C 569.472 961.974, 580.634 981.009, 588.731 984.088 C 591.448 985.121, 595.584 983.248, 596.635 980.508 C 596.926 979.751, 594.468 974.158, 591.175 968.079 C 587.881 961.999, 583.951 953.757, 582.441 949.763 C 579.705 942.524, 576.227 938, 573.399 938 C 572.579 938, 570.757 939.152, 569.350 940.559 M 510.141 941.548 C 508.239 943.965, 508.214 944.363, 509.649 949.298 C 513.927 964.004, 524.704 977.764, 532.095 977.958 C 534.147 978.012, 537 974.864, 537 972.547 C 537 971.560, 535.313 968.173, 533.250 965.021 C 528.213 957.323, 523.859 950.364, 521.824 946.757 C 519.360 942.391, 515.896 939, 513.898 939 C 512.934 939, 511.243 940.147, 510.141 941.548 M 673 956 C 670.695 958.305, 670.602 959.480, 672.089 967.526 C 673.478 975.036, 677.376 982.758, 680.495 984.180 C 682.421 985.057, 683.440 984.942, 685.459 983.619 C 686.857 982.703, 688 981.386, 688 980.692 C 688 979.998, 686.850 976.071, 685.444 971.965 C 684.038 967.859, 682.503 963.005, 682.033 961.177 C 681.066 957.422, 678.355 954, 676.345 954 C 675.605 954, 674.100 954.900, 673 956 M 490.628 980.033 C 489.607 982.462, 489.597 984.207, 490.579 988.783 C 493.513 1002.460, 498.239 1010, 503.878 1010 C 507.813 1010, 510.532 1006.285, 509.545 1002.257 C 508.507 998.018, 501.915 982.835, 499.773 979.750 C 497.004 975.762, 492.364 975.905, 490.628 980.033 M 465.408 981.500 C 464.120 983.466, 463.921 985.231, 464.476 989.750 C 466.546 1006.608, 472.251 1017.574, 478.561 1016.825 C 482.899 1016.310, 483.766 1013.861, 481.588 1008.279 C 480.562 1005.651, 478.412 998.550, 476.810 992.500 C 475.193 986.390, 473.169 980.944, 472.258 980.250 C 469.709 978.307, 467.200 978.765, 465.408 981.500 M 930.200 1006.200 C 929.540 1006.860, 929 1007.798, 929 1008.284 C 929 1009.503, 916.090 1031.019, 913.832 1033.564 C 912.824 1034.700, 912 1036.151, 912 1036.789 C 912 1037.427, 910.543 1038.702, 908.762 1039.623 C 906.982 1040.544, 904.394 1042.498, 903.012 1043.965 C 900.328 1046.816, 881.104 1056.647, 872 1059.825 C 864.665 1062.386, 853.795 1064.777, 846.836 1065.362 C 838.176 1066.089, 837.363 1066.834, 836.053 1075.236 C 835.430 1079.231, 834.488 1084.387, 833.960 1086.693 C 832.278 1094.038, 832.711 1097.581, 835.514 1099.417 C 840.226 1102.505, 850.482 1105.071, 862.500 1106.170 C 873.734 1107.198, 875.011 1107.126, 882.500 1105.044 C 886.900 1103.821, 892.975 1102.141, 896 1101.310 C 899.025 1100.480, 902.886 1098.756, 904.579 1097.480 C 906.272 1096.203, 910.547 1093.791, 914.079 1092.120 C 920.985 1088.851, 929.553 1080.981, 935.508 1072.437 C 944.934 1058.913, 947 1055.520, 947 1053.567 C 947 1052.400, 947.633 1050.541, 948.407 1049.437 C 949.180 1048.332, 950.112 1045.420, 950.477 1042.964 C 951.190 1038.168, 951.954 1039.997, 938.989 1015.500 C 933.104 1004.382, 932.577 1003.823, 930.200 1006.200 M 776.268 1028.250 C 772.687 1032.830, 772.001 1048.124, 774.575 1066 C 775.407 1071.775, 776.350 1078.525, 776.671 1081 C 777.376 1086.441, 779.400 1089, 783 1089 C 786.905 1089, 789.461 1085.676, 789.405 1080.672 C 789.115 1054.985, 786.783 1031.794, 784.184 1028.750 C 782.454 1026.724, 777.696 1026.423, 776.268 1028.250 M 495.749 1030.982 C 492.533 1033.512, 491.586 1038.540, 492.955 1045.815 C 495.429 1058.964, 496.351 1062.891, 498.678 1070.197 C 501.530 1079.154, 504.181 1083, 507.500 1083 C 510.249 1083, 514.008 1078.717, 513.983 1075.615 C 513.973 1074.452, 513.275 1070.350, 512.432 1066.500 C 511.589 1062.650, 510.506 1057.475, 510.026 1055 C 507.483 1041.898, 504.746 1033.408, 502.368 1031.250 C 499.341 1028.503, 498.923 1028.486, 495.749 1030.982" stroke="none" fill="#2942C9" fill-rule="evenodd"/>
    </g>
  </g>
</svg>
