<?xml version="1.0" encoding="UTF-8"?>
<svg xmlns="http://www.w3.org/2000/svg" viewBox="0 0 1280 1280" width="1280" height="1280" role="img" aria-labelledby="title desc">
  <title id="title">BillBandit raccoon - Confused</title>
  <desc id="desc">Transparent two-color vector mascot using cobalt and warm cream.</desc>
  <g id="mascot-confused" shape-rendering="geometricPrecision">
    <g id="warm-cream-base">
      <path d="M 749.265 58.496 C 741.709 60.596, 734.297 64.587, 728 69.946 C 724.975 72.520, 720.925 75.693, 719 76.995 C 710.472 82.766, 697.382 97.161, 691 107.785 C 689.413 110.426, 687.770 111.952, 686.500 111.963 C 685.400 111.972, 673.700 110.861, 660.500 109.495 C 625.449 105.867, 611.962 106.327, 586 112.038 C 580.775 113.187, 573.734 114.540, 570.354 115.045 C 564.095 115.979, 547.980 120.832, 544.448 122.847 C 543.377 123.457, 538.675 125.390, 534 127.142 C 526.252 130.044, 506.842 139.897, 504.550 142.091 C 504.028 142.591, 502.410 143, 500.956 143 C 498.939 143, 497.219 141.637, 493.700 137.250 C 489.506 132.020, 486.717 129.323, 473.592 117.795 C 464.741 110.021, 447.438 103.257, 439.268 104.377 C 429.927 105.657, 425.565 110.192, 423.473 120.799 C 420.021 138.292, 419.725 144.218, 421.500 160.214 C 422.434 168.621, 424.116 179.775, 425.238 185 C 428.679 201.013, 428.679 201.024, 423.995 213.353 C 421.666 219.484, 418.947 226.750, 417.953 229.500 C 411.869 246.329, 409.999 251.748, 409.995 252.572 C 409.992 253.083, 408.240 258.900, 406.102 265.500 C 401.584 279.447, 392.949 298.129, 387.277 306.226 C 385.100 309.334, 382.505 314.007, 381.511 316.612 L 379.702 321.347 382.398 323.666 C 386.225 326.958, 389.266 327.438, 394.654 325.602 C 401.176 323.380, 405 323.481, 405 325.875 C 405 328.175, 391.948 344.495, 380.764 356.182 C 377.834 359.243, 376.378 363.184, 377.503 365.005 C 379.906 368.893, 390.495 367.950, 401.953 362.827 C 411.874 358.391, 413.197 359.901, 407.492 369.143 C 402.724 376.868, 402.116 380.267, 405.123 382.373 C 408.268 384.576, 409.015 384.463, 414.100 381.018 C 419.343 377.465, 420.876 377.328, 424.393 380.094 C 426.669 381.885, 426.961 382.689, 426.409 385.634 C 425.928 388.195, 426.218 389.584, 427.536 391.040 C 429.655 393.381, 435.312 393.608, 439 391.500 C 442.243 389.646, 446 389.596, 446 391.407 C 446 392.180, 443.247 398.143, 439.882 404.657 C 427.030 429.534, 409.409 464.646, 408.093 468 C 407.338 469.925, 403.584 478.250, 399.750 486.500 C 395.916 494.750, 390.164 507.125, 386.968 514 C 383.771 520.875, 380.840 527.625, 380.455 529 C 380.070 530.375, 379.438 531.950, 379.050 532.500 C 378.662 533.050, 377.531 535.750, 376.537 538.500 C 375.544 541.250, 373.924 545.316, 372.938 547.535 C 371.953 549.754, 370.840 552.791, 370.465 554.285 C 369.147 559.534, 365.933 557.902, 353.658 545.750 C 347.407 539.563, 339.600 531.346, 336.307 527.491 C 326.057 515.489, 310.581 507, 298.953 507 C 293.577 507, 285.846 509.604, 281.172 512.990 C 277.510 515.643, 276.216 515.996, 270.259 515.965 C 266.541 515.945, 259.450 515.199, 254.500 514.307 C 242.253 512.100, 234.003 512.113, 230.595 514.346 C 218.177 522.482, 224.090 542.655, 242.932 556.439 C 250.266 561.804, 255.872 564.566, 266 567.807 C 276.395 571.132, 279.284 571.726, 289 572.530 C 292.575 572.826, 295.661 573.537, 295.859 574.110 C 297.314 578.337, 308.093 597.798, 313.143 605.317 C 321.270 617.416, 326.487 623.678, 337.267 634.278 L 346.195 643.055 344.111 653.778 C 342.965 659.675, 340.915 672.825, 339.556 683 C 331.463 743.596, 330.317 777.726, 335.476 804.500 C 336.323 808.900, 337.452 815.761, 337.984 819.748 C 338.921 826.778, 345.278 846.806, 350.124 858 C 356.005 871.583, 368.002 890.703, 380.556 906.500 C 388.604 916.628, 396.629 928.943, 398.516 934.061 C 401.961 943.406, 404.766 957.358, 406.949 976 C 408.581 989.940, 412.891 1013.498, 419.025 1042 C 420.150 1047.225, 421.531 1054.194, 422.095 1057.486 C 423.509 1065.745, 429.450 1090.623, 432.606 1101.500 C 436.956 1116.494, 437.099 1115.488, 430.345 1117.467 C 420.735 1120.284, 407.965 1126.169, 403.081 1130.034 C 391.108 1139.507, 388.221 1151.747, 396.233 1159.066 C 402.588 1164.870, 419.672 1166.364, 453.318 1164.057 C 462.568 1163.423, 475.168 1163.005, 481.318 1163.129 C 494.017 1163.386, 499.867 1162.588, 505.235 1159.867 C 511.654 1156.615, 513.124 1153.082, 515.588 1135 C 518.234 1115.570, 518.798 1111.797, 520.365 1103 C 521.197 1098.325, 522.816 1087.075, 523.961 1078 C 525.105 1068.925, 526.731 1057.450, 527.572 1052.500 C 528.414 1047.550, 529.493 1040.575, 529.972 1037 C 531.473 1025.783, 534.037 1008.600, 534.575 1006.142 C 534.974 1004.324, 535.597 1003.895, 537.296 1004.270 C 538.508 1004.536, 543.775 1005.738, 549 1006.940 C 560.097 1009.492, 570.933 1011.352, 583.500 1012.861 C 597.018 1014.484, 639.952 1015.199, 652.022 1014.002 C 675.571 1011.666, 682.767 1010.750, 688.159 1009.405 C 691.271 1008.628, 694.476 1008.246, 695.282 1008.555 C 696.151 1008.888, 697.368 1012.043, 698.273 1016.308 C 699.113 1020.264, 700.764 1026.650, 701.943 1030.500 C 703.121 1034.350, 706.289 1046.050, 708.982 1056.500 C 717.913 1091.150, 719.080 1095.430, 722.124 1104.689 C 723.785 1109.742, 725 1115.126, 724.822 1116.653 C 724.533 1119.145, 723.937 1119.546, 719 1120.570 C 712.948 1121.826, 710.906 1122.601, 700.314 1127.662 C 686.933 1134.055, 678.262 1146.256, 680.882 1155.002 C 684.745 1167.895, 701.571 1170.589, 759.318 1167.563 C 778.118 1166.577, 795.096 1165.380, 797.048 1164.902 C 798.999 1164.423, 801.819 1162.755, 803.314 1161.194 C 806.310 1158.067, 807.528 1152.589, 813.692 1114.508 C 814.262 1110.987, 815.007 1109.420, 816.221 1109.190 C 817.330 1108.980, 821.199 1112.271, 827.088 1118.431 C 832.118 1123.692, 838.911 1129.624, 842.183 1131.611 C 851.609 1137.337, 861.149 1141.683, 866.014 1142.468 C 868.481 1142.866, 871.515 1143.836, 872.756 1144.623 C 876.584 1147.051, 894.436 1149.259, 904.500 1148.550 C 916.428 1147.709, 926.485 1146.172, 931.986 1144.350 C 937.246 1142.607, 949.881 1135.114, 955.114 1130.634 C 960.433 1126.079, 967.611 1116.134, 971.046 1108.558 C 975.805 1098.062, 977.026 1090.346, 975.928 1077.705 C 975.412 1071.768, 974.585 1065.243, 974.090 1063.205 C 970.038 1046.532, 967.968 1039.764, 966.134 1037.188 C 964.960 1035.540, 964 1033.397, 964 1032.425 C 964 1029.038, 942.162 982.579, 935.703 972.224 C 933.550 968.773, 930.905 963.624, 929.825 960.782 C 928.745 957.940, 927.043 954.464, 926.043 953.057 C 924.232 950.510, 921.282 944.993, 906.514 916.529 C 902.241 908.295, 897.744 899.970, 896.519 898.029 C 895.294 896.088, 893.946 893.375, 893.524 892 C 893.101 890.625, 892.415 889.050, 892 888.500 C 890.347 886.312, 884 870.780, 884 868.924 C 884 867.835, 886.210 862.119, 888.912 856.222 C 896.567 839.512, 900.242 829.747, 908.004 805.500 C 909.060 802.200, 910.194 797.700, 910.523 795.500 C 910.852 793.300, 912.199 785.650, 913.516 778.500 C 917.812 755.179, 919.211 739.187, 919.158 714 C 919.130 701.075, 918.615 686.225, 918.013 681 C 916.610 668.835, 914.248 652.213, 912.808 644.374 L 911.682 638.247 923.190 626.874 C 940.187 610.075, 950.087 596.099, 960.646 574 C 964.193 566.575, 967.461 559.825, 967.907 559 C 968.569 557.777, 971.379 557.491, 983.109 557.453 C 995.032 557.414, 998.653 557.035, 1004.225 555.243 C 1027.531 547.749, 1041.787 534.319, 1041.956 519.700 C 1042.015 514.577, 1039.811 510.665, 1035.292 507.871 C 1031.066 505.259, 1026.298 505.012, 1007.939 506.452 C 995.131 507.456, 991.269 506.462, 986.909 501.036 C 980.517 493.083, 969.526 489.669, 957.500 491.903 C 944.939 494.237, 936.334 500.579, 920.055 519.500 C 907.639 533.932, 899.889 542, 898.443 542 C 897.749 542, 896.040 538.737, 894.646 534.750 C 889.582 520.263, 885.948 510.436, 884.570 507.500 C 882.819 503.770, 874.480 481.322, 869.153 466 C 860.622 441.465, 857.944 434.874, 849.037 416.500 C 843.971 406.050, 838.691 394.810, 837.304 391.523 C 835.918 388.235, 833.546 383.735, 832.034 381.523 C 829.333 377.571, 825.574 370.886, 817.682 356 C 815.496 351.875, 813.098 347.612, 812.353 346.527 C 811.609 345.443, 811 343.530, 811 342.277 C 811 340.191, 811.449 340, 816.365 340 C 825.237 340, 830.087 334.103, 825 329.500 C 822.329 327.082, 822.479 324.838, 825.505 321.996 C 827.973 319.677, 828.121 319.662, 835.755 320.984 C 845.815 322.727, 849.788 322.547, 852.933 320.208 C 857.753 316.624, 856.994 315.131, 843.481 301.618 C 827.571 285.709, 827.383 283.839, 842 286.895 C 848.520 288.259, 854.635 287.538, 857.984 285.012 C 860.118 283.402, 860.267 282.882, 859.241 280.629 C 857.908 277.704, 854.537 275.434, 840.500 268.011 C 829.024 261.942, 827.495 260.757, 828.332 258.578 C 828.766 257.446, 830.290 256.998, 833.719 256.994 C 841.127 256.986, 845.879 255.329, 846.587 252.509 C 847.422 249.182, 845.790 247.185, 833.459 236.442 C 824.145 228.326, 822.173 226.029, 817.912 218.324 C 815.228 213.471, 812.580 208.825, 812.027 208 C 811.474 207.175, 810.149 204.895, 809.084 202.933 C 808.018 200.971, 806.369 198.721, 805.418 197.933 C 804.468 197.145, 801.349 192.900, 798.488 188.500 C 793.210 180.384, 779.414 163.349, 771.216 154.823 L 766.719 150.146 767.610 138.323 C 769.015 119.656, 768.750 70.205, 767.221 65.897 C 764.510 58.261, 758.711 55.871, 749.265 58.496 M 909.500 130.424 C 901.033 132.548, 897.083 134.738, 891.610 140.344 C 885.742 146.353, 881.771 153.736, 881.608 158.937 C 881.522 161.682, 882.042 162.683, 884.196 163.912 C 886.717 165.350, 887.045 165.306, 889.237 163.247 C 890.527 162.035, 892.181 159.346, 892.912 157.272 C 894.775 151.984, 898.467 147.362, 903.225 144.358 C 906.359 142.379, 909.055 141.670, 914.982 141.264 C 931.120 140.158, 940.590 147.091, 944.961 163.212 C 948.780 177.295, 938.579 192.853, 923.457 196.009 C 909.391 198.944, 904.670 204.609, 902.257 221.444 C 901.037 229.953, 900.984 232.547, 901.981 234.954 C 903.327 238.204, 905.876 239.491, 909.001 238.500 C 911.883 237.585, 912.768 235.357, 913.930 226.089 C 914.498 221.560, 915.436 216.095, 916.015 213.945 C 916.999 210.291, 917.439 209.929, 922.784 208.394 C 943.851 202.339, 953.955 191.965, 957.197 173.057 C 958.291 166.676, 958.215 165.606, 956.319 160.783 C 955.176 157.878, 953.511 153.475, 952.617 151 C 949.441 142.202, 938.132 133.185, 926.977 130.556 C 919.345 128.757, 916.239 128.734, 909.500 130.424 M 902.500 257.556 C 898.169 259.785, 896.048 262.964, 896.022 267.265 C 896.003 270.450, 896.500 271.334, 899.250 273.011 C 903.323 275.495, 905.657 275.507, 909.661 273.065 C 913.593 270.667, 914.409 268.233, 913.015 263.056 C 912.247 260.205, 911.068 258.569, 909.013 257.507 C 905.501 255.690, 906.135 255.686, 902.500 257.556" stroke="none" fill="#F7F1DD" fill-rule="evenodd"/>
    </g>
    <g id="cobalt-ink">
      <path d="M 749.265 58.496 C 741.709 60.596, 734.297 64.587, 728 69.946 C 724.975 72.520, 720.925 75.693, 719 76.995 C 710.472 82.766, 697.382 97.161, 691 107.785 C 689.413 110.426, 687.770 111.952, 686.500 111.963 C 685.400 111.972, 673.700 110.861, 660.500 109.495 C 625.449 105.867, 611.962 106.327, 586 112.038 C 580.775 113.187, 573.734 114.540, 570.354 115.045 C 564.095 115.979, 547.980 120.832, 544.448 122.847 C 543.377 123.457, 538.675 125.390, 534 127.142 C 526.252 130.044, 506.842 139.897, 504.550 142.091 C 504.028 142.591, 502.410 143, 500.956 143 C 498.939 143, 497.219 141.637, 493.700 137.250 C 489.506 132.020, 486.717 129.323, 473.592 117.795 C 464.741 110.021, 447.438 103.257, 439.268 104.377 C 429.927 105.657, 425.565 110.192, 423.473 120.799 C 420.021 138.292, 419.725 144.218, 421.500 160.214 C 422.434 168.621, 424.116 179.775, 425.238 185 C 428.679 201.013, 428.679 201.024, 423.995 213.353 C 421.666 219.484, 418.947 226.750, 417.953 229.500 C 411.869 246.329, 409.999 251.748, 409.995 252.572 C 409.992 253.083, 408.240 258.900, 406.102 265.500 C 401.584 279.447, 392.949 298.129, 387.277 306.226 C 385.100 309.334, 382.505 314.007, 381.511 316.612 L 379.702 321.347 382.398 323.666 C 386.225 326.958, 389.266 327.438, 394.654 325.602 C 401.176 323.380, 405 323.481, 405 325.875 C 405 328.175, 391.948 344.495, 380.764 356.182 C 377.834 359.243, 376.378 363.184, 377.503 365.005 C 379.906 368.893, 390.495 367.950, 401.953 362.827 C 411.874 358.391, 413.197 359.901, 407.492 369.143 C 405.563 372.269, 403.715 376.173, 403.386 377.820 C 402.888 380.308, 403.239 381.110, 405.456 382.563 C 407.989 384.223, 408.285 384.224, 411.312 382.578 C 413.065 381.625, 416.096 379.986, 418.047 378.937 C 419.998 377.888, 422.915 375.274, 424.528 373.129 C 428.867 367.360, 442.602 357.566, 455.835 350.804 C 462.251 347.526, 467.928 344.429, 468.450 343.922 C 468.972 343.415, 470.374 343, 471.565 343 C 472.756 343, 474.826 342.138, 476.165 341.085 C 477.505 340.031, 481.728 337.652, 485.550 335.798 C 504.378 326.664, 524.041 311.007, 537.296 294.596 C 542.272 288.435, 553 270.938, 553 268.984 C 553 268.364, 554.065 265.976, 555.366 263.678 C 556.668 261.380, 558.312 257.250, 559.021 254.500 C 559.730 251.750, 560.673 249.025, 561.116 248.445 C 563.990 244.680, 564.601 221.507, 562.052 212.894 C 560.314 207.017, 553.447 197.324, 548.880 194.300 C 545.083 191.785, 543.829 191.509, 536.576 191.591 C 523.487 191.738, 514.731 194.146, 499 201.921 C 488.521 207.101, 477.326 214.168, 469.211 220.726 C 466.302 223.077, 463.505 225, 462.994 225 C 462.484 225, 459.823 226.912, 457.081 229.250 C 454.339 231.588, 449.562 235.525, 446.465 238 C 443.368 240.475, 438.397 245.104, 435.417 248.286 C 432.438 251.468, 430 253.451, 430 252.693 C 430 250.651, 433.443 241.011, 435.877 236.242 C 437.045 233.953, 438 231.144, 438 230 C 438 228.856, 438.938 226.082, 440.084 223.835 C 442.021 220.038, 447.453 205.178, 448.649 200.403 C 448.938 199.249, 448.232 195.254, 447.080 191.523 C 444.184 182.148, 440.940 165.881, 440.294 157.500 C 439.714 149.960, 441.500 130.100, 442.883 128.717 C 443.347 128.253, 446.601 129.215, 450.113 130.854 C 453.626 132.494, 458.083 134.481, 460.018 135.270 C 466.646 137.972, 483.953 155.200, 483.986 159.128 C 483.994 160.023, 484.675 161.315, 485.500 162 C 486.325 162.685, 487 163.885, 487 164.668 C 487 166.982, 491.708 171, 494.420 171 C 495.801 171, 498.468 169.650, 500.347 168 C 502.226 166.350, 504.009 165, 504.309 165 C 504.609 165, 508.149 163.494, 512.177 161.653 C 516.205 159.812, 523.591 156.437, 528.592 154.153 C 533.592 151.869, 537.982 150, 538.347 150 C 538.711 150, 541.342 148.875, 544.192 147.500 C 547.042 146.125, 550.100 145, 550.987 145 C 551.874 145, 553.028 144.621, 553.550 144.159 C 554.073 143.696, 557.503 142.330, 561.174 141.124 C 588.053 132.289, 617.403 128.828, 647.479 130.948 C 664.833 132.171, 683.921 134.214, 690.789 135.583 C 695.166 136.455, 697.382 134.408, 701.704 125.500 C 708.340 111.822, 718.584 100.145, 731.253 91.819 C 741.899 84.822, 746.651 82.647, 747.712 84.284 C 749.020 86.303, 748.017 128.645, 746.397 139.807 C 745.574 145.475, 745.206 151.073, 745.578 152.245 C 745.950 153.418, 747.660 156.251, 749.377 158.541 C 757.047 168.765, 763.649 177.670, 765.015 179.634 C 767.348 182.986, 777.941 196.005, 782.698 201.368 C 785.074 204.045, 788.370 208.240, 790.023 210.690 C 792.903 214.957, 792.934 215.115, 790.765 214.444 C 789.519 214.059, 786.889 212.931, 784.920 211.938 C 782.951 210.945, 777.551 208.927, 772.920 207.453 C 768.289 205.979, 763.097 204.185, 761.383 203.466 C 758.173 202.120, 742.347 197.935, 733.500 196.092 C 708.847 190.958, 697.187 190.996, 671 196.297 C 652.550 200.031, 640.742 208.201, 637.456 219.504 C 633.963 231.520, 638.010 243.387, 649.818 255.750 C 653.626 259.738, 657.218 263, 657.800 263 C 658.382 263, 660.488 264.537, 662.480 266.417 C 668.083 271.700, 679.468 278.010, 688.921 281.070 C 693.640 282.597, 699.382 284.777, 701.682 285.914 C 707.456 288.768, 720.907 292.972, 724.316 292.987 C 725.864 292.994, 728.114 293.533, 729.316 294.184 C 730.517 294.836, 733.300 295.691, 735.500 296.086 C 737.700 296.480, 742.200 297.476, 745.500 298.299 C 754.964 300.659, 761.934 302, 764.738 302 C 767.337 302, 772.119 303.243, 786 307.528 C 790.125 308.801, 796.875 310.167, 801 310.563 C 806.663 311.106, 810.582 312.263, 817 315.283 C 822.701 317.967, 828.463 319.782, 834.500 320.796 C 845.910 322.713, 849.728 322.591, 852.933 320.208 C 857.753 316.624, 856.994 315.131, 843.481 301.618 C 827.571 285.709, 827.383 283.839, 842 286.895 C 848.520 288.259, 854.635 287.538, 857.984 285.012 C 860.118 283.402, 860.267 282.882, 859.241 280.629 C 857.908 277.704, 854.537 275.434, 840.500 268.011 C 829.024 261.942, 827.495 260.757, 828.332 258.578 C 828.766 257.446, 830.290 256.998, 833.719 256.994 C 841.127 256.986, 845.879 255.329, 846.587 252.509 C 847.422 249.182, 845.790 247.185, 833.459 236.442 C 824.145 228.326, 822.173 226.029, 817.912 218.324 C 815.228 213.471, 812.580 208.825, 812.027 208 C 811.474 207.175, 810.149 204.895, 809.084 202.933 C 808.018 200.971, 806.369 198.721, 805.418 197.933 C 804.468 197.145, 801.349 192.900, 798.488 188.500 C 793.210 180.384, 779.414 163.349, 771.216 154.823 L 766.719 150.146 767.610 138.323 C 769.015 119.656, 768.750 70.205, 767.221 65.897 C 764.510 58.261, 758.711 55.871, 749.265 58.496 M 729.155 106.523 C 723.622 111.179, 719.644 122.448, 720.190 131.917 C 720.446 136.369, 720.954 137.635, 723.130 139.255 C 726.702 141.912, 731.029 140.913, 733.412 136.880 C 735.788 132.858, 738.913 119.875, 739.139 113.088 C 739.290 108.544, 738.956 107.382, 737.049 105.838 C 734.040 103.402, 732.729 103.516, 729.155 106.523 M 909.500 130.424 C 901.033 132.548, 897.083 134.738, 891.610 140.344 C 885.742 146.353, 881.771 153.736, 881.608 158.937 C 881.522 161.682, 882.042 162.683, 884.196 163.912 C 886.717 165.350, 887.045 165.306, 889.237 163.247 C 890.527 162.035, 892.181 159.346, 892.912 157.272 C 894.775 151.984, 898.467 147.362, 903.225 144.358 C 906.359 142.379, 909.055 141.670, 914.982 141.264 C 931.120 140.158, 940.590 147.091, 944.961 163.212 C 948.780 177.295, 938.579 192.853, 923.457 196.009 C 909.391 198.944, 904.670 204.609, 902.257 221.444 C 901.037 229.953, 900.984 232.547, 901.981 234.954 C 903.327 238.204, 905.876 239.491, 909.001 238.500 C 911.883 237.585, 912.768 235.357, 913.930 226.089 C 914.498 221.560, 915.436 216.095, 916.015 213.945 C 916.999 210.291, 917.439 209.929, 922.784 208.394 C 943.851 202.339, 953.955 191.965, 957.197 173.057 C 958.291 166.676, 958.215 165.606, 956.319 160.783 C 955.176 157.878, 953.511 153.475, 952.617 151 C 949.441 142.202, 938.132 133.185, 926.977 130.556 C 919.345 128.757, 916.239 128.734, 909.500 130.424 M 450.967 150.750 C 449.054 153.164, 448.852 154.354, 449.314 160.500 C 450.183 172.076, 453.659 180.024, 459.021 182.698 C 461.950 184.158, 464.627 182.815, 466.966 178.712 C 468.212 176.525, 468.244 175.046, 467.178 168.820 C 465.317 157.946, 463.928 154.082, 460.730 150.884 C 457.082 147.236, 453.786 147.190, 450.967 150.750 M 582.844 152.219 C 580.821 155.061, 580.548 156.633, 580.526 165.611 C 580.504 174.233, 580.790 176.105, 582.405 177.892 C 583.453 179.051, 585.295 180, 586.500 180 C 590.662 180, 591.728 177.277, 592.490 164.692 C 593.124 154.207, 593.008 152.666, 591.447 150.942 C 588.798 148.014, 585.488 148.505, 582.844 152.219 M 557.400 154.744 C 552.559 158.069, 553.021 175.166, 558.061 179.250 C 560.732 181.414, 562.397 181.460, 564.429 179.429 C 566.728 177.129, 566.607 162.721, 564.248 158 C 562.535 154.571, 559.650 153.199, 557.400 154.744 M 639.655 166.829 C 635.329 171.609, 640.584 178.740, 651.619 183.061 C 661.817 187.055, 688.353 186.884, 696.728 182.771 C 700.354 180.990, 701.777 178.456, 700.389 176.250 C 699.452 174.758, 697.072 174.410, 684.279 173.891 C 667.916 173.227, 657.220 171.155, 650.596 167.367 C 645.664 164.546, 641.889 164.360, 639.655 166.829 M 578.267 193.250 C 576.361 195.686, 576.325 198.683, 578.059 210.342 C 579.865 222.486, 581.452 226, 585.132 226 C 586.134 226, 587.704 224.856, 588.620 223.457 C 589.976 221.388, 590.167 219.479, 589.647 213.207 C 588.904 204.262, 587.087 195.045, 585.712 193.250 C 585.186 192.563, 583.515 192, 582 192 C 580.485 192, 578.805 192.563, 578.267 193.250 M 600.880 195.120 C 598.918 197.082, 598.811 197.916, 599.432 206.370 C 600.106 215.526, 601.401 221.416, 603.253 223.750 C 604.925 225.856, 608.825 225.197, 610.585 222.511 C 612.076 220.235, 612.088 219.076, 610.719 209.005 C 608.688 194.061, 605.889 190.111, 600.880 195.120 M 679.885 211.380 C 671.008 214.552, 666 221.514, 666 230.682 C 666 239.216, 670.694 244.734, 680.679 247.934 C 684.044 249.012, 685.797 249.037, 689.679 248.061 C 699.656 245.553, 705.670 239.580, 706.663 231.195 C 707.480 224.301, 706.601 221.607, 701.853 216.457 C 696.110 210.226, 688.218 208.402, 679.885 211.380 M 509 222.942 C 503.172 225.189, 497.683 230.778, 496.093 236.083 C 492.784 247.130, 495.791 255.045, 504.815 259.036 C 513.611 262.927, 524.569 260.672, 530.678 253.714 C 536.511 247.070, 537.294 239.418, 533.001 231.003 C 530.408 225.918, 526.958 223.371, 520.910 222.074 C 514.809 220.766, 514.608 220.780, 509 222.942 M 685.073 228.635 C 682.398 232.035, 682.440 235.400, 685.189 237.961 C 689.658 242.125, 697 239.454, 697 233.666 C 697 228.887, 694.558 226, 690.516 226 C 688.066 226, 686.579 226.719, 685.073 228.635 M 596.987 234.356 C 590.830 235.682, 584.604 239.129, 582.523 242.363 C 576.846 251.186, 582.798 262.454, 594.178 264.426 C 597.141 264.940, 597.968 265.591, 598.438 267.782 C 599.050 270.639, 600.916 284.615, 600.969 286.740 C 600.986 287.422, 596.837 290.052, 591.750 292.585 C 586.663 295.118, 581.723 298.160, 580.772 299.345 C 578.771 301.841, 578.455 307.055, 580.200 308.800 C 581.847 310.447, 588.957 310.284, 592 308.528 C 593.375 307.735, 595.625 306.588, 597 305.980 C 598.375 305.372, 603.100 303.149, 607.500 301.041 C 616.871 296.550, 619.488 295.681, 623.315 295.790 C 627.203 295.900, 629 297.674, 629 301.400 C 629 309.060, 635.621 311.533, 641.198 305.956 C 643.938 303.216, 644.175 302.493, 643.578 298.706 C 642.504 291.901, 639.853 287.745, 634.942 285.173 C 630.990 283.103, 629.485 282.895, 621.290 283.282 L 612.080 283.717 611.478 279.109 C 611.147 276.574, 610.454 272.340, 609.938 269.701 C 608.646 263.093, 608.655 263.055, 611.750 261.698 C 620.340 257.933, 624.514 252.257, 623.741 245.393 C 622.597 235.245, 612.394 231.036, 596.987 234.356 M 514.923 240.923 C 513.315 242.531, 512 244.801, 512 245.969 C 512 248.808, 516.332 253, 519.266 253 C 525.361 253, 528.290 244.500, 523.686 240.174 C 520.574 237.251, 518.410 237.436, 514.923 240.923 M 902.500 257.556 C 898.169 259.785, 896.048 262.964, 896.022 267.265 C 896.003 270.450, 896.500 271.334, 899.250 273.011 C 903.323 275.495, 905.657 275.507, 909.661 273.065 C 913.593 270.667, 914.409 268.233, 913.015 263.056 C 912.247 260.205, 911.068 258.569, 909.013 257.507 C 905.501 255.690, 906.135 255.686, 902.500 257.556 M 795.419 323.075 C 790.296 324.562, 788.488 327.416, 788.587 333.854 C 788.680 339.896, 791.203 350.603, 792.943 352.343 C 793.524 352.924, 794 354.570, 794 356 C 794 357.430, 794.544 359.144, 795.209 359.809 C 796.463 361.063, 798.290 364.525, 808.626 385.229 C 819.446 406.906, 828.284 425.862, 832.062 435.500 C 833.356 438.800, 835.861 444.068, 837.628 447.206 C 839.395 450.344, 842.211 457.094, 843.885 462.206 C 852.847 489.577, 857.440 502.517, 862.445 514.500 C 864.513 519.450, 867.911 528.225, 869.997 534 C 872.083 539.775, 875.206 547.875, 876.937 552 L 880.083 559.500 868.080 571 C 860.749 578.025, 855.835 583.534, 855.454 585.157 C 854.692 588.402, 856.049 591.153, 859.260 592.871 C 861.350 593.990, 862.333 593.857, 866.587 591.881 C 881.176 585.102, 903.891 564.690, 925.166 539.240 C 938.969 522.729, 944.338 516.935, 949.044 513.474 C 953.587 510.133, 960.894 507.042, 964.315 507.015 C 968.111 506.984, 976.678 511.613, 981.011 516.037 C 986.775 521.922, 990.944 523, 1007.943 523 C 1015.258 523, 1021 523.406, 1021 523.923 C 1021 526.004, 1015.837 530.755, 1010.835 533.278 C 998.733 539.382, 984.263 541.227, 967.201 538.843 C 959.475 537.763, 958.718 537.820, 956.251 539.662 C 954.773 540.765, 950.895 546.914, 947.479 553.570 C 929.356 588.884, 910.155 611.725, 890.343 621.537 C 867.390 632.905, 840.617 627.501, 820.441 607.428 C 811.017 598.052, 804.674 588.697, 797.776 574 C 790.457 558.408, 790.285 557.996, 788.399 551.500 C 779.959 522.441, 775.418 515.532, 769.751 523.129 C 768.051 525.408, 767.803 527.303, 767.886 537.354 C 767.993 550.390, 770.351 563.148, 775.201 576.943 C 778.560 586.498, 786.411 603.518, 787.876 604.423 C 788.399 604.747, 789.803 607.026, 790.995 609.490 C 793.408 614.474, 810.965 632.673, 815.565 634.958 C 817.179 635.760, 820.300 637.828, 822.500 639.554 C 827.071 643.140, 830.979 645.063, 839.500 647.915 C 848.096 650.793, 850.168 651.127, 863.090 651.711 C 872.034 652.115, 875.949 651.866, 880.244 650.618 C 889.926 647.803, 889.454 647.279, 889.824 661.253 C 890.003 667.989, 890.565 675.699, 891.074 678.386 C 892.551 686.183, 892.160 732.799, 890.498 747 C 887.392 773.550, 885.771 781.733, 877.577 812.223 C 875.156 821.232, 868.601 840.002, 864.557 849.500 C 863.855 851.150, 862.807 853.625, 862.229 855 C 858.715 863.355, 852.684 875, 851.870 875 C 851.319 875, 851.062 872.152, 851.266 868.297 C 851.675 860.562, 850.499 857.200, 847.077 856.320 C 843.658 855.440, 841.319 858.793, 836.666 871.242 C 834.557 876.884, 832.418 882.400, 831.911 883.500 C 830.174 887.272, 820.181 928.709, 817.054 945.105 C 815.334 954.122, 812.368 969.375, 810.463 979 C 808.557 988.625, 806.553 998.750, 806.008 1001.500 C 802.276 1020.358, 797.139 1050.926, 794.498 1070 C 794.156 1072.475, 793.254 1077.425, 792.495 1081 C 791.736 1084.575, 789.949 1094.925, 788.524 1104 C 787.099 1113.075, 785.208 1124.775, 784.323 1130 C 781.251 1148.127, 781.943 1146.392, 777.485 1147.136 C 775.293 1147.502, 758.499 1147.764, 740.164 1147.719 C 709.095 1147.644, 706.976 1147.527, 708.994 1146.005 C 713.149 1142.870, 719.565 1140.077, 728.500 1137.512 C 733.450 1136.091, 739.678 1134.300, 742.341 1133.531 C 748.538 1131.742, 753.888 1128.130, 754.639 1125.230 C 754.962 1123.981, 754.660 1120.831, 753.968 1118.230 C 752.761 1113.697, 752.271 1111.257, 750.107 1099 C 749.574 1095.975, 748.185 1089.225, 747.022 1084 C 743.724 1069.183, 743.094 1066.189, 741.027 1055.500 C 739.963 1050, 738.643 1043.475, 738.095 1041 C 734.697 1025.670, 730.755 1006.761, 730.038 1002.354 C 728.814 994.831, 728.164 993.274, 725.306 991.026 C 723.517 989.619, 721.237 989, 717.844 989 C 713.564 989, 712.811 988.680, 711.784 986.425 C 710.454 983.507, 706.261 981, 702.709 981 C 701.394 981, 696.084 981.881, 690.909 982.957 C 668.617 987.593, 650.734 989.276, 624 989.256 C 609.975 989.245, 593.325 988.709, 587 988.066 C 572.620 986.603, 554.967 984.098, 553.755 983.349 C 553.251 983.037, 550.512 982.180, 547.669 981.445 C 544.826 980.709, 538.675 978.752, 534 977.096 C 529.325 975.440, 524.503 974.066, 523.285 974.042 C 522.066 974.019, 519.542 975.341, 517.675 976.981 C 514.158 980.069, 513.439 982.163, 509.597 1000.500 C 505.818 1018.541, 499.373 1060.769, 497.005 1083 C 495.862 1093.725, 494.730 1103.175, 494.488 1104 C 494.246 1104.825, 493.365 1111.575, 492.530 1119 C 490.181 1139.900, 489.944 1141.432, 488.888 1142.500 C 487.965 1143.434, 474.660 1144.185, 433.632 1145.617 C 414.865 1146.273, 413.791 1145.819, 422.283 1140.830 C 427.264 1137.903, 433.940 1135.407, 440.750 1133.925 C 443.088 1133.416, 446.992 1132.570, 449.426 1132.044 C 455.857 1130.655, 464.059 1125.949, 465.190 1123 C 465.816 1121.366, 465.785 1119.288, 465.101 1117 C 462.398 1107.967, 461.254 1103.217, 453.420 1068.500 C 452.675 1065.200, 450.986 1057.775, 449.666 1052 C 448.345 1046.225, 446.491 1037.900, 445.546 1033.500 C 443.500 1023.986, 440.509 1010.811, 438.507 1002.500 C 437.712 999.200, 436.169 991.775, 435.077 986 C 423.925 926.996, 422.451 922.631, 406.558 901.500 C 402.008 895.450, 397.013 888.250, 395.459 885.500 C 393.904 882.750, 391.417 878.925, 389.932 877 C 379.321 863.245, 369.848 841.982, 365.207 821.500 C 360.411 800.337, 359.782 797.078, 358.931 789 C 357.223 772.785, 358.101 738.372, 360.985 708.500 C 363.361 683.893, 363.943 678.003, 365.089 667 C 365.748 660.675, 366.405 655.354, 366.550 655.176 C 366.695 654.998, 368.093 655.511, 369.657 656.315 C 374.810 658.967, 389.115 661.377, 399.500 661.343 C 414.647 661.294, 425.686 657.396, 437.932 647.771 C 443.606 643.311, 446.297 639.945, 451.737 630.500 C 456.329 622.529, 460.479 611.910, 461.576 605.326 C 461.834 603.772, 462.459 600.250, 462.964 597.500 C 463.468 594.750, 464.435 586.372, 465.112 578.882 C 466.666 561.698, 465.482 549.206, 461.943 545.439 C 459.072 542.383, 457.537 542.372, 454.524 545.385 C 451.512 548.397, 450.043 553.708, 447.440 571 C 446.020 580.427, 441.609 598.079, 438.947 604.980 C 435.432 614.096, 431.429 620.413, 425.256 626.586 C 419.688 632.154, 414.600 634.808, 406.649 636.290 C 380.727 641.123, 354.811 627.065, 331.477 595.512 C 326.552 588.853, 318.034 575.214, 315.855 570.500 C 310.298 558.474, 305.724 554.429, 298.935 555.533 C 294.201 556.304, 277.301 553.521, 268.840 550.579 C 260.581 547.707, 249.846 540.235, 246.317 534.903 C 244.882 532.734, 243.933 530.733, 244.210 530.457 C 244.486 530.181, 249.164 530.621, 254.606 531.436 C 260.048 532.251, 268.659 532.792, 273.743 532.639 C 281.572 532.404, 283.333 532.035, 285.257 530.229 C 290.503 525.300, 300.614 523.606, 309.285 526.204 C 313.594 527.495, 320.915 534.111, 329.527 544.500 C 338.674 555.533, 366.165 582, 368.479 582 C 368.895 582, 370.870 583.366, 372.868 585.035 C 377.019 588.503, 377.415 588.800, 381.500 591.496 C 388.357 596.021, 395.935 599.833, 402.155 601.886 C 406.651 603.370, 410.574 602.029, 412.203 598.453 C 413.182 596.304, 413.062 595.271, 411.496 592.362 C 410.458 590.436, 408.666 588.328, 407.514 587.680 C 406.362 587.031, 401.241 583.402, 396.135 579.615 C 386.024 572.117, 385.946 571.940, 389.568 564.596 C 390.356 562.999, 391 561.229, 391 560.662 C 391 560.095, 391.854 557.802, 392.898 555.566 C 393.941 553.330, 396.009 548.391, 397.493 544.592 C 398.976 540.792, 402.847 531.882, 406.095 524.792 C 409.343 517.702, 412 511.706, 412 511.466 C 412 511.227, 414.222 506.412, 416.937 500.765 C 419.652 495.119, 423.207 487.125, 424.836 483 C 427.768 475.578, 436.178 457.659, 446.062 437.775 C 448.871 432.124, 452.966 423.462, 455.163 418.527 C 457.360 413.591, 460.219 407.291, 461.516 404.527 C 472.602 380.901, 473.041 379.427, 470.675 373.766 C 468.606 368.814, 463.430 367.178, 454.609 368.688 C 447.290 369.942, 433.654 376, 429.766 379.724 C 426.168 383.171, 425.139 388.391, 427.536 391.040 C 429.655 393.381, 435.312 393.608, 439 391.500 C 442.243 389.646, 446 389.596, 446 391.407 C 446 392.180, 443.247 398.143, 439.882 404.657 C 427.030 429.534, 409.409 464.646, 408.093 468 C 406.719 471.502, 397.960 490.505, 386.890 514.001 C 383.650 520.876, 380.997 526.951, 380.994 527.501 C 380.990 528.050, 380.411 529.625, 379.705 531 C 379 532.375, 377.592 535.750, 376.577 538.500 C 375.561 541.250, 373.924 545.316, 372.938 547.535 C 371.953 549.754, 370.840 552.791, 370.465 554.285 C 369.147 559.534, 365.933 557.902, 353.658 545.750 C 347.407 539.563, 339.600 531.346, 336.307 527.491 C 326.057 515.489, 310.581 507, 298.953 507 C 293.577 507, 285.846 509.604, 281.172 512.990 C 277.510 515.643, 276.216 515.996, 270.259 515.965 C 266.541 515.945, 259.450 515.199, 254.500 514.307 C 242.253 512.100, 234.003 512.113, 230.595 514.346 C 218.177 522.482, 224.090 542.655, 242.932 556.439 C 250.266 561.804, 255.872 564.566, 266 567.807 C 276.395 571.132, 279.284 571.726, 289 572.530 C 292.575 572.826, 295.661 573.537, 295.859 574.110 C 297.314 578.337, 308.093 597.798, 313.143 605.317 C 321.270 617.416, 326.487 623.678, 337.267 634.278 L 346.195 643.055 344.111 653.778 C 342.965 659.675, 340.915 672.825, 339.556 683 C 331.463 743.596, 330.317 777.726, 335.476 804.500 C 336.323 808.900, 337.452 815.761, 337.984 819.748 C 338.921 826.778, 345.278 846.806, 350.124 858 C 356.005 871.583, 368.002 890.703, 380.556 906.500 C 388.604 916.628, 396.629 928.943, 398.516 934.061 C 401.961 943.406, 404.766 957.358, 406.949 976 C 408.581 989.940, 412.891 1013.498, 419.025 1042 C 420.150 1047.225, 421.531 1054.194, 422.095 1057.486 C 423.509 1065.745, 429.450 1090.623, 432.606 1101.500 C 436.956 1116.494, 437.099 1115.488, 430.345 1117.467 C 420.735 1120.284, 407.965 1126.169, 403.081 1130.034 C 391.108 1139.507, 388.221 1151.747, 396.233 1159.066 C 402.588 1164.870, 419.672 1166.364, 453.318 1164.057 C 462.568 1163.423, 475.168 1163.005, 481.318 1163.129 C 494.017 1163.386, 499.867 1162.588, 505.235 1159.867 C 511.654 1156.615, 513.124 1153.082, 515.588 1135 C 518.234 1115.570, 518.798 1111.797, 520.365 1103 C 521.197 1098.325, 522.816 1087.075, 523.961 1078 C 525.105 1068.925, 526.731 1057.450, 527.572 1052.500 C 528.414 1047.550, 529.493 1040.575, 529.972 1037 C 531.473 1025.783, 534.037 1008.600, 534.575 1006.142 C 534.974 1004.324, 535.597 1003.895, 537.296 1004.270 C 538.508 1004.536, 543.775 1005.738, 549 1006.940 C 560.097 1009.492, 570.933 1011.352, 583.500 1012.861 C 597.018 1014.484, 639.952 1015.199, 652.022 1014.002 C 675.571 1011.666, 682.767 1010.750, 688.159 1009.405 C 691.271 1008.628, 694.476 1008.246, 695.282 1008.555 C 696.151 1008.888, 697.368 1012.043, 698.273 1016.308 C 699.113 1020.264, 700.764 1026.650, 701.943 1030.500 C 703.121 1034.350, 706.289 1046.050, 708.982 1056.500 C 717.913 1091.150, 719.080 1095.430, 722.124 1104.689 C 723.785 1109.742, 725 1115.126, 724.822 1116.653 C 724.533 1119.145, 723.937 1119.546, 719 1120.570 C 712.948 1121.826, 710.906 1122.601, 700.314 1127.662 C 686.933 1134.055, 678.262 1146.256, 680.882 1155.002 C 684.745 1167.895, 701.571 1170.589, 759.318 1167.563 C 778.118 1166.577, 795.096 1165.380, 797.048 1164.902 C 798.999 1164.423, 801.819 1162.755, 803.314 1161.194 C 806.310 1158.067, 807.528 1152.589, 813.692 1114.508 C 814.262 1110.987, 815.007 1109.420, 816.221 1109.190 C 817.330 1108.980, 821.199 1112.271, 827.088 1118.431 C 832.118 1123.692, 838.911 1129.624, 842.183 1131.611 C 851.609 1137.337, 861.149 1141.683, 866.014 1142.468 C 868.481 1142.866, 871.515 1143.836, 872.756 1144.623 C 876.584 1147.051, 894.436 1149.259, 904.500 1148.550 C 916.428 1147.709, 926.485 1146.172, 931.986 1144.350 C 937.246 1142.607, 949.881 1135.114, 955.114 1130.634 C 960.433 1126.079, 967.611 1116.134, 971.046 1108.558 C 975.805 1098.062, 977.026 1090.346, 975.928 1077.705 C 975.412 1071.768, 974.585 1065.243, 974.090 1063.205 C 970.038 1046.532, 967.968 1039.764, 966.134 1037.188 C 964.960 1035.540, 964 1033.397, 964 1032.425 C 964 1029.038, 942.162 982.579, 935.703 972.224 C 933.550 968.773, 930.905 963.624, 929.825 960.782 C 928.745 957.940, 927.043 954.464, 926.043 953.057 C 924.232 950.510, 921.282 944.993, 906.514 916.529 C 902.241 908.295, 897.678 899.866, 896.373 897.799 C 895.068 895.731, 893.997 893.693, 893.994 893.270 C 893.990 892.846, 893.284 891.150, 892.423 889.500 C 888.901 882.747, 884 870.775, 884 868.924 C 884 867.835, 886.210 862.119, 888.912 856.222 C 896.567 839.512, 900.242 829.747, 908.004 805.500 C 909.060 802.200, 910.194 797.700, 910.523 795.500 C 910.852 793.300, 912.199 785.650, 913.516 778.500 C 917.812 755.179, 919.211 739.187, 919.158 714 C 919.130 701.075, 918.615 686.225, 918.013 681 C 916.610 668.835, 914.248 652.213, 912.808 644.374 L 911.682 638.247 923.190 626.874 C 940.187 610.075, 950.087 596.099, 960.646 574 C 964.193 566.575, 967.461 559.825, 967.907 559 C 968.569 557.777, 971.379 557.491, 983.109 557.453 C 995.032 557.414, 998.653 557.035, 1004.225 555.243 C 1027.531 547.749, 1041.787 534.319, 1041.956 519.700 C 1042.015 514.577, 1039.811 510.665, 1035.292 507.871 C 1031.066 505.259, 1026.298 505.012, 1007.939 506.452 C 995.131 507.456, 991.269 506.462, 986.909 501.036 C 980.517 493.083, 969.526 489.669, 957.500 491.903 C 944.939 494.237, 936.334 500.579, 920.055 519.500 C 907.639 533.932, 899.889 542, 898.443 542 C 897.749 542, 896.040 538.737, 894.646 534.750 C 889.582 520.263, 885.948 510.436, 884.570 507.500 C 882.819 503.770, 874.480 481.322, 869.153 466 C 860.622 441.465, 857.944 434.874, 849.037 416.500 C 843.971 406.050, 838.691 394.810, 837.304 391.523 C 835.918 388.235, 833.546 383.735, 832.034 381.523 C 829.333 377.571, 825.574 370.886, 817.682 356 C 815.496 351.875, 813.098 347.612, 812.353 346.527 C 811.609 345.443, 811 343.530, 811 342.277 C 811 340.191, 811.449 340, 816.365 340 C 825.728 340, 829.684 334.619, 824.581 328.825 C 820.062 323.694, 804.115 320.550, 795.419 323.075 M 759.378 327.546 C 758.010 329.633, 757.815 331.660, 758.296 338.796 C 759.411 355.370, 763.553 363.333, 770.193 361.666 C 774.252 360.648, 775.393 356.544, 774.042 347.828 C 772.405 337.274, 769.119 327.134, 766.962 325.980 C 763.860 324.319, 761.122 324.885, 759.378 327.546 M 712.764 333.750 C 710.273 336.569, 709.872 342.758, 711.428 354.357 C 713.026 366.273, 714.460 369, 719.132 369 C 723.478 369, 725.334 365.308, 725.330 356.671 C 725.326 347.124, 723.182 336.182, 720.860 333.860 C 718.519 331.519, 714.780 331.468, 712.764 333.750 M 607.486 353.015 C 605.041 355.718, 604.490 363.558, 605.903 375.543 C 607.199 386.530, 608.069 388.728, 611.457 389.578 C 615.059 390.483, 617.647 389.266, 618.983 386.042 C 620.439 382.526, 618.851 358.479, 616.920 354.814 C 614.622 350.453, 610.514 349.669, 607.486 353.015 M 501.308 369.064 C 497.805 370.388, 496.184 373.932, 495.098 382.649 C 493.671 394.093, 495.574 400, 500.688 400 C 504.325 400, 506.688 398.380, 507.444 395.368 C 508.308 391.926, 508.357 374.699, 507.510 372.032 C 506.648 369.317, 503.998 368.048, 501.308 369.064 M 534.406 377.208 C 530.189 379.138, 528.500 385.370, 528.500 399 C 528.500 412.745, 529.596 417.039, 533.564 418.847 C 537.510 420.645, 540.710 418.789, 542.015 413.945 C 543.268 409.293, 542.359 382.693, 540.848 379.773 C 539.506 377.180, 536.811 376.107, 534.406 377.208 M 644.507 391.349 C 641.777 395.515, 640.311 421.391, 642.345 429.500 C 642.621 430.600, 642.881 432.084, 642.923 432.798 C 643.023 434.493, 648.745 436.879, 651.182 436.242 C 654.935 435.261, 656 430.938, 656 416.686 C 656 396.260, 653.999 389, 648.368 389 C 647.035 389, 645.391 390, 644.507 391.349 M 777.174 390.871 C 774.957 392.277, 774.715 399.002, 776.523 409 C 777.467 414.225, 778.569 420.442, 778.971 422.816 C 779.849 427.996, 781.859 430.250, 785.600 430.250 C 790.015 430.250, 792 426.886, 792 419.404 C 792 409.316, 787.304 392.769, 783.930 390.962 C 781.730 389.785, 778.947 389.747, 777.174 390.871 M 735.861 397.913 C 733.509 399.819, 733.500 399.912, 733.500 421.834 C 733.500 443.749, 733.510 443.852, 735.924 446.421 C 738.955 449.645, 742.076 449.698, 745.694 446.587 L 748.500 444.175 748.465 430.837 C 748.404 407.459, 747.259 400.696, 742.841 397.601 C 739.887 395.532, 738.735 395.584, 735.861 397.913 M 687.731 408.250 C 685.127 410.221, 684.008 417.568, 684.467 429.688 C 684.992 443.580, 686.262 448.707, 689.551 450.205 C 693.338 451.931, 696.642 449.926, 698.115 445.009 C 699.805 439.371, 697.921 413.054, 695.571 409.468 C 693.803 406.770, 690.387 406.239, 687.731 408.250 M 484.311 428.495 C 481.195 430.677, 477.337 438.127, 474.334 447.759 C 471.126 458.046, 471.701 462.753, 476.354 464.292 C 481.353 465.946, 483.952 462.923, 488.277 450.419 C 492.627 437.846, 493.365 430.471, 490.483 428.364 C 488.102 426.623, 486.949 426.647, 484.311 428.495 M 550.625 448.862 C 549.698 449.886, 548.495 452.249, 547.951 454.112 C 546.559 458.886, 545.574 480.432, 546.433 487.309 C 547.578 496.472, 553.022 499.798, 558.076 494.420 C 560.477 491.865, 560.500 491.649, 560.500 471.526 C 560.500 452.954, 560.337 451.032, 558.595 449.106 C 556.240 446.502, 552.855 446.398, 550.625 448.862 M 813.109 459.891 C 810.568 462.432, 809.647 470.091, 810.932 478.009 C 811.511 481.579, 811.988 486.608, 811.992 489.185 C 812.001 494.271, 813.429 499.017, 815.313 500.214 C 817.438 501.566, 820.958 501.042, 822.918 499.082 C 825.536 496.464, 826.380 488.346, 825.092 478.177 C 823.670 466.953, 822.335 462.390, 819.774 460.004 C 817.091 457.505, 815.522 457.478, 813.109 459.891 M 623.061 472.750 C 620.410 474.898, 619.134 480.161, 619.559 487.190 C 620.789 507.530, 621.353 512.783, 622.562 515.120 C 624.933 519.706, 631.646 519.898, 634.027 515.449 C 634.974 513.681, 635.143 509.643, 634.684 499.783 C 633.957 484.167, 632.078 475.292, 628.968 472.773 C 626.252 470.574, 625.750 470.572, 623.061 472.750 M 441.113 484.583 C 438.011 488.527, 433.041 502.314, 432.355 508.881 C 431.820 514.001, 432.011 515.011, 433.871 516.871 C 436.743 519.743, 440.399 519.580, 442.845 516.470 C 444.808 513.975, 448.586 499.844, 449.679 490.909 C 450.006 488.237, 449.758 485.416, 449.085 484.159 C 447.491 481.181, 443.628 481.386, 441.113 484.583 M 694.870 492.560 C 691.867 494.133, 689.997 499.953, 690.006 507.693 C 690.009 510.337, 689.479 517.105, 688.828 522.733 C 687.516 534.073, 688.165 536.843, 692.610 538.868 C 696.301 540.550, 699.645 538.496, 701.616 533.336 C 703.891 527.378, 704.254 497.232, 702.082 494.605 C 699.647 491.661, 697.662 491.097, 694.870 492.560 M 497.065 496.935 C 494.402 499.598, 493.082 504.690, 491.863 517 C 489.792 537.911, 491.506 545, 498.632 545 C 502.990 545, 505.388 541.431, 505.633 534.581 C 505.732 531.786, 506.143 525.197, 506.545 519.937 C 507.459 507.998, 506.487 499.487, 503.918 496.918 C 501.484 494.484, 499.511 494.489, 497.065 496.935 M 730.229 517.669 C 727.745 518.669, 725.980 524.044, 724.965 533.706 C 723.361 548.973, 722.856 567.492, 723.964 570.406 C 726.029 575.836, 733.738 576.341, 736.387 571.219 C 738.891 566.377, 740.684 540.619, 739.391 528.069 C 738.524 519.660, 735.059 515.726, 730.229 517.669 M 835.729 519.750 C 834.464 521.151, 834.251 523.092, 834.660 529.477 C 834.942 533.864, 835.584 538.222, 836.086 539.161 C 836.589 540.100, 837 542.002, 837 543.387 C 837 544.772, 837.398 546.940, 837.884 548.203 C 838.371 549.466, 839.774 553.769, 841.001 557.764 C 843.736 566.661, 846.169 570, 849.918 570 C 854.052 570, 856.495 566.697, 856.464 561.150 C 856.436 556.031, 851.190 535.224, 847.811 526.832 C 844.525 518.673, 839.411 515.674, 835.729 519.750 M 416.748 541.984 C 413.786 544.314, 409.969 553.420, 407.478 564.097 C 405.468 572.718, 405.954 576.269, 409.463 578.567 C 411.552 579.936, 412.286 579.972, 414.688 578.821 C 418.304 577.088, 419.544 574.348, 423.114 560.212 C 426.287 547.652, 426.204 543.957, 422.698 541.501 C 419.968 539.589, 419.772 539.605, 416.748 541.984 M 525.452 580.646 C 524.104 582.101, 522.966 584.014, 522.923 584.896 C 522.881 585.778, 522.639 587.400, 522.385 588.500 C 521.502 592.327, 520.891 615.540, 521.513 621.654 C 522.329 629.681, 523.567 631.280, 529.064 631.402 C 535.841 631.554, 536.333 629.785, 536.114 606.057 C 536.014 595.301, 535.671 585.150, 535.351 583.500 C 534.221 577.681, 529.470 576.311, 525.452 580.646 M 607.485 593.016 C 604.990 595.773, 603.884 604.549, 604.526 616.500 C 605.426 633.249, 606.020 637.020, 608.082 639.082 C 610.629 641.629, 615.208 641.534, 617.595 638.887 C 619.273 637.026, 619.478 635.325, 619.313 624.637 C 619.068 608.763, 617.596 594.423, 616.016 592.519 C 614.231 590.368, 609.640 590.636, 607.485 593.016 M 681.543 624.250 C 679.410 626.118, 678.834 627.773, 678.151 634 C 677.156 643.058, 677.344 662.805, 678.448 665.287 C 679.628 667.941, 684.089 669.914, 686.692 668.933 C 687.897 668.479, 689.697 666.865, 690.692 665.347 C 692.245 662.977, 692.481 660.534, 692.367 648.043 C 692.220 632.010, 691.060 625.856, 687.749 623.537 C 684.905 621.544, 684.590 621.581, 681.543 624.250 M 734.162 651.838 C 731.567 654.433, 730.080 663.422, 729.779 678.345 L 729.519 691.190 732.315 693.595 C 733.853 694.918, 735.712 696, 736.445 696 C 739.007 696, 742.106 692.468, 743.025 688.500 C 744.378 682.663, 744.245 656.335, 742.850 653.684 C 740.674 649.550, 737.190 648.810, 734.162 651.838 M 469.586 666.905 C 466.853 669.925, 464.906 677.719, 464.316 688 C 463.362 704.628, 466.547 714, 473.151 714 C 478.329 714, 478.951 711.539, 479.240 689.898 C 479.470 672.652, 479.296 670.102, 477.727 667.706 C 475.626 664.499, 472.079 664.150, 469.586 666.905 M 857.156 682.529 C 856.061 683.921, 854.791 686.958, 854.333 689.279 C 853.110 695.474, 853.855 725.939, 855.301 728.879 C 857.078 732.490, 859.387 733.602, 862.695 732.438 C 867.774 730.652, 868.494 727.455, 868.347 707.340 C 868.208 688.377, 867.278 682.754, 863.986 680.992 C 861.045 679.419, 859.292 679.813, 857.156 682.529 M 384.124 693.876 C 378.345 699.655, 378.775 738.840, 384.705 746.819 C 388.685 752.174, 395.980 749.979, 396.345 743.316 C 396.702 736.820, 394.806 704.144, 393.832 700 C 392.768 695.475, 389.970 692, 387.389 692 C 386.625 692, 385.156 692.844, 384.124 693.876 M 792.521 695.328 C 790.732 698.059, 789.600 704.204, 787.977 720 C 787.328 726.325, 786.394 733.936, 785.902 736.914 C 784.740 743.947, 786.908 748.334, 791.782 748.812 C 798.647 749.485, 801.178 743.525, 803.166 722 C 804.506 707.487, 803.891 697.642, 801.477 694.974 C 798.993 692.229, 794.433 692.409, 792.521 695.328 M 584.526 714.250 C 582.185 716.287, 581.852 717.521, 581.005 727.298 C 580.490 733.237, 580.264 739.312, 580.503 740.798 C 580.742 742.284, 581.164 746.875, 581.441 751 C 581.877 757.480, 582.297 758.806, 584.529 760.750 C 588.288 764.024, 591.614 763.674, 594.030 759.750 C 595.888 756.731, 595.996 755.221, 595.555 738.500 C 595.066 719.944, 594.116 714.668, 590.961 712.979 C 588.312 711.561, 587.411 711.739, 584.526 714.250 M 441.465 738.983 C 437.084 740.691, 435.952 744.243, 435.406 758 C 434.931 769.996, 436.618 787.333, 438.657 791.394 C 443.678 801.396, 452.644 799.600, 452.372 788.646 C 451.988 773.150, 449.955 747.985, 448.815 744.609 C 447.273 740.044, 444.395 737.842, 441.465 738.983 M 677.313 740.786 C 674.791 742.389, 673.850 747.866, 673.872 760.807 C 673.912 784.534, 675.726 790, 683.559 790 C 687.477 790, 688.900 786.547, 688.916 777 C 688.924 772.325, 688.935 766.114, 688.940 763.199 C 688.952 757.454, 686.633 745.051, 684.965 741.934 C 683.909 739.962, 679.620 739.318, 677.313 740.786 M 516.750 743.080 C 512.650 745.468, 511.738 749.673, 511.244 768.473 C 510.984 778.388, 511.179 788.041, 511.679 789.925 C 513.687 797.489, 521.830 799.046, 524.608 792.397 C 526.651 787.505, 526.594 750.050, 524.537 746.072 C 522.530 742.190, 519.968 741.206, 516.750 743.080 M 831.774 760.750 C 830.218 762.522, 829.753 764.238, 823.920 789.733 C 821.266 801.336, 820.873 804.427, 821.798 806.456 C 823.250 809.643, 827.529 810.774, 830.931 808.869 C 835.888 806.094, 841.421 786.404, 841.472 771.355 C 841.495 764.723, 841.146 762.819, 839.595 761.105 C 837.277 758.544, 833.847 758.388, 831.774 760.750 M 855.641 774.750 C 854.865 776.263, 853.012 782, 851.524 787.500 C 848.273 799.509, 842.963 815.687, 840.089 822.333 C 837.346 828.679, 837.424 831.577, 840.394 833.523 C 843.298 835.426, 847.015 834.693, 849.810 831.665 C 859.934 820.701, 869.819 781.897, 864.443 774.223 C 862.139 770.933, 857.455 771.214, 855.641 774.750 M 386.763 793.750 C 382.907 798.111, 383.606 809.424, 388.718 825.396 C 394.377 843.081, 397.662 847.242, 404.433 845.303 C 408.518 844.134, 409.253 840.628, 406.829 833.876 C 405.767 830.919, 402.903 820.850, 400.464 811.500 C 397.625 800.615, 395.416 794.050, 394.324 793.250 C 391.908 791.480, 388.575 791.701, 386.763 793.750 M 790.193 799.023 C 787.973 801.406, 785.447 811.693, 781.794 833.222 C 780.466 841.048, 781.491 844.583, 785.372 845.557 C 792.397 847.320, 797.486 837.113, 800.036 816.146 C 801.364 805.223, 800.308 799.917, 796.458 798.163 C 793.006 796.590, 792.380 796.676, 790.193 799.023 M 742.426 802.310 C 739.470 804.852, 739.017 806.701, 736.490 826.500 C 733.125 852.867, 733.179 854.003, 737.885 855.952 C 740.282 856.945, 741.336 856.877, 743.868 855.568 C 745.558 854.694, 747.347 853.196, 747.843 852.240 C 749.443 849.157, 751.929 832.825, 752.610 820.928 C 753.369 807.664, 752.370 802.945, 748.424 801.147 C 745.209 799.682, 745.560 799.614, 742.426 802.310 M 550.090 847.750 C 548.917 848.712, 547.705 850.625, 547.397 852 C 546.106 857.764, 548.007 888.259, 549.981 893.451 C 550.976 896.066, 554.182 897.394, 558.148 896.833 C 561.843 896.310, 564.193 890.706, 563.528 884 C 561.290 861.410, 559.688 850.209, 558.416 848.250 C 556.657 845.544, 553.042 845.327, 550.090 847.750 M 448.520 851.978 C 446.989 853.669, 446.823 855.084, 447.372 861.728 C 448.104 870.581, 450.417 878.645, 455.019 888.384 C 458.089 894.882, 460.435 897, 464.565 897 C 466.865 897, 470 893.222, 470 890.451 C 470 887.456, 458.591 853.416, 456.906 851.387 C 455.228 849.365, 450.589 849.691, 448.520 851.978 M 812.278 855.199 C 809.384 858.780, 799.589 886.656, 800.176 889.641 C 800.354 890.547, 801.677 892.166, 803.116 893.239 C 805.590 895.085, 805.903 895.101, 808.910 893.547 C 813.012 891.425, 815.373 887.443, 818.526 877.325 C 823.320 861.944, 822.662 854.815, 816.392 854.199 C 814.708 854.033, 812.856 854.483, 812.278 855.199 M 408.896 867.286 C 405.384 869.960, 405.715 874.413, 410.173 884.505 C 412.244 889.194, 418.997 898.885, 421.334 900.521 C 424.706 902.883, 429.682 902.415, 431.552 899.560 C 433.027 897.309, 433.013 896.825, 431.366 893.310 C 428.379 886.934, 417.051 868.581, 415.280 867.250 C 413.204 865.689, 410.975 865.702, 408.896 867.286 M 692.025 868.778 C 690.287 870.186, 689.635 872.218, 688.897 878.528 C 687.359 891.681, 689.589 914.745, 692.738 918.250 C 694.928 920.687, 700.238 920.499, 702.590 917.900 C 704.749 915.515, 704.909 912.374, 703.733 895.500 C 702.380 876.086, 701.797 871.547, 700.361 869.250 C 698.659 866.528, 695.056 866.324, 692.025 868.778 M 740.736 910.250 C 737.966 912.353, 737 916.694, 737 927.035 C 737 937.202, 739.478 957.147, 741.123 960.227 C 741.631 961.177, 743.498 962.367, 745.273 962.871 C 748.158 963.690, 748.807 963.462, 751.393 960.718 L 754.286 957.648 753.610 945.574 C 752.588 927.316, 750.476 913.183, 748.432 910.925 C 746.436 908.719, 743.133 908.430, 740.736 910.250 M 871.500 921.242 C 869.300 922.988, 865.900 925.818, 863.944 927.530 C 861.988 929.243, 857.447 932.077, 853.852 933.829 C 846.168 937.572, 846.341 937.193, 842.523 958.743 C 839.045 978.380, 838.855 977.224, 845.250 975.369 C 862.232 970.443, 876.479 960.783, 884.753 948.585 C 887.334 944.780, 887.946 943.033, 887.466 940.847 C 887.125 939.294, 886.407 937.751, 885.869 937.419 C 884.962 936.858, 881.078 928.821, 878.055 921.250 C 877.341 919.462, 876.474 918.015, 876.129 918.034 C 875.783 918.052, 873.700 919.496, 871.500 921.242 M 783.825 920.038 C 781.286 921.520, 780.199 926.087, 778.509 942.388 C 775.808 968.429, 776.093 971.211, 781.564 972.257 C 785.956 973.097, 788.686 969.843, 790.399 961.727 C 792.914 949.815, 794.260 936.017, 793.537 929.568 C 792.574 920.984, 788.707 917.189, 783.825 920.038 M 447.235 924.109 C 444.566 925.096, 442.680 929.383, 443.596 932.382 C 443.951 933.547, 446.035 938.231, 448.226 942.790 C 453.181 953.100, 457.557 958, 461.811 958 C 466.947 958, 469.722 951.972, 466.656 947.473 C 465.917 946.388, 463.959 943.025, 462.306 940 C 454.050 924.900, 451.724 922.448, 447.235 924.109 M 612.966 928.880 C 609.166 932.681, 609.133 936.714, 612.817 947.500 C 615.544 955.484, 616.314 956.968, 622.741 966.617 C 628.534 975.314, 635.226 978.774, 638.985 975.015 C 642.030 971.970, 641.444 968.386, 636.623 960.584 C 632.311 953.604, 628.657 946.129, 623.953 934.662 C 622.303 930.637, 620.685 928.371, 618.746 927.368 C 616.075 925.987, 615.782 926.064, 612.966 928.880 M 489.174 931.314 C 486.369 934.301, 486.435 936.311, 489.631 945.190 C 492.610 953.466, 496.260 959.201, 502.992 966.186 C 506.531 969.857, 508.351 971, 510.661 971 C 513.890 971, 517 968.402, 517 965.705 C 517 963.597, 513.865 957, 512.864 957 C 512.443 957, 510.388 954.032, 508.299 950.404 C 506.210 946.776, 503.725 942.613, 502.778 941.154 C 501.831 939.694, 500.142 936.828, 499.025 934.783 C 497.146 931.346, 494.394 929, 492.240 929 C 491.750 929, 490.370 930.042, 489.174 931.314 M 555.174 931.314 C 552.364 934.306, 552.337 939.634, 555.089 948.085 C 558.860 959.663, 566.779 970.766, 573.887 974.441 C 576.405 975.744, 577.457 975.830, 579.259 974.881 C 584.480 972.131, 584.221 969.778, 577.500 958.913 C 574.475 954.023, 571.986 949.679, 571.969 949.261 C 571.951 948.842, 570.601 945.811, 568.969 942.525 C 567.336 939.239, 566 936.038, 566 935.412 C 566 933.661, 560.939 929, 559.038 929 C 558.109 929, 556.370 930.042, 555.174 931.314 M 667.225 936.671 C 666.524 936.953, 665.297 938.746, 664.499 940.656 C 662.823 944.668, 663.700 950.844, 667.229 959.868 C 671.222 970.079, 676.452 973.548, 681 969 C 683.345 966.655, 683.536 963.948, 681.619 960.200 C 680.859 958.715, 678.841 953.279, 677.133 948.121 C 673.597 937.438, 671.460 934.968, 667.225 936.671 M 445.655 973.829 C 443.574 976.128, 443.556 980.577, 445.592 989.500 C 448.427 1001.928, 451.299 1007, 455.501 1007 C 459.673 1007, 461.313 1004.288, 460.605 998.563 C 459.804 992.088, 455.486 977.391, 453.489 974.343 C 451.642 971.525, 447.959 971.283, 445.655 973.829 M 471.414 974.490 C 470.039 976.590, 469.946 977.906, 470.822 982.882 C 472.523 992.539, 476.015 1000.119, 479.769 1002.303 C 482.757 1004.043, 483.239 1004.074, 485.390 1002.664 C 488.351 1000.724, 489.197 996.543, 487.432 992.567 C 486.684 990.880, 484.871 986.350, 483.405 982.500 C 481.938 978.650, 480.053 974.712, 479.214 973.750 C 477.005 971.214, 473.333 971.562, 471.414 974.490 M 911.103 991.750 C 907.934 998.306, 899.598 1010.399, 895.175 1014.856 C 887.400 1022.690, 880.133 1027.949, 870.500 1032.711 C 858.866 1038.462, 853.761 1039.923, 841.699 1040.952 C 836.858 1041.365, 832.466 1042.134, 831.937 1042.663 C 831.409 1043.191, 830.272 1048.095, 829.409 1053.561 C 828.547 1059.028, 826.996 1067.961, 825.963 1073.414 C 824.930 1078.867, 824.279 1083.643, 824.517 1084.027 C 826.577 1087.360, 850.839 1088.637, 863 1086.052 C 870.976 1084.356, 890.425 1074.792, 898.521 1068.584 C 907.467 1061.724, 918.852 1048.221, 923.696 1038.726 C 930.154 1026.068, 931.244 1023.109, 930.517 1020.213 C 929.671 1016.843, 914.853 987, 914.025 987 C 913.681 987, 912.365 989.138, 911.103 991.750 M 766.398 1011.434 C 761.893 1014.589, 761.113 1028.096, 763.536 1060.990 C 764.163 1069.505, 764.695 1070.933, 767.655 1072.059 C 771.596 1073.557, 775.040 1072.149, 776.608 1068.397 C 779.523 1061.420, 777.625 1015.474, 774.268 1011.750 C 772.354 1009.628, 769.160 1009.499, 766.398 1011.434 M 470.736 1022.250 C 467.756 1024.513, 467.060 1028.385, 467.998 1037.480 C 468.997 1047.166, 471.635 1059.880, 473.641 1064.683 C 475 1067.937, 478.434 1071, 480.723 1071 C 483.138 1071, 486 1067.064, 485.994 1063.750 C 485.987 1059.575, 479.383 1026.584, 478.060 1024.111 C 476.416 1021.041, 473.354 1020.262, 470.736 1022.250" stroke="none" fill="#2942C9" fill-rule="evenodd"/>
    </g>
  </g>
</svg>
