<?xml version="1.0" encoding="UTF-8"?>
<svg xmlns="http://www.w3.org/2000/svg" viewBox="0 0 1280 1280" width="1280" height="1280" role="img" aria-labelledby="title desc">
  <title id="title">BillBandit raccoon - Greeting</title>
  <desc id="desc">Transparent two-color vector mascot using cobalt and warm cream.</desc>
  <g id="mascot-greeting" shape-rendering="geometricPrecision">
    <g id="warm-cream-base">
      <path d="M 794.763 62.058 C 783.110 63.958, 770.421 69.871, 755.185 80.500 C 747.688 85.731, 739.173 94.622, 734.500 102.100 C 728.398 111.866, 728.243 112, 723.046 112 C 720.336 112, 717.879 111.613, 717.587 111.141 C 717.295 110.669, 714.010 109.970, 710.287 109.588 C 705.555 109.104, 702.866 108.283, 701.355 106.864 C 700.166 105.747, 697.462 104.428, 695.347 103.934 C 688.603 102.357, 648.557 100.817, 642.247 101.892 C 639.086 102.430, 632.675 103.180, 628 103.559 C 623.325 103.937, 618.404 104.661, 617.065 105.169 C 615.726 105.676, 609.876 106.985, 604.065 108.079 C 591.407 110.461, 582.292 113.221, 557.500 122.179 C 541.326 128.023, 541.792 128.011, 538.115 122.667 C 536.402 120.177, 535 117.852, 535 117.500 C 535 114.692, 521.327 98.437, 516.442 95.438 C 514.595 94.305, 512.138 92.173, 510.980 90.702 C 509.823 89.231, 505.642 85.410, 501.688 82.211 C 496.272 77.828, 492.963 75.975, 488.265 74.697 C 476.363 71.458, 469.660 72.862, 464.814 79.609 C 461.247 84.576, 459.856 88.685, 456.897 103 C 454.151 116.282, 453.536 125.112, 454.816 132.853 C 458.238 153.533, 459.307 165.156, 458.215 169.800 C 457.187 174.176, 448.958 190.090, 442.771 199.667 C 441.291 201.959, 439.807 204.920, 439.474 206.248 C 439.140 207.576, 437.885 209.753, 436.684 211.085 C 435.483 212.418, 433.405 215.531, 432.066 218.004 C 430.727 220.477, 425.291 229.025, 419.985 237 C 414.680 244.975, 405.881 258.250, 400.433 266.500 C 394.984 274.750, 390.233 281.725, 389.876 282 C 388.916 282.737, 386 290.015, 386 291.673 C 386 293.825, 392.590 296.290, 394.957 295.023 C 396.008 294.460, 398.023 294, 399.434 294 C 401.698 294, 402 294.411, 402 297.483 C 402 300.655, 401.557 301.191, 397.033 303.483 C 394.302 304.867, 391.449 306, 390.694 306 C 387.594 306, 375 316.770, 375 319.421 C 375 320.313, 376.013 321.439, 377.250 321.922 C 384.047 324.579, 391.008 326, 397.220 326 L 404.210 326 403.707 329.750 C 403.430 331.813, 402.146 336.310, 400.854 339.745 C 398.147 346.940, 398.716 348.913, 403.925 350.407 C 406.487 351.142, 408.048 350.890, 411.597 349.165 C 417.616 346.241, 420.288 346.436, 424.465 350.104 C 427.398 352.678, 428 353.884, 428 357.181 C 428 360.239, 428.673 361.827, 430.923 364.077 C 433.953 367.107, 434.658 367.298, 441.752 367.017 C 446.660 366.823, 447.584 368.073, 446.561 373.526 C 446.129 375.831, 444.202 378.792, 440.951 382.147 C 438.228 384.958, 436 387.799, 436 388.462 C 436 389.125, 434.522 391.204, 432.715 393.083 C 427.249 398.769, 422.564 405.107, 417.995 413 C 415.607 417.125, 412.431 421.850, 410.937 423.500 C 409.444 425.150, 404.766 433.250, 400.542 441.500 C 396.318 449.750, 392.252 457.625, 391.507 459 C 390.762 460.375, 387.830 466.225, 384.993 472 C 382.155 477.775, 379.250 483.625, 378.537 485 C 374.207 493.350, 366 511.084, 366 512.092 C 366 512.749, 364.158 518.682, 361.906 525.274 C 357.367 538.566, 350.600 563.032, 349.536 570 C 349.158 572.475, 348.007 577.875, 346.977 582 C 345.292 588.749, 342.008 609.909, 339.062 633 C 338.465 637.675, 337.308 649.375, 336.490 659 C 334.996 676.583, 334.442 681.158, 331.600 699.382 C 327.544 725.393, 329.141 777.874, 334.572 797 C 335.899 801.675, 337.244 807.750, 337.562 810.500 C 337.879 813.250, 339.170 818.650, 340.431 822.500 C 341.691 826.350, 343.505 831.975, 344.462 835 C 345.420 838.025, 346.832 841.918, 347.601 843.651 C 348.371 845.384, 349 847.484, 349 848.318 C 349 849.152, 350.575 852.803, 352.500 856.431 C 354.425 860.060, 356 863.508, 356 864.094 C 356 864.680, 359.395 869.162, 363.544 874.052 C 367.694 878.943, 372.547 885.545, 374.330 888.722 C 376.869 893.247, 378.158 894.568, 380.273 894.815 C 381.982 895.015, 384.264 896.667, 386.487 899.315 C 393.381 907.526, 398 914.480, 398 916.649 C 398 917.860, 399.728 922.425, 401.840 926.793 C 405.553 934.470, 405.722 935.287, 406.930 951.365 C 407.617 960.512, 408.849 970.585, 409.666 973.748 C 410.484 976.912, 411.611 981.750, 412.170 984.500 C 413.696 992.002, 416.995 1004.799, 419.003 1011 C 419.983 1014.025, 421.764 1021.450, 422.962 1027.500 C 424.160 1033.550, 426.210 1043.450, 427.517 1049.500 C 428.824 1055.550, 430.391 1063.044, 430.998 1066.153 C 431.605 1069.262, 432.979 1074.206, 434.051 1077.139 C 435.123 1080.072, 436 1083.385, 436 1084.501 C 436 1085.617, 436.900 1088.209, 438 1090.261 C 441.615 1097.006, 440.491 1099.099, 432.482 1100.538 C 430.292 1100.931, 426.025 1102.365, 423 1103.724 C 419.975 1105.084, 416.082 1106.827, 414.349 1107.598 C 412.616 1108.369, 410.676 1109, 410.039 1109 C 407.915 1109, 398.179 1119.088, 396.161 1123.380 C 395.067 1125.708, 393.442 1128.218, 392.550 1128.959 C 390.013 1131.064, 377.754 1131.336, 363.127 1129.611 C 355.771 1128.744, 349.362 1128.276, 348.884 1128.571 C 348.406 1128.867, 335.974 1129.530, 321.258 1130.046 C 281.695 1131.431, 273.010 1132.669, 269.009 1137.489 C 267.864 1138.869, 267.952 1139.396, 269.601 1141.046 C 273.636 1145.080, 300.172 1147.323, 319.420 1145.257 C 328.930 1144.236, 336.288 1144.194, 354 1145.059 C 366.375 1145.663, 379.425 1146.145, 383 1146.130 C 386.575 1146.114, 415.375 1146.046, 447 1145.977 C 495.355 1145.872, 505.454 1145.607, 510.500 1144.305 C 515.308 1143.065, 519.975 1142.875, 534 1143.351 C 543.625 1143.678, 554.156 1144.443, 557.401 1145.051 C 562.005 1145.914, 566.403 1145.821, 577.401 1144.630 C 604.444 1141.700, 620.968 1140.741, 633.246 1141.391 C 673.150 1143.501, 684.945 1144.086, 707.500 1145.074 C 721.250 1145.677, 734.750 1146.601, 737.500 1147.129 C 740.250 1147.657, 758.025 1148.007, 777 1147.908 C 795.975 1147.809, 814.313 1147.776, 817.750 1147.835 C 826.410 1147.984, 838.936 1147.973, 856 1147.800 C 863.975 1147.720, 878.600 1147.811, 888.500 1148.004 C 901.415 1148.256, 907.144 1148.009, 908.778 1147.128 C 910.251 1146.334, 914.844 1145.970, 921.778 1146.100 C 947.707 1146.583, 1026.741 1145.536, 1039 1144.547 C 1044.225 1144.125, 1049.993 1143.165, 1051.819 1142.413 C 1054.602 1141.266, 1055.086 1140.598, 1054.819 1138.280 C 1054.604 1136.418, 1053.592 1135.082, 1051.721 1134.189 C 1047.524 1132.186, 1028.506 1131.050, 998.750 1131.024 L 972 1131 972 1128.048 C 972 1125.649, 972.889 1124.489, 976.750 1121.851 C 995.080 1109.327, 1001.743 1091.742, 997.991 1065.799 C 996.692 1056.818, 989.829 1036.789, 983.856 1024.548 C 981.185 1019.074, 979 1014.167, 979 1013.644 C 979 1013.121, 977.922 1010.400, 976.604 1007.596 C 975.286 1004.793, 973.485 1000.925, 972.603 999 C 971.720 997.075, 969.584 993.250, 967.856 990.500 C 966.128 987.750, 961.328 979.425, 957.190 972 C 953.051 964.575, 948.866 957.459, 947.890 956.188 C 946.913 954.916, 945.581 952.216, 944.931 950.188 C 944.280 948.159, 943.166 945.825, 942.456 945 C 941.745 944.175, 939.741 939.909, 938.001 935.521 C 936.262 931.133, 931.500 920.654, 927.419 912.236 C 923.339 903.818, 920 896.676, 920 896.366 C 920 896.055, 918.426 893.252, 916.503 890.136 C 914.580 887.020, 911.630 880.877, 909.949 876.485 C 908.267 872.093, 904.328 863.350, 901.196 857.056 L 895.500 845.611 895.616 836.556 C 895.728 827.774, 896.310 824.854, 902.903 800 C 903.998 795.875, 905.584 787.550, 906.429 781.500 C 907.274 775.450, 908.623 766.225, 909.425 761 C 915.030 724.515, 915.158 693.382, 909.849 658 C 908.735 650.575, 907.211 639.325, 906.463 633 C 904.884 619.659, 903.612 612.672, 901.366 605 C 899.850 599.825, 896.489 578.801, 895.341 567.313 L 894.822 562.127 901.161 557.563 C 920.411 543.703, 935.824 528.337, 946.370 512.494 C 954.875 499.718, 956.090 497.492, 959.573 488.309 C 964.076 476.439, 966.965 466.746, 968.459 458.500 C 969.257 454.100, 970.619 446.675, 971.487 442 C 975.008 423.040, 976.086 401.195, 975.864 353.302 L 975.649 307.104 979.867 302.302 C 982.187 299.661, 985.602 295.925, 987.457 294 C 992.502 288.764, 998 280.115, 998 277.415 C 998 276.104, 996.693 273.568, 995.095 271.780 C 992.646 269.039, 991.534 268.546, 988.011 268.638 C 985.459 268.705, 982.712 269.576, 980.957 270.874 C 977.642 273.325, 975.169 273.603, 974.405 271.613 C 973.722 269.833, 976.249 257.437, 980.057 243.884 C 982.946 233.603, 983.014 232.001, 980.766 227.298 C 979.405 224.451, 974.707 222.781, 971.496 224.002 C 967.506 225.518, 959.222 238.666, 956.532 247.750 C 956.063 249.330, 955.097 250, 953.283 250 L 950.701 250 951.340 240.990 C 951.692 236.034, 952.262 230.216, 952.606 228.061 C 953.140 224.721, 952.853 223.762, 950.662 221.571 C 949.248 220.157, 947.006 219, 945.680 219 C 937.368 219, 929.269 237.059, 928.263 257.836 C 927.647 270.542, 927.114 271.378, 921.375 268.642 C 916.596 266.363, 914.773 266.574, 911.799 269.750 C 906.507 275.402, 907.180 278.595, 916.353 291.355 C 922.175 299.453, 923.165 302.980, 921.085 308.203 C 920.582 309.466, 919.202 313.875, 918.018 318 C 908.981 349.492, 892.061 380.671, 880.800 386.582 C 872.568 390.904, 859.854 386.336, 843.310 373.113 C 830.919 363.209, 829.369 361.319, 828.509 355.068 C 827.264 346.016, 831.219 343.742, 840.565 348.136 C 845.781 350.587, 848.711 349.897, 851.562 345.546 C 853.101 343.197, 853.105 342.810, 851.615 340.535 C 849.572 337.417, 849.579 335.572, 851.646 332.417 C 853.028 330.308, 853.789 330.013, 856.396 330.577 C 858.103 330.946, 861.975 332.487, 865 334 C 873.447 338.226, 876.143 338.541, 878.888 335.619 C 881.683 332.644, 881.281 330.911, 875.859 322.551 C 873.736 319.279, 872 315.567, 872 314.301 C 872 311.865, 873.196 311.681, 890 311.538 C 898.730 311.464, 899.134 308.916, 891.609 301.391 C 888.643 298.426, 885.582 296, 884.805 296 C 884.028 296, 881.866 294.425, 880 292.500 C 878.134 290.575, 876.182 289, 875.662 289 C 875.141 289, 872.417 287.045, 869.608 284.655 C 866.799 282.265, 863.487 279.774, 862.250 279.120 C 860.658 278.278, 860 277.025, 860 274.836 L 860 271.742 866.098 272.432 C 869.452 272.811, 874.176 274.083, 876.595 275.258 L 880.993 277.395 883.747 275.349 C 887.805 272.332, 887.729 269.212, 883.476 264.243 C 879.885 260.047, 860.654 244.442, 856.132 242.054 C 853.920 240.886, 853.808 240.416, 854.428 234.931 C 855.040 229.524, 854.732 228.148, 850.546 217.564 C 848.046 211.242, 846 205.682, 846 205.209 C 846 204.736, 844.830 203.258, 843.401 201.924 C 841.972 200.591, 839.694 197.475, 838.340 195 C 832.570 184.456, 830.743 181.460, 828.195 178.365 C 826.713 176.564, 823.700 172.749, 821.500 169.888 C 819.300 167.026, 815.138 162.127, 812.250 159.002 C 806.450 152.724, 806.021 150.812, 807.977 139.934 C 811.956 117.797, 813.582 75.612, 810.717 68.828 C 808.174 62.803, 803.183 60.685, 794.763 62.058 M 1036.724 199.134 C 1034.068 200.621, 1034.680 203.901, 1038.938 211 C 1052.246 233.187, 1057.957 252.382, 1059.530 280.207 C 1060.234 292.663, 1061.390 295.581, 1064.573 292.939 C 1066.991 290.933, 1069.649 285.079, 1070.903 279 C 1073.261 267.566, 1068.729 243.027, 1061.351 227.280 C 1058.257 220.677, 1049.273 207.361, 1045.317 203.517 C 1040.414 198.751, 1038.842 197.949, 1036.724 199.134 M 1022.719 236.137 C 1020.551 237.351, 1020.518 241.167, 1022.639 245.268 C 1024.654 249.166, 1027.669 261.285, 1028.508 268.862 C 1029.601 278.732, 1032.134 281.145, 1037.139 277.085 C 1039.323 275.314, 1039.488 274.507, 1039.346 266.335 C 1039.175 256.559, 1037.645 251.239, 1032.860 243.781 C 1028.978 237.732, 1025.097 234.807, 1022.719 236.137 M 865.503 298.991 C 865.155 300.086, 865.160 301.450, 865.514 302.023 C 866.591 303.765, 874.893 307.255, 876.496 306.640 C 879.338 305.549, 878.145 302.117, 874.020 299.513 C 869.224 296.485, 866.354 296.309, 865.503 298.991 M 543.399 996.752 C 542.794 997.163, 541.562 1002.225, 540.663 1008 C 539.764 1013.775, 538.392 1022.100, 537.615 1026.500 C 536.838 1030.900, 535.687 1042.549, 535.058 1052.387 C 533.960 1069.538, 532.696 1080.296, 529.557 1099.201 C 528.762 1103.986, 527.801 1111.739, 527.420 1116.430 C 526.589 1126.679, 526.954 1127.008, 536.478 1124.616 C 540.016 1123.727, 544.449 1123, 546.329 1123 C 548.209 1123, 553.066 1122.180, 557.123 1121.177 C 563.412 1119.623, 566.049 1119.492, 575 1120.287 C 582.585 1120.961, 587.230 1120.882, 591.732 1120.005 C 600.673 1118.262, 617.265 1118.541, 624.500 1120.555 C 629.536 1121.958, 635.160 1122.203, 659.500 1122.085 C 699.113 1121.892, 701.090 1121.681, 708.364 1116.875 C 711.589 1114.744, 714.882 1113, 715.681 1113 C 716.480 1113, 718.566 1111.943, 720.317 1110.651 C 724.483 1107.576, 731.250 1105, 735.160 1105 L 738.280 1105 737.710 1099.482 C 737.397 1096.447, 736.230 1092.490, 735.117 1090.690 C 734.004 1088.889, 731.889 1083.159, 730.418 1077.958 C 728.946 1072.756, 726.717 1065.350, 725.464 1061.500 C 724.211 1057.650, 722.445 1049.550, 721.540 1043.500 C 720.635 1037.450, 719.018 1029.800, 717.947 1026.500 C 714.215 1015, 711 1003.666, 711 1002.008 C 711 1001.089, 709.903 999.751, 708.561 999.033 C 705.779 997.544, 700.631 997.946, 681 1001.185 C 663.207 1004.120, 645.669 1004.168, 636.500 1001.307 C 630.067 999.299, 627.511 999.128, 604.939 999.197 C 590.112 999.243, 579.609 998.870, 578.439 998.257 C 577.372 997.699, 570.488 997.213, 563.141 997.177 C 555.793 997.141, 548.593 996.862, 547.141 996.557 C 545.688 996.253, 544.005 996.340, 543.399 996.752 M 828.282 1096.652 C 827.612 1096.923, 826.817 1098.575, 826.517 1100.323 C 825.600 1105.651, 824.238 1126.422, 824.721 1127.700 C 825.034 1128.526, 829.579 1129.029, 839.338 1129.318 C 847.127 1129.548, 860.385 1130.298, 868.801 1130.984 C 877.216 1131.670, 884.358 1131.976, 884.671 1131.663 C 886.099 1130.235, 883.863 1126.182, 881.291 1125.537 C 878.368 1124.803, 873.011 1122.427, 858.073 1115.237 C 849.518 1111.120, 843.804 1106.827, 835.460 1098.250 C 833.376 1096.108, 830.954 1095.569, 828.282 1096.652" stroke="none" fill="#F7F1DD" fill-rule="evenodd"/>
    </g>
    <g id="cobalt-ink">
      <path d="M 794.763 62.058 C 783.110 63.958, 770.421 69.871, 755.185 80.500 C 747.688 85.731, 739.173 94.622, 734.500 102.100 C 728.398 111.866, 728.243 112, 723.046 112 C 720.336 112, 717.879 111.613, 717.587 111.141 C 717.295 110.669, 714.010 109.970, 710.287 109.588 C 705.555 109.104, 702.866 108.283, 701.355 106.864 C 700.166 105.747, 697.462 104.428, 695.347 103.934 C 688.603 102.357, 648.557 100.817, 642.247 101.892 C 639.086 102.430, 632.675 103.180, 628 103.559 C 623.325 103.937, 618.404 104.661, 617.065 105.169 C 615.726 105.676, 609.876 106.985, 604.065 108.079 C 591.407 110.461, 582.292 113.221, 557.500 122.179 C 541.326 128.023, 541.792 128.011, 538.115 122.667 C 536.402 120.177, 535 117.852, 535 117.500 C 535 114.692, 521.327 98.437, 516.442 95.438 C 514.595 94.305, 512.138 92.173, 510.980 90.702 C 509.823 89.231, 505.642 85.410, 501.688 82.211 C 496.272 77.828, 492.963 75.975, 488.265 74.697 C 476.363 71.458, 469.660 72.862, 464.814 79.609 C 461.247 84.576, 459.856 88.685, 456.897 103 C 454.151 116.282, 453.536 125.112, 454.816 132.853 C 458.238 153.533, 459.307 165.156, 458.215 169.800 C 457.187 174.176, 448.958 190.090, 442.771 199.667 C 441.291 201.959, 439.807 204.920, 439.474 206.248 C 439.140 207.576, 437.885 209.753, 436.684 211.085 C 435.483 212.418, 433.405 215.531, 432.066 218.004 C 430.727 220.477, 425.291 229.025, 419.985 237 C 414.680 244.975, 405.881 258.250, 400.433 266.500 C 394.984 274.750, 390.233 281.725, 389.876 282 C 388.916 282.737, 386 290.015, 386 291.673 C 386 293.825, 392.590 296.290, 394.957 295.023 C 396.008 294.460, 398.023 294, 399.434 294 C 401.698 294, 402 294.411, 402 297.483 C 402 300.655, 401.557 301.191, 397.033 303.483 C 394.302 304.867, 391.449 306, 390.694 306 C 387.594 306, 375 316.770, 375 319.421 C 375 320.313, 376.013 321.439, 377.250 321.922 C 384.047 324.579, 391.008 326, 397.220 326 L 404.210 326 403.707 329.750 C 403.430 331.813, 402.146 336.310, 400.854 339.745 C 398.147 346.940, 398.716 348.913, 403.925 350.407 C 406.487 351.142, 408.048 350.890, 411.597 349.165 C 414.048 347.974, 417.160 347, 418.513 347 C 421.331 347, 428.905 342.116, 428.962 340.263 C 428.983 339.582, 430.687 337.953, 432.750 336.642 C 434.813 335.332, 437.357 333.301, 438.405 332.130 C 439.453 330.958, 440.865 330, 441.543 330 C 443.228 330, 455.467 324.253, 461.111 320.811 C 463.719 319.221, 467.162 318, 469.040 318 C 472.845 318, 475.956 317.091, 488.500 312.315 C 500.638 307.693, 503.168 306.432, 512.654 300.285 C 517.139 297.378, 521.320 295, 521.946 295 C 523.615 295, 538.208 282.076, 540.235 278.802 C 541.190 277.261, 542.426 276, 542.982 276 C 543.539 276, 545.683 274.517, 547.747 272.704 C 549.811 270.892, 552.686 268.665, 554.135 267.757 C 556.711 266.142, 565 252.194, 565 249.474 C 565 248.719, 566.582 246.895, 568.515 245.421 C 572.053 242.723, 574.259 238.967, 575.465 233.590 C 575.825 231.989, 577.660 228.878, 579.544 226.677 C 581.462 224.436, 583.223 221.095, 583.545 219.087 C 583.861 217.114, 584.807 214.239, 585.647 212.699 C 589.149 206.273, 583.692 187.449, 576.495 181.130 C 571.351 176.614, 564.777 175.533, 550.416 176.844 C 537.974 177.979, 526.691 179.968, 525.414 181.250 C 525.003 181.662, 523.504 182.002, 522.083 182.004 C 518.914 182.009, 468.289 206.892, 461.866 211.602 C 459.317 213.471, 456.711 215, 456.074 215 C 454.636 215, 459.237 206.873, 463.642 201.633 C 465.430 199.506, 467.180 196.457, 467.531 194.859 C 467.882 193.260, 469.166 190.725, 470.383 189.226 C 471.600 187.727, 473.851 183.240, 475.384 179.256 C 476.918 175.272, 478.583 171.757, 479.086 171.447 C 480.265 170.718, 480.252 166.163, 479.054 160.764 C 474.722 141.241, 473.564 133.598, 473.556 124.500 C 473.545 111.029, 475.953 99, 478.660 99 C 479.397 99, 480 99.414, 480 99.921 C 480 100.427, 481.319 101.131, 482.931 101.485 C 484.543 101.839, 486.397 102.773, 487.051 103.561 C 487.705 104.349, 490.370 105.626, 492.974 106.400 C 496.254 107.374, 499.598 109.588, 503.854 113.606 C 507.235 116.796, 510 120.003, 510 120.734 C 510 121.465, 510.692 122.328, 511.537 122.653 C 513.007 123.217, 516.630 129, 515.513 129 C 515.217 129, 516.106 130.791, 517.487 132.980 C 518.869 135.169, 520 137.437, 520 138.021 C 520 139.157, 523.241 144.083, 526.392 147.735 C 528.962 150.714, 533.975 151.581, 537.646 149.683 C 539.236 148.861, 541.691 148.410, 543.104 148.679 C 544.681 148.981, 546.989 148.367, 549.086 147.089 C 550.964 145.944, 553.933 145.006, 555.685 145.004 C 557.437 145.002, 560.036 144.557, 561.461 144.015 C 562.886 143.473, 565.053 142.835, 566.276 142.597 C 572.422 141.403, 584.360 137.710, 589.500 135.415 C 592.404 134.118, 595.021 133.082, 611 126.909 C 618.116 124.159, 619.330 124.006, 634.707 123.920 C 643.620 123.869, 651.432 124.149, 652.065 124.540 C 652.699 124.932, 658.681 125.342, 665.359 125.451 C 672.036 125.560, 679.525 126.155, 682 126.773 C 684.475 127.391, 690.100 128.399, 694.500 129.013 C 698.900 129.627, 704.750 130.556, 707.500 131.077 C 710.250 131.598, 715.912 132.396, 720.082 132.849 C 724.251 133.303, 728.193 134.001, 728.841 134.401 C 731.205 135.862, 733.975 133.768, 736.953 128.270 C 738.629 125.176, 740 121.846, 740 120.869 C 740 119.834, 741.413 118.423, 743.387 117.487 C 745.793 116.345, 746.948 115.010, 747.374 112.879 C 748.472 107.390, 756.376 100.807, 768.500 95.282 C 781.518 89.351, 789.537 86.596, 791.053 87.533 C 793.090 88.792, 789.533 124.776, 786.761 130.957 C 785.101 134.657, 784.871 136.626, 785.409 142.553 C 785.764 146.479, 786.231 150.604, 786.446 151.719 C 787.188 155.570, 793.154 168.913, 795.828 172.700 C 797.304 174.790, 799.173 177.850, 799.981 179.500 C 800.789 181.150, 802.474 183.772, 803.725 185.327 C 804.976 186.881, 806 188.732, 806 189.439 C 806 190.146, 807.237 192.337, 808.750 194.308 C 813.426 200.399, 817.099 205.917, 816.793 206.389 C 816.632 206.636, 817.463 207.888, 818.639 209.169 C 820.772 211.493, 825.249 220, 824.339 220 C 823.383 220, 815.451 214.179, 813.588 212.109 C 812.537 210.941, 810.512 209.387, 809.088 208.657 C 806.079 207.112, 794.029 200.638, 785.769 196.129 C 782.617 194.408, 779.380 193, 778.576 193 C 777.771 193, 776.513 192.142, 775.778 191.094 C 775.044 190.046, 770.631 187.342, 765.972 185.086 C 761.312 182.830, 756.375 180.342, 755 179.557 C 750.582 177.035, 744.786 174.772, 739.071 173.339 C 733.474 171.935, 721.798 169.919, 719 169.873 C 718.175 169.859, 715.073 169.387, 712.106 168.823 C 706.614 167.780, 704.969 167.626, 687.674 166.535 C 677.946 165.922, 677.771 165.952, 670.174 169.471 C 665.953 171.426, 661.825 173.458, 661 173.987 C 660.175 174.516, 657.384 176.187, 654.798 177.700 C 652.212 179.214, 649.512 181.544, 648.798 182.878 C 647.046 186.152, 647.048 217.448, 648.800 219.200 C 649.460 219.860, 650 221.313, 650 222.430 C 650 226.115, 659.238 242.944, 662.719 245.599 C 664.523 246.976, 666 248.979, 666 250.051 C 666 251.123, 666.462 252, 667.026 252 C 667.591 252, 670.025 253.972, 672.435 256.382 C 674.845 258.793, 679.549 262.451, 682.888 264.512 C 686.227 266.572, 688.716 268.651, 688.419 269.131 C 688.122 269.611, 688.919 270.401, 690.190 270.887 C 691.460 271.373, 693.358 272.723, 694.406 273.886 C 697.316 277.116, 706.363 281, 710.979 281 C 713.498 281, 716.127 281.767, 717.790 282.988 C 719.281 284.082, 722.778 285.404, 725.562 285.927 C 728.345 286.449, 731.945 287.556, 733.562 288.387 C 736.391 289.841, 751.260 294.587, 755.612 295.425 C 756.774 295.649, 760.374 297.166, 763.612 298.797 C 766.850 300.428, 770.625 301.773, 772 301.787 C 776.461 301.833, 784.229 304.027, 787.053 306.037 C 788.568 307.117, 790.695 308, 791.779 308 C 792.862 308, 795.718 308.713, 798.124 309.584 C 806.444 312.595, 812.532 314.100, 820.500 315.116 C 824.900 315.677, 830.345 316.371, 832.599 316.657 C 834.973 316.958, 837.920 318.245, 839.599 319.714 C 841.195 321.109, 843.850 322.830, 845.500 323.538 C 847.150 324.246, 849.569 325.966, 850.876 327.361 C 852.182 328.755, 854.657 330.200, 856.376 330.572 C 858.094 330.944, 861.975 332.487, 865 334 C 873.447 338.226, 876.143 338.541, 878.888 335.619 C 881.683 332.644, 881.281 330.911, 875.859 322.551 C 873.736 319.279, 872 315.567, 872 314.301 C 872 311.865, 873.196 311.681, 890 311.538 C 898.730 311.464, 899.134 308.916, 891.609 301.391 C 888.643 298.426, 885.582 296, 884.805 296 C 884.028 296, 881.866 294.425, 880 292.500 C 878.134 290.575, 876.182 289, 875.662 289 C 875.141 289, 872.417 287.045, 869.608 284.655 C 866.799 282.265, 863.487 279.774, 862.250 279.120 C 860.658 278.278, 860 277.025, 860 274.836 L 860 271.742 866.098 272.432 C 869.452 272.811, 874.176 274.083, 876.595 275.258 L 880.993 277.395 883.747 275.349 C 887.805 272.332, 887.729 269.212, 883.476 264.243 C 879.885 260.047, 860.654 244.442, 856.132 242.054 C 853.920 240.886, 853.808 240.416, 854.428 234.931 C 855.040 229.524, 854.732 228.148, 850.546 217.564 C 848.046 211.242, 846 205.682, 846 205.209 C 846 204.736, 844.830 203.258, 843.401 201.924 C 841.972 200.591, 839.694 197.475, 838.340 195 C 832.570 184.456, 830.743 181.460, 828.195 178.365 C 826.713 176.564, 823.700 172.749, 821.500 169.888 C 819.300 167.026, 815.138 162.127, 812.250 159.002 C 806.450 152.724, 806.021 150.812, 807.977 139.934 C 811.956 117.797, 813.582 75.612, 810.717 68.828 C 808.174 62.803, 803.183 60.685, 794.763 62.058 M 768.817 108.029 C 764.661 112.395, 762.910 115.083, 762.463 117.779 C 762.123 119.825, 761.487 122.642, 761.049 124.037 C 759.994 127.398, 761.348 135.977, 763.107 137.073 C 765.624 138.642, 772.693 139.235, 774.886 138.061 C 776.197 137.359, 777.031 135.899, 777.081 134.215 C 777.126 132.722, 777.351 130.150, 777.582 128.500 C 777.813 126.850, 778.129 124.600, 778.284 123.500 C 778.440 122.400, 779.286 120.150, 780.165 118.500 C 781.044 116.850, 782.066 113.679, 782.435 111.453 C 782.979 108.181, 782.700 106.888, 780.981 104.703 C 777.740 100.583, 775.256 101.262, 768.817 108.029 M 483.405 118.334 C 479.888 121.367, 478.696 127.577, 479.929 136.441 C 482.095 152.018, 488.789 159.111, 495.041 152.456 C 496.929 150.446, 497.389 148.954, 497.233 145.351 C 497.117 142.701, 497.635 139.931, 498.469 138.740 C 499.318 137.529, 499.590 136.039, 499.134 135.095 C 498.709 134.218, 498.446 131.925, 498.548 130 C 499.058 120.373, 489.542 113.041, 483.405 118.334 M 607.924 133.585 C 606.591 135.006, 605.637 137.009, 605.805 138.036 C 605.972 139.063, 605.415 140.963, 604.566 142.258 C 603.369 144.086, 603.189 145.934, 603.762 150.518 C 604.388 155.529, 604.914 156.656, 607.232 157.957 C 609.816 159.407, 610.100 159.355, 612.457 156.995 C 614.302 155.148, 615.354 152.367, 616.505 146.291 C 617.885 139.012, 617.894 137.682, 616.582 134.541 C 614.755 130.169, 611.468 129.806, 607.924 133.585 M 637.252 133.764 C 635.222 135.661, 633.942 138.008, 633.537 140.579 C 633.197 142.736, 632.487 146.127, 631.959 148.116 C 630.216 154.685, 630.734 158.646, 633.635 160.927 C 636.973 163.553, 639.192 163.550, 641.574 160.918 C 645.111 157.010, 648.500 136.906, 646.225 133.329 C 645.815 132.685, 644.326 131.869, 642.915 131.515 C 640.932 131.017, 639.647 131.527, 637.252 133.764 M 594.455 165.455 C 591.848 168.061, 591.833 168.137, 591.417 180.500 C 590.776 199.553, 591.231 203.481, 594.301 205.418 C 596.604 206.871, 598.901 205.332, 601.784 200.404 C 603.349 197.729, 603.921 195.483, 603.600 193.268 C 603.342 191.491, 603.552 189.777, 604.066 189.459 C 605.361 188.659, 605.249 174.272, 603.941 173.464 C 603.326 173.084, 603.156 171.564, 603.536 169.838 C 604.002 167.716, 603.688 166.313, 602.439 164.933 C 600.080 162.326, 597.408 162.501, 594.455 165.455 M 614.500 170.574 C 612.753 171.894, 612.472 173.408, 612.275 182.561 C 612.152 188.323, 611.589 193.899, 611.025 194.953 C 609.660 197.504, 609.724 203.300, 611.152 206.434 C 612.178 208.685, 614.577 210.221, 617.500 210.496 C 619.930 210.724, 623.064 207.474, 624.091 203.663 C 625.558 198.213, 625.512 179.080, 624.020 174.560 C 622.271 169.261, 618.390 167.636, 614.500 170.574 M 697.500 195.207 C 692.679 196.892, 688.163 200.785, 684.326 206.564 C 681.029 211.530, 680.786 212.401, 681.222 217.668 C 681.637 222.669, 682.122 223.739, 685.098 226.231 C 694.595 234.182, 712.983 233.141, 721.392 224.177 C 724.070 221.322, 724.270 220.569, 724.103 213.968 C 723.957 208.176, 723.442 206.114, 721.352 202.956 C 716.618 195.803, 705.826 192.296, 697.500 195.207 M 1036.724 199.134 C 1034.068 200.621, 1034.680 203.901, 1038.938 211 C 1052.246 233.187, 1057.957 252.382, 1059.530 280.207 C 1060.234 292.663, 1061.390 295.581, 1064.573 292.939 C 1066.991 290.933, 1069.649 285.079, 1070.903 279 C 1073.261 267.566, 1068.729 243.027, 1061.351 227.280 C 1058.257 220.677, 1049.273 207.361, 1045.317 203.517 C 1040.414 198.751, 1038.842 197.949, 1036.724 199.134 M 531.542 199.931 C 531.179 200.519, 529.594 201, 528.019 201 C 525.913 201, 524.245 202.064, 521.713 205.022 C 518.736 208.500, 518.197 209.952, 517.732 215.753 C 517.285 221.316, 517.518 222.919, 519.097 225.136 C 520.143 226.606, 521.012 228.189, 521.026 228.654 C 521.075 230.263, 528.525 232.789, 535.009 233.397 C 540.648 233.925, 542.119 233.688, 546.009 231.627 C 548.479 230.318, 551.745 227.504, 553.266 225.374 C 555.740 221.910, 555.969 220.918, 555.435 216 C 554.754 209.726, 551.264 202.968, 547.833 201.278 C 544.451 199.613, 532.357 198.613, 531.542 199.931 M 697.989 208.250 C 695.370 212.546, 695.485 214.618, 698.498 217.410 C 703.603 222.141, 712 217.929, 712 210.637 C 712 206.874, 709.478 205, 704.414 205 C 700.474 205, 699.746 205.368, 697.989 208.250 M 534.272 209.980 C 529.963 212.601, 529.494 215.648, 532.877 219.031 C 536.210 222.364, 540.014 222.069, 543.023 218.244 C 545.454 215.153, 545.496 213.826, 543.250 211.090 C 540.867 208.186, 537.838 207.812, 534.272 209.980 M 940.607 221.095 C 934.433 225.951, 929.028 242.038, 928.263 257.836 C 927.647 270.542, 927.114 271.378, 921.375 268.642 C 916.596 266.363, 914.773 266.574, 911.799 269.750 C 906.507 275.402, 907.180 278.595, 916.353 291.355 C 922.175 299.453, 923.165 302.980, 921.085 308.203 C 920.582 309.466, 919.202 313.875, 918.018 318 C 908.981 349.492, 892.061 380.671, 880.800 386.582 C 872.568 390.904, 859.854 386.336, 843.310 373.113 C 830.919 363.209, 829.369 361.319, 828.509 355.068 C 827.264 346.016, 831.219 343.742, 840.565 348.136 C 845.781 350.587, 848.711 349.897, 851.562 345.546 C 853.101 343.197, 853.105 342.810, 851.615 340.535 C 850.727 339.180, 850 337.462, 850 336.719 C 850 334.287, 842.160 330.780, 835.644 330.299 C 827.634 329.707, 822.230 331.607, 819.178 336.090 C 817.663 338.314, 816.198 339.393, 814.964 339.193 C 812.763 338.836, 807.074 344.603, 807.029 347.236 C 807.013 348.190, 806.474 350.936, 805.832 353.338 C 804.101 359.810, 805.977 367.915, 810.477 373.407 C 812.415 375.771, 814 378.046, 814 378.462 C 814 380.875, 836.180 399.496, 843.500 403.228 C 851.904 407.513, 861.695 410.191, 869.797 410.422 C 874.360 410.551, 878.324 410.284, 878.606 409.829 C 878.888 409.373, 880 409, 881.077 409 C 887.527 409, 906.239 392.751, 912.500 381.714 C 914.150 378.806, 916.425 375.092, 917.555 373.463 C 918.685 371.833, 921.111 367.125, 922.945 363 C 924.778 358.875, 926.666 355.072, 927.139 354.550 C 927.613 354.027, 928 352.979, 928 352.221 C 928 351.462, 929.154 347.957, 930.564 344.432 C 931.975 340.906, 933.343 336.780, 933.606 335.261 C 933.869 333.742, 934.928 329.125, 935.958 325 C 936.989 320.875, 938.359 314.249, 939.003 310.275 L 940.173 303.051 944.336 303.174 C 946.626 303.241, 948.950 303.176, 949.500 303.030 C 951.820 302.411, 953.992 303.116, 954.880 304.776 C 955.471 305.880, 955.496 310.892, 954.946 318.026 C 953.162 341.159, 951.820 360.551, 951.868 362.500 C 951.895 363.600, 951.499 369.450, 950.988 375.500 C 950.476 381.550, 949.555 395.050, 948.939 405.500 C 948.324 415.950, 946.918 429.900, 945.815 436.500 C 944.712 443.100, 943.643 449.850, 943.438 451.500 C 942.311 460.587, 941.658 463.654, 939.496 470.011 C 935.854 480.719, 927.461 497.046, 920.879 506.229 C 913.660 516.299, 895.163 535.200, 889 538.805 C 884.800 541.261, 880.245 545.026, 874.246 551 C 868.818 556.404, 867.638 565.382, 870.435 580 C 871.225 584.125, 872.095 588.741, 872.371 590.259 C 872.646 591.776, 873.129 593.831, 873.445 594.825 C 874.707 598.804, 878.916 620.417, 878.507 620.826 C 878.267 621.066, 878.456 621.991, 878.928 622.881 C 879.399 623.772, 880.106 628.325, 880.499 633 C 880.892 637.675, 881.389 641.792, 881.603 642.149 C 882.191 643.127, 882.833 649.116, 883.893 663.500 C 885.025 678.861, 884.679 701.284, 883.138 712.500 C 882.533 716.900, 881.811 725.225, 881.534 731 C 881.257 736.775, 880.992 741.500, 880.947 741.500 C 880.901 741.500, 880.717 745.382, 880.539 750.127 C 880.360 754.872, 879.455 761.364, 878.527 764.554 C 877.600 767.744, 876.018 773.987, 875.011 778.427 C 874.005 782.867, 871.573 792.850, 869.608 800.611 C 867.642 808.371, 865.785 816.471, 865.480 818.611 C 864.141 828.024, 861.493 838.914, 859.337 843.874 C 858.051 846.830, 857 849.868, 857 850.624 C 857 851.381, 856.550 852, 856 852 C 855.450 852, 855 850.611, 855 848.913 C 855 845.657, 849.566 837, 847.522 837 C 844.865 837, 842.747 839.790, 842.530 843.576 C 842.406 845.734, 840.436 851.411, 838.152 856.190 C 835.869 860.970, 834 865.753, 834 866.818 C 834 867.884, 833.377 870.273, 832.616 872.128 C 831.855 873.983, 831.183 878.024, 831.124 881.109 C 831.065 884.194, 830.358 888.293, 829.553 890.219 C 827.722 894.600, 827.085 897.559, 825.077 911 C 824.543 914.575, 823.584 920.650, 822.946 924.500 C 822.307 928.350, 821.402 934.425, 820.935 938 C 820.467 941.575, 819.158 948.775, 818.025 954 C 815.396 966.128, 813.431 980.249, 806.999 1033.250 C 806.448 1037.787, 805.998 1043.948, 805.999 1046.940 C 806 1052.097, 805.440 1056.322, 803.074 1069 C 802.510 1072.025, 801.359 1079.675, 800.518 1086 C 799.676 1092.325, 798.517 1100.200, 797.942 1103.500 C 797.367 1106.800, 796.694 1111.750, 796.448 1114.500 C 795.805 1121.661, 793.778 1128.048, 791.814 1129.100 C 790.323 1129.898, 747.071 1129.752, 744.500 1128.940 C 743.950 1128.767, 741.641 1128.964, 739.369 1129.380 C 734.843 1130.208, 727.715 1129.270, 728.529 1127.954 C 729.236 1126.809, 739.553 1122, 741.301 1122 C 742.084 1122, 745.999 1120.650, 750 1119 C 754.001 1117.350, 758.337 1116, 759.635 1116 C 760.950 1116, 763.803 1114.366, 766.083 1112.306 C 770.583 1108.241, 770.702 1107.046, 767.356 1099.500 C 766.381 1097.300, 765.053 1091.900, 764.406 1087.500 C 763.758 1083.100, 762.254 1076.125, 761.062 1072 C 756.167 1055.046, 754.657 1049.231, 753.792 1044 C 753.293 1040.975, 752.461 1036.250, 751.945 1033.500 C 751.429 1030.750, 750.822 1025.773, 750.596 1022.440 C 750.370 1019.107, 749.441 1014.607, 748.532 1012.440 C 747.001 1008.793, 746.271 1006.032, 742.468 989.500 C 741.709 986.200, 740.834 982.483, 740.523 981.241 C 739.594 977.531, 732.499 973.066, 727.653 973.141 C 724.839 973.185, 721.613 972.205, 717.648 970.103 C 711.058 966.608, 708.790 966.340, 704.545 968.553 C 702.919 969.401, 699.544 970.362, 697.045 970.688 C 694.545 971.014, 691.253 971.910, 689.728 972.678 C 686.330 974.390, 656.751 978.289, 648.500 978.113 C 645.200 978.043, 640.025 977.426, 637 976.742 C 633.728 976.003, 622.993 975.434, 610.500 975.337 C 570.590 975.027, 560.959 974.230, 558.038 970.994 C 556.255 969.020, 545.228 964.741, 543.952 965.529 C 543.479 965.822, 540.933 964.556, 538.295 962.715 C 533.085 959.078, 531.709 958.823, 528.167 960.834 C 525.160 962.542, 521.164 971.153, 521.608 974.967 C 521.796 976.587, 521.512 978.184, 520.975 978.515 C 520.439 978.847, 519.998 980.329, 519.996 981.809 C 519.994 983.289, 519.071 986.011, 517.946 987.857 C 516.820 989.704, 515.728 992.629, 515.520 994.357 C 515.312 996.086, 514.867 998.850, 514.531 1000.500 C 514.196 1002.150, 513.659 1005.975, 513.338 1009 C 513.018 1012.025, 512.376 1014.977, 511.913 1015.560 C 509.052 1019.160, 504.587 1051.009, 506.756 1052.349 C 507.366 1052.726, 507.446 1054.610, 506.965 1057.231 C 506.534 1059.579, 506.052 1066.450, 505.894 1072.500 C 505.737 1078.550, 505.276 1084.744, 504.869 1086.265 C 503.629 1090.910, 502.957 1097.957, 502.590 1110.151 C 502.398 1116.559, 501.982 1122.221, 501.666 1122.732 C 500.205 1125.095, 486.120 1126.636, 472.750 1125.896 C 472.063 1125.858, 466.325 1126.509, 460 1127.343 C 453.675 1128.177, 442.578 1129.041, 435.339 1129.263 L 422.179 1129.667 425.736 1125.412 C 427.692 1123.072, 430.014 1120.930, 430.896 1120.652 C 433.914 1119.702, 454.496 1113.850, 457.521 1113.081 C 459.183 1112.659, 462.333 1111.184, 464.521 1109.803 C 466.710 1108.422, 469.538 1106.963, 470.807 1106.561 C 472.076 1106.158, 473.572 1104.630, 474.131 1103.164 C 475.195 1100.377, 474.725 1098.111, 470.780 1087 C 469.136 1082.370, 467.760 1076.461, 466.589 1069 C 466.459 1068.175, 466 1066.430, 465.569 1065.123 C 465.138 1063.816, 464.691 1060.441, 464.577 1057.623 C 464.462 1054.805, 463.667 1051.150, 462.810 1049.500 C 461.222 1046.445, 458.493 1037.654, 457.637 1032.838 C 457.377 1031.373, 456.644 1029.204, 456.009 1028.017 C 455.373 1026.829, 454.241 1023.527, 453.493 1020.679 C 452.745 1017.830, 451.352 1013.700, 450.397 1011.500 C 449.443 1009.300, 448.560 1005.886, 448.434 1003.912 C 448.309 1001.939, 447.233 998.417, 446.044 996.086 C 444.580 993.217, 444.198 991.466, 444.861 990.667 C 445.519 989.874, 445.006 986.698, 443.299 980.993 C 441.900 976.322, 439.926 969.639, 438.912 966.143 C 437.897 962.647, 436.659 959.272, 436.160 958.643 C 435.419 957.710, 434.374 953.021, 433.453 946.500 C 433.375 945.950, 432.751 944.150, 432.065 942.500 C 431.380 940.850, 429.909 936.575, 428.797 933 C 427.685 929.425, 425.831 924.700, 424.677 922.500 C 421.992 917.379, 419.951 912.123, 419.511 909.201 C 419.321 907.936, 418.453 905.814, 417.583 904.486 C 416.712 903.157, 416 901.622, 416 901.074 C 416 899.043, 404.649 883.436, 401.875 881.652 C 400.294 880.635, 399 879.369, 399 878.837 C 399 878.306, 397.659 876.743, 396.020 875.363 C 393.219 873.007, 391.457 870.449, 389.104 865.321 C 388.554 864.123, 385.551 859.185, 382.431 854.349 C 379.311 849.512, 376.689 845.092, 376.605 844.527 C 376.522 843.962, 375.957 842.150, 375.351 840.500 C 374.744 838.850, 373.742 835.138, 373.124 832.250 C 370.448 819.749, 369.516 816.081, 367.222 809 C 364.362 800.172, 361.702 771.154, 361.677 748.500 C 361.660 734.184, 363.991 710.766, 365.942 705.646 C 366.540 704.076, 367.058 698.676, 367.093 693.646 C 367.127 688.616, 367.574 678.200, 368.086 670.500 C 368.598 662.800, 369.473 648.850, 370.032 639.500 C 370.590 630.150, 371.553 619.575, 372.171 616 L 373.295 609.500 374.513 613.011 C 375.624 616.217, 381.053 626.997, 383.518 630.891 C 386.059 634.905, 396.031 644.073, 400.362 646.376 C 402.990 647.773, 406.764 650.341, 408.747 652.083 C 410.730 653.824, 415.536 656.716, 419.426 658.508 C 426.400 661.722, 437.776 666.133, 438.255 665.809 C 438.390 665.717, 441.425 666.374, 445 667.267 C 457.503 670.393, 465.578 671.899, 475.500 672.955 C 486.247 674.099, 504.291 674.375, 505.255 673.411 C 505.579 673.087, 509.817 672.663, 514.672 672.469 C 519.527 672.274, 530.250 670.902, 538.500 669.420 C 557.632 665.982, 566.786 665.997, 583 669.495 C 594.083 671.886, 596.788 672.118, 606.863 671.548 C 617.821 670.928, 618.427 670.773, 623.825 667.200 C 632.609 661.388, 636.332 654.226, 636.144 643.500 C 636.014 636.032, 628.599 621.502, 622.255 616.282 C 606.272 603.132, 592.311 598.014, 560 593.457 C 553.675 592.564, 542.200 590.511, 534.500 588.894 C 526.800 587.276, 518.959 585.698, 517.076 585.387 C 513.545 584.804, 499.443 579.843, 495.851 577.920 C 491.740 575.720, 485.780 569.499, 483.534 565.063 C 480.390 558.854, 477.916 550.190, 478.553 547.617 C 478.841 546.453, 478.635 542.403, 478.095 538.618 C 477.327 533.235, 477.463 529.859, 478.718 523.118 C 480.052 515.952, 480.129 513.168, 479.177 506.598 C 477.513 495.123, 474.277 491.400, 468.168 493.930 C 463.726 495.771, 457.907 507.115, 456.592 516.500 C 456.361 518.150, 455.425 524.225, 454.512 530 C 451.967 546.094, 454.188 560.292, 461.707 576 C 467.406 587.904, 481.054 599.748, 491.116 601.520 C 492.885 601.832, 494.714 602.324, 495.182 602.613 C 495.650 602.902, 497.263 603.354, 498.766 603.616 C 500.270 603.879, 503.128 604.524, 505.117 605.050 C 507.107 605.576, 516.668 606.884, 526.363 607.957 C 571.243 612.925, 595.694 620.068, 607.596 631.688 C 613.968 637.909, 614.793 645.167, 609.453 648.025 C 607.234 649.213, 606.325 649.096, 601.719 647.031 C 598.849 645.744, 592.900 643.436, 588.500 641.902 C 581.422 639.434, 579.060 639.110, 568 639.087 C 561.125 639.073, 552.125 639.516, 548 640.070 C 536.916 641.560, 510.868 644.849, 500 646.129 C 492.725 646.987, 487.807 646.954, 479 645.991 C 472.675 645.298, 466.150 644.617, 464.500 644.475 C 462.850 644.334, 460.825 643.985, 460 643.700 C 459.175 643.415, 456.475 642.676, 454 642.058 C 446.924 640.292, 446.744 640.240, 442.114 638.572 C 432.287 635.033, 419.562 627.386, 412.426 620.729 C 403.297 612.214, 399.229 606.093, 393.951 592.932 C 387.547 576.959, 387.018 576.094, 383.234 575.384 C 379.518 574.687, 376 576.978, 376 580.096 C 376 581.078, 375.543 582.165, 374.984 582.510 C 374.425 582.856, 374.207 583.526, 374.500 584 C 374.793 584.474, 374.615 585.120, 374.105 585.435 C 373.595 585.751, 373.310 587.221, 373.473 588.703 C 373.636 590.185, 373.280 592.180, 372.682 593.137 C 371.881 594.420, 371.938 595.516, 372.898 597.309 C 373.988 599.346, 373.954 600.208, 372.686 602.621 L 371.172 605.500 370.449 602.636 C 369.628 599.382, 370.413 588.069, 372.023 579.958 C 372.618 576.956, 373.770 571.125, 374.582 567 C 376.457 557.470, 380.535 544.026, 383.613 537.228 C 384.926 534.328, 386 531.282, 386 530.458 C 386 529.634, 387.125 527.178, 388.500 525 C 389.875 522.822, 391 520.722, 391 520.334 C 391 519.946, 391.926 518.643, 393.058 517.438 C 394.424 515.984, 395.439 512.938, 396.078 508.374 C 396.608 504.593, 398.157 499.137, 399.521 496.250 C 400.884 493.363, 403.165 488.413, 404.588 485.250 C 406.012 482.087, 407.596 478.825, 408.108 478 C 408.621 477.175, 409.675 475.150, 410.451 473.500 C 411.226 471.850, 413.017 468.950, 414.431 467.056 C 415.844 465.161, 417 463.027, 417 462.313 C 417 459.963, 426.192 442.563, 429.051 439.500 C 432.964 435.309, 440.591 424.324, 443.110 419.250 C 444.271 416.913, 445.621 415, 446.110 415 C 446.600 415, 447.010 414.438, 447.022 413.750 C 447.044 412.519, 449.885 406.425, 452.276 402.482 C 454.410 398.962, 469.653 385, 471.361 385 C 472.263 385, 473 384.636, 473 384.190 C 473 383.745, 475.025 381.008, 477.500 378.109 C 483.459 371.128, 483.533 368.123, 477.850 364.006 C 473.392 360.777, 468.527 360.103, 464.684 362.182 C 463.483 362.832, 461.467 363.478, 460.204 363.618 C 458.941 363.759, 456.338 365.252, 454.419 366.937 C 452.500 368.622, 450.096 370, 449.076 370 C 447.748 370, 447.036 370.996, 446.562 373.519 C 446.128 375.832, 444.207 378.787, 440.951 382.147 C 438.228 384.958, 436 387.799, 436 388.462 C 436 389.125, 434.522 391.204, 432.715 393.083 C 427.249 398.769, 422.564 405.107, 417.995 413 C 415.607 417.125, 412.431 421.850, 410.937 423.500 C 409.444 425.150, 404.766 433.250, 400.542 441.500 C 396.318 449.750, 392.252 457.625, 391.507 459 C 390.762 460.375, 387.830 466.225, 384.993 472 C 382.155 477.775, 379.250 483.625, 378.537 485 C 374.207 493.350, 366 511.084, 366 512.092 C 366 512.749, 364.158 518.682, 361.906 525.274 C 357.367 538.566, 350.600 563.032, 349.536 570 C 349.158 572.475, 348.007 577.875, 346.977 582 C 345.292 588.749, 342.008 609.909, 339.062 633 C 338.465 637.675, 337.308 649.375, 336.490 659 C 334.996 676.583, 334.442 681.158, 331.600 699.382 C 327.544 725.393, 329.141 777.874, 334.572 797 C 335.899 801.675, 337.244 807.750, 337.562 810.500 C 337.879 813.250, 339.170 818.650, 340.431 822.500 C 341.691 826.350, 343.505 831.975, 344.462 835 C 345.420 838.025, 346.832 841.918, 347.601 843.651 C 348.371 845.384, 349 847.484, 349 848.318 C 349 849.152, 350.575 852.803, 352.500 856.431 C 354.425 860.060, 356 863.508, 356 864.094 C 356 864.680, 359.395 869.162, 363.544 874.052 C 367.694 878.943, 372.547 885.545, 374.330 888.722 C 376.869 893.247, 378.158 894.568, 380.273 894.815 C 381.982 895.015, 384.264 896.667, 386.487 899.315 C 393.381 907.526, 398 914.480, 398 916.649 C 398 917.860, 399.728 922.425, 401.840 926.793 C 405.553 934.470, 405.722 935.287, 406.930 951.365 C 407.617 960.512, 408.849 970.585, 409.666 973.748 C 410.484 976.912, 411.611 981.750, 412.170 984.500 C 413.696 992.002, 416.995 1004.799, 419.003 1011 C 419.983 1014.025, 421.764 1021.450, 422.962 1027.500 C 424.160 1033.550, 426.210 1043.450, 427.517 1049.500 C 428.824 1055.550, 430.391 1063.044, 430.998 1066.153 C 431.605 1069.262, 432.979 1074.206, 434.051 1077.139 C 435.123 1080.072, 436 1083.385, 436 1084.501 C 436 1085.617, 436.900 1088.209, 438 1090.261 C 441.615 1097.006, 440.491 1099.099, 432.482 1100.538 C 430.292 1100.931, 426.025 1102.365, 423 1103.724 C 419.975 1105.084, 416.082 1106.827, 414.349 1107.598 C 412.616 1108.369, 410.676 1109, 410.039 1109 C 407.915 1109, 398.179 1119.088, 396.161 1123.380 C 395.067 1125.708, 393.442 1128.218, 392.550 1128.959 C 390.013 1131.064, 377.754 1131.336, 363.127 1129.611 C 355.771 1128.744, 349.362 1128.276, 348.884 1128.571 C 348.406 1128.867, 335.974 1129.530, 321.258 1130.046 C 281.695 1131.431, 273.010 1132.669, 269.009 1137.489 C 267.864 1138.869, 267.952 1139.396, 269.601 1141.046 C 273.636 1145.080, 300.172 1147.323, 319.420 1145.257 C 328.930 1144.236, 336.288 1144.194, 354 1145.059 C 366.375 1145.663, 379.425 1146.145, 383 1146.130 C 386.575 1146.114, 415.375 1146.046, 447 1145.977 C 495.355 1145.872, 505.454 1145.607, 510.500 1144.305 C 515.308 1143.065, 519.975 1142.875, 534 1143.351 C 543.625 1143.678, 554.156 1144.443, 557.401 1145.051 C 562.005 1145.914, 566.403 1145.821, 577.401 1144.630 C 604.444 1141.700, 620.968 1140.741, 633.246 1141.391 C 673.150 1143.501, 684.945 1144.086, 707.500 1145.074 C 721.250 1145.677, 734.750 1146.601, 737.500 1147.129 C 740.250 1147.657, 758.025 1148.007, 777 1147.908 C 795.975 1147.809, 814.313 1147.776, 817.750 1147.835 C 826.410 1147.984, 838.936 1147.973, 856 1147.800 C 863.975 1147.720, 878.600 1147.811, 888.500 1148.004 C 901.415 1148.256, 907.144 1148.009, 908.778 1147.128 C 910.251 1146.334, 914.844 1145.970, 921.778 1146.100 C 947.707 1146.583, 1026.741 1145.536, 1039 1144.547 C 1044.225 1144.125, 1049.993 1143.165, 1051.819 1142.413 C 1054.602 1141.266, 1055.086 1140.598, 1054.819 1138.280 C 1054.604 1136.418, 1053.592 1135.082, 1051.721 1134.189 C 1047.524 1132.186, 1028.506 1131.050, 998.750 1131.024 L 972 1131 972 1128.048 C 972 1125.649, 972.889 1124.489, 976.750 1121.851 C 995.080 1109.327, 1001.743 1091.742, 997.991 1065.799 C 996.692 1056.818, 989.829 1036.789, 983.856 1024.548 C 981.185 1019.074, 979 1014.167, 979 1013.644 C 979 1013.121, 977.922 1010.400, 976.604 1007.596 C 975.286 1004.793, 973.485 1000.925, 972.603 999 C 971.720 997.075, 969.584 993.250, 967.856 990.500 C 966.128 987.750, 961.328 979.425, 957.190 972 C 953.051 964.575, 948.866 957.459, 947.890 956.188 C 946.913 954.916, 945.581 952.216, 944.931 950.188 C 944.280 948.159, 943.166 945.825, 942.456 945 C 941.745 944.175, 939.741 939.909, 938.001 935.521 C 936.262 931.133, 931.500 920.654, 927.419 912.236 C 923.339 903.818, 920 896.676, 920 896.366 C 920 896.055, 918.426 893.252, 916.503 890.136 C 914.580 887.020, 911.630 880.877, 909.949 876.485 C 908.267 872.093, 904.328 863.350, 901.196 857.056 L 895.500 845.611 895.616 836.556 C 895.728 827.774, 896.310 824.854, 902.903 800 C 903.998 795.875, 905.584 787.550, 906.429 781.500 C 907.274 775.450, 908.623 766.225, 909.425 761 C 915.030 724.515, 915.158 693.382, 909.849 658 C 908.735 650.575, 907.211 639.325, 906.463 633 C 904.884 619.659, 903.612 612.672, 901.366 605 C 899.850 599.825, 896.489 578.801, 895.341 567.313 L 894.822 562.127 901.161 557.563 C 920.411 543.703, 935.824 528.337, 946.370 512.494 C 954.875 499.718, 956.090 497.492, 959.573 488.309 C 964.076 476.439, 966.965 466.746, 968.459 458.500 C 969.257 454.100, 970.619 446.675, 971.487 442 C 975.008 423.040, 976.086 401.195, 975.864 353.302 L 975.649 307.104 979.867 302.302 C 982.187 299.661, 985.602 295.925, 987.457 294 C 992.502 288.764, 998 280.115, 998 277.415 C 998 276.104, 996.693 273.568, 995.095 271.780 C 992.646 269.039, 991.534 268.546, 988.011 268.638 C 985.459 268.705, 982.712 269.576, 980.957 270.874 C 977.642 273.325, 975.169 273.603, 974.405 271.613 C 973.722 269.833, 976.249 257.437, 980.057 243.884 C 982.946 233.603, 983.014 232.001, 980.766 227.298 C 979.405 224.451, 974.707 222.781, 971.496 224.002 C 967.506 225.518, 959.222 238.666, 956.532 247.750 C 956.063 249.330, 955.097 250, 953.283 250 L 950.701 250 951.340 240.990 C 951.692 236.034, 952.262 230.216, 952.606 228.061 C 953.140 224.721, 952.853 223.762, 950.662 221.571 C 947.545 218.454, 944.167 218.294, 940.607 221.095 M 605.013 227.606 C 597.882 229.522, 595.153 231.391, 593.416 235.546 C 591.539 240.038, 591.657 242.648, 593.967 247.736 C 595.806 251.787, 599.338 254.276, 606.278 256.411 C 607.889 256.907, 608.029 258.280, 607.778 271.122 C 607.432 288.748, 607.353 288.838, 596.876 283.590 C 590.573 280.433, 589.053 280.029, 586.757 280.902 C 583.221 282.247, 582.299 286.003, 584.412 290.455 C 586.960 295.825, 597.117 302, 603.401 302 C 605.316 302, 607.101 302.354, 607.369 302.788 C 607.892 303.634, 622.933 303.487, 626.896 302.597 C 631.375 301.591, 636.493 299.701, 639 298.128 C 643.745 295.149, 649 290.662, 649.006 289.583 C 649.010 288.987, 649.682 287.216, 650.501 285.646 C 651.838 283.083, 651.819 282.502, 650.321 279.967 C 647.601 275.362, 642 274.668, 638.055 278.447 C 634.871 281.496, 627.353 285.544, 623.164 286.464 L 620 287.159 620 271.592 L 620 256.025 623.883 253.574 C 626.018 252.226, 629.451 249.066, 631.511 246.552 C 634.397 243.030, 635.281 241.042, 635.364 237.895 C 635.453 234.496, 634.937 233.333, 632.289 230.967 C 626.660 225.937, 616.077 224.633, 605.013 227.606 M 1022.719 236.137 C 1020.551 237.351, 1020.518 241.167, 1022.639 245.268 C 1024.654 249.166, 1027.669 261.285, 1028.508 268.862 C 1029.601 278.732, 1032.134 281.145, 1037.139 277.085 C 1039.323 275.314, 1039.488 274.507, 1039.346 266.335 C 1039.175 256.559, 1037.645 251.239, 1032.860 243.781 C 1028.978 237.732, 1025.097 234.807, 1022.719 236.137 M 865.503 298.991 C 865.155 300.086, 865.160 301.450, 865.514 302.023 C 866.591 303.765, 874.893 307.255, 876.496 306.640 C 879.338 305.549, 878.145 302.117, 874.020 299.513 C 869.224 296.485, 866.354 296.309, 865.503 298.991 M 784.072 328.928 C 781.802 331.198, 780.571 338.084, 781.347 344.173 C 781.650 346.553, 781.921 349.758, 781.949 351.295 C 782.021 355.234, 786.081 359.008, 790.205 358.968 C 795.480 358.917, 797.007 357.091, 796.956 350.890 C 796.874 340.865, 795.298 330.987, 793.455 328.951 C 791.199 326.457, 786.554 326.446, 784.072 328.928 M 616.564 341.525 C 615.277 342.915, 614.033 345.052, 613.800 346.275 C 613.217 349.345, 615.540 368.863, 616.902 372.334 C 617.514 373.893, 617.797 375.520, 617.531 375.950 C 617.265 376.381, 617.922 377.524, 618.990 378.491 C 621.120 380.419, 625.570 380.830, 627.154 379.246 C 629.463 376.937, 630.056 369.609, 628.946 357.122 C 627.930 345.699, 627.577 344.239, 625.225 341.750 C 621.994 338.332, 619.582 338.269, 616.564 341.525 M 452.585 341.533 C 450.981 342.369, 448.506 343.206, 447.085 343.392 C 445.663 343.579, 443.233 344.242, 441.685 344.866 C 440.137 345.490, 438.512 346, 438.076 346 C 437.639 346, 435.193 347.838, 432.641 350.085 C 428.786 353.478, 428 354.761, 428 357.662 C 428 361.525, 432.384 366.919, 435.673 367.101 C 441.047 367.399, 444.688 366.542, 449.101 363.941 C 451.795 362.352, 454 361.270, 454 361.536 C 454 361.802, 456.363 360.770, 459.250 359.242 C 462.137 357.714, 466.634 355.594, 469.243 354.530 C 473.199 352.917, 474.084 352.067, 474.584 349.403 C 474.914 347.647, 474.718 345.342, 474.151 344.281 C 472.026 340.312, 458.284 338.561, 452.585 341.533 M 728.174 343.750 C 726.244 347.515, 726.075 351.118, 727.410 360.094 C 728.590 368.034, 729.194 369.770, 731.454 371.714 C 734.506 374.340, 738.192 374.678, 740 372.499 C 741.959 370.139, 742.343 362.964, 741.012 353.588 C 740.048 346.793, 739.340 344.651, 737.672 343.483 C 734.715 341.412, 729.294 341.564, 728.174 343.750 M 505.635 349.476 C 502.376 351.944, 500.973 356.072, 500.334 365.071 C 499.722 373.696, 499.755 373.868, 502.468 376.383 C 506.113 379.761, 508.760 380.509, 510.822 378.742 C 511.745 377.951, 513.231 377.046, 514.125 376.732 C 516.529 375.884, 517.303 368.321, 515.939 358.996 C 515.031 352.784, 514.282 350.610, 512.659 349.473 C 510.051 347.647, 508.049 347.648, 505.635 349.476 M 538.535 353.964 C 535.810 356.808, 535.696 357.323, 535.696 366.737 C 535.696 377.135, 536.950 382.611, 540.452 387.500 C 541.634 389.150, 543.193 391.692, 543.915 393.148 C 545.842 397.032, 553.490 398.367, 556.511 395.346 C 558.587 393.270, 558.046 390.046, 553.348 376.500 C 551.149 370.157, 549.854 364.515, 549.807 361.071 C 549.749 356.787, 549.245 355.154, 547.412 353.321 C 544.316 350.225, 541.953 350.396, 538.535 353.964 M 650.124 376.626 C 647.824 378.237, 647.808 378.393, 648.307 394.018 C 648.741 407.597, 649.123 410.458, 651.060 414.642 C 652.297 417.314, 653.228 420.029, 653.128 420.675 C 652.862 422.397, 657.038 425, 660.068 425 C 665.259 425, 665.877 422.904, 664.937 408.500 C 664.471 401.350, 663.614 393.925, 663.034 392 C 662.453 390.075, 661.758 386.784, 661.490 384.687 C 660.368 375.913, 655.783 372.662, 650.124 376.626 M 784.423 383.750 C 783.774 384.824, 783.674 386.852, 784.165 389 C 784.605 390.925, 785.397 395.367, 785.924 398.871 C 786.452 402.374, 788.068 407.662, 789.515 410.621 C 791.805 415.301, 792.527 416, 795.074 416 C 800.766 416, 803.991 409.288, 800.615 404.467 C 799.853 403.379, 798.992 400.916, 798.701 398.994 C 797.763 392.783, 794.874 386.046, 792.271 383.998 C 789.137 381.534, 785.826 381.429, 784.423 383.750 M 744.778 392.104 C 743.042 393.076, 741.029 398.194, 741.083 401.500 C 741.100 402.600, 740.843 411.721, 740.510 421.768 C 740.177 431.816, 740.250 440.591, 740.673 441.268 C 741.096 441.946, 741.571 443.400, 741.729 444.500 C 742.127 447.268, 745.698 450.006, 748.861 449.968 C 756.294 449.879, 758.440 442.061, 756.952 420.500 C 756.383 412.250, 755.486 404.195, 754.959 402.601 C 754.431 401.006, 754 398.713, 754 397.506 C 754 393.486, 748.288 390.140, 744.778 392.104 M 925.365 396.250 C 923.609 398.242, 920.802 403.648, 920.822 405 C 920.827 405.275, 920.399 406.019, 919.873 406.653 C 917.102 409.992, 915.017 425.110, 916.999 427.498 C 918.707 429.557, 924.345 429.405, 926.180 427.250 C 928.301 424.759, 931.989 416.408, 932.380 413.209 C 932.562 411.719, 933.266 408.025, 933.943 405 C 935.569 397.740, 934.296 394, 930.199 394 C 928.497 394, 926.549 394.907, 925.365 396.250 M 698.174 396.291 C 696.281 398.572, 695.497 404.250, 695.624 414.763 C 695.830 431.889, 699.024 438.613, 704.875 434.244 L 707.500 432.284 707.187 415.392 C 707.015 406.101, 706.647 397.712, 706.369 396.750 C 705.762 394.641, 699.819 394.308, 698.174 396.291 M 495.898 400.102 C 492.936 403.064, 488.795 412.523, 488.328 417.394 C 488.010 420.719, 488.419 422.036, 490.480 424.321 C 491.880 425.872, 493.795 426.993, 494.736 426.812 C 496.907 426.394, 500.381 420.274, 502.979 412.291 C 505.586 404.281, 505.542 401.493, 502.777 399.557 C 499.815 397.481, 498.407 397.593, 495.898 400.102 M 569.229 425.646 C 567.561 426.348, 564.761 431.804, 565.475 432.960 C 565.782 433.456, 565.598 434.130, 565.068 434.458 C 564.493 434.813, 564.312 439.195, 564.619 445.277 C 564.903 450.900, 565.098 456.625, 565.053 458 C 564.937 461.560, 567.028 471.268, 568.231 472.750 C 569.912 474.822, 576.434 474.283, 578.595 471.894 C 580.236 470.079, 580.512 468.104, 580.588 457.644 C 580.691 443.595, 579.575 431.978, 577.757 428.165 C 576.843 426.249, 575.645 425.445, 573.493 425.306 C 571.847 425.199, 569.928 425.352, 569.229 425.646 M 453.800 429.250 C 452.245 430.478, 448.152 436.591, 444.930 442.500 C 444.030 444.150, 443.055 447.658, 442.764 450.296 C 442.176 455.632, 443.317 457.539, 447.764 458.656 C 449.961 459.207, 450.928 458.691, 453.695 455.491 C 455.513 453.388, 457 450.602, 457 449.300 C 457 447.998, 458.190 444.586, 459.644 441.717 C 461.099 438.848, 462.251 435.164, 462.205 433.531 C 462.073 428.854, 457.348 426.447, 453.800 429.250 M 826.216 433.584 C 824.741 434.662, 824.483 436.884, 824.378 449.380 C 824.311 457.379, 824.536 466.518, 824.878 469.689 C 825.432 474.823, 825.800 475.561, 828.235 476.416 C 830.526 477.220, 831.397 476.979, 833.592 474.938 C 837.272 471.514, 838.190 468.658, 838.550 459.500 C 838.825 452.517, 838.460 448.929, 836.387 438.217 C 835.493 433.598, 829.765 430.989, 826.216 433.584 M 601.745 452.304 C 599.009 454.501, 598.015 459.980, 598.392 470.791 C 598.697 479.559, 599.067 481.576, 600.571 482.676 C 603.139 484.553, 605.318 484.324, 608.469 481.846 C 611.088 479.785, 611.183 479.403, 610.635 473.096 C 610.048 466.345, 609.244 460.152, 608.463 456.373 C 607.823 453.276, 603.668 450.760, 601.745 452.304 M 882.250 452.944 C 881.013 453.976, 880 455.241, 880 455.755 C 880 456.269, 879.099 457.505, 877.999 458.501 C 875.584 460.686, 869.151 471.986, 867.962 476.131 C 867.283 478.499, 867.506 479.506, 869.054 481.054 C 873.196 485.196, 878.698 482.790, 883.854 474.582 C 887.840 468.236, 891 460.213, 891 456.437 C 891 455.195, 889.922 453.524, 888.535 452.615 C 885.464 450.603, 885.029 450.626, 882.250 452.944 M 509.891 455.593 C 504.491 458.451, 502.002 471.540, 503.932 486.934 C 505.357 498.296, 509.287 504, 515.691 504 C 519.803 504, 523.412 500.727, 522.691 497.652 C 519.611 484.504, 519.033 480.126, 519.017 469.823 C 519 458.408, 518.941 458.099, 516.365 456.073 C 513.375 453.721, 513.422 453.724, 509.891 455.593 M 649.215 458.250 C 646.647 461.366, 645.106 478.518, 646.956 483.385 C 647.482 484.768, 648.122 487.610, 648.378 489.700 C 649.047 495.167, 650.613 498.722, 652.886 499.939 C 655.617 501.401, 660.531 501.270, 661.833 499.701 C 662.974 498.326, 662.748 486.533, 661.384 476.315 C 660.957 473.117, 660.725 470.077, 660.867 469.560 C 661.310 467.954, 657.839 459.566, 656.187 458.250 C 655.324 457.563, 653.634 457, 652.431 457 C 651.229 457, 649.781 457.563, 649.215 458.250 M 784.863 459.894 C 783.087 461.290, 782.498 462.668, 782.617 465.144 C 782.706 466.990, 783.113 475.025, 783.522 483 C 783.930 490.975, 784.190 498.968, 784.100 500.763 C 783.966 503.429, 784.410 504.205, 786.533 505.013 C 790.804 506.636, 792.748 506.163, 795.044 502.939 C 796.877 500.363, 797.305 498.075, 797.737 488.513 C 798.395 473.983, 796.351 464.315, 791.815 460.498 C 788.254 457.501, 787.938 457.474, 784.863 459.894 M 424.337 473.250 C 421.535 476.137, 419.234 479.175, 419.224 480 C 419.214 480.825, 418.260 484.158, 417.103 487.407 C 414.236 495.458, 414.336 499.519, 417.451 501.560 C 422.836 505.088, 427.467 500.204, 432.364 485.832 C 434.364 479.964, 436.260 474.487, 436.577 473.659 C 437.284 471.818, 433.666 468, 431.216 468 C 430.235 468, 427.139 470.363, 424.337 473.250 M 723.400 471.765 C 720.889 473.442, 719.898 477.678, 718.961 490.732 C 718.418 498.304, 717.479 506.663, 716.873 509.307 C 715.895 513.582, 715.979 514.276, 717.637 515.584 C 719.932 517.395, 726.615 516.814, 728.817 514.612 C 729.665 513.764, 731.171 510.467, 732.164 507.285 C 734.252 500.600, 734.676 483.363, 732.887 477.899 C 731.107 472.460, 726.663 469.586, 723.400 471.765 M 911.198 474.857 C 909.849 475.712, 908.426 477.675, 896.250 495.477 C 888.535 506.757, 887.248 510.992, 890.934 512.965 C 895.426 515.369, 899.614 513.656, 905.512 507 C 909.908 502.039, 910.757 500.688, 915.845 490.557 C 919.425 483.428, 920.567 477.457, 918.772 475.250 C 917.624 473.839, 913.167 473.607, 911.198 474.857 M 752.662 495.250 C 749.567 498.093, 748.262 503.634, 746.895 519.735 C 745.657 534.303, 746.299 537.535, 750.645 538.626 C 758.121 540.502, 761.952 532.763, 762.588 514.500 C 763.027 501.888, 762.128 496.326, 759.313 494.250 C 756.899 492.470, 755.452 492.687, 752.662 495.250 M 837.189 515.700 C 834.495 517.949, 833.886 522.545, 833.579 542.923 C 833.371 556.712, 833.540 558.540, 835.173 560.173 C 837.850 562.850, 842.448 562.517, 844.841 559.475 C 849.346 553.748, 850.234 526.393, 846.187 518 C 844.198 513.874, 840.507 512.930, 837.189 515.700 M 417.098 527.224 C 415.320 528.168, 414.104 530.450, 412.421 536 C 410.555 542.155, 410.198 545.383, 410.429 554 C 410.671 562.985, 411.086 565.239, 413.309 569.625 C 416.739 576.391, 420.195 577.805, 424 574 C 425.460 572.540, 426 570.667, 426 567.059 C 426 564.341, 425.543 561.835, 424.984 561.490 C 424.425 561.144, 424.273 560.367, 424.647 559.761 C 425.021 559.156, 425.424 554.125, 425.541 548.581 C 425.659 543.036, 426.048 536.475, 426.406 534 C 426.764 531.525, 426.684 528.944, 426.228 528.265 C 424.967 526.383, 419.792 525.793, 417.098 527.224 M 565.198 532.122 C 562.179 533.239, 561.087 536.592, 559.989 548.116 C 558.729 561.338, 560.580 566, 567.092 566 C 569.401 566, 572.353 562.797, 572.880 559.720 C 573.749 554.639, 573.256 536.347, 572.197 534.368 C 570.840 531.833, 568.238 530.998, 565.198 532.122 M 787.561 533.901 C 786.484 535.644, 785.243 552.551, 785.868 556.971 C 786.351 560.387, 787.090 561.741, 789 562.707 C 792.591 564.522, 794.645 564.298, 796.933 561.841 C 798.741 559.901, 798.922 558.499, 798.722 547.993 C 798.567 539.833, 798.086 535.805, 797.128 534.652 C 795.657 532.882, 788.536 532.323, 787.561 533.901 M 691.200 561.855 C 688.884 563.324, 686.923 572.236, 686.311 584.076 C 685.575 598.306, 686.269 602.710, 689.480 604.173 C 693.200 605.868, 696.935 604.400, 698.512 600.625 C 701.929 592.448, 702.241 566.405, 698.970 562.464 C 697.651 560.875, 693.285 560.532, 691.200 561.855 M 851.576 593.185 C 849.695 597.714, 848.074 612.505, 848.858 617.987 C 849.370 621.567, 850.052 622.739, 852.231 623.783 C 858.590 626.829, 862.107 620.622, 862.256 606.093 C 862.378 594.239, 861.015 590.647, 856.219 590.185 C 853.341 589.907, 852.788 590.264, 851.576 593.185 M 756.278 595.250 C 754.538 597.498, 754.044 599.919, 752.403 614.240 C 750.685 629.229, 750.916 636.698, 753.141 638.108 C 755.984 639.909, 759.792 639.035, 762.351 635.995 C 765.568 632.171, 766.450 626.754, 766.475 610.660 C 766.494 598.364, 766.395 597.739, 764.137 595.910 C 761.441 593.727, 757.699 593.413, 756.278 595.250 M 439.816 602.344 C 436.469 604.888, 436.562 608.504, 440.094 613.174 C 445.054 619.732, 455.304 628.013, 459.256 628.654 C 467.877 630.053, 468.292 619.106, 459.830 613.506 C 457.611 612.038, 454.424 609.275, 452.749 607.367 C 449.652 603.839, 445.152 600.974, 442.800 601.032 C 442.085 601.049, 440.742 601.640, 439.816 602.344 M 802.400 634.765 C 800.026 636.350, 799.070 640.143, 798.034 652.080 C 797.442 658.911, 796.686 666.807, 796.355 669.627 C 795.842 673.998, 796.067 675.067, 797.877 676.877 C 802.464 681.464, 808.965 678.008, 811.426 669.673 C 812.391 666.401, 812.774 660.925, 812.612 652.673 C 812.326 638.042, 810.795 634.031, 805.500 634.031 C 804.400 634.031, 803.005 634.361, 802.400 634.765 M 848.726 646.417 C 846.716 648.427, 845.185 657.275, 843.998 673.736 C 843.434 681.565, 842.303 691.465, 841.486 695.736 C 840.669 700.006, 840 705.143, 840 707.152 C 840 710.350, 840.392 710.941, 843.149 711.902 C 848.245 713.679, 849.618 713.241, 853.780 708.513 C 859.925 701.532, 861.356 694.686, 861.416 672 C 861.450 659.251, 859.960 649.719, 857.512 647.014 C 855.399 644.679, 850.778 644.365, 848.726 646.417 M 386 659.649 C 381.031 661.030, 378.523 680.846, 380.578 702.500 C 381.187 708.921, 383.513 716.519, 385.646 719.053 C 387.348 721.075, 394.619 720.810, 396.783 718.646 C 398.206 717.223, 398.235 716.442, 397.036 711.770 C 396.168 708.389, 395.603 699.330, 395.459 686.500 C 395.335 675.500, 394.974 665.442, 394.655 664.148 C 393.519 659.538, 391.038 658.249, 386 659.649 M 703.224 674.442 C 701.857 676.181, 701.248 678.700, 701.114 683.180 C 701.010 686.642, 700.597 689.803, 700.196 690.204 C 699.796 690.604, 699.807 696.010, 700.221 702.216 C 700.764 710.349, 700.639 714.151, 699.774 715.833 C 698.775 717.773, 698.904 718.780, 700.537 721.813 C 703.171 726.706, 707.068 728.086, 710.667 725.400 C 715.870 721.515, 717.719 709.888, 715.992 691.921 C 714.632 677.780, 713.554 674.161, 710.337 672.938 C 706.585 671.512, 705.319 671.780, 703.224 674.442 M 533.823 701.138 C 531.380 702.032, 531.095 702.702, 530.558 708.809 C 530.234 712.489, 529.564 719.775, 529.069 725 C 528.574 730.225, 528.393 736.075, 528.668 738 C 529.311 742.498, 531.780 748.151, 533.802 749.750 C 536.290 751.718, 541.759 751.318, 542.957 749.081 C 544.567 746.073, 545.802 727.426, 545.048 717.500 C 544.383 708.730, 543.340 705.331, 540.217 701.750 C 538.515 699.799, 537.695 699.720, 533.823 701.138 M 451.168 709.750 C 450.102 711.818, 448.493 738.052, 448.516 753 C 448.525 759.259, 449.084 765.082, 449.898 767.416 C 451.724 772.649, 458.562 780, 461.604 780 C 464.865 780, 467.368 775.950, 466.513 772.057 C 466.147 770.394, 465.892 768.796, 465.944 768.506 C 465.997 768.216, 465.410 766.746, 464.640 765.240 C 463.609 763.223, 463.107 756.428, 462.740 739.500 C 462.225 715.801, 461.449 710.846, 457.961 708.979 C 455.149 707.474, 452.167 707.813, 451.168 709.750 M 646.783 716.062 C 645.839 716.612, 644.106 719.186, 642.932 721.781 C 641.025 726, 640.860 727.667, 641.378 737.500 C 642.018 749.640, 642.354 751.924, 643.930 754.869 C 644.519 755.969, 645 757.788, 645 758.911 C 645 761.200, 648.980 764.222, 652.488 764.596 C 655.801 764.949, 659.001 761.563, 658.994 757.711 C 658.991 755.945, 658.520 751.800, 657.949 748.500 C 657.377 745.200, 656.689 737.119, 656.421 730.542 C 656.049 721.426, 655.547 718.157, 654.311 716.792 C 652.525 714.817, 649.432 714.517, 646.783 716.062 M 774.037 728.769 C 771.541 730.790, 769.552 738.918, 768.473 751.500 C 767.582 761.883, 769.013 767.714, 772.676 768.634 C 777.055 769.732, 780.344 767.894, 781.906 763.477 C 783.818 758.067, 784.156 734.481, 782.373 730.871 C 780.340 726.756, 777.429 726.022, 774.037 728.769 M 840.434 746.750 C 840.006 747.712, 839.529 749.400, 839.376 750.500 C 839.222 751.600, 838.609 754.750, 838.014 757.500 C 837.419 760.250, 836.765 765.200, 836.562 768.500 C 836.359 771.800, 835.961 775.175, 835.677 776 C 835.394 776.825, 834.913 780.200, 834.609 783.500 C 834.306 786.800, 833.864 790.625, 833.627 792 C 833.390 793.375, 832.650 798.100, 831.983 802.500 C 831.135 808.083, 829.897 811.886, 827.884 815.088 C 824.400 820.630, 824.185 824.316, 827.223 826.443 C 830.420 828.683, 831.912 828.382, 837.337 824.402 C 842.032 820.958, 846.166 814.122, 847.391 807.777 C 847.632 806.524, 848.807 801.225, 850.002 796 C 854.006 778.489, 852.863 750.737, 847.975 746.778 C 845.171 744.508, 841.439 744.494, 840.434 746.750 M 388.278 765.250 C 387.746 765.938, 386.713 768.707, 385.982 771.404 C 384.310 777.576, 384.280 798.937, 385.941 799.964 C 386.579 800.358, 387.157 801.764, 387.227 803.090 C 387.297 804.415, 387.672 805.950, 388.061 806.500 C 388.451 807.050, 389.083 808.966, 389.466 810.758 C 390.212 814.250, 397.366 827.229, 399.537 829.030 C 401.296 830.491, 407.451 829.264, 409.450 827.055 C 410.899 825.454, 410.821 824.850, 408.515 819.814 C 405.232 812.642, 401.311 795.197, 398.910 777.081 C 398.043 770.537, 397.103 767.103, 395.831 765.831 C 393.726 763.726, 389.696 763.417, 388.278 765.250 M 808.472 777.397 C 805.981 779.219, 800.578 795.633, 799.422 804.890 C 799.174 806.876, 798.015 809.804, 796.846 811.398 C 793.878 815.446, 793.197 822.455, 795.522 825.025 C 796.505 826.111, 798.381 827, 799.690 827 C 802.345 827, 807 824.312, 807 822.779 C 807 822.234, 808.293 820.148, 809.874 818.144 C 811.454 816.140, 813.810 812.025, 815.110 809 C 817.158 804.231, 817.474 801.884, 817.486 791.339 C 817.494 784.651, 817.224 778.900, 816.886 778.559 C 815.298 776.955, 810.064 776.233, 808.472 777.397 M 742.849 800.670 C 741.941 800.911, 740.732 802.322, 740.163 803.804 C 736.474 813.411, 733.590 841.596, 735.998 844.498 C 736.684 845.324, 736.895 846, 736.467 846 C 736.040 846, 736.505 846.900, 737.500 848 C 739.928 850.683, 744.530 850.561, 747.352 847.739 C 750.322 844.769, 752.369 829.757, 751.863 814.660 C 751.529 804.698, 751.309 803.665, 749.139 801.910 C 746.783 800.004, 745.966 799.843, 742.849 800.670 M 552.500 804.868 C 548.493 805.712, 546.003 810.746, 546.004 818 C 546.007 827.340, 548.036 840.648, 550.066 844.629 C 551.130 846.716, 552 848.982, 552 849.666 C 552 851.188, 558.090 852.445, 561.416 851.611 C 563.940 850.977, 566.495 845.652, 565.595 842.903 C 565.134 841.492, 564.506 835.463, 563.473 822.500 C 562.583 811.340, 562.101 809.401, 559.525 806.622 C 558.189 805.180, 556.737 804.053, 556.298 804.118 C 555.859 804.183, 554.150 804.521, 552.500 804.868 M 818.052 846.927 C 815.202 850.929, 812.049 858.060, 812.022 860.561 C 812.010 861.695, 811.100 863.589, 810 864.770 C 807.331 867.635, 807.292 873.551, 809.934 874.965 C 813.175 876.699, 815.767 876.144, 819.427 872.930 C 823.857 869.041, 825.696 865.329, 827.514 856.612 C 829.023 849.372, 828.801 848.369, 825 845.282 C 822.540 843.284, 820.262 843.823, 818.052 846.927 M 404.174 849.314 C 402.097 851.526, 401.120 857, 402.802 857 C 403.244 857, 404.445 859.362, 405.472 862.250 C 406.498 865.138, 408.387 868.892, 409.669 870.594 C 410.951 872.296, 412 874.125, 412 874.657 C 412 875.960, 417.036 880.543, 419.379 881.372 C 421.932 882.275, 427.864 880.005, 428.543 877.865 C 428.846 876.910, 427.723 873.413, 426.047 870.093 C 424.371 866.773, 423 863.450, 423 862.709 C 423 861.967, 421.425 859.520, 419.500 857.271 C 417.575 855.022, 416 852.776, 416 852.280 C 416 851.783, 415.082 850.392, 413.961 849.189 C 411.281 846.312, 406.943 846.368, 404.174 849.314 M 454.827 847.675 C 451.504 848.553, 450.226 852.202, 450.496 860.033 C 450.638 864.140, 451.007 868.506, 451.317 869.735 C 452.206 873.265, 457.909 883.229, 460.770 886.250 C 464.259 889.934, 469.271 890.042, 471.604 886.482 C 473.177 884.081, 473.115 883.626, 470.274 876.732 C 466.001 866.361, 464.897 863.075, 463.983 858 C 462.839 851.655, 461.419 848.375, 459.495 847.636 C 457.748 846.966, 457.498 846.968, 454.827 847.675 M 699.310 856.787 C 698.656 857.203, 696.968 859.241, 695.561 861.316 C 692.575 865.715, 692.231 869.939, 693.312 888.941 C 694.097 902.723, 695.308 906, 699.619 906 C 701.034 906, 703.531 905.046, 705.169 903.879 L 708.147 901.759 707.780 880.481 C 707.392 857.974, 706.972 855.984, 702.628 856.015 C 701.457 856.024, 699.965 856.371, 699.310 856.787 M 560.854 872.229 C 553.286 873.536, 541.405 877.992, 537.156 881.117 C 531.110 885.563, 531.683 888.395, 539.839 894.382 C 546.062 898.950, 553.437 900.697, 558.740 898.858 C 560.808 898.141, 563.342 897.488, 564.371 897.408 C 567.206 897.186, 576.828 895.069, 582.989 893.313 C 589.141 891.558, 595.762 886.472, 597.607 882.082 C 598.604 879.711, 598.557 878.812, 597.343 877.079 C 596.529 875.917, 595.492 875.196, 595.038 875.476 C 594.584 875.757, 592.253 875.247, 589.856 874.342 C 584.838 872.449, 567.077 871.155, 560.854 872.229 M 744.913 892.282 C 742.127 894.421, 741.262 897.314, 741.080 905.111 C 740.894 913.099, 743.955 929.286, 746.573 934.154 C 747.358 935.614, 748 937.652, 748 938.682 C 748 939.712, 748.608 941.443, 749.350 942.527 C 750.093 943.612, 750.971 946.228, 751.302 948.339 C 752.082 953.321, 753.566 955, 757.188 955 C 760.747 955, 763.622 953.575, 764.908 951.172 C 766.340 948.496, 764.488 936.231, 761.015 925.388 C 759.357 920.211, 758 915.070, 758 913.963 C 758 912.856, 757.100 909.389, 756 906.260 C 754.900 903.130, 754 899.395, 754 897.959 C 754 895.179, 750.323 890.979, 747.936 891.032 C 747.146 891.049, 745.786 891.612, 744.913 892.282 M 435.455 894.455 C 434.105 895.805, 433 897.620, 433 898.488 C 433 900.431, 437.581 909.623, 438.981 910.488 C 439.541 910.835, 440 912.287, 440 913.715 C 440 915.143, 441.125 917.786, 442.500 919.589 C 443.875 921.392, 445 923.268, 445 923.759 C 445 925.446, 449.503 928.785, 452.685 929.457 C 455.161 929.981, 456.329 929.671, 457.935 928.065 C 459.071 926.929, 460 925.256, 460 924.346 C 460 922.767, 456.329 913.959, 453.729 909.297 C 446.774 896.829, 442.751 892, 439.320 892 C 438.544 892, 436.805 893.105, 435.455 894.455 M 789.250 894.154 C 787.462 894.651, 785.965 895.607, 785.923 896.279 C 785.741 899.150, 785.840 909.325, 786.158 920.346 C 786.346 926.861, 786.220 932.364, 785.879 932.575 C 785.537 932.786, 785.389 934.206, 785.550 935.729 C 785.711 937.253, 786.075 942.131, 786.360 946.568 C 787.188 959.481, 789.240 962.090, 796.941 960.016 C 800.115 959.161, 801.111 958.347, 801.593 956.214 C 801.930 954.721, 802.800 951.107, 803.526 948.181 C 804.528 944.144, 804.599 941.273, 803.819 936.266 C 803.254 932.637, 803.053 928.059, 803.373 926.091 C 803.948 922.543, 803.713 921.289, 800.607 911.366 C 799.723 908.542, 798.993 904.942, 798.985 903.366 C 798.952 896.838, 794.557 892.680, 789.250 894.154 M 885.959 907.344 C 884.011 908.530, 880.861 910.688, 878.959 912.141 C 874.420 915.606, 861.570 922, 859.144 922 C 856.740 922, 855 928.288, 855 936.975 C 855 940.324, 854.388 944.530, 853.639 946.321 C 852.891 948.113, 851.951 952.632, 851.551 956.365 L 850.825 963.151 854.162 962.620 C 855.998 962.328, 859.478 961.391, 861.895 960.538 C 864.312 959.685, 867.237 958.792, 868.395 958.554 C 871.249 957.968, 879.835 954.612, 883.428 952.678 C 885.039 951.811, 886.663 951.292, 887.038 951.524 C 888.136 952.202, 899.820 941.149, 900.574 938.718 C 900.953 937.498, 902.103 935.306, 903.131 933.846 C 905.487 930.499, 905.471 929.347, 903 924.500 C 901.900 922.342, 901 919.983, 901 919.257 C 901 918.531, 900.325 917.678, 899.500 917.362 C 898.675 917.045, 898 915.930, 898 914.883 C 898 913.837, 897.100 912.210, 896 911.268 C 894.900 910.326, 894 908.531, 894 907.278 C 894 904.338, 890.855 904.364, 885.959 907.344 M 625.500 914.178 C 624.400 914.792, 623.322 915.444, 623.104 915.627 C 622.886 915.809, 622.322 918.331, 621.851 921.229 C 620.851 927.378, 622.391 935.391, 625.184 938.564 C 626.183 939.700, 627 941.561, 627 942.699 C 627 943.838, 628.123 945.506, 629.495 946.405 C 630.867 947.304, 632.643 949.604, 633.443 951.517 C 635.413 956.234, 648.580 969, 651.473 969 C 654.476 969, 659.007 964.648, 658.972 961.798 C 658.957 960.534, 657.607 957.732, 655.972 955.572 C 654.337 953.411, 653 951.076, 653 950.383 C 653 949.689, 651.200 947.042, 649 944.500 C 646.800 941.958, 645 939.476, 645 938.983 C 645 938.491, 643.662 935.818, 642.026 933.044 C 640.390 930.270, 639.281 928, 639.562 928 C 639.843 928, 638.931 926.321, 637.536 924.268 C 636.141 922.215, 635 919.819, 635 918.942 C 635 916.986, 630.900 912.989, 628.936 913.030 C 628.146 913.047, 626.600 913.563, 625.500 914.178 M 493.242 915.034 C 489.518 916.531, 488.458 920.189, 490.367 924.960 C 491.265 927.204, 492 929.862, 492 930.865 C 492 934.356, 499.704 944.543, 507.488 951.343 C 514.472 957.445, 515.653 958.119, 518.397 957.571 C 520.089 957.232, 522.106 956.322, 522.880 955.549 C 524.089 954.339, 524.001 953.534, 522.253 949.821 C 521.135 947.444, 519.296 944.666, 518.166 943.646 C 517.037 942.627, 515.819 940.602, 515.460 939.146 C 514.040 933.397, 504.672 919.031, 500.438 916.112 C 497.069 913.788, 496.540 913.709, 493.242 915.034 M 568 920.145 C 565.856 921.928, 565.509 923.026, 565.565 927.862 C 565.634 933.924, 568.358 944.554, 570.469 947 C 571.181 947.825, 572.062 949.482, 572.427 950.682 C 572.793 951.882, 575.032 954.001, 577.404 955.391 C 579.776 956.781, 582.461 959.055, 583.372 960.445 C 586.158 964.697, 589.206 966.173, 592.690 964.958 C 594.353 964.379, 596.305 962.799, 597.028 961.449 C 598.198 959.261, 598.090 958.724, 596.032 956.534 C 593.303 953.629, 591.945 951.389, 588.432 944 C 582.774 932.098, 576.917 920.604, 575.863 919.335 C 574.260 917.403, 570.878 917.752, 568 920.145 M 677 925.960 C 673.003 926.959, 671.738 930.857, 672.837 938.788 C 673.750 945.376, 674.530 947.051, 681.440 957.250 C 684.115 961.197, 687.159 962.056, 691.066 959.965 C 694.882 957.922, 693.693 953.209, 685.652 938.500 C 684.750 936.850, 684.007 935.050, 684.001 934.500 C 683.970 931.877, 681.826 926.152, 680.730 925.767 C 680.054 925.530, 678.375 925.617, 677 925.960 M 472.736 947.250 C 470.255 949.134, 468.990 953.429, 469.962 956.668 C 470.990 960.097, 472.764 965.291, 474.500 969.960 C 476.834 976.237, 484.006 980.802, 487.500 978.235 C 488.050 977.831, 489.350 976.496, 490.388 975.269 C 491.935 973.440, 492.049 972.763, 491.016 971.519 C 490.322 970.683, 490.051 970, 490.414 970 C 490.776 970, 489.931 968.321, 488.536 966.268 C 487.141 964.215, 486 961.760, 486 960.812 C 486 957.804, 477.724 946, 475.615 946 C 474.937 946, 473.642 946.563, 472.736 947.250 M 443.051 949.176 C 441.325 951.029, 441.117 952.179, 441.651 956.926 C 442.447 964.009, 445.819 973.454, 450.034 980.409 C 454.002 986.956, 456.889 988.827, 460.491 987.186 C 464.088 985.547, 463.940 979.312, 460.130 972 C 458.554 968.975, 456.684 964.025, 455.974 961 C 454.403 954.298, 452.167 948.753, 450.638 947.765 C 448.481 946.372, 445.072 947.006, 443.051 949.176 M 502.313 960.786 C 500.010 962.249, 499.015 966.644, 500.532 968.647 C 501.305 969.666, 501.951 971.225, 501.968 972.111 C 502.015 974.491, 510.329 983.005, 512.570 982.968 C 515.634 982.918, 517.632 980.794, 518.381 976.795 C 519.192 972.457, 518.195 970.313, 512.544 964.250 C 508.661 960.083, 505.240 958.924, 502.313 960.786 M 928.937 983.478 C 927.322 987.041, 926 990.241, 926 990.589 C 926 991.310, 919.214 999.774, 914.445 1005 C 912.688 1006.925, 910.961 1009.737, 910.606 1011.250 C 910.252 1012.763, 909.351 1014, 908.603 1014 C 907.856 1014, 906.643 1014.725, 905.907 1015.612 C 904.529 1017.273, 895.204 1021.883, 891.959 1022.508 C 890.953 1022.702, 889.265 1023.323, 888.207 1023.889 C 887.150 1024.455, 882.283 1026.257, 877.393 1027.894 C 870.510 1030.197, 865.869 1031.019, 856.864 1031.527 C 842.458 1032.339, 839.024 1033.913, 838.956 1039.735 C 838.893 1045.098, 838.224 1058.500, 838.019 1058.500 C 837.782 1058.500, 837.225 1060.834, 836.447 1065.089 L 835.791 1068.678 842.145 1071.073 C 845.640 1072.390, 848.725 1073.498, 849 1073.535 C 849.275 1073.572, 852.200 1073.969, 855.500 1074.417 C 864.497 1075.638, 877.519 1075.228, 881.414 1073.601 C 883.296 1072.814, 885.028 1072.362, 885.262 1072.596 C 885.497 1072.830, 887.671 1072.286, 890.094 1071.388 C 892.517 1070.489, 895.279 1069.781, 896.230 1069.813 C 897.182 1069.846, 898.221 1069.451, 898.539 1068.936 C 898.858 1068.421, 899.731 1068, 900.480 1068 C 902.515 1068, 917.134 1058.776, 918.401 1056.692 C 919.005 1055.698, 922.087 1052.244, 925.250 1049.017 C 928.413 1045.789, 931 1042.821, 931 1042.422 C 931 1042.023, 932.913 1039.982, 935.250 1037.888 C 937.587 1035.793, 939.532 1033.724, 939.571 1033.290 C 939.711 1031.750, 942.464 1026.457, 944.708 1023.416 C 945.959 1021.721, 947.276 1018.796, 947.633 1016.916 C 947.990 1015.037, 948.716 1012.653, 949.246 1011.618 C 950.009 1010.131, 948.469 1006.305, 941.903 993.368 C 937.334 984.366, 933.208 977, 932.735 977 C 932.262 977, 930.553 979.915, 928.937 983.478 M 473.845 993.323 C 472.935 994.015, 471.663 996.536, 471.020 998.925 C 470.047 1002.540, 470.149 1004.463, 471.631 1010.384 C 472.611 1014.298, 473.292 1018.096, 473.145 1018.824 C 472.998 1019.552, 473.467 1020.857, 474.186 1021.724 C 474.905 1022.590, 476.646 1027.069, 478.054 1031.677 C 479.685 1037.014, 481.815 1041.506, 483.923 1044.054 C 488.491 1049.577, 490.315 1050.405, 493.867 1048.569 C 497.431 1046.726, 498.357 1042.783, 496.348 1038 C 493.383 1030.939, 487 1010.249, 487 1007.699 C 487 1004.131, 483.278 994.935, 481.193 993.350 C 479.043 991.716, 475.972 991.705, 473.845 993.323 M 777.093 993.272 C 775.769 993.947, 774.419 995.625, 774.093 997 C 772.888 1002.080, 773.666 1025.482, 775.273 1032.500 C 776.154 1036.350, 777.192 1043.905, 777.578 1049.290 C 778.172 1057.577, 778.581 1059.241, 780.245 1060.131 C 784.353 1062.329, 790.624 1059.519, 792.330 1054.716 C 792.953 1052.961, 791.202 1035.120, 788.480 1015.500 C 787.717 1010, 786.812 1003.475, 786.468 1001 C 785.461 993.734, 781.915 990.811, 777.093 993.272 M 543.399 996.752 C 542.794 997.163, 541.562 1002.225, 540.663 1008 C 539.764 1013.775, 538.392 1022.100, 537.615 1026.500 C 536.838 1030.900, 535.687 1042.549, 535.058 1052.387 C 533.960 1069.538, 532.696 1080.296, 529.557 1099.201 C 528.762 1103.986, 527.801 1111.739, 527.420 1116.430 C 526.589 1126.679, 526.954 1127.008, 536.478 1124.616 C 540.016 1123.727, 544.449 1123, 546.329 1123 C 548.209 1123, 553.066 1122.180, 557.123 1121.177 C 563.412 1119.623, 566.049 1119.492, 575 1120.287 C 582.585 1120.961, 587.230 1120.882, 591.732 1120.005 C 600.673 1118.262, 617.265 1118.541, 624.500 1120.555 C 629.536 1121.958, 635.160 1122.203, 659.500 1122.085 C 699.113 1121.892, 701.090 1121.681, 708.364 1116.875 C 711.589 1114.744, 714.882 1113, 715.681 1113 C 716.480 1113, 718.566 1111.943, 720.317 1110.651 C 724.483 1107.576, 731.250 1105, 735.160 1105 L 738.280 1105 737.710 1099.482 C 737.397 1096.447, 736.230 1092.490, 735.117 1090.690 C 734.004 1088.889, 731.889 1083.159, 730.418 1077.958 C 728.946 1072.756, 726.717 1065.350, 725.464 1061.500 C 724.211 1057.650, 722.445 1049.550, 721.540 1043.500 C 720.635 1037.450, 719.018 1029.800, 717.947 1026.500 C 714.215 1015, 711 1003.666, 711 1002.008 C 711 1001.089, 709.903 999.751, 708.561 999.033 C 705.779 997.544, 700.631 997.946, 681 1001.185 C 663.207 1004.120, 645.669 1004.168, 636.500 1001.307 C 630.067 999.299, 627.511 999.128, 604.939 999.197 C 590.112 999.243, 579.609 998.870, 578.439 998.257 C 577.372 997.699, 570.488 997.213, 563.141 997.177 C 555.793 997.141, 548.593 996.862, 547.141 996.557 C 545.688 996.253, 544.005 996.340, 543.399 996.752 M 828.282 1096.652 C 827.612 1096.923, 826.817 1098.575, 826.517 1100.323 C 825.600 1105.651, 824.238 1126.422, 824.721 1127.700 C 825.034 1128.526, 829.579 1129.029, 839.338 1129.318 C 847.127 1129.548, 860.385 1130.298, 868.801 1130.984 C 877.216 1131.670, 884.358 1131.976, 884.671 1131.663 C 886.099 1130.235, 883.863 1126.182, 881.291 1125.537 C 878.368 1124.803, 873.011 1122.427, 858.073 1115.237 C 849.518 1111.120, 843.804 1106.827, 835.460 1098.250 C 833.376 1096.108, 830.954 1095.569, 828.282 1096.652" stroke="none" fill="#2942C9" fill-rule="evenodd"/>
    </g>
  </g>
</svg>
