<?xml version="1.0" encoding="UTF-8"?>
<svg xmlns="http://www.w3.org/2000/svg" viewBox="0 0 1280 1280" width="1280" height="1280" role="img" aria-labelledby="title desc">
  <title id="title">BillBandit raccoon - Grumpy</title>
  <desc id="desc">Transparent two-color vector mascot using cobalt and warm cream.</desc>
  <g id="mascot-grumpy" shape-rendering="geometricPrecision">
    <g id="warm-cream-base">
      <path d="M 796.500 62.042 C 782.607 64.900, 765.832 73.058, 760.522 79.538 C 758.511 81.992, 756.251 84, 755.500 84 C 753.169 84, 740.580 100.975, 735.553 110.896 C 732.754 116.418, 730.923 117.128, 725.315 114.863 C 723.767 114.238, 720.700 113.375, 718.500 112.945 C 716.300 112.516, 709.775 110.497, 704 108.459 C 693.535 104.765, 693.422 104.750, 670.500 103.826 C 652.027 103.082, 645.237 103.185, 636 104.351 C 629.675 105.150, 622.565 105.867, 620.201 105.945 C 617.836 106.023, 614.911 106.461, 613.701 106.919 C 612.490 107.377, 609.025 108.061, 606 108.439 C 601.052 109.057, 589.588 111.851, 583 114.043 C 581.625 114.501, 578.925 115.152, 577 115.491 C 575.075 115.830, 571.925 116.694, 570 117.412 C 568.075 118.129, 564.925 119.275, 563 119.957 C 561.075 120.640, 555.961 122.503, 551.636 124.099 C 540.378 128.252, 539.940 128.157, 535.513 120.587 C 530.458 111.943, 521.391 100.904, 516.500 97.438 C 514.300 95.879, 512.183 94.094, 511.796 93.472 C 511.408 92.850, 509.041 89.850, 506.536 86.807 C 502.867 82.351, 500.862 80.879, 496.240 79.248 C 493.083 78.135, 488.420 76.410, 485.877 75.415 C 481.887 73.855, 480.687 73.777, 477.111 74.849 C 472.068 76.359, 466.516 81.062, 464.056 85.905 C 460.732 92.452, 457.247 105.343, 455.650 117 C 453.890 129.855, 453.301 153.092, 454.408 166 L 455.137 174.500 447.945 186 C 443.989 192.325, 439.746 199.075, 438.515 201 C 435.253 206.103, 428.041 218.798, 425.448 224 C 424.215 226.475, 420.867 231.650, 418.008 235.500 C 415.149 239.350, 411.648 244.525, 410.226 247 C 408.805 249.475, 406.208 253.750, 404.455 256.500 C 379.876 295.067, 379.280 296.280, 383.049 300.049 C 385.078 302.078, 385.910 302.217, 392.635 301.648 C 399.930 301.031, 400 301.048, 400 303.445 C 400 306.494, 397.424 308.318, 383.964 314.798 C 366.652 323.132, 365.144 327.636, 377.812 333.174 C 381.470 334.773, 384.423 335.195, 391.250 335.098 C 399.344 334.982, 400 335.121, 400 336.952 C 400 338.040, 398.675 341.020, 397.056 343.573 C 390.042 354.632, 392.983 361.544, 403.568 358.879 C 406.024 358.260, 408.278 357.359, 408.576 356.877 C 409.705 355.051, 413.023 356.124, 416.694 359.502 C 418.787 361.429, 421.288 363.259, 422.250 363.570 C 424 364.135, 424.753 367, 423.152 367 C 422.685 367, 421.499 368.785, 420.515 370.967 C 418.872 374.609, 418.855 375.130, 420.306 377.345 C 422.485 380.670, 427.389 381.276, 432.877 378.897 C 438.345 376.527, 440.250 376.514, 442.345 378.829 C 444.889 381.640, 444.380 383.064, 438.730 388.936 C 429.944 398.068, 420.020 410.698, 415.549 418.437 C 413.980 421.152, 411.014 425.202, 408.958 427.437 C 406.902 429.672, 404.180 433.525, 402.909 436 C 401.638 438.475, 398.571 443.650, 396.094 447.500 C 387.680 460.573, 368.800 497.404, 363.484 511.113 C 361.482 516.276, 358.306 524.376, 356.426 529.114 C 354.546 533.852, 351.709 541.952, 350.121 547.114 C 345.397 562.471, 336.930 597.658, 334.989 610 C 330.741 637.009, 329.060 649.752, 327.011 670.500 C 325.815 682.600, 324.449 694.750, 323.974 697.500 C 322.320 707.084, 321.914 712.657, 321.107 736.879 C 320.081 767.699, 321.782 799.049, 325.646 820.500 C 327.624 831.482, 332.661 851.231, 334.701 856 C 337.011 861.401, 342 875.858, 342 877.150 C 342 877.785, 343.373 880.148, 345.052 882.402 C 346.730 884.656, 351.304 891.582, 355.216 897.792 C 362.354 909.125, 367.121 914.355, 381.992 927.175 L 389.483 933.633 391.113 944.567 C 392.009 950.580, 393.287 959.325, 393.953 964 C 394.619 968.675, 395.862 975.425, 396.714 979 C 397.567 982.575, 398.595 987.975, 399 991 C 399.405 994.025, 400.449 999.425, 401.321 1003 C 404.766 1017.122, 412 1051.706, 411.996 1054.033 C 411.994 1055.390, 413.119 1060.100, 414.495 1064.500 C 415.872 1068.900, 418.561 1078.929, 420.469 1086.787 C 422.378 1094.646, 424.853 1103.140, 425.970 1105.665 C 427.086 1108.189, 428 1111.267, 428 1112.505 C 428 1113.743, 428.675 1116.371, 429.500 1118.346 C 430.325 1120.320, 431 1123.016, 431 1124.336 C 431 1126.425, 430.195 1126.962, 424.800 1128.476 C 421.391 1129.433, 417.678 1130.795, 416.550 1131.504 C 415.423 1132.212, 413.381 1133.128, 412.013 1133.538 C 409.402 1134.323, 402.208 1138.636, 400.500 1140.443 C 399.950 1141.024, 397.797 1142.773, 395.715 1144.328 C 393.633 1145.883, 390.555 1149.592, 388.874 1152.569 L 385.820 1157.981 375.160 1157.931 C 369.297 1157.903, 361.205 1157.429, 357.178 1156.877 C 352.242 1156.201, 339.041 1156.217, 316.678 1156.926 C 267.700 1158.481, 256.886 1160.148, 256.184 1166.251 C 255.940 1168.368, 256.399 1169.195, 258.184 1169.854 C 259.458 1170.325, 270.175 1171.445, 282 1172.344 C 299.622 1173.684, 305.755 1173.774, 316 1172.846 C 325.249 1172.008, 331.621 1172.004, 340.500 1172.830 C 358.180 1174.475, 388.611 1175.192, 442 1175.221 C 509.762 1175.258, 554.631 1174.467, 560.500 1173.131 C 564.007 1172.333, 577.741 1172.146, 606.500 1172.504 C 629.050 1172.784, 649.525 1173.077, 652 1173.155 C 654.475 1173.233, 667.075 1173.196, 680 1173.074 C 696.902 1172.915, 707.290 1173.315, 717 1174.500 C 728.592 1175.914, 735.731 1176.031, 767.500 1175.324 C 787.850 1174.871, 809 1174.566, 814.500 1174.648 C 820 1174.729, 840.925 1174.730, 861 1174.650 C 915.225 1174.435, 927.717 1174.544, 947.282 1175.401 C 959.645 1175.942, 967.722 1175.813, 973.782 1174.979 C 978.577 1174.319, 995.325 1173.645, 1011 1173.480 C 1054.884 1173.019, 1067.082 1171.140, 1067.819 1164.728 C 1068.366 1159.960, 1064.592 1159.190, 1032.288 1157.482 C 1016.454 1156.645, 996.862 1155.697, 988.750 1155.376 C 975.956 1154.870, 974.001 1154.574, 974.008 1153.146 C 974.012 1152.241, 975.878 1150.436, 978.153 1149.136 C 988.222 1143.385, 997.212 1132.047, 999.587 1122.104 C 1002.828 1108.540, 1002.560 1098.755, 998.424 1079.538 C 996.675 1071.416, 990.829 1055.252, 987.560 1049.500 C 986.310 1047.300, 982.677 1039.650, 979.487 1032.500 C 976.297 1025.350, 971.667 1015.675, 969.197 1011 C 948.125 971.103, 941.692 957.990, 929.950 931 C 928.156 926.875, 925.921 922.375, 924.984 921 C 922.883 917.917, 906.475 883.445, 905.468 880 C 905.067 878.625, 903.111 874.350, 901.122 870.500 C 897.676 863.829, 897.506 863.029, 897.503 853.500 C 897.500 844.221, 897.841 842.486, 902.229 829.441 C 908.109 811.960, 911.318 799.547, 913.458 786 C 914.371 780.225, 915.758 772.125, 916.540 768 C 920.351 747.903, 923.201 680.946, 920.942 664.569 C 919.545 654.435, 917.232 634.794, 915.459 618 C 914.617 610.025, 913.270 599.841, 912.464 595.368 C 911.659 590.896, 911 584.694, 911 581.587 C 911 578.479, 910.064 573.158, 908.919 569.761 C 907.775 566.364, 906.196 559.290, 905.411 554.042 C 904.626 548.794, 903.343 542.475, 902.561 540 C 901.778 537.525, 900.827 533.475, 900.448 531 C 900.068 528.525, 898.687 524.377, 897.379 521.783 C 896.071 519.189, 895 516.399, 895 515.584 C 895 514.330, 891.869 504.345, 881.491 472.500 C 880.595 469.750, 878.928 465.475, 877.786 463 C 876.645 460.525, 874.937 456.475, 873.990 454 C 869.624 442.583, 863.032 427.169, 861.158 423.992 C 860.021 422.065, 858.437 417.687, 857.638 414.263 C 856.840 410.839, 855.140 406.341, 853.861 404.269 C 850.053 398.099, 839.272 381.800, 836.154 377.500 C 831.649 371.287, 830.766 369.061, 831.421 365.570 C 831.753 363.799, 833.360 361.071, 834.993 359.507 C 837.931 356.692, 838.028 356.674, 844.730 357.720 C 850.541 358.626, 851.925 358.536, 854.500 357.087 C 858.377 354.905, 858.747 352.050, 855.542 349.039 C 854.144 347.726, 853.010 346.167, 853.021 345.576 C 853.033 344.984, 854.839 343.229, 857.034 341.676 C 860.910 338.934, 861.279 338.871, 869.763 339.528 C 877.787 340.149, 878.725 340.027, 881.250 338.030 C 882.763 336.833, 884 334.918, 884 333.774 C 884 332.569, 880.632 328.009, 876 322.940 C 871.600 318.126, 868 313.428, 868 312.500 C 868 311.024, 868.658 310.918, 873.250 311.656 C 881.111 312.920, 891.311 312.407, 894.863 310.571 C 896.704 309.619, 898.246 307.868, 898.645 306.278 C 899.227 303.960, 898.683 303.032, 894.669 299.501 C 892.112 297.250, 886.528 293.431, 882.260 291.014 C 863.707 280.506, 860.057 275, 871.644 275 C 876.115 275, 885.617 270.515, 887.618 267.460 C 889.966 263.876, 888.527 261.449, 881.695 257.469 C 878.288 255.484, 874.825 253.449, 874 252.946 C 857.616 242.971, 857.977 243.339, 860.068 238.750 C 860.918 236.884, 860.632 235.068, 858.660 229.830 C 857.299 226.213, 855.087 221.509, 853.746 219.377 C 852.405 217.244, 850.777 213.885, 850.129 211.911 C 849.481 209.938, 847.798 206.788, 846.389 204.911 C 844.980 203.035, 843.408 200.435, 842.894 199.134 C 840.224 192.363, 824.384 170.771, 813.700 159.338 L 808.876 154.175 810.060 149.838 C 811.288 145.342, 812.021 140.797, 814.386 123 C 815.154 117.225, 816.343 109.371, 817.029 105.547 C 818.596 96.807, 817.852 70.337, 815.953 67.297 C 814.296 64.642, 806.736 60.968, 803.223 61.110 C 801.725 61.170, 798.700 61.589, 796.500 62.042 M 901.542 142.640 C 900.060 147.393, 897.794 152.951, 896.505 154.992 C 891.844 162.375, 883.555 166.981, 874.905 166.994 C 871.367 167, 868 169.346, 868 171.806 C 868 172.437, 869.139 173.700, 870.531 174.613 C 876.042 178.223, 890.091 173.653, 898.050 165.662 C 903.392 160.296, 906.309 154.845, 908.686 145.780 C 910.624 138.394, 909.674 134, 906.139 134 C 904.623 134, 903.688 135.756, 901.542 142.640 M 927.009 142.220 C 920.941 148.734, 918.528 166.738, 922.678 174.540 C 927.439 183.493, 938.999 192.141, 943.199 189.894 C 945.430 188.699, 945.516 186.493, 943.396 184.789 C 936.239 179.035, 930.911 173.273, 929.856 170.146 C 928.249 165.383, 928.576 154.452, 930.487 149.036 C 931.319 146.678, 932 143.953, 932 142.981 C 932 140.245, 929.242 139.824, 927.009 142.220 M 896 184.648 C 890.819 186.435, 881.758 192.914, 879.394 196.522 C 877.665 199.161, 878.074 201.708, 880.370 202.589 C 881.149 202.887, 884.196 201.303, 887.143 199.069 C 893.813 194.010, 900.789 191.550, 905.800 192.490 C 910.619 193.394, 916.162 199.228, 918.573 205.933 C 920.925 212.474, 923.291 214.833, 925.588 212.927 C 926.824 211.901, 927.073 210.549, 926.626 207.286 C 925 195.425, 913.122 182.987, 903.500 183.070 C 901.850 183.084, 898.475 183.794, 896 184.648 M 693.132 1015.636 C 673.331 1022.214, 653.767 1025.500, 640.500 1024.475 C 635.550 1024.092, 619.125 1023.699, 604 1023.601 C 586.030 1023.485, 575.287 1023.016, 573 1022.247 C 571.075 1021.600, 565.555 1020.834, 560.734 1020.546 C 555.913 1020.257, 549.958 1019.515, 547.502 1018.896 C 545.046 1018.278, 542.441 1018.001, 541.713 1018.280 C 540.886 1018.597, 539.938 1022.167, 539.192 1027.775 C 538.534 1032.718, 537.308 1038.710, 536.468 1041.091 C 534.763 1045.922, 532.301 1059.488, 530.997 1071.233 C 530.525 1075.486, 529.862 1079.415, 529.523 1079.963 C 528.901 1080.969, 526.790 1094.439, 525.520 1105.500 C 525.141 1108.800, 523.334 1119.150, 521.505 1128.500 C 519.675 1137.850, 517.852 1147.702, 517.454 1150.393 L 516.730 1155.286 529.615 1154.585 C 539.224 1154.061, 543.898 1153.331, 548 1151.712 C 553.226 1149.648, 554.793 1149.555, 579.421 1149.838 C 593.677 1150.001, 608.752 1150.602, 612.921 1151.171 C 617.089 1151.741, 637.369 1152.418, 657.987 1152.675 L 695.475 1153.142 697.487 1150.762 C 698.594 1149.453, 701.300 1147.003, 703.500 1145.318 C 709.058 1141.061, 726.598 1132.285, 731.871 1131.122 C 734.275 1130.592, 736.651 1129.749, 737.152 1129.248 C 738.141 1128.259, 736.245 1119.860, 733.710 1114 C 731.127 1108.027, 723.722 1080.930, 722.507 1073 C 722.127 1070.525, 721.201 1065.800, 720.449 1062.500 C 719.697 1059.200, 718.126 1052, 716.957 1046.500 C 715.789 1041, 714 1034.025, 712.982 1031 C 711.281 1025.943, 710.221 1022.030, 708.581 1014.750 C 707.779 1011.186, 706.262 1011.273, 693.132 1015.636 M 826.586 1124.861 C 825.889 1125.989, 822.860 1143.137, 822.261 1149.347 C 822.004 1152.013, 822.188 1154.588, 822.670 1155.070 C 823.152 1155.552, 831.411 1156.468, 841.023 1157.105 C 861.280 1158.448, 862.873 1158.503, 873.323 1158.215 C 880.171 1158.027, 881.105 1157.782, 880.813 1156.250 C 880.626 1155.270, 879.385 1154.348, 877.990 1154.154 C 876.620 1153.964, 875.050 1153.443, 874.500 1152.996 C 873.950 1152.549, 870.800 1151.240, 867.500 1150.086 C 864.200 1148.933, 860.366 1147.154, 858.981 1146.135 C 857.595 1145.115, 855.415 1143.949, 854.137 1143.543 C 850.231 1142.304, 843.777 1137.486, 836.766 1130.578 C 830.462 1124.367, 827.811 1122.878, 826.586 1124.861" stroke="none" fill="#F7F1DD" fill-rule="evenodd"/>
    </g>
    <g id="cobalt-ink">
      <path d="M 796.500 62.042 C 782.607 64.900, 765.832 73.058, 760.522 79.538 C 758.511 81.992, 756.251 84, 755.500 84 C 753.169 84, 740.580 100.975, 735.553 110.896 C 732.754 116.418, 730.923 117.128, 725.315 114.863 C 723.767 114.238, 720.700 113.375, 718.500 112.945 C 716.300 112.516, 709.775 110.497, 704 108.459 C 693.535 104.765, 693.422 104.750, 670.500 103.826 C 652.027 103.082, 645.237 103.185, 636 104.351 C 629.675 105.150, 622.565 105.867, 620.201 105.945 C 617.836 106.023, 614.911 106.461, 613.701 106.919 C 612.490 107.377, 609.025 108.061, 606 108.439 C 601.052 109.057, 589.588 111.851, 583 114.043 C 581.625 114.501, 578.925 115.152, 577 115.491 C 575.075 115.830, 571.925 116.694, 570 117.412 C 568.075 118.129, 564.925 119.275, 563 119.957 C 561.075 120.640, 555.961 122.503, 551.636 124.099 C 540.378 128.252, 539.940 128.157, 535.513 120.587 C 530.458 111.943, 521.391 100.904, 516.500 97.438 C 514.300 95.879, 512.183 94.094, 511.796 93.472 C 511.408 92.850, 509.041 89.850, 506.536 86.807 C 502.867 82.351, 500.862 80.879, 496.240 79.248 C 493.083 78.135, 488.420 76.410, 485.877 75.415 C 481.887 73.855, 480.687 73.777, 477.111 74.849 C 472.068 76.359, 466.516 81.062, 464.056 85.905 C 460.732 92.452, 457.247 105.343, 455.650 117 C 453.890 129.855, 453.301 153.092, 454.408 166 L 455.137 174.500 447.945 186 C 443.989 192.325, 439.746 199.075, 438.515 201 C 435.253 206.103, 428.041 218.798, 425.448 224 C 424.215 226.475, 420.867 231.650, 418.008 235.500 C 415.149 239.350, 411.648 244.525, 410.226 247 C 408.805 249.475, 406.208 253.750, 404.455 256.500 C 379.876 295.067, 379.280 296.280, 383.049 300.049 C 385.078 302.078, 385.910 302.217, 392.635 301.648 C 399.930 301.031, 400 301.048, 400 303.445 C 400 306.494, 397.424 308.318, 383.964 314.798 C 366.652 323.132, 365.144 327.636, 377.812 333.174 C 381.470 334.773, 384.423 335.195, 391.250 335.098 C 399.344 334.982, 400 335.121, 400 336.952 C 400 338.040, 398.675 341.020, 397.056 343.573 C 390.042 354.632, 392.983 361.544, 403.568 358.879 C 406.024 358.260, 408.278 357.359, 408.576 356.877 C 408.874 356.395, 410.138 356, 411.385 356 C 412.631 356, 414.698 354.886, 415.978 353.524 C 418.551 350.784, 430.122 343.682, 433.931 342.503 C 435.268 342.089, 437.743 340.908, 439.431 339.879 C 441.164 338.822, 444.364 338.006, 446.782 338.004 C 449.137 338.002, 452.680 337.325, 454.654 336.500 C 456.629 335.675, 460.410 335, 463.057 335 C 465.704 335, 469.137 334.513, 470.685 333.918 C 472.233 333.322, 475.840 332.450, 478.700 331.978 C 484.658 330.996, 498.981 325.801, 510.135 320.576 C 514.334 318.609, 518.481 317, 519.350 317 C 520.219 317, 522.468 315.650, 524.347 314 C 526.226 312.350, 528.404 311, 529.186 311 C 529.968 311, 532.134 309.425, 534 307.500 C 535.866 305.575, 538.147 304, 539.070 304 C 542.886 304, 571.250 275.887, 577.216 266.192 C 583.445 256.068, 590.091 241.519, 590.837 236.373 C 591.543 231.503, 591.546 231.500, 595.415 231.500 C 601.082 231.500, 604.190 228, 606.305 219.236 C 608.228 211.270, 608.460 205.340, 607 201.499 C 606.201 199.399, 605.443 198.931, 603.250 199.184 C 600.926 199.451, 599.957 200.628, 597 206.774 C 593.612 213.816, 593.404 214.029, 590.500 213.426 C 588.850 213.084, 586.600 212.242, 585.500 211.556 C 584.400 210.870, 582.375 210.059, 581 209.753 C 579.625 209.447, 574.900 207.853, 570.500 206.210 C 566.100 204.568, 559.575 202.218, 556 200.990 C 552.425 199.762, 548.719 198.361, 547.764 197.878 C 546.809 197.395, 545.459 196.997, 544.764 196.994 C 544.069 196.990, 542.150 196.273, 540.500 195.400 C 536.192 193.120, 524.188 190.051, 519.473 190.024 C 511.876 189.979, 508.467 195.302, 513.250 199.738 C 514.488 200.886, 517.925 202.931, 520.889 204.284 L 526.277 206.743 514.389 207.401 C 507.850 207.762, 499.575 208.515, 496 209.074 C 485.063 210.782, 470.122 215.863, 457 222.335 C 450.125 225.726, 444.161 228.650, 443.747 228.834 C 442.989 229.171, 451.526 214.831, 455.075 209.806 C 456.121 208.324, 458.182 204.949, 459.654 202.306 C 461.126 199.663, 465.293 193, 468.915 187.500 L 475.500 177.500 475.508 163 C 475.513 155.025, 475.226 146.250, 474.871 143.500 C 473.889 135.895, 477.568 105.934, 479.960 102.065 C 481.002 100.379, 485.574 102.382, 490.178 106.542 C 492.283 108.444, 494.678 110, 495.499 110 C 496.320 110, 500.606 113.556, 505.023 117.903 C 511.220 124, 514.080 127.798, 517.542 134.528 C 520.011 139.325, 523.347 144.913, 524.957 146.946 C 528.520 151.444, 534.829 153.932, 538.260 152.191 C 542.146 150.219, 549.333 147.839, 554 146.978 C 562.972 145.322, 567.890 143.838, 569.055 142.433 C 569.717 141.636, 571.980 141, 574.158 141 C 576.310 141, 579.067 140.378, 580.285 139.618 C 581.503 138.858, 584.503 137.938, 586.950 137.574 C 589.398 137.210, 591.873 136.563, 592.450 136.136 C 593.028 135.709, 595.525 134.806, 598 134.129 C 600.475 133.452, 605.875 131.805, 610 130.468 C 618.884 127.589, 641.394 125.405, 650.500 126.539 C 653.800 126.950, 659.244 127.196, 662.598 127.086 C 665.952 126.976, 673.602 127.598, 679.598 128.468 C 685.594 129.337, 692.300 130.215, 694.500 130.418 C 696.700 130.621, 699.850 131.481, 701.500 132.330 C 703.150 133.179, 708.550 134.415, 713.500 135.077 C 718.450 135.739, 722.928 136.668, 723.450 137.140 C 723.973 137.613, 725.858 138, 727.641 138 C 729.424 138, 731.160 138.450, 731.500 139 C 732.598 140.776, 738.630 140.079, 741.466 137.848 C 742.970 136.665, 745.083 133.627, 746.162 131.098 C 747.240 128.569, 749.250 125.375, 750.628 124 C 752.006 122.625, 754.949 118.676, 757.167 115.224 C 759.385 111.772, 762.426 108.314, 763.923 107.540 C 765.420 106.765, 767.241 105.415, 767.968 104.539 C 771.983 99.701, 794.465 88.065, 796.283 89.883 C 796.861 90.461, 797.242 92.861, 797.130 95.217 C 797.018 97.573, 796.773 102.875, 796.585 107 C 796.192 115.627, 793.728 131.203, 791.603 138.500 C 790.802 141.250, 789.854 146.875, 789.496 151 L 788.845 158.500 793.014 164 C 795.306 167.025, 797.550 170.400, 798 171.500 C 798.933 173.781, 806.021 183.590, 808.708 186.320 C 810.664 188.306, 814.243 194.248, 818.953 203.330 C 820.616 206.536, 822.829 210.361, 823.869 211.830 C 826.542 215.601, 835.082 232.251, 834.594 232.739 C 834.371 232.962, 832.355 231.987, 830.114 230.572 C 827.873 229.157, 825.851 228, 825.620 228 C 825.390 228, 822.976 226.503, 820.257 224.673 C 810.969 218.423, 785.806 209.641, 770 207.135 C 752.714 204.393, 746.360 203.778, 740.346 204.260 C 736.754 204.549, 734.195 204.464, 734.658 204.072 C 735.121 203.680, 738.650 202.097, 742.500 200.554 C 753.266 196.240, 756.881 190.934, 751.471 187.389 C 749.551 186.131, 747.682 185.880, 743.719 186.345 C 738.453 186.964, 703.312 198.214, 688.500 204.023 C 684.100 205.749, 679.150 207.531, 677.500 207.984 C 675.850 208.438, 671.602 209.976, 668.060 211.404 C 664.519 212.832, 660.835 214, 659.874 214 C 658.875 214, 657.155 212.269, 655.854 209.954 C 654.014 206.681, 653.099 205.964, 651.063 206.204 C 649.570 206.380, 648.034 207.517, 647.288 209 C 645.782 211.991, 645.591 219.629, 647 220.500 C 647.550 220.840, 648 222.176, 648 223.470 C 648 226.229, 653.177 231, 656.171 231 C 658.001 231, 658.128 231.440, 657.542 235.750 C 656.459 243.707, 662.054 258.968, 669.822 269.250 C 671.796 271.862, 673.791 274, 674.255 274 C 674.984 274, 678.636 277.369, 690.011 288.535 C 691.392 289.891, 693.009 291, 693.606 291 C 694.202 291, 695.505 291.900, 696.500 293 C 697.495 294.100, 698.733 295, 699.251 295 C 699.768 295, 701.386 295.838, 702.846 296.861 C 704.306 297.885, 707.215 299.279, 709.311 299.959 C 711.407 300.639, 715.457 302.737, 718.311 304.621 C 721.165 306.504, 725.075 308.480, 727 309.011 C 728.925 309.541, 731.973 310.881, 733.774 311.988 C 735.575 313.094, 737.825 314.014, 738.774 314.032 C 739.723 314.049, 741.374 314.724, 742.441 315.532 C 743.509 316.339, 745.362 317, 746.560 317 C 747.758 317, 752.060 318.156, 756.119 319.568 C 765.946 322.988, 774.550 324.954, 779.800 324.979 C 782.164 324.991, 785.497 325.723, 787.204 326.606 C 789.149 327.611, 791.567 328.007, 793.674 327.665 C 795.525 327.365, 799.260 327.779, 801.975 328.585 C 805.886 329.747, 807.828 329.820, 811.325 328.940 C 817.041 327.500, 833.214 329.092, 841.500 331.910 C 844.800 333.033, 848.545 333.962, 849.822 333.975 C 851.099 333.989, 854.024 335.091, 856.322 336.424 C 859.504 338.270, 862.646 339.009, 869.500 339.526 C 877.793 340.151, 878.716 340.033, 881.250 338.030 C 882.763 336.833, 884 334.918, 884 333.774 C 884 332.569, 880.632 328.009, 876 322.940 C 871.600 318.126, 868 313.428, 868 312.500 C 868 311.024, 868.658 310.918, 873.250 311.656 C 881.111 312.920, 891.311 312.407, 894.863 310.571 C 896.704 309.619, 898.246 307.868, 898.645 306.278 C 899.227 303.960, 898.683 303.032, 894.669 299.501 C 892.112 297.250, 886.528 293.431, 882.260 291.014 C 863.707 280.506, 860.057 275, 871.644 275 C 876.115 275, 885.617 270.515, 887.618 267.460 C 889.966 263.876, 888.527 261.449, 881.695 257.469 C 878.288 255.484, 874.825 253.449, 874 252.946 C 857.616 242.971, 857.977 243.339, 860.068 238.750 C 860.918 236.884, 860.632 235.068, 858.660 229.830 C 857.299 226.213, 855.087 221.509, 853.746 219.377 C 852.405 217.244, 850.777 213.885, 850.129 211.911 C 849.481 209.938, 847.798 206.788, 846.389 204.911 C 844.980 203.035, 843.408 200.435, 842.894 199.134 C 840.224 192.363, 824.384 170.771, 813.700 159.338 L 808.876 154.175 810.060 149.838 C 811.288 145.342, 812.021 140.797, 814.386 123 C 815.154 117.225, 816.343 109.371, 817.029 105.547 C 818.596 96.807, 817.852 70.337, 815.953 67.297 C 814.296 64.642, 806.736 60.968, 803.223 61.110 C 801.725 61.170, 798.700 61.589, 796.500 62.042 M 777.681 113.036 C 773.805 116.085, 769 123.731, 769 126.850 C 769 128.363, 768.511 130.089, 767.914 130.686 C 767.211 131.389, 767.078 133.775, 767.536 137.443 C 768.082 141.813, 768.779 143.464, 770.573 144.640 C 773.438 146.517, 776.507 145.682, 778.626 142.449 C 780.635 139.382, 786.136 116.519, 785.355 114.483 C 784.843 113.148, 781.972 111, 780.701 111 C 780.464 111, 779.105 111.916, 777.681 113.036 M 485.544 126.742 C 483.204 129.948, 482.940 138.912, 484.888 149 C 486.334 156.485, 487.608 158.612, 491.180 159.509 C 494.666 160.384, 498 156.188, 498 150.924 C 498 148.831, 498.450 146.840, 499 146.500 C 500.404 145.632, 500.218 138.330, 498.659 133.118 C 496.069 124.456, 489.533 121.278, 485.544 126.742 M 901.542 142.640 C 900.060 147.393, 897.794 152.951, 896.505 154.992 C 891.844 162.375, 883.555 166.981, 874.905 166.994 C 871.367 167, 868 169.346, 868 171.806 C 868 172.437, 869.139 173.700, 870.531 174.613 C 876.042 178.223, 890.091 173.653, 898.050 165.662 C 903.392 160.296, 906.309 154.845, 908.686 145.780 C 910.624 138.394, 909.674 134, 906.139 134 C 904.623 134, 903.688 135.756, 901.542 142.640 M 927.009 142.220 C 920.941 148.734, 918.528 166.738, 922.678 174.540 C 927.439 183.493, 938.999 192.141, 943.199 189.894 C 945.430 188.699, 945.516 186.493, 943.396 184.789 C 936.239 179.035, 930.911 173.273, 929.856 170.146 C 928.249 165.383, 928.576 154.452, 930.487 149.036 C 931.319 146.678, 932 143.953, 932 142.981 C 932 140.245, 929.242 139.824, 927.009 142.220 M 635.580 144.329 C 632.358 147.551, 630.104 164.386, 631.927 171.623 C 633.412 177.522, 634.542 179, 637.566 179 C 642.052 179, 643 175.810, 643 160.712 C 643 153.098, 642.563 146.051, 642.028 145.052 C 640.439 142.083, 638.090 141.819, 635.580 144.329 M 608.253 161.822 C 604.834 163.994, 602.229 184.161, 604.945 187.434 C 606.588 189.413, 609.415 189.442, 611.358 187.499 C 614.473 184.384, 616.355 167.401, 614.060 163.112 C 612.903 160.951, 610.475 160.412, 608.253 161.822 M 896 184.648 C 890.819 186.435, 881.758 192.914, 879.394 196.522 C 877.665 199.161, 878.074 201.708, 880.370 202.589 C 881.149 202.887, 884.196 201.303, 887.143 199.069 C 893.813 194.010, 900.789 191.550, 905.800 192.490 C 910.619 193.394, 916.162 199.228, 918.573 205.933 C 920.925 212.474, 923.291 214.833, 925.588 212.927 C 926.824 211.901, 927.073 210.549, 926.626 207.286 C 925 195.425, 913.122 182.987, 903.500 183.070 C 901.850 183.084, 898.475 183.794, 896 184.648 M 622.637 199.250 C 619.174 204.782, 618.088 227.992, 621.123 231.648 C 622.742 233.599, 627.410 233.309, 629.378 231.135 C 630.661 229.717, 631.202 226.591, 631.636 218.093 C 631.950 211.946, 631.918 205.375, 631.564 203.490 C 630.389 197.228, 625.390 194.854, 622.637 199.250 M 731.500 225.510 C 730.950 225.704, 727.237 226.384, 723.250 227.022 C 716.280 228.136, 716 228.287, 716 230.942 C 716 235.284, 711.997 240.445, 708.352 240.803 C 705.920 241.043, 704.710 240.444, 702.634 237.977 C 701.185 236.255, 700 234.206, 700 233.423 C 700 231.768, 697.233 231.604, 692.116 232.955 C 690.127 233.480, 687.263 234.163, 685.750 234.474 C 684.010 234.831, 683 235.682, 683 236.791 C 683 239.719, 688.896 245.912, 694.351 248.713 C 698.685 250.938, 700.845 251.366, 708 251.415 C 715.142 251.464, 717.285 251.076, 721.414 248.986 C 728.214 245.545, 734.464 239.022, 736.398 233.345 C 738.741 226.470, 738.534 224.985, 735.250 225.079 C 733.737 225.122, 732.050 225.316, 731.500 225.510 M 517.398 231.942 C 518.331 238.975, 520.396 243.303, 524.197 246.193 C 528.868 249.743, 532.675 251.477, 539 252.931 C 543.627 253.995, 545.416 253.957, 550.274 252.687 C 557.455 250.809, 565.592 245.690, 567.616 241.776 C 568.458 240.147, 568.982 238.648, 568.779 238.446 C 568.577 238.244, 564.864 237.298, 560.529 236.346 C 552.889 234.667, 552.613 234.672, 551.573 236.492 C 549.632 239.891, 545.748 243, 543.443 243 C 540.409 243, 536 237.634, 536 233.942 C 536 231.588, 535.479 230.923, 533.250 230.430 C 531.737 230.096, 527.876 229.187, 524.669 228.411 C 516.454 226.423, 516.653 226.326, 517.398 231.942 M 611.659 243.569 C 604.913 245.409, 602.265 247.401, 599.790 252.496 C 597.670 256.858, 597.668 256.937, 599.530 261.066 C 601.438 265.297, 606.462 269.325, 611.367 270.556 C 613.843 271.177, 613.899 271.390, 613.857 280.046 L 613.815 288.901 608.658 290.563 C 596.751 294.402, 588.637 300.504, 580.250 311.926 C 576.016 317.693, 575.797 322.981, 579.646 326.548 C 583.178 329.821, 585.258 329.639, 588.784 325.750 C 590.405 323.962, 593.612 320.402, 595.911 317.839 C 602.599 310.381, 615.193 305.462, 624.500 306.673 C 627.250 307.031, 631.569 308.283, 634.098 309.454 C 638.624 311.551, 647 318.011, 647 319.405 C 647 321.126, 653.479 327.956, 656.168 329.070 C 658.738 330.134, 659.481 330.033, 661.814 328.299 C 663.347 327.159, 664.641 325.109, 664.829 323.522 C 665.119 321.068, 661.136 310.391, 658.871 307.553 C 658.408 306.974, 656.878 305.061, 655.470 303.302 C 652.115 299.111, 644.189 293.336, 640.532 292.419 C 638.938 292.019, 636.478 291.088, 635.067 290.352 C 633.655 289.615, 631.038 289.010, 629.250 289.006 L 626 289 626 280.207 L 626 271.415 630.555 270.196 C 636.519 268.601, 640.735 265.408, 643.179 260.634 C 646.482 254.184, 643.976 248.542, 636.015 244.508 C 631.971 242.458, 629.735 242.023, 623.783 242.124 C 619.777 242.192, 614.321 242.843, 611.659 243.569 M 827.671 341.970 C 821.221 344.031, 818.464 346.048, 817.618 349.324 C 817.309 350.521, 815.676 352.276, 813.990 353.225 C 810.911 354.958, 807.064 361.694, 807.022 365.429 C 806.991 368.119, 808.851 373.606, 811.790 379.500 C 813.162 382.250, 814.960 385.850, 815.785 387.500 C 816.611 389.150, 818.074 391.400, 819.038 392.500 C 820.001 393.600, 821.635 396.075, 822.669 398 C 823.703 399.925, 825.301 402.625, 826.219 404 C 827.137 405.375, 829.311 409.875, 831.049 414 C 832.788 418.125, 835.288 422.932, 836.605 424.683 C 837.922 426.434, 839 428.472, 839 429.211 C 839 431.873, 844.251 446.635, 847.462 453 C 852.122 462.238, 858.509 478.540, 859.998 485 C 860.696 488.025, 862.531 494.775, 864.077 500 C 866.470 508.087, 871.468 528.514, 875.087 545 C 876.167 549.919, 880.352 575.067, 882.076 587 C 882.672 591.125, 883.553 596.525, 884.034 599 C 884.515 601.475, 885.403 609.575, 886.006 617 C 886.610 624.425, 887.274 631.850, 887.482 633.500 C 889.451 649.160, 890.064 657.714, 890.583 676.748 C 891.168 698.191, 889.924 729.393, 888.022 741 C 887.527 744.025, 886.610 750.550, 885.986 755.500 C 885.362 760.450, 884.416 766.459, 883.885 768.854 C 883.354 771.248, 882.013 778.448, 880.907 784.854 C 876.255 811.774, 860.754 868.798, 858.889 865.854 C 858.417 865.109, 858.024 863.690, 858.015 862.700 C 857.992 860.001, 855.238 855.198, 853.038 854.020 C 851.500 853.197, 850.691 853.416, 849.150 855.070 C 848.079 856.218, 846.979 858.360, 846.704 859.829 C 846.430 861.298, 844.980 865.875, 843.484 870 C 841.987 874.125, 840.411 879.075, 839.980 881 C 839.550 882.925, 838.284 888.100, 837.167 892.500 C 832.600 910.492, 828 931.003, 828 933.375 C 828 934.765, 827.289 938.512, 826.421 941.701 C 824.874 947.377, 824.399 949.978, 820.057 976.500 C 818.886 983.650, 817.500 991.750, 816.975 994.500 C 815.960 999.829, 813.767 1012.789, 811.393 1027.500 C 810.594 1032.450, 809.498 1040.325, 808.958 1045 C 808.418 1049.675, 807.544 1055.750, 807.016 1058.500 C 806.488 1061.250, 805.131 1069.800, 804 1077.500 C 802.869 1085.200, 801.472 1093.876, 800.894 1096.779 C 800.316 1099.682, 799.187 1106.207, 798.384 1111.279 C 797.582 1116.351, 796.527 1122.975, 796.041 1126 C 795.555 1129.025, 794.402 1136.675, 793.478 1143 C 792.554 1149.325, 791.281 1155.030, 790.649 1155.677 C 788.945 1157.424, 749.725 1159.225, 744.161 1157.813 C 741.014 1157.014, 739.222 1157.033, 737.350 1157.886 C 734.705 1159.092, 725 1158.385, 725 1156.987 C 725 1156.014, 735.771 1150.913, 743.500 1148.225 C 746.800 1147.078, 751.075 1145.594, 753 1144.928 C 760.787 1142.233, 763.994 1140.635, 766.087 1138.408 C 768.016 1136.354, 768.203 1135.383, 767.621 1130.430 C 767.256 1127.328, 766.517 1123.967, 765.979 1122.961 C 765.441 1121.955, 765 1119.671, 765 1117.887 C 765 1116.102, 764.579 1113.260, 764.064 1111.571 C 763.023 1108.155, 760.505 1097.664, 758.526 1088.500 C 757.814 1085.200, 756.693 1080.475, 756.035 1078 C 754.412 1071.888, 752.256 1059.308, 751.044 1048.869 C 750.492 1044.122, 749.544 1038.947, 748.936 1037.369 C 748.328 1035.791, 747.006 1030.900, 745.999 1026.500 C 744.992 1022.100, 743.714 1017.150, 743.159 1015.500 C 742.605 1013.850, 741.678 1009.850, 741.099 1006.610 C 740.520 1003.371, 739.337 999.637, 738.469 998.313 C 735.982 994.517, 731.013 992.008, 725.973 992.004 C 723.482 992.002, 720.448 991.302, 719.229 990.448 C 715.270 987.675, 707.072 985.735, 704.134 986.877 C 702.685 987.439, 697 988.856, 691.500 990.025 C 686 991.194, 678.575 992.800, 675 993.594 C 654.994 998.041, 643.848 998.950, 625.719 997.614 C 620.890 997.258, 614.365 997.379, 611.219 997.884 C 607.862 998.423, 601.164 998.448, 595 997.944 C 566.915 995.650, 555.525 993.642, 549.382 989.899 C 547.667 988.855, 544.510 988, 542.367 988 C 540.224 988, 536.791 987.100, 534.739 986 C 530.031 983.477, 527.576 983.481, 523.469 986.019 C 518.755 988.932, 518.551 989.553, 509.462 1028.500 C 505.873 1043.880, 503.173 1058.546, 502.008 1069 C 501.426 1074.225, 500.505 1080.975, 499.962 1084 C 499.419 1087.025, 498.325 1094.900, 497.531 1101.500 C 492.569 1142.736, 491.070 1154.264, 490.607 1154.726 C 489.344 1155.989, 473.469 1157.144, 452.651 1157.488 C 439.534 1157.704, 426.484 1158.148, 423.651 1158.473 C 420.685 1158.815, 417.864 1158.625, 417 1158.026 C 415.721 1157.139, 415.868 1156.688, 418 1154.965 C 422.058 1151.686, 437.400 1145.447, 444 1144.392 C 445.925 1144.084, 447.928 1143.420, 448.450 1142.916 C 448.973 1142.412, 450.154 1142, 451.076 1142 C 453.687 1142, 463.321 1137.443, 465.098 1135.367 C 467.961 1132.023, 467.934 1130.261, 464.862 1119.809 C 463.196 1114.139, 460.957 1105.733, 459.887 1101.129 C 458.817 1096.525, 457.504 1091.942, 456.970 1090.945 C 456.437 1089.948, 456 1088.034, 456 1086.693 C 456 1085.352, 454.916 1080.935, 453.592 1076.878 C 452.267 1072.820, 450.446 1066.575, 449.545 1063 C 448.095 1057.251, 445.942 1050.060, 442.808 1040.500 C 441.211 1035.629, 439.929 1030.809, 438.895 1025.792 C 438.361 1023.202, 437.269 1019.827, 436.468 1018.292 C 435.668 1016.756, 435.010 1014.539, 435.006 1013.365 C 435.003 1012.190, 434.360 1009.040, 433.577 1006.365 C 432.795 1003.689, 431.594 998.800, 430.909 995.500 C 430.223 992.200, 428.779 987.250, 427.699 984.500 C 425.892 979.899, 424.314 974.050, 422.001 963.375 C 420.947 958.512, 417.319 946.564, 415.814 943 C 415.233 941.625, 413.973 937.350, 413.014 933.500 C 410.766 924.476, 407.146 918.733, 392.500 900.952 C 383.825 890.421, 379.812 885.096, 376.709 880 C 375.201 877.525, 373.538 874.825, 373.013 874 C 371.386 871.445, 362.886 852.770, 360.952 847.500 C 359.943 844.750, 358.399 838.952, 357.522 834.616 C 356.645 830.280, 355.569 826.005, 355.130 825.116 C 354.370 823.575, 352.823 813.869, 351.447 802 C 351.096 798.975, 350.639 792.322, 350.431 787.217 C 350.224 782.111, 349.676 774.461, 349.214 770.217 C 348.206 760.966, 348.383 752.668, 350.220 723 C 350.986 710.625, 351.615 698.250, 351.617 695.500 C 351.625 683.317, 358.337 618.909, 360.735 608 C 361.110 606.294, 361.671 608.041, 362.503 613.500 C 363.746 621.657, 367.297 631.355, 371.427 637.870 C 374.755 643.119, 382.793 650.216, 388 652.502 C 390.475 653.589, 393.299 655.469, 394.276 656.680 C 395.253 657.891, 397.053 659.174, 398.276 659.531 C 399.499 659.889, 403.425 661.325, 407 662.723 C 419.360 667.556, 428.104 669.792, 443 671.929 C 446.575 672.442, 453.325 673.562, 458 674.418 C 462.675 675.275, 469.650 675.875, 473.500 675.752 C 477.350 675.629, 486.350 675.875, 493.500 676.299 C 504.014 676.922, 507.552 676.771, 512 675.509 C 515.025 674.651, 520.200 673.559, 523.500 673.083 C 536.613 671.191, 564.703 663.756, 571.331 660.424 C 572.888 659.641, 575.412 659, 576.940 659 C 578.468 659, 582.248 657.650, 585.340 656 C 588.432 654.350, 592.125 653, 593.547 653 C 594.968 653, 597.029 652.519, 598.127 651.932 C 599.712 651.084, 601.704 651.527, 607.811 654.086 C 616.696 657.809, 619.433 658.690, 638.747 664.048 C 646.582 666.222, 654.051 668, 655.343 668 C 656.635 668, 659.076 668.690, 660.766 669.533 C 662.456 670.376, 666.238 671.209, 669.170 671.384 C 674.924 671.727, 684.922 673.381, 694.500 675.577 C 702.763 677.470, 739.042 678.370, 747.751 676.897 C 764.927 673.991, 769.143 672.998, 778.364 669.683 C 793.072 664.396, 812.881 652.293, 821.483 643.338 C 827.668 636.899, 833.295 630.154, 835.500 626.534 C 843.089 614.079, 848 605.739, 848 605.307 C 848 605.029, 848.655 603.384, 849.455 601.651 C 854.709 590.267, 858.628 574.160, 857.546 568.392 C 857.073 565.873, 856.269 564.855, 854.379 564.380 C 850.407 563.383, 847.184 565.856, 843.874 572.440 C 841.147 577.865, 838.082 583.565, 833.893 591 C 827.026 603.191, 811.173 621.037, 803 625.779 C 800.525 627.215, 797.075 629.452, 795.334 630.750 C 790.977 633.997, 778.894 639.993, 776.700 639.997 C 775.711 639.999, 773.588 640.679, 771.984 641.508 C 769.269 642.912, 763.522 644.382, 750 647.129 C 743.228 648.504, 703.885 646.588, 694.164 644.409 C 690.679 643.628, 687.454 643.219, 686.998 643.502 C 686.541 643.784, 684.893 643.518, 683.334 642.911 C 681.775 642.304, 677.125 641.686, 673 641.538 C 668.875 641.391, 662.575 640.535, 659 639.637 C 655.425 638.740, 651.263 637.771, 649.750 637.484 C 648.237 637.197, 647 636.626, 647 636.215 C 647 635.805, 653.862 633.088, 662.250 630.178 C 670.638 627.268, 679.525 624.044, 682 623.013 C 687.878 620.565, 698.407 616.858, 709 613.506 C 713.675 612.027, 720.231 609.058, 723.570 606.908 C 726.908 604.759, 730.181 603, 730.842 603 C 732.820 603, 740.707 595.165, 745.522 588.417 C 754.712 575.538, 759.734 559.728, 762.520 534.900 C 764.901 513.676, 762.488 498.913, 756.385 497.382 C 750.484 495.901, 746.161 501.847, 744.613 513.574 C 744.328 515.733, 743.623 519.975, 743.046 523 C 742.470 526.025, 741.594 531.004, 741.101 534.063 C 740.608 537.123, 738.964 543.761, 737.448 548.813 C 735.359 555.774, 734.273 558, 732.968 558 C 732.020 558, 730.685 557.325, 730 556.500 C 729.315 555.675, 727.888 555, 726.828 555 C 725.768 555, 723.686 554.400, 722.200 553.667 C 719.392 552.280, 713.087 550.859, 702 549.112 C 694.328 547.904, 673.809 548.343, 662.500 549.958 C 658.100 550.587, 650.900 551.520, 646.500 552.032 C 635.482 553.315, 629.007 554.504, 625.685 555.855 C 624.137 556.485, 621.476 557, 619.773 557 C 618.069 557, 614.327 557.740, 611.457 558.645 C 605.750 560.444, 605.695 560.431, 589 553.478 C 585.975 552.218, 581.475 550.611, 579 549.908 C 576.525 549.205, 574.275 548.565, 574 548.487 C 573.725 548.409, 571.700 547.983, 569.500 547.541 C 567.300 547.099, 564.729 546.339, 563.788 545.853 C 561.922 544.891, 559.466 544.600, 538.500 542.853 C 527.595 541.944, 522.731 541.958, 516.500 542.914 C 512.100 543.590, 506.925 544.378, 505 544.667 C 499.311 545.518, 490.043 548.881, 481.646 553.139 C 474.223 556.903, 473.690 557.029, 471.932 555.438 C 470.909 554.513, 469.317 551.778, 468.394 549.362 C 465.077 540.677, 467.795 525.988, 476.386 506.161 C 478.374 501.575, 480 496.492, 480 494.866 C 480 491.576, 476.151 487, 473.383 487 C 467.537 487, 454.207 500.639, 448.089 512.880 C 442.068 524.926, 438.518 539.542, 439.519 548.165 C 441.448 564.787, 453.355 578.340, 474.420 587.891 C 478.191 589.601, 481.852 591, 482.556 591 C 483.260 591, 486.010 592.065, 488.668 593.367 C 491.326 594.669, 496.515 596.468, 500.201 597.366 C 508.419 599.367, 533.753 600.256, 543.500 598.885 C 549.508 598.039, 582.375 590.776, 593 587.946 C 601.347 585.722, 613.404 583, 614.887 583.004 C 615.774 583.007, 620.100 581.931, 624.500 580.613 C 645.382 574.360, 684.790 570.580, 703.172 573.068 C 709.951 573.985, 718.794 576.528, 720.365 578.013 C 721.609 579.188, 713.823 583.820, 706.873 586.041 C 703.605 587.085, 699.485 588.608, 697.716 589.425 C 693.968 591.157, 677.605 596.839, 664 601.132 C 658.775 602.781, 652.925 604.739, 651 605.483 C 640.426 609.572, 631.662 612.456, 614.500 617.495 C 609.550 618.948, 600.500 621.907, 594.390 624.069 C 588.279 626.231, 581.730 628, 579.836 628 C 577.942 628, 574.167 629.089, 571.446 630.420 C 568.726 631.752, 560.875 634.241, 554 635.953 C 547.125 637.664, 537.225 640.171, 532 641.523 C 526.775 642.875, 520.700 643.986, 518.500 643.991 C 516.300 643.997, 511.125 644.720, 507 645.598 C 500.950 646.886, 496.021 647.072, 481.500 646.560 C 462.862 645.903, 435.899 642.193, 429 639.336 C 427.075 638.539, 422.125 636.754, 418 635.369 C 413.875 633.984, 409.825 632.296, 409 631.619 C 408.175 630.941, 406.375 629.910, 405 629.326 C 403.625 628.743, 400.545 626.631, 398.155 624.633 C 395.766 622.635, 393.441 621, 392.989 621 C 392.537 621, 390.386 617.479, 388.210 613.176 C 383.081 603.036, 380.858 592.081, 380.512 575.247 C 380.234 561.680, 379.502 559, 376.078 559 C 375.155 559, 373.860 559.540, 373.200 560.200 C 371.696 561.704, 371.708 561.499, 373.435 556 C 376.546 546.099, 381.865 532.101, 385.215 525 C 387.161 520.875, 389.300 515.700, 389.968 513.500 C 391.071 509.865, 395.101 501.627, 410.676 471.168 C 413.582 465.486, 417.166 459.411, 418.640 457.668 C 420.115 455.926, 422.765 451.342, 424.529 447.483 C 426.294 443.623, 428.824 439.123, 430.151 437.483 C 433.771 433.009, 437.617 426.787, 438.492 423.987 C 439.208 421.696, 442.875 416.830, 450.500 408.052 C 457.039 400.524, 473.138 383.033, 474.041 382.474 C 475.510 381.567, 475.180 376.395, 473.569 375.057 C 471.058 372.973, 461.749 372.561, 458.234 374.379 C 456.510 375.271, 454.124 376, 452.932 376 C 451.738 376, 449.133 377.687, 447.132 379.756 C 432.783 394.593, 420.955 409.079, 415.549 418.437 C 413.980 421.152, 411.014 425.202, 408.958 427.437 C 406.902 429.672, 404.180 433.525, 402.909 436 C 401.638 438.475, 398.571 443.650, 396.094 447.500 C 387.680 460.573, 368.800 497.404, 363.484 511.113 C 361.482 516.276, 358.306 524.376, 356.426 529.114 C 354.546 533.852, 351.709 541.952, 350.121 547.114 C 345.397 562.471, 336.930 597.658, 334.989 610 C 330.741 637.009, 329.060 649.752, 327.011 670.500 C 325.815 682.600, 324.449 694.750, 323.974 697.500 C 322.320 707.084, 321.914 712.657, 321.107 736.879 C 320.081 767.699, 321.782 799.049, 325.646 820.500 C 327.624 831.482, 332.661 851.231, 334.701 856 C 337.011 861.401, 342 875.858, 342 877.150 C 342 877.785, 343.373 880.148, 345.052 882.402 C 346.730 884.656, 351.304 891.582, 355.216 897.792 C 362.354 909.125, 367.121 914.355, 381.992 927.175 L 389.483 933.633 391.113 944.567 C 392.009 950.580, 393.287 959.325, 393.953 964 C 394.619 968.675, 395.862 975.425, 396.714 979 C 397.567 982.575, 398.595 987.975, 399 991 C 399.405 994.025, 400.449 999.425, 401.321 1003 C 404.766 1017.122, 412 1051.706, 411.996 1054.033 C 411.994 1055.390, 413.119 1060.100, 414.495 1064.500 C 415.872 1068.900, 418.561 1078.929, 420.469 1086.787 C 422.378 1094.646, 424.853 1103.140, 425.970 1105.665 C 427.086 1108.189, 428 1111.267, 428 1112.505 C 428 1113.743, 428.675 1116.371, 429.500 1118.346 C 430.325 1120.320, 431 1123.016, 431 1124.336 C 431 1126.425, 430.195 1126.962, 424.800 1128.476 C 421.391 1129.433, 417.678 1130.795, 416.550 1131.504 C 415.423 1132.212, 413.381 1133.128, 412.013 1133.538 C 409.402 1134.323, 402.208 1138.636, 400.500 1140.443 C 399.950 1141.024, 397.797 1142.773, 395.715 1144.328 C 393.633 1145.883, 390.555 1149.592, 388.874 1152.569 L 385.820 1157.981 375.160 1157.931 C 369.297 1157.903, 361.205 1157.429, 357.178 1156.877 C 352.242 1156.201, 339.041 1156.217, 316.678 1156.926 C 267.700 1158.481, 256.886 1160.148, 256.184 1166.251 C 255.940 1168.368, 256.399 1169.195, 258.184 1169.854 C 259.458 1170.325, 270.175 1171.445, 282 1172.344 C 299.622 1173.684, 305.755 1173.774, 316 1172.846 C 325.249 1172.008, 331.621 1172.004, 340.500 1172.830 C 358.180 1174.475, 388.611 1175.192, 442 1175.221 C 509.762 1175.258, 554.631 1174.467, 560.500 1173.131 C 564.007 1172.333, 577.741 1172.146, 606.500 1172.504 C 629.050 1172.784, 649.525 1173.077, 652 1173.155 C 654.475 1173.233, 667.075 1173.196, 680 1173.074 C 696.902 1172.915, 707.290 1173.315, 717 1174.500 C 728.592 1175.914, 735.731 1176.031, 767.500 1175.324 C 787.850 1174.871, 809 1174.566, 814.500 1174.648 C 820 1174.729, 840.925 1174.730, 861 1174.650 C 915.225 1174.435, 927.717 1174.544, 947.282 1175.401 C 959.645 1175.942, 967.722 1175.813, 973.782 1174.979 C 978.577 1174.319, 995.325 1173.645, 1011 1173.480 C 1054.884 1173.019, 1067.082 1171.140, 1067.819 1164.728 C 1068.366 1159.960, 1064.592 1159.190, 1032.288 1157.482 C 1016.454 1156.645, 996.862 1155.697, 988.750 1155.376 C 975.956 1154.870, 974.001 1154.574, 974.008 1153.146 C 974.012 1152.241, 975.878 1150.436, 978.153 1149.136 C 988.222 1143.385, 997.212 1132.047, 999.587 1122.104 C 1002.828 1108.540, 1002.560 1098.755, 998.424 1079.538 C 996.675 1071.416, 990.829 1055.252, 987.560 1049.500 C 986.310 1047.300, 982.677 1039.650, 979.487 1032.500 C 976.297 1025.350, 971.667 1015.675, 969.197 1011 C 948.125 971.103, 941.692 957.990, 929.950 931 C 928.156 926.875, 925.921 922.375, 924.984 921 C 922.883 917.917, 906.475 883.445, 905.468 880 C 905.067 878.625, 903.111 874.350, 901.122 870.500 C 897.676 863.829, 897.506 863.029, 897.503 853.500 C 897.500 844.221, 897.841 842.486, 902.229 829.441 C 908.109 811.960, 911.318 799.547, 913.458 786 C 914.371 780.225, 915.758 772.125, 916.540 768 C 920.351 747.903, 923.201 680.946, 920.942 664.569 C 919.545 654.435, 917.232 634.794, 915.459 618 C 914.617 610.025, 913.270 599.841, 912.464 595.368 C 911.659 590.896, 911 584.694, 911 581.587 C 911 578.479, 910.064 573.158, 908.919 569.761 C 907.775 566.364, 906.196 559.290, 905.411 554.042 C 904.626 548.794, 903.343 542.475, 902.561 540 C 901.778 537.525, 900.827 533.475, 900.448 531 C 900.068 528.525, 898.687 524.377, 897.379 521.783 C 896.071 519.189, 895 516.399, 895 515.584 C 895 514.330, 891.869 504.345, 881.491 472.500 C 880.595 469.750, 878.928 465.475, 877.786 463 C 876.645 460.525, 874.937 456.475, 873.990 454 C 869.624 442.583, 863.032 427.169, 861.158 423.992 C 860.021 422.065, 858.437 417.687, 857.638 414.263 C 856.840 410.839, 855.140 406.341, 853.861 404.269 C 850.053 398.099, 839.272 381.800, 836.154 377.500 C 831.649 371.287, 830.766 369.061, 831.421 365.570 C 831.753 363.799, 833.360 361.071, 834.993 359.507 C 837.931 356.692, 838.028 356.674, 844.730 357.720 C 850.545 358.627, 851.923 358.537, 854.497 357.084 C 858.623 354.754, 858.697 352.702, 854.820 348.041 C 852.382 345.110, 849.921 343.511, 845.556 342.024 C 838.331 339.564, 835.231 339.554, 827.671 341.970 M 783.997 346.504 C 783.302 347.342, 782.552 351.884, 782.306 356.754 C 781.923 364.325, 782.140 365.937, 783.917 368.750 C 786.303 372.526, 790.625 373.177, 793.345 370.171 C 796.263 366.947, 795.198 350.663, 791.832 347.050 C 789.587 344.640, 785.765 344.374, 783.997 346.504 M 442 354.395 C 431.581 358.047, 424 362.615, 424 365.241 C 424 366.208, 423.618 367, 423.152 367 C 422.685 367, 421.499 368.785, 420.515 370.967 C 418.872 374.609, 418.855 375.130, 420.306 377.345 C 422.485 380.670, 427.389 381.276, 432.877 378.897 C 435.285 377.854, 437.915 377, 438.723 377 C 439.530 377, 441.386 376.166, 442.846 375.146 C 444.306 374.127, 449.929 371.123, 455.342 368.470 C 460.755 365.818, 465.853 362.628, 466.669 361.382 C 468.710 358.268, 467.994 354.799, 465 353.290 C 460.961 351.254, 449.375 351.811, 442 354.395 M 615.351 359.586 C 611.871 364.898, 611.829 370.962, 615.151 388.500 C 617.029 398.418, 622.488 401.975, 627.043 396.250 C 629.078 393.692, 629.187 392.801, 628.592 383.500 C 627.860 372.054, 626.025 363.213, 623.617 359.538 C 621.403 356.159, 617.582 356.181, 615.351 359.586 M 731.495 360.357 C 730.154 363.567, 730.202 372.568, 731.608 381.806 C 732.639 388.572, 739.370 391.418, 742.618 386.460 C 745.493 382.073, 744.096 365.202, 740.364 359.250 C 739.407 357.723, 737.981 357, 735.926 357 C 733.435 357, 732.649 357.596, 731.495 360.357 M 502.820 361.750 C 500.437 364.548, 499.054 368.966, 498.063 376.947 C 496.949 385.918, 498.344 390.546, 502.474 391.583 C 508.152 393.008, 511.235 386.212, 511.401 371.907 C 511.508 362.585, 510.452 360, 506.533 360 C 505.310 360, 503.639 360.788, 502.820 361.750 M 535.015 365.831 C 532.859 367.987, 532.018 370.011, 531.476 374.345 C 530.687 380.660, 531.729 396.715, 532.979 397.487 C 533.419 397.759, 534.088 399.223, 534.467 400.741 C 535.951 406.687, 541.813 409.075, 545.345 405.171 C 547.497 402.793, 547.432 399.295, 545.003 386.785 C 543.905 381.128, 543.005 374.558, 543.003 372.184 C 542.997 364.034, 539.552 361.294, 535.015 365.831 M 647.872 393.660 C 645.674 396.319, 646.034 421.955, 648.365 428.760 C 650.933 436.254, 656.318 438.497, 659.625 433.450 C 661.030 431.305, 661.195 429.277, 660.660 420.700 C 659.918 408.795, 656.881 394.171, 654.888 392.910 C 652.672 391.506, 649.360 391.861, 647.872 393.660 M 785.994 397.507 C 783.007 401.106, 788.955 425.614, 793.546 428.622 C 795.804 430.101, 796.200 430.099, 798.500 428.592 C 800.968 426.975, 801.408 425.378, 801.007 419.500 C 800.683 414.739, 796.197 401.520, 793.926 398.633 C 791.622 395.704, 787.926 395.179, 785.994 397.507 M 745.073 410.635 C 743.933 412.084, 742.966 413.772, 742.923 414.385 C 742.881 414.998, 742.685 416.364, 742.487 417.421 C 742.289 418.477, 741.600 425.227, 740.955 432.421 C 739.192 452.109, 740.879 464.588, 745.545 466.379 C 751.728 468.751, 755.729 464.980, 757.069 455.516 C 758.510 445.339, 758.484 429.401, 757.011 421 C 754.995 409.495, 749.632 404.839, 745.073 410.635 M 700.405 411.110 C 698.727 412.968, 698.503 414.827, 698.526 426.718 L 698.552 440.218 701.332 442.609 C 704.803 445.595, 705.502 445.589, 708.545 442.545 C 710.698 440.393, 711 439.203, 711 432.877 C 711 414.515, 706.212 404.679, 700.405 411.110 M 486.837 411.914 C 483.563 414.489, 478.079 426.541, 477.339 432.784 C 476.842 436.986, 477.078 438.078, 478.875 439.875 C 481.627 442.627, 484.586 442.578, 486.386 439.750 C 488.754 436.028, 494.168 418.320, 493.822 415.425 C 493.645 413.941, 492.558 412.105, 491.407 411.346 C 489.573 410.135, 489.009 410.205, 486.837 411.914 M 561.730 433.750 C 558.835 436.957, 557.702 444.485, 558.258 456.813 C 558.896 470.937, 560.391 476.064, 564.272 477.428 C 566.564 478.233, 567.411 478.033, 569.172 476.272 C 571.143 474.301, 571.289 473.191, 571.132 461.322 C 570.835 438.732, 569.457 432, 565.132 432 C 564.130 432, 562.599 432.788, 561.730 433.750 M 444.057 443.920 C 441.017 448.189, 436.343 457.991, 435.523 461.816 C 434.175 468.105, 438.496 473.410, 443.003 470.999 C 444.602 470.143, 451.640 452.571, 452.719 446.741 C 453.809 440.851, 447.666 438.851, 444.057 443.920 M 814.347 444.594 C 812.758 447.018, 812.751 448.175, 814.237 462.344 C 816.105 480.164, 816.700 483.078, 818.807 484.750 C 821.202 486.650, 824.691 486.249, 826.961 483.811 C 828.656 481.992, 829 480.291, 829 473.728 C 829 466.385, 826.557 453.625, 823.827 446.712 C 821.804 441.589, 817.017 440.519, 814.347 444.594 M 504.635 467.250 C 501.526 472.205, 500.749 477.182, 501.250 488.943 C 501.592 496.969, 502.257 501.597, 503.384 503.775 C 506.442 509.689, 511.750 510.367, 514.380 505.179 C 515.451 503.067, 515.551 500.172, 514.854 491.500 C 514.367 485.450, 513.950 478.286, 513.928 475.580 C 513.888 470.682, 512.696 467.164, 510.600 465.765 C 508.529 464.382, 506.046 465, 504.635 467.250 M 592.226 470.250 C 589.005 474.203, 587.860 491.336, 590.409 497.436 C 592.806 503.173, 599.194 503.039, 600.664 497.221 C 601.584 493.582, 601.584 483.588, 600.665 477.896 C 599.566 471.095, 594.948 466.910, 592.226 470.250 M 783.557 471.223 C 781.687 473.892, 781.493 484.728, 783.038 500.144 C 784.320 512.929, 784.453 513.369, 787.517 515.009 C 790.587 516.652, 794.189 515.076, 795.890 511.343 C 797.530 507.743, 797.238 491.950, 795.378 483.697 C 793.477 475.262, 791.715 471.453, 789.055 470.030 C 786.255 468.531, 785.296 468.739, 783.557 471.223 M 644.680 473.245 C 641.696 475.427, 640.405 486.243, 641.718 498.070 C 642.929 508.987, 644.444 512, 648.721 512 C 655.716 512, 657.071 506.733, 654.589 489.194 C 652.503 474.455, 649.542 469.689, 644.680 473.245 M 417.932 487.730 C 411.924 494.573, 405.636 510.643, 406.729 516.362 C 407.402 519.881, 410.368 522.335, 412.955 521.514 C 416.469 520.399, 417.826 517.550, 426.147 493.815 C 427.700 489.383, 427.896 487.674, 427.035 486.065 C 425.301 482.826, 421.652 483.494, 417.932 487.730 M 724.400 493.765 C 722.093 495.306, 720.778 499.589, 718.428 513.219 C 717.093 520.963, 716 528.132, 716 529.150 C 716 531.727, 719.539 535, 722.326 535 C 726.765 535, 729.127 530.672, 732.090 517.109 C 733.657 509.932, 732.716 497.448, 730.415 494.906 C 728.629 492.933, 726.306 492.492, 724.400 493.765 M 844.976 498.024 C 843.889 499.111, 842.995 500.563, 842.988 501.250 C 842.945 505.770, 846.291 535.920, 847.038 537.750 C 848.400 541.085, 854.354 540.915, 856.607 537.477 C 859.641 532.847, 857.174 509.203, 852.713 500.158 C 850.929 496.540, 847.426 495.574, 844.976 498.024 M 790.317 543.783 C 788.442 544.975, 786.194 553.010, 786.110 558.819 C 786.067 561.744, 785.780 564.546, 785.472 565.046 C 785.163 565.545, 785.403 567.784, 786.006 570.021 C 787.771 576.578, 794.028 577.552, 797.132 571.754 C 798.855 568.534, 799.898 555.493, 798.817 550.683 C 797.386 544.310, 793.916 541.494, 790.317 543.783 M 404.132 548.341 C 402.493 550.316, 399.756 565.896, 400.519 568.909 C 400.879 570.334, 401.335 573.075, 401.531 575 C 402.376 583.303, 407.487 589.932, 411.952 588.515 C 415.453 587.404, 416.242 584.575, 415.110 577.189 C 414.546 573.510, 413.777 566.225, 413.400 561 C 412.517 548.749, 411.861 547, 408.147 547 C 406.551 547, 404.744 547.604, 404.132 548.341 M 826.364 556.457 C 825.220 557.259, 823.721 560.071, 823.033 562.707 C 820.776 571.353, 818.672 577.252, 814.965 585.324 C 812.469 590.761, 812.163 594.287, 813.997 596.497 C 817.318 600.498, 824.568 595.467, 828.834 586.201 C 834.466 573.970, 835.702 559.756, 831.416 556.514 C 829.010 554.693, 828.886 554.691, 826.364 556.457 M 525 562.193 C 515.731 563.761, 503.708 566.748, 499.549 568.516 C 496.048 570.003, 495.808 570.313, 497.442 571.228 C 499.548 572.406, 511.439 575.425, 517.719 576.375 C 526.058 577.637, 560.418 573.327, 570.374 569.770 L 574.247 568.386 565.374 566.064 C 556.514 563.746, 539.175 561.104, 533.500 561.208 C 531.850 561.238, 528.025 561.681, 525 562.193 M 862.303 588.250 C 860.593 590.518, 856.323 607.480, 855.311 616.019 C 854.839 620.010, 855.083 621.435, 856.514 623.015 C 862.538 629.672, 868.801 619.369, 869.751 601.238 C 870.220 592.288, 870.058 590.722, 868.489 588.988 C 866.446 586.730, 863.696 586.402, 862.303 588.250 M 450.200 600.200 C 447.867 602.533, 448.867 608.264, 452.288 612.157 C 455.754 616.103, 464.227 621.815, 470.508 624.439 C 475.281 626.433, 479.496 625.146, 480.434 621.406 C 481.673 616.469, 477.797 612.480, 462.034 602.471 C 456.399 598.893, 452.295 598.105, 450.200 600.200 M 770.500 607.438 C 747.318 616.477, 736.754 625.611, 742.654 631.511 C 744.797 633.654, 748.273 633.002, 759.124 628.419 C 776.317 621.159, 782.576 616.778, 783.607 611.283 C 784.142 608.430, 783.901 607.401, 782.450 606.340 C 779.923 604.492, 777.477 604.717, 770.500 607.438 M 854.219 652.448 C 852.929 654.088, 851.762 658.463, 850.685 665.698 C 847.892 684.451, 846.698 696.661, 847.388 699.410 C 848.737 704.783, 856.225 705.358, 859.513 700.340 C 861.733 696.952, 864.927 678.776, 864.969 669.299 C 865.010 659.877, 863.350 652.258, 860.981 650.990 C 858.064 649.429, 856.294 649.811, 854.219 652.448 M 374.053 681.765 C 371.008 684.242, 368.995 695.146, 369.024 709 C 369.059 725.408, 371.324 734.541, 375.627 735.621 C 381.761 737.161, 385.639 733.274, 383.721 727.509 C 383.170 725.854, 382.607 715.605, 382.469 704.734 C 382.212 684.425, 381.963 683.121, 377.925 680.960 C 376.690 680.299, 375.568 680.532, 374.053 681.765 M 806.138 704.750 C 803.369 707.076, 797.321 729.332, 796.411 740.540 C 795.848 747.479, 796.018 749.379, 797.388 751.469 C 800.842 756.741, 807.339 753.739, 809.900 745.688 C 811.946 739.255, 814.626 715.823, 814.124 708.750 C 813.992 706.890, 810.601 703, 809.111 703 C 808.622 703, 807.284 703.788, 806.138 704.750 M 526.502 707.998 C 523.075 711.785, 522.347 738.602, 525.507 744.661 C 526.321 746.222, 526.990 747.900, 526.994 748.390 C 527.005 749.971, 530.426 751.936, 533.227 751.968 C 537.855 752.022, 539.203 748.629, 538.644 738.331 C 537.815 723.078, 535.872 709.617, 534.229 707.750 C 532.182 705.423, 528.732 705.533, 526.502 707.998 M 637.817 711.022 C 636.892 711.573, 635.379 714.606, 634.456 717.762 C 632.245 725.317, 632.944 739.853, 635.965 749.155 C 637.741 754.622, 638.650 756.027, 641.057 757.024 C 643.514 758.041, 644.401 757.967, 646.539 756.567 C 650.202 754.166, 651.316 750.534, 650.071 745.049 C 649.503 742.547, 648.560 734.875, 647.977 728 C 647.196 718.798, 646.439 714.840, 645.108 713 C 643.106 710.233, 640.383 709.494, 637.817 711.022 M 448.330 722.620 C 444.472 728.507, 442.821 757.628, 445.490 772.713 C 447.327 783.099, 448.935 786.926, 452.844 790.215 C 455.308 792.288, 456.541 792.684, 458.730 792.104 C 463.415 790.864, 464.200 787.618, 461.905 778.978 C 460.380 773.238, 459.806 767.083, 459.433 752.500 C 458.808 728.015, 458.419 724.120, 456.376 721.863 C 453.946 719.178, 450.364 719.515, 448.330 722.620 M 850.614 745.293 C 848.859 746.577, 848.447 748.535, 843.426 779.500 C 841.700 790.148, 839.854 797.826, 837.345 804.799 C 836.075 808.327, 836.017 809.628, 837.025 812.061 C 838.253 815.025, 841.212 816.491, 844.636 815.832 C 848.125 815.160, 853.851 803.752, 856.089 793.014 C 859.667 775.850, 860.513 764.677, 859.028 754.195 C 857.788 745.439, 854.775 742.251, 850.614 745.293 M 749.352 774.048 C 748.171 774.495, 746.935 775.296, 746.606 775.828 C 745.576 777.496, 740.950 806.099, 740.311 814.757 C 739.787 821.855, 739.955 823.293, 741.506 825.007 C 743.764 827.502, 749.116 827.634, 751.275 825.248 C 755.121 820.999, 756.875 810.972, 757.129 791.789 C 757.314 777.740, 756.935 776.078, 753.082 774.064 C 752.212 773.609, 750.534 773.602, 749.352 774.048 M 382.400 780.765 C 378.268 783.524, 376.918 798.844, 379.367 815.172 C 381.845 831.690, 386.293 841.246, 392.095 842.521 C 394.518 843.053, 395.688 842.703, 397.652 840.857 C 400.423 838.254, 400.410 838.081, 396.617 827.375 C 394.114 820.310, 392.858 812.529, 391.190 793.758 C 390.558 786.640, 389.835 783.475, 388.507 782.008 C 386.638 779.943, 384.334 779.474, 382.400 780.765 M 806.151 782.861 C 803.738 784.434, 795 815.813, 795 822.907 C 795 832.020, 805.165 832.223, 808.080 823.168 C 808.729 821.151, 809.654 819.001, 810.135 818.392 C 810.616 817.783, 811.907 813.773, 813.005 809.482 C 815.255 800.682, 815.600 788.751, 813.712 785 C 812.393 782.380, 808.555 781.294, 806.151 782.861 M 543.756 797.750 C 540.302 801.379, 539.297 809.898, 540.989 821.213 C 543.464 837.764, 546.848 846.243, 551.438 847.395 C 554.788 848.236, 556.828 847.232, 558.554 843.895 C 559.878 841.334, 559.831 839.686, 558.102 828.266 C 557.039 821.245, 555.855 812.022, 555.469 807.771 C 554.890 801.383, 554.331 799.604, 552.248 797.521 C 549.013 794.285, 547.003 794.340, 543.756 797.750 M 822.052 853.757 C 819.419 855.889, 812.015 876.836, 812.006 882.179 C 811.997 887.816, 815.522 890.397, 819.976 888.013 C 822.434 886.697, 826.025 880.760, 827.128 876.189 C 830.789 861.009, 831.034 858.966, 829.535 856.067 C 828.337 853.750, 826.182 852, 824.529 852 C 824.360 852, 823.245 852.791, 822.052 853.757 M 695.035 857.315 C 693.749 857.967, 692.367 859.175, 691.964 860 C 688.820 866.440, 688.706 867.221, 689.299 878.223 C 689.978 890.829, 692.345 902.603, 694.732 905.250 C 696.845 907.593, 701.533 907.467, 704 905 C 705.373 903.627, 706 901.667, 706 898.749 C 706 893.294, 702.228 860.177, 701.466 858.945 C 700.173 856.853, 697.355 856.139, 695.035 857.315 M 445.872 858.660 C 443.604 861.404, 444.164 876.206, 446.835 884.109 C 449.497 891.983, 453.903 899.235, 457.430 901.546 C 460.706 903.692, 464.697 902.759, 466.182 899.499 C 467.124 897.431, 466.665 895.465, 463.212 886.777 C 460.966 881.125, 458.142 872.683, 456.937 868.017 C 455.732 863.352, 454.015 858.979, 453.123 858.299 C 450.823 856.548, 447.481 856.714, 445.872 858.660 M 398.073 867.635 C 396.933 869.084, 396 870.867, 396 871.597 C 396 873.795, 400.152 884.313, 402.141 887.154 C 403.164 888.614, 404 890.197, 404 890.672 C 404 891.147, 406.041 893.665, 408.535 896.267 C 413.532 901.483, 417.394 902.432, 420.345 899.171 C 422.535 896.751, 422.437 893.533, 420.072 890.210 C 419.011 888.719, 415.911 883.450, 413.182 878.500 C 405.455 864.484, 402.323 862.232, 398.073 867.635 M 561 883.570 C 541.235 886.988, 530 891.541, 530 896.134 C 530 899.649, 531.890 901.839, 537.260 904.548 C 543.669 907.782, 548.974 908.037, 562.500 905.765 C 576.629 903.392, 582.002 901.556, 586.273 897.644 C 591.719 892.655, 591.076 887.272, 584.771 885.066 C 581.306 883.853, 565.216 882.841, 561 883.570 M 743.627 900.516 C 742.176 901.967, 741.676 903.374, 740.566 909.125 C 740.099 911.547, 741.890 930.117, 742.869 933 C 743.984 936.282, 746.573 945.043, 748.587 952.350 C 749.474 955.568, 751.055 959.055, 752.100 960.100 C 754.584 962.584, 759.065 962.520, 761.811 959.961 C 763.613 958.282, 763.997 956.825, 763.984 951.711 C 763.976 948.295, 763.323 943.025, 762.535 940 C 759.093 926.800, 756.812 918.290, 755.968 915.500 C 755.469 913.850, 754.796 910.700, 754.472 908.500 C 753.356 900.903, 747.530 896.613, 743.627 900.516 M 791.861 906.917 C 789.502 908.833, 789.500 908.853, 789.456 932.667 C 789.410 957.681, 790.241 969.381, 792.236 971.785 C 795.332 975.515, 801.586 974.511, 804.061 969.886 C 809.236 960.216, 805.029 913.938, 798.370 907.279 C 795.597 904.506, 794.879 904.467, 791.861 906.917 M 430.517 915.982 C 429.102 917.545, 428.856 918.931, 429.352 922.548 C 429.697 925.070, 430.660 928.104, 431.490 929.289 C 432.321 930.475, 433 932.194, 433 933.109 C 433 935.326, 440.696 946.767, 443.026 948.014 C 447.366 950.337, 452 948.014, 452 943.518 C 452 940.877, 441.293 919.772, 438.180 916.278 C 435.683 913.474, 432.883 913.366, 430.517 915.982 M 617.058 922.752 C 611.309 927.408, 614.374 942.940, 624.211 959 C 627.656 964.624, 636.983 974.940, 640.064 976.533 C 646.042 979.624, 652 977.351, 652 971.979 C 652 969.663, 644.910 956.680, 643 955.500 C 641.326 954.466, 634.110 941.436, 630.422 932.790 C 628.478 928.230, 626.350 923.967, 625.693 923.316 C 623.393 921.033, 619.495 920.778, 617.058 922.752 M 891.465 922.952 C 890.346 923.405, 888.829 924.502, 888.093 925.388 C 887.357 926.275, 886.132 927, 885.371 927 C 884.610 927, 883.020 928.112, 881.839 929.471 C 879.928 931.668, 867.931 938.175, 860.772 940.897 C 857.574 942.113, 856.239 946.044, 855.104 957.596 C 854.666 962.050, 854.036 966.133, 853.704 966.670 C 853.137 967.587, 850.003 981.621, 850.001 983.250 C 850 984.282, 853.730 984.191, 857.429 983.068 C 859.118 982.555, 862.525 981.616, 865 980.980 C 870.031 979.689, 872.145 978.826, 883.200 973.550 C 889.523 970.533, 892.135 968.502, 897.810 962.188 C 907.533 951.369, 909.185 947.237, 905.483 943 C 904.762 942.175, 902.084 937.112, 899.533 931.750 C 896.982 926.388, 894.580 922.029, 894.197 922.063 C 893.814 922.098, 892.584 922.498, 891.465 922.952 M 558.362 928.547 C 555.989 930.921, 555.863 931.514, 556.528 937.242 C 557.987 949.810, 563.570 960.926, 573.107 970.250 C 577.449 974.495, 579.726 976, 581.803 976 C 588.053 976, 590.516 970.533, 586.775 964.968 C 581.541 957.183, 575.758 946.369, 570.112 933.808 C 568.033 929.183, 564.821 926, 562.232 926 C 561.504 926, 559.763 927.146, 558.362 928.547 M 485.337 934.477 C 481.905 936.880, 481.819 940.006, 484.941 948.834 C 488.323 958.398, 493.633 966.584, 501.133 973.797 C 507.331 979.757, 511.912 981.295, 515.040 978.464 C 517.698 976.059, 517.506 973.722, 514.250 968.821 C 512.737 966.544, 510.825 963.669, 510 962.432 C 509.175 961.195, 505.868 955.529, 502.652 949.841 C 496.504 938.971, 491.673 933, 489.026 933 C 488.157 933, 486.496 933.665, 485.337 934.477 M 665.411 940.496 C 664.239 942.284, 663.965 944.055, 664.442 946.746 C 665.494 952.670, 668.142 959.117, 671.529 964 C 675.024 969.040, 679.409 970.448, 682.375 967.483 C 684.177 965.680, 684.528 961.928, 683.033 960.433 C 681.635 959.035, 675 945.183, 675 943.662 C 675 941.646, 671.126 938, 668.984 938 C 667.918 938, 666.310 939.123, 665.411 940.496 M 437.337 968.239 C 433.092 970.180, 432.881 978.348, 436.771 990.141 C 441.217 1003.621, 445.808 1010, 451.065 1010 C 452.747 1010, 456 1006.046, 456 1004.003 C 456 1002.904, 454.650 999.148, 453 995.656 C 451.350 992.164, 450 988.850, 450 988.292 C 450 986.257, 445.058 971.775, 443.879 970.354 C 441.858 967.919, 439.618 967.195, 437.337 968.239 M 464.267 969.250 C 462.589 971.395, 462.017 975.375, 462.938 978.500 C 467.288 993.256, 470.006 998.595, 474.349 1000.919 C 476.398 1002.016, 477.534 1002.078, 479.464 1001.198 C 482.994 999.590, 483.603 995.899, 481.186 990.776 C 480.076 988.424, 477.731 982.996, 475.975 978.712 C 474.219 974.429, 472.124 970.267, 471.320 969.462 C 469.529 967.672, 465.595 967.553, 464.267 969.250 M 493.378 986.545 C 491.960 988.709, 491.889 989.686, 492.900 993.062 C 494.101 997.068, 498.862 1004.870, 501.223 1006.700 C 504.192 1009.001, 506.133 1008.958, 508.556 1006.535 C 512.919 1002.171, 510.967 995.797, 502.803 987.750 C 498.348 983.360, 495.688 983.020, 493.378 986.545 M 929.025 1006.564 C 926.592 1011.274, 924.269 1015.334, 923.862 1015.585 C 923.455 1015.837, 921.730 1018.476, 920.028 1021.451 C 918.326 1024.426, 913.686 1030.117, 909.717 1034.097 C 902.422 1041.413, 895.485 1045.477, 882.592 1049.988 C 879.791 1050.968, 874.808 1052.762, 871.517 1053.975 C 867.422 1055.485, 864.380 1055.997, 861.875 1055.596 C 859.862 1055.274, 855.805 1055.473, 852.858 1056.039 C 849.911 1056.604, 845.925 1057.322, 844 1057.634 C 842.075 1057.945, 840.197 1058.689, 839.826 1059.286 C 839.455 1059.884, 838.627 1064.226, 837.986 1068.936 C 837.345 1073.646, 836.253 1081.100, 835.559 1085.500 C 834.866 1089.900, 834.461 1093.802, 834.660 1094.172 C 835.518 1095.766, 848.680 1099.220, 856.798 1099.981 C 881.955 1102.341, 910.281 1091.520, 925.941 1073.566 C 927.348 1071.953, 930.567 1068.353, 933.094 1065.566 C 937.145 1061.099, 940.841 1055.109, 947.018 1043 C 948 1041.075, 949.125 1037.353, 949.519 1034.729 C 950.150 1030.516, 949.823 1029.111, 946.728 1022.729 C 944.801 1018.753, 941.317 1011.563, 938.987 1006.750 C 936.658 1001.938, 934.458 998, 934.100 998 C 933.742 998, 931.458 1001.854, 929.025 1006.564 M 776.094 1012.906 C 774.719 1014.281, 773.986 1016.971, 773.462 1022.559 C 772.379 1034.123, 773.602 1047.050, 777.542 1065.680 C 779.022 1072.679, 788.228 1072.791, 790.870 1065.842 C 791.535 1064.093, 791.097 1058.138, 789.407 1045.924 C 788.081 1036.341, 786.546 1025.125, 785.997 1021 C 784.975 1013.322, 783.538 1011, 779.809 1011 C 778.814 1011, 777.142 1011.858, 776.094 1012.906 M 693.132 1015.636 C 673.331 1022.214, 653.767 1025.500, 640.500 1024.475 C 635.550 1024.092, 619.125 1023.699, 604 1023.601 C 586.030 1023.485, 575.287 1023.016, 573 1022.247 C 571.075 1021.600, 565.555 1020.834, 560.734 1020.546 C 555.913 1020.257, 549.958 1019.515, 547.502 1018.896 C 545.046 1018.278, 542.441 1018.001, 541.713 1018.280 C 540.886 1018.597, 539.938 1022.167, 539.192 1027.775 C 538.534 1032.718, 537.308 1038.710, 536.468 1041.091 C 534.763 1045.922, 532.301 1059.488, 530.997 1071.233 C 530.525 1075.486, 529.862 1079.415, 529.523 1079.963 C 528.901 1080.969, 526.790 1094.439, 525.520 1105.500 C 525.141 1108.800, 523.334 1119.150, 521.505 1128.500 C 519.675 1137.850, 517.852 1147.702, 517.454 1150.393 L 516.730 1155.286 529.615 1154.585 C 539.224 1154.061, 543.898 1153.331, 548 1151.712 C 553.226 1149.648, 554.793 1149.555, 579.421 1149.838 C 593.677 1150.001, 608.752 1150.602, 612.921 1151.171 C 617.089 1151.741, 637.369 1152.418, 657.987 1152.675 L 695.475 1153.142 697.487 1150.762 C 698.594 1149.453, 701.300 1147.003, 703.500 1145.318 C 709.058 1141.061, 726.598 1132.285, 731.871 1131.122 C 734.275 1130.592, 736.651 1129.749, 737.152 1129.248 C 738.141 1128.259, 736.245 1119.860, 733.710 1114 C 731.127 1108.027, 723.722 1080.930, 722.507 1073 C 722.127 1070.525, 721.201 1065.800, 720.449 1062.500 C 719.697 1059.200, 718.126 1052, 716.957 1046.500 C 715.789 1041, 714 1034.025, 712.982 1031 C 711.281 1025.943, 710.221 1022.030, 708.581 1014.750 C 707.779 1011.186, 706.262 1011.273, 693.132 1015.636 M 466.370 1018.250 C 463.757 1021.223, 463.441 1028.667, 465.501 1038.713 C 468.921 1055.388, 473.836 1067.352, 478.530 1070.428 C 480.766 1071.893, 481.644 1071.976, 484.105 1070.957 C 488.392 1069.181, 488.774 1065.912, 485.729 1057.045 C 482.759 1048.398, 479.912 1037.915, 477.501 1026.746 C 475.273 1016.422, 470.907 1013.090, 466.370 1018.250 M 826.586 1124.861 C 825.889 1125.989, 822.860 1143.137, 822.261 1149.347 C 822.004 1152.013, 822.188 1154.588, 822.670 1155.070 C 823.152 1155.552, 831.411 1156.468, 841.023 1157.105 C 861.280 1158.448, 862.873 1158.503, 873.323 1158.215 C 880.171 1158.027, 881.105 1157.782, 880.813 1156.250 C 880.626 1155.270, 879.385 1154.348, 877.990 1154.154 C 876.620 1153.964, 875.050 1153.443, 874.500 1152.996 C 873.950 1152.549, 870.800 1151.240, 867.500 1150.086 C 864.200 1148.933, 860.366 1147.154, 858.981 1146.135 C 857.595 1145.115, 855.415 1143.949, 854.137 1143.543 C 850.231 1142.304, 843.777 1137.486, 836.766 1130.578 C 830.462 1124.367, 827.811 1122.878, 826.586 1124.861" stroke="none" fill="#2942C9" fill-rule="evenodd"/>
    </g>
  </g>
</svg>
