<?xml version="1.0" encoding="UTF-8"?>
<svg xmlns="http://www.w3.org/2000/svg" viewBox="0 0 1280 1280" width="1280" height="1280" role="img" aria-labelledby="title desc">
  <title id="title">BillBandit raccoon - Neutral</title>
  <desc id="desc">Transparent two-color vector mascot using cobalt and warm cream.</desc>
  <g id="mascot-neutral" shape-rendering="geometricPrecision">
    <g id="warm-cream-base">
      <path d="M 784.500 39.007 C 774.484 40.903, 754.541 50.424, 744.842 57.940 C 743.380 59.073, 741.675 60, 741.052 60 C 739.187 60, 731.808 68.060, 727.321 75 C 725.010 78.575, 721.413 83.675, 719.329 86.333 C 715.816 90.812, 715.281 91.127, 712.019 90.632 C 710.084 90.338, 705.172 89.610, 701.104 89.014 C 695.784 88.236, 692.885 87.239, 690.777 85.466 C 689.165 84.110, 687.258 83, 686.538 83 C 685.818 83, 683.946 82.335, 682.378 81.521 C 680.134 80.357, 677.079 80.163, 668.014 80.612 C 660.412 80.988, 652.772 80.682, 645.530 79.712 C 639.496 78.904, 633.646 78.583, 632.530 78.998 C 627.452 80.887, 620.364 82, 613.420 82 C 609.267 82, 605.040 82.443, 604.027 82.985 C 603.015 83.527, 598.432 84.668, 593.843 85.520 C 589.254 86.372, 583.025 87.540, 580 88.117 C 576.975 88.693, 572.575 90.028, 570.223 91.083 C 567.871 92.137, 565.113 93, 564.095 93 C 563.077 93, 560.502 93.741, 558.372 94.646 C 553.910 96.542, 530.540 104.832, 527.372 105.642 C 525.561 106.105, 524.612 105.043, 521.021 98.539 C 513.422 84.772, 503.353 73, 499.177 73 C 497.691 73, 495.761 71.783, 494.135 69.820 C 492.686 68.071, 488.800 63.908, 485.500 60.568 C 480.332 55.337, 478.461 54.160, 472 52.081 C 458.903 47.865, 450.016 49.234, 444.934 56.249 C 443.320 58.477, 442 61.553, 442 63.085 C 442 64.617, 441.500 67.137, 440.890 68.685 C 437.442 77.430, 435.089 104.486, 436.867 114.943 C 439.947 133.056, 441.371 142.830, 441.391 146 C 441.411 149.240, 439.826 152.880, 430.671 170.615 C 429.219 173.428, 427.349 176.296, 426.515 176.987 C 425.682 177.679, 425 178.756, 425 179.380 C 425 181.051, 420.072 190.073, 417.427 193.245 C 416.168 194.754, 414.829 197.004, 414.452 198.245 C 413.785 200.436, 412.943 201.694, 403.485 214.637 C 401.018 218.013, 399 221.205, 399 221.732 C 399 222.259, 398.052 223.547, 396.894 224.595 C 395.735 225.643, 393.968 228.105, 392.967 230.067 C 391.965 232.029, 390.405 234.249, 389.500 235 C 388.595 235.751, 386.927 238.196, 385.795 240.433 C 384.662 242.670, 382.220 246.189, 380.368 248.253 C 378.516 250.317, 377 252.610, 377 253.348 C 377 254.086, 376.100 255.505, 375 256.500 C 373.900 257.495, 373 258.781, 373 259.357 C 373 259.933, 371.725 261.776, 370.166 263.452 C 368.607 265.129, 366.761 268.508, 366.062 270.962 C 364.821 275.323, 364.857 275.475, 367.646 277.737 C 369.527 279.262, 371.182 279.834, 372.500 279.412 C 376.506 278.132, 382.198 277.798, 383.186 278.786 C 385.288 280.888, 382.836 284.183, 377.373 286.599 C 374.386 287.919, 371.315 289, 370.548 289 C 369.781 289, 367.803 290.137, 366.152 291.526 C 364.500 292.915, 361.778 294.530, 360.102 295.114 C 358.422 295.700, 356.094 297.730, 354.916 299.637 C 352.866 302.953, 352.851 303.178, 354.544 305.048 C 355.515 306.122, 357.158 307, 358.195 307 C 359.231 307, 361.955 307.957, 364.248 309.126 C 367.882 310.981, 369.429 311.168, 376.326 310.593 L 384.237 309.933 383.702 312.717 C 383.408 314.248, 381.788 319.224, 380.101 323.775 L 377.034 332.050 380.267 334.047 C 383.831 336.249, 389.783 335.946, 393.473 333.375 C 396.801 331.055, 399.400 331.813, 403.928 336.426 C 407.208 339.768, 408.133 341.385, 407.703 343.027 C 406.212 348.728, 412.907 354.303, 420.647 353.805 C 425.235 353.509, 425.412 353.602, 426.350 356.800 C 427.247 359.859, 427.025 360.407, 423.314 364.300 C 421.112 366.610, 418.251 370.075, 416.955 372 C 415.660 373.925, 411.615 378.875, 407.967 383 C 404.319 387.125, 399.150 394.246, 396.481 398.824 C 393.812 403.402, 390.844 407.696, 389.887 408.367 C 388.265 409.503, 374.129 436.751, 372.567 441.751 C 372.181 442.989, 370.995 444.467, 369.932 445.036 C 368.870 445.605, 367.998 447.067, 367.996 448.285 C 367.994 449.503, 367.027 452.075, 365.848 454 C 363.517 457.804, 358.356 468.025, 349.690 486 C 344.592 496.575, 339 512.057, 339 515.597 C 339 516.407, 338.305 518.131, 337.456 519.427 C 335.710 522.092, 328.582 548.616, 326.552 560 C 325.817 564.125, 324.745 568.625, 324.170 570 C 322.326 574.410, 317.825 611.551, 315.446 642 C 314.607 652.725, 313.492 663.075, 312.966 665 C 312.441 666.925, 312.009 670.525, 312.006 673 C 312.003 675.476, 311.312 680.651, 310.471 684.500 C 307.461 698.284, 305.926 741.464, 307.841 758.500 C 308.459 764, 309.220 773.417, 309.533 779.427 C 309.845 785.437, 310.279 790.642, 310.497 790.995 C 311.490 792.601, 315 807.263, 315 809.803 C 315 812.712, 317.131 820.149, 319.498 825.500 C 320.228 827.150, 321.363 830.525, 322.020 833 C 322.677 835.475, 323.812 839.075, 324.541 841 C 325.271 842.925, 326.600 846.837, 327.495 849.693 C 328.391 852.550, 329.968 855.960, 331 857.272 C 332.032 858.584, 333.204 860.965, 333.605 862.562 C 334.006 864.159, 337.698 869.298, 341.810 873.983 C 350.037 883.355, 352.991 887.631, 352.996 890.179 C 353.002 892.733, 355.814 895, 358.978 895 C 361.404 895, 362.905 896.458, 369.406 905.134 C 373.916 911.152, 377 916.238, 377 917.656 C 377 918.970, 378.738 923.522, 380.863 927.772 C 384.889 935.826, 385.988 941.633, 387.526 963 C 387.863 967.675, 389.053 974.875, 390.172 979 C 391.291 983.125, 393.027 990.100, 394.031 994.500 C 396.751 1006.426, 397.879 1010.697, 399.944 1016.890 C 400.973 1019.975, 402.568 1026.775, 403.488 1032 C 404.409 1037.225, 406.496 1047.800, 408.127 1055.500 C 409.758 1063.200, 411.302 1070.625, 411.557 1072 C 412.224 1075.600, 416.964 1090.920, 418.605 1094.784 C 421.014 1100.456, 420.522 1101.523, 414.411 1103.861 C 411.337 1105.038, 408.282 1106, 407.622 1106 C 406.963 1106, 404.658 1106.900, 402.500 1108 C 400.342 1109.100, 397.602 1110, 396.411 1110 C 395.220 1110, 393.685 1110.675, 393 1111.500 C 392.315 1112.325, 391.187 1113, 390.492 1113 C 387.570 1113, 377.777 1122.499, 374.973 1128.053 C 372.608 1132.738, 371.554 1133.839, 368.929 1134.364 C 363.820 1135.386, 348.793 1135.098, 340.322 1133.816 C 336.020 1133.165, 331.375 1132.675, 330 1132.728 C 328.625 1132.780, 317.150 1133.313, 304.500 1133.911 C 291.850 1134.510, 280.375 1135.033, 279 1135.074 C 271.507 1135.295, 253.982 1137.249, 250.678 1138.232 C 245.941 1139.640, 242.639 1143.457, 243.984 1145.970 C 245.313 1148.454, 248.932 1149.679, 261.500 1151.900 C 273.961 1154.102, 291.519 1154.102, 299 1151.900 C 305.239 1150.064, 325.131 1150.340, 343.933 1152.525 C 357.786 1154.134, 361.078 1154.185, 376.075 1153.023 C 388.686 1152.046, 393.583 1152.007, 396.041 1152.864 C 400.558 1154.439, 408.360 1154.283, 419.250 1152.401 C 428.491 1150.804, 438.429 1151.089, 442.104 1153.056 C 443.130 1153.605, 447.719 1153.597, 453.653 1153.035 C 460.083 1152.426, 467.191 1152.465, 474.134 1153.145 C 483.903 1154.103, 485.488 1154.004, 493.634 1151.923 C 503.681 1149.358, 515.132 1149.121, 531 1151.152 C 542.777 1152.659, 554.206 1152.640, 564 1151.096 C 568.125 1150.446, 574.650 1149.727, 578.500 1149.499 C 582.350 1149.271, 590.225 1148.607, 596 1148.023 C 601.775 1147.439, 609.425 1147.249, 613 1147.601 C 616.575 1147.952, 624.225 1148.298, 630 1148.370 C 635.775 1148.441, 641.062 1148.863, 641.748 1149.308 C 642.434 1149.752, 651.434 1150.099, 661.748 1150.080 C 672.062 1150.060, 682.975 1150.462, 686 1150.972 C 689.025 1151.483, 697.938 1152.179, 705.808 1152.520 C 713.677 1152.860, 722.452 1153.614, 725.308 1154.196 C 728.163 1154.777, 732.975 1155.182, 736 1155.094 C 739.025 1155.007, 755.675 1154.828, 773 1154.697 C 790.325 1154.566, 805.963 1154.094, 807.752 1153.649 C 810.001 1153.090, 812.554 1153.355, 816.033 1154.511 C 819.657 1155.715, 822.660 1156.001, 826.781 1155.534 C 838.960 1154.157, 856.184 1153.911, 872.059 1154.890 C 885.672 1155.729, 890.209 1155.644, 897.559 1154.416 C 902.477 1153.594, 911 1152.984, 916.500 1153.061 C 953.368 1153.575, 960.942 1153.390, 971.317 1151.723 C 980.448 1150.255, 983.956 1150.147, 993.817 1151.029 C 1000.243 1151.603, 1006.737 1152.484, 1008.250 1152.985 C 1009.829 1153.508, 1012.171 1153.529, 1013.750 1153.035 C 1015.262 1152.561, 1024.068 1151.612, 1033.318 1150.927 C 1047.121 1149.904, 1050.572 1149.338, 1052.568 1147.768 C 1055.529 1145.439, 1055.701 1141.944, 1052.976 1139.478 C 1050.580 1137.310, 1035.560 1136.267, 996.167 1135.535 C 982.783 1135.286, 970.945 1134.800, 969.860 1134.455 C 966.703 1133.454, 968.103 1130.870, 973.500 1127.737 C 980.253 1123.817, 988.606 1115.511, 991.446 1109.891 C 996.723 1099.450, 998.081 1085.703, 995.535 1068.500 C 993.823 1056.937, 992.346 1051.303, 990.037 1047.530 C 989.017 1045.863, 987.669 1042.475, 987.041 1040 C 986.413 1037.525, 983.730 1031, 981.078 1025.500 C 978.427 1020, 975.945 1014.177, 975.563 1012.561 C 975.180 1010.945, 973.997 1008.400, 972.934 1006.907 C 971.870 1005.413, 970.998 1003.586, 970.996 1002.846 C 970.994 1002.106, 969.998 999.925, 968.783 998 C 965.812 993.293, 957.360 978.681, 954.034 972.500 C 952.553 969.750, 949.912 965.250, 948.163 962.500 C 946.415 959.750, 943.648 954.721, 942.016 951.323 C 940.383 947.926, 938.624 944.886, 938.108 944.567 C 937.592 944.248, 936.198 940.952, 935.011 937.243 C 933.824 933.534, 932.052 929.124, 931.074 927.443 C 930.095 925.761, 928.995 922.786, 928.628 920.830 C 928.261 918.875, 927.070 916.468, 925.980 915.482 C 924.891 914.497, 924 913.293, 924 912.807 C 924 911.460, 912.773 889.087, 909.606 884.122 C 908.070 881.714, 906.005 877.439, 905.019 874.622 C 901.422 864.355, 899.294 859.414, 896.711 855.329 C 895.261 853.034, 893.117 848.315, 891.946 844.840 C 890.237 839.766, 889.951 837.280, 890.494 832.208 C 891.145 826.136, 895.785 810.126, 898.191 805.654 C 898.829 804.469, 899.686 801.925, 900.096 800 C 900.506 798.075, 901.725 792.675, 902.804 788 C 907.132 769.258, 907.349 767.557, 911.425 720.500 C 912.235 711.150, 913.392 699.732, 913.996 695.127 C 914.788 689.083, 914.792 683.521, 914.011 675.127 C 913.415 668.732, 913.078 660.020, 913.262 655.766 C 913.445 651.512, 913.201 647.900, 912.718 647.739 C 911.506 647.335, 909.244 635.823, 907.564 621.500 C 906.789 614.900, 905.698 608.150, 905.139 606.500 C 903.493 601.639, 901.533 586.125, 901.475 577.500 C 901.397 565.772, 898.784 545.332, 895.593 531.500 C 892.475 517.979, 891.680 515.174, 888.919 507.973 C 887.333 503.834, 884.883 497.153, 883.477 493.127 C 882.070 489.100, 880.303 484.837, 879.550 483.653 C 878.022 481.248, 872.559 460.968, 871.564 454 C 871.206 451.495, 869.386 447.082, 867.460 444.046 C 865.557 441.047, 864 438.007, 864 437.291 C 864 436.575, 862.162 431.604, 859.916 426.245 C 854.340 412.937, 852.380 406.144, 850.908 395.020 C 850.008 388.220, 849.142 385.110, 847.847 384.020 C 846.854 383.184, 844.421 379.350, 842.441 375.500 C 840.461 371.650, 837.894 367.483, 836.736 366.239 C 835.579 364.996, 833.702 362.462, 832.566 360.607 C 831.430 358.753, 828.841 354.820, 826.813 351.868 C 822.343 345.360, 819.600 334.497, 822.038 332.956 C 824.330 331.506, 828.087 331.830, 834.304 334.016 C 839.543 335.857, 840.292 335.901, 842.959 334.521 C 844.565 333.691, 846.558 332.042, 847.388 330.857 C 848.955 328.619, 848.516 327.093, 844.788 321.822 C 843.809 320.438, 844.030 319.784, 846.050 318.091 C 848.857 315.739, 852.111 316.034, 858.381 319.209 C 860.516 320.290, 864.198 321.757, 866.562 322.469 C 870.371 323.615, 871.199 323.557, 873.822 321.962 C 875.450 320.972, 877.073 319.691, 877.429 319.115 C 878.331 317.655, 874.586 310.654, 870.457 306.084 C 868.426 303.836, 867 301.210, 867 299.718 C 867 297.355, 867.401 297.140, 872.750 296.639 C 875.913 296.343, 880.363 295.811, 882.639 295.456 C 885.163 295.063, 887.648 295.276, 889.006 296.003 C 892.041 297.627, 894.533 295.259, 893.619 291.619 C 892.885 288.693, 882.846 278, 880.833 278 C 880.097 278, 877.278 276.425, 874.571 274.500 C 871.863 272.575, 869.215 271, 868.686 271 C 868.157 271, 864.169 268.441, 859.825 265.312 C 850.226 258.401, 849.851 256.409, 858.204 256.688 C 861.522 256.799, 865.446 257.697, 867.747 258.871 C 871.527 260.799, 871.747 260.806, 874.388 259.074 C 875.890 258.088, 878.406 255.756, 879.979 253.891 L 882.840 250.500 877.670 245.716 C 874.826 243.084, 871.600 240.070, 870.500 239.016 C 869.400 237.963, 865.965 235.391, 862.867 233.300 C 859.769 231.210, 854.892 227.742, 852.030 225.594 C 847.415 222.130, 846.910 221.394, 847.563 219.094 C 849.177 213.413, 848.260 206.331, 845.038 199.579 C 843.303 195.944, 841.228 190.838, 840.427 188.234 C 839.395 184.877, 838.046 182.918, 835.791 181.500 C 833.718 180.196, 832.304 178.283, 831.727 176 C 831.241 174.075, 829.753 171.350, 828.421 169.945 C 827.090 168.540, 826 166.643, 826 165.730 C 826 164.817, 824.611 162.488, 822.913 160.554 C 821.216 158.621, 818.853 155.708, 817.663 154.081 C 808.886 142.082, 803.580 135.766, 801.465 134.802 C 798.579 133.487, 798.376 131.340, 800.652 126.218 C 801.561 124.173, 802.652 120.025, 803.077 117 C 803.502 113.975, 804.078 110.375, 804.358 109 C 804.638 107.625, 805.387 102.450, 806.023 97.500 C 806.659 92.550, 807.821 85.455, 808.605 81.734 C 810.931 70.700, 810.359 46.497, 807.695 43.177 C 804.101 38.697, 794.888 37.041, 784.500 39.007 M 857 281.857 C 857 283.012, 859.119 285.089, 862.613 287.357 C 869.193 291.627, 872 292.038, 872 288.731 C 872 286.996, 870.617 285.701, 866.123 283.231 C 859.422 279.547, 857 279.182, 857 281.857 M 697.171 995.648 C 697.364 996.654, 698.346 997.636, 699.352 997.829 C 700.673 998.084, 701.084 997.673, 700.829 996.352 C 700.636 995.346, 699.654 994.364, 698.648 994.171 C 697.327 993.916, 696.916 994.327, 697.171 995.648 M 528.376 1000.142 C 526.857 1002.497, 523.944 1021.757, 521.969 1042.500 C 520.921 1053.500, 519.625 1066.100, 519.089 1070.500 C 518.552 1074.900, 517.623 1082.550, 517.025 1087.500 C 516.427 1092.450, 515.269 1100.550, 514.451 1105.500 C 513.634 1110.450, 512.689 1117.754, 512.352 1121.731 C 511.627 1130.289, 512.513 1131.142, 519.904 1129.001 C 522.432 1128.269, 528.100 1127.380, 532.500 1127.026 C 536.900 1126.671, 541.597 1125.785, 542.938 1125.055 C 544.672 1124.112, 548.712 1123.819, 556.938 1124.040 C 573.238 1124.480, 574.496 1124.439, 583.995 1123.168 C 593.906 1121.842, 604.055 1122.461, 612.500 1124.906 C 617.666 1126.401, 622.538 1126.615, 647.550 1126.445 C 681.529 1126.215, 688.464 1125.355, 696.113 1120.427 C 699.039 1118.542, 701.978 1117, 702.645 1117 C 703.311 1117, 706.582 1115.377, 709.912 1113.393 C 713.745 1111.110, 717.862 1109.550, 721.127 1109.143 C 728.527 1108.221, 728.926 1106.945, 724.789 1097.443 C 718.809 1083.707, 712.510 1063.095, 711.054 1052.500 C 710.449 1048.100, 709.308 1042.025, 708.517 1039 C 707.726 1035.975, 706.335 1030.575, 705.425 1027 C 704.516 1023.425, 702.924 1018.121, 701.886 1015.212 C 700.849 1012.304, 700 1008.857, 700 1007.551 C 700 1004.096, 694.415 999.651, 691.075 1000.449 C 689.659 1000.787, 685.020 1001.468, 680.767 1001.962 C 676.514 1002.456, 672.657 1003.094, 672.195 1003.379 C 671.734 1003.664, 663.234 1004.607, 653.307 1005.473 C 640.513 1006.590, 634.474 1006.750, 632.564 1006.024 C 631.082 1005.461, 628.662 1004.996, 627.185 1004.990 C 625.708 1004.985, 622.079 1003.853, 619.119 1002.476 C 613.765 999.983, 613.675 999.977, 600.619 1001.133 C 593.404 1001.773, 586.600 1002.252, 585.500 1002.199 C 584.400 1002.146, 579.225 1001.819, 574 1001.473 C 568.775 1001.127, 558.425 1000.729, 551 1000.589 C 543.575 1000.449, 535.644 999.985, 533.376 999.559 C 530.322 998.986, 529.024 999.137, 528.376 1000.142 M 702 1000.901 C 702 1002.654, 707.741 1007, 710.057 1007 C 712.365 1007, 710.723 1002.992, 707.632 1001.082 C 703.454 998.499, 702 998.453, 702 1000.901 M 820.591 1104.622 C 819.585 1107.244, 817.008 1124.175, 817.004 1128.191 C 817.002 1130.221, 817.563 1132.246, 818.250 1132.691 C 818.938 1133.136, 825.575 1133.569, 833 1133.654 C 840.425 1133.739, 850.325 1134.298, 855 1134.897 C 867.302 1136.472, 878 1136.351, 878 1134.639 C 878 1133.473, 864.617 1127, 862.208 1127 C 861.747 1127, 856.905 1124.761, 851.448 1122.024 C 842.425 1117.499, 827 1106.026, 827 1103.841 C 827 1102.251, 821.231 1102.955, 820.591 1104.622" stroke="none" fill="#F7F1DD" fill-rule="evenodd"/>
    </g>
    <g id="cobalt-ink">
      <path d="M 784.500 39.007 C 774.484 40.903, 754.541 50.424, 744.842 57.940 C 743.380 59.073, 741.675 60, 741.052 60 C 739.187 60, 731.808 68.060, 727.321 75 C 725.010 78.575, 721.413 83.675, 719.329 86.333 C 715.816 90.812, 715.281 91.127, 712.019 90.632 C 710.084 90.338, 705.172 89.610, 701.104 89.014 C 695.784 88.236, 692.885 87.239, 690.777 85.466 C 689.165 84.110, 687.258 83, 686.538 83 C 685.818 83, 683.946 82.335, 682.378 81.521 C 680.134 80.357, 677.079 80.163, 668.014 80.612 C 660.412 80.988, 652.772 80.682, 645.530 79.712 C 639.496 78.904, 633.646 78.583, 632.530 78.998 C 627.452 80.887, 620.364 82, 613.420 82 C 609.267 82, 605.040 82.443, 604.027 82.985 C 603.015 83.527, 598.432 84.668, 593.843 85.520 C 589.254 86.372, 583.025 87.540, 580 88.117 C 576.975 88.693, 572.575 90.028, 570.223 91.083 C 567.871 92.137, 565.113 93, 564.095 93 C 563.077 93, 560.502 93.741, 558.372 94.646 C 553.910 96.542, 530.540 104.832, 527.372 105.642 C 525.561 106.105, 524.612 105.043, 521.021 98.539 C 513.422 84.772, 503.353 73, 499.177 73 C 497.691 73, 495.761 71.783, 494.135 69.820 C 492.686 68.071, 488.800 63.908, 485.500 60.568 C 480.332 55.337, 478.461 54.160, 472 52.081 C 458.903 47.865, 450.016 49.234, 444.934 56.249 C 443.320 58.477, 442 61.553, 442 63.085 C 442 64.617, 441.500 67.137, 440.890 68.685 C 437.442 77.430, 435.089 104.486, 436.867 114.943 C 439.947 133.056, 441.371 142.830, 441.391 146 C 441.411 149.240, 439.826 152.880, 430.671 170.615 C 429.219 173.428, 427.349 176.296, 426.515 176.987 C 425.682 177.679, 425 178.756, 425 179.380 C 425 181.051, 420.072 190.073, 417.427 193.245 C 416.168 194.754, 414.829 197.004, 414.452 198.245 C 413.785 200.436, 412.943 201.694, 403.485 214.637 C 401.018 218.013, 399 221.205, 399 221.732 C 399 222.259, 398.052 223.547, 396.894 224.595 C 395.735 225.643, 393.968 228.105, 392.967 230.067 C 391.965 232.029, 390.405 234.249, 389.500 235 C 388.595 235.751, 386.927 238.196, 385.795 240.433 C 384.662 242.670, 382.220 246.189, 380.368 248.253 C 378.516 250.317, 377 252.610, 377 253.348 C 377 254.086, 376.100 255.505, 375 256.500 C 373.900 257.495, 373 258.781, 373 259.357 C 373 259.933, 371.725 261.776, 370.166 263.452 C 368.607 265.129, 366.761 268.508, 366.062 270.962 C 364.821 275.323, 364.857 275.475, 367.646 277.737 C 369.527 279.262, 371.182 279.834, 372.500 279.412 C 376.506 278.132, 382.198 277.798, 383.186 278.786 C 385.288 280.888, 382.836 284.183, 377.373 286.599 C 374.386 287.919, 371.315 289, 370.548 289 C 369.781 289, 367.803 290.137, 366.152 291.526 C 364.500 292.915, 361.778 294.530, 360.102 295.114 C 358.422 295.700, 356.094 297.730, 354.916 299.637 C 352.866 302.953, 352.851 303.178, 354.544 305.048 C 355.515 306.122, 357.158 307, 358.195 307 C 359.231 307, 361.955 307.957, 364.248 309.126 C 367.882 310.981, 369.429 311.168, 376.326 310.593 L 384.237 309.933 383.702 312.717 C 383.408 314.248, 381.788 319.224, 380.101 323.775 L 377.034 332.050 380.267 334.047 C 383.831 336.249, 389.783 335.946, 393.473 333.375 C 394.557 332.619, 396.855 332, 398.578 332 C 401.013 332, 403.170 330.663, 408.259 326 C 411.860 322.700, 415.222 320, 415.729 320 C 416.236 320, 417.708 318.875, 419 317.500 C 420.292 316.125, 421.726 315, 422.187 315 C 422.649 315, 428.758 312.247, 435.763 308.882 C 442.768 305.516, 450.075 302.649, 452 302.510 C 456.406 302.192, 473.567 296.158, 482.680 291.723 C 486.486 289.871, 492.855 286.250, 496.832 283.678 C 500.808 281.105, 504.487 279, 505.006 279 C 506.672 279, 522.444 265.890, 524.077 263.148 C 524.944 261.692, 526.547 260.050, 527.639 259.500 C 533.107 256.747, 542.732 246.783, 546.750 239.715 C 549.087 235.604, 551 231.714, 551 231.072 C 551 230.430, 552.990 228.013, 555.421 225.702 C 558.458 222.816, 560.053 220.353, 560.516 217.837 C 560.887 215.822, 561.948 213.347, 562.873 212.337 C 565.396 209.585, 570 201.360, 570 199.606 C 570 198.760, 570.746 196.503, 571.658 194.591 C 573.208 191.341, 573.201 190.509, 571.547 181.807 C 569.689 172.030, 565.318 163.493, 560.682 160.591 C 553.678 156.206, 534.606 156.237, 516.500 160.662 C 499.374 164.847, 502.717 163.540, 481.500 174.340 C 478.750 175.740, 473.125 178.496, 469 180.464 C 456.225 186.560, 447.537 191.407, 443.134 194.894 C 440.810 196.735, 438.623 197.957, 438.276 197.609 C 437.466 196.800, 441.287 189.938, 446.183 183.409 C 448.282 180.609, 450 177.859, 450 177.299 C 450 176.738, 451.156 174.576, 452.568 172.494 C 453.981 170.413, 456.063 166.188, 457.195 163.105 C 458.326 160.022, 460.375 155.997, 461.746 154.160 C 464.466 150.516, 464.468 150.647, 461.547 135.500 C 460.699 131.100, 459.067 121.537, 457.922 114.248 C 456.192 103.242, 456.033 100.192, 456.987 96.248 C 457.619 93.637, 458.562 88.816, 459.083 85.534 C 460.218 78.390, 461.260 77.020, 463.805 79.324 C 464.824 80.246, 465.968 81, 466.349 81 C 466.729 81, 468.822 82.125, 471 83.500 C 473.178 84.875, 476.136 86, 477.573 86 C 480.527 86, 490.144 94.137, 494.815 100.588 C 498.032 105.032, 503 114.583, 503 116.324 C 503 118.525, 510.332 128.120, 513.112 129.558 C 516.635 131.380, 519.040 131.380, 522.551 129.558 C 524.166 128.720, 526.546 128.359, 528.232 128.696 C 530.265 129.103, 531.954 128.671, 533.869 127.255 C 535.373 126.143, 538.606 125.011, 541.052 124.740 C 543.498 124.469, 547.975 123.499, 551 122.585 C 554.025 121.670, 558.525 120.536, 561 120.064 C 566.098 119.092, 570.681 117.577, 576.500 114.941 C 578.700 113.944, 585.787 111.075, 592.250 108.566 L 604 104.004 621.250 103.928 C 630.737 103.885, 639.650 104.290, 641.056 104.827 C 642.462 105.364, 647.412 105.579, 652.056 105.305 C 657.737 104.971, 662.954 105.330, 668 106.403 C 672.125 107.281, 677.300 107.995, 679.500 107.991 C 681.700 107.987, 686.650 108.695, 690.500 109.565 C 704.462 112.719, 706.102 113, 710.580 113 C 713.083 113, 715.993 113.461, 717.045 114.024 C 720.737 116, 723.530 114.177, 727.354 107.296 C 729.359 103.688, 731 99.926, 731 98.935 C 731 97.712, 731.885 97.031, 733.750 96.816 C 735.810 96.579, 736.588 95.875, 736.852 94.006 C 737.045 92.634, 739.284 88.941, 741.826 85.800 C 746.938 79.485, 748.474 78.657, 774.685 68.090 C 777.537 66.941, 781.284 66, 783.010 66 L 786.150 66 785.509 75.250 C 784.641 87.773, 781.150 106.669, 778.866 111.210 C 774.787 119.320, 778.022 134.496, 786.987 149.304 C 788.919 152.496, 791.400 156.795, 792.500 158.857 C 793.600 160.918, 795.513 164.001, 796.750 165.707 C 797.987 167.413, 799 169.492, 799 170.328 C 799 171.163, 800.206 173.279, 801.679 175.031 C 803.153 176.782, 805.065 179.481, 805.929 181.028 C 806.793 182.575, 809.862 187.314, 812.750 191.559 C 820.622 203.131, 819.618 205.334, 810.156 197.250 C 807.098 194.637, 803 191.696, 801.048 190.713 C 799.097 189.731, 794.800 187.457, 791.500 185.662 C 777.323 177.948, 771.510 175, 770.477 175 C 769.870 175, 768.124 173.695, 766.597 172.101 C 765.069 170.507, 761.268 168.272, 758.150 167.135 C 755.032 165.998, 750.935 163.927, 749.046 162.534 C 747.157 161.140, 744.964 160, 744.174 160 C 743.383 160, 741.212 159.058, 739.350 157.907 C 735.834 155.734, 726.432 153.137, 719.500 152.422 C 714.307 151.887, 703.454 150.398, 699 149.608 C 697.075 149.267, 688.863 148.559, 680.751 148.035 L 666.002 147.083 659.251 150.103 C 647.779 155.235, 637.034 161.978, 636.549 164.348 C 635.095 171.455, 634.859 174.680, 634.999 185.500 C 635.166 198.363, 634.753 196.897, 643.173 214.500 C 646.670 221.811, 647.989 223.783, 651.360 226.743 C 653.198 228.357, 654.995 230.845, 655.353 232.272 C 655.712 233.699, 656.852 235.136, 657.888 235.464 C 658.924 235.793, 660.981 237.808, 662.460 239.942 C 663.939 242.076, 666.353 244.448, 667.824 245.213 C 673.939 248.390, 676.988 250.574, 676.994 251.784 C 676.997 252.490, 678.575 253.997, 680.500 255.133 C 682.425 256.268, 684 257.570, 684 258.025 C 684 259.608, 695.259 264, 699.317 264 C 702.052 264, 704.597 264.835, 707.055 266.538 C 709.069 267.934, 712.918 269.466, 715.608 269.942 C 718.299 270.419, 724.100 272.200, 728.500 273.901 C 732.900 275.601, 737.047 276.994, 737.715 276.996 C 739.811 277.003, 748.283 279.991, 753.648 282.616 C 756.479 284.001, 760.670 285.269, 762.962 285.432 C 765.254 285.595, 767.640 286.240, 768.264 286.864 C 768.889 287.489, 770.773 288.014, 772.450 288.031 C 774.128 288.048, 777.300 289.171, 779.500 290.526 C 781.700 291.881, 784.251 292.992, 785.168 292.995 C 786.086 292.998, 791.711 294.520, 797.668 296.378 C 805.035 298.676, 811.616 299.985, 818.239 300.471 C 826.183 301.053, 828.580 301.621, 831.239 303.550 C 833.033 304.851, 835.850 306.665, 837.500 307.582 C 839.150 308.499, 842.344 310.742, 844.599 312.568 C 846.853 314.393, 850.003 316.200, 851.599 316.585 C 853.194 316.969, 856.247 318.159, 858.381 319.229 C 860.516 320.299, 864.198 321.757, 866.562 322.469 C 870.371 323.615, 871.199 323.557, 873.822 321.962 C 875.450 320.972, 877.073 319.691, 877.429 319.115 C 878.331 317.655, 874.586 310.654, 870.457 306.084 C 868.426 303.836, 867 301.210, 867 299.718 C 867 297.355, 867.401 297.140, 872.750 296.639 C 875.913 296.343, 880.363 295.811, 882.639 295.456 C 885.163 295.063, 887.648 295.276, 889.006 296.003 C 892.041 297.627, 894.533 295.259, 893.619 291.619 C 892.885 288.693, 882.846 278, 880.833 278 C 880.097 278, 877.278 276.425, 874.571 274.500 C 871.863 272.575, 869.215 271, 868.686 271 C 868.157 271, 864.169 268.441, 859.825 265.312 C 850.226 258.401, 849.851 256.409, 858.204 256.688 C 861.522 256.799, 865.446 257.697, 867.747 258.871 C 871.527 260.799, 871.747 260.806, 874.388 259.074 C 875.890 258.088, 878.406 255.756, 879.979 253.891 L 882.840 250.500 877.670 245.716 C 874.826 243.084, 871.600 240.070, 870.500 239.016 C 869.400 237.963, 865.965 235.391, 862.867 233.300 C 859.769 231.210, 854.892 227.742, 852.030 225.594 C 847.415 222.130, 846.910 221.394, 847.563 219.094 C 849.177 213.413, 848.260 206.331, 845.038 199.579 C 843.303 195.944, 841.228 190.838, 840.427 188.234 C 839.395 184.877, 838.046 182.918, 835.791 181.500 C 833.718 180.196, 832.304 178.283, 831.727 176 C 831.241 174.075, 829.753 171.350, 828.421 169.945 C 827.090 168.540, 826 166.643, 826 165.730 C 826 164.817, 824.611 162.488, 822.913 160.554 C 821.216 158.621, 818.853 155.708, 817.663 154.081 C 808.886 142.082, 803.580 135.766, 801.465 134.802 C 798.579 133.487, 798.376 131.340, 800.652 126.218 C 801.561 124.173, 802.652 120.025, 803.077 117 C 803.502 113.975, 804.078 110.375, 804.358 109 C 804.638 107.625, 805.387 102.450, 806.023 97.500 C 806.659 92.550, 807.821 85.455, 808.605 81.734 C 810.931 70.700, 810.359 46.497, 807.695 43.177 C 804.101 38.697, 794.888 37.041, 784.500 39.007 M 765.440 82.238 C 762.458 83.821, 758.072 88.157, 755.895 91.675 C 751.309 99.084, 750.006 112.863, 753.555 116.412 C 755.328 118.185, 764.979 119.421, 766.350 118.050 C 767.814 116.586, 769.903 108.282, 769.956 103.715 C 769.980 101.633, 770.648 98.933, 771.440 97.715 C 772.232 96.497, 773.176 93.247, 773.537 90.492 C 774.081 86.342, 773.877 85.213, 772.347 83.894 C 769.638 81.561, 767.624 81.078, 765.440 82.238 M 466.521 98.750 C 463.777 101.492, 463.771 101.533, 464.285 112.500 C 464.917 125.970, 467.148 132.883, 471.313 134.271 C 477.665 136.388, 482.738 131.450, 481.421 124.432 C 480.929 121.807, 481.207 120.429, 482.523 118.975 C 483.927 117.423, 484.169 115.926, 483.719 111.562 C 482.990 104.499, 481.303 101.115, 477.102 98.287 C 472.635 95.280, 469.872 95.401, 466.521 98.750 M 594.635 113.073 C 592.878 114.455, 592 116.105, 592 118.026 C 592 119.610, 591.542 121.940, 590.981 123.203 C 590.360 124.605, 590.263 127.829, 590.733 131.476 C 591.425 136.850, 591.790 137.554, 594.355 138.456 C 598.630 139.959, 601.247 136.337, 603.308 126.060 C 604.757 118.836, 604.784 117.419, 603.530 114.417 C 601.830 110.348, 598.700 109.875, 594.635 113.073 M 625.750 112.080 C 623.348 113.479, 621 118.297, 621 121.828 C 621 123.438, 620.325 126.371, 619.500 128.346 C 617.027 134.264, 617.530 138.426, 621.077 141.411 C 624.485 144.279, 627.172 144.703, 628.882 142.642 C 630.375 140.843, 633.913 126.932, 634.655 119.944 C 635.125 115.508, 634.903 114.046, 633.551 112.694 C 631.657 110.800, 628.390 110.543, 625.750 112.080 M 580.807 145.750 C 578.210 148.773, 577.654 151.230, 577.351 161 C 576.731 181.042, 577.480 186.383, 581.070 187.522 C 583.583 188.320, 585.597 186.711, 588.012 181.977 C 590.511 177.079, 591.493 149.149, 589.277 145.986 C 587.541 143.506, 582.846 143.376, 580.807 145.750 M 601.451 151.412 C 599.805 152.616, 599.398 154.711, 598.688 165.662 C 597.271 187.521, 597.301 188.571, 599.405 190.896 C 603.122 195.002, 608.742 192.656, 610.887 186.101 C 612.137 182.282, 612.245 171.179, 611.139 160.133 C 610.589 154.638, 609.921 152.415, 608.509 151.383 C 606.098 149.620, 603.890 149.629, 601.451 151.412 M 686 176.672 C 680.234 179.159, 676.622 182.453, 672.709 188.792 C 666.280 199.208, 668.294 206.956, 678.665 211.704 C 689.271 216.560, 704.209 214.081, 711.007 206.339 C 713.751 203.214, 714 202.318, 714 195.573 C 714 188.253, 713.978 188.191, 709.461 183.168 C 705.906 179.214, 703.758 177.781, 699.557 176.560 C 693.077 174.676, 690.582 174.697, 686 176.672 M 514.239 181.389 C 511.749 182.071, 508.449 184.084, 506.300 186.233 C 502.802 189.732, 502.604 190.286, 502.243 197.620 C 501.745 207.728, 503.371 210.961, 510.415 213.866 C 513.343 215.073, 516.457 215.709, 517.755 215.363 C 518.996 215.034, 520.668 215.310, 521.473 215.977 C 522.632 216.940, 523.924 216.821, 527.717 215.404 C 534.727 212.786, 536.884 211.148, 539.136 206.734 C 540.730 203.608, 541.016 201.749, 540.488 197.916 C 539.589 191.375, 536.154 184.909, 532.500 182.879 C 528.524 180.671, 519.537 179.938, 514.239 181.389 M 688.783 187.750 C 684.643 192.496, 684.076 196.076, 687 199 C 689.905 201.905, 695.119 201.612, 699.026 198.325 C 701.812 195.981, 702.133 195.208, 701.625 192.078 C 701.306 190.114, 700.274 187.943, 699.332 187.253 C 696.790 185.395, 690.583 185.687, 688.783 187.750 M 519.500 191.208 C 514.786 193.911, 513.795 197.795, 517 201 C 519.780 203.780, 524.515 203.576, 527.545 200.545 C 530.714 197.377, 530.656 194.661, 527.365 192.073 C 524.407 189.745, 522.429 189.528, 519.500 191.208 M 598.865 199.104 C 598.114 199.579, 594.800 200.494, 591.500 201.137 C 586.646 202.083, 584.793 203.039, 581.797 206.146 C 576.540 211.597, 576.027 215.532, 579.637 222.697 C 581.893 227.174, 583.454 228.877, 587 230.732 L 591.500 233.086 592.032 240.793 C 592.325 245.032, 592.386 249.280, 592.169 250.234 C 591.914 251.358, 589.791 252.541, 586.137 253.594 C 579.012 255.648, 577.544 256.439, 570.114 262.231 C 562.519 268.153, 556.890 276.326, 557.685 280.278 C 558.322 283.445, 564.498 289, 567.383 289 C 570.079 289, 577 281.466, 577 278.531 C 577 276.701, 578.221 275.451, 582.250 273.156 C 589.351 269.110, 592.939 268.668, 603.500 270.535 C 608.450 271.410, 613.744 272.315, 615.265 272.545 C 619.657 273.211, 623.735 275.742, 625.656 278.995 C 626.632 280.648, 627.769 282, 628.181 282 C 628.594 282, 630.312 283.350, 632 285 C 633.688 286.650, 635.872 288, 636.854 288 C 639.663 288, 647 281.187, 647 278.579 C 647 275.454, 637.942 262.827, 634.398 261.013 C 632.804 260.197, 630.375 258.748, 629 257.794 C 626.225 255.869, 616.914 253.089, 610.015 252.126 C 605.712 251.525, 605.501 251.337, 604.822 247.500 C 604.433 245.300, 604.089 240.696, 604.058 237.269 C 604.002 231.267, 604.101 231.016, 606.750 230.429 C 613.394 228.958, 615.819 227.662, 620.868 222.886 C 626.173 217.866, 626.230 217.750, 625.764 212.893 C 625.210 207.133, 623.753 205.272, 616.862 201.521 C 611.584 198.649, 601.685 197.319, 598.865 199.104 M 857 281.857 C 857 283.012, 859.119 285.089, 862.613 287.357 C 869.193 291.627, 872 292.038, 872 288.731 C 872 286.996, 870.617 285.701, 866.123 283.231 C 859.422 279.547, 857 279.182, 857 281.857 M 775.416 313.319 C 772.792 315.576, 772.720 315.931, 772.720 326.640 C 772.720 338.717, 774.024 342.466, 778.629 343.622 C 782.256 344.532, 787.815 343.165, 788.416 341.215 C 790 336.074, 787.412 315.466, 784.779 312.250 C 783.143 310.253, 778.343 310.801, 775.416 313.319 M 820.836 314.901 C 816.079 315.883, 812.198 318.471, 810.764 321.620 C 810.013 323.268, 809.024 323.978, 807.893 323.682 C 806.844 323.408, 804.901 324.538, 802.933 326.570 C 797.457 332.219, 796.057 345.296, 800.087 353.140 C 801.319 355.538, 803.602 360.031, 805.160 363.125 C 806.718 366.218, 808.670 369.311, 809.497 369.997 C 810.323 370.683, 811 371.785, 811 372.444 C 811 373.104, 812.337 375.411, 813.972 377.572 C 815.607 379.732, 816.957 382.648, 816.972 384.050 C 816.987 385.453, 817.529 387.129, 818.176 387.776 C 819.388 388.988, 821.084 394.643, 826.040 414 C 826.673 416.475, 828.949 421.931, 831.096 426.124 C 833.243 430.317, 835 434.830, 835 436.151 C 835 437.473, 835.587 439.443, 836.303 440.527 C 838.602 444.006, 844.790 461.259, 846.492 468.937 C 847.400 473.027, 848.722 477.527, 849.430 478.937 C 850.139 480.347, 851.004 483.750, 851.352 486.500 C 852.011 491.695, 857.063 508.906, 859.719 515 C 861.227 518.459, 862.242 523.860, 863.949 537.500 C 864.431 541.350, 865.509 547.650, 866.344 551.500 C 867.179 555.350, 868.149 564.125, 868.500 571 C 868.850 577.875, 869.749 585.525, 870.497 588 C 871.245 590.475, 872.114 599.109, 872.429 607.187 C 872.744 615.264, 873.441 623.031, 873.979 624.446 C 874.517 625.861, 875.448 638.352, 876.048 652.205 C 876.648 666.057, 877.505 678.091, 877.953 678.946 C 879.819 682.507, 880.015 689.310, 878.619 702.023 C 877.805 709.435, 876.645 722.250, 876.041 730.500 C 875.438 738.750, 874.724 747.750, 874.456 750.500 C 873.890 756.306, 868.129 780.620, 863.438 797 C 861.609 803.387, 858.421 818.194, 856.979 827 C 856.304 831.125, 854.731 837.200, 853.484 840.500 C 852.237 843.800, 850.911 847.519, 850.537 848.765 C 849.592 851.906, 848 850.562, 848 846.623 C 848 842.778, 842.520 835, 839.812 835 C 837.419 835, 834.791 840.320, 835.597 843.532 C 836.001 845.140, 835.697 846.712, 834.774 847.790 C 833.969 848.731, 832.525 851.525, 831.566 854 C 830.607 856.475, 829.350 859.071, 828.773 859.768 C 828.197 860.466, 827.361 862.716, 826.917 864.768 C 826.473 866.821, 825.426 871.425, 824.590 875 C 823.754 878.575, 823.054 882.992, 823.035 884.816 C 823.016 886.639, 822.543 888.985, 821.985 890.028 C 821.426 891.072, 820.770 893.180, 820.526 894.713 C 820.283 896.246, 819.182 901.550, 818.081 906.500 C 816.980 911.450, 816.064 917.075, 816.046 919 C 816.006 923.276, 813.267 939.474, 809.028 960.500 C 807.919 966, 807.015 971.400, 807.018 972.500 C 807.022 973.600, 806.591 977.200, 806.060 980.500 C 805.530 983.800, 804.416 992.429, 803.586 999.675 C 802.755 1006.921, 801.823 1013.896, 801.514 1015.175 C 800.859 1017.884, 799.189 1034.759, 798.017 1050.500 C 797.139 1062.291, 795.870 1071.554, 794.062 1079.375 C 793.443 1082.056, 792.306 1089.256, 791.537 1095.375 C 789.267 1113.428, 785.952 1133.438, 785.086 1134.310 C 784.139 1135.262, 746.116 1135.324, 737.757 1134.387 C 733.831 1133.947, 731.546 1134.132, 730.533 1134.973 C 728.762 1136.442, 716.644 1135.385, 717.596 1133.844 C 718.834 1131.842, 737.139 1124.698, 748.870 1121.639 C 754.514 1120.168, 760.186 1115.330, 760.171 1112 C 760.155 1108.308, 758.913 1103.707, 757.472 1102 C 756.776 1101.175, 755.967 1098.475, 755.676 1096 C 754.899 1089.410, 753.705 1084.118, 749.469 1068.500 C 745.765 1054.839, 744.065 1046.255, 742.043 1031 C 741.497 1026.875, 739.913 1019.453, 738.525 1014.507 C 737.136 1009.561, 736 1004.374, 736 1002.980 C 736 1001.586, 735.392 999.557, 734.648 998.473 C 733.905 997.388, 733.021 994.093, 732.684 991.152 C 731.875 984.093, 729.292 979.058, 725 976.175 C 722.178 974.279, 720.669 973.935, 717.209 974.398 C 713.652 974.875, 712.197 974.509, 708.709 972.261 C 703.888 969.155, 697.775 968.703, 689.500 970.842 C 681.716 972.853, 676.133 974.102, 668 975.651 C 641.204 980.754, 630.729 981.399, 621.957 978.486 C 617.671 977.062, 613.505 976.807, 597.642 976.999 C 574.782 977.274, 555.237 976.461, 548.851 974.968 C 546.294 974.370, 543.412 973.008, 542.446 971.941 C 541.480 970.873, 539.661 970, 538.404 970 C 537.147 970, 535.840 969.550, 535.500 969 C 535.160 968.450, 533.178 968, 531.096 968 C 528.519 968, 526.703 967.329, 525.407 965.898 C 522.912 963.140, 518.686 961, 515.737 961 C 512.754 961, 508.281 965.602, 506.915 970.075 C 506.340 971.959, 505.461 976.534, 504.963 980.242 C 504.465 983.950, 503.415 988, 502.631 989.242 C 501.203 991.503, 496.520 1009.415, 495.635 1016 C 495.376 1017.925, 494.402 1022.875, 493.470 1027 C 492.436 1031.573, 491.647 1040.159, 491.448 1049 C 490.953 1070.959, 489.978 1084.803, 488.421 1092 C 487.647 1095.575, 486.577 1105.211, 486.044 1113.413 C 485.510 1121.615, 484.720 1128.670, 484.287 1129.089 C 483.017 1130.320, 463.151 1132.292, 458.476 1131.652 C 456.062 1131.321, 451.201 1131.717, 447.346 1132.558 C 443.581 1133.380, 433.975 1134.262, 426 1134.519 C 418.025 1134.776, 409.859 1135.247, 407.853 1135.564 C 405.847 1135.881, 403.953 1135.732, 403.644 1135.233 C 402.953 1134.116, 409.413 1127.853, 413.500 1125.679 C 415.150 1124.801, 421.675 1122.867, 428 1121.382 C 440.432 1118.464, 454.092 1112.316, 456.579 1108.520 C 457.880 1106.534, 457.678 1105.272, 454.511 1095.602 C 452.580 1089.708, 451 1083.706, 451 1082.264 C 451 1079.554, 449.679 1074.715, 447.515 1069.500 C 446.719 1067.581, 446.582 1065.659, 447.134 1064.167 C 448.121 1061.499, 447.509 1058.241, 444.934 1052.450 C 443.943 1050.223, 442.210 1044.877, 441.082 1040.571 C 439.954 1036.266, 438.569 1032.186, 438.005 1031.505 C 437.022 1030.322, 434.625 1022.386, 431.358 1009.500 C 430.521 1006.200, 428.882 1001.333, 427.716 998.684 C 426.213 995.269, 425.926 993.664, 426.730 993.167 C 427.533 992.670, 426.973 989.560, 424.807 982.483 C 423.126 976.992, 421.171 970.416, 420.463 967.870 C 419.755 965.323, 418.522 961.948, 417.724 960.370 C 416.925 958.791, 415.961 955.067, 415.581 952.094 C 415.201 949.120, 414.202 945.357, 413.361 943.730 C 412.520 942.104, 411.186 938.237, 410.398 935.137 C 409.609 932.037, 407.670 926.800, 406.089 923.500 C 401.372 913.658, 400 910.288, 400 908.541 C 400 906.729, 396.856 900.721, 391.166 891.662 C 387.436 885.722, 376.615 874, 374.862 874 C 374.332 874, 373.215 872.364, 372.379 870.365 C 371.544 868.366, 370.059 865.553, 369.079 864.115 C 357.902 847.703, 353.002 838.163, 353.001 832.809 C 353 831.329, 352.550 829.840, 352 829.500 C 351.450 829.160, 351 827.401, 351 825.590 C 351 823.780, 350.603 820.994, 350.119 819.399 C 344.292 800.232, 343.145 793.989, 341.958 775 C 341.356 765.375, 340.485 754.740, 340.024 751.366 C 339.160 745.058, 340.213 726.784, 342.001 717.066 C 342.550 714.078, 343.003 710.253, 343.006 708.566 C 343.010 706.880, 343.687 704.205, 344.513 702.623 C 345.618 700.503, 346.109 695.374, 346.380 683.123 C 347.088 650.998, 350.139 607.360, 351.897 604.219 C 352.699 602.787, 353.004 602.976, 353.997 605.522 C 357.015 613.260, 364.475 627.184, 366.055 628.029 C 367.026 628.549, 368.780 630.527, 369.953 632.424 C 371.251 634.525, 373.405 636.308, 375.462 636.988 C 377.320 637.601, 379.381 638.754, 380.042 639.551 C 380.704 640.348, 382.079 641, 383.099 641 C 384.119 641, 385.686 642.117, 386.580 643.482 C 389.707 648.254, 395.751 650.838, 409 653.070 C 417.863 654.562, 423.260 656.203, 427.031 658.550 C 428.972 659.759, 432.347 661.002, 434.531 661.313 C 459.656 664.889, 466.622 665.569, 475 665.264 C 485.755 664.873, 492.320 664.842, 506.099 665.117 C 512.735 665.250, 517.212 664.807, 520.599 663.684 C 530.200 660.499, 535.562 659.048, 540 658.433 C 542.475 658.090, 548.100 656.755, 552.500 655.467 C 556.900 654.178, 562.519 652.813, 564.987 652.434 C 567.455 652.055, 571.224 651.127, 573.363 650.372 C 575.501 649.617, 578.308 649, 579.599 649 C 581.807 649, 586.963 646.979, 595 642.962 C 600.460 640.234, 606.330 639.602, 609.758 641.375 C 611.375 642.211, 614.903 643.409, 617.599 644.037 C 620.295 644.665, 623.850 645.773, 625.500 646.500 C 631.958 649.344, 654.310 655, 659.090 655 C 660.639 655, 662.940 655.411, 664.203 655.913 C 665.466 656.415, 670.550 657.354, 675.500 658 C 680.450 658.645, 686.300 659.766, 688.500 660.490 C 694.186 662.362, 698.587 662.943, 714.898 663.971 C 723.707 664.526, 732.246 664.516, 736.898 663.944 C 754.720 661.754, 759.152 660.973, 761.946 659.528 C 763.571 658.688, 765.808 658, 766.916 658 C 770.285 658, 785.718 650.766, 791.564 646.446 C 793.248 645.201, 796.327 643.472, 798.405 642.604 C 800.483 641.736, 804.831 638.320, 808.067 635.013 C 811.303 631.706, 814.357 629, 814.855 629 C 816.383 629, 824.024 618.183, 825.548 613.863 C 826.339 611.621, 828.499 607.697, 830.347 605.143 C 836.928 596.049, 842.209 582.426, 844.940 567.500 C 848.691 547, 848.671 546.082, 844.434 544.152 C 840.409 542.318, 838.619 542.766, 834.983 546.518 C 831.713 549.892, 826.571 561.537, 825.277 568.500 C 824.971 570.150, 823.889 572.565, 822.874 573.868 C 821.858 575.170, 821.278 576.641, 821.585 577.138 C 821.892 577.635, 820.969 579.436, 819.535 581.141 C 818.100 582.846, 816.301 585.737, 815.538 587.564 C 813.901 591.482, 804.084 604, 802.649 604 C 802.103 604, 800.046 605.607, 798.078 607.570 C 786.874 618.750, 774.923 627, 769.934 627 C 769.003 627, 765.804 628.116, 762.825 629.480 C 753.664 633.674, 743.598 635.223, 729.222 634.653 C 714.461 634.067, 688.212 631.623, 685.947 630.623 C 685.092 630.246, 678.567 629.522, 671.447 629.014 C 656.667 627.960, 650.821 626.963, 650.303 625.408 C 649.902 624.206, 659.952 619.393, 670 615.973 C 673.575 614.757, 677.918 613.140, 679.651 612.381 C 681.384 611.621, 683.319 611, 683.951 611 C 684.582 611, 686.403 610.326, 687.996 609.502 C 689.590 608.678, 694.405 607.532, 698.697 606.956 C 709.793 605.467, 713.580 604.126, 719.632 599.541 C 722.566 597.318, 726.151 594.652, 727.598 593.616 C 729.046 592.580, 731.074 589.827, 732.104 587.498 C 733.134 585.170, 734.657 582.700, 735.488 582.010 C 736.320 581.320, 737 580.272, 737 579.681 C 737 579.091, 738.075 577.008, 739.390 575.054 C 741.553 571.838, 748.160 553.559, 750.796 543.500 C 751.373 541.300, 752.611 534.550, 753.547 528.500 C 755.537 515.644, 756.537 475.871, 754.945 472.897 C 754.392 471.865, 752.607 470.331, 750.977 469.488 C 748.217 468.061, 747.686 468.112, 743.258 470.228 C 738.553 472.477, 738.487 472.576, 736.812 479.877 C 735.881 483.934, 734.387 494.509, 733.491 503.377 C 729.946 538.461, 728.104 548, 724.876 548 C 724.285 548, 722.571 546.682, 721.066 545.071 C 718.546 542.373, 717.104 541.938, 702.832 539.571 C 686.374 536.841, 672.289 536.319, 661 538.020 C 657.425 538.558, 649.579 539.225, 643.565 539.502 C 637.551 539.778, 631.251 540.416, 629.565 540.920 C 627.879 541.424, 622.900 542.593, 618.500 543.518 C 614.100 544.443, 608.685 545.830, 606.467 546.600 C 600.206 548.773, 601.736 549.178, 581.500 539.999 C 572.574 535.950, 559.484 532.593, 552 532.434 C 547.875 532.347, 541.965 531.703, 538.866 531.004 C 535.326 530.206, 531.796 530.032, 529.366 530.535 C 527.240 530.976, 525.163 531.261, 524.751 531.169 C 524.340 531.076, 516.919 531.900, 508.260 532.999 C 489.137 535.426, 476.348 539.400, 470.958 544.590 C 465.931 549.430, 464.372 549.054, 461.260 542.250 C 459.024 537.363, 458.570 534.775, 458.233 525 C 457.947 516.714, 458.299 511.404, 459.494 506 C 460.406 501.875, 461.402 496.577, 461.708 494.227 C 462.015 491.877, 462.656 489.713, 463.133 489.418 C 463.610 489.123, 464 488, 464 486.922 C 464 485.844, 465.350 482.432, 467 479.340 C 468.650 476.248, 470 472.847, 470 471.782 C 470 470.717, 468.685 468.531, 467.077 466.923 C 463.772 463.618, 459.718 463.108, 456.221 465.558 C 454.998 466.414, 453.110 467.286, 452.025 467.495 C 446.971 468.468, 436.231 483.553, 433.866 493 C 428.717 513.569, 427.560 528.306, 430.332 538 C 431.197 541.025, 432.534 545.750, 433.304 548.500 C 434.963 554.427, 443.953 568.941, 449.253 574.248 C 453.542 578.543, 466.885 586, 470.281 586 C 471.531 586, 473.443 586.601, 474.527 587.337 C 477.245 589.178, 486.478 592.153, 492.500 593.127 C 510.053 595.966, 521.736 595.089, 549 588.885 C 551.475 588.322, 554.850 587.896, 556.500 587.937 C 558.150 587.979, 561.075 587.383, 563 586.614 C 564.925 585.844, 569.200 584.744, 572.500 584.169 C 582.310 582.461, 589.941 580.453, 600.250 576.870 C 602.038 576.249, 606.200 575.298, 609.500 574.758 C 617.218 573.493, 625.924 571.065, 628.600 569.432 C 632.385 567.122, 645.348 563.220, 653 562.088 C 662.132 560.736, 678.035 560.447, 687.500 561.460 C 695.434 562.309, 711.763 566.363, 713.255 567.855 C 713.905 568.505, 713.262 570.214, 711.371 572.858 C 708.304 577.148, 703.785 579, 696.386 579 C 692.982 579, 687.197 580.881, 675 585.954 C 672.525 586.984, 666.675 589.030, 662 590.502 C 657.325 591.973, 650.415 594.488, 646.645 596.089 C 642.875 597.690, 638.803 599, 637.595 599 C 636.388 599, 634.939 599.461, 634.375 600.025 C 633.811 600.589, 632.033 601.257, 630.425 601.508 C 625.289 602.311, 616.434 604.697, 614.247 605.868 C 613.084 606.490, 610.709 607, 608.970 607 C 607.231 607, 604.614 607.618, 603.154 608.373 C 597.879 611.102, 592.385 613.281, 586.474 614.989 C 583.160 615.947, 578.516 617.717, 576.153 618.922 C 573.791 620.127, 568.622 621.476, 564.666 621.920 C 560.366 622.402, 555.468 623.737, 552.487 625.239 C 549.744 626.621, 545.086 628.264, 542.136 628.890 C 539.185 629.516, 533.975 631.147, 530.557 632.514 C 527.139 633.881, 523.561 635, 522.606 635 C 521.650 635, 519.886 635.529, 518.684 636.175 C 515.363 637.960, 498.253 638.133, 494.158 636.421 C 491.932 635.491, 486.909 634.988, 479.628 634.964 C 458.189 634.896, 438.315 632.316, 423.471 627.675 C 417.437 625.789, 410.610 623.729, 408.300 623.098 C 405.636 622.370, 403.341 620.884, 402.024 619.034 C 400.882 617.430, 398.976 615.810, 397.787 615.432 C 396.599 615.055, 391.737 610.827, 386.982 606.037 L 378.339 597.327 376.650 588.827 C 375.722 584.152, 374.785 577.207, 374.569 573.395 C 374.352 569.582, 373.471 563.749, 372.612 560.432 C 371.529 556.253, 371.158 551.231, 371.405 544.081 C 371.718 535.024, 371.531 533.531, 369.881 531.881 C 367.236 529.236, 364.509 529.541, 362.115 532.750 C 360.487 534.932, 360.057 535.131, 360.032 533.710 C 360.014 532.726, 360.900 530.156, 362 528 C 363.100 525.844, 364 523.450, 364 522.681 C 364 521.072, 368.734 511.955, 372.290 506.714 C 373.961 504.252, 374.924 501.041, 375.407 496.325 C 375.860 491.895, 376.964 488.034, 378.553 485.322 C 379.899 483.024, 381 480.641, 381 480.026 C 381 478.036, 389.985 460.374, 393.543 455.369 C 395.444 452.695, 397.003 449.830, 397.006 449.003 C 397.010 448.176, 397.622 446.375, 398.367 445 C 399.112 443.625, 401.409 439.363, 403.471 435.529 C 405.533 431.694, 409.586 425.844, 412.479 422.529 C 415.371 419.213, 418.455 415.092, 419.332 413.371 C 420.209 411.650, 421.560 409.999, 422.334 409.702 C 423.109 409.405, 424.062 407.888, 424.452 406.331 C 424.843 404.774, 426.026 402.695, 427.081 401.711 C 428.137 400.727, 429 399.192, 429 398.299 C 429 393.158, 446.524 373.350, 453.739 370.336 C 455.533 369.586, 457 368.572, 457 368.081 C 457 367.591, 458.578 365.300, 460.507 362.992 C 462.435 360.683, 464.274 357.758, 464.592 356.490 C 466.001 350.877, 459.815 346.516, 451.634 347.355 C 441.988 348.344, 439.220 349.194, 435.390 352.346 C 433.283 354.081, 430.421 355.500, 429.029 355.500 C 426.939 355.500, 426.558 355.913, 426.834 357.876 C 427.070 359.552, 426.010 361.468, 423.240 364.376 C 421.079 366.644, 418.251 370.075, 416.955 372 C 415.660 373.925, 411.615 378.875, 407.967 383 C 404.319 387.125, 399.150 394.246, 396.481 398.824 C 393.812 403.402, 390.844 407.696, 389.887 408.367 C 388.265 409.503, 374.129 436.751, 372.567 441.751 C 372.181 442.989, 370.995 444.467, 369.932 445.036 C 368.870 445.605, 367.998 447.067, 367.996 448.285 C 367.994 449.503, 367.027 452.075, 365.848 454 C 363.517 457.804, 358.356 468.025, 349.690 486 C 344.592 496.575, 339 512.057, 339 515.597 C 339 516.407, 338.305 518.131, 337.456 519.427 C 335.710 522.092, 328.582 548.616, 326.552 560 C 325.817 564.125, 324.745 568.625, 324.170 570 C 322.326 574.410, 317.825 611.551, 315.446 642 C 314.607 652.725, 313.492 663.075, 312.966 665 C 312.441 666.925, 312.009 670.525, 312.006 673 C 312.003 675.476, 311.312 680.651, 310.471 684.500 C 307.461 698.284, 305.926 741.464, 307.841 758.500 C 308.459 764, 309.220 773.417, 309.533 779.427 C 309.845 785.437, 310.279 790.642, 310.497 790.995 C 311.490 792.601, 315 807.263, 315 809.803 C 315 812.712, 317.131 820.149, 319.498 825.500 C 320.228 827.150, 321.363 830.525, 322.020 833 C 322.677 835.475, 323.812 839.075, 324.541 841 C 325.271 842.925, 326.600 846.837, 327.495 849.693 C 328.391 852.550, 329.968 855.960, 331 857.272 C 332.032 858.584, 333.204 860.965, 333.605 862.562 C 334.006 864.159, 337.698 869.298, 341.810 873.983 C 350.037 883.355, 352.991 887.631, 352.996 890.179 C 353.002 892.733, 355.814 895, 358.978 895 C 361.404 895, 362.905 896.458, 369.406 905.134 C 373.916 911.152, 377 916.238, 377 917.656 C 377 918.970, 378.738 923.522, 380.863 927.772 C 384.889 935.826, 385.988 941.633, 387.526 963 C 387.863 967.675, 389.053 974.875, 390.172 979 C 391.291 983.125, 393.027 990.100, 394.031 994.500 C 396.751 1006.426, 397.879 1010.697, 399.944 1016.890 C 400.973 1019.975, 402.568 1026.775, 403.488 1032 C 404.409 1037.225, 406.496 1047.800, 408.127 1055.500 C 409.758 1063.200, 411.302 1070.625, 411.557 1072 C 412.224 1075.600, 416.964 1090.920, 418.605 1094.784 C 421.014 1100.456, 420.522 1101.523, 414.411 1103.861 C 411.337 1105.038, 408.282 1106, 407.622 1106 C 406.963 1106, 404.658 1106.900, 402.500 1108 C 400.342 1109.100, 397.602 1110, 396.411 1110 C 395.220 1110, 393.685 1110.675, 393 1111.500 C 392.315 1112.325, 391.187 1113, 390.492 1113 C 387.570 1113, 377.777 1122.499, 374.973 1128.053 C 372.608 1132.738, 371.554 1133.839, 368.929 1134.364 C 363.820 1135.386, 348.793 1135.098, 340.322 1133.816 C 336.020 1133.165, 331.375 1132.675, 330 1132.728 C 328.625 1132.780, 317.150 1133.313, 304.500 1133.911 C 291.850 1134.510, 280.375 1135.033, 279 1135.074 C 271.507 1135.295, 253.982 1137.249, 250.678 1138.232 C 245.941 1139.640, 242.639 1143.457, 243.984 1145.970 C 245.313 1148.454, 248.932 1149.679, 261.500 1151.900 C 273.961 1154.102, 291.519 1154.102, 299 1151.900 C 305.239 1150.064, 325.131 1150.340, 343.933 1152.525 C 357.786 1154.134, 361.078 1154.185, 376.075 1153.023 C 388.686 1152.046, 393.583 1152.007, 396.041 1152.864 C 400.558 1154.439, 408.360 1154.283, 419.250 1152.401 C 428.491 1150.804, 438.429 1151.089, 442.104 1153.056 C 443.130 1153.605, 447.719 1153.597, 453.653 1153.035 C 460.083 1152.426, 467.191 1152.465, 474.134 1153.145 C 483.903 1154.103, 485.488 1154.004, 493.634 1151.923 C 503.681 1149.358, 515.132 1149.121, 531 1151.152 C 542.777 1152.659, 554.206 1152.640, 564 1151.096 C 568.125 1150.446, 574.650 1149.727, 578.500 1149.499 C 582.350 1149.271, 590.225 1148.607, 596 1148.023 C 601.775 1147.439, 609.425 1147.249, 613 1147.601 C 616.575 1147.952, 624.225 1148.298, 630 1148.370 C 635.775 1148.441, 641.062 1148.863, 641.748 1149.308 C 642.434 1149.752, 651.434 1150.099, 661.748 1150.080 C 672.062 1150.060, 682.975 1150.462, 686 1150.972 C 689.025 1151.483, 697.938 1152.179, 705.808 1152.520 C 713.677 1152.860, 722.452 1153.614, 725.308 1154.196 C 728.163 1154.777, 732.975 1155.182, 736 1155.094 C 739.025 1155.007, 755.675 1154.828, 773 1154.697 C 790.325 1154.566, 805.963 1154.094, 807.752 1153.649 C 810.001 1153.090, 812.554 1153.355, 816.033 1154.511 C 819.657 1155.715, 822.660 1156.001, 826.781 1155.534 C 838.960 1154.157, 856.184 1153.911, 872.059 1154.890 C 885.672 1155.729, 890.209 1155.644, 897.559 1154.416 C 902.477 1153.594, 911 1152.984, 916.500 1153.061 C 953.368 1153.575, 960.942 1153.390, 971.317 1151.723 C 980.448 1150.255, 983.956 1150.147, 993.817 1151.029 C 1000.243 1151.603, 1006.737 1152.484, 1008.250 1152.985 C 1009.829 1153.508, 1012.171 1153.529, 1013.750 1153.035 C 1015.263 1152.561, 1024.068 1151.612, 1033.318 1150.927 C 1047.121 1149.904, 1050.572 1149.338, 1052.568 1147.768 C 1055.529 1145.439, 1055.701 1141.944, 1052.976 1139.478 C 1050.580 1137.310, 1035.560 1136.267, 996.167 1135.535 C 982.783 1135.286, 970.945 1134.800, 969.860 1134.455 C 966.703 1133.454, 968.103 1130.870, 973.500 1127.737 C 980.253 1123.817, 988.606 1115.511, 991.446 1109.891 C 996.723 1099.450, 998.081 1085.703, 995.535 1068.500 C 993.823 1056.937, 992.346 1051.303, 990.037 1047.530 C 989.017 1045.863, 987.669 1042.475, 987.041 1040 C 986.413 1037.525, 983.730 1031, 981.078 1025.500 C 978.427 1020, 975.945 1014.177, 975.563 1012.561 C 975.180 1010.945, 973.997 1008.400, 972.934 1006.907 C 971.870 1005.413, 970.998 1003.586, 970.996 1002.846 C 970.994 1002.106, 969.998 999.925, 968.783 998 C 965.812 993.293, 957.360 978.681, 954.034 972.500 C 952.553 969.750, 949.912 965.250, 948.163 962.500 C 946.415 959.750, 943.648 954.721, 942.016 951.323 C 940.383 947.926, 938.624 944.886, 938.108 944.567 C 937.592 944.248, 936.198 940.952, 935.011 937.243 C 933.824 933.534, 932.052 929.124, 931.074 927.443 C 930.095 925.761, 928.995 922.786, 928.628 920.830 C 928.261 918.875, 927.070 916.468, 925.980 915.482 C 924.891 914.497, 924 913.293, 924 912.807 C 924 911.460, 912.773 889.087, 909.606 884.122 C 908.070 881.714, 906.005 877.439, 905.019 874.622 C 901.422 864.355, 899.294 859.414, 896.711 855.329 C 895.261 853.034, 893.117 848.315, 891.946 844.840 C 890.237 839.766, 889.951 837.280, 890.494 832.208 C 891.145 826.136, 895.785 810.126, 898.191 805.654 C 898.829 804.469, 899.686 801.925, 900.096 800 C 900.506 798.075, 901.725 792.675, 902.804 788 C 907.132 769.258, 907.349 767.557, 911.425 720.500 C 912.235 711.150, 913.392 699.732, 913.996 695.127 C 914.788 689.083, 914.792 683.521, 914.011 675.127 C 913.415 668.732, 913.078 660.020, 913.262 655.766 C 913.445 651.512, 913.201 647.900, 912.718 647.739 C 911.506 647.335, 909.244 635.823, 907.564 621.500 C 906.789 614.900, 905.698 608.150, 905.139 606.500 C 903.493 601.639, 901.533 586.125, 901.475 577.500 C 901.397 565.772, 898.784 545.332, 895.593 531.500 C 892.475 517.979, 891.680 515.174, 888.919 507.973 C 887.333 503.834, 884.883 497.153, 883.477 493.127 C 882.070 489.100, 880.303 484.837, 879.550 483.653 C 878.022 481.248, 872.559 460.968, 871.564 454 C 871.206 451.495, 869.386 447.082, 867.460 444.046 C 865.557 441.047, 864 438.007, 864 437.291 C 864 436.575, 862.162 431.604, 859.916 426.245 C 854.340 412.937, 852.380 406.144, 850.908 395.020 C 850.008 388.220, 849.142 385.110, 847.847 384.020 C 846.854 383.184, 844.421 379.350, 842.441 375.500 C 840.461 371.650, 837.894 367.483, 836.736 366.239 C 835.579 364.996, 833.702 362.462, 832.566 360.607 C 831.430 358.753, 828.841 354.820, 826.813 351.868 C 822.343 345.360, 819.600 334.497, 822.038 332.956 C 824.336 331.502, 828.091 331.832, 834.374 334.040 C 839.992 336.015, 840.276 336.023, 843.224 334.290 C 844.899 333.306, 846.886 331.567, 847.639 330.428 C 848.861 328.579, 848.678 327.856, 845.942 323.726 C 843.490 320.024, 841.785 318.689, 837.428 317.059 C 830.768 314.567, 825.669 313.904, 820.836 314.901 M 603.725 325.752 C 602.853 326.715, 601.673 328.730, 601.103 330.229 C 599.896 333.403, 600.573 351.515, 602.010 354.500 C 602.539 355.600, 603.541 358.287, 604.236 360.472 C 605.764 365.275, 609.106 367.364, 612.667 365.742 C 613.976 365.145, 615.361 363.497, 615.743 362.079 C 616.652 358.708, 616.600 348.663, 615.617 337.804 C 614.974 330.706, 614.395 328.639, 612.462 326.554 C 609.715 323.589, 605.991 323.247, 603.725 325.752 M 432 326.780 C 420.893 330.581, 416.455 332.727, 412.492 336.216 C 405.836 342.075, 405.924 347.936, 412.731 352.143 C 417.146 354.871, 421.739 354.170, 429.991 349.505 C 433.402 347.577, 436.641 346, 437.190 346 C 439.768 346, 455.988 337.313, 456.776 335.510 C 458.246 332.148, 456.723 328.641, 452.971 326.752 C 448.661 324.580, 438.389 324.594, 432 326.780 M 718.611 327.295 C 716.513 328.829, 716.122 335.518, 717.459 346.993 C 718.181 353.185, 718.811 354.965, 721.089 357.243 C 725.670 361.824, 730.272 360.415, 732.028 353.895 C 732.890 350.695, 732.757 347.585, 731.407 339.361 C 729.697 328.939, 729.677 328.892, 726.223 327.449 C 721.961 325.668, 720.866 325.646, 718.611 327.295 M 488.740 334.085 C 485.822 335.785, 484.181 341.364, 483.841 350.751 C 483.525 359.456, 483.581 359.707, 486.405 362.325 C 489.603 365.288, 490.961 365.551, 494.264 363.845 C 495.494 363.209, 497.170 362.376, 497.988 361.993 C 498.807 361.610, 499.871 359.317, 500.353 356.898 C 501.487 351.206, 499.593 337.313, 497.345 334.829 C 495.533 332.826, 491.501 332.478, 488.740 334.085 M 524.355 337.750 C 520.370 342.047, 520.170 342.871, 520.409 354.012 C 520.584 362.153, 521.067 365.309, 522.567 368.116 C 530.058 382.131, 529.868 381.880, 533.951 383.103 C 537.313 384.111, 538.293 384.038, 540.455 382.622 C 544.034 380.277, 543.760 377.539, 538.394 362.018 C 534.972 352.119, 533.933 347.801, 534.352 345.217 C 535.207 339.952, 532.065 335, 527.870 335 C 527.339 335, 525.757 336.238, 524.355 337.750 M 641.225 360.784 C 639.974 360.983, 638.222 362.258, 637.332 363.617 C 635.956 365.715, 635.794 368.303, 636.253 380.794 C 636.735 393.897, 637.094 396.209, 639.544 402 C 641.056 405.575, 643.177 409.288, 644.257 410.250 C 646.539 412.283, 651.291 412.561, 652.789 410.750 C 653.409 410.002, 653.698 405.085, 653.510 398.500 C 653.170 386.588, 652.819 383.935, 649.855 370.887 C 647.778 361.748, 646.270 359.981, 641.225 360.784 M 775.967 369.540 C 773.302 372.751, 778.948 395.583, 783.809 401.250 C 787.806 405.910, 794.750 401.354, 793.704 394.757 C 793.070 390.759, 788.883 378.609, 786.653 374.297 C 783.751 368.685, 778.585 366.385, 775.967 369.540 M 735.341 378.070 C 733.177 378.870, 731.738 382.341, 731.431 387.500 C 729.819 414.655, 729.823 424.748, 731.447 430.253 C 732.417 433.542, 733.942 436.434, 735.006 437.003 C 737.387 438.278, 741.606 438.281, 743.981 437.010 C 748.643 434.515, 749.273 411.925, 745.389 386.500 C 744.415 380.127, 739.937 376.370, 735.341 378.070 M 688.692 382.286 C 687.408 383.504, 685.538 387.060, 684.537 390.189 C 682.796 395.629, 682.791 396.327, 684.424 406.129 C 687.218 422.896, 689.540 425.986, 695.412 420.750 C 697.925 418.510, 697.932 418.457, 697.004 408.500 C 696.491 403, 696.048 395.125, 696.020 391 C 695.992 386.875, 695.639 383.017, 695.235 382.427 C 693.670 380.142, 691.014 380.085, 688.692 382.286 M 478.757 386.565 C 477.530 387.975, 475.251 392.345, 473.692 396.274 C 470.387 404.601, 470.655 408.797, 474.694 411.974 C 476.968 413.762, 477.582 413.858, 479.333 412.695 C 481.486 411.265, 488.882 394.016, 488.956 390.250 C 489.010 387.475, 485.695 384, 482.993 384 C 481.890 384, 479.983 385.154, 478.757 386.565 M 553.293 414.250 C 550.803 416.976, 549.950 422.371, 549.839 436.097 C 549.782 443.157, 550.322 448.589, 551.521 453 C 553.521 460.358, 554.388 461.596, 558.200 462.530 C 560.300 463.045, 561.465 462.626, 563.450 460.641 C 565.994 458.097, 566 458.047, 566 440.171 C 566 422.078, 564.862 414.802, 561.721 412.806 C 559.383 411.321, 555.335 412.015, 553.293 414.250 M 435.889 416.205 C 433.886 417.815, 428.972 425.124, 426.137 430.710 C 424.031 434.859, 423.330 441.451, 424.765 443.600 C 426.026 445.489, 429.994 447.137, 431.857 446.545 C 434.519 445.701, 437.511 441.092, 438.829 435.807 C 439.473 433.226, 440.856 429.626, 441.903 427.807 C 444.570 423.172, 445.392 418.570, 443.789 417.240 C 441.523 415.359, 437.584 414.843, 435.889 416.205 M 808.571 427.571 C 807.707 428.436, 806.918 430.798, 806.817 432.821 C 806.404 441.157, 806.411 451.993, 806.836 459.821 C 807.232 467.131, 807.565 468.324, 809.583 469.646 C 811.641 470.995, 812.242 470.979, 815.362 469.498 C 817.278 468.589, 819.146 467.093, 819.513 466.173 C 819.881 465.253, 820.344 459.893, 820.543 454.261 C 820.996 441.429, 819.068 430.283, 815.961 427.767 C 813.261 425.581, 810.631 425.512, 808.571 427.571 M 587.825 440.245 C 585.610 442.016, 584 449.612, 584 458.294 C 584 470.628, 586.656 474.602, 593.228 472.103 C 598.370 470.148, 598.779 466.890, 596.117 449.053 C 595.505 444.957, 594.667 441.295, 594.253 440.915 C 592.603 439.402, 589.310 439.059, 587.825 440.245 M 492.695 444.250 C 491.767 444.938, 490.072 448.170, 488.930 451.434 C 484.781 463.288, 486.952 482.390, 493.362 490.429 C 496.415 494.258, 501.068 494.386, 504.713 490.741 L 507.305 488.149 505.557 481.918 C 504.350 477.618, 503.725 471.234, 503.539 461.321 C 503.311 449.167, 502.994 446.651, 501.480 444.978 C 499.453 442.738, 495.210 442.387, 492.695 444.250 M 635.562 447.250 C 634.595 450.471, 633 460.676, 633 463.639 C 633 468.878, 637.750 486.198, 639.715 488.124 C 642.611 490.963, 646.301 491.386, 649.012 489.191 C 651.208 487.413, 651.378 486.631, 651.147 479.379 C 651.009 475.046, 650.481 469.700, 649.973 467.500 C 649.465 465.300, 649.028 461.475, 649.002 459 C 648.977 456.525, 648.088 452.587, 647.027 450.250 C 645.166 446.149, 644.937 446, 640.518 446 C 637.720 446, 635.791 446.487, 635.562 447.250 M 775.407 449.502 C 774.134 451.445, 773.900 453.399, 774.362 458.252 C 774.689 461.688, 775.029 470.350, 775.118 477.500 C 775.207 484.650, 775.456 491.239, 775.673 492.142 C 775.889 493.046, 777.430 494.350, 779.097 495.040 C 781.753 496.140, 782.458 496.049, 784.797 494.302 C 788.541 491.507, 790.260 485.136, 790.276 474 C 790.290 463.626, 787.439 452.439, 783.872 448.872 C 781.204 446.204, 777.381 446.488, 775.407 449.502 M 411.500 457.023 C 410.400 457.455, 407.620 459.765, 405.323 462.155 C 400.708 466.956, 396 478.503, 396 485.019 C 396 488.937, 398.360 492, 401.380 492 C 404.351 492, 409.901 484.893, 411.921 478.500 C 414.271 471.061, 416.003 466.158, 417.282 463.317 C 419.089 459.307, 415.534 455.436, 411.500 457.023 M 713.229 459.669 C 710.854 460.625, 709.244 465.482, 709.143 472 C 709.003 480.999, 708.139 490.447, 706.835 497.236 C 705.528 504.038, 706.550 506.008, 711.372 505.985 C 717.160 505.958, 719.236 504.053, 721.725 496.489 C 723.743 490.355, 723.954 488.216, 723.455 479 C 722.713 465.315, 721.613 461.184, 718.385 459.956 C 715.663 458.921, 715.158 458.893, 713.229 459.669 M 513 472.500 C 513 473.417, 513.484 474.005, 514.075 473.808 C 514.666 473.611, 515.150 473.022, 515.150 472.500 C 515.150 471.978, 514.666 471.389, 514.075 471.192 C 513.484 470.995, 513 471.583, 513 472.500 M 837.127 473.727 C 835.440 475.117, 834.752 477.309, 833.941 483.878 C 832.583 494.867, 833.567 518.994, 835.449 520.878 C 837.288 522.717, 843.446 521.554, 846.142 518.858 C 848.057 516.943, 848.144 515.936, 847.667 501.164 C 847.144 484.934, 846.024 475.579, 844.426 474.089 C 842.344 472.146, 839.232 471.992, 837.127 473.727 M 396.685 517.250 C 390.729 522.774, 388.227 549.644, 392.829 558.664 C 393.987 560.934, 395.656 563.513, 396.539 564.396 C 398.443 566.300, 403.548 566.522, 404.681 564.750 C 405.121 564.063, 405.532 554.950, 405.595 544.500 C 405.657 534.050, 406.044 524.082, 406.453 522.349 C 407.045 519.844, 406.767 518.767, 405.099 517.099 C 402.391 514.391, 399.716 514.439, 396.685 517.250 M 779.216 523.250 C 778.650 523.938, 777.918 530.235, 777.589 537.245 C 777.034 549.057, 777.136 550.136, 778.970 551.970 C 783.644 556.644, 788.810 555.202, 790.938 548.629 C 792.743 543.053, 790.845 526.928, 787.976 523.472 C 786.487 521.676, 780.633 521.528, 779.216 523.250 M 811.452 541.646 C 809.568 543.679, 809 545.387, 809 549.020 C 809 551.621, 808.325 555.662, 807.500 558 C 806.675 560.338, 806 563.379, 806 564.758 C 806 566.136, 805.158 568.667, 804.129 570.382 C 801.428 574.885, 800.752 580.609, 802.693 582.550 C 803.554 583.411, 804.912 583.864, 805.711 583.558 C 806.510 583.251, 807.542 583, 808.005 583 C 809.943 583, 815.132 577.513, 818.100 572.325 C 821.201 566.906, 821.288 566.422, 821.321 554.444 C 821.359 541.139, 820.667 539, 816.330 539 C 814.992 539, 812.805 540.186, 811.452 541.646 M 516.840 553.493 C 516.486 553.847, 513.021 554.577, 509.139 555.115 C 502.213 556.074, 487 562.128, 487 563.923 C 487 565.127, 489.590 566.039, 496 567.092 C 499.025 567.589, 503.137 568.274, 505.138 568.614 C 507.563 569.027, 510.729 568.570, 514.638 567.242 C 519.687 565.526, 521.555 565.377, 528.108 566.169 C 534.110 566.894, 536.629 566.773, 540.041 565.598 C 542.420 564.778, 544.781 564.365, 545.289 564.679 C 545.797 564.993, 547.853 564.782, 549.857 564.211 C 551.860 563.640, 557.100 562.384, 561.500 561.422 L 569.500 559.671 564.500 558.331 C 557.489 556.451, 548.543 554.975, 541.500 554.538 C 538.200 554.333, 531.446 553.870, 526.492 553.508 C 521.537 553.146, 517.194 553.139, 516.840 553.493 M 850.053 566.902 C 849.493 567.948, 847.886 574.360, 846.482 581.152 C 845.079 587.943, 843.241 596.346, 842.399 599.825 C 841.012 605.560, 841.017 606.377, 842.457 608.575 C 845.308 612.926, 850.805 611.305, 853.855 605.217 C 857.723 597.492, 859.892 582.986, 859.032 570.591 C 858.959 569.540, 858.456 567.853, 857.915 566.841 C 856.576 564.339, 851.403 564.379, 850.053 566.902 M 349 586.918 C 349 593.202, 349.649 596, 351.107 596 C 352.156 596, 352.253 592.122, 351.364 585.640 C 350.465 579.083, 349 579.876, 349 586.918 M 431.035 590.934 C 428.590 595.502, 429.749 598.496, 436.817 605.879 C 440.566 609.796, 444.123 613, 444.722 613 C 445.321 613, 447.721 614.596, 450.056 616.547 C 453.867 619.731, 454.820 620.064, 459.360 619.797 C 463.812 619.536, 464.493 619.200, 465.037 617 C 465.377 615.625, 465.196 613.375, 464.634 612 C 463.768 609.880, 452.857 598.567, 446.627 593.329 C 441.086 588.670, 432.918 587.415, 431.035 590.934 M 775 590.924 C 774.175 591.389, 771.977 592.096, 770.116 592.494 C 768.255 592.892, 762.972 595.644, 758.375 598.609 C 753.779 601.574, 749.227 604.005, 748.259 604.011 C 747.292 604.017, 744.541 605.895, 742.147 608.184 C 738.265 611.896, 737.854 612.716, 738.349 615.762 C 739.497 622.840, 742.994 623.513, 753.298 618.639 C 756.178 617.277, 761.963 614.599, 766.154 612.689 C 774.659 608.814, 780.127 603.676, 782.096 597.710 C 783.139 594.550, 783.110 593.693, 781.924 592.567 C 779.929 590.672, 776.773 589.923, 775 590.924 M 842.355 638.464 C 839.707 640.318, 839.064 643.427, 837.998 659.500 C 837.524 666.650, 836.152 679.589, 834.949 688.254 C 832.515 705.787, 832.644 706.467, 838.623 707.589 C 841.774 708.180, 842.378 707.854, 846.272 703.457 C 848.598 700.831, 851.071 697.086, 851.769 695.134 C 853.948 689.045, 855.799 666.409, 854.889 657 C 853.656 644.261, 853.090 641.999, 850.479 639.388 C 847.739 636.648, 845.338 636.375, 842.355 638.464 M 364.534 653.963 C 361.961 656.806, 360.048 670.387, 359.881 687 C 359.759 699.192, 359.988 701.130, 362.247 707 C 365.039 714.251, 367.997 716.599, 372.967 715.507 C 377.552 714.500, 378.517 712.670, 377.048 707.767 C 376.242 705.074, 375.721 695.514, 375.580 680.779 C 375.376 659.606, 375.214 657.763, 373.331 655.230 C 370.764 651.776, 367.003 651.235, 364.534 653.963 M 792.175 689.576 C 787.708 698.772, 784.147 731.669, 787.035 737.066 C 788.386 739.590, 791.461 739.520, 795.165 736.882 C 799.088 734.089, 800.038 731.357, 801.033 720 C 801.491 714.775, 802.389 705.567, 803.028 699.537 C 804.172 688.757, 804.154 688.544, 801.985 686.787 C 800.771 685.804, 798.568 685, 797.088 685 C 794.884 685, 793.997 685.826, 792.175 689.576 M 518.330 695.002 C 516.563 695.714, 516.052 696.957, 515.584 701.688 C 515.268 704.885, 514.544 711.325, 513.976 716 C 512.004 732.222, 513.527 741.654, 518.779 745.750 C 521.556 747.916, 525.778 747.269, 527.665 744.389 C 529.129 742.154, 529.376 739.014, 529.377 722.639 C 529.379 702.061, 528.755 699.043, 523.783 695.561 C 521.271 693.801, 521.300 693.804, 518.330 695.002 M 434.250 703.031 C 433.012 703.529, 431.984 704.288, 431.965 704.718 C 431.946 705.148, 431.706 711.800, 431.433 719.500 C 431.160 727.200, 430.530 738, 430.034 743.500 C 428.711 758.153, 430.444 764.558, 437.813 772.250 C 442.572 777.217, 446.261 777.235, 448.857 772.304 C 449.791 770.529, 449.604 769.018, 447.882 764.413 C 445.961 759.279, 445.731 756.442, 445.546 735.609 C 445.325 710.748, 444.646 706.967, 439.792 703.567 C 437.263 701.796, 437.312 701.800, 434.250 703.031 M 632.783 711.750 C 631.944 712.712, 630.461 715.944, 629.488 718.932 C 625.939 729.828, 629.955 755.479, 635.858 759.613 C 638.482 761.451, 644.073 760.822, 646.026 758.469 C 647.564 756.616, 647.655 749.752, 646.212 744.500 C 645.302 741.190, 644.360 728.619, 644.062 715.821 C 644.028 714.348, 643.293 712.436, 642.429 711.571 C 640.315 709.458, 634.692 709.562, 632.783 711.750 M 833.667 741.667 C 833.300 742.033, 833 743.856, 833 745.716 C 833 747.577, 832.383 750.314, 831.628 751.800 C 830.874 753.285, 829.991 757.875, 829.668 762 C 828.934 771.349, 827.625 781.003, 825.601 792 C 824.741 796.675, 824.029 802.007, 824.018 803.849 C 824.007 805.921, 822.631 809.416, 820.410 813.014 C 818.436 816.213, 816.973 819.608, 817.160 820.559 C 817.347 821.510, 818.734 823.208, 820.242 824.333 L 822.983 826.378 827.242 824.037 C 829.584 822.749, 832.098 821.230, 832.828 820.661 C 835.545 818.543, 838.915 810.042, 842.026 797.458 C 844.888 785.877, 845.228 782.960, 845.225 770 C 845.220 752.534, 844.100 745.309, 841.008 742.805 C 838.782 741.003, 834.928 740.405, 833.667 741.667 M 368.266 761.250 C 365.777 764.428, 363.893 785.324, 365.448 792.500 C 367.714 802.948, 370.816 812.051, 373.516 816.169 C 374.839 818.187, 376.216 821.011, 376.576 822.445 C 376.936 823.879, 378.095 825.516, 379.153 826.082 C 381.757 827.475, 389.710 826.199, 390.450 824.269 C 390.772 823.431, 389.892 819.888, 388.495 816.396 C 387.098 812.904, 385.276 806.774, 384.446 802.773 C 383.616 798.773, 382.297 792.575, 381.514 789 C 380.731 785.425, 379.553 778.270, 378.895 773.100 C 378.052 766.469, 377.155 763.155, 375.850 761.850 C 373.729 759.729, 369.706 759.411, 368.266 761.250 M 798.511 775.250 C 795.590 783.822, 793.905 789.773, 792.604 796.105 C 791.745 800.287, 789.912 806.137, 788.531 809.105 C 785.619 815.361, 785.147 822.459, 787.582 823.393 C 790.204 824.399, 794.516 824.079, 796.230 822.750 C 799.162 820.477, 805.003 812.014, 806.602 807.722 C 808.968 801.373, 809.874 795.429, 809.940 785.821 C 809.986 779.206, 809.626 776.769, 808.429 775.571 C 806.538 773.681, 799.128 773.441, 798.511 775.250 M 742.259 779.639 C 740.611 780.332, 738.269 785.646, 737.693 790 C 736.927 795.782, 734.277 809.141, 732.631 815.518 C 729.275 828.514, 730.435 832, 738.119 832 C 744.809 832, 746.794 827.873, 751.109 805 C 752.563 797.290, 751.908 783.470, 750 781.601 C 748.289 779.925, 744.101 778.863, 742.259 779.639 M 535.837 802.133 C 531.164 803.845, 529.996 808.796, 531.133 822.076 C 533.014 844.052, 536.401 851.496, 544.110 850.599 C 548.249 850.117, 551 846.820, 551 842.341 C 551 837.203, 548.024 812.047, 546.912 807.787 C 545.924 804.002, 542.778 800.937, 540.027 801.079 C 539.187 801.122, 537.302 801.597, 535.837 802.133 M 812.385 842.765 C 810.634 843.919, 805.001 854.450, 804.995 856.581 C 804.992 857.636, 803.881 860.300, 802.526 862.500 C 797.475 870.701, 801.060 877.696, 808.673 874.495 C 813.186 872.598, 816.588 867.463, 818.928 859.020 C 821.687 849.061, 821.595 846.613, 818.365 844.073 C 815.572 841.875, 814.193 841.574, 812.385 842.765 M 386.017 846.286 C 381.012 848.818, 381.230 851.537, 387.452 864.185 C 390.586 870.556, 394.443 877.008, 396.024 878.523 C 398.488 880.884, 399.482 881.199, 402.988 880.728 C 407.719 880.094, 410 878.526, 410 875.909 C 410 873.206, 402.323 857.946, 399.458 854.957 C 398.106 853.545, 397 852.035, 397 851.600 C 397 851.165, 396.069 849.502, 394.932 847.904 C 392.685 844.750, 390.012 844.264, 386.017 846.286 M 437.323 845.696 C 434.235 846.297, 433.309 847.770, 432.210 853.834 C 430.452 863.527, 435.117 876.150, 443.819 885.250 C 447.823 889.436, 448.974 889.718, 452.535 887.385 C 455.586 885.386, 455.692 882.117, 452.907 876 C 450.122 869.885, 447.265 861.713, 445.390 854.500 C 443.964 849.012, 441.580 844.796, 440.095 845.136 C 439.768 845.211, 438.520 845.463, 437.323 845.696 M 687.742 855.988 C 682.997 859.721, 681.210 864.747, 681.497 873.553 C 681.977 888.250, 683.596 902.808, 684.930 904.416 C 687.272 907.237, 693.816 905.940, 696.679 902.087 C 697.521 900.954, 697.698 896.353, 697.299 886 C 696.991 878.025, 696.825 868.489, 696.929 864.810 C 697.088 859.232, 696.777 857.777, 695.060 856.060 C 692.484 853.484, 690.944 853.469, 687.742 855.988 M 542 872.451 C 527.144 875.815, 517 880.967, 517 885.148 C 517 888.891, 527.401 897.283, 533.500 898.460 C 538.873 899.496, 540.342 899.408, 548.500 897.564 C 552.350 896.693, 557.937 895.547, 560.915 895.016 C 569.228 893.535, 575.914 891.029, 577.008 888.984 C 577.553 887.967, 578.861 886.862, 579.915 886.527 C 582.722 885.636, 585.722 875.191, 583.250 874.917 C 580.540 874.616, 577.715 874.042, 572 872.633 C 564.354 870.747, 549.909 870.659, 542 872.451 M 734.045 892.763 C 732.172 894.280, 731.793 895.848, 731.326 904.013 C 730.858 912.211, 731.155 914.927, 733.505 924 C 735.001 929.775, 736.564 934.950, 736.978 935.500 C 737.393 936.050, 737.989 937.625, 738.303 939 C 739.276 943.255, 743.125 953.429, 744.300 954.854 C 745.835 956.714, 752.743 955.695, 754.598 953.335 C 756.554 950.846, 755.706 938.772, 752.923 929.500 C 751.768 925.650, 750.164 919.800, 749.358 916.500 C 748.552 913.200, 747.263 908.025, 746.492 905 C 745.722 901.975, 744.846 898.294, 744.544 896.820 C 743.408 891.255, 738.330 889.293, 734.045 892.763 M 417 894 C 414.285 896.715, 414.477 899.021, 418 906 C 419.650 909.269, 421 912.491, 421 913.161 C 421 913.831, 422.865 917.466, 425.144 921.239 C 429.921 929.145, 433.400 931.559, 437.673 929.934 C 439.206 929.352, 440.799 928.341, 441.214 927.687 C 442.562 925.568, 442.001 921.559, 440 919 C 438.924 917.625, 438.034 915.816, 438.022 914.979 C 437.992 912.905, 429.362 898.149, 426.191 894.750 C 423.161 891.502, 419.774 891.226, 417 894 M 779.290 894.509 C 777.147 896.010, 777.138 896.184, 777.630 925.158 C 778.051 949.971, 778.379 954.831, 779.845 957.898 C 781.494 961.350, 781.768 961.493, 786.421 961.326 C 789.091 961.231, 791.866 960.556, 792.586 959.826 C 794.852 957.532, 797.224 943.551, 796.076 939.254 C 795.524 937.189, 795.117 931.450, 795.172 926.500 C 795.241 920.180, 794.757 916.160, 793.545 913 C 792.595 910.525, 791.434 906.025, 790.964 903 C 789.674 894.697, 784.448 890.896, 779.290 894.509 M 878.815 907.902 C 876.298 909.498, 873.941 911.286, 873.577 911.875 C 872.886 912.993, 856.142 921.312, 852.272 922.460 C 849.568 923.262, 848.454 927.126, 847.503 939 C 847.129 943.675, 846.342 948.081, 845.755 948.791 C 844.299 950.551, 842.080 963.932, 843.136 964.584 C 844.705 965.554, 874.445 956.708, 875.532 954.948 C 875.836 954.457, 877.862 953.576, 880.036 952.990 C 884.267 951.851, 896 941.434, 896 938.816 C 896 938.031, 897.114 935.879, 898.475 934.034 L 900.950 930.679 898.364 925.590 C 896.942 922.790, 895.384 919.825, 894.904 919 C 894.423 918.175, 893.357 916.150, 892.535 914.500 C 891.713 912.850, 890.614 910.825, 890.092 910 C 889.571 909.175, 888.901 907.712, 888.604 906.750 C 887.802 904.156, 884.020 904.602, 878.815 907.902 M 612.382 914.584 C 609.517 915.997, 609.216 916.624, 608.675 922.311 C 608.018 929.219, 609.578 936.771, 612.279 939.755 C 613.225 940.801, 614 942.550, 614 943.641 C 614 944.731, 615.350 946.622, 617 947.842 C 618.650 949.062, 620 950.919, 620 951.969 C 620 953.024, 623.608 957.487, 628.061 961.939 C 634.869 968.748, 636.631 970, 639.406 970 C 645.951 970, 648.087 963.218, 643.500 957 C 642.125 955.136, 641 953.091, 641 952.456 C 641 951.820, 639.538 949.320, 637.750 946.900 C 633.938 941.740, 631.111 936.819, 627.099 928.367 C 625.499 924.995, 623.696 921.930, 623.095 921.558 C 622.493 921.186, 622 920.093, 622 919.130 C 622 917.075, 618.462 912.990, 616.711 913.023 C 616.045 913.035, 614.097 913.738, 612.382 914.584 M 475.280 916.020 C 472.916 916.971, 471.323 921.095, 472.551 923.083 C 472.958 923.741, 474.287 927.131, 475.505 930.617 C 478.335 938.716, 482.724 944.916, 491.174 952.750 C 496.685 957.860, 498.533 959, 501.303 959 C 503.314 959, 505.362 958.257, 506.345 957.171 C 508.394 954.907, 508.433 953.605, 506.500 952 C 505.675 951.315, 505 949.965, 505 949 C 505 948.035, 504.249 946.627, 503.331 945.872 C 502.414 945.118, 500.398 941.718, 498.852 938.317 C 495.224 930.337, 490.838 923.454, 486.383 918.750 C 482.717 914.879, 479.861 914.177, 475.280 916.020 M 553.056 920.606 C 550.132 923.066, 549.994 923.500, 550.572 928.356 C 552.021 940.520, 557.992 955.228, 561.999 956.500 C 563.047 956.832, 566.178 959.331, 568.957 962.052 C 574.499 967.479, 578.374 968.454, 581.345 965.171 C 583.725 962.541, 583.423 960.702, 579.636 954.769 C 575.723 948.638, 563 923.013, 563 921.261 C 563 919.906, 559.868 918, 557.642 918 C 556.824 918, 554.760 919.173, 553.056 920.606 M 662.527 928.319 C 659.069 933.596, 661.277 944.674, 667.708 954.316 C 671.875 960.563, 672.936 961.542, 675.844 961.820 C 679.236 962.145, 683 959.884, 683 957.522 C 683 955.882, 677.114 943.844, 675.333 941.843 C 674.522 940.932, 673.174 937.557, 672.337 934.343 C 671.501 931.129, 670.352 927.938, 669.786 927.250 C 668.107 925.214, 664.182 925.792, 662.527 928.319 M 455.376 947.985 C 453.225 948.853, 451.268 955.007, 452.506 957.010 C 452.838 957.547, 453.718 960.127, 454.462 962.743 C 457.063 971.895, 459.108 976.297, 461.729 978.390 C 466.535 982.227, 467.765 982.245, 471.786 978.533 L 475.500 975.104 472.114 968.302 C 468.137 960.311, 466.223 956.515, 464.280 952.758 C 462.985 950.256, 459.311 946.909, 458.027 947.063 C 457.737 947.098, 456.544 947.513, 455.376 947.985 M 424.557 950.223 C 422.353 953.369, 422.619 958.375, 425.502 968.008 C 428.018 976.411, 434.768 988.313, 437.645 989.417 C 441.916 991.056, 446 988.401, 446 983.986 C 446 982.690, 444.406 978.550, 442.459 974.787 C 440.511 971.023, 439.142 967.579, 439.418 967.133 C 440.020 966.159, 434.671 951.514, 432.961 949.453 C 431.103 947.215, 426.359 947.649, 424.557 950.223 M 486 961.980 C 484.963 962.637, 484.515 964.567, 484.549 968.240 C 484.589 972.684, 485.160 974.311, 488.049 978.219 C 492.133 983.744, 495.502 985.520, 499.218 984.107 C 501.191 983.357, 501.962 982.186, 502.473 979.162 C 503.359 973.918, 500.495 968.273, 494.841 964.115 C 490.412 960.857, 488.502 960.396, 486 961.980 M 927.135 980.337 C 926.535 981.060, 924.871 984.318, 923.437 987.576 C 920.864 993.421, 915.308 1001.650, 909.984 1007.500 C 908.482 1009.150, 906.963 1011.737, 906.608 1013.250 C 906.219 1014.905, 905.292 1016, 904.279 1016 C 903.353 1016, 901.224 1017.296, 899.548 1018.879 C 897.871 1020.462, 893.800 1022.704, 890.500 1023.861 C 887.200 1025.018, 879.370 1027.772, 873.100 1029.982 C 866.829 1032.192, 859.854 1034.009, 857.600 1034.019 C 851.555 1034.048, 833.906 1036.694, 832.874 1037.726 C 832.384 1038.216, 831.520 1044.441, 830.954 1051.559 C 830.388 1058.676, 829.680 1066.531, 829.381 1069.013 L 828.836 1073.526 837.668 1076.337 C 845.300 1078.765, 848.131 1079.149, 858.500 1079.161 C 867.825 1079.171, 872.283 1078.682, 878.500 1076.967 C 882.900 1075.752, 888.975 1074.087, 892 1073.265 C 895.025 1072.443, 898.625 1071.033, 900 1070.132 C 901.375 1069.232, 904.696 1067.371, 907.381 1065.997 C 910.604 1064.348, 912.701 1062.468, 913.557 1060.458 C 914.270 1058.786, 915.902 1056.855, 917.184 1056.169 C 918.466 1055.483, 920.617 1053.314, 921.963 1051.349 C 923.310 1049.384, 926.518 1045.689, 929.092 1043.138 C 931.667 1040.587, 934.786 1036.475, 936.024 1034 C 937.262 1031.525, 939.084 1028.463, 940.074 1027.196 C 941.063 1025.929, 942.820 1022.045, 943.978 1018.565 L 946.084 1012.239 941.414 1002.870 C 938.846 997.716, 935.254 990.506, 933.432 986.846 C 929.754 979.459, 928.737 978.407, 927.135 980.337 M 456.144 995.856 C 452.590 999.410, 454.152 1021.095, 458.399 1027.159 C 459.280 1028.416, 460 1030.236, 460 1031.203 C 460 1034.587, 465.280 1045.776, 468.574 1049.371 C 472.252 1053.386, 475.734 1054.061, 478.267 1051.250 C 481.201 1047.994, 481.289 1044.627, 478.607 1038.255 C 477.211 1034.939, 475.196 1029.074, 474.129 1025.223 C 473.062 1021.372, 471.696 1017.301, 471.094 1016.176 C 470.492 1015.052, 470 1012.564, 470 1010.649 C 470 1006.860, 466.805 998.548, 464.274 995.750 C 462.211 993.470, 458.481 993.519, 456.144 995.856 M 697.171 995.648 C 697.364 996.654, 698.346 997.636, 699.352 997.829 C 700.673 998.084, 701.084 997.673, 700.829 996.352 C 700.636 995.346, 699.654 994.364, 698.648 994.171 C 697.327 993.916, 696.916 994.327, 697.171 995.648 M 766.504 995.993 C 766.167 996.539, 765.307 999.234, 764.595 1001.981 C 763.132 1007.620, 763.968 1023.013, 766.441 1036 C 767.227 1040.125, 768.179 1047.100, 768.557 1051.500 C 768.935 1055.900, 769.627 1060.235, 770.095 1061.134 C 771.189 1063.234, 777.005 1064.329, 780.338 1063.062 C 783.910 1061.704, 784.981 1057.049, 783.344 1050.006 C 782.640 1046.978, 781.785 1040.675, 781.445 1036 C 781.104 1031.325, 779.965 1022.177, 778.913 1015.672 C 777.861 1009.166, 777 1002.561, 777 1000.993 C 777 999.426, 776.293 997.436, 775.429 996.571 C 773.691 994.834, 767.470 994.431, 766.504 995.993 M 528.376 1000.142 C 526.857 1002.497, 523.944 1021.757, 521.969 1042.500 C 520.921 1053.500, 519.625 1066.100, 519.089 1070.500 C 518.552 1074.900, 517.623 1082.550, 517.025 1087.500 C 516.427 1092.450, 515.269 1100.550, 514.451 1105.500 C 513.634 1110.450, 512.689 1117.754, 512.352 1121.731 C 511.627 1130.289, 512.513 1131.142, 519.904 1129.001 C 522.432 1128.269, 528.100 1127.380, 532.500 1127.026 C 536.900 1126.671, 541.597 1125.785, 542.938 1125.055 C 544.672 1124.112, 548.712 1123.819, 556.938 1124.040 C 573.238 1124.480, 574.496 1124.439, 583.995 1123.168 C 593.906 1121.842, 604.055 1122.461, 612.500 1124.906 C 617.666 1126.401, 622.538 1126.615, 647.550 1126.445 C 681.529 1126.215, 688.464 1125.355, 696.113 1120.427 C 699.039 1118.542, 701.978 1117, 702.645 1117 C 703.311 1117, 706.582 1115.377, 709.912 1113.393 C 713.745 1111.110, 717.862 1109.550, 721.127 1109.143 C 728.527 1108.221, 728.926 1106.945, 724.789 1097.443 C 718.809 1083.707, 712.510 1063.095, 711.054 1052.500 C 710.449 1048.100, 709.308 1042.025, 708.517 1039 C 707.726 1035.975, 706.335 1030.575, 705.425 1027 C 704.516 1023.425, 702.924 1018.121, 701.886 1015.212 C 700.849 1012.304, 700 1008.857, 700 1007.551 C 700 1004.096, 694.415 999.651, 691.075 1000.449 C 689.659 1000.787, 685.020 1001.468, 680.767 1001.962 C 676.514 1002.456, 672.657 1003.094, 672.195 1003.379 C 671.734 1003.664, 663.234 1004.607, 653.307 1005.473 C 640.513 1006.590, 634.474 1006.750, 632.564 1006.024 C 631.082 1005.461, 628.662 1004.996, 627.185 1004.990 C 625.708 1004.985, 622.079 1003.853, 619.119 1002.476 C 613.765 999.983, 613.675 999.977, 600.619 1001.133 C 593.404 1001.773, 586.600 1002.252, 585.500 1002.199 C 584.400 1002.146, 579.225 1001.819, 574 1001.473 C 568.775 1001.127, 558.425 1000.729, 551 1000.589 C 543.575 1000.449, 535.644 999.985, 533.376 999.559 C 530.322 998.986, 529.024 999.137, 528.376 1000.142 M 702 1000.901 C 702 1002.654, 707.741 1007, 710.057 1007 C 712.365 1007, 710.723 1002.992, 707.632 1001.082 C 703.454 998.499, 702 998.453, 702 1000.901 M 820.591 1104.622 C 819.585 1107.244, 817.008 1124.175, 817.004 1128.191 C 817.002 1130.221, 817.563 1132.246, 818.250 1132.691 C 818.938 1133.136, 825.575 1133.569, 833 1133.654 C 840.425 1133.739, 850.325 1134.298, 855 1134.897 C 867.302 1136.472, 878 1136.351, 878 1134.639 C 878 1133.473, 864.617 1127, 862.208 1127 C 861.747 1127, 856.905 1124.761, 851.448 1122.024 C 842.425 1117.499, 827 1106.026, 827 1103.841 C 827 1102.251, 821.231 1102.955, 820.591 1104.622" stroke="none" fill="#2942C9" fill-rule="evenodd"/>
    </g>
  </g>
</svg>
