<?xml version="1.0" encoding="UTF-8"?>
<svg xmlns="http://www.w3.org/2000/svg" viewBox="0 0 1280 1280" width="1280" height="1280" role="img" aria-labelledby="title desc">
  <title id="title">BillBandit raccoon - Thinking</title>
  <desc id="desc">Transparent two-color vector mascot using cobalt and warm cream.</desc>
  <g id="mascot-thinking" shape-rendering="geometricPrecision">
    <g id="warm-cream-base">
      <path d="M 388 68.403 C 374.124 70.281, 359.848 75.990, 349.495 83.803 C 342.731 88.907, 336.924 97.491, 336.262 103.364 C 335.787 107.584, 336.024 108.224, 339.273 111.473 C 343.090 115.290, 345.955 115.902, 348.429 113.429 C 350.472 111.385, 350.411 110.682, 348 108.500 C 343.393 104.331, 347.520 96.168, 357.626 89.460 C 372.573 79.539, 405.405 73.531, 412.010 79.509 C 416.250 83.346, 413.137 92.541, 404.695 101.118 C 401.874 103.983, 394.377 110.475, 388.033 115.544 C 375.203 125.797, 373.007 127.972, 370.520 132.889 C 368.389 137.100, 369.494 140.111, 374.230 142.999 C 378.416 145.551, 384.871 145.551, 396 143 C 406.022 140.702, 412 140.434, 412 142.281 C 412 142.986, 409.262 146.249, 405.915 149.531 C 393.507 161.702, 390.693 168.942, 396.548 173.629 C 400.536 176.821, 403.916 177.286, 414.392 176.080 C 419.283 175.518, 423.728 175.332, 424.270 175.667 C 424.858 176.030, 425.002 178.704, 424.628 182.286 C 423.955 188.722, 424.863 191, 428.099 191 C 430.858 191, 432.785 187.248, 433.547 180.392 C 434.195 174.564, 434.087 174.130, 431.188 170.892 L 428.150 167.500 416.075 167.669 C 404.249 167.834, 404 167.792, 404 165.638 C 404 164.270, 406.292 161.178, 410.055 157.469 C 416.874 150.746, 422 143.585, 422 140.779 C 422 133.748, 414.763 129.854, 405.512 131.907 C 383.003 136.903, 381 137.079, 381 134.059 C 381 132.883, 383.203 130.419, 386.587 127.809 C 407.221 111.896, 416.310 103.123, 420.576 95 C 423.277 89.858, 423.186 79.083, 420.411 75.327 C 415.126 68.174, 405.265 66.067, 388 68.403 M 522.757 80.327 C 508.869 86.745, 500.070 114.966, 500.020 153.257 L 500 168.013 490.238 180.257 C 484.869 186.991, 477.457 197, 473.767 202.500 C 470.076 208, 466.024 213.625, 464.763 215 C 463.501 216.375, 459.831 220.650, 456.607 224.500 C 453.383 228.350, 449.196 232.796, 447.303 234.380 C 445.410 235.964, 442.693 239.114, 441.265 241.380 C 439.838 243.646, 435.612 249.164, 431.875 253.643 C 428.138 258.121, 424.098 263.669, 422.897 265.972 L 420.715 270.159 422.808 272.253 C 425.077 274.521, 428.448 274.842, 436.230 273.531 C 440.197 272.862, 441.064 273.003, 441.602 274.404 C 442.580 276.953, 439.973 279.204, 422.696 290.734 C 413.975 296.554, 406.163 302.348, 405.337 303.609 C 403.334 306.665, 404.391 309.505, 408.103 311.043 C 412.121 312.707, 415.027 312.544, 425.450 310.068 C 430.253 308.927, 434.591 308.247, 435.091 308.556 C 437.048 309.766, 435.790 312.934, 430.963 318.948 C 425.416 325.860, 422 331.903, 422 334.805 C 422 337.053, 424.475 339.470, 428.246 340.903 C 430.407 341.725, 433.037 341.414, 440.651 339.436 L 450.313 336.925 453.156 339.650 C 456.999 343.331, 456.743 345.506, 452.125 348.421 C 447.961 351.050, 444 355.487, 444 357.524 C 444 358.214, 444.792 359.757, 445.760 360.952 C 448.438 364.260, 454.506 364.660, 462.357 362.047 C 469.729 359.594, 473.771 359.658, 475.396 362.253 C 476.305 363.704, 475.807 364.674, 472.497 367.895 C 470.298 370.034, 467.991 372.337, 467.369 373.012 C 466.747 373.686, 464.884 375.520, 463.229 377.087 C 459.081 381.012, 444.309 401.814, 436.466 414.774 C 429.057 427.017, 428.453 427.994, 424.902 433.484 C 423.473 435.693, 420.356 441.100, 417.975 445.500 C 400.902 477.055, 395.569 487.240, 393.364 492.500 C 391.981 495.800, 389.588 500.975, 388.046 504 C 386.503 507.025, 383.854 513.550, 382.158 518.500 C 380.463 523.450, 377.695 531.318, 376.009 535.984 C 371.808 547.605, 365.449 570.422, 363.044 582.500 C 361.949 588, 360.579 594.155, 360 596.178 C 358.959 599.808, 355.809 616.596, 351.963 639 C 350.878 645.325, 349.106 655.225, 348.027 661 C 346.947 666.775, 345.578 675.550, 344.985 680.500 C 344.391 685.450, 343.486 691.750, 342.974 694.500 C 341.331 703.309, 338.058 735.692, 337.536 748.296 C 336.319 777.685, 342.849 817.982, 353.565 847.220 C 356.034 853.955, 362.144 866.462, 363.960 868.500 C 364.941 869.600, 369.513 876.125, 374.120 883 C 378.728 889.875, 383.370 896.148, 384.438 896.939 C 385.505 897.731, 387.081 899.216, 387.939 900.240 C 388.798 901.264, 390.736 903.382, 392.246 904.948 C 395.238 908.050, 400.267 922.061, 401.418 930.500 C 401.793 933.250, 403.012 939.775, 404.127 945 C 405.243 950.225, 407.218 961.025, 408.517 969 C 410.710 982.460, 415.599 1007.516, 418.078 1018 C 418.663 1020.475, 419.536 1025.650, 420.017 1029.500 C 420.497 1033.350, 421.576 1040.325, 422.414 1045 C 423.252 1049.675, 424.853 1059.125, 425.973 1066 C 427.952 1078.161, 430.242 1090.623, 433.689 1108 C 434.616 1112.675, 435.403 1118.075, 435.437 1120 L 435.500 1123.500 426.500 1126.625 C 405.482 1133.922, 398.054 1139.434, 394.326 1150.500 C 390.323 1162.383, 394.192 1167.407, 410.500 1171.500 C 416.602 1173.032, 419.938 1173.156, 436.500 1172.464 C 446.950 1172.028, 458.875 1171.563, 463 1171.432 C 475.245 1171.043, 503.085 1168.068, 508.918 1166.525 C 516.718 1164.463, 517.392 1163.455, 518.156 1152.718 C 518.516 1147.648, 520.003 1136.975, 521.459 1129 C 522.915 1121.025, 525.180 1107.975, 526.493 1100 C 527.805 1092.025, 530.025 1078.525, 531.427 1070 C 532.829 1061.475, 535.310 1048.875, 536.940 1042 C 538.571 1035.125, 540.899 1025.225, 542.113 1020 C 543.327 1014.775, 544.602 1010.169, 544.946 1009.765 C 545.290 1009.360, 551.630 1009.920, 559.035 1011.010 C 580.983 1014.238, 612.129 1017.181, 617.500 1016.534 C 620.786 1016.138, 624.214 1016.466, 627.500 1017.490 C 635.369 1019.942, 656.098 1019.551, 676.500 1016.564 C 700.502 1013.050, 700 1013.182, 700 1010.375 C 700 1006.692, 702.413 1007.431, 711.025 1013.750 C 716.651 1017.878, 718.881 1020.135, 718.931 1021.750 C 719.025 1024.816, 714.698 1024.835, 712.557 1021.777 L 711 1019.555 711 1022.199 C 711 1023.652, 711.905 1028.654, 713.012 1033.313 C 714.118 1037.973, 716.140 1048.471, 717.505 1056.642 C 718.870 1064.814, 720.943 1075.775, 722.112 1081 C 726.575 1100.944, 730.079 1115.708, 731.645 1121.175 C 733.551 1127.826, 733.148 1129.495, 729.408 1130.434 C 723.850 1131.829, 711.548 1138.622, 706.691 1142.979 C 700.990 1148.092, 698.047 1153.710, 698.037 1159.500 C 698.017 1170.144, 704.861 1173.469, 731.034 1175.535 C 735.177 1175.863, 744.177 1175.664, 751.034 1175.094 C 757.890 1174.524, 771.825 1173.823, 782 1173.537 C 792.175 1173.251, 803.200 1172.566, 806.500 1172.014 C 809.800 1171.463, 812.597 1171.009, 812.715 1171.006 C 814.084 1170.969, 815.298 1164.415, 816.018 1153.184 C 817.014 1137.628, 819.856 1123.652, 822.110 1123.218 C 822.916 1123.062, 824.508 1124.196, 825.648 1125.738 C 834.781 1138.091, 876.829 1156.593, 906 1161.096 C 916.625 1162.736, 939.603 1161.678, 948.165 1159.154 C 958 1156.255, 970.484 1149.372, 977.225 1143.131 C 983.265 1137.539, 989.396 1127.263, 991.922 1118.500 C 993.970 1111.396, 995.107 1091.229, 993.943 1082.653 C 991.399 1063.907, 979.142 1033.161, 957.006 990 C 948.128 972.689, 934 942.913, 934 941.511 C 934 941.319, 931.975 936.887, 929.500 931.661 C 927.025 926.435, 925 921.930, 925 921.649 C 925 921.368, 922.291 915.431, 918.979 908.456 C 915.667 901.480, 912.022 893.462, 910.878 890.637 C 909.734 887.811, 907.755 883.250, 906.479 880.500 C 902.087 871.033, 897.292 859.488, 895.535 854.154 C 893.315 847.409, 893.896 843.522, 898.905 831.624 C 908.512 808.801, 912.122 791.462, 916 749.500 C 917.338 735.021, 917.612 700.789, 916.405 698.872 C 915.929 698.118, 915.422 692.714, 915.278 686.865 C 914.989 675.129, 912.745 650.993, 910.503 635.500 C 909.707 630, 908.592 620.550, 908.026 614.500 C 907.459 608.450, 906.519 600.800, 905.937 597.500 C 905.355 594.200, 904.216 587.675, 903.407 583 C 902.597 578.325, 901.061 571.125, 899.993 567 C 893.362 541.387, 890.685 532.042, 886.528 520 C 883.965 512.575, 881.187 503.577, 880.355 500.005 C 879.523 496.432, 877.303 490.384, 875.421 486.565 C 873.540 482.745, 872 479.077, 872 478.414 C 872 477.751, 870.162 472.549, 867.915 466.854 C 865.669 461.159, 863.132 454.700, 862.279 452.500 C 861.426 450.300, 860.149 447.150, 859.441 445.500 C 858.733 443.850, 857.820 441.150, 857.412 439.500 C 856.368 435.282, 848.208 418.266, 841.827 407 C 835.905 396.543, 833 389.668, 833 386.107 C 833 384.042, 833.364 383.840, 836.250 384.308 C 838.038 384.597, 841.403 385.412, 843.728 386.118 C 848.902 387.689, 852.921 386.543, 854.691 382.993 C 856.238 379.890, 855.001 377.747, 849.212 373.500 C 846.962 371.850, 845.095 370.138, 845.061 369.696 C 845.027 369.253, 846.324 367.475, 847.943 365.743 L 850.885 362.594 860.576 365.393 C 870.247 368.186, 870.271 368.188, 872.883 366.247 C 876.805 363.333, 876.610 360.323, 872.059 353.500 C 869.858 350.200, 868.044 346.712, 868.028 345.750 C 867.994 343.630, 871.331 343.494, 884.327 345.088 C 892.248 346.060, 893.351 345.992, 895.077 344.430 C 896.135 343.473, 897 341.808, 897 340.729 C 897 338.020, 889.608 331.424, 883.043 328.276 C 877.359 325.550, 874.646 323.885, 864.293 316.767 C 859.849 313.712, 858.073 311.861, 858.043 310.250 C 857.990 307.481, 860.857 307.291, 869.339 309.500 C 877.386 311.596, 880.096 311.393, 883.260 308.460 C 884.767 307.062, 886 305.549, 886 305.097 C 886 302.721, 877.234 293.903, 870 289.001 C 868.075 287.697, 864.344 284.855, 861.708 282.687 C 857.078 278.877, 856.937 278.604, 857.535 274.613 C 858.005 271.482, 857.429 268.305, 855.155 261.491 C 850.705 248.151, 847.195 238.934, 845.068 235 C 844.028 233.075, 841.518 227.450, 839.490 222.500 C 837.463 217.550, 833.303 208.660, 830.247 202.745 L 824.691 191.991 826.858 185.245 C 828.050 181.535, 830.429 173.550, 832.144 167.500 C 833.858 161.450, 836.098 153.575, 837.121 150 C 838.144 146.425, 839.648 137.678, 840.464 130.563 C 841.785 119.044, 841.781 117.054, 840.429 112.405 C 837.848 103.526, 831.385 99.039, 820.035 98.245 C 813.738 97.805, 812.428 98.036, 792.500 103.097 C 787.983 104.245, 774.758 111.062, 766.800 116.345 C 761.627 119.780, 748.587 132.200, 746.798 135.397 C 745.591 137.552, 743.892 137.428, 735.040 134.539 C 717.460 128.802, 701.020 125.270, 686.022 124.008 C 652.755 121.210, 618.021 123.774, 590.884 131.033 C 583.377 133.041, 582.474 132.611, 579.115 125.431 C 574.623 115.833, 565.371 103.145, 561.527 101.311 C 559.750 100.464, 557.581 98.560, 556.707 97.081 C 555.833 95.602, 552.911 92.166, 550.214 89.446 C 542.740 81.909, 529.120 77.386, 522.757 80.327" stroke="none" fill="#F7F1DD" fill-rule="evenodd"/>
    </g>
    <g id="cobalt-ink">
      <path d="M 388 68.403 C 374.124 70.281, 359.848 75.990, 349.495 83.803 C 342.731 88.907, 336.924 97.491, 336.262 103.364 C 335.787 107.584, 336.024 108.224, 339.273 111.473 C 343.090 115.290, 345.955 115.902, 348.429 113.429 C 350.472 111.385, 350.411 110.682, 348 108.500 C 343.393 104.331, 347.520 96.168, 357.626 89.460 C 372.573 79.539, 405.405 73.531, 412.010 79.509 C 416.250 83.346, 413.137 92.541, 404.695 101.118 C 401.874 103.983, 394.377 110.475, 388.033 115.544 C 375.203 125.797, 373.007 127.972, 370.520 132.889 C 368.389 137.100, 369.494 140.111, 374.230 142.999 C 378.416 145.551, 384.871 145.551, 396 143 C 406.022 140.702, 412 140.434, 412 142.281 C 412 142.986, 409.262 146.249, 405.915 149.531 C 393.507 161.702, 390.693 168.942, 396.548 173.629 C 400.536 176.821, 403.916 177.286, 414.392 176.080 C 419.283 175.518, 423.728 175.332, 424.270 175.667 C 424.858 176.030, 425.002 178.704, 424.628 182.286 C 423.955 188.722, 424.863 191, 428.099 191 C 430.858 191, 432.785 187.248, 433.547 180.392 C 434.195 174.564, 434.087 174.130, 431.188 170.892 L 428.150 167.500 416.075 167.669 C 404.249 167.834, 404 167.792, 404 165.638 C 404 164.270, 406.292 161.178, 410.055 157.469 C 416.874 150.746, 422 143.585, 422 140.779 C 422 133.748, 414.763 129.854, 405.512 131.907 C 383.003 136.903, 381 137.079, 381 134.059 C 381 132.883, 383.203 130.419, 386.587 127.809 C 407.221 111.896, 416.310 103.123, 420.576 95 C 423.277 89.858, 423.186 79.083, 420.411 75.327 C 415.126 68.174, 405.265 66.067, 388 68.403 M 522.757 80.327 C 508.869 86.745, 500.070 114.966, 500.020 153.257 L 500 168.013 490.238 180.257 C 484.869 186.991, 477.457 197, 473.767 202.500 C 470.076 208, 466.024 213.625, 464.763 215 C 463.501 216.375, 459.831 220.650, 456.607 224.500 C 453.383 228.350, 449.196 232.796, 447.303 234.380 C 445.410 235.964, 442.693 239.114, 441.265 241.380 C 439.838 243.646, 435.612 249.164, 431.875 253.643 C 428.138 258.121, 424.098 263.669, 422.897 265.972 L 420.715 270.159 422.808 272.253 C 425.077 274.521, 428.448 274.842, 436.230 273.531 C 440.197 272.862, 441.064 273.003, 441.602 274.404 C 442.580 276.953, 439.973 279.204, 422.696 290.734 C 413.975 296.554, 406.163 302.348, 405.337 303.609 C 403.334 306.665, 404.391 309.505, 408.103 311.043 C 412.121 312.707, 415.027 312.544, 425.450 310.068 C 430.253 308.927, 434.591 308.247, 435.091 308.556 C 437.048 309.766, 435.790 312.934, 430.963 318.948 C 425.416 325.860, 422 331.903, 422 334.805 C 422 337.053, 424.475 339.470, 428.246 340.903 C 430.407 341.725, 433.034 341.415, 440.629 339.441 C 445.931 338.064, 450.469 337.135, 450.711 337.378 C 451.129 337.796, 453.802 336.739, 465.500 331.531 C 468.250 330.307, 474.325 327.837, 479 326.042 C 483.675 324.248, 490.875 321.475, 495 319.882 C 499.125 318.288, 503.023 316.987, 503.661 316.992 C 505.830 317.007, 528.469 306.933, 534.500 303.270 C 546.087 296.231, 563.773 281.735, 571.916 272.602 C 573.337 271.009, 576.119 268.188, 578.097 266.333 C 580.075 264.479, 583.404 260.383, 585.494 257.231 C 587.584 254.079, 590.132 250.375, 591.156 249 C 592.181 247.625, 594.207 244.700, 595.659 242.500 C 597.111 240.300, 598.593 238.275, 598.953 238 C 600.548 236.782, 606.430 223.990, 608.131 218.043 C 610.140 211.017, 610.633 200.509, 609 199.500 C 608.450 199.160, 608 197.774, 608 196.420 C 608 195.065, 606.844 192.210, 605.430 190.074 C 602.218 185.220, 596.981 183.169, 584.078 181.712 C 572.720 180.429, 556.331 181.935, 543.751 185.417 C 528.316 189.689, 508.257 197.945, 496.250 204.969 C 493.363 206.658, 491 207.789, 491 207.481 C 491 206.928, 505.886 186.966, 507.019 186 C 507.342 185.725, 508.906 183.700, 510.496 181.500 C 512.086 179.300, 514.477 176.296, 515.809 174.824 C 518.101 172.294, 518.252 171.345, 518.605 157.324 C 519.321 128.895, 519.680 126.023, 524.520 110 C 525.434 106.975, 526.555 104.109, 527.011 103.630 C 527.472 103.147, 529.762 104.099, 532.170 105.777 C 534.551 107.435, 539.021 110.366, 542.103 112.290 C 545.184 114.213, 549.645 118.039, 552.016 120.791 C 557.639 127.319, 563.991 139.318, 563.275 142.058 C 562.500 145.021, 569.423 152, 573.138 152 C 574.640 152, 577.068 152.456, 578.533 153.013 C 580.568 153.786, 585.006 153.314, 597.348 151.011 C 606.232 149.354, 617.550 147.297, 622.500 146.440 C 627.450 145.583, 633.175 144.391, 635.223 143.790 C 637.715 143.059, 644.818 142.927, 656.723 143.392 C 679.522 144.281, 692.886 145.740, 695.860 147.664 C 697.159 148.504, 701.927 149.529, 706.457 149.942 C 710.987 150.354, 715.173 150.989, 715.760 151.352 C 716.348 151.715, 719.904 152.655, 723.664 153.441 C 727.424 154.228, 734.935 156.076, 740.355 157.548 C 748.133 159.661, 750.708 159.998, 752.573 159.149 C 755.452 157.837, 761 150.398, 761 147.850 C 761 146.548, 761.734 146, 763.474 146 C 765.153 146, 766.418 145.116, 767.408 143.250 C 769.494 139.318, 777.648 132.689, 784.032 129.735 C 794.233 125.014, 798.783 123.206, 802.146 122.538 C 803.991 122.171, 807.617 121.143, 810.205 120.254 C 816.553 118.073, 820.001 119.471, 819.999 124.229 C 819.997 130.376, 814.317 155.100, 811.402 161.651 C 810.631 163.384, 810 165.544, 810 166.451 C 810 167.357, 809.373 169.314, 808.606 170.800 C 807.839 172.285, 806.626 176.990, 805.910 181.255 C 804.738 188.237, 804.788 189.532, 806.409 194.255 C 807.399 197.140, 809.737 202.491, 811.604 206.146 C 813.472 209.802, 815 213.763, 815 214.948 C 815 216.134, 815.840 218.768, 816.866 220.802 C 817.892 222.836, 819.874 226.750, 821.271 229.500 C 824.650 236.156, 831.491 252.743, 832.406 256.500 C 833.035 259.084, 831.775 258.150, 823.318 249.767 C 810.738 237.296, 809.397 236.174, 797.961 228.562 C 792.714 225.070, 787.797 221.460, 787.033 220.540 C 785.767 219.014, 774.590 211.420, 771 209.646 C 770.175 209.238, 767.700 207.804, 765.500 206.459 C 763.300 205.115, 759.925 203.308, 758 202.445 C 756.075 201.581, 753.150 200.269, 751.500 199.529 C 741.335 194.967, 717.791 188.685, 704.585 187.011 C 695.173 185.817, 681.377 188.168, 673.311 192.339 C 669.977 194.063, 665.004 199.437, 664.994 201.327 C 664.990 201.972, 664.373 203.677, 663.623 205.116 C 661.447 209.285, 660.816 224.844, 662.545 231.677 C 665.160 242.010, 671.826 256.549, 675.555 260.052 C 676.900 261.315, 678 262.945, 678 263.674 C 678 264.403, 678.788 265.800, 679.750 266.778 C 680.712 267.755, 682.738 270.446, 684.250 272.757 C 690.334 282.050, 711.518 300.542, 719.115 303.190 C 720.702 303.743, 722 304.607, 722 305.111 C 722 305.614, 724.456 307.189, 727.458 308.610 C 730.460 310.032, 733.441 311.826, 734.081 312.597 C 734.721 313.369, 735.889 314, 736.675 314 C 737.462 314, 739.762 315.125, 741.785 316.500 C 743.809 317.875, 745.808 319, 746.228 319 C 746.648 319, 750.256 320.512, 754.246 322.359 C 758.236 324.207, 765.100 327.378, 769.500 329.407 C 773.900 331.436, 778.281 333.524, 779.236 334.048 C 780.191 334.571, 781.775 335, 782.754 335 C 783.734 335, 786.133 336.086, 788.086 337.412 C 790.039 338.739, 793.499 340.327, 795.776 340.940 C 798.053 341.553, 800.155 342.442, 800.448 342.916 C 800.741 343.391, 802.223 344.088, 803.741 344.466 C 805.258 344.845, 808.075 345.840, 810 346.679 C 815.245 348.964, 816.904 349.599, 824 352.041 C 830.703 354.347, 835.954 356.569, 844.342 360.646 C 847.006 361.941, 849.931 363, 850.842 363 C 851.754 363, 856.490 364.173, 861.366 365.608 C 870.223 368.214, 870.236 368.214, 872.866 366.259 C 876.805 363.332, 876.615 360.330, 872.059 353.500 C 869.858 350.200, 868.044 346.712, 868.028 345.750 C 867.994 343.630, 871.331 343.494, 884.327 345.088 C 892.248 346.060, 893.351 345.992, 895.077 344.430 C 896.135 343.473, 897 341.808, 897 340.729 C 897 338.020, 889.608 331.424, 883.043 328.276 C 877.359 325.550, 874.646 323.885, 864.293 316.767 C 859.849 313.712, 858.073 311.861, 858.043 310.250 C 857.990 307.481, 860.857 307.291, 869.339 309.500 C 877.386 311.596, 880.096 311.393, 883.260 308.460 C 884.767 307.062, 886 305.549, 886 305.097 C 886 302.721, 877.234 293.903, 870 289.001 C 868.075 287.697, 864.344 284.855, 861.708 282.687 C 857.078 278.877, 856.937 278.604, 857.535 274.613 C 858.005 271.482, 857.429 268.305, 855.155 261.491 C 850.705 248.151, 847.195 238.934, 845.068 235 C 844.028 233.075, 841.518 227.450, 839.490 222.500 C 837.463 217.550, 833.303 208.660, 830.247 202.745 L 824.691 191.991 826.858 185.245 C 828.050 181.535, 830.429 173.550, 832.144 167.500 C 833.858 161.450, 836.098 153.575, 837.121 150 C 838.144 146.425, 839.648 137.678, 840.464 130.563 C 841.785 119.044, 841.781 117.054, 840.429 112.405 C 837.848 103.526, 831.385 99.039, 820.035 98.245 C 813.738 97.805, 812.428 98.036, 792.500 103.097 C 787.983 104.245, 774.758 111.062, 766.800 116.345 C 761.627 119.780, 748.587 132.200, 746.798 135.397 C 745.591 137.552, 743.892 137.428, 735.040 134.539 C 717.460 128.802, 701.020 125.270, 686.022 124.008 C 652.755 121.210, 618.021 123.774, 590.884 131.033 C 583.377 133.041, 582.474 132.611, 579.115 125.431 C 574.623 115.833, 565.371 103.145, 561.527 101.311 C 559.750 100.464, 557.581 98.560, 556.707 97.081 C 555.833 95.602, 552.911 92.166, 550.214 89.446 C 542.740 81.909, 529.120 77.386, 522.757 80.327 M 530.500 122.783 C 526.336 126.358, 525.500 129.694, 525.500 142.740 C 525.500 154.568, 525.614 155.269, 527.837 157.069 C 529.969 158.795, 530.425 158.831, 533.040 157.479 C 535.851 156.026, 537.981 151.301, 537.994 146.491 C 537.997 145.385, 538.900 143.919, 540 143.232 C 541.670 142.189, 542 140.900, 542 135.426 C 542 128.388, 541.004 125.503, 537.633 122.772 C 534.949 120.599, 533.042 120.601, 530.500 122.783 M 795.500 137.840 C 792.040 139.954, 785.449 147.690, 784.112 151.207 C 783.544 152.699, 783.571 154.270, 784.184 155.364 C 784.879 156.607, 784.682 158.338, 783.511 161.264 C 782.479 163.844, 782.084 166.634, 782.464 168.660 C 783.127 172.194, 787.128 176, 790.180 176 C 793.072 176, 796.707 171.767, 798.017 166.872 C 798.661 164.467, 799.595 161.719, 800.094 160.764 C 800.592 159.809, 801 158.382, 801 157.595 C 801 156.807, 801.630 154.888, 802.400 153.331 C 806.104 145.841, 806.856 139.999, 804.429 137.571 C 802.352 135.495, 799.183 135.590, 795.500 137.840 M 635.055 151.658 C 632.428 154.997, 629.654 164.335, 630.498 166.995 C 631.511 170.185, 634.807 171.485, 636.955 169.540 C 638.768 167.900, 643 156.445, 643 153.179 C 643 148.619, 638.172 147.694, 635.055 151.658 M 662.731 152.406 C 660.498 154.101, 656 165.042, 656 168.780 C 656 170.331, 656.540 172.140, 657.200 172.800 C 659.129 174.729, 662.831 174.190, 664.408 171.750 C 667.010 167.722, 670.940 156.009, 670.285 154.232 C 669.038 150.853, 665.807 150.072, 662.731 152.406 M 621.742 177.221 C 619.615 178.804, 616 192.616, 616 199.160 C 616 202.648, 616.552 204.552, 617.977 205.977 C 622.338 210.338, 625.242 205.262, 627.155 189.936 C 628.048 182.775, 628.104 179.388, 627.348 178.187 C 625.963 175.987, 623.883 175.629, 621.742 177.221 M 641.115 181.885 C 639.264 183.736, 634.737 200.346, 633.374 210.285 C 632.855 214.078, 633.085 215.436, 634.517 217.018 C 636.732 219.466, 639.215 219.552, 641.196 217.250 C 642.024 216.287, 644.113 208.549, 645.838 200.054 C 648.692 185.992, 648.838 184.402, 647.464 182.304 C 645.631 179.507, 643.625 179.375, 641.115 181.885 M 562 199.106 C 552.813 201.756, 544.548 210.766, 543.483 219.293 C 542.236 229.269, 546.608 234.766, 558.110 237.685 C 563.746 239.115, 564.743 239.100, 570.862 237.490 C 587.224 233.187, 594.571 215.488, 584.187 205.387 C 582.159 203.414, 579.238 201.146, 577.696 200.347 C 574.021 198.441, 566.394 197.838, 562 199.106 M 568.775 202.559 C 563.512 205.415, 562.477 211.118, 566.394 215.672 C 568.311 217.901, 569.631 218.455, 573.022 218.455 C 576.625 218.455, 577.686 217.941, 580.129 215.015 C 583.246 211.281, 583.598 209.408, 581.890 205.657 C 579.873 201.231, 573.846 199.807, 568.775 202.559 M 705.500 212.708 C 700.068 214.888, 693.482 220.330, 691.516 224.262 C 687.421 232.456, 689.133 242.810, 695.315 247.237 C 706.986 255.596, 719.978 255.869, 730.861 247.986 C 737.082 243.479, 739.990 235.389, 738.019 228.071 C 736.480 222.355, 731.571 217.185, 724.509 213.844 C 717.626 210.588, 711.670 210.232, 705.500 212.708 M 714.881 215.454 C 713.441 216.264, 711.512 218.508, 710.595 220.442 C 709.065 223.665, 709.058 224.211, 710.508 227.016 C 711.379 228.699, 713.645 230.817, 715.545 231.723 C 718.752 233.252, 719.247 233.253, 722.451 231.725 C 727.204 229.458, 729.387 225.875, 728.593 221.642 C 728.245 219.790, 727.125 217.519, 726.104 216.595 C 723.503 214.240, 718.029 213.684, 714.881 215.454 M 624 230 C 623.175 230.533, 621.240 230.976, 619.700 230.985 C 615.623 231.007, 611.487 233.476, 609.126 237.296 C 606.496 241.551, 606.272 245.452, 608.367 250.500 C 609.957 254.330, 615.200 259, 617.910 259 C 618.875 259, 619.056 260.439, 618.634 264.750 C 618.325 267.913, 617.788 274.032, 617.442 278.348 L 616.811 286.196 612.205 288.234 C 609.671 289.354, 605.214 292.656, 602.299 295.570 C 597.895 299.975, 597 301.468, 597 304.412 C 597 307.030, 597.615 308.357, 599.359 309.500 C 602.437 311.516, 604.532 310.673, 609.761 305.311 C 618.851 295.991, 626.843 296.881, 638.367 308.497 C 641.370 311.523, 644.561 314, 645.459 314 C 646.356 314, 648.223 312.868, 649.608 311.483 C 652.613 308.478, 652.241 306.411, 647.613 300.375 C 643.372 294.844, 639.554 291.811, 633.186 288.916 L 627.872 286.500 628.493 276.591 C 629.435 261.547, 629.559 261.196, 634.374 259.900 C 642.910 257.604, 649.285 252.532, 650.482 247.084 C 651.300 243.358, 648.644 237.589, 644.762 234.656 C 639.112 230.389, 627.446 227.773, 624 230 M 609.908 329.421 C 586.596 335.871, 567.644 352.032, 555.666 375.673 C 554.321 378.328, 551.110 385.450, 548.530 391.500 C 545.951 397.550, 543.220 403.850, 542.461 405.500 C 541.158 408.335, 537.583 417.632, 534.387 426.500 C 532.822 430.845, 532.767 430.971, 527.663 442 C 523.765 450.424, 516.178 463.940, 509.657 474.079 C 503.038 484.369, 498.575 490.362, 491.350 498.662 L 488.200 502.280 487.027 496.628 C 486.055 491.949, 485.344 490.712, 482.898 489.447 C 474.397 485.051, 468.417 498.180, 471.261 515 C 471.962 519.150, 471.781 519.755, 468.934 522.778 C 457.528 534.887, 455.886 538.406, 460.223 541.443 C 463.543 543.769, 467.328 543.348, 474.487 539.858 C 485.792 534.346, 504.880 517.396, 513.767 504.977 C 524.239 490.343, 533.802 475.380, 537.549 467.763 C 541.786 459.150, 554.198 429.572, 560.739 412.500 C 561.582 410.300, 562.886 407.082, 563.636 405.349 C 564.386 403.616, 565 401.639, 565 400.957 C 565 399.861, 569.484 388.615, 573.680 379.185 C 576.901 371.949, 584.931 362.160, 593.376 355.176 C 597.556 351.719, 608.972 346.242, 615.594 344.517 C 622.680 342.672, 634.415 342.614, 638.500 344.406 L 641.500 345.721 637 346.926 C 623.165 350.632, 615.223 354.382, 613.048 358.236 C 611.154 361.594, 612.681 363.568, 618.357 365.096 C 626.161 367.198, 631.680 373.292, 631.119 379.187 C 630.978 380.665, 631.371 382.825, 631.993 383.986 C 633.350 386.522, 631.987 391.475, 628.828 395.492 C 627.224 397.531, 626.187 397.980, 624.127 397.528 C 618.026 396.188, 606.225 405.144, 600.551 415.420 C 596.396 422.945, 593.782 433.087, 590.997 452.500 C 588.426 470.419, 586.308 481.449, 581.585 501.500 C 576.878 521.487, 571.577 540.660, 568.650 548.285 C 567.338 551.703, 565.468 556.750, 564.495 559.500 C 561.686 567.443, 554.329 583.174, 550.464 589.500 C 549.121 591.700, 547.614 594.400, 547.117 595.500 C 546.619 596.600, 545.039 598.591, 543.606 599.924 C 542.173 601.258, 541 602.965, 541 603.718 C 541 606.557, 522.346 625.527, 514.850 630.311 C 493.241 644.103, 473.713 645.623, 452 635.201 C 442.563 630.671, 436.008 625.881, 429 618.395 C 421.442 610.320, 415.665 600.464, 411.477 588.500 C 410.514 585.750, 409.124 582.802, 408.388 581.948 C 407.207 580.580, 405.926 576.182, 402.814 562.810 C 401.761 558.287, 398.821 556.974, 395.759 559.660 C 393.791 561.386, 393.701 561.389, 394.311 559.719 C 394.669 558.739, 396.379 553.339, 398.113 547.719 C 399.846 542.098, 402.780 534.352, 404.632 530.503 C 406.484 526.655, 408 522.517, 408 521.307 C 408 517.064, 429.372 470.263, 434.704 462.829 C 436.546 460.261, 439.967 454.411, 442.306 449.829 C 444.644 445.248, 448.163 439.025, 450.125 436 C 453.280 431.135, 455.391 427.723, 459.705 420.514 C 460.369 419.406, 462.240 415.766, 463.864 412.424 C 465.488 409.083, 468.455 404.358, 470.456 401.924 C 472.458 399.491, 475.574 395.250, 477.381 392.500 C 479.188 389.750, 481.872 386.911, 483.344 386.190 C 486.237 384.775, 494 373.662, 494 370.936 C 494 368.017, 490.069 364.104, 486.457 363.426 C 479.538 362.128, 475.558 364.127, 467.369 373.012 C 466.747 373.686, 464.884 375.520, 463.229 377.087 C 459.081 381.012, 444.309 401.814, 436.466 414.774 C 429.057 427.017, 428.453 427.994, 424.902 433.484 C 423.473 435.693, 420.356 441.100, 417.975 445.500 C 400.902 477.055, 395.569 487.240, 393.364 492.500 C 391.981 495.800, 389.588 500.975, 388.046 504 C 386.503 507.025, 383.854 513.550, 382.158 518.500 C 380.463 523.450, 377.695 531.318, 376.009 535.984 C 371.808 547.605, 365.449 570.422, 363.044 582.500 C 361.949 588, 360.579 594.155, 360 596.178 C 358.959 599.808, 355.809 616.596, 351.963 639 C 350.878 645.325, 349.106 655.225, 348.027 661 C 346.947 666.775, 345.578 675.550, 344.985 680.500 C 344.391 685.450, 343.486 691.750, 342.974 694.500 C 341.331 703.309, 338.058 735.692, 337.536 748.296 C 336.319 777.685, 342.849 817.982, 353.565 847.220 C 356.034 853.955, 362.144 866.462, 363.960 868.500 C 364.941 869.600, 369.513 876.125, 374.120 883 C 378.728 889.875, 383.370 896.148, 384.438 896.939 C 385.505 897.731, 387.081 899.216, 387.939 900.240 C 388.798 901.264, 390.736 903.382, 392.246 904.948 C 395.238 908.050, 400.267 922.061, 401.418 930.500 C 401.793 933.250, 403.012 939.775, 404.127 945 C 405.243 950.225, 407.218 961.025, 408.517 969 C 410.710 982.460, 415.599 1007.516, 418.078 1018 C 418.663 1020.475, 419.536 1025.650, 420.017 1029.500 C 420.497 1033.350, 421.576 1040.325, 422.414 1045 C 423.252 1049.675, 424.853 1059.125, 425.973 1066 C 427.952 1078.161, 430.242 1090.623, 433.689 1108 C 434.616 1112.675, 435.403 1118.075, 435.437 1120 L 435.500 1123.500 426.500 1126.625 C 405.482 1133.922, 398.054 1139.434, 394.326 1150.500 C 390.323 1162.383, 394.192 1167.407, 410.500 1171.500 C 416.602 1173.032, 419.938 1173.156, 436.500 1172.464 C 446.950 1172.028, 458.875 1171.563, 463 1171.432 C 475.245 1171.043, 503.085 1168.068, 508.918 1166.525 C 516.718 1164.463, 517.392 1163.455, 518.156 1152.718 C 518.516 1147.648, 520.003 1136.975, 521.459 1129 C 522.915 1121.025, 525.180 1107.975, 526.493 1100 C 527.805 1092.025, 530.025 1078.525, 531.427 1070 C 532.829 1061.475, 535.310 1048.875, 536.940 1042 C 538.571 1035.125, 540.899 1025.225, 542.113 1020 C 543.327 1014.775, 544.602 1010.169, 544.946 1009.765 C 545.290 1009.360, 551.630 1009.920, 559.035 1011.010 C 580.983 1014.238, 612.129 1017.181, 617.500 1016.534 C 620.786 1016.138, 624.214 1016.466, 627.500 1017.490 C 635.369 1019.942, 656.098 1019.551, 676.500 1016.564 C 700.502 1013.050, 700 1013.182, 700 1010.375 C 700 1006.692, 702.413 1007.431, 711.025 1013.750 C 716.651 1017.878, 718.881 1020.135, 718.931 1021.750 C 719.025 1024.816, 714.698 1024.835, 712.557 1021.777 L 711 1019.555 711 1022.199 C 711 1023.652, 711.905 1028.654, 713.012 1033.313 C 714.118 1037.973, 716.140 1048.471, 717.505 1056.642 C 718.870 1064.814, 720.943 1075.775, 722.112 1081 C 726.575 1100.944, 730.079 1115.708, 731.645 1121.175 C 733.551 1127.826, 733.148 1129.495, 729.408 1130.434 C 723.850 1131.829, 711.548 1138.622, 706.691 1142.979 C 700.990 1148.092, 698.047 1153.710, 698.037 1159.500 C 698.017 1170.144, 704.861 1173.469, 731.034 1175.535 C 735.177 1175.863, 744.177 1175.664, 751.034 1175.094 C 757.890 1174.524, 771.825 1173.823, 782 1173.537 C 792.175 1173.251, 803.200 1172.566, 806.500 1172.014 C 809.800 1171.463, 812.597 1171.009, 812.715 1171.006 C 814.084 1170.969, 815.298 1164.415, 816.018 1153.184 C 817.014 1137.628, 819.856 1123.652, 822.110 1123.218 C 822.916 1123.062, 824.508 1124.196, 825.648 1125.738 C 834.781 1138.091, 876.829 1156.593, 906 1161.096 C 916.625 1162.736, 939.603 1161.678, 948.165 1159.154 C 958 1156.255, 970.484 1149.372, 977.225 1143.131 C 983.265 1137.539, 989.396 1127.263, 991.922 1118.500 C 993.970 1111.396, 995.107 1091.229, 993.943 1082.653 C 991.399 1063.907, 979.142 1033.161, 957.006 990 C 948.128 972.689, 934 942.913, 934 941.511 C 934 941.319, 931.975 936.887, 929.500 931.661 C 927.025 926.435, 925 921.930, 925 921.649 C 925 921.368, 922.291 915.431, 918.979 908.456 C 915.667 901.480, 912.022 893.462, 910.878 890.637 C 909.734 887.811, 907.755 883.250, 906.479 880.500 C 902.087 871.033, 897.292 859.488, 895.535 854.154 C 893.315 847.409, 893.896 843.522, 898.905 831.624 C 908.512 808.801, 912.122 791.462, 916 749.500 C 917.338 735.021, 917.612 700.789, 916.405 698.872 C 915.929 698.118, 915.422 692.714, 915.278 686.865 C 914.989 675.129, 912.745 650.993, 910.503 635.500 C 909.707 630, 908.592 620.550, 908.026 614.500 C 907.459 608.450, 906.519 600.800, 905.937 597.500 C 905.355 594.200, 904.216 587.675, 903.407 583 C 902.597 578.325, 901.061 571.125, 899.993 567 C 893.362 541.387, 890.685 532.042, 886.528 520 C 883.965 512.575, 881.187 503.577, 880.355 500.005 C 879.523 496.432, 877.303 490.384, 875.421 486.565 C 873.540 482.745, 872 479.077, 872 478.414 C 872 477.751, 870.162 472.549, 867.915 466.854 C 865.669 461.159, 863.132 454.700, 862.279 452.500 C 861.426 450.300, 860.149 447.150, 859.441 445.500 C 858.733 443.850, 857.820 441.150, 857.412 439.500 C 856.368 435.282, 848.208 418.266, 841.827 407 C 835.962 396.644, 833 389.670, 833 386.217 C 833 383.518, 835.988 383.261, 841.346 385.500 C 848.030 388.293, 854.054 386.726, 855.326 381.863 C 855.758 380.208, 854.977 378.780, 852.164 376.083 C 844.721 368.946, 844.079 368.646, 835.251 368.182 C 821.987 367.486, 815.214 370.277, 816.668 375.838 C 817.108 377.520, 816.791 378, 815.239 378 C 812.226 378, 810.886 380.323, 810.354 386.469 C 809.960 391.019, 810.340 393.025, 812.436 397.456 C 813.846 400.437, 815 403.293, 815 403.803 C 815 404.313, 815.929 405.912, 817.065 407.356 C 818.201 408.800, 821.131 414.824, 823.576 420.741 C 826.021 426.658, 829.300 433.300, 830.863 435.500 C 832.944 438.430, 833.873 441.172, 834.337 445.754 C 834.699 449.333, 836.045 454.130, 837.485 456.971 C 838.868 459.700, 840 462.429, 840 463.034 C 840 463.639, 841.999 468.271, 844.442 473.327 C 846.885 478.383, 849.374 484.766, 849.973 487.510 C 851.399 494.039, 856.758 510.813, 858.438 514 C 859.162 515.375, 860.076 519.160, 860.469 522.411 C 860.862 525.662, 861.537 529.037, 861.968 529.911 C 863.250 532.512, 867.682 548.459, 870.330 560 C 873.569 574.113, 874.942 583.755, 877.522 610.500 C 878.318 618.750, 879.471 629.100, 880.084 633.500 C 880.705 637.958, 881.389 661.644, 881.629 687 C 881.865 712.025, 882.292 734.900, 882.578 737.833 C 882.864 740.766, 882.432 746.616, 881.618 750.833 C 880.805 755.050, 879.853 762.325, 879.504 767 C 878.857 775.661, 873.599 804.870, 872.033 808.500 C 871.559 809.600, 870.734 812.300, 870.201 814.500 C 867.986 823.638, 863.754 839.109, 861.037 848 C 859.440 853.225, 856.896 861.663, 855.383 866.750 C 853.870 871.837, 852.292 876, 851.877 876 C 851.462 876, 850.820 873.862, 850.450 871.250 C 849.556 864.930, 846.487 858, 844.582 858 C 842.482 858, 840.599 861.988, 837.463 873.077 C 830.794 896.661, 825.255 923.258, 822.938 942.824 C 822.331 947.952, 820.290 959.652, 818.404 968.824 C 814.803 986.327, 811.067 1006.359, 809.047 1019 C 808.387 1023.125, 806.804 1031.675, 805.527 1038 C 804.251 1044.325, 802.454 1054.675, 801.533 1061 C 800.613 1067.325, 799.264 1075.200, 798.536 1078.500 C 795.439 1092.528, 788.956 1134.673, 788.273 1145.217 C 787.793 1152.630, 787.378 1154.262, 785.755 1155.131 C 784.626 1155.735, 773.488 1156.339, 759.156 1156.572 C 745.595 1156.793, 733.375 1157.066, 732 1157.179 C 726.382 1157.640, 721.838 1156.987, 722.241 1155.776 C 722.793 1154.122, 731.277 1149.222, 736.890 1147.316 C 747.410 1143.744, 757.467 1138.136, 759.932 1134.466 C 762.537 1130.587, 762.540 1130.643, 759.114 1117.500 C 758.540 1115.300, 757.342 1109.900, 756.451 1105.500 C 755.561 1101.100, 754.428 1096.375, 753.934 1095 C 753.041 1092.516, 750.440 1079.069, 749.001 1069.500 C 748.587 1066.750, 747.709 1062.025, 747.050 1059 C 746.390 1055.975, 745.225 1049, 744.461 1043.500 C 742.767 1031.302, 740.088 1019.140, 736.753 1008.500 C 733.016 996.576, 731.448 993.340, 728.459 991.381 C 725.899 989.704, 725.588 989.700, 722.785 991.309 C 719.861 992.987, 719.739 992.962, 714.160 989.525 C 706.750 984.961, 703.401 984.402, 694.694 986.275 C 676.746 990.136, 659.311 992.170, 643.150 992.289 C 623.731 992.432, 580.527 988.828, 561.500 985.479 C 560.400 985.285, 557.025 984.393, 554 983.496 C 550.975 982.599, 547.169 981.606, 545.543 981.289 C 543.916 980.972, 540.811 979.427, 538.643 977.856 C 536.474 976.285, 533.597 975, 532.250 975 C 528.714 975, 523.589 980.622, 521.768 986.500 C 520.915 989.250, 519.077 995.100, 517.684 999.500 C 512.053 1017.272, 505.687 1046.183, 503.039 1066 C 502.415 1070.675, 501.452 1077.200, 500.899 1080.500 C 500.347 1083.800, 499.761 1089.425, 499.597 1093 C 499.433 1096.575, 499.021 1100.625, 498.682 1102 C 497.670 1106.095, 495.222 1123.673, 493.912 1136.236 C 493.008 1144.912, 492.243 1148.375, 490.976 1149.521 C 489.095 1151.224, 472.301 1153.510, 467.999 1152.650 C 466.594 1152.369, 462.307 1152.609, 458.472 1153.183 C 449.319 1154.555, 419.150 1155.052, 418.404 1153.844 C 416.709 1151.102, 424.734 1147.054, 441 1142.443 C 450.053 1139.877, 454.327 1138.139, 456.500 1136.141 C 458.150 1134.623, 461.188 1132.283, 463.252 1130.941 C 465.315 1129.598, 467.241 1127.764, 467.532 1126.865 C 467.823 1125.966, 466.888 1119.666, 465.454 1112.865 C 464.021 1106.064, 462.237 1096.900, 461.491 1092.500 C 460.252 1085.196, 459.537 1081.226, 457.074 1068 C 454.709 1055.295, 452.530 1045.172, 449.434 1032.500 C 447.553 1024.800, 444.917 1012.875, 443.576 1006 C 435.309 963.616, 430.198 941.097, 426.101 929 C 425.076 925.975, 423.464 920.800, 422.517 917.500 C 419.404 906.650, 415.631 898.738, 411.310 894 C 396.679 877.955, 385.702 859.150, 380.662 841.500 C 375.981 825.110, 369.190 788.631, 368.375 775.500 C 366.936 752.348, 366.905 748.034, 368.107 739.134 C 368.823 733.835, 369.523 726.350, 369.663 722.500 C 370.091 710.690, 374.331 670.437, 376.078 661.587 C 376.612 658.886, 377.496 652.361, 378.042 647.087 C 378.589 641.814, 379.908 632.775, 380.974 627 C 382.040 621.225, 383.666 611.406, 384.586 605.180 C 385.507 598.954, 386.592 594.229, 386.998 594.680 C 387.405 595.131, 388.521 597.750, 389.480 600.500 C 392.802 610.028, 398.355 620.526, 402.969 626 C 405.519 629.025, 408.637 633.198, 409.898 635.273 C 412.681 639.851, 421.551 647.236, 428.438 650.709 C 431.222 652.114, 433.734 653.625, 434.020 654.068 C 434.792 655.264, 445.575 660.409, 453 663.123 C 458.842 665.259, 461.069 665.493, 475 665.430 C 493.300 665.348, 506.089 663.330, 516.404 658.898 C 520.307 657.221, 527.100 655.011, 531.500 653.987 C 535.900 652.964, 542.650 651.381, 546.500 650.471 C 557.057 647.974, 577.488 650.199, 593.657 655.606 C 597.594 656.923, 601.651 658, 602.672 658 C 605.330 658, 629.797 666.318, 635.127 669.034 C 636.022 669.490, 638.497 670.175, 640.627 670.555 C 642.757 670.936, 645.443 672.105, 646.597 673.154 C 648.963 675.306, 658.402 679, 661.536 679 C 662.671 679, 664.028 679.401, 664.550 679.891 C 666.515 681.734, 697.281 690.678, 706 691.942 C 709.025 692.380, 713.750 693.202, 716.500 693.769 C 729.909 696.534, 758.186 696.095, 771.581 692.915 C 780.174 690.874, 792.594 685.508, 802.431 679.584 C 808.428 675.973, 818 667.746, 818 666.204 C 818 665.718, 819.013 664.858, 820.250 664.293 C 822.604 663.217, 826.605 657.943, 835.307 644.445 C 843.511 631.719, 849.929 616.588, 852.690 603.463 C 855.567 589.779, 854.175 584, 848 584 C 844.506 584, 842.734 586.071, 838.977 594.546 C 834.347 604.992, 832.796 608.347, 831.835 610 C 831.355 610.825, 830.407 612.625, 829.729 614 C 820.858 631.983, 802.134 651.258, 785.220 659.821 C 781.766 661.569, 778.031 663, 776.920 663 C 775.810 663, 773.686 663.615, 772.200 664.366 C 768.866 666.054, 756.222 668.095, 749.500 668.031 C 730.767 667.853, 717.893 666.555, 704.500 663.493 C 700.650 662.613, 695.475 661.466, 693 660.945 C 688.596 660.017, 683.575 658.629, 671.500 655 C 668.200 654.008, 662.800 652.403, 659.500 651.432 C 656.200 650.462, 651.475 648.890, 649 647.939 C 646.525 646.989, 641.575 645.312, 638 644.213 C 613.196 636.590, 607.837 635.046, 602.500 633.982 C 596.554 632.797, 594.999 632.519, 579.500 629.868 C 575.100 629.116, 567.551 628.594, 562.726 628.708 L 553.951 628.917 557.854 624.208 C 562.541 618.555, 569.354 608.534, 571.049 604.802 C 572.526 601.548, 575.819 600.599, 598 597.035 C 633.974 591.255, 679.709 592.297, 707.458 599.530 C 710.735 600.384, 713.627 601.294, 713.885 601.552 C 715.956 603.623, 698.097 609.416, 680 612.544 C 670.370 614.209, 664.497 615.538, 659.500 617.183 C 656.311 618.233, 655.437 619.045, 655.190 621.187 C 654.701 625.420, 657.853 626.621, 672.506 627.787 C 685.771 628.843, 698.427 627.939, 712 624.966 C 721.604 622.863, 734.669 615.424, 742.250 607.742 C 745.963 603.980, 749 600.397, 749 599.780 C 749 599.163, 749.673 597.914, 750.496 597.004 C 754.856 592.186, 762.257 575.022, 765.805 561.500 C 769.295 548.198, 769.670 535.524, 766.892 524.757 C 765.254 518.406, 759.074 516.798, 754.879 521.632 C 753.125 523.653, 749.009 534.911, 748.985 537.754 C 748.940 543.042, 736.828 575.919, 732.407 582.753 C 731.007 584.918, 730.808 584.947, 727.298 583.480 C 720.606 580.684, 701.624 576.221, 691.500 575.064 C 686 574.435, 677.930 573.421, 673.568 572.810 C 664.904 571.596, 633.502 572.299, 621.500 573.975 C 617.650 574.512, 610.450 575.480, 605.500 576.125 C 600.550 576.770, 593.462 577.854, 589.750 578.533 C 586.038 579.212, 583 579.437, 583 579.033 C 583 578.123, 584.871 572.197, 586.009 569.500 C 587.765 565.339, 593.908 545.294, 594.896 540.500 C 596.373 533.328, 598.849 523.296, 600.572 517.500 C 601.389 514.750, 602.452 510.475, 602.934 508 C 608.603 478.914, 610.906 465.634, 612.058 455.386 C 612.999 447.019, 613.441 444.076, 615.921 429.656 C 617.318 421.533, 619.866 417.410, 623.241 417.812 C 624.682 417.984, 628.254 416.971, 631.180 415.561 C 638.310 412.124, 644.723 403.440, 646.604 394.675 C 648.999 383.518, 648.171 375.333, 643.590 364.865 C 643.025 363.575, 643.882 362.888, 647.651 361.603 C 653.847 359.492, 659.768 355.350, 661.570 351.865 C 662.356 350.344, 663 347.371, 663 345.260 C 663 342.201, 662.238 340.607, 659.250 337.419 C 652.862 330.604, 645.958 328.403, 628.213 327.524 C 620.068 327.121, 617.113 327.427, 609.908 329.421 M 462.935 342.980 C 457.301 343.706, 456.729 344.051, 448.250 351.854 C 443.553 356.176, 443.139 357.715, 445.789 360.988 C 448.405 364.218, 455.038 364.650, 462.407 362.069 C 465.655 360.931, 470.241 360, 472.598 360 C 474.954 360, 477.128 359.602, 477.429 359.115 C 477.729 358.629, 480.038 357.921, 482.560 357.543 C 493.171 355.952, 493.844 347.508, 483.703 343.191 C 480.697 341.911, 471.917 341.822, 462.935 342.980 M 517.576 354.916 C 514.930 357.840, 511.981 368.535, 511.727 376.128 C 511.533 381.943, 511.814 383.246, 513.659 385.097 C 516.286 387.732, 520.228 387.108, 522.459 383.703 C 523.275 382.458, 524.702 376.431, 525.630 370.310 C 527.035 361.047, 527.103 358.663, 526.038 356.091 C 525.050 353.706, 524.135 353, 522.034 353 C 520.536 353, 518.530 353.862, 517.576 354.916 M 782.375 366.550 C 780.985 368.672, 780.809 370.682, 781.325 378.547 C 781.999 388.804, 783.474 392.846, 787.290 394.887 C 790.438 396.572, 793.709 395.009, 794.618 391.385 C 795.367 388.400, 794.365 375.758, 793.002 371.005 C 790.999 364.023, 785.533 361.731, 782.375 366.550 M 729.900 372.620 C 728.916 373.806, 728.574 377.760, 728.625 387.374 C 728.703 402.158, 729.990 406.457, 734.690 407.637 C 738.361 408.559, 741.596 404.657, 742.420 398.313 C 743.262 391.829, 740.688 375.418, 738.439 372.932 C 736.309 370.579, 731.733 370.412, 729.900 372.620 M 512.366 406.765 C 509.135 408.858, 504 422.919, 504 429.672 C 504 435.978, 510.173 439.446, 513.343 434.921 C 514.144 433.777, 516.049 427.714, 517.577 421.446 C 520.278 410.369, 520.305 409.994, 518.523 408.025 C 516.637 405.942, 514.357 405.475, 512.366 406.765 M 660.496 411.005 C 657.961 413.806, 657.356 419.519, 658.063 434 C 658.902 451.193, 661.332 458, 666.632 458 C 668.019 458, 669.629 456.970, 670.630 455.442 C 672.102 453.196, 672.231 450.732, 671.691 435.192 C 671.074 417.443, 670.128 411.334, 667.768 409.836 C 665.547 408.425, 662.367 408.936, 660.496 411.005 M 790.571 421.571 C 788.745 423.398, 788.596 426.802, 790.019 434.201 C 793.309 451.307, 793.836 452.379, 798.682 451.822 C 803.042 451.321, 804.573 447.185, 803.020 440.104 C 800.555 428.871, 798.692 423.903, 796.214 421.953 C 793.211 419.591, 792.593 419.549, 790.571 421.571 M 469.559 432.368 C 464.310 437.934, 457.021 454.399, 457.006 460.727 C 456.999 463.539, 461.163 466.400, 463.968 465.510 C 465.889 464.900, 470 458.427, 470 456.011 C 470 455.424, 471.557 451.663, 473.459 447.654 C 477.843 438.416, 478.827 432.970, 476.529 430.672 C 474.164 428.307, 473.159 428.552, 469.559 432.368 M 750.106 433.894 C 748.115 435.885, 747.748 437.633, 746.093 453 C 743.702 475.190, 743.157 482.254, 743.714 483.829 C 745.552 489.033, 751.314 490.686, 754.947 487.053 C 756.849 485.151, 758.804 479.518, 759.651 473.500 C 763.217 448.161, 762.558 438.300, 756.999 433.798 C 754.166 431.504, 752.472 431.528, 750.106 433.894 M 701.470 437.406 C 698.067 442.599, 697.392 467.897, 700.528 472.684 C 702.487 475.672, 705.463 475.628, 708.526 472.565 C 710.893 470.198, 710.960 469.715, 710.911 455.241 C 710.855 438.767, 710.068 435.688, 705.789 435.190 C 703.839 434.962, 702.681 435.557, 701.470 437.406 M 821.103 472.376 C 820.393 473.231, 819.779 480.119, 819.481 490.553 C 819.083 504.491, 819.260 507.749, 820.524 509.676 C 822.769 513.104, 826.585 512.730, 828.943 508.853 C 832.938 502.285, 832.605 477.535, 828.460 472.956 C 826.403 470.683, 822.747 470.395, 821.103 472.376 M 439.978 485.155 C 437.790 488.540, 436 491.846, 436 492.501 C 436 493.157, 435.351 494.999, 434.558 496.596 C 432.184 501.375, 430.643 508.442, 431.355 511.280 C 432.270 514.924, 435.529 516.590, 438.564 514.966 C 440.997 513.664, 442.854 509.613, 447.951 494.500 C 451.273 484.648, 451.613 482.013, 449.800 480.200 C 446.975 477.375, 444.055 478.848, 439.978 485.155 M 653.273 496.710 C 650.747 500.570, 650.836 522.028, 653.412 530.135 C 655.563 536.909, 658.701 539.081, 662.623 536.511 C 663.930 535.655, 665.077 533.952, 665.171 532.727 C 665.701 525.819, 665.634 521.644, 664.868 514 C 663.437 499.711, 662.939 497.082, 661.369 495.512 C 658.967 493.110, 655.271 493.657, 653.273 496.710 M 790.564 497.262 C 789.468 498.934, 788.913 504.162, 788.432 517.313 C 787.842 533.457, 787.945 535.282, 789.546 537.051 C 791.883 539.634, 794.171 539.511, 796.850 536.660 C 799.747 533.576, 800.905 529.300, 801.630 519 C 802.306 509.411, 800.853 499.600, 798.348 496.832 C 796.072 494.317, 792.359 494.522, 790.564 497.262 M 555.837 506.059 C 554.200 506.988, 551.703 512.984, 546.595 528.259 C 543.693 536.934, 543.457 539.057, 545.200 540.800 C 548.051 543.651, 552.851 541.187, 555.872 535.322 C 558.821 529.594, 562.102 516.980, 561.810 512.490 C 561.462 507.151, 558.857 504.346, 555.837 506.059 M 726.392 512.295 C 723.696 513.768, 723.213 514.776, 722.482 520.452 C 722.125 523.228, 721.195 529.271, 720.416 533.881 C 718.277 546.539, 718.482 549.807, 721.500 551.182 C 728.244 554.255, 733.136 545.490, 734.491 527.902 C 735.458 515.359, 732.217 509.113, 726.392 512.295 M 843.876 518.649 C 842.439 520.381, 842.362 522.220, 842.762 545.211 C 842.976 557.534, 843.206 559.114, 845.033 560.816 C 847.203 562.838, 851.165 562.711, 852.949 560.562 C 856.733 556.002, 855.901 525.478, 851.837 519.771 C 849.599 516.628, 845.977 516.117, 843.876 518.649 M 437.405 549.111 C 435.835 550.851, 435.506 552.739, 435.534 559.861 C 435.573 569.648, 437.184 576.456, 441.009 583 C 447.663 594.383, 455.892 587.561, 450.659 575 C 449.857 573.075, 448.455 566.781, 447.542 561.014 C 445.871 550.450, 444.260 547, 441 547 C 440.070 547, 438.453 547.950, 437.405 549.111 M 512.669 548.166 C 511.733 548.689, 508.153 552.880, 504.713 557.479 C 501.273 562.078, 495.205 569.241, 491.229 573.397 C 487.253 577.553, 484 581.774, 484 582.777 C 484 585.380, 485.969 587, 489.135 587 C 493.503 587, 496.252 585.536, 502.349 579.964 C 511.721 571.398, 519.738 557.636, 518.538 552.172 C 517.787 548.755, 515.007 546.857, 512.669 548.166 M 794.769 563.250 C 792.931 564.674, 786.480 590.203, 787.372 592.526 C 788.175 594.619, 793.363 594.361, 795.385 592.127 C 797.932 589.313, 800.909 580.341, 801.630 573.309 C 802.134 568.385, 801.919 566.525, 800.612 564.530 C 798.773 561.724, 797.187 561.376, 794.769 563.250 M 822.776 582.250 C 821.892 582.938, 820.445 585.750, 819.559 588.500 C 817.623 594.514, 812.289 607.232, 809.787 611.798 C 807.473 616.023, 808.766 619, 812.918 619 C 818.730 619, 825.151 609.885, 829.873 594.929 C 832.846 585.510, 828.520 577.781, 822.776 582.250 M 857.190 610.271 C 855.574 612.218, 849 641.120, 849 646.277 C 849 648.420, 851.728 651, 853.995 651 C 857.876 651, 861.400 645.770, 863.481 636.922 C 865.950 626.425, 866.239 611.395, 864 609.979 C 861.868 608.631, 858.429 608.779, 857.190 610.271 M 490.187 615.105 C 485.614 616.691, 478.864 618.756, 475.187 619.694 C 465.392 622.193, 462.928 624.815, 466.952 628.456 C 471.741 632.791, 487.992 631.116, 497.369 625.323 C 504.692 620.798, 506.670 616.821, 503.171 613.655 C 500.850 611.554, 500.223 611.624, 490.187 615.105 M 777.555 629.099 C 775.401 630.253, 770.884 632.841, 767.517 634.849 C 764.150 636.857, 758.817 639.850, 755.666 641.500 C 749.137 644.919, 747.624 647.820, 750.631 651.149 C 752.168 652.848, 753.301 653.121, 757 652.682 C 759.475 652.388, 762.850 651.442, 764.500 650.580 C 766.150 649.718, 768.114 649.010, 768.865 649.006 C 771.350 648.995, 780.442 643.622, 784.125 639.988 C 793.037 631.196, 788.297 623.341, 777.555 629.099 M 392.149 673.070 C 388.605 676.875, 387.496 683.515, 387.568 700.500 C 387.621 713.029, 388.015 717.579, 389.383 721.475 C 391.628 727.872, 392.628 729, 396.051 729 C 401.870 729, 401.996 728.365, 401.688 700.694 C 401.491 683.014, 401.037 674.829, 400.168 673.250 C 398.596 670.394, 394.723 670.307, 392.149 673.070 M 848.850 675.703 C 846.218 678.763, 846.104 679.282, 844.485 695.604 C 843.617 704.347, 842.028 715.734, 840.954 720.909 C 838.546 732.504, 838.546 732.546, 841 735 C 845.317 739.317, 850.986 735.864, 855.015 726.465 C 860.172 714.434, 861.608 682.984, 857.266 677.143 C 854.867 673.915, 850.962 673.247, 848.850 675.703 M 546.815 715.250 C 542.543 718.657, 538.954 741.583, 540.774 753.842 C 542.014 762.198, 543.898 765.685, 547.684 766.636 C 549.806 767.168, 550.813 766.756, 552.671 764.596 C 554.605 762.348, 555.002 760.753, 555.010 755.194 C 555.016 751.512, 555.484 743.216, 556.051 736.757 C 556.800 728.215, 556.772 723.866, 555.946 720.798 C 554.302 714.695, 550.447 712.353, 546.815 715.250 M 801.669 717.412 C 799.569 719.678, 797.218 726.601, 795.514 735.537 C 794.436 741.188, 794.167 757.444, 795.122 759.228 C 796.538 761.874, 801.266 761.462, 804.300 758.427 C 807.310 755.417, 807.394 755.082, 810.019 735.508 C 811.983 720.863, 811.986 720.458, 810.164 718.008 C 807.583 714.537, 804.532 714.323, 801.669 717.412 M 462.259 720.750 C 460.705 722.135, 459.948 725.214, 458.629 735.500 C 457.713 742.650, 456.704 751.875, 456.387 756 C 455.330 769.772, 459.159 783.151, 465.195 786.777 C 467.535 788.183, 468.230 788.215, 470.472 787.015 C 473.975 785.140, 474.491 782.201, 472.513 775.396 C 471.134 770.654, 470.948 766.964, 471.446 754.194 C 471.776 745.690, 472.201 738.455, 472.388 738.116 C 472.576 737.777, 472.358 734.125, 471.904 730 C 471.261 724.165, 470.600 722.112, 468.928 720.750 C 467.746 719.788, 466.203 719, 465.500 719 C 464.797 719, 463.338 719.788, 462.259 720.750 M 664.669 738.045 C 661.133 740.827, 660.284 744.738, 660.663 756.500 C 661.057 768.736, 661.509 772.628, 662.984 776.480 C 664.341 780.023, 665.617 780.964, 669.095 780.985 C 675.432 781.022, 677.819 771.734, 676.002 754.111 C 674.666 741.149, 673.925 738.565, 671.114 737.061 C 668.372 735.594, 667.645 735.705, 664.669 738.045 M 842.780 773.064 C 840.706 774.272, 838.784 780.671, 838.442 787.500 C 837.866 799.008, 833.030 823.342, 829.819 830.889 C 828.116 834.894, 828.087 835.485, 829.499 837.639 C 832.728 842.568, 840.414 838.970, 844.343 830.690 C 846.868 825.369, 850.721 809.244, 851.969 798.772 C 853.488 786.036, 852.306 777.449, 848.512 773.655 C 846.628 771.771, 845.242 771.628, 842.780 773.064 M 395.225 775.671 C 390.264 777.666, 388.976 800.782, 392.922 817 C 395.237 826.518, 399.709 836.407, 402.757 838.750 C 404.824 840.339, 410.231 840.369, 411.800 838.800 C 413.181 837.419, 413.418 832.376, 412.139 831.586 C 409.788 830.133, 405.253 806.999, 404.103 790.594 C 403.389 780.411, 403.158 779.533, 400.614 777.344 C 397.805 774.928, 397.391 774.800, 395.225 775.671 M 745.615 806.471 C 743.932 808.286, 742.866 811.535, 741.596 818.721 C 740.645 824.099, 738.959 833.313, 737.849 839.196 C 736.739 845.079, 736.103 850.748, 736.435 851.794 C 737.388 854.799, 741.618 856.292, 744.823 854.756 C 747.396 853.523, 751.953 846.062, 752.004 843 C 752.018 842.175, 752.675 839.645, 753.465 837.379 C 755.631 831.165, 757.096 814.618, 755.826 810.723 C 754.674 807.192, 751.596 804, 749.341 804 C 748.551 804, 746.874 805.112, 745.615 806.471 M 803.342 805.473 C 800.655 807.355, 798.583 812.657, 797.077 821.500 C 796.422 825.350, 795.011 831.753, 793.943 835.729 C 792.874 839.705, 792 844.285, 792 845.907 C 792 849.008, 794.207 852, 796.495 852 C 799.149 852, 803.569 847.125, 806.143 841.360 C 810.065 832.573, 810.828 829.410, 811.577 818.835 C 812.248 809.357, 812.212 809.121, 809.676 806.585 C 806.674 803.583, 806.167 803.494, 803.342 805.473 M 558.831 817.538 C 554.654 819.793, 553.690 824.378, 554.461 838.334 C 555.507 857.287, 558.191 864, 564.723 864 C 565.975 864, 567.963 863.037, 569.139 861.861 C 571.189 859.811, 571.255 859.094, 570.727 844.611 C 570.160 829.054, 568.749 819.838, 566.681 818.188 C 564.386 816.356, 561.469 816.114, 558.831 817.538 M 409.287 853.199 C 407.493 855.439, 406.903 858.677, 407.841 861.135 C 408.338 862.436, 409.290 865.300, 409.957 867.500 C 411.939 874.034, 417.116 883.968, 419.357 885.538 C 421.579 887.094, 425.796 887.451, 427.573 886.235 C 430.045 884.542, 429.863 881.711, 426.864 875.215 C 425.159 871.522, 422.682 866.025, 421.361 863 C 417.007 853.034, 416.626 852.519, 413.384 852.199 C 411.704 852.033, 409.861 852.483, 409.287 853.199 M 454.080 860.403 C 450.289 864.971, 451.292 875.583, 456.569 886.738 C 461.544 897.254, 468.324 901.929, 472.064 897.423 C 473.583 895.593, 473.313 894.475, 467.125 877 C 464.886 870.675, 463.041 864.782, 463.027 863.905 C 462.962 860.022, 456.497 857.492, 454.080 860.403 M 814.498 867.597 C 813.175 869.025, 811.341 872.287, 810.423 874.847 C 809.505 877.406, 807.885 881.459, 806.824 883.853 C 804.494 889.105, 804.742 891.063, 807.939 892.657 C 813.142 895.251, 819.478 888.264, 822.522 876.575 C 824.392 869.397, 824.392 869.392, 822 867 C 819.326 864.326, 817.386 864.480, 814.498 867.597 M 695.405 877.472 C 689.369 880.010, 687.364 890.263, 689.141 909.500 C 690.382 922.933, 691.381 925, 696.632 925 C 702.509 925, 703.112 922.842, 703.244 901.328 C 703.307 890.972, 703.058 881.599, 702.691 880.498 C 701.580 877.171, 698.833 876.030, 695.405 877.472 M 556.500 889.370 C 542.783 891.901, 537 894.640, 537 898.605 C 537 902.811, 542.889 907.518, 550.371 909.292 C 555.844 910.590, 579.955 910.359, 586.772 908.943 C 595.948 907.039, 603.903 899.998, 600.929 896.415 C 595.902 890.357, 571.833 886.541, 556.500 889.370 M 438.573 899.570 C 436.349 901.794, 435.607 905.582, 436.771 908.769 C 437.319 910.271, 438.354 913.525, 439.070 916 C 442.115 926.524, 448.493 936, 452.532 936 C 455.055 936, 458.056 933.029, 458.227 930.362 C 458.292 929.338, 457.203 926.025, 455.807 923 C 454.410 919.975, 452.269 914.800, 451.048 911.500 C 448.437 904.439, 446.073 899.789, 444.575 898.765 C 442.806 897.556, 440.243 897.900, 438.573 899.570 M 737.056 914.944 C 734.439 917.561, 733.628 922.621, 734.262 932.369 C 735.304 948.370, 740.730 968.692, 745.311 973.750 C 748.674 977.464, 753.863 976.156, 755.437 971.199 C 756.204 968.782, 754.792 958.344, 752.412 948.846 C 751.632 945.736, 750.157 937.538, 749.134 930.628 C 748.084 923.541, 746.549 916.961, 745.613 915.533 C 743.600 912.459, 739.802 912.198, 737.056 914.944 M 889.254 917.228 C 887.061 919.028, 883.744 921.729, 881.883 923.231 C 877.730 926.584, 859.366 936, 856.980 936 C 856.026 936, 854.819 936.563, 854.298 937.250 C 852.891 939.105, 851.230 945.711, 850.461 952.500 C 850.088 955.800, 849.163 961.200, 848.406 964.500 C 847.649 967.800, 847.023 972.474, 847.015 974.888 L 847 979.275 852.472 978.632 C 858.524 977.921, 867.715 975.693, 870.623 974.233 C 871.655 973.715, 875.650 971.811, 879.500 970.002 C 884.916 967.458, 888.084 965.015, 893.500 959.206 C 901.805 950.298, 905 945.050, 905 940.318 C 905 938.205, 903.234 933.288, 900.500 927.785 C 898.025 922.804, 896 918.170, 896 917.487 C 896 916.804, 895.379 915.730, 894.621 915.100 C 893.541 914.204, 892.376 914.666, 889.254 917.228 M 783.189 921.039 C 781.985 922.160, 780.979 923.848, 780.954 924.789 C 780.929 925.730, 780.556 933.475, 780.125 942 C 779.064 963.018, 779.967 978.202, 782.443 980.937 C 784.741 983.477, 788.061 983.581, 790.995 981.205 C 794.289 978.538, 796.060 965.911, 795.511 949 C 794.955 931.847, 793.695 924.369, 790.853 921.343 C 788.147 918.463, 786.043 918.380, 783.189 921.039 M 496.557 930.223 C 494.452 933.228, 494.599 936.909, 497.076 943.193 C 499.471 949.270, 506.749 960.569, 510.164 963.514 C 518.324 970.550, 522.816 971.737, 525.542 967.576 C 526.964 965.406, 526.973 964.849, 525.631 962.253 C 524.806 960.659, 523.446 958.785, 522.609 958.090 C 521.771 957.395, 519.203 953.377, 516.904 949.163 C 511.592 939.429, 506.098 930.858, 504.140 929.250 C 501.787 927.318, 498.276 927.768, 496.557 930.223 M 621.655 931.829 C 617.852 936.031, 620.971 954.891, 627.356 966.308 C 631.945 974.514, 638.188 981, 641.499 981 C 644.256 981, 648 977.842, 648 975.516 C 648 974.203, 644.361 966.088, 641.267 960.500 C 639.345 957.031, 635.159 945.775, 633.028 938.352 C 631.850 934.249, 630.308 930.948, 629.406 930.602 C 626.497 929.486, 623.320 929.988, 621.655 931.829 M 570.455 936.455 C 567.520 939.389, 567.220 944.586, 569.484 953.278 C 571.569 961.282, 575.112 967.573, 581.295 974.250 C 586.954 980.361, 590.333 981.524, 593.429 978.429 C 595.853 976.004, 595.366 973.733, 590.457 964.579 C 587.959 959.920, 584.378 951.753, 582.501 946.431 C 580.623 941.108, 578.955 936.645, 578.793 936.512 C 578.044 935.896, 574.065 934, 573.520 934 C 573.184 934, 571.805 935.105, 570.455 936.455 M 670.417 945.492 C 668.004 947.905, 667.800 948.666, 668.341 953.235 C 669.115 959.768, 673.538 971.022, 676.651 974.380 C 679.597 977.557, 684.428 977.937, 685.941 975.109 C 686.913 973.295, 685.558 967.207, 682.914 961.500 C 682.404 960.400, 680.948 956.385, 679.677 952.578 C 678.307 948.472, 676.497 945.078, 675.230 944.236 C 673.288 942.947, 672.846 943.063, 670.417 945.492 M 468.790 957.058 C 466.074 958.641, 465.553 964.338, 467.487 971.294 C 471.158 984.496, 475.327 991, 480.118 991 C 483.923 991, 486.007 987.860, 484.965 983.695 C 482.979 975.762, 479.948 966.548, 479.019 965.619 C 478.458 965.058, 478 963.643, 478 962.474 C 478 960.090, 474.136 955.984, 471.936 956.030 C 471.146 956.047, 469.731 956.509, 468.790 957.058 M 442.396 963.519 C 440.862 965.859, 440.797 966.999, 441.818 973.569 C 443.183 982.348, 447.600 996.425, 450.153 1000.130 C 452.417 1003.415, 456.398 1004.323, 458.475 1002.028 C 460.559 999.725, 460.388 995.045, 457.971 988.225 C 456.855 985.076, 455.224 979.350, 454.346 975.500 C 452.022 965.303, 450.054 961.564, 446.811 961.190 C 444.813 960.959, 443.682 961.556, 442.396 963.519 M 498.655 974.829 C 496.449 977.266, 496.569 980.105, 499.105 985.499 C 501.146 989.842, 507.008 996, 509.101 996 C 513.379 996, 516.059 990.243, 513.788 985.928 C 512.064 982.652, 506.978 975.804, 505.116 974.250 C 502.998 972.483, 500.582 972.699, 498.655 974.829 M 929.542 997.500 C 928.144 999.975, 925.801 1004.138, 924.337 1006.750 C 920.642 1013.339, 906.868 1027.695, 899.889 1032.229 C 896.697 1034.303, 893.814 1036, 893.482 1036 C 893.150 1036, 889.054 1037.800, 884.380 1040 C 879.706 1042.200, 874.544 1044, 872.909 1044 C 871.274 1044, 868.263 1044.722, 866.218 1045.605 C 863.948 1046.584, 857.266 1047.567, 849.061 1048.127 C 841.669 1048.632, 835.435 1049.232, 835.207 1049.460 C 834.576 1050.090, 832.128 1063.493, 830.999 1072.500 C 830.447 1076.900, 829.729 1081.923, 829.403 1083.661 C 828.841 1086.660, 829.060 1086.934, 833.655 1088.989 C 841.223 1092.374, 855.726 1095.284, 861 1094.476 C 863.475 1094.097, 866.498 1093.828, 867.718 1093.879 C 871.230 1094.027, 893.633 1087.270, 898.284 1084.662 C 912.370 1076.761, 917.376 1072.604, 929.047 1059.122 C 936.469 1050.547, 940.045 1045.398, 943.559 1038.221 C 947.465 1030.246, 948.136 1028.050, 947.687 1024.705 C 947.393 1022.509, 946.745 1020.439, 946.247 1020.106 C 945.271 1019.452, 938.765 1006.024, 937.535 1002.127 C 936.744 999.617, 933.052 993, 932.443 993 C 932.246 993, 930.940 995.025, 929.542 997.500 M 471.253 1009.822 C 470.568 1010.258, 469.299 1012.997, 468.434 1015.911 C 466.997 1020.749, 467.002 1021.912, 468.488 1029.354 C 472.135 1047.617, 478.054 1062.620, 482.565 1065.035 C 485.541 1066.628, 489.500 1065.152, 490.473 1062.086 C 491.059 1060.238, 488.146 1046.195, 484.541 1033.500 C 483.761 1030.750, 482.832 1026.700, 482.478 1024.500 C 480.475 1012.064, 476.307 1006.613, 471.253 1009.822 M 772.140 1017.860 C 768.746 1021.254, 767.677 1031.156, 768.919 1047.671 C 770.183 1064.480, 771.636 1075.221, 773.190 1079.263 C 774.427 1082.478, 778.064 1083.747, 781.523 1082.171 C 785.205 1080.494, 786.263 1074.831, 785.155 1062.725 C 784.640 1057.101, 784.409 1052.182, 784.642 1051.793 C 784.874 1051.404, 784.278 1044.204, 783.318 1035.793 C 781.815 1022.641, 781.257 1020.185, 779.331 1018.250 C 776.606 1015.513, 774.596 1015.404, 772.140 1017.860" stroke="none" fill="#2942C9" fill-rule="evenodd"/>
    </g>
  </g>
</svg>
