<?xml version="1.0" encoding="UTF-8"?>
<svg xmlns="http://www.w3.org/2000/svg" viewBox="0 0 1600 1280" width="1600" height="1280" role="img" aria-labelledby="title desc">
  <title id="title">BillBandit raccoon - Bill Cross Legged</title>
  <desc id="desc">Transparent two-color vector mascot scene using cobalt and warm cream.</desc>
  <g id="mascot-bill-cross-legged" shape-rendering="geometricPrecision">
    <g id="warm-cream-base">
      <path d="M 948.500 138.064 C 942.511 138.863, 927.691 145.040, 916.063 151.582 C 906.456 156.988, 891.886 170.671, 885.429 180.353 C 881.550 186.170, 881.500 186.203, 877.513 185.602 C 875.306 185.269, 870.630 184.590, 867.123 184.093 C 863.339 183.556, 859.556 182.309, 857.821 181.026 C 853.621 177.921, 845.154 175.999, 835.701 176.006 C 831.191 176.009, 822.878 175.477, 817.230 174.823 C 802.197 173.084, 782.059 174.983, 754.500 180.737 C 747.900 182.115, 740.025 183.591, 737 184.017 C 730.794 184.891, 718.161 188.472, 707 192.523 C 694.123 197.196, 695.247 197.557, 687.744 186.340 C 681.230 176.600, 677.357 172.207, 664.912 160.436 C 657.006 152.958, 653.427 150.785, 644.546 148.067 C 625.796 142.329, 618.611 151.338, 615.491 184.500 C 614.604 193.929, 616.583 218.477, 619.092 229.163 L 621.128 237.837 615.972 248.168 C 613.136 253.851, 609.137 260.975, 607.084 264 C 605.032 267.025, 600.772 274.322, 597.617 280.216 C 591.479 291.684, 576.247 314.862, 557.373 341.454 C 549.856 352.046, 548.627 355.022, 550.607 357.849 C 551.435 359.032, 552.875 359.996, 553.807 359.990 C 556.035 359.977, 565.283 355.652, 571.253 351.831 C 575.909 348.850, 579 348.624, 579 351.264 C 579 351.993, 575.694 355.798, 571.654 359.719 C 566.270 364.944, 561.929 368.034, 555.404 371.286 C 543.146 377.395, 540.773 378.875, 538.586 381.773 C 536.284 384.826, 537.149 386.700, 542.075 389.326 C 545.024 390.898, 547.132 391.079, 557.250 390.625 C 564.772 390.288, 569 390.459, 569 391.099 C 569 391.650, 566.975 396.002, 564.500 400.771 C 562.025 405.540, 560 410.188, 560 411.099 C 560 415.577, 567.106 417.061, 574.115 414.046 C 576.932 412.834, 580.202 412.085, 581.382 412.381 C 582.562 412.677, 585.215 415.132, 587.277 417.836 C 590.368 421.890, 590.870 423.170, 590.134 425.127 C 588.919 428.356, 591.093 432.382, 594.904 433.960 C 597.418 435.002, 598.630 434.925, 602.400 433.485 L 606.896 431.768 609.417 434.634 C 610.803 436.210, 611.951 438.196, 611.968 439.047 C 611.986 439.898, 610.165 442.373, 607.923 444.547 C 605.681 446.721, 602.213 450.750, 600.216 453.500 C 598.220 456.250, 594.058 461.650, 590.969 465.500 C 587.879 469.350, 583.394 475.425, 581.001 479 C 578.608 482.575, 575.226 487.300, 573.486 489.500 C 571.745 491.700, 568.388 497.325, 566.025 502 C 563.662 506.675, 560.938 511.625, 559.973 513.001 C 551.428 525.180, 524.477 585.224, 519.577 603 C 518.743 606.025, 516.477 613.675, 514.542 620 C 510.905 631.884, 505.626 656.352, 504.617 666 C 504.300 669.025, 503.549 679.150, 502.947 688.500 C 501.963 703.790, 502.068 711.123, 503.522 729 C 503.768 732.025, 504.227 737.875, 504.542 742 C 506.040 761.614, 517.509 801.348, 527.517 821.592 C 530.532 827.693, 533 833.197, 533 833.823 C 533 834.450, 531.987 835.196, 530.750 835.481 C 506.034 841.188, 493.793 846.023, 477.500 856.516 C 455.193 870.882, 443.228 886.387, 433.913 913 C 430.792 921.915, 430.589 923.301, 430.620 935.500 C 430.650 947.737, 430.861 949.116, 434.224 959 C 436.188 964.775, 438.901 971.975, 440.253 975 C 445.400 986.522, 465.770 1010.193, 478.930 1019.947 C 487.464 1026.271, 504.560 1036.426, 513.768 1040.640 C 523.392 1045.044, 552.989 1055.505, 560.296 1057.085 C 563.483 1057.775, 566.348 1058.754, 566.662 1059.262 C 566.976 1059.770, 565.943 1062.732, 564.366 1065.843 C 562.023 1070.468, 561.500 1072.777, 561.500 1078.500 C 561.500 1084.531, 561.891 1086.076, 564.322 1089.659 C 565.875 1091.946, 568.445 1094.356, 570.034 1095.014 C 571.623 1095.672, 574.012 1097.638, 575.342 1099.381 C 579.182 1104.416, 586.239 1107.579, 597.957 1109.518 C 614.549 1112.264, 628.160 1110.161, 659.500 1100.012 C 676.115 1094.632, 682.287 1092.742, 696.884 1088.568 C 706.638 1085.778, 735.412 1079.161, 740 1078.652 C 742.475 1078.378, 749.900 1077.400, 756.500 1076.480 C 769.440 1074.675, 771.557 1074.769, 789 1077.920 C 815.458 1082.700, 855.601 1093.850, 879.465 1103.048 C 892.553 1108.092, 897.168 1109.390, 905.069 1110.249 C 916.176 1111.456, 928.461 1110.299, 934.383 1107.488 C 939.479 1105.070, 947.367 1096.931, 950.156 1091.213 C 952.996 1085.390, 953.241 1073.704, 950.651 1067.628 C 948.052 1061.532, 948.416 1060.274, 953.009 1059.499 C 955.213 1059.126, 959.369 1057.962, 962.244 1056.911 C 965.119 1055.860, 968.048 1055, 968.752 1055 C 969.456 1055, 970.802 1056.688, 971.742 1058.750 C 983.708 1084.995, 1015.876 1103.769, 1056.218 1108.052 C 1070.228 1109.539, 1089.597 1107.091, 1103.930 1102.022 C 1125.002 1094.569, 1136.633 1086.886, 1150.066 1071.543 C 1163.955 1055.681, 1172.259 1041.022, 1175.933 1025.885 C 1185.252 987.481, 1181.519 949.794, 1164.204 907.500 C 1155.782 886.928, 1130.605 838.183, 1115.019 812.274 C 1103.041 792.363, 1080.332 763.121, 1074.368 759.929 C 1071.990 758.657, 1071.942 758.398, 1072.533 750.061 C 1072.867 745.353, 1073.576 738.125, 1074.109 734 C 1075.337 724.487, 1075.275 685.439, 1074.004 667.892 C 1070.968 625.984, 1063.827 591.268, 1052.351 562.625 C 1049.954 556.644, 1047.815 550.764, 1047.596 549.559 C 1047.086 546.744, 1040.713 531.340, 1037.062 524.095 C 1033.236 516.505, 1026.704 502.712, 1023.725 495.934 C 1022.380 492.873, 1019.866 488.418, 1018.140 486.034 C 1016.413 483.650, 1015 481.189, 1015 480.564 C 1015 478.753, 1000.162 454.393, 992.500 443.624 C 983.200 430.553, 983.032 430.221, 983.015 424.872 C 982.994 418.323, 984.392 417.438, 992.610 418.800 C 996.633 419.466, 1000.079 419.540, 1001.523 418.991 C 1004.481 417.867, 1006.341 414.495, 1005.611 411.585 C 1005.187 409.899, 1006.008 408.422, 1008.978 405.521 L 1012.906 401.686 1018.542 403.843 C 1021.642 405.029, 1025.193 406, 1026.434 406 C 1028.996 406, 1032 403.146, 1032 400.712 C 1032 399.815, 1029.052 395.172, 1025.449 390.395 C 1018.808 381.589, 1017.812 378.153, 1022.262 379.400 C 1027.915 380.984, 1033.209 381.226, 1035.489 380.006 C 1037.234 379.072, 1038.911 378.988, 1041.695 379.695 C 1046.623 380.945, 1048 380.419, 1048 377.283 C 1048 374.054, 1040.229 366.218, 1033.401 362.563 C 1019.707 355.233, 1010 347.836, 1010 344.731 C 1010 342.805, 1010.430 342.733, 1018.519 343.304 C 1026.959 343.900, 1027.070 343.877, 1030.519 340.849 C 1032.434 339.168, 1034 337.192, 1034 336.459 C 1034 335.725, 1031.975 333.670, 1029.500 331.893 C 1027.025 330.115, 1025 328.335, 1025 327.937 C 1025 327.539, 1020.504 323.498, 1015.008 318.957 L 1005.016 310.701 1005.115 305.600 C 1005.208 300.740, 1002.608 292.230, 999.585 287.500 C 998.882 286.400, 997.538 283.172, 996.599 280.327 C 995.659 277.482, 994.262 274.633, 993.495 273.996 C 992.727 273.359, 990.614 270.343, 988.800 267.295 C 980.004 252.521, 969.554 238.481, 961.167 230.169 C 957.656 226.690, 956.889 225.314, 957.269 223.169 C 957.529 221.701, 959.101 213.750, 960.763 205.500 C 964.927 184.834, 966.453 169.453, 965.619 156.558 C 965.242 150.722, 964.466 144.923, 963.896 143.670 C 961.836 139.150, 956.076 137.053, 948.500 138.064" stroke="none" fill="#F7F1DD" fill-rule="evenodd"/>
    </g>
    <g id="cobalt-ink">
      <path d="M 948.500 138.064 C 942.511 138.863, 927.691 145.040, 916.063 151.582 C 906.456 156.988, 891.886 170.671, 885.429 180.353 C 881.550 186.170, 881.500 186.203, 877.513 185.602 C 875.306 185.269, 870.630 184.590, 867.123 184.093 C 863.339 183.556, 859.556 182.309, 857.821 181.026 C 853.621 177.921, 845.154 175.999, 835.701 176.006 C 831.191 176.009, 822.878 175.477, 817.230 174.823 C 802.197 173.084, 782.059 174.983, 754.500 180.737 C 747.900 182.115, 740.025 183.591, 737 184.017 C 730.794 184.891, 718.161 188.472, 707 192.523 C 694.123 197.196, 695.247 197.557, 687.744 186.340 C 681.230 176.600, 677.357 172.207, 664.912 160.436 C 657.006 152.958, 653.427 150.785, 644.546 148.067 C 625.796 142.329, 618.611 151.338, 615.491 184.500 C 614.604 193.929, 616.583 218.477, 619.092 229.163 L 621.128 237.837 615.972 248.168 C 613.136 253.851, 609.137 260.975, 607.084 264 C 605.032 267.025, 600.772 274.322, 597.617 280.216 C 591.479 291.684, 576.247 314.862, 557.373 341.454 C 549.856 352.046, 548.627 355.022, 550.607 357.849 C 551.435 359.032, 552.875 359.996, 553.807 359.990 C 556.035 359.977, 565.283 355.652, 571.253 351.831 C 575.909 348.850, 579 348.624, 579 351.264 C 579 351.993, 575.694 355.798, 571.654 359.719 C 566.270 364.944, 561.929 368.034, 555.404 371.286 C 543.146 377.395, 540.773 378.875, 538.586 381.773 C 536.284 384.826, 537.149 386.700, 542.075 389.326 C 545.024 390.898, 547.132 391.079, 557.250 390.625 C 564.772 390.288, 569 390.459, 569 391.099 C 569 391.650, 566.975 396.002, 564.500 400.771 C 562.025 405.540, 560 410.188, 560 411.099 C 560 415.563, 567.105 417.061, 574.070 414.065 C 576.862 412.864, 579.901 412.052, 580.823 412.261 C 581.745 412.469, 584.986 411.416, 588.025 409.919 C 593.326 407.309, 598.052 405.759, 604.500 404.516 C 612.157 403.041, 629.835 400.799, 632.801 400.927 C 639.723 401.226, 651.521 398.296, 662.500 393.552 C 664.150 392.839, 668.425 391.009, 672 389.485 C 675.575 387.961, 680.797 385.204, 683.604 383.357 C 686.410 381.511, 689.153 380, 689.699 380 C 690.244 380, 691.505 379.100, 692.500 378 C 693.495 376.900, 694.845 376, 695.500 376 C 696.154 376, 699.572 374.147, 703.095 371.882 C 722.779 359.226, 737.307 340.338, 745.401 316.882 C 752.022 297.695, 753.880 286.144, 752.070 275.415 C 750.521 266.232, 747.565 261.136, 741.970 258.003 C 737.945 255.749, 736.454 255.510, 727 255.604 C 715.632 255.716, 710.299 256.870, 695.637 262.389 C 677.759 269.118, 649.366 282.396, 626.474 294.733 C 612.572 302.225, 609 303.736, 609 302.126 C 609 299.819, 620.124 277.083, 623.495 272.500 C 624.709 270.850, 627.614 265.675, 629.952 261 C 632.289 256.325, 635.711 249.502, 637.556 245.838 C 640.490 240.012, 640.784 238.757, 639.900 235.838 C 639.343 234.002, 638.677 230.976, 638.418 229.113 C 638.159 227.250, 637.476 223.650, 636.900 221.113 C 636.325 218.576, 635.650 214.700, 635.402 212.500 C 635.154 210.300, 634.519 205.262, 633.993 201.304 C 633.281 195.953, 633.415 191.225, 634.518 182.867 C 635.333 176.685, 636 171.486, 636 171.314 C 636 170.132, 639.823 171.576, 645.762 175 C 649.578 177.200, 653.513 179, 654.506 179 C 657.303 179, 670.690 193.443, 674.035 200.070 C 675.666 203.300, 677 206.400, 677 206.958 C 677 209.224, 682.722 216.027, 685.952 217.602 C 688.859 219.020, 689.886 219.089, 692.452 218.044 C 694.129 217.362, 696.861 216.722, 698.524 216.623 C 700.187 216.524, 703.112 215.518, 705.024 214.388 C 706.936 213.257, 709.266 212.512, 710.202 212.730 C 711.137 212.949, 715.102 211.974, 719.011 210.564 C 722.921 209.154, 727.638 208, 729.494 208 C 731.351 208, 734.036 207.557, 735.461 207.015 C 736.886 206.473, 739.278 205.811, 740.776 205.544 C 742.274 205.277, 745.075 204.410, 747 203.618 C 750.239 202.285, 758.681 199.737, 768.601 197.100 C 773.150 195.890, 807.109 195.331, 808.898 196.437 C 809.521 196.822, 813.961 197.132, 818.765 197.126 C 823.569 197.120, 831.100 197.743, 835.500 198.511 C 839.900 199.279, 846.200 200.327, 849.500 200.840 C 857.280 202.050, 872.099 204.757, 878.665 206.169 C 881.506 206.779, 884.519 207.015, 885.361 206.692 C 886.202 206.369, 888.756 202.706, 891.036 198.552 C 893.316 194.399, 895.771 191, 896.493 191 C 897.214 191, 898.238 189.762, 898.768 188.250 C 899.954 184.865, 906.631 177.880, 911.716 174.705 C 917.502 171.092, 936.449 162.975, 942.337 161.587 L 945.174 160.918 944.537 172.209 C 943.718 186.739, 942.393 195.476, 939.431 205.879 C 937.412 212.968, 937.179 215.205, 937.914 220.398 C 938.826 226.835, 942.987 236.652, 948.334 244.979 C 957.672 259.522, 959 261.702, 959 262.487 C 959 262.957, 959.772 264.196, 960.716 265.239 C 961.660 266.282, 963.348 268.628, 964.466 270.452 C 965.585 272.275, 967.850 275.671, 969.500 277.997 C 976 287.162, 985.441 305.290, 983.988 305.814 C 983.509 305.986, 976.003 302.418, 967.308 297.883 C 927.867 277.314, 902.162 265.899, 878 258.222 C 855.572 251.096, 852.098 250.456, 836.500 250.578 C 828.729 250.639, 825.497 251.107, 822 252.681 C 811.988 257.187, 808.690 264.268, 809.572 279.367 C 810.899 302.105, 816.884 321.944, 827.304 338.155 C 830.693 343.426, 843.342 355.875, 849.707 360.203 C 854.061 363.163, 862.193 367.226, 865.500 368.093 C 867.150 368.526, 871.650 369.989, 875.500 371.345 C 884.536 374.527, 899.002 378.595, 906 379.922 C 915.840 381.788, 940.339 386.098, 947 387.135 C 950.575 387.692, 954.400 388.289, 955.500 388.462 C 956.600 388.635, 964.250 389.951, 972.500 391.386 C 980.750 392.821, 990.200 394.455, 993.500 395.019 C 996.800 395.582, 1002.200 397.333, 1005.500 398.911 C 1012.551 402.282, 1023.615 406, 1026.595 406 C 1029.020 406, 1032 403.085, 1032 400.712 C 1032 399.815, 1029.052 395.172, 1025.449 390.395 C 1018.808 381.589, 1017.812 378.153, 1022.262 379.400 C 1027.915 380.984, 1033.209 381.226, 1035.489 380.006 C 1037.234 379.072, 1038.911 378.988, 1041.695 379.695 C 1046.623 380.945, 1048 380.419, 1048 377.283 C 1048 374.054, 1040.229 366.218, 1033.401 362.563 C 1019.707 355.233, 1010 347.836, 1010 344.731 C 1010 342.805, 1010.430 342.733, 1018.519 343.304 C 1026.959 343.900, 1027.070 343.877, 1030.519 340.849 C 1032.434 339.168, 1034 337.192, 1034 336.459 C 1034 335.725, 1031.975 333.670, 1029.500 331.893 C 1027.025 330.115, 1025 328.335, 1025 327.937 C 1025 327.539, 1020.504 323.498, 1015.008 318.957 L 1005.016 310.701 1005.115 305.600 C 1005.208 300.740, 1002.608 292.230, 999.585 287.500 C 998.882 286.400, 997.538 283.172, 996.599 280.327 C 995.659 277.482, 994.262 274.633, 993.495 273.996 C 992.727 273.359, 990.614 270.343, 988.800 267.295 C 980.004 252.521, 969.554 238.481, 961.167 230.169 C 957.656 226.690, 956.889 225.314, 957.269 223.169 C 957.529 221.701, 959.101 213.750, 960.763 205.500 C 964.927 184.834, 966.453 169.453, 965.619 156.558 C 965.242 150.722, 964.466 144.923, 963.896 143.670 C 961.836 139.150, 956.076 137.053, 948.500 138.064 M 920.813 183.750 C 914.226 190.626, 910.986 200.522, 912.944 207.792 C 914.190 212.418, 915.532 213.756, 919.779 214.606 C 925.216 215.693, 927.137 212.494, 929.889 197.779 C 932.126 185.817, 932.169 184.907, 930.611 182.529 C 928.250 178.925, 925.054 179.324, 920.813 183.750 M 646.849 191.670 C 643.914 192.449, 642.736 197.346, 643.348 206.225 C 644.337 220.590, 647.774 229, 652.656 229 C 653.445 229, 655.195 227.895, 656.545 226.545 C 658.470 224.621, 659 223.054, 659 219.289 C 659 216.648, 659.369 213.140, 659.819 211.493 C 661.236 206.317, 659.294 200.341, 654.602 195.445 C 652.259 193, 649.928 191.052, 649.421 191.116 C 648.915 191.180, 647.757 191.429, 646.849 191.670 M 773.592 205.309 C 771.500 206.839, 770.048 212.688, 769.323 222.507 C 768.869 228.657, 769.054 229.739, 770.831 231.347 C 775.454 235.531, 778.933 230.758, 781.048 217.330 C 782.205 209.983, 782.164 208.900, 780.644 206.580 C 778.784 203.740, 776.339 203.300, 773.592 205.309 M 802.881 206.007 C 800.863 207.186, 799.757 209.988, 796.534 222.075 C 794.415 230.024, 794.171 232.192, 795.096 234.846 C 797.615 242.071, 804.761 241.031, 806.517 233.185 C 806.724 232.258, 807.619 228.350, 808.506 224.500 C 810.952 213.882, 811.347 209.517, 810.078 207.146 C 808.870 204.889, 805.663 204.381, 802.881 206.007 M 768.762 243.073 C 767.807 243.630, 766.566 244.942, 766.006 245.989 C 764.524 248.758, 762.086 262.222, 761.349 271.706 C 760.826 278.435, 761.012 280.369, 762.379 282.456 C 764.382 285.512, 767.041 285.717, 769.497 283.003 C 770.872 281.484, 771.735 277.238, 773.106 265.253 C 775.342 245.691, 775.345 245.488, 773.429 243.571 C 771.609 241.752, 771.120 241.699, 768.762 243.073 M 786.625 251.518 C 785.731 252.412, 785 253.448, 784.999 253.821 C 784.999 254.195, 784.336 257.674, 783.527 261.554 C 781.778 269.934, 780.619 279.016, 780.612 284.382 C 780.608 287.233, 781.219 288.759, 782.914 290.132 C 785.884 292.536, 786.605 292.486, 789.411 289.680 C 791.322 287.769, 791.924 285.609, 792.828 277.430 C 794.937 258.327, 795.038 255.586, 793.722 253 C 792.189 249.988, 788.852 249.291, 786.625 251.518 M 849.657 287.627 C 840.215 290.527, 831.840 303.001, 833.476 311.723 C 834.851 319.056, 839.771 325.943, 844.699 327.436 C 846.844 328.086, 846.860 328.027, 845.371 325.043 C 841.434 317.149, 850.035 308.381, 857.784 312.388 C 861.609 314.366, 863.203 318.683, 861.878 323.479 C 861.336 325.444, 860.016 327.597, 858.946 328.266 C 855.548 330.388, 856.830 330.859, 862.449 329.553 C 868.815 328.073, 874.014 324.128, 876.873 318.609 C 879.700 313.152, 879.327 302.884, 876.115 297.686 C 873.260 293.066, 868.687 289.507, 863.056 287.520 C 857.849 285.683, 855.937 285.698, 849.657 287.627 M 697.375 292.533 C 693.542 294.214, 688.499 299.143, 686.302 303.356 C 683.887 307.987, 683.990 318.485, 686.500 323.481 C 688.934 328.326, 695.136 332.834, 700.516 333.667 L 704.500 334.284 702.300 331.881 C 701.090 330.559, 699.805 327.631, 699.444 325.373 C 698.864 321.749, 699.138 320.877, 701.791 317.907 C 704.275 315.127, 705.504 314.545, 708.893 314.545 C 714.762 314.545, 717.500 317.528, 717.500 323.923 C 717.500 327.306, 716.919 329.432, 715.595 330.895 C 713.074 333.681, 714.164 333.553, 719.010 330.494 C 721.193 329.115, 724.200 326.144, 725.692 323.890 C 727.995 320.409, 728.411 318.702, 728.452 312.569 C 728.494 306.225, 728.131 304.750, 725.465 300.435 C 721.175 293.494, 716.405 291.015, 707.500 291.098 C 703.650 291.134, 699.094 291.780, 697.375 292.533 M 776 304.691 C 766.505 306.280, 758.537 311.734, 756.047 318.347 C 753.667 324.671, 759.610 334.396, 767.434 336.978 L 771 338.155 771.194 347.078 C 771.301 351.985, 771.414 357.440, 771.444 359.201 C 771.497 362.224, 771.149 362.536, 765.185 364.813 C 760.588 366.569, 757.136 368.894, 752.496 373.362 C 746.013 379.605, 744.290 383.035, 745.406 387.482 C 746.111 390.291, 750.499 392.860, 753.500 392.221 C 754.600 391.987, 758.341 389.615, 761.814 386.950 C 775.205 376.674, 785.598 377.020, 797.527 388.139 C 801.696 392.024, 805.865 392.732, 808.738 390.041 C 813.570 385.515, 812.921 380.039, 806.761 373.357 C 802.022 368.216, 797.140 365.448, 788.525 363.018 C 781.442 361.019, 781.369 360.852, 781.819 347.485 C 782.133 338.126, 782.172 337.996, 784.819 337.384 C 792.392 335.632, 800.113 328.653, 801.447 322.354 C 803.660 311.903, 789.914 302.362, 776 304.691 M 936.019 398.703 C 933.760 401.575, 933.759 401.126, 936.065 415.859 C 937.362 424.140, 939.380 427, 943.929 427 C 948.215 427, 950 424.663, 950 419.051 C 950 412.207, 947.052 400.052, 944.860 397.860 C 942.175 395.175, 938.519 395.524, 936.019 398.703 M 980.079 403.585 C 975 405.179, 971 408.522, 971 411.174 C 971 412.275, 970.275 413, 969.174 413 C 964.771 413, 959.585 423.181, 960.427 430.171 C 960.681 432.274, 961.574 435.233, 962.412 436.747 C 963.250 438.261, 964.905 441.525, 966.089 444 C 967.273 446.475, 969.424 450.068, 970.871 451.984 C 972.317 453.901, 973.950 456.196, 974.500 457.085 C 975.050 457.974, 978.625 463.381, 982.444 469.101 C 990.250 480.791, 998 495.094, 998 497.810 C 998 498.799, 999.252 501.609, 1000.783 504.054 C 1010.178 519.065, 1030.511 567.357, 1036.128 588 C 1038.942 598.341, 1042.111 610.998, 1042.639 614 C 1042.881 615.375, 1043.278 617.175, 1043.522 618 C 1043.766 618.825, 1044.199 621.525, 1044.485 624 C 1044.771 626.475, 1045.452 630.525, 1045.998 633 C 1047.368 639.204, 1049.768 663.353, 1051.105 684.387 C 1052.239 702.233, 1051.116 734.625, 1049.003 745 C 1048.499 747.475, 1048.068 751.644, 1048.044 754.265 C 1048.020 756.886, 1047.361 761.611, 1046.580 764.765 C 1045.799 767.919, 1044.633 772.975, 1043.987 776 C 1041.282 788.681, 1031.101 818.619, 1024.092 834.500 C 1023.607 835.600, 1022.064 838.975, 1020.665 842 C 1019.265 845.025, 1017.654 848.737, 1017.085 850.250 C 1016.017 853.087, 1014.127 853.674, 1011.164 852.088 C 1009.517 851.206, 998.044 848.628, 990.283 847.395 C 982.894 846.222, 961.513 846.384, 956 847.656 C 950.618 848.898, 947 851.684, 947 854.588 C 947 857.139, 952.076 859.302, 960.059 860.153 C 975.141 861.761, 983.512 862.805, 987 863.512 C 1007.630 867.698, 1028.711 878.014, 1037.444 888.198 C 1042.730 894.362, 1048.926 908.024, 1050.699 917.423 C 1052.051 924.596, 1052.042 926.517, 1050.603 936.518 C 1048.210 953.160, 1044.381 963.221, 1032.830 983.218 C 1028.371 990.937, 1017.664 1002.898, 1007.713 1011.278 C 991.744 1024.724, 972.411 1034.950, 949.500 1042.067 C 938.030 1045.631, 933.296 1046.478, 931.739 1045.246 C 931.058 1044.707, 926.770 1042.792, 922.211 1040.991 C 915.443 1038.316, 912.448 1037.696, 905.887 1037.608 C 899.014 1037.516, 897.645 1037.781, 896.425 1039.441 C 895.641 1040.509, 895 1041.768, 895 1042.239 C 895 1043.776, 900.014 1047.787, 902.790 1048.471 C 907.979 1049.749, 923.816 1057.797, 929.318 1061.950 C 936.409 1067.304, 941 1074.049, 941 1079.115 C 941 1081.140, 939.519 1081.650, 938.487 1079.979 C 937.382 1078.191, 927.586 1073.019, 925.285 1073.009 C 922.340 1072.997, 920.827 1075.891, 922.340 1078.643 C 922.978 1079.803, 924.938 1081.952, 926.695 1083.418 C 928.452 1084.885, 930.859 1087.653, 932.044 1089.570 C 933.777 1092.376, 933.959 1093.344, 932.977 1094.528 C 930.866 1097.071, 927.708 1096.123, 921.112 1090.965 C 914.066 1085.454, 910.734 1084.146, 908.487 1086.011 C 906.349 1087.785, 906.615 1089.083, 910.087 1093.803 L 913.173 1098 910.309 1098 C 906.796 1098, 893.192 1093.633, 887.033 1090.529 C 870.628 1082.259, 852.771 1076.887, 823.500 1071.415 C 815.800 1069.976, 807.475 1068.253, 805 1067.587 L 800.500 1066.376 809.160 1064.061 C 819.953 1061.174, 825.385 1058.251, 825.837 1055.086 C 826.023 1053.788, 825.573 1052.345, 824.837 1051.878 C 822.784 1050.577, 813.765 1050.840, 803.124 1052.513 C 797.831 1053.345, 790.350 1054.492, 786.500 1055.062 C 782.650 1055.632, 777.475 1056.529, 775 1057.055 C 772.525 1057.582, 768.925 1058.218, 767 1058.469 C 763.737 1058.894, 750.672 1061.253, 745 1062.442 C 743.625 1062.730, 741.375 1063.181, 740 1063.443 C 714.201 1068.359, 682.234 1077.116, 648.540 1088.497 C 628.003 1095.434, 611.103 1099.436, 609.426 1097.759 C 609.074 1097.407, 610.195 1095.630, 611.916 1093.810 C 614.017 1091.588, 614.956 1089.678, 614.773 1088 C 614.531 1085.788, 614.056 1085.514, 610.651 1085.623 C 607.876 1085.711, 605.161 1086.903, 600.920 1089.894 C 594.438 1094.465, 589.800 1095.909, 587.562 1094.051 C 585.490 1092.332, 586.555 1090.302, 593.210 1083.282 C 598.332 1077.880, 598.962 1076.798, 598.017 1075.032 C 596.408 1072.026, 593.088 1072.514, 584.620 1077 C 580.468 1079.200, 576.882 1081, 576.652 1081 C 575.299 1081, 575.488 1076.634, 576.983 1073.344 C 581.590 1063.203, 594.752 1055.256, 618 1048.580 C 625.251 1046.497, 635.550 1044.236, 641 1043.529 C 642.383 1043.350, 649.280 1042.175, 653.131 1041.462 C 654.028 1041.297, 659.653 1040.404, 665.631 1039.480 C 676.226 1037.842, 677.054 1037.516, 698.500 1026.565 C 730.071 1010.443, 761.728 992.234, 828.764 951.638 C 836.609 946.887, 843.231 943, 843.479 943 C 843.727 943, 847.767 940.525, 852.456 937.500 C 857.145 934.475, 861.205 932, 861.478 932 C 861.752 932, 866.843 929.110, 872.793 925.579 C 891.445 914.507, 912.876 904.357, 935.414 895.922 C 942.516 893.264, 948.706 890.506, 949.169 889.794 C 950.607 887.585, 949.613 884.607, 947 883.290 C 940.175 879.849, 922.531 883.486, 899 893.184 C 882.840 899.845, 832.856 926.586, 811.500 939.997 C 806 943.451, 800.150 947.062, 798.500 948.021 C 796.850 948.980, 786.094 955.413, 774.597 962.317 L 753.695 974.869 745.660 970.829 C 741.241 968.607, 733.547 964.522, 728.562 961.751 C 723.578 958.980, 712.975 953.337, 705 949.212 C 697.025 945.086, 685.325 938.452, 679 934.469 C 656.252 920.143, 619.227 900.460, 601.189 893.103 C 591.924 889.324, 586.107 887.431, 568.021 882.306 C 559.644 879.932, 557.171 879.588, 548.263 879.558 C 541.096 879.533, 539.741 879.815, 537.833 881.722 C 533.823 885.733, 537.922 889.727, 548 891.628 C 550.976 892.190, 576.669 900.876, 584 903.799 C 599.546 909.998, 624.119 922.616, 638 931.527 C 641.575 933.822, 649.900 938.981, 656.500 942.991 C 663.100 947.002, 672.100 952.544, 676.500 955.309 C 680.900 958.074, 695.525 965.941, 709 972.792 C 722.475 979.643, 733.692 985.422, 733.927 985.635 C 734.162 985.847, 733.487 986.663, 732.427 987.448 C 729.379 989.705, 691.583 1011.194, 680 1017.256 C 669.618 1022.689, 669.337 1022.770, 655 1024.413 C 638.418 1026.314, 638.534 1026.298, 630.500 1027.932 C 617.468 1030.584, 600.406 1036.353, 589 1041.964 C 583.340 1044.748, 580.887 1045.468, 579 1044.897 C 577.625 1044.480, 574.700 1043.668, 572.500 1043.090 C 561.935 1040.319, 550.039 1036.340, 535.500 1030.716 C 496.988 1015.818, 469.206 993.652, 456.267 967.500 C 451.064 956.984, 450.341 954.958, 448.444 945.562 C 444.061 923.855, 451.961 899.514, 468.302 884.378 C 476.329 876.943, 483.722 872.185, 498.500 864.944 C 509.787 859.414, 527.155 853.580, 535 852.684 C 536.925 852.465, 541.425 851.372, 545 850.255 C 548.575 849.139, 553.709 847.928, 556.408 847.563 C 562.151 846.788, 564.580 845.654, 565.939 843.113 C 566.926 841.270, 565.638 838.803, 558.771 829.385 C 540.895 804.868, 530.850 775.824, 525.955 734.500 C 524.473 721.984, 523.982 692.486, 525.056 680.500 C 525.549 675, 526.218 667.575, 526.542 664 C 526.867 660.425, 527.589 655.025, 528.148 652 C 529.049 647.123, 530.189 642.558, 535.551 622.366 C 538.545 611.089, 544.995 593.011, 548.887 584.989 C 551.149 580.325, 553 575.584, 553 574.454 C 553 573.324, 553.540 571.860, 554.200 571.200 C 554.860 570.540, 555.059 570, 554.641 570 C 554.224 570, 555.223 567.413, 556.860 564.250 C 558.498 561.087, 561.500 554.900, 563.531 550.500 C 565.563 546.100, 569.199 539.514, 571.613 535.866 C 574.026 532.217, 576 528.700, 576 528.051 C 576 526.212, 585.902 510.282, 592 502.310 C 601.332 490.112, 603 487.718, 603 486.528 C 603 485.895, 603.808 484.505, 604.796 483.439 C 605.784 482.372, 607.629 479.354, 608.895 476.730 C 611.094 472.176, 616.210 466.236, 631.347 450.665 C 638.513 443.294, 640.450 439.994, 639.455 436.857 C 638.701 434.482, 633.956 431.987, 630.300 432.042 C 622.862 432.155, 612 436.695, 612 439.691 C 612 440.188, 610.165 442.373, 607.923 444.547 C 605.681 446.721, 602.213 450.750, 600.216 453.500 C 598.220 456.250, 594.058 461.650, 590.969 465.500 C 587.879 469.350, 583.394 475.425, 581.001 479 C 578.608 482.575, 575.226 487.300, 573.486 489.500 C 571.745 491.700, 568.388 497.325, 566.025 502 C 563.662 506.675, 560.938 511.625, 559.973 513.001 C 551.428 525.180, 524.477 585.224, 519.577 603 C 518.743 606.025, 516.477 613.675, 514.542 620 C 510.905 631.884, 505.626 656.352, 504.617 666 C 504.300 669.025, 503.549 679.150, 502.947 688.500 C 501.963 703.790, 502.068 711.123, 503.522 729 C 503.768 732.025, 504.227 737.875, 504.542 742 C 506.040 761.614, 517.509 801.348, 527.517 821.592 C 530.532 827.693, 533 833.197, 533 833.823 C 533 834.450, 531.987 835.196, 530.750 835.481 C 506.034 841.188, 493.793 846.023, 477.500 856.516 C 455.193 870.882, 443.228 886.387, 433.913 913 C 430.792 921.915, 430.589 923.301, 430.620 935.500 C 430.650 947.737, 430.861 949.116, 434.224 959 C 436.188 964.775, 438.901 971.975, 440.253 975 C 445.400 986.522, 465.770 1010.193, 478.930 1019.947 C 487.464 1026.271, 504.560 1036.426, 513.768 1040.640 C 523.392 1045.044, 552.989 1055.505, 560.296 1057.085 C 563.483 1057.775, 566.348 1058.754, 566.662 1059.262 C 566.976 1059.770, 565.943 1062.732, 564.366 1065.843 C 562.023 1070.468, 561.500 1072.777, 561.500 1078.500 C 561.500 1084.531, 561.891 1086.076, 564.322 1089.659 C 565.875 1091.946, 568.445 1094.356, 570.034 1095.014 C 571.623 1095.672, 574.012 1097.638, 575.342 1099.381 C 579.182 1104.416, 586.239 1107.579, 597.957 1109.518 C 614.549 1112.264, 628.160 1110.161, 659.500 1100.012 C 676.115 1094.632, 682.287 1092.742, 696.884 1088.568 C 706.638 1085.778, 735.412 1079.161, 740 1078.652 C 742.475 1078.378, 749.900 1077.400, 756.500 1076.480 C 769.440 1074.675, 771.557 1074.769, 789 1077.920 C 815.458 1082.700, 855.601 1093.850, 879.465 1103.048 C 892.553 1108.092, 897.168 1109.390, 905.069 1110.249 C 916.176 1111.456, 928.461 1110.299, 934.383 1107.488 C 939.479 1105.070, 947.367 1096.931, 950.156 1091.213 C 952.996 1085.390, 953.241 1073.704, 950.651 1067.628 C 948.052 1061.532, 948.416 1060.274, 953.009 1059.499 C 955.213 1059.126, 959.369 1057.962, 962.244 1056.911 C 965.119 1055.860, 968.048 1055, 968.752 1055 C 969.456 1055, 970.802 1056.688, 971.742 1058.750 C 983.708 1084.995, 1015.876 1103.769, 1056.218 1108.052 C 1070.228 1109.539, 1089.597 1107.091, 1103.930 1102.022 C 1125.002 1094.569, 1136.633 1086.886, 1150.066 1071.543 C 1163.955 1055.681, 1172.259 1041.022, 1175.933 1025.885 C 1185.252 987.481, 1181.519 949.794, 1164.204 907.500 C 1155.782 886.928, 1130.605 838.183, 1115.019 812.274 C 1103.041 792.363, 1080.332 763.121, 1074.368 759.929 C 1071.990 758.657, 1071.942 758.398, 1072.533 750.061 C 1072.867 745.353, 1073.576 738.125, 1074.109 734 C 1075.337 724.487, 1075.275 685.439, 1074.004 667.892 C 1070.968 625.984, 1063.827 591.268, 1052.351 562.625 C 1049.954 556.644, 1047.815 550.764, 1047.596 549.559 C 1047.086 546.744, 1040.713 531.340, 1037.062 524.095 C 1033.236 516.505, 1026.704 502.712, 1023.725 495.934 C 1022.380 492.873, 1019.866 488.418, 1018.140 486.034 C 1016.413 483.650, 1015 481.189, 1015 480.564 C 1015 478.753, 1000.162 454.393, 992.500 443.624 C 983.200 430.553, 983.032 430.221, 983.015 424.872 C 982.994 418.323, 984.392 417.438, 992.610 418.800 C 996.633 419.466, 1000.079 419.540, 1001.523 418.991 C 1006.481 417.106, 1007.194 410.649, 1002.762 407.783 C 999.967 405.977, 988.174 401.964, 986.056 402.099 C 985.200 402.153, 982.511 402.822, 980.079 403.585 M 620 409.666 C 607.904 410.862, 593.061 418.247, 590.497 424.345 C 588.812 428.353, 590.570 432.165, 594.937 433.974 C 597.473 435.024, 598.629 434.965, 602.005 433.615 C 604.224 432.727, 606.819 431.997, 607.770 431.994 C 608.722 431.990, 610.789 431.315, 612.364 430.494 C 613.940 429.672, 615.789 429, 616.475 429 C 617.160 429, 619.379 427.875, 621.405 426.500 C 623.431 425.125, 625.562 424, 626.140 424 C 628.009 424, 633.133 419.814, 633.943 417.626 C 634.977 414.830, 633.379 411.494, 630.343 410.110 C 627.945 409.018, 626.976 408.976, 620 409.666 M 882.452 412.433 C 879.654 416.703, 881.170 435.320, 884.625 439.138 C 886.824 441.568, 890.492 441.508, 893 439 C 896.598 435.402, 895.374 416.394, 891.246 411.750 C 888.937 409.153, 884.368 409.508, 882.452 412.433 M 783.375 415.985 C 778.846 417.814, 776.512 434.370, 779.389 444.266 C 781.622 451.946, 786.499 454.421, 790.561 449.933 C 792.106 448.225, 792.456 446.096, 792.575 437.683 C 792.754 425.054, 791.553 418.501, 788.694 416.498 C 786.282 414.809, 786.286 414.809, 783.375 415.985 M 693.888 418.500 C 692.451 419.280, 690.787 421.175, 690.190 422.710 C 687.269 430.214, 684.801 440.117, 684.458 445.707 C 684.107 451.421, 684.283 452.077, 686.673 453.957 C 689.848 456.455, 691.162 456.508, 693.901 454.250 C 695.447 452.976, 696.973 448.716, 699.512 438.587 C 701.430 430.935, 703 424.052, 703 423.292 C 703 421.798, 698.599 416.974, 697.295 417.040 C 696.858 417.062, 695.325 417.719, 693.888 418.500 M 732.566 428.927 C 729.527 432.285, 728.123 442.364, 729.639 449.943 C 730.448 453.990, 734.057 456.575, 736.828 455.092 C 739.751 453.528, 741 448.711, 741 439.006 C 741 431.851, 740.676 430.017, 739.171 428.655 C 736.767 426.479, 734.705 426.564, 732.566 428.927 M 818.056 446.944 C 815.138 449.862, 814.599 455.021, 815.631 470.150 C 816.390 481.274, 816.920 484.254, 818.438 485.932 C 820.618 488.341, 823.808 488.594, 826.559 486.577 C 828.312 485.291, 828.494 483.908, 828.440 472.327 C 828.362 455.889, 827.487 450.396, 824.465 447.374 C 821.584 444.493, 820.574 444.426, 818.056 446.944 M 938.464 452.415 C 937.128 454.453, 937.051 455.769, 937.972 460.846 C 939.103 467.081, 942.427 478.014, 944.252 481.500 C 945.649 484.167, 946.988 484.966, 950.093 484.985 C 952.001 484.996, 953.146 484.142, 954.430 481.750 C 956.139 478.569, 956.110 478.280, 953.087 468.116 C 951.388 462.405, 949.089 456.262, 947.979 454.465 C 944.822 449.358, 941.005 448.536, 938.464 452.415 M 858.405 455.118 C 856.739 456.971, 856.521 458.691, 856.671 468.851 C 856.835 480.063, 856.933 480.545, 859.476 482.733 C 862.666 485.477, 863.152 485.508, 866.065 483.149 C 867.862 481.693, 868.443 480.023, 868.782 475.333 C 869.371 467.191, 867.518 455.852, 865.337 454.257 C 862.837 452.429, 860.570 452.711, 858.405 455.118 M 655.929 464.208 C 655.066 464.918, 653.673 466.625, 652.834 468 C 650.649 471.580, 647 482.556, 647 485.549 C 647 488.258, 650.997 493, 653.280 493 C 655.936 493, 658.785 488.398, 662.116 478.725 C 665.266 469.577, 665.384 468.774, 663.959 466.225 C 662.252 463.169, 658.373 462.194, 655.929 464.208 M 901.039 471.189 C 899.918 472.392, 898.962 474.080, 898.917 474.939 C 898.871 475.797, 898.672 477.400, 898.474 478.500 C 897.102 486.129, 896.360 500.841, 896.988 507.934 C 897.609 514.939, 898.116 516.675, 899.979 518.184 C 905.478 522.637, 908.282 519.098, 909.825 505.755 C 911.869 488.088, 910.853 472.828, 907.469 470.354 C 904.885 468.464, 903.398 468.657, 901.039 471.189 M 613.769 497.750 C 610.532 501.426, 605.153 510.758, 603.943 514.795 C 601.006 524.599, 610.267 529.569, 615.261 520.867 C 616.218 519.201, 617.004 517.087, 617.010 516.169 C 617.015 515.251, 618.140 512.093, 619.510 509.151 C 622.539 502.643, 622.731 498.462, 620.066 497.035 C 617.293 495.551, 615.529 495.751, 613.769 497.750 M 700.500 498.902 C 695.169 499.601, 690.608 502.045, 689.476 504.810 C 686.627 511.764, 686.234 518.133, 686.683 549.994 L 687.146 582.807 680.278 584.369 C 676.501 585.228, 671.631 586.660, 669.455 587.550 C 662.330 590.468, 653.532 596.842, 649.710 601.853 C 637.698 617.605, 607.152 615.837, 576.015 597.588 C 572.648 595.615, 569.222 594, 568.401 594 C 565.687 594, 562 598.693, 562 602.148 C 562 609.462, 580.859 622.046, 599.500 627.171 C 605.746 628.888, 610.021 629.349, 619 629.274 C 629.271 629.187, 631.429 628.839, 639.187 626.017 C 649.697 622.193, 655.133 618.689, 660.735 612.126 C 667.950 603.672, 679.223 598.672, 692.356 598.100 C 698.765 597.821, 704 599.429, 704 601.676 C 704 602.465, 701.550 604.194, 698.555 605.518 C 693.077 607.941, 691 610.221, 691 613.812 C 691 616.478, 692.996 617.908, 698.673 619.309 C 705.042 620.880, 704.905 622.853, 698.247 625.451 C 695.358 626.578, 692.378 628.400, 691.625 629.500 C 689.762 632.221, 691.128 635.498, 694.948 637.473 C 696.627 638.341, 698 639.411, 698 639.851 C 698 641.993, 692.716 645.016, 685.500 647.002 C 675.518 649.749, 673.365 650.917, 653.015 664.624 C 634.320 677.215, 625.794 681.787, 615 685.007 C 603.928 688.309, 602.552 688.501, 590 688.490 C 580.072 688.482, 577.934 688.179, 574.357 686.275 C 566.713 682.205, 562.365 675.482, 558.475 661.721 C 556.525 654.822, 553.381 652.050, 549.510 653.814 C 542.931 656.811, 544.761 677.447, 552.669 689.425 C 566.177 709.887, 599.703 713.479, 633.349 698.069 C 642.149 694.039, 651.156 688.396, 662.689 679.689 C 675.374 670.112, 684.122 664, 685.143 664 C 685.590 664, 685.853 674.030, 685.728 686.289 C 685.525 706.133, 685.693 708.874, 687.263 711.274 C 689.365 714.488, 693.224 715.674, 696.589 714.141 C 697.933 713.529, 703.025 710.097, 707.907 706.514 C 712.788 702.931, 717.259 700, 717.843 700 C 718.426 700, 720.920 703.118, 723.386 706.930 C 730.684 718.211, 733.931 718.726, 744.340 710.250 C 755.831 700.894, 754.328 701.120, 759.024 708.035 C 765.849 718.086, 769.310 718.311, 779.003 709.337 L 785.105 703.687 789.303 707.679 C 800.514 718.342, 802.751 718.530, 812.485 709.620 L 819.455 703.241 826.902 709.620 C 834.992 716.551, 838.235 717.481, 843.966 714.517 C 848.836 711.999, 849.518 708.082, 849.339 683.664 L 849.178 661.828 851.839 662.454 C 853.303 662.798, 859.450 666.376, 865.500 670.403 C 898.318 692.251, 917.894 701.099, 940.911 704.487 C 962.960 707.732, 981.717 703.737, 998.757 692.165 C 1013.898 681.883, 1022.640 665, 1023.696 644 C 1024.333 631.333, 1023.076 625.447, 1019.372 623.760 C 1014.407 621.498, 1011.754 625.830, 1010.652 638 C 1009.014 656.084, 1001.826 669.628, 989.484 677.882 C 978.680 685.109, 974 686.404, 958.500 686.455 C 934.132 686.535, 917.595 680.415, 877.779 656.582 C 863.884 648.265, 862.872 647.837, 851.453 645.470 C 844.922 644.115, 838.906 642.335, 838.084 641.513 C 836.758 640.187, 837.007 639.635, 840.295 636.624 C 846.283 631.139, 844.940 626.911, 836.422 624.434 C 833.380 623.550, 831.056 622.331, 831.258 621.726 C 831.460 621.120, 834.139 619.787, 837.212 618.763 C 841.539 617.320, 843.064 616.260, 843.976 614.059 C 845.610 610.113, 843.856 607.640, 837.187 604.482 C 834.156 603.047, 832.022 601.424, 832.251 600.727 C 832.867 598.847, 839.873 596.754, 846 596.620 C 859.578 596.324, 869.150 599.946, 878.491 608.916 C 891.018 620.945, 908.766 626.999, 931.502 627 C 950.291 627, 968.933 621.236, 983.495 610.923 C 996.519 601.699, 1001.139 593.139, 995.913 587.913 C 993.126 585.126, 990.928 585.793, 981.332 592.340 C 964.106 604.092, 951.644 608.404, 931.500 609.582 C 911.897 610.728, 897.996 606.448, 886.644 595.770 C 878.267 587.890, 864.079 582.141, 852.750 582.035 L 849 582 848.882 574.250 C 848.817 569.987, 848.686 553.450, 848.591 537.500 C 848.441 512.397, 848.191 508.074, 846.726 505.333 C 843.925 500.089, 840.778 499.616, 813.214 500.296 C 799.173 500.642, 785.203 500.475, 780.189 499.900 C 775.410 499.352, 764.975 498.994, 757 499.103 C 738.347 499.359, 720.231 499.180, 712 498.659 C 708.425 498.432, 703.250 498.542, 700.500 498.902 M 702.750 511.689 C 700.176 512.105, 699.994 512.464, 699.909 517.316 C 699.724 527.880, 699.793 547.030, 700.082 565.233 L 700.379 583.965 705.281 585.593 C 717.311 589.589, 722.279 600.290, 715.880 608.425 L 713.899 610.944 716.199 614.056 C 717.859 616.301, 718.500 618.524, 718.500 622.036 C 718.500 626.254, 718.020 627.411, 714.902 630.702 C 711.541 634.251, 711.367 634.745, 712.248 638.236 C 713.583 643.521, 710.279 650.084, 704.019 654.582 L 699.315 657.961 698.628 678.618 C 698.251 689.979, 698.135 699.468, 698.371 699.705 C 698.608 699.941, 701.460 698.112, 704.711 695.640 C 713.950 688.614, 719.647 685.882, 722.423 687.147 C 723.692 687.725, 727.081 691.762, 729.955 696.118 L 735.180 704.038 740.340 700.326 C 743.178 698.284, 747.075 695.410, 749 693.940 C 756.360 688.319, 759.943 689.163, 765.560 697.839 L 769.455 703.854 774.478 699.591 C 785.569 690.177, 786.778 690.122, 795.958 698.622 C 802.836 704.989, 801.627 705.175, 811.176 696.284 C 819.111 688.897, 819.838 689.015, 832.957 699.834 L 837 703.168 837 680.563 L 837 657.957 834.250 656.777 C 825.974 653.227, 821.542 646.965, 822.935 640.789 C 823.376 638.835, 824.016 636.783, 824.358 636.229 C 824.701 635.676, 823.446 634.052, 821.571 632.622 C 815.416 627.927, 814.604 620.001, 819.662 613.989 L 822.155 611.027 820.069 608.098 C 818.922 606.486, 817.717 603.833, 817.390 602.200 C 816.115 595.824, 823.077 587.379, 831.708 584.831 L 836.124 583.527 836.031 552.513 C 835.980 535.456, 836.064 519.700, 836.219 517.500 L 836.500 513.500 827 512.805 C 821.775 512.423, 811.274 512.598, 803.664 513.194 C 793.265 514.009, 786.930 513.978, 778.164 513.069 C 771.523 512.381, 757.242 511.998, 745 512.180 C 733.175 512.356, 719.450 512.218, 714.500 511.872 C 709.550 511.527, 704.263 511.445, 702.750 511.689 M 974.100 514.599 C 972.945 516.068, 972.002 517.997, 972.004 518.885 C 972.010 521.290, 976.894 545.996, 978.105 549.747 C 978.681 551.533, 980.086 553.647, 981.226 554.445 C 983.027 555.707, 983.660 555.710, 986.066 554.466 C 990.406 552.222, 991.400 547.692, 989.610 538.325 C 987.650 528.072, 984.433 518.034, 982.248 515.356 C 979.351 511.805, 976.507 511.540, 974.100 514.599 M 935.872 535.655 C 934.823 536.920, 934.586 540.270, 934.867 549.905 C 935.496 571.498, 935.448 571.135, 937.938 573.151 C 940.889 575.540, 941.607 575.484, 944.451 572.640 C 946.244 570.847, 946.983 568.674, 947.527 563.589 C 948.503 554.479, 946.404 538.811, 943.840 536.059 C 941.529 533.578, 937.754 533.386, 935.872 535.655 M 630.537 537.555 C 627.969 540.326, 623.558 550.511, 622.512 556.084 C 621.397 562.026, 627.194 567.067, 631.791 564.151 C 633.411 563.122, 638.626 548.679, 639.513 542.759 C 640.029 539.319, 639.806 537.949, 638.518 536.661 C 636.143 534.286, 633.268 534.608, 630.537 537.555 M 587.910 539.690 C 583.634 543.542, 580.374 549.654, 578.061 558.151 C 577.019 561.982, 577.036 563.303, 578.157 565.651 C 581.329 572.288, 587.948 568.035, 591.904 556.818 C 593.129 553.343, 594.956 548.250, 595.963 545.500 C 597.481 541.356, 597.578 540.158, 596.528 538.500 C 594.515 535.322, 592.440 535.608, 587.910 539.690 M 784 554.596 C 778.775 555.376, 768.048 556.204, 760.162 556.434 C 743.409 556.925, 738.152 557.641, 735.750 559.764 C 733.387 561.852, 733.549 563.669, 736.250 565.376 C 738.105 566.549, 742.106 566.676, 759.023 566.099 C 770.311 565.713, 779.986 565.135, 780.523 564.813 C 781.060 564.491, 785.775 563.917, 791 563.538 C 800.822 562.825, 804 561.463, 804 557.967 C 804 553.493, 798.072 552.493, 784 554.596 M 782.810 589.523 C 782.523 589.811, 773.555 590.412, 762.883 590.860 C 742.935 591.697, 739 592.529, 739 595.913 C 739 600.138, 740.636 600.344, 769.146 599.716 C 793.020 599.189, 796.439 598.912, 798.149 597.365 C 800.671 595.083, 800.150 591.878, 797 590.290 C 794.561 589.060, 783.852 588.482, 782.810 589.523 M 774.851 622.456 C 774.494 622.827, 767.697 623.271, 759.747 623.441 C 741.741 623.827, 736.816 625.635, 740.408 630.540 C 741.767 632.395, 743.169 632.500, 766.672 632.500 C 780.327 632.500, 792.719 632.125, 794.209 631.666 C 798.451 630.361, 799.072 625.072, 795.173 623.466 C 792.811 622.493, 775.635 621.640, 774.851 622.456 M 1018.400 702.765 C 1015.918 704.423, 1014.906 708.606, 1013.950 721.167 C 1012.946 734.360, 1010.569 752.354, 1009.442 755.292 C 1008.812 756.931, 1010.544 760.996, 1012.400 762.235 C 1015.822 764.520, 1021.651 760.734, 1023.908 754.760 C 1027.337 745.684, 1029.255 716.058, 1026.951 707.762 C 1025.628 703, 1021.586 700.638, 1018.400 702.765 M 555.270 730.442 C 552.575 732.759, 552.494 733.131, 552.290 744.127 C 552.066 756.173, 552.938 761.361, 556.601 769.755 C 559.229 775.777, 562.378 777.696, 566.528 775.805 C 569.750 774.337, 570.496 771.254, 569.080 765.268 C 567.418 758.245, 567.132 756.572, 565.522 744.401 C 563.770 731.163, 563.578 730.584, 560.465 729.166 C 558.416 728.233, 557.611 728.430, 555.270 730.442 M 969.255 751.534 C 967.874 752.501, 966.163 755.924, 964.622 760.803 C 962.413 767.797, 961.492 771.590, 957.854 788.684 C 956.483 795.125, 957.321 798.734, 960.528 800.195 C 963.996 801.775, 967.272 800.054, 969.422 795.523 C 973.774 786.352, 979.584 760.934, 978.478 755.901 C 977.867 753.118, 974.708 750, 972.500 750 C 971.920 750, 970.460 750.690, 969.255 751.534 M 621.082 754.918 C 618.543 757.457, 617.532 766.017, 618.898 773.407 C 619.490 776.611, 619.802 779.517, 619.591 779.866 C 618.834 781.117, 621.785 794.023, 623.388 796.470 C 625.117 799.108, 628.971 800.609, 631.513 799.633 C 634.802 798.371, 635.259 794.075, 633.550 780.500 C 631.263 762.339, 630.111 757.111, 627.911 754.911 C 625.489 752.489, 623.509 752.491, 621.082 754.918 M 697.725 760.752 C 694.751 764.038, 694.250 767.501, 694.435 783.500 C 694.635 800.773, 695.384 803.943, 699.733 805.924 C 703.357 807.576, 706.534 805.237, 707.347 800.320 C 708.316 794.453, 708.117 767.437, 707.084 764.720 C 705.020 759.291, 700.703 757.461, 697.725 760.752 M 826.251 781.537 C 823.192 783.679, 822.194 788.290, 821.172 805 C 820.154 821.658, 820.903 825.893, 825.133 827.379 C 830.863 829.392, 833.143 825.691, 835.390 810.733 C 837.344 797.723, 836.461 784.604, 833.427 781.570 C 831.443 779.585, 829.053 779.574, 826.251 781.537 M 1005.722 791.755 C 1004.849 792.720, 1001.903 798.682, 999.175 805.005 C 996.447 811.327, 993.047 818.975, 991.618 822 C 988.511 828.576, 988.350 831.350, 990.926 833.926 C 994.890 837.890, 1000.388 833.554, 1006.174 821.900 C 1009.613 814.974, 1015 799.522, 1015 796.583 C 1015 794.449, 1011.001 790, 1009.082 790 C 1008.108 790, 1006.595 790.790, 1005.722 791.755 M 579.573 802.570 C 576.892 805.251, 576.764 808.490, 579.034 816.130 C 584.542 834.660, 593.250 844.704, 599.166 839.350 C 601.812 836.955, 601.266 832.679, 597.206 824 C 595.533 820.425, 592.958 814.575, 591.483 811 C 590.008 807.425, 588.101 803.712, 587.245 802.750 C 585.313 800.576, 581.652 800.490, 579.573 802.570 M 1080 813.051 C 1074.470 818.012, 1069.188 821.581, 1062.028 825.194 C 1056.626 827.920, 1056.520 828.060, 1053.685 836.228 C 1052.106 840.777, 1050.222 846.578, 1049.498 849.118 C 1048.774 851.658, 1047.750 854.583, 1047.222 855.618 C 1044.975 860.028, 1043.221 866.821, 1044.102 867.702 C 1045.273 868.873, 1059.194 866.151, 1068 863.031 C 1077.557 859.644, 1086.988 854.461, 1091.300 850.227 C 1095.042 846.552, 1102 836.633, 1102 834.973 C 1102 833.869, 1093.268 817.028, 1091.743 815.190 C 1091.102 814.418, 1090.099 812.822, 1089.514 811.643 C 1087.817 808.226, 1084.897 808.658, 1080 813.051 M 916.923 815.923 C 915.315 817.531, 914 819.468, 914 820.229 C 914 821.710, 908.420 835.962, 904.302 845 C 900.664 852.983, 900.324 856.324, 902.887 858.887 C 905.479 861.479, 906.645 861.514, 910.576 859.117 C 915.518 856.103, 924.818 836.509, 926.585 825.386 C 927.499 819.638, 926.331 815.472, 923.436 814.153 C 920.084 812.626, 920.271 812.575, 916.923 815.923 M 639.500 833.576 C 634.731 837.184, 639.266 854.514, 646.683 861.027 C 650.701 864.554, 652.284 864.716, 655.113 861.887 C 657.864 859.136, 657.374 856.215, 652.111 844 C 646.967 832.060, 644.357 829.903, 639.500 833.576 M 738.299 843.503 C 737.119 844.330, 735.625 846.605, 734.980 848.560 C 732.826 855.088, 735.362 879.203, 738.899 885.811 C 740.262 888.358, 744.633 889.716, 746.905 888.299 C 751.318 885.545, 751.825 880.330, 749.436 862.301 C 748.576 855.811, 747.802 849.672, 747.716 848.659 C 747.526 846.408, 743.590 842, 741.770 842 C 741.041 842, 739.479 842.676, 738.299 843.503 M 615 871 C 611.412 874.588, 612.655 879.342, 618.850 885.726 C 624.733 891.788, 630.501 895.179, 634.299 894.808 C 637.820 894.464, 640.126 891.198, 639.240 887.809 C 638.631 885.479, 630.316 876.520, 624.612 872.048 C 620.075 868.490, 617.762 868.238, 615 871 M 844.607 871.302 C 843.341 872.568, 840.549 877.157, 838.402 881.500 C 832.093 894.266, 833.427 902.932, 841.479 901.491 C 845.345 900.800, 848.137 897.246, 852.080 888 C 855.891 879.064, 856.441 872.528, 853.559 870.420 C 850.715 868.340, 847.225 868.684, 844.607 871.302 M 1123.969 889.640 C 1120.301 897.409, 1112.992 907.733, 1107.322 913.156 C 1097.904 922.163, 1083.567 930.697, 1074.573 932.648 L 1070.647 933.500 1067.932 946.500 C 1064.701 961.971, 1063.396 966.115, 1058.523 976.384 C 1056.492 980.663, 1055.018 984.351, 1055.246 984.580 C 1056.518 985.851, 1068.672 986.124, 1074.209 985.006 C 1077.669 984.307, 1081.400 983.617, 1082.500 983.473 C 1085.846 983.034, 1098.254 978.845, 1102.456 976.735 C 1110.300 972.797, 1123.907 961.888, 1129.183 955.306 C 1137.203 945.302, 1139.959 941.176, 1143.323 934.133 L 1146.390 927.713 1144.662 921.127 C 1142.800 914.026, 1130.754 886.374, 1128.550 884.140 C 1127.423 882.997, 1126.688 883.879, 1123.969 889.640 M 676.156 892.529 C 674.970 894.037, 674 896.167, 674 897.263 C 674 900.200, 679.703 909.655, 684.486 914.647 C 687.896 918.206, 689.314 919, 692.257 919 C 700.217 919, 701.243 912.543, 694.750 903.316 C 687.719 893.325, 685.299 890.923, 681.669 890.334 C 678.855 889.877, 677.962 890.233, 676.156 892.529 M 995.325 921.285 C 993.327 922.402, 976.756 941.535, 973.277 946.743 C 971.247 949.782, 972.381 953.814, 975.612 955.042 C 979.143 956.385, 983.592 954.115, 990.080 947.662 C 1001.129 936.674, 1005.517 926.517, 1001.116 922.116 C 998.688 919.688, 998.288 919.631, 995.325 921.285 M 764.189 928.028 C 760.193 932.316, 758.680 943.671, 761.557 947.777 C 764.929 952.592, 770.337 949.249, 772.520 941 C 774.495 933.540, 774.368 930.368, 772 928 C 769.445 925.445, 766.586 925.455, 764.189 928.028 M 489.435 935.459 C 486.849 939.405, 488.377 942.946, 495.789 950.186 C 504.290 958.491, 509.599 962, 513.661 962 C 517.144 962, 520 959.828, 520 957.179 C 520.001 955.480, 508.546 944.060, 499.660 936.900 C 494.044 932.375, 491.675 932.041, 489.435 935.459 M 563.400 946.765 C 561.065 948.324, 560.139 951.458, 561.347 953.713 C 563.185 957.148, 572.965 964.227, 580.968 967.916 C 589.575 971.883, 593.264 971.513, 593.826 966.627 C 594.241 963.025, 591.601 960.093, 582.855 954.442 C 570.870 946.697, 566.238 944.870, 563.400 946.765 M 910.485 958.115 C 903.776 961.676, 894.696 968.521, 890.173 973.429 C 885.249 978.770, 885.005 981.605, 889.268 983.967 C 891.899 985.425, 892.350 985.332, 898.453 982.086 C 906.246 977.942, 917.211 969.856, 919.233 966.763 C 922.028 962.487, 922.239 960.239, 920.051 958.051 C 917.456 955.456, 915.471 955.469, 910.485 958.115 M 633.571 974.571 C 629.680 978.463, 633.130 983.008, 644.225 988.606 C 652.225 992.643, 658.306 993.165, 660.020 989.962 C 662.302 985.699, 659.252 982.605, 646.067 975.803 C 639.956 972.650, 635.893 972.250, 633.571 974.571 M 980.432 982.850 C 977.179 983.873, 959.080 995.123, 955.885 998.108 C 952.403 1001.360, 952.054 1005.423, 955.114 1007.061 C 960.238 1009.803, 973.213 1004.244, 982.534 995.313 C 986.147 991.851, 987 990.369, 987 987.552 C 987 985.133, 986.409 983.754, 985.066 983.035 C 984.002 982.466, 982.989 982.045, 982.816 982.100 C 982.642 982.155, 981.570 982.492, 980.432 982.850 M 832.291 987.568 C 829.205 988.919, 820.205 994.568, 816.913 997.221 C 812.301 1000.939, 812.577 1006.354, 817.441 1007.575 C 820.514 1008.346, 831.129 1003.136, 837.391 997.784 C 842.552 993.373, 843.651 988.954, 840.066 987.035 C 837.622 985.727, 836.286 985.819, 832.291 987.568 M 560.420 1000.481 C 558.905 1002.794, 558.921 1003.181, 560.665 1006.166 C 562.913 1010.016, 572.461 1015.131, 582.122 1017.663 C 588.390 1019.305, 588.885 1019.305, 591.372 1017.676 C 594.194 1015.827, 594.902 1011.991, 592.750 1010.210 C 590.125 1008.037, 566.950 998, 564.557 998 C 562.987 998, 561.437 998.930, 560.420 1000.481 M 1150.476 1011.901 C 1132.109 1029.759, 1109.166 1042.006, 1085.500 1046.585 C 1084.400 1046.798, 1081.025 1047.510, 1078 1048.168 C 1068.830 1050.163, 1025.442 1049.627, 1021.962 1047.476 C 1021.518 1047.202, 1018.757 1046.503, 1015.827 1045.922 C 1012.897 1045.342, 1009.499 1044.665, 1008.276 1044.419 C 1007.053 1044.172, 1004.855 1043.515, 1003.391 1042.959 C 1001.372 1042.191, 1000.177 1042.309, 998.439 1043.448 C 996.362 1044.809, 996.245 1045.302, 997.184 1048.704 C 1001.428 1064.076, 1014.633 1075.976, 1034.586 1082.411 C 1056.891 1089.605, 1088.866 1087.608, 1108.447 1077.797 C 1120.163 1071.927, 1132.277 1061.707, 1140.209 1051 C 1144.060 1045.803, 1151.490 1031.342, 1153.826 1024.500 C 1156.014 1018.090, 1158.542 1006.208, 1157.862 1005.529 C 1157.636 1005.303, 1154.312 1008.170, 1150.476 1011.901 M 889.499 1018.847 C 881.798 1021.496, 874.485 1024.205, 873.249 1024.867 C 868.682 1027.311, 871.381 1033.326, 877.603 1034.571 C 883.581 1035.766, 902.603 1028.878, 908.554 1023.362 C 909.899 1022.116, 911 1020.200, 911 1019.104 C 911 1016.960, 907.515 1013.991, 905.027 1014.015 C 904.187 1014.023, 897.199 1016.198, 889.499 1018.847" stroke="none" fill="#2942C9" fill-rule="evenodd"/>
    </g>
  </g>
</svg>
