<?xml version="1.0" encoding="UTF-8"?>
<svg xmlns="http://www.w3.org/2000/svg" viewBox="0 0 1600 1280" width="1600" height="1280" role="img" aria-labelledby="title desc">
  <title id="title">BillBandit raccoon - Overdue Bell</title>
  <desc id="desc">Transparent two-color vector mascot scene using cobalt and warm cream.</desc>
  <g id="mascot-overdue-bell" shape-rendering="geometricPrecision">
    <g id="warm-cream-base">
      <path d="M 930 110.583 C 929.175 110.877, 925.605 112.045, 922.068 113.180 C 913.893 115.803, 902.363 121.759, 895.128 127.095 C 888.361 132.085, 882.523 138.181, 875.825 147.250 C 871.225 153.478, 870.556 153.997, 867.170 153.964 C 865.151 153.944, 858.550 152.807, 852.500 151.436 C 846.450 150.066, 838.575 148.302, 835 147.517 C 830.955 146.628, 819.246 145.856, 804 145.472 C 783.637 144.960, 777.643 145.144, 768.500 146.562 C 754.806 148.686, 736.849 152.869, 721.653 157.475 C 708.465 161.472, 706.192 161.719, 705.317 159.250 C 704.976 158.287, 701.631 153.164, 697.884 147.864 C 691.591 138.962, 682.388 130, 679.539 130 C 678.879 130, 676.351 128.180, 673.920 125.955 C 668.880 121.344, 665.482 119.304, 658.823 116.893 C 643.340 111.289, 637.034 114.438, 632.164 130.206 C 626.201 149.512, 625.650 166.998, 630.423 185.477 C 631.840 190.964, 633 196.716, 633 198.259 C 633 202.177, 631.018 206.526, 623.622 218.831 C 620.095 224.699, 613.775 236.025, 609.577 244 C 597.383 267.165, 592.818 274.696, 581.554 290.226 C 573.970 300.682, 568 309.923, 568 311.206 C 568 311.643, 568.950 312.950, 570.110 314.110 C 571.769 315.769, 572.998 316.099, 575.860 315.650 C 577.862 315.337, 581.413 314.779, 583.750 314.412 C 587.954 313.752, 588 313.777, 588 316.745 C 588 319.808, 584.080 324.206, 576.153 330.037 C 571.657 333.345, 569.429 337.607, 571.127 339.653 C 572.407 341.195, 579.004 341.118, 585.238 339.488 C 589.702 338.320, 589.821 341.226, 585.656 349.644 C 581.659 357.722, 581.150 361.050, 583.601 363.083 C 584.943 364.198, 585.951 364.120, 589.851 362.601 C 598.206 359.346, 600.101 359.442, 603.827 363.305 C 607.096 366.694, 607.132 366.828, 605.879 371.008 C 604.679 375.016, 604.738 375.370, 606.913 377.131 C 609.723 379.406, 613.532 379.511, 618.464 377.451 C 622.696 375.682, 627.496 376.680, 630.447 379.942 C 631.884 381.530, 631.987 382.608, 631.133 387.154 C 630.581 390.094, 628.585 397, 626.699 402.500 C 624.813 408, 621.835 417.225, 620.082 423 C 615.839 436.975, 615.176 438.602, 605.202 459.500 C 590.934 489.397, 576.865 511.265, 563.500 524.320 C 555.903 531.740, 548.164 534.349, 541.726 531.659 C 535.977 529.257, 528.002 515.151, 526.372 504.500 C 526.119 502.850, 525.685 500.028, 525.407 498.229 C 525.129 496.429, 523.517 493.380, 521.824 491.452 C 519.222 488.489, 518.837 487.392, 519.331 484.350 C 520.029 480.046, 517.320 474.025, 513.459 471.301 C 507.183 466.873, 507.065 466.681, 506.386 459.750 C 505.725 453.010, 505.727 453, 508.272 453 C 512.276 453, 528.014 447.523, 536.646 443.126 C 549.735 436.459, 555.929 428.798, 555.978 419.218 C 556.012 412.689, 553.637 408.335, 545.929 400.794 C 538.046 393.081, 536.327 389.778, 533.030 376 C 526.610 349.171, 523.613 338.554, 520.839 332.814 C 517.443 325.789, 511.810 317.662, 508 314.291 C 504.281 311.001, 493.371 306.013, 488.406 305.332 C 483.809 304.702, 483.672 304.521, 482.516 297.500 C 481.703 292.570, 478.738 288.044, 474.347 285.035 C 471.577 283.137, 470.075 282.829, 465.465 283.211 C 459.150 283.735, 455.876 285.744, 451.686 291.665 C 449.414 294.877, 448.764 297.084, 448.306 303.142 L 447.738 310.642 443.317 312.988 C 440.886 314.277, 436.702 317.734, 434.020 320.669 C 425.993 329.451, 421.925 340.215, 420.287 357 C 419.358 366.513, 419.363 367.649, 420.400 388 C 421.232 404.322, 420.462 408.548, 415.273 416.121 C 409.580 424.431, 407.800 428.959, 407.800 435.126 C 407.800 442.018, 410.098 446.412, 415.746 450.320 C 424.230 456.191, 441.573 459.554, 458.791 458.668 C 471.566 458.010, 471.483 457.960, 472.117 466.744 C 472.390 470.517, 472.038 471.160, 467.456 475.284 C 451.682 489.480, 445.564 530.159, 454.101 564.082 C 459.989 587.477, 469.226 604.410, 484.401 619.627 C 494.863 630.117, 500.952 634.031, 514.610 639.047 C 527.142 643.649, 531.536 644.249, 548.750 643.712 C 557.688 643.434, 565.001 643.497, 565.003 643.853 C 565.005 644.209, 564.114 648.325, 563.024 653 C 552.362 698.698, 550.336 732.247, 556.046 768.500 C 557.831 779.834, 566.533 808.288, 570.696 816.404 C 572.705 820.320, 581.921 834.490, 591.042 847.688 C 599.839 860.415, 602.929 866.188, 607.312 878.084 C 612.681 892.655, 614.597 899.511, 616.930 912.500 C 620.392 931.781, 624.014 949.931, 626.011 958 C 627.727 964.935, 631.862 986.350, 632.556 991.895 C 632.721 993.213, 633.554 997.263, 634.407 1000.895 C 635.260 1004.528, 636.892 1011.550, 638.032 1016.500 C 639.173 1021.450, 641.426 1030.900, 643.039 1037.500 C 646.593 1052.043, 649 1065.774, 649 1071.510 C 649 1076.051, 647.976 1076.908, 640.500 1078.617 C 636.804 1079.462, 627.974 1083.683, 622.130 1087.399 C 615.885 1091.369, 612.082 1095.579, 609.349 1101.550 C 606.410 1107.969, 606.291 1108, 584.395 1108 C 566.296 1108, 540.327 1109.548, 532.327 1111.104 C 525.792 1112.375, 523.935 1114.269, 527.183 1116.352 C 532.705 1119.892, 538.054 1120.457, 566.500 1120.503 C 589.704 1120.540, 596.042 1120.865, 603.500 1122.398 C 610.775 1123.893, 617.483 1124.272, 638.500 1124.374 C 668.430 1124.519, 695.700 1123.396, 708.130 1121.507 C 714.643 1120.517, 720.529 1120.421, 732.130 1121.116 C 744.746 1121.872, 750.367 1121.720, 763.500 1120.268 C 772.300 1119.296, 782.650 1118.544, 786.500 1118.597 C 808.825 1118.908, 827.646 1119.651, 828.624 1120.261 C 829.242 1120.647, 836.217 1121.435, 844.124 1122.013 C 852.031 1122.590, 863.675 1123.714, 870 1124.511 C 878.994 1125.643, 889.780 1125.846, 919.500 1125.440 C 978.043 1124.640, 994.776 1124.308, 1017.500 1123.492 C 1029.050 1123.077, 1054.475 1122.621, 1074 1122.478 C 1097.902 1122.303, 1111.134 1121.815, 1114.500 1120.986 C 1117.250 1120.309, 1125.800 1119.652, 1133.500 1119.526 C 1148.334 1119.284, 1158.366 1118.308, 1161.250 1116.828 C 1163.317 1115.767, 1163.549 1112.700, 1161.680 1111.149 C 1159.863 1109.641, 1136.824 1108.005, 1117.357 1108.002 C 1103.561 1108, 1101.126 1107.770, 1100.607 1106.418 C 1099.712 1104.085, 1099.636 1104.187, 1104.549 1101.071 C 1109.348 1098.028, 1111.339 1096.112, 1117.166 1088.929 C 1122.076 1082.877, 1124.411 1077.946, 1127.594 1066.905 C 1130.064 1058.340, 1130.299 1056.071, 1130.220 1041.500 C 1130.172 1032.700, 1129.607 1023.250, 1128.964 1020.500 C 1128.321 1017.750, 1127.569 1013.959, 1127.292 1012.076 C 1126.083 1003.832, 1111.329 962.074, 1106.686 953.751 C 1104.768 950.313, 1099.103 939.468, 1094.098 929.652 C 1089.092 919.836, 1084.144 910.607, 1083.102 909.143 C 1082.060 907.679, 1080.673 904.499, 1080.020 902.075 C 1079.368 899.651, 1076.378 893.007, 1073.377 887.311 C 1070.376 881.614, 1066.542 873.476, 1064.857 869.227 C 1063.172 864.977, 1059.984 857.675, 1057.772 853 C 1055.559 848.325, 1051.817 839.775, 1049.454 834 C 1047.092 828.225, 1043.557 819.675, 1041.598 815 C 1039.639 810.325, 1038.028 805.013, 1038.018 803.196 C 1038.008 801.379, 1039.982 792.154, 1042.404 782.696 C 1044.827 773.238, 1047.104 763.025, 1047.464 760 C 1047.825 756.975, 1048.516 751.800, 1048.999 748.500 C 1052.064 727.571, 1052.964 699.392, 1051.601 667 C 1050.883 649.944, 1049.402 637.876, 1044.975 613 C 1043.360 603.925, 1041.339 592, 1040.484 586.500 C 1039.629 581, 1038.033 572.450, 1036.939 567.500 C 1035.844 562.550, 1034.240 555.125, 1033.375 551 C 1030.966 539.513, 1026.159 522.177, 1023.533 515.500 C 1020.182 506.980, 1015.767 493.646, 1011.117 478 C 1000.478 442.206, 990.383 418.749, 976.906 398.500 C 964.429 379.755, 959.281 366.119, 963.200 362.200 C 964.833 360.567, 971.934 360.747, 975 362.500 C 978.554 364.531, 982.393 364.328, 984.504 361.996 C 986.123 360.207, 986.177 359.567, 985.014 356.042 C 983.872 352.584, 983.922 351.768, 985.413 349.492 C 987.884 345.721, 989.355 345.515, 996.019 348.007 C 1001.124 349.916, 1002.427 350.066, 1004.927 349.030 C 1006.538 348.363, 1008.115 347.142, 1008.431 346.318 C 1008.766 345.447, 1006.703 341.393, 1003.503 336.634 C 1000.201 331.722, 998 327.364, 998 325.739 L 998 323.031 1004.250 323.738 C 1014.385 324.884, 1017.143 324.682, 1018.378 322.704 C 1019.328 321.183, 1018.794 320.262, 1014.899 316.704 C 1012.369 314.392, 1007.950 310.925, 1005.080 309 C 1002.209 307.075, 999.329 305.049, 998.680 304.498 C 998.031 303.947, 995.559 302.235, 993.187 300.693 C 987.257 296.837, 987.766 294.486, 994.520 294.540 C 997.259 294.561, 1001.611 294.946, 1004.191 295.394 C 1008.465 296.137, 1009.113 295.978, 1011.489 293.602 C 1013.200 291.891, 1013.822 290.514, 1013.298 289.597 C 1012.094 287.490, 998.342 275.380, 991.191 270.131 C 985.251 265.771, 984.905 265.295, 985.275 262 C 985.770 257.595, 983.598 249.124, 980.291 242.554 C 977.664 237.339, 969.495 223.539, 967.883 221.598 C 967.382 220.994, 962.420 214.650, 956.857 207.500 C 951.294 200.350, 945.134 192.813, 943.169 190.752 L 939.597 187.003 941.793 177.252 C 945.038 162.843, 946.997 146.172, 947.107 132.028 C 947.209 118.851, 946.564 115.702, 943.125 112.604 C 941.032 110.719, 933.069 109.493, 930 110.583 M 391.500 288.850 C 387.414 291.359, 380.567 298.967, 378.175 303.657 C 375.461 308.976, 372 319.787, 372 322.943 C 372 325.688, 374.465 330, 376.034 330 C 377.692 330, 380.044 325.356, 381.672 318.870 C 383.549 311.392, 389.484 299.139, 393.923 293.579 C 398.397 287.974, 397.088 285.419, 391.500 288.850 M 404.750 308.036 C 398.095 315.643, 393.529 330.688, 396.265 335.991 C 398.540 340.401, 404 339.396, 404 334.568 C 404 330.967, 408.089 315.884, 410.622 310.142 C 414.493 301.366, 411.518 300.299, 404.750 308.036 M 737.293 956.250 C 735.563 958.523, 731.597 980.621, 729.082 1002 C 728.467 1007.225, 727.036 1019.375, 725.902 1029 C 724.768 1038.625, 723.450 1048.300, 722.974 1050.500 C 721.036 1059.454, 716.526 1103.424, 717.401 1104.839 C 718.011 1105.827, 760.958 1105.762, 762.561 1104.771 C 764.027 1103.866, 771.140 1103.829, 821.183 1104.473 L 864.866 1105.035 866.612 1102.080 C 870.215 1095.980, 883.094 1087.034, 894.858 1082.460 C 898.905 1080.887, 902.440 1079.018, 902.712 1078.308 C 902.985 1077.598, 902.055 1071.500, 900.647 1064.758 C 899.239 1058.016, 896.767 1046.200, 895.154 1038.500 C 893.541 1030.800, 891.902 1022.250, 891.512 1019.500 C 891.122 1016.750, 890.419 1013.782, 889.949 1012.905 C 889.480 1012.028, 888.363 1006.853, 887.467 1001.405 C 886.572 995.957, 884.977 988.350, 883.925 984.500 C 880.771 972.967, 874.322 957.634, 871.965 956.065 C 870.069 954.802, 868.223 954.892, 856.655 956.809 C 834.983 960.401, 828.465 961.030, 806.500 961.645 C 787.181 962.187, 783.999 962.019, 766.744 959.546 C 756.429 958.067, 746.532 956.439, 744.751 955.929 C 740.383 954.676, 738.428 954.760, 737.293 956.250 M 973.593 1059.357 C 973.246 1061.203, 972.516 1070.091, 971.970 1079.107 C 971.423 1088.123, 970.700 1097.852, 970.363 1100.727 C 969.777 1105.721, 969.870 1106, 972.440 1106.977 C 973.920 1107.540, 979.488 1107.997, 984.815 1107.993 C 990.142 1107.990, 997.875 1108.482, 1002 1109.087 C 1011.578 1110.492, 1040.127 1109.139, 1040.753 1107.251 C 1040.980 1106.563, 1040.341 1105.719, 1039.333 1105.374 C 1033.733 1103.457, 1019.968 1096.164, 1013.500 1091.687 C 1002.309 1083.940, 986.930 1068.565, 980.556 1058.750 C 979.471 1057.080, 977.877 1056, 976.496 1056 C 974.708 1056, 974.088 1056.717, 973.593 1059.357" stroke="none" fill="#F7F1DD" fill-rule="evenodd"/>
    </g>
    <g id="cobalt-ink">
      <path d="M 930 110.583 C 929.175 110.877, 925.605 112.045, 922.068 113.180 C 913.893 115.803, 902.363 121.759, 895.128 127.095 C 888.361 132.085, 882.523 138.181, 875.825 147.250 C 871.225 153.478, 870.556 153.997, 867.170 153.964 C 865.151 153.944, 858.550 152.807, 852.500 151.436 C 846.450 150.066, 838.575 148.302, 835 147.517 C 830.955 146.628, 819.246 145.856, 804 145.472 C 783.637 144.960, 777.643 145.144, 768.500 146.562 C 754.806 148.686, 736.849 152.869, 721.653 157.475 C 708.465 161.472, 706.192 161.719, 705.317 159.250 C 704.976 158.287, 701.631 153.164, 697.884 147.864 C 691.591 138.962, 682.388 130, 679.539 130 C 678.879 130, 676.351 128.180, 673.920 125.955 C 668.880 121.344, 665.482 119.304, 658.823 116.893 C 643.340 111.289, 637.034 114.438, 632.164 130.206 C 626.201 149.512, 625.650 166.998, 630.423 185.477 C 631.840 190.964, 633 196.716, 633 198.259 C 633 202.177, 631.018 206.526, 623.622 218.831 C 620.095 224.699, 613.775 236.025, 609.577 244 C 597.383 267.165, 592.818 274.696, 581.554 290.226 C 573.970 300.682, 568 309.923, 568 311.206 C 568 311.643, 568.950 312.950, 570.110 314.110 C 571.769 315.769, 572.998 316.099, 575.860 315.650 C 577.862 315.337, 581.413 314.779, 583.750 314.412 C 587.954 313.752, 588 313.777, 588 316.745 C 588 319.808, 584.080 324.206, 576.153 330.037 C 571.657 333.345, 569.429 337.607, 571.127 339.653 C 572.407 341.195, 579.004 341.118, 585.238 339.488 C 589.702 338.320, 589.821 341.226, 585.656 349.644 C 581.686 357.668, 581.151 361.051, 583.540 363.033 C 585.132 364.355, 585.973 364.190, 595.278 360.740 C 597.355 359.969, 600.505 357.976, 602.278 356.310 C 608.173 350.769, 617.091 344.845, 624.840 341.321 C 629.053 339.406, 634.678 336.748, 637.340 335.415 C 640.001 334.083, 642.637 333.275, 643.196 333.621 C 643.755 333.967, 645.965 333.744, 648.107 333.125 C 650.248 332.506, 653.913 331.465, 656.250 330.812 C 668.791 327.305, 688.962 316.402, 704.293 304.844 C 712.757 298.462, 732 279.587, 732 277.666 C 732 276.920, 732.868 275.524, 733.929 274.564 C 734.990 273.604, 736.578 271.397, 737.457 269.659 C 739.115 266.381, 740.279 264.236, 742.020 261.250 C 742.581 260.288, 743.734 257.925, 744.583 256 C 745.431 254.075, 746.735 251.150, 747.480 249.500 C 750.735 242.292, 750.098 236.416, 745.973 235.595 C 745.163 235.434, 743.600 234.961, 742.500 234.544 C 741.400 234.128, 737.575 232.757, 734 231.498 C 730.425 230.238, 723.675 227.856, 719 226.204 C 683.248 213.569, 682.474 213.460, 670.413 219.391 C 651.290 228.793, 643.784 233.023, 635.842 238.870 C 632.578 241.273, 629.658 242.992, 629.355 242.688 C 629.052 242.385, 631.634 236.819, 635.093 230.318 C 646.334 209.193, 651 199.676, 651 197.870 C 651 196.895, 650.283 193.488, 649.406 190.299 C 646.430 179.474, 645.070 172.512, 645.035 167.917 C 645.016 165.396, 644.681 163.014, 644.291 162.624 C 642.743 161.076, 646.624 136.976, 648.765 134.835 C 649.416 134.184, 651.759 134.855, 655.627 136.799 C 658.857 138.423, 662.973 140.071, 664.774 140.461 C 669.915 141.574, 682.599 154.953, 687.458 164.388 C 689.634 168.615, 692.626 173.519, 694.105 175.287 C 696.748 178.443, 696.932 178.496, 704.538 178.273 C 709.447 178.129, 713.132 177.488, 714.605 176.523 C 715.884 175.685, 718.226 175, 719.810 175 C 721.394 175, 725.347 174.111, 728.595 173.025 C 731.843 171.938, 735.491 171.038, 736.703 171.025 C 737.915 171.011, 739.940 170.608, 741.203 170.129 C 745.021 168.683, 753.938 166.166, 764.500 163.555 C 773.654 161.292, 775.896 161.123, 791 161.551 C 816.038 162.261, 826.500 163.420, 852.731 168.389 C 857.258 169.247, 862.433 170.129, 864.231 170.350 C 866.029 170.570, 868.696 171.070, 870.157 171.460 C 873.928 172.468, 876.343 170.822, 881.229 163.914 C 887.414 155.169, 889.146 152.897, 892.500 149.132 C 895.917 145.296, 906.222 138, 908.223 138 C 908.955 138, 910.471 137.359, 911.590 136.575 C 914.046 134.854, 924.768 131, 927.099 131 C 928.066 131, 928.960 132.010, 929.227 133.405 C 929.873 136.787, 927.595 154.528, 924.410 170.921 L 921.711 184.810 925.023 190.155 C 926.845 193.095, 928.835 196.400, 929.445 197.500 C 930.055 198.600, 933.129 203.453, 936.277 208.285 C 939.425 213.116, 942 217.316, 942 217.617 C 942 217.917, 943.575 220.085, 945.500 222.435 C 947.425 224.784, 949 227.052, 949 227.476 C 949 227.900, 950.931 231.003, 953.291 234.373 C 957.281 240.070, 960.478 246, 959.561 246 C 959.343 246, 955.866 244.058, 951.833 241.685 C 947.800 239.312, 943.825 237.044, 943 236.646 C 942.175 236.247, 939.250 234.591, 936.500 232.967 C 924.217 225.711, 903.575 215.976, 888.532 210.345 C 883.503 208.462, 880.431 209.038, 866.500 214.473 C 860.450 216.834, 853.475 219.474, 851 220.341 C 848.525 221.208, 842.900 223.258, 838.500 224.898 C 834.100 226.537, 825.376 229.593, 819.114 231.689 C 804.731 236.503, 804.312 237.030, 806.861 247.088 C 811.589 265.745, 823.422 282.120, 840.246 293.288 C 846.851 297.672, 858.236 303.433, 863 304.803 C 864.925 305.356, 875.950 309.146, 887.500 313.225 C 899.050 317.303, 911.200 321.221, 914.500 321.931 C 917.800 322.641, 922.164 323.834, 924.198 324.582 C 935.383 328.696, 952.403 332.844, 960.769 333.495 C 969.750 334.193, 970.305 334.383, 978.658 339.627 C 983.400 342.604, 990.627 346.195, 994.720 347.608 C 1001.041 349.790, 1002.589 349.999, 1005.008 348.997 C 1006.575 348.348, 1008.115 347.142, 1008.431 346.318 C 1008.766 345.447, 1006.703 341.393, 1003.503 336.634 C 1000.201 331.722, 998 327.364, 998 325.739 L 998 323.031 1004.250 323.738 C 1014.385 324.884, 1017.143 324.682, 1018.378 322.704 C 1019.328 321.183, 1018.794 320.262, 1014.899 316.704 C 1012.369 314.392, 1007.950 310.925, 1005.080 309 C 1002.209 307.075, 999.329 305.049, 998.680 304.498 C 998.031 303.947, 995.559 302.235, 993.187 300.693 C 987.257 296.837, 987.766 294.486, 994.520 294.540 C 997.259 294.561, 1001.611 294.946, 1004.191 295.394 C 1008.465 296.137, 1009.113 295.978, 1011.489 293.602 C 1013.200 291.891, 1013.822 290.514, 1013.298 289.597 C 1012.094 287.490, 998.342 275.380, 991.191 270.131 C 985.251 265.771, 984.905 265.295, 985.275 262 C 985.770 257.595, 983.598 249.124, 980.291 242.554 C 977.664 237.339, 969.495 223.539, 967.883 221.598 C 967.382 220.994, 962.420 214.650, 956.857 207.500 C 951.294 200.350, 945.134 192.813, 943.169 190.752 L 939.597 187.003 941.793 177.252 C 945.038 162.843, 946.997 146.172, 947.107 132.028 C 947.209 118.851, 946.564 115.702, 943.125 112.604 C 941.032 110.719, 933.069 109.493, 930 110.583 M 908.516 149.322 C 905.239 152.742, 904.028 155.053, 902.708 160.402 C 901.237 166.362, 901.209 167.564, 902.472 170.586 C 903.303 172.577, 904.990 174.426, 906.498 174.999 C 910.648 176.577, 913.320 174.090, 915.346 166.761 C 916.299 163.318, 917.510 159.118, 918.039 157.429 C 918.568 155.740, 919 153.152, 919 151.679 C 919 148.946, 915.944 145, 913.829 145 C 913.184 145, 910.794 146.945, 908.516 149.322 M 654.329 152.580 C 651.862 155.047, 651.770 155.540, 652.226 163.830 C 652.591 170.458, 653.333 173.830, 655.376 178.148 C 658.712 185.198, 661.920 186.534, 665.916 182.538 C 668.358 180.097, 668.500 179.391, 668.500 169.727 C 668.500 158.401, 667.166 154.711, 661.960 151.636 C 658.252 149.445, 657.353 149.556, 654.329 152.580 M 768.780 176.064 C 766.414 177.443, 764.939 183.581, 764.835 192.484 C 764.736 201.041, 766.496 205, 770.401 205 C 774.717 205, 775.500 202.663, 775.500 189.770 C 775.500 179.121, 775.292 177.693, 773.559 176.423 C 771.288 174.758, 771.050 174.740, 768.780 176.064 M 795.783 179.750 C 793.114 182.811, 792.177 185.399, 790.499 194.353 C 788.175 206.757, 789.804 212.019, 795.522 210.584 C 798.050 209.949, 799.738 207.104, 800.612 202 C 800.848 200.625, 801.264 198.375, 801.537 197 C 801.810 195.625, 802.192 193.600, 802.385 192.500 C 802.578 191.400, 803.048 188.775, 803.429 186.667 C 804.640 179.966, 799.585 175.392, 795.783 179.750 M 712.975 205.530 C 710.453 208.569, 713.378 211.838, 722.411 216.071 C 737.430 223.109, 748.008 224.700, 749.456 220.139 C 750.731 216.121, 748.432 214.280, 736.500 209.764 C 720.794 203.820, 715.226 202.818, 712.975 205.530 M 831 208.661 C 825.775 210.604, 819.304 212.930, 816.621 213.829 C 808.917 216.411, 806.897 221.723, 812.832 223.792 C 818.125 225.637, 844.036 215.647, 847.442 210.448 C 851.587 204.123, 845.097 203.418, 831 208.661 M 775.736 219.250 C 773.689 220.805, 771.874 225.509, 772.596 227.390 C 772.893 228.164, 772.656 229.095, 772.068 229.458 C 770.556 230.393, 770.744 236.451, 772.409 240.436 C 775.444 247.701, 781.219 245.389, 782.572 236.367 C 783.932 227.299, 781.617 218, 778 218 C 777.660 218, 776.642 218.563, 775.736 219.250 M 847 232.589 C 833.615 237.346, 828.776 253.011, 837.879 262.114 C 849.160 273.395, 869.101 267.177, 872.452 251.334 C 873.855 244.701, 869.758 237.444, 862.228 233.228 C 858.477 231.128, 851.891 230.851, 847 232.589 M 698.352 235.033 C 691.729 237.077, 686.041 247.074, 687.395 254.292 C 689.623 266.168, 703.747 272.225, 714.753 266.024 C 719.495 263.353, 724 255.847, 724 250.619 C 724 246.041, 720.275 239.333, 716.404 236.941 C 712.456 234.500, 703.235 233.526, 698.352 235.033 M 847.635 244.073 C 845.888 245.447, 845 247.107, 845 249 C 845 252.358, 848.996 256, 852.680 256 C 854.006 256, 856.239 254.852, 857.641 253.450 C 860.600 250.491, 860.287 246.661, 856.847 243.750 C 854.100 241.426, 850.855 241.540, 847.635 244.073 M 704.500 243.788 C 699.154 244.907, 697.192 251.192, 701 255 C 705.122 259.122, 712 256.038, 712 250.068 C 712 246.669, 707.748 243.109, 704.500 243.788 M 773 253.902 C 772.175 254.365, 769.715 255.065, 767.534 255.458 C 755.964 257.541, 751.551 269.216, 759.354 277.101 C 761.084 278.849, 764.075 280.779, 766 281.390 L 769.500 282.500 769.782 293.689 L 770.064 304.878 765.619 307.483 C 759.734 310.932, 753 318.317, 753 321.323 C 753 324.156, 755.862 327, 758.714 327 C 759.845 327, 763.227 324.978, 766.229 322.506 C 774.969 315.311, 778.843 315.444, 790.269 323.334 C 795.594 327.010, 796.233 327.214, 798.546 325.975 C 803.214 323.477, 802.478 317.562, 796.845 312.316 C 794.455 310.090, 784.422 305.027, 782.367 305.010 C 780.649 304.995, 780.028 301.411, 780.025 291.500 L 780.022 282.500 785.225 280.500 C 792.278 277.788, 797.461 271.226, 796.624 266.068 C 796.309 264.131, 795.211 261.411, 794.183 260.023 C 790.666 255.275, 777.392 251.439, 773 253.902 M 459.071 284.752 C 452.019 288.348, 448.077 295.930, 448.024 306.002 C 448.001 310.316, 447.811 310.604, 443.448 312.918 C 440.945 314.246, 436.702 317.734, 434.020 320.669 C 425.993 329.451, 421.925 340.215, 420.287 357 C 419.358 366.513, 419.363 367.649, 420.400 388 C 421.232 404.322, 420.462 408.548, 415.273 416.121 C 409.580 424.431, 407.800 428.959, 407.800 435.126 C 407.800 442.018, 410.098 446.412, 415.746 450.320 C 424.230 456.191, 441.573 459.554, 458.791 458.668 C 471.566 458.010, 471.483 457.960, 472.117 466.744 C 472.390 470.517, 472.038 471.160, 467.456 475.284 C 451.682 489.480, 445.564 530.159, 454.101 564.082 C 459.989 587.477, 469.226 604.410, 484.401 619.627 C 494.863 630.117, 500.952 634.031, 514.610 639.047 C 527.142 643.649, 531.536 644.249, 548.750 643.712 C 557.688 643.434, 565.001 643.497, 565.003 643.853 C 565.005 644.209, 564.114 648.325, 563.024 653 C 552.362 698.698, 550.336 732.247, 556.046 768.500 C 557.831 779.834, 566.533 808.288, 570.696 816.404 C 572.705 820.320, 581.921 834.490, 591.042 847.688 C 599.839 860.415, 602.929 866.188, 607.312 878.084 C 612.681 892.655, 614.597 899.511, 616.930 912.500 C 620.392 931.781, 624.014 949.931, 626.011 958 C 627.727 964.935, 631.862 986.350, 632.556 991.895 C 632.721 993.213, 633.554 997.263, 634.407 1000.895 C 635.260 1004.528, 636.892 1011.550, 638.032 1016.500 C 639.173 1021.450, 641.426 1030.900, 643.039 1037.500 C 646.593 1052.043, 649 1065.774, 649 1071.510 C 649 1076.051, 647.976 1076.908, 640.500 1078.617 C 636.804 1079.462, 627.974 1083.683, 622.130 1087.399 C 615.885 1091.369, 612.082 1095.579, 609.349 1101.550 C 606.410 1107.969, 606.291 1108, 584.395 1108 C 566.296 1108, 540.327 1109.548, 532.327 1111.104 C 525.792 1112.375, 523.935 1114.269, 527.183 1116.352 C 532.705 1119.892, 538.054 1120.457, 566.500 1120.503 C 589.704 1120.540, 596.042 1120.865, 603.500 1122.398 C 610.775 1123.893, 617.483 1124.272, 638.500 1124.374 C 668.430 1124.519, 695.700 1123.396, 708.130 1121.507 C 714.643 1120.517, 720.529 1120.421, 732.130 1121.116 C 744.746 1121.872, 750.367 1121.720, 763.500 1120.268 C 772.300 1119.296, 782.650 1118.544, 786.500 1118.597 C 808.825 1118.908, 827.646 1119.651, 828.624 1120.261 C 829.242 1120.647, 836.217 1121.435, 844.124 1122.013 C 852.031 1122.590, 863.675 1123.714, 870 1124.511 C 878.994 1125.643, 889.780 1125.846, 919.500 1125.440 C 978.043 1124.640, 994.776 1124.308, 1017.500 1123.492 C 1029.050 1123.077, 1054.475 1122.621, 1074 1122.478 C 1097.902 1122.303, 1111.134 1121.815, 1114.500 1120.986 C 1117.250 1120.309, 1125.800 1119.652, 1133.500 1119.526 C 1148.334 1119.284, 1158.366 1118.308, 1161.250 1116.828 C 1163.317 1115.767, 1163.549 1112.700, 1161.680 1111.149 C 1159.863 1109.641, 1136.824 1108.005, 1117.357 1108.002 C 1103.561 1108, 1101.126 1107.770, 1100.607 1106.418 C 1099.712 1104.085, 1099.636 1104.187, 1104.549 1101.071 C 1109.348 1098.028, 1111.339 1096.112, 1117.166 1088.929 C 1122.076 1082.877, 1124.411 1077.946, 1127.594 1066.905 C 1130.064 1058.340, 1130.299 1056.071, 1130.220 1041.500 C 1130.172 1032.700, 1129.607 1023.250, 1128.964 1020.500 C 1128.321 1017.750, 1127.569 1013.959, 1127.292 1012.076 C 1126.083 1003.832, 1111.329 962.074, 1106.686 953.751 C 1104.768 950.313, 1099.103 939.468, 1094.098 929.652 C 1089.092 919.836, 1084.144 910.607, 1083.102 909.143 C 1082.060 907.679, 1080.673 904.499, 1080.020 902.075 C 1079.368 899.651, 1076.378 893.007, 1073.377 887.311 C 1070.376 881.614, 1066.542 873.476, 1064.857 869.227 C 1063.172 864.977, 1059.984 857.675, 1057.772 853 C 1055.559 848.325, 1051.817 839.775, 1049.454 834 C 1047.092 828.225, 1043.557 819.675, 1041.598 815 C 1039.639 810.325, 1038.028 805.013, 1038.018 803.196 C 1038.008 801.379, 1039.982 792.154, 1042.404 782.696 C 1044.827 773.238, 1047.104 763.025, 1047.464 760 C 1047.825 756.975, 1048.516 751.800, 1048.999 748.500 C 1052.064 727.571, 1052.964 699.392, 1051.601 667 C 1050.883 649.944, 1049.402 637.876, 1044.975 613 C 1043.360 603.925, 1041.339 592, 1040.484 586.500 C 1039.629 581, 1038.033 572.450, 1036.939 567.500 C 1035.844 562.550, 1034.240 555.125, 1033.375 551 C 1030.966 539.513, 1026.159 522.177, 1023.533 515.500 C 1020.182 506.980, 1015.767 493.646, 1011.117 478 C 1000.478 442.206, 990.383 418.749, 976.906 398.500 C 964.429 379.755, 959.281 366.119, 963.200 362.200 C 964.833 360.567, 971.934 360.747, 975 362.500 C 978.466 364.481, 982.379 364.343, 984.345 362.171 C 986.383 359.919, 986.412 358.698, 984.515 355.029 C 982.423 350.983, 968.837 345.683, 962.966 346.621 C 958.713 347.301, 954 350.315, 954 352.353 C 954 353.018, 952.757 354.031, 951.238 354.604 C 949.073 355.421, 948.101 356.838, 946.738 361.161 C 945.782 364.194, 945 368.596, 945 370.944 C 945 380.446, 950.007 393.460, 958.874 407 C 964.407 415.450, 972.124 431.486, 975.465 441.475 C 976.381 444.212, 977.492 446.912, 977.936 447.475 C 979.096 448.949, 985.579 468.179, 987.889 477 C 990.710 487.771, 1000.744 522.379, 1003.103 529.476 C 1004.205 532.789, 1005.495 537.300, 1005.970 539.500 C 1007.396 546.107, 1007.826 548.032, 1010.433 559.500 C 1014.042 575.369, 1017.785 595.260, 1018.902 604.500 C 1019.433 608.900, 1020.143 613.625, 1020.478 615 C 1020.813 616.375, 1021.776 623.350, 1022.618 630.500 C 1023.461 637.650, 1024.325 644.625, 1024.540 646 C 1025.652 653.121, 1027.588 690.121, 1027.418 701 C 1027.177 716.422, 1025.830 729.479, 1021.434 759 C 1020.071 768.151, 1010.376 805.274, 1006.610 815.764 C 1005.768 818.109, 1005.075 820.253, 1005.071 820.528 C 1005.067 820.803, 1004.208 822.934, 1003.162 825.264 C 1001.072 829.919, 1001.233 830.075, 999.543 821.750 C 999.292 820.513, 998.442 818.618, 997.653 817.540 C 996.464 815.914, 995.816 815.764, 993.860 816.661 C 991.966 817.529, 990.759 820.086, 987.743 829.621 C 984.510 839.847, 982.986 845.165, 980.327 855.500 C 980.044 856.600, 979.849 858.400, 979.894 859.500 C 979.939 860.600, 979.113 864.425, 978.058 868 C 977.003 871.575, 975.843 876.300, 975.478 878.500 C 975.114 880.700, 973.767 887.900, 972.484 894.500 C 971.201 901.100, 969.620 910.100, 968.970 914.500 C 968.320 918.900, 967.599 923.400, 967.367 924.500 C 966.310 929.528, 963.786 946.594, 962.488 957.500 C 959.919 979.076, 959.092 986.410, 958.543 992.500 C 957.973 998.808, 957.531 1002.709, 955.994 1015 C 954.044 1030.586, 952.065 1049.999, 950.999 1064 C 950.392 1071.975, 949.718 1080.300, 949.501 1082.500 C 949.284 1084.700, 948.825 1089.650, 948.481 1093.500 C 947.701 1102.225, 945.733 1106.597, 942.179 1107.497 C 937.672 1108.638, 884.118 1109, 883.435 1107.894 C 881.696 1105.081, 894.379 1097.238, 915.686 1087.951 C 917.988 1086.947, 920.645 1084.945, 921.591 1083.502 C 923.157 1081.112, 923.200 1079.829, 922.080 1069.188 C 920.577 1054.906, 919.859 1050.388, 915.461 1027.500 C 913.558 1017.600, 911.507 1006.800, 910.903 1003.500 C 907.649 985.732, 899.365 952.231, 896.167 943.911 C 894.988 940.844, 889.521 936, 887.239 936 C 886.355 936, 883.677 935.054, 881.288 933.898 C 876.420 931.541, 874.903 931.602, 859.500 934.775 C 854 935.908, 847.700 937.099, 845.500 937.422 C 843.300 937.746, 840.375 938.223, 839 938.482 C 827.490 940.654, 779.575 940.990, 769 938.973 C 765.425 938.292, 761.375 937.627, 760 937.497 C 756.494 937.165, 752.431 936.119, 745.693 933.815 C 742.500 932.723, 739.244 932.076, 738.459 932.378 C 737.670 932.680, 736.593 932.108, 736.053 931.100 C 735.516 930.096, 733.712 928.709, 732.044 928.018 C 729.467 926.951, 728.629 927.013, 726.460 928.434 C 725.057 929.353, 723.423 931.319, 722.830 932.803 C 722.237 934.286, 721.366 936.400, 720.896 937.500 C 718.447 943.234, 712.166 971.465, 710.440 984.500 C 710.294 985.600, 709.629 989.650, 708.962 993.500 C 708.295 997.350, 707.625 1006.575, 707.473 1014 C 707.321 1021.425, 706.721 1029.549, 706.138 1032.054 C 705.556 1034.559, 704.840 1039.509, 704.548 1043.054 C 704.255 1046.599, 703.586 1052.875, 703.060 1057 C 702.534 1061.125, 701.855 1067.425, 701.551 1071 C 700.225 1086.596, 699.808 1089.899, 698.298 1096.752 C 697.419 1100.740, 696.109 1104.495, 695.385 1105.095 C 694.662 1105.695, 689.667 1106.386, 684.285 1106.631 C 669.189 1107.318, 628.648 1107.762, 627.275 1107.256 C 626.335 1106.910, 626.385 1106.157, 627.489 1104.022 C 630.408 1098.377, 639.492 1092.641, 650.543 1089.464 C 664.821 1085.358, 673.032 1079.828, 671.591 1075.288 C 671.275 1074.292, 670.782 1071.123, 670.496 1068.244 C 670.209 1065.366, 668.831 1056.371, 667.433 1048.256 C 666.036 1040.140, 664.468 1030.800, 663.949 1027.500 C 663.430 1024.200, 661.852 1016.100, 660.441 1009.500 C 657.744 996.879, 656.068 988.716, 653.461 975.500 C 652.593 971.100, 650.789 962.775, 649.453 957 C 648.117 951.225, 646.813 944.800, 646.554 942.723 C 646.296 940.646, 645.841 938.551, 645.543 938.069 C 645.245 937.587, 643.877 931.411, 642.503 924.346 C 639.981 911.374, 635.067 892.445, 632.547 886 C 624.195 864.635, 617.937 852.006, 611.396 843.317 C 610.078 841.566, 609 839.653, 609 839.067 C 609 838.480, 608.170 837.170, 607.156 836.156 C 605.391 834.391, 601.540 827.958, 592.216 811.199 C 585.642 799.382, 579.566 782.501, 577.568 770.500 C 573.621 746.796, 572.451 727.450, 574.089 713 C 575.900 697.020, 577.100 688.498, 579.016 678 C 580.070 672.225, 581.161 666.150, 581.441 664.500 C 582.714 656.981, 584.170 650.503, 587.508 637.500 C 589.485 629.800, 591.499 621.674, 591.985 619.442 C 592.470 617.210, 593.349 614.285, 593.938 612.942 C 594.527 611.599, 596.773 603.525, 598.930 595 C 601.087 586.475, 603.944 575.900, 605.278 571.500 C 606.611 567.100, 608.482 560.125, 609.434 556 C 610.386 551.875, 611.341 547.933, 611.555 547.240 C 612.253 544.985, 612.352 544.591, 614.118 537 C 615.998 528.927, 615.273 524.869, 611.833 524.206 C 608.100 523.487, 604.823 529.320, 596.929 550.736 C 594.139 558.306, 589.924 569.450, 587.564 575.500 C 576.291 604.389, 573.168 612.741, 572.551 615.654 C 571.979 618.357, 571.174 619.040, 566.920 620.431 C 560.196 622.631, 548.866 623.957, 541.076 623.455 C 533.512 622.969, 518.147 619.332, 516 617.521 C 515.175 616.825, 512.925 615.522, 511 614.627 C 505.280 611.965, 492.577 599.585, 487.025 591.261 C 479.803 580.433, 475.476 571.020, 472.150 558.898 C 467.413 541.637, 466.890 538.908, 466.286 528.312 C 465.765 519.157, 466.050 515.722, 468.636 500 C 469.730 493.347, 473.606 484.675, 476.698 481.960 C 484.429 475.173, 501.328 473.237, 506.624 478.533 C 510.234 482.143, 508.831 483.679, 501.185 484.490 C 488.208 485.866, 482.292 490.524, 488.422 494.541 C 490.534 495.925, 491.853 495.973, 498.762 494.915 C 507.729 493.542, 511.451 494.106, 513.041 497.076 C 514.787 500.340, 512.850 501.544, 502.749 503.473 C 492.810 505.371, 491.500 505.979, 490.693 509.065 C 490.331 510.450, 490.931 511.564, 492.643 512.686 C 494.823 514.114, 496.253 514.167, 504.679 513.131 C 514.848 511.881, 517 512.391, 517 516.050 C 517 518.831, 512.467 521.764, 506.189 523.045 C 503.060 523.683, 499.600 524.581, 498.500 525.040 C 497.400 525.499, 495.507 526.152, 494.294 526.491 C 493.081 526.830, 490.890 528.531, 489.425 530.271 C 486.985 533.171, 486.802 533.990, 487.237 540.070 C 488.167 553.059, 495.041 561.112, 506.415 562.533 C 512.057 563.238, 516.872 561.805, 521.808 557.953 C 524.542 555.820, 529 548.574, 529 546.265 C 529 544.540, 529.725 544.668, 532.947 546.963 C 536.665 549.610, 544.366 551.218, 550.274 550.580 C 556.494 549.909, 563.360 546.141, 572.343 538.467 C 581.974 530.239, 586.051 525.287, 597.407 508.019 C 601.308 502.087, 605.361 495.719, 606.414 493.867 C 615.553 477.785, 628.018 450.703, 632.357 437.500 C 635.792 427.049, 642.407 407.700, 644.494 402 C 645.400 399.525, 647.152 396.375, 648.388 395 C 652.075 390.897, 654.337 384.608, 653.578 380.566 C 652.486 374.744, 645.768 372.399, 638.672 375.364 C 634.485 377.113, 632.411 380.345, 631.144 387.093 C 630.586 390.067, 628.585 397, 626.699 402.500 C 624.813 408, 621.835 417.225, 620.082 423 C 615.839 436.975, 615.176 438.602, 605.202 459.500 C 590.934 489.397, 576.865 511.265, 563.500 524.320 C 555.903 531.740, 548.164 534.349, 541.726 531.659 C 535.977 529.257, 528.002 515.151, 526.372 504.500 C 526.119 502.850, 525.685 500.028, 525.407 498.229 C 525.129 496.429, 523.517 493.380, 521.824 491.452 C 519.222 488.489, 518.837 487.392, 519.331 484.350 C 520.029 480.046, 517.320 474.025, 513.459 471.301 C 507.183 466.873, 507.065 466.681, 506.386 459.750 C 505.725 453.010, 505.727 453, 508.272 453 C 512.276 453, 528.014 447.523, 536.646 443.126 C 549.735 436.459, 555.929 428.798, 555.978 419.218 C 556.012 412.689, 553.637 408.335, 545.929 400.794 C 538.046 393.081, 536.327 389.778, 533.030 376 C 526.610 349.171, 523.613 338.554, 520.839 332.814 C 517.443 325.789, 511.810 317.662, 508 314.291 C 504.281 311.001, 493.371 306.013, 488.406 305.332 C 483.809 304.702, 483.672 304.521, 482.516 297.500 C 480.618 285.980, 469.025 279.676, 459.071 284.752 M 391.500 288.850 C 387.414 291.359, 380.567 298.967, 378.175 303.657 C 375.461 308.976, 372 319.787, 372 322.943 C 372 325.688, 374.465 330, 376.034 330 C 377.692 330, 380.044 325.356, 381.672 318.870 C 383.549 311.392, 389.484 299.139, 393.923 293.579 C 398.397 287.974, 397.088 285.419, 391.500 288.850 M 460.982 293.814 C 459.336 295.146, 458.606 297.045, 458.228 300.975 C 457.788 305.555, 457.941 306.237, 459.290 305.719 C 460.156 305.387, 463.605 304.805, 466.955 304.426 C 470.304 304.047, 473.280 303.356, 473.567 302.891 C 474.544 301.311, 471.940 294.038, 470.032 293.017 C 467.146 291.473, 463.474 291.796, 460.982 293.814 M 404.750 308.036 C 398.095 315.643, 393.529 330.688, 396.265 335.991 C 398.540 340.401, 404 339.396, 404 334.568 C 404 330.967, 408.089 315.884, 410.622 310.142 C 414.493 301.366, 411.518 300.299, 404.750 308.036 M 463.500 316.405 C 450.875 319.524, 441.614 326.334, 437.534 335.500 C 432.866 345.986, 432.527 348.943, 432.480 379.500 C 432.432 411.211, 432.473 410.950, 426.123 419.686 C 416.818 432.487, 418.264 440.949, 430.342 444.375 C 438.956 446.818, 458.007 449.187, 463.249 448.466 L 468.080 447.801 467.633 444.151 C 467.387 442.143, 466.851 437.650, 466.442 434.167 L 465.698 427.834 462.223 428.486 C 460.311 428.845, 454.867 430.295, 450.124 431.710 C 437.898 435.356, 436.248 435.534, 433.946 433.452 C 431.701 431.420, 432.104 428.732, 435.156 425.392 C 437.575 422.744, 447.839 418.737, 459.349 415.947 C 468.787 413.659, 470.421 413.372, 479 412.492 C 482.025 412.181, 485.619 411.683, 486.987 411.385 C 492.455 410.193, 517.840 411.032, 522.135 412.548 C 529.598 415.181, 531.583 418.324, 528.423 422.500 C 527.020 424.354, 525.951 424.476, 513.816 424.167 L 500.723 423.834 501.355 426.167 C 501.703 427.450, 502.491 431.425, 503.107 435 C 503.723 438.575, 504.574 441.876, 504.998 442.335 C 505.422 442.794, 509.227 442.199, 513.453 441.013 C 535.825 434.736, 547.070 425.230, 543.566 415.557 C 542.980 413.939, 538.976 409.214, 534.668 405.057 C 530.361 400.901, 526.168 396.226, 525.351 394.669 C 522.911 390.022, 520.307 380.977, 517.044 365.816 C 511.817 341.532, 508.838 333.726, 501.518 325.130 C 494.226 316.568, 477.956 312.834, 463.500 316.405 M 923.861 343.918 C 921.655 345.709, 921.504 346.497, 921.558 355.876 C 921.621 366.664, 922.790 370.450, 926.344 371.380 C 934.337 373.470, 936.413 366.439, 932.803 349.500 C 932.217 346.750, 931.292 343.938, 930.747 343.250 C 929.316 341.446, 926.576 341.712, 923.861 343.918 M 444.216 344.239 C 442.222 346.643, 440.992 364.688, 442.092 375.417 C 442.651 380.871, 443.550 386.159, 444.089 387.167 C 445.390 389.597, 448.209 389.496, 449.791 386.962 C 450.829 385.302, 450.772 382.263, 449.487 370.531 C 448.619 362.614, 448.042 353.309, 448.205 349.853 C 448.444 344.755, 448.200 343.508, 446.908 343.242 C 446.032 343.062, 444.821 343.510, 444.216 344.239 M 625.500 357.176 C 613.574 361.328, 607.474 365.687, 605.808 371.245 C 604.691 374.976, 604.769 375.395, 606.913 377.131 C 608.183 378.159, 610.311 379, 611.642 379 C 613.960 379, 624.292 375.861, 627.816 374.086 C 628.742 373.620, 631.645 372.249, 634.266 371.041 C 640.290 368.264, 645 364.334, 645 362.085 C 645 361.130, 643.987 359.458, 642.750 358.370 C 640.158 356.091, 630.530 355.424, 625.500 357.176 M 876.523 357.974 C 871.954 363.023, 874.200 383.767, 879.582 386.219 C 881.714 387.191, 882.404 387.040, 884.243 385.202 C 886.563 382.881, 886.979 379.049, 885.800 370.851 C 884.649 362.848, 883.003 358.072, 881.032 357.017 C 878.551 355.689, 878.601 355.679, 876.523 357.974 M 783.025 359.975 C 780.199 362.801, 779.482 366.293, 779.634 376.500 C 779.841 390.373, 781.583 395, 786.598 395 C 790.739 395, 792.006 391.567, 791.940 380.527 C 791.863 367.580, 790.812 361.327, 788.404 359.505 C 785.886 357.599, 785.355 357.645, 783.025 359.975 M 674.030 361.298 C 670.827 362.894, 669.859 367.384, 670.555 377.408 C 671.235 387.195, 672.984 391.707, 676.432 392.572 C 682.549 394.108, 684.452 390.172, 683.477 378 C 682.343 363.833, 679.395 358.623, 674.030 361.298 M 707.825 362.038 C 704.063 364.233, 702.231 377.421, 704.358 387 C 706.308 395.781, 708.525 400.643, 711.456 402.563 C 714.705 404.692, 717.197 404.075, 718.792 400.747 C 719.907 398.423, 719.788 396.351, 717.991 386.759 C 716.831 380.567, 715.478 372.808, 714.984 369.518 C 714.427 365.809, 713.427 363.054, 712.352 362.268 C 710.306 360.772, 710.020 360.758, 707.825 362.038 M 812.571 390.571 C 811.707 391.436, 810.966 392.448, 810.923 392.821 C 810.881 393.195, 810.669 394.400, 810.450 395.500 C 810.232 396.600, 809.759 402.225, 809.398 408 C 808.686 419.401, 810.011 428.869, 812.696 431.554 C 814.949 433.806, 819.212 432.980, 820.712 430 C 822.360 426.726, 822.297 408.747, 820.604 399.291 C 818.856 389.526, 816.344 386.799, 812.571 390.571 M 923.463 396.041 C 921.779 397.902, 921.726 398.627, 922.862 404.291 C 926.255 421.208, 929.535 427.417, 934.763 426.815 C 937.224 426.532, 937.532 426.058, 937.814 422.120 C 938.262 415.867, 932.617 398.631, 929.255 395.986 C 926.115 393.516, 925.745 393.520, 923.463 396.041 M 890.599 406.304 C 889.200 407.327, 888.631 409.856, 887.952 418.054 C 886.031 441.257, 887.109 451.715, 891.734 454.745 C 895.472 457.195, 898.575 454.941, 900.075 448.686 C 902.398 439.004, 899.535 410.535, 895.870 406.870 C 893.652 404.652, 892.959 404.578, 890.599 406.304 M 850.815 409.250 C 849.953 409.938, 848.517 412.718, 847.624 415.428 C 845.637 421.457, 845.425 438.302, 847.290 442 C 848.787 444.970, 851.749 445.635, 854.507 443.620 C 856.327 442.290, 856.520 440.840, 856.736 426.895 C 856.937 413.921, 856.726 411.354, 855.331 409.813 C 853.386 407.664, 852.882 407.602, 850.815 409.250 M 666.601 419.308 C 663.480 422.429, 657.585 440.205, 658.481 443.794 C 659.967 449.749, 664.748 451.868, 667.406 447.750 C 669.143 445.059, 674 426.729, 674 422.867 C 674 420.175, 671.772 417, 669.883 417 C 669.347 417, 667.870 418.039, 666.601 419.308 M 478.958 426.227 C 477.501 426.754, 477.090 427.578, 477.460 429.227 C 477.740 430.477, 478.658 436.675, 479.499 443 C 480.341 449.325, 481.520 457.029, 482.119 460.121 L 483.209 465.742 486.855 464.895 C 488.860 464.429, 491.993 464.037, 493.817 464.024 C 496.507 464.005, 497.034 463.669, 496.604 462.250 C 496.130 460.688, 494.043 449.521, 490.810 431.251 L 489.705 425.003 485.335 425.251 C 482.931 425.388, 480.061 425.827, 478.958 426.227 M 735.204 436.255 C 732.419 439.610, 730.446 473.577, 732.795 477.738 C 734.690 481.096, 738.708 481.737, 741.341 479.101 C 743.395 477.044, 743.500 476.054, 743.500 458.674 C 743.500 442.871, 743.261 440.044, 741.727 437.704 C 739.843 434.831, 736.924 434.182, 735.204 436.255 M 959.229 455.771 C 957.657 457.343, 957.196 459.741, 956.667 469.094 C 955.721 485.808, 957.209 492.232, 962.161 492.807 C 966.717 493.336, 967.776 490.418, 967.833 477.183 C 967.889 464.019, 966.523 457.388, 963.323 455.284 C 961.382 454.008, 960.939 454.061, 959.229 455.771 M 762.445 461.089 C 761.017 463.400, 759.023 472.712, 759.012 477.125 C 758.993 484.290, 760.064 487.996, 762.639 489.683 C 764.776 491.083, 765.232 491.078, 767.453 489.623 C 768.892 488.680, 770.164 486.642, 770.529 484.695 C 771.341 480.368, 769.416 463.207, 767.917 461.400 C 766.535 459.735, 763.392 459.556, 762.445 461.089 M 805.841 465.029 C 803.496 466.398, 801.648 478.437, 802.403 487.422 C 803.296 498.040, 805.423 504.416, 808.547 505.839 C 811.578 507.221, 814.538 506.030, 815.484 503.049 C 816.318 500.421, 815.328 481.961, 813.953 474.500 C 812.260 465.317, 809.956 462.627, 805.841 465.029 M 640.811 471.706 C 636.070 477.095, 630.205 495.113, 631.715 499.651 C 632.848 503.056, 637.107 504.986, 639.360 503.116 C 640.854 501.876, 643.288 494.547, 646.631 481.224 C 647.988 475.816, 648.179 473.505, 647.376 472.224 C 645.871 469.822, 642.690 469.571, 640.811 471.706 M 688.220 473.235 C 685.272 476.787, 683.901 483.006, 683.311 495.500 C 682.772 506.896, 684.280 512.259, 688.570 514.214 C 690.700 515.184, 691.397 515.047, 693.125 513.320 C 694.980 511.464, 695.201 509.752, 695.570 494.390 C 696.004 476.316, 695.336 472.773, 691.387 472.202 C 690.253 472.038, 688.828 472.502, 688.220 473.235 M 870.419 479.484 C 869.076 481.533, 868.760 485.323, 868.615 501.132 C 868.429 521.324, 868.767 523, 873.032 523 C 879.164 523, 881.997 510.549, 880.071 492.062 C 878.927 481.081, 877.282 477, 874 477 C 872.925 477, 871.314 478.118, 870.419 479.484 M 935.820 486.750 C 934.055 488.823, 933.589 493.926, 933.538 511.714 C 933.506 522.891, 933.764 525.193, 935.213 526.642 C 937.677 529.105, 941.664 527.048, 943.654 522.286 C 945.246 518.476, 945.821 501.875, 944.589 495.301 C 942.858 486.065, 939.332 482.626, 935.820 486.750 M 902.206 493.048 C 899.470 494.146, 897.317 498.883, 896.501 505.603 C 896.174 508.296, 895.635 511.850, 895.303 513.500 C 894.972 515.150, 894.564 517.400, 894.397 518.500 C 894.231 519.600, 893.813 522.300, 893.469 524.500 C 893.126 526.700, 891.676 531.989, 890.248 536.253 C 885.869 549.328, 877.589 555.839, 859.923 560.095 C 855.290 561.211, 850.375 562.285, 849 562.482 C 847.625 562.679, 841.775 563.516, 836 564.341 C 830.225 565.166, 820.325 566.365, 814 567.004 C 807.675 567.643, 799.575 568.792, 796 569.559 C 782.186 572.521, 773.475 573.260, 766.328 572.076 C 762.573 571.454, 757.700 570.783, 755.500 570.585 C 753.300 570.386, 750.825 569.959, 750 569.634 C 749.175 569.310, 746.925 568.819, 745 568.545 C 743.075 568.271, 739.250 567.611, 736.500 567.078 C 727.981 565.429, 706.959 564.715, 700.500 565.854 C 691.046 567.522, 690.611 567.656, 682.851 571.269 C 670.325 577.100, 660.632 588.718, 659.390 599.390 C 657.368 616.750, 667.889 630.951, 686.927 636.560 C 692.214 638.118, 714.382 642.614, 721 643.471 C 729.578 644.582, 745.563 648.217, 758.500 652.001 C 765.650 654.091, 776.450 657.016, 782.500 658.500 C 788.550 659.983, 795.075 661.583, 797 662.054 C 798.925 662.525, 801.850 663.190, 803.500 663.531 C 805.150 663.872, 807.400 664.565, 808.500 665.072 C 809.600 665.578, 814.775 667.293, 820 668.883 C 825.225 670.472, 832.004 672.698, 835.064 673.830 C 840.048 675.672, 865.166 681.072, 875.500 682.522 C 877.700 682.831, 886.250 683.293, 894.500 683.550 C 908.339 683.980, 914.660 683.450, 930.500 680.532 C 953.429 676.309, 975.608 663.530, 984.650 649.332 C 985.642 647.775, 986.704 646.275, 987.010 646 C 987.316 645.725, 989.183 643.250, 991.160 640.500 C 1000.951 626.877, 1007.003 607.586, 1007.343 588.909 C 1007.508 579.905, 1006.456 577, 1003.033 577 C 1000.323 577, 998.526 579.819, 995.079 589.474 C 986.773 612.743, 978.663 626.987, 966.861 639.037 C 960.899 645.123, 956.491 648.610, 951.500 651.184 C 944.837 654.622, 936.839 657.729, 932.500 658.566 C 931.400 658.778, 928.475 659.394, 926 659.936 C 913.050 662.770, 886.515 663.351, 874.500 661.063 C 871.750 660.539, 867.025 659.814, 864 659.452 C 857.614 658.687, 852.992 657.539, 836.410 652.601 C 829.760 650.620, 823.369 649, 822.207 649 C 821.045 649, 819.060 648.593, 817.797 648.096 C 814.019 646.610, 798.761 642.204, 795 641.514 C 793.075 641.160, 782.500 638.676, 771.500 635.992 C 747.427 630.120, 728.008 626.176, 720.231 625.580 C 717.079 625.338, 713.825 624.913, 713 624.636 C 712.175 624.359, 709.250 623.878, 706.500 623.568 C 698.206 622.633, 695.813 622.084, 688.255 619.387 C 678.211 615.802, 673.089 609.628, 677.986 607.008 C 679.803 606.035, 686.124 604.481, 691.772 603.617 C 694.734 603.165, 698 600.167, 698 597.902 C 698 593.660, 691.073 592.009, 681.250 593.909 C 678.913 594.361, 677 594.376, 677 593.942 C 677 592.268, 682.228 587.057, 686.268 584.705 C 694.773 579.753, 713.310 578.847, 731.500 582.495 C 735.350 583.267, 740.075 584.154, 742 584.467 C 743.925 584.779, 746.705 585.280, 748.179 585.581 C 749.652 585.882, 752.352 586.313, 754.179 586.540 C 756.005 586.766, 760.776 587.477, 764.780 588.118 C 771.202 589.147, 781.234 588.936, 789 587.609 C 790.375 587.374, 793.975 586.899, 797 586.553 C 800.025 586.208, 807.450 585.302, 813.500 584.540 C 819.550 583.778, 827.650 582.862, 831.500 582.504 C 841.407 581.584, 841.841 581.514, 858.625 578.134 C 876.490 574.535, 881.512 572.764, 889.787 567.144 C 900.304 560.002, 902.323 557.211, 907.220 543.039 C 909.928 535.202, 910.208 533.095, 910.622 517.411 C 911.085 499.832, 910.525 495.881, 907.211 493.363 C 905.214 491.847, 905.200 491.846, 902.206 493.048 M 976.636 518.850 C 975.703 519.880, 974.495 523.373, 973.952 526.612 C 972.607 534.626, 971.588 555.221, 972.380 558.378 C 973.304 562.058, 976.513 563.549, 979.416 561.647 C 983.054 559.263, 984.535 552.167, 984.246 538.500 C 983.946 524.256, 983.168 520.188, 980.397 518.348 C 978.591 517.148, 978.119 517.211, 976.636 518.850 M 651.745 525.750 C 647.929 530.015, 644.927 549.301, 646.924 556.717 C 648.647 563.118, 653.709 565.465, 657.067 561.420 C 657.758 560.586, 658.391 553.685, 658.692 543.692 C 659.125 529.340, 658.981 527.124, 657.521 525.664 C 655.389 523.532, 653.706 523.557, 651.745 525.750 M 514.027 531.962 C 513.216 532.475, 509.504 533.641, 505.777 534.555 C 499.320 536.137, 499 536.354, 499 539.157 C 499 542.832, 501.409 547.613, 503.945 548.970 C 507.144 550.683, 511.720 550.150, 514.420 547.750 C 517.421 545.083, 518.993 538.800, 517.797 534.250 C 516.889 530.796, 516.369 530.481, 514.027 531.962 M 930.815 572.250 C 929.953 572.938, 927.422 576.677, 925.190 580.561 C 922.959 584.444, 919.303 589.836, 917.066 592.542 C 912.381 598.213, 912.034 600.321, 915.424 602.542 C 917.644 603.997, 918.116 603.991, 921.038 602.480 C 922.793 601.573, 926.200 599.013, 928.610 596.792 C 932.215 593.469, 933.434 591.349, 935.495 584.825 C 938.437 575.513, 938.503 574.646, 936.429 572.571 C 934.532 570.675, 932.907 570.582, 930.815 572.250 M 963.251 595.750 C 962.167 596.712, 960.261 600.425, 959.015 604 C 957.770 607.575, 955.007 614.078, 952.875 618.452 C 948.812 626.789, 948.207 629.807, 950.200 631.800 C 955.409 637.009, 965.149 625.247, 969.461 608.540 C 971.394 601.054, 971.391 599.003, 969.443 596.223 C 967.568 593.545, 965.880 593.416, 963.251 595.750 M 609.309 629.624 C 605.410 631.272, 601.502 658.877, 603.915 667.733 C 605.836 674.785, 611.897 675.981, 613.896 669.702 C 615.280 665.355, 616.333 636.236, 615.242 632.500 C 614.392 629.590, 612.062 628.461, 609.309 629.624 M 906.959 642.357 C 896.211 646.467, 896 646.606, 896 649.580 C 896 653.378, 899.797 654.665, 906.715 653.214 C 913.648 651.760, 918.807 649.139, 921.295 645.806 C 922.844 643.732, 922.989 642.849, 922.067 641.125 C 920.493 638.184, 917.165 638.455, 906.959 642.357 M 1000.773 659.713 C 999.891 660.696, 998.879 663.300, 998.524 665.500 C 998.170 667.700, 997.471 671.525, 996.971 674 C 996.471 676.475, 995.845 680.975, 995.580 684 C 995.315 687.025, 994.801 692.680, 994.438 696.567 C 993.888 702.449, 994.060 703.917, 995.460 705.317 C 997.817 707.674, 1000.262 707.414, 1002.983 704.519 C 1008.236 698.926, 1011.157 669.820, 1007.248 662.003 C 1005.223 657.951, 1003.045 657.181, 1000.773 659.713 M 654.036 669.456 C 653.328 670.310, 652.377 674.494, 651.924 678.755 C 651.471 683.015, 650.620 690.100, 650.033 694.500 C 649.446 698.900, 648.942 706.514, 648.913 711.421 C 648.865 719.660, 649.080 720.653, 651.720 724.421 C 655.415 729.693, 659.473 730.516, 661.069 726.318 C 661.703 724.651, 662.213 713.521, 662.320 699.002 C 662.468 678.883, 662.230 673.963, 660.991 671.500 C 659.286 668.111, 655.963 667.135, 654.036 669.456 M 723.099 676.380 C 721.427 678.395, 717.999 697.939, 718.006 705.419 C 718.016 716.264, 720.388 721, 725.812 721 C 729.701 721, 730.200 718.762, 730.661 699.267 C 731 684.898, 730.793 679.914, 729.777 678 C 728.228 675.083, 724.855 674.264, 723.099 676.380 M 819.675 700.149 C 814.720 702.956, 811.788 719.886, 813.993 732.957 C 815.655 742.814, 819.432 746.329, 824.432 742.673 C 826.044 741.495, 826.271 739.467, 826.465 724.516 C 826.585 715.259, 826.408 706.342, 826.073 704.702 C 825.297 700.910, 822.210 698.713, 819.675 700.149 M 951.265 701.815 C 948.009 703.883, 942.321 728.986, 943.431 736.388 C 943.798 738.835, 944.726 741.358, 945.494 741.995 C 947.826 743.931, 951.276 742.711, 953.300 739.234 C 956.838 733.161, 959.507 704.907, 956.800 702.200 C 955.430 700.830, 953.073 700.666, 951.265 701.815 M 599.611 733.532 C 597.685 735.458, 596.985 739.361, 596.748 749.500 C 596.444 762.458, 599.044 773.318, 604.327 781.157 C 606.155 783.870, 607.232 784.500, 610.040 784.500 C 613.204 784.500, 613.527 784.225, 613.810 781.288 C 613.981 779.522, 612.985 773.447, 611.596 767.788 C 610.208 762.130, 608.590 753.243, 608.002 748.041 C 606.631 735.907, 606.160 734.156, 603.951 732.974 C 601.581 731.705, 601.416 731.727, 599.611 733.532 M 996.218 743.450 C 995.091 744.883, 993.769 749.141, 993.036 753.700 C 992.346 757.990, 991.591 762.400, 991.357 763.500 C 991.124 764.600, 990.055 770, 988.980 775.500 C 987.906 781, 986.508 787.882, 985.873 790.793 C 983.088 803.557, 992.326 804.762, 997.009 792.246 C 1001.399 780.512, 1003.278 770.042, 1003.391 756.671 C 1003.490 745.055, 1003.316 743.707, 1001.559 742.421 C 998.946 740.508, 998.458 740.603, 996.218 743.450 M 908.448 765.439 C 907.077 767.531, 905.796 772.316, 903.478 784 C 902.451 789.176, 901.799 800.061, 902.377 802.366 C 903.462 806.688, 909.603 806.478, 911.980 802.038 C 913.446 799.299, 917 780.630, 917 775.670 C 917 765.108, 912.328 759.518, 908.448 765.439 M 960.217 770.250 C 959.651 770.938, 957.610 776.675, 955.679 783 C 953.749 789.325, 951.457 796.173, 950.585 798.218 C 945.878 809.259, 952.723 815.865, 959.167 806.500 C 960.681 804.300, 962.656 800.475, 963.556 798 C 965.538 792.553, 967.997 780.636, 967.999 776.473 C 968.001 770.824, 963.020 766.842, 960.217 770.250 M 737.144 777.327 C 734.002 781.113, 732.872 786.486, 732.928 797.373 C 732.985 808.297, 733.538 811.868, 735.992 817.140 C 737.536 820.457, 741.099 822.421, 743.938 821.520 C 747.630 820.348, 748.245 816.689, 747.048 803 C 746.447 796.125, 745.768 788.091, 745.539 785.147 C 744.954 777.612, 740.416 773.384, 737.144 777.327 M 652.109 800.891 C 649.142 803.858, 648.614 811.391, 650.838 819 C 654.423 831.259, 658.307 838.189, 663.500 841.592 C 665.297 842.770, 666.346 842.885, 667.865 842.072 C 670.785 840.510, 671.305 837.657, 669.461 833.323 C 666.752 826.959, 661.934 811.815, 660.926 806.500 C 659.578 799.389, 655.931 797.069, 652.109 800.891 M 613.395 805.519 C 611.275 808.755, 611.901 812.660, 616.057 822.129 C 619.948 830.996, 626.237 839.759, 629.635 841.051 C 632.848 842.273, 636 840.660, 636 837.795 C 636 835.304, 630.376 822.420, 628.015 819.500 C 627.125 818.400, 625.328 815.025, 624.021 812 C 620.194 803.143, 616.449 800.859, 613.395 805.519 M 967.223 828.750 C 966.171 830.263, 963.584 835.902, 961.474 841.282 C 958.352 849.242, 957.814 851.571, 958.588 853.782 C 959.844 857.367, 963.438 857.876, 966.589 854.916 C 968.968 852.681, 975.585 837.251, 974.591 836.257 C 974.304 835.971, 974.497 834.941, 975.018 833.967 C 975.629 832.825, 975.582 831.099, 974.885 829.099 C 973.474 825.054, 969.907 824.891, 967.223 828.750 M 863.474 831.232 C 862.388 831.817, 861.358 832.408, 861.185 832.546 C 860.325 833.231, 858.087 845.430, 857.525 852.500 C 856.700 862.862, 858.252 874.980, 860.624 876.715 C 863.121 878.540, 865.692 878.308, 867.947 876.053 C 869.771 874.229, 869.872 872.854, 869.540 854.303 C 869.346 843.411, 869.145 833.953, 869.094 833.285 C 868.937 831.247, 865.667 830.052, 863.474 831.232 M 745 844.703 C 727.699 847.686, 719.873 851.905, 721.874 857.169 C 723.083 860.349, 728.611 863.664, 735.851 865.549 C 743.496 867.541, 747.308 867.382, 757.895 864.632 C 771.162 861.186, 777.012 856.521, 775.827 850.329 C 775.086 846.454, 755.537 842.887, 745 844.703 M 645.353 862.584 C 643.743 865.041, 643.772 865.517, 645.955 872.334 C 648.461 880.160, 652.347 888.499, 654.769 891.250 C 657.114 893.913, 661.805 893.522, 663.158 890.552 C 664.412 887.800, 662.598 882.258, 656.268 869.500 C 651.325 859.537, 648.516 857.757, 645.353 862.584 M 897.405 867.110 C 895.744 868.950, 895.516 870.710, 895.626 880.860 C 895.715 889.085, 896.351 894.736, 897.793 900.122 C 902.152 916.398, 906.124 921.877, 911.485 919.008 C 915.665 916.771, 915.663 912.516, 911.470 896 C 911.260 895.175, 909.897 888.875, 908.440 882 C 906.984 875.125, 905.154 868.487, 904.373 867.250 C 902.593 864.428, 899.876 864.373, 897.405 867.110 M 1029.503 870.083 C 1022.459 875.017, 1008.508 882.541, 1004.843 883.382 C 1002.349 883.954, 1002.082 884.589, 1000.482 893.746 C 999.545 899.111, 997.779 908.358, 996.558 914.295 C 995.337 920.233, 994.601 925.254, 994.924 925.453 C 995.916 926.066, 1006.170 924.006, 1012.500 921.922 C 1019.558 919.598, 1035 912.123, 1035 911.030 C 1035 910.613, 1036.738 909.068, 1038.861 907.596 C 1040.985 906.124, 1044.378 902.517, 1046.401 899.579 L 1050.080 894.238 1047.699 888.869 C 1043.158 878.631, 1036.709 866, 1036.022 866 C 1035.642 866, 1032.709 867.837, 1029.503 870.083 M 689.384 881.536 C 687.834 883.902, 687.837 884.493, 689.424 890.358 C 691.644 898.558, 695.631 905.407, 702.511 912.838 C 708.341 919.136, 712.806 921.236, 715.541 918.966 C 717.730 917.149, 717.323 914.555, 714 909.154 C 712.350 906.473, 711 904.040, 711 903.747 C 711 902.570, 701.483 886.252, 698.754 882.750 C 695.235 878.234, 691.837 877.793, 689.384 881.536 M 799.721 882.004 C 795.239 885.530, 795.259 891.573, 799.787 902.500 C 806.477 918.646, 823.039 932.402, 826.961 925.072 C 828.309 922.554, 828.021 921.866, 818.968 906 C 814.731 898.575, 810.081 890.154, 808.634 887.286 C 805.289 880.657, 803.091 879.354, 799.721 882.004 M 940.533 881.352 C 939.007 882.468, 938.520 884.876, 937.754 895.102 C 936.425 912.821, 937.224 929.485, 939.524 932.027 C 941.733 934.467, 944.230 934.551, 946.152 932.250 C 949.478 928.267, 949.910 925.242, 949.426 909.306 C 948.871 891.052, 947.691 883.018, 945.305 881.250 C 943.188 879.681, 942.807 879.690, 940.533 881.352 M 754.391 890.526 C 750.946 895.784, 755.229 908.665, 763.806 918.840 C 766.282 921.776, 769.825 924.902, 771.679 925.787 C 774.895 927.320, 775.148 927.297, 777.167 925.278 L 779.284 923.161 771.032 906.830 C 766.493 897.849, 762.068 889.938, 761.199 889.250 C 758.727 887.296, 756.196 887.771, 754.391 890.526 M 846.451 899.692 C 841.089 905.054, 851.777 928.149, 857.851 924.324 C 860.597 922.595, 860.349 920.155, 856.593 911.937 C 854.617 907.615, 853 903.417, 853 902.610 C 853 901.016, 850.383 898, 849 898 C 848.529 898, 847.382 898.761, 846.451 899.692 M 651.621 916.521 C 650.475 917.668, 650.002 919.951, 650.006 924.321 C 650.018 938.083, 657.671 953.599, 663.368 951.412 C 666.070 950.375, 666.318 946.501, 664.143 939.295 C 663.015 935.558, 661.461 929.996, 660.689 926.935 C 657.990 916.226, 655.163 912.980, 651.621 916.521 M 673.922 917.705 C 671.294 924.618, 678.703 944, 683.974 944 C 686.278 944, 688 941.989, 688 939.297 C 688 936.596, 682.160 918.076, 680.732 916.250 C 678.927 913.941, 675.037 914.772, 673.922 917.705 M 699.384 929.536 C 697.807 931.943, 697.844 932.356, 700.111 937.612 C 701.594 941.050, 703.570 943.786, 705.320 944.825 C 708.050 946.446, 708.204 946.423, 710.094 944.111 C 712.700 940.921, 711.148 935.325, 706.111 929.750 C 703.027 926.337, 701.512 926.289, 699.384 929.536 M 1072.268 943.250 C 1071.225 945.038, 1069.501 948.218, 1068.436 950.317 C 1066.087 954.948, 1051.286 970.457, 1048.316 971.400 C 1047.144 971.772, 1045.930 972.741, 1045.618 973.553 C 1045.306 974.365, 1044.027 975.472, 1042.776 976.013 C 1041.524 976.553, 1039.825 977.410, 1039 977.917 C 1036.528 979.435, 1027.867 983.129, 1022 985.167 C 1011.142 988.939, 1007.332 989.786, 996.029 990.938 C 989.721 991.582, 984.394 992.273, 984.192 992.475 C 983.208 993.459, 982.043 1001.193, 982.004 1007 C 981.980 1010.575, 981.329 1017.086, 980.557 1021.469 C 979.784 1025.852, 979.361 1029.775, 979.616 1030.188 C 979.871 1030.601, 983.700 1032.082, 988.125 1033.480 C 994.506 1035.495, 998.479 1036.055, 1007.335 1036.186 C 1018.294 1036.347, 1033.224 1034.083, 1035.450 1031.922 C 1035.972 1031.415, 1037.016 1031, 1037.770 1031 C 1040.853 1031, 1053.891 1024.695, 1059.453 1020.515 C 1073.677 1009.825, 1082.468 998.644, 1088.559 983.500 C 1089.444 981.300, 1090.569 978.737, 1091.059 977.804 C 1091.626 976.725, 1091.447 974.725, 1090.568 972.304 C 1088.908 967.733, 1075.187 940, 1074.586 940 C 1074.353 940, 1073.310 941.462, 1072.268 943.250 M 737.293 956.250 C 735.563 958.523, 731.597 980.621, 729.082 1002 C 728.467 1007.225, 727.036 1019.375, 725.902 1029 C 724.768 1038.625, 723.450 1048.300, 722.974 1050.500 C 721.036 1059.454, 716.526 1103.424, 717.401 1104.839 C 718.011 1105.827, 760.958 1105.762, 762.561 1104.771 C 764.027 1103.866, 771.140 1103.829, 821.183 1104.473 L 864.866 1105.035 866.612 1102.080 C 870.215 1095.980, 883.094 1087.034, 894.858 1082.460 C 898.905 1080.887, 902.440 1079.018, 902.712 1078.308 C 902.985 1077.598, 902.055 1071.500, 900.647 1064.758 C 899.239 1058.016, 896.767 1046.200, 895.154 1038.500 C 893.541 1030.800, 891.902 1022.250, 891.512 1019.500 C 891.122 1016.750, 890.419 1013.782, 889.949 1012.905 C 889.480 1012.028, 888.363 1006.853, 887.467 1001.405 C 886.572 995.957, 884.977 988.350, 883.925 984.500 C 880.771 972.967, 874.322 957.634, 871.965 956.065 C 870.069 954.802, 868.223 954.892, 856.655 956.809 C 834.983 960.401, 828.465 961.030, 806.500 961.645 C 787.181 962.187, 783.999 962.019, 766.744 959.546 C 756.429 958.067, 746.532 956.439, 744.751 955.929 C 740.383 954.676, 738.428 954.760, 737.293 956.250 M 928.273 962.704 C 926.100 966.017, 925.863 979.965, 927.708 996 C 929.324 1010.053, 930.405 1013, 933.943 1013 C 939.890 1013, 941.698 1007.654, 940.133 994.697 C 939.522 989.639, 938.520 981.225, 937.906 976 C 936.561 964.553, 934.901 960, 932.074 960 C 930.959 960, 929.248 961.217, 928.273 962.704 M 677.872 968.665 C 675.596 971.425, 676.245 989.781, 678.971 999.766 C 682.400 1012.327, 688.383 1017.259, 691.997 1010.506 C 693.028 1008.579, 692.859 1006.318, 691.015 997.340 C 689.791 991.378, 688.696 985.825, 688.582 985 C 687.469 976.941, 685.108 968.764, 683.605 967.765 C 681.749 966.531, 679.317 966.913, 677.872 968.665 M 973.593 1059.357 C 973.246 1061.203, 972.516 1070.091, 971.970 1079.107 C 971.423 1088.123, 970.700 1097.852, 970.363 1100.727 C 969.777 1105.721, 969.870 1106, 972.440 1106.977 C 973.920 1107.540, 979.488 1107.997, 984.815 1107.993 C 990.142 1107.990, 997.875 1108.482, 1002 1109.087 C 1011.578 1110.492, 1040.127 1109.139, 1040.753 1107.251 C 1040.980 1106.563, 1040.341 1105.719, 1039.333 1105.374 C 1033.733 1103.457, 1019.968 1096.164, 1013.500 1091.687 C 1002.309 1083.940, 986.930 1068.565, 980.556 1058.750 C 979.471 1057.080, 977.877 1056, 976.496 1056 C 974.708 1056, 974.088 1056.717, 973.593 1059.357" stroke="none" fill="#2942C9" fill-rule="evenodd"/>
    </g>
  </g>
</svg>
