<?xml version="1.0" encoding="UTF-8"?>
<svg xmlns="http://www.w3.org/2000/svg" viewBox="0 0 1600 1280" width="1600" height="1280" role="img" aria-labelledby="title desc">
  <title id="title">BillBandit raccoon - Sleepy Bed</title>
  <desc id="desc">Transparent two-color vector mascot scene using cobalt and warm cream.</desc>
  <g id="mascot-sleepy-bed" shape-rendering="geometricPrecision">
    <g id="warm-cream-base">
      <path d="M 728.512 251.272 C 724.119 251.717, 719.454 252.783, 718.147 253.640 C 716.044 255.017, 715.941 255.369, 717.253 256.682 C 718.457 257.885, 719.473 257.962, 722.619 257.089 C 724.754 256.496, 728.638 256.009, 731.250 256.006 C 737.019 255.999, 737.386 257.438, 732.990 262.817 C 718.789 280.192, 716.998 283.088, 718.975 285.470 C 720.474 287.276, 725.229 287.418, 735.308 285.959 C 743.957 284.707, 747 283.551, 747 281.521 C 747 279.833, 745.933 279.693, 735.250 279.981 C 726.863 280.207, 726.508 279.671, 731.159 273.800 C 732.896 271.606, 735.371 268.279, 736.659 266.406 C 737.946 264.533, 740.144 261.334, 741.543 259.297 C 746.702 251.786, 743.413 249.760, 728.512 251.272 M 684.166 308.996 C 679.968 310.798, 682.256 312.482, 689.330 312.796 C 698.076 313.183, 698.041 314.406, 689.010 324.042 C 685.165 328.144, 682.015 332.272, 682.010 333.215 C 682.004 334.158, 682.945 335.435, 684.099 336.053 C 686.952 337.580, 706.478 336.928, 708.152 335.250 C 710.402 332.996, 707.346 331.556, 699.468 331.159 C 693.949 330.880, 692 330.419, 692 329.395 C 692 328.632, 694.925 324.821, 698.500 320.925 C 705.135 313.696, 706.359 310.755, 703.250 309.517 C 700.237 308.318, 686.612 307.945, 684.166 308.996 M 579.996 320.160 C 567.580 326.364, 553.063 344.948, 549.480 359.225 C 548.575 362.831, 546.540 364.352, 543.607 363.616 C 539.947 362.698, 512.419 365.727, 503.719 368.006 C 494.294 370.474, 475.431 377.701, 465.728 382.561 C 461.753 384.552, 454.777 388.840, 450.226 392.091 C 445.675 395.341, 441.015 398, 439.869 398 C 438.724 398, 435.661 396.313, 433.064 394.250 C 425.978 388.623, 410.486 381.139, 402.500 379.485 C 382.594 375.361, 374.005 379.929, 374.002 394.640 C 374 401.430, 376.257 414.916, 378.619 422.228 C 379.459 424.828, 379.898 427.356, 379.595 427.846 C 379.292 428.336, 377.122 429.042, 374.772 429.413 C 365.304 430.912, 348.920 437.011, 334.849 444.276 C 322.614 450.594, 311.888 458.251, 302.552 467.333 L 294.500 475.165 287.511 472.834 C 278.623 469.869, 265.199 469.574, 260.329 472.236 C 249.468 478.173, 249.234 493.866, 259.745 511.345 C 263.026 516.800, 263.215 517.567, 262.575 522.845 C 262.198 525.955, 261.488 531.875, 260.998 536 C 258.545 556.660, 261.049 587.121, 266.722 605.642 C 267.588 608.470, 268.045 611.440, 267.737 612.243 C 267.381 613.171, 265.151 613.911, 261.611 614.276 C 254.859 614.973, 246.903 619.086, 242.866 623.966 C 236.865 631.220, 236.817 631.797, 236.926 695 C 237.083 786.446, 238.978 943.122, 239.979 947.500 C 241.085 952.334, 246.188 957.365, 251.656 959.012 C 253.770 959.649, 260.003 960.411, 265.506 960.705 C 277.058 961.323, 286.205 959.507, 292.106 955.423 C 298.112 951.267, 298.417 949.885, 298.665 925.639 C 298.789 913.615, 299.161 903.506, 299.492 903.175 C 300.214 902.453, 400.686 910.742, 449.665 915.565 C 489.131 919.452, 504.003 920.807, 553.500 925.031 C 572.750 926.674, 589.850 928.228, 591.500 928.485 C 593.150 928.742, 598.857 929.180, 604.182 929.459 C 609.506 929.737, 623.906 930.847, 636.182 931.926 C 668.486 934.766, 696.034 936.929, 707.500 937.525 C 720.844 938.220, 741.744 939.971, 743.273 940.523 C 743.948 940.767, 756.650 941.869, 771.500 942.974 C 786.350 944.078, 804.350 945.439, 811.500 945.998 C 818.650 946.557, 826.975 947.180, 830 947.384 C 850.639 948.771, 880.626 951.226, 886.500 952.009 C 890.350 952.523, 900.925 953.423, 910 954.009 C 919.075 954.596, 932.350 955.540, 939.500 956.109 C 972.910 958.763, 988.352 960.033, 998.500 960.961 C 1004.550 961.514, 1015.800 962.435, 1023.500 963.007 C 1031.200 963.579, 1051.144 965.162, 1067.821 966.524 C 1084.497 967.886, 1100.360 969, 1103.071 969 C 1105.782 969, 1108.001 969.337, 1108.002 969.750 C 1108.041 988.046, 1109.145 1013.250, 1110.006 1015.516 C 1112.549 1022.204, 1118.036 1025.362, 1129.949 1026.993 C 1143.534 1028.853, 1155.648 1026.794, 1162.682 1021.429 C 1168.587 1016.925, 1169.050 1014.991, 1169.708 992.076 L 1170.306 971.267 1175.403 968.655 C 1178.206 967.218, 1182.300 964.984, 1184.500 963.690 C 1186.700 962.395, 1193 958.832, 1198.500 955.771 C 1213.675 947.325, 1237.710 933.735, 1245 929.478 C 1248.575 927.391, 1254.875 923.818, 1259 921.539 C 1263.125 919.260, 1271.067 914.606, 1276.648 911.198 C 1282.229 907.789, 1287.044 905, 1287.348 905 C 1287.651 905, 1289.900 903.650, 1292.345 902 C 1297.967 898.205, 1299.828 898.209, 1301.156 902.019 C 1303.465 908.643, 1318.327 912.945, 1334.638 911.711 C 1346.519 910.812, 1356.348 905.170, 1357.522 898.575 C 1358.310 894.150, 1358.778 876.340, 1358.896 846.260 L 1359 820.020 1365.311 817.159 C 1372.378 813.954, 1375.457 810.686, 1377.127 804.619 C 1379.309 796.689, 1374.820 784.059, 1364.321 768.589 L 1358.952 760.678 1359.458 752.089 C 1360.334 737.206, 1361.137 630.705, 1360.408 626.147 C 1358.236 612.573, 1342.146 602.973, 1326.604 605.977 C 1310.812 609.030, 1302 620.445, 1302 637.847 C 1302 642.290, 1301.596 644.218, 1300.582 644.607 C 1299.759 644.923, 1296.102 642.580, 1291.866 639.024 C 1273.769 623.829, 1246.109 615.184, 1207 612.500 C 1195.175 611.689, 1183.544 610.760, 1181.152 610.436 C 1178.509 610.079, 1170.025 606.348, 1159.505 600.919 C 1120.935 581.010, 1105.843 576.591, 1055.500 570.468 C 1023.515 566.578, 1017.345 565.242, 965.500 550.973 C 927.364 540.477, 906.226 536.264, 877.990 533.533 C 868.921 532.656, 857.095 531.502, 851.711 530.969 C 846.327 530.436, 832.486 530, 820.953 530 L 799.984 530 792.929 524.077 C 780.283 513.459, 768.381 507.440, 751 502.873 C 738.436 499.572, 734.286 498.992, 712.656 497.509 C 693.420 496.190, 691.472 495.881, 687.406 493.498 C 684.044 491.528, 683 490.318, 683 488.392 C 683 483.270, 684.566 482, 690.880 482 C 695.395 482, 697.088 481.560, 698.477 480.026 C 700.114 478.216, 700.133 477.853, 698.705 475.673 C 697.848 474.365, 694.190 471.766, 690.577 469.897 C 682.830 465.891, 681.970 463.536, 687.963 462.732 C 693.848 461.942, 699.500 458.889, 699.500 456.500 C 699.500 454.922, 698.235 454.122, 693.500 452.706 C 676.355 447.579, 673.503 446.403, 673.199 444.337 C 672.939 442.562, 673.587 442.209, 678.076 441.677 C 684.055 440.969, 688.263 438.606, 687.803 436.214 C 687.392 434.081, 681.625 430.824, 671.295 426.892 C 665.250 424.591, 662.880 423.173, 662.295 421.507 C 661.858 420.263, 658.966 417.053, 655.869 414.373 C 652.772 411.693, 643.953 403.831, 636.271 396.901 C 628.589 389.972, 619.385 381.963, 615.816 379.103 L 609.327 373.904 608.178 362.156 C 606.026 340.167, 599.932 321.567, 593.848 318.421 C 589.769 316.312, 587.001 316.660, 579.996 320.160 M 655.750 360.080 C 652.620 361.903, 653.888 362.894, 659.740 363.200 C 667.698 363.616, 667.755 365.369, 660.080 373.573 C 656.736 377.148, 654 380.491, 654 381.001 C 654 383.001, 658.711 384.260, 666.633 384.377 C 673.230 384.475, 675.271 384.151, 676.634 382.791 C 678.250 381.178, 678.192 381.024, 675.608 380.041 C 674.102 379.468, 671.099 379, 668.935 379 C 665.436 379, 665 378.731, 665 376.573 C 665 375.237, 666.013 373.325, 667.250 372.323 C 670.584 369.622, 675 364.037, 675 362.521 C 675 359.538, 659.956 357.630, 655.750 360.080" stroke="none" fill="#F7F1DD" fill-rule="evenodd"/>
    </g>
    <g id="cobalt-ink">
      <path d="M 728.512 251.272 C 724.119 251.717, 719.454 252.783, 718.147 253.640 C 716.044 255.017, 715.941 255.369, 717.253 256.682 C 718.457 257.885, 719.473 257.962, 722.619 257.089 C 724.754 256.496, 728.638 256.009, 731.250 256.006 C 737.019 255.999, 737.386 257.438, 732.990 262.817 C 718.789 280.192, 716.998 283.088, 718.975 285.470 C 720.474 287.276, 725.229 287.418, 735.308 285.959 C 743.957 284.707, 747 283.551, 747 281.521 C 747 279.833, 745.933 279.693, 735.250 279.981 C 726.863 280.207, 726.508 279.671, 731.159 273.800 C 732.896 271.606, 735.371 268.279, 736.659 266.406 C 737.946 264.533, 740.144 261.334, 741.543 259.297 C 746.702 251.786, 743.413 249.760, 728.512 251.272 M 684.166 308.996 C 679.968 310.798, 682.256 312.482, 689.330 312.796 C 698.076 313.183, 698.041 314.406, 689.010 324.042 C 685.165 328.144, 682.015 332.272, 682.010 333.215 C 682.004 334.158, 682.945 335.435, 684.099 336.053 C 686.952 337.580, 706.478 336.928, 708.152 335.250 C 710.402 332.996, 707.346 331.556, 699.468 331.159 C 693.949 330.880, 692 330.419, 692 329.395 C 692 328.632, 694.925 324.821, 698.500 320.925 C 705.135 313.696, 706.359 310.755, 703.250 309.517 C 700.237 308.318, 686.612 307.945, 684.166 308.996 M 579.996 320.160 C 567.580 326.364, 553.063 344.948, 549.480 359.225 C 548.575 362.831, 546.540 364.352, 543.607 363.616 C 539.947 362.698, 512.419 365.727, 503.719 368.006 C 494.294 370.474, 475.431 377.701, 465.728 382.561 C 461.753 384.552, 454.777 388.840, 450.226 392.091 C 445.675 395.341, 441.015 398, 439.869 398 C 438.724 398, 435.661 396.313, 433.064 394.250 C 425.978 388.623, 410.486 381.139, 402.500 379.485 C 382.594 375.361, 374.005 379.929, 374.002 394.640 C 374 401.430, 376.257 414.916, 378.619 422.228 C 379.459 424.828, 379.898 427.356, 379.595 427.846 C 379.292 428.336, 377.122 429.042, 374.772 429.413 C 365.304 430.912, 348.920 437.011, 334.849 444.276 C 322.614 450.594, 311.888 458.251, 302.552 467.333 L 294.500 475.165 287.511 472.834 C 278.623 469.869, 265.199 469.574, 260.329 472.236 C 249.468 478.173, 249.234 493.866, 259.745 511.345 C 263.026 516.800, 263.215 517.567, 262.575 522.845 C 262.198 525.955, 261.488 531.875, 260.998 536 C 258.545 556.660, 261.049 587.121, 266.722 605.642 C 267.588 608.470, 268.045 611.440, 267.737 612.243 C 267.381 613.171, 265.151 613.911, 261.611 614.276 C 254.859 614.973, 246.903 619.086, 242.866 623.966 C 236.865 631.220, 236.817 631.797, 236.926 695 C 237.083 786.446, 238.978 943.122, 239.979 947.500 C 241.085 952.334, 246.188 957.365, 251.656 959.012 C 253.770 959.649, 260.003 960.411, 265.506 960.705 C 277.058 961.323, 286.205 959.507, 292.106 955.423 C 298.112 951.267, 298.417 949.885, 298.665 925.639 C 298.789 913.615, 299.161 903.506, 299.492 903.175 C 300.214 902.453, 400.686 910.742, 449.665 915.565 C 489.131 919.452, 504.003 920.807, 553.500 925.031 C 572.750 926.674, 589.850 928.228, 591.500 928.485 C 593.150 928.742, 598.857 929.180, 604.182 929.459 C 609.506 929.737, 623.906 930.847, 636.182 931.926 C 668.486 934.766, 696.034 936.929, 707.500 937.525 C 720.844 938.220, 741.744 939.971, 743.273 940.523 C 743.948 940.767, 756.650 941.869, 771.500 942.974 C 786.350 944.078, 804.350 945.439, 811.500 945.998 C 818.650 946.557, 826.975 947.180, 830 947.384 C 850.639 948.771, 880.626 951.226, 886.500 952.009 C 890.350 952.523, 900.925 953.423, 910 954.009 C 919.075 954.596, 932.350 955.540, 939.500 956.109 C 972.910 958.763, 988.352 960.033, 998.500 960.961 C 1004.550 961.514, 1015.800 962.435, 1023.500 963.007 C 1031.200 963.579, 1051.144 965.162, 1067.821 966.524 C 1084.497 967.886, 1100.360 969, 1103.071 969 C 1105.782 969, 1108.001 969.337, 1108.002 969.750 C 1108.041 988.046, 1109.145 1013.250, 1110.006 1015.516 C 1112.549 1022.204, 1118.036 1025.362, 1129.949 1026.993 C 1143.534 1028.853, 1155.648 1026.794, 1162.682 1021.429 C 1168.587 1016.925, 1169.050 1014.991, 1169.708 992.076 L 1170.306 971.267 1175.403 968.655 C 1178.206 967.218, 1182.300 964.984, 1184.500 963.690 C 1186.700 962.395, 1193 958.832, 1198.500 955.771 C 1213.675 947.325, 1237.710 933.735, 1245 929.478 C 1248.575 927.391, 1254.875 923.818, 1259 921.539 C 1263.125 919.260, 1271.067 914.606, 1276.648 911.198 C 1282.229 907.789, 1287.044 905, 1287.348 905 C 1287.651 905, 1289.900 903.650, 1292.345 902 C 1297.967 898.205, 1299.828 898.209, 1301.156 902.019 C 1303.465 908.643, 1318.327 912.945, 1334.638 911.711 C 1346.519 910.812, 1356.348 905.170, 1357.522 898.575 C 1358.310 894.150, 1358.778 876.340, 1358.896 846.260 L 1359 820.020 1365.311 817.159 C 1372.378 813.954, 1375.457 810.686, 1377.127 804.619 C 1379.309 796.689, 1374.820 784.059, 1364.321 768.589 L 1358.952 760.678 1359.458 752.089 C 1360.334 737.206, 1361.137 630.705, 1360.408 626.147 C 1358.236 612.573, 1342.146 602.973, 1326.604 605.977 C 1310.812 609.030, 1302 620.445, 1302 637.847 C 1302 642.290, 1301.596 644.218, 1300.582 644.607 C 1299.759 644.923, 1296.102 642.580, 1291.866 639.024 C 1273.769 623.829, 1246.109 615.184, 1207 612.500 C 1195.175 611.689, 1183.544 610.760, 1181.152 610.436 C 1178.509 610.079, 1170.025 606.348, 1159.505 600.919 C 1120.935 581.010, 1105.843 576.591, 1055.500 570.468 C 1023.515 566.578, 1017.345 565.242, 965.500 550.973 C 927.364 540.477, 906.226 536.264, 877.990 533.533 C 868.921 532.656, 857.095 531.502, 851.711 530.969 C 846.327 530.436, 832.486 530, 820.953 530 L 799.984 530 792.929 524.077 C 780.283 513.459, 768.381 507.440, 751 502.873 C 738.436 499.572, 734.286 498.992, 712.656 497.509 C 693.420 496.190, 691.472 495.881, 687.406 493.498 C 684.983 492.078, 683 490.485, 683 489.958 C 683 488.229, 676.383 488.919, 674.655 490.829 C 671.088 494.770, 672.977 499.730, 679.500 503.553 C 686.445 507.623, 694.798 509.179, 716.928 510.525 C 734.416 511.588, 749.950 515.093, 764.651 521.294 C 787.252 530.826, 801.433 548.371, 805.869 572.291 C 807.362 580.346, 803.818 596.242, 800.927 594.455 C 800.462 594.167, 799.288 591.417, 798.319 588.344 C 797.130 584.570, 795.827 582.423, 794.308 581.731 C 790.980 580.214, 789.240 582.235, 788.453 588.530 C 787.001 600.154, 783.578 599.445, 779.472 586.668 C 775.802 575.250, 771.021 567.160, 764.218 560.863 C 745.904 543.907, 711.336 539.345, 678.875 549.599 C 649.126 558.997, 621.772 575.369, 600 596.807 L 592.500 604.192 583.370 603.584 C 578.349 603.250, 571.599 602.508, 568.370 601.935 C 556.308 599.796, 540.977 593.884, 535.963 589.439 C 535.118 588.689, 532.824 587.407, 530.865 586.588 C 527.704 585.267, 527.061 585.269, 525.151 586.607 C 518.879 591, 526.326 601.026, 541.340 608.399 C 557.311 616.242, 568.318 618.051, 597 617.544 C 608.275 617.345, 621.550 616.642, 626.500 615.983 C 631.851 615.270, 642.191 614.960, 652 615.219 C 666.604 615.604, 669.393 615.961, 676.269 618.326 C 688.378 622.492, 694.819 627.036, 698.881 634.281 C 700.702 637.529, 700.787 638.145, 699.482 638.645 C 698.647 638.966, 695.949 638.721, 693.488 638.101 C 685.240 636.024, 682.324 640.643, 688.112 646.616 C 692.367 651.006, 691.253 652.396, 684.121 651.593 C 669.305 649.925, 657.385 649.840, 650.268 651.350 C 641.036 653.309, 628.014 658.522, 615.967 665.082 C 585.629 681.600, 573.641 686.805, 557.239 690.583 C 541.356 694.242, 525.288 694.789, 512.378 692.113 C 506.811 690.959, 500.961 689.339, 499.378 688.513 C 497.795 687.688, 496.129 687.010, 495.675 687.006 C 493.659 686.991, 480.720 678.438, 475.318 673.550 C 464.437 663.703, 456.850 651.934, 451.638 636.815 C 448.549 627.857, 445.002 608.282, 444.994 600.151 C 444.984 589.094, 441.735 583.956, 434.800 584.022 C 431.663 584.052, 425.181 587.116, 421.270 590.417 C 418.139 593.060, 416 593.161, 416 590.665 C 416 588.669, 426.087 576.634, 432 571.575 C 435.025 568.987, 440.544 564.986, 444.265 562.685 C 486.309 536.677, 498.412 525.444, 510.459 501.248 C 517.616 486.874, 519.531 478.830, 519.442 463.500 C 519.375 451.775, 517.489 444.422, 512.759 437.446 C 507.055 429.033, 499.118 426.647, 486.024 429.409 C 470.470 432.691, 455.732 442.294, 436.008 462 C 427.457 470.543, 410.780 490.932, 410.177 493.580 C 409.999 494.361, 409.523 495, 409.120 495 C 408.716 495, 406.307 497.813, 403.765 501.250 C 401.224 504.688, 396.413 510.186, 393.073 513.469 C 386.151 520.272, 385.630 519.689, 388.945 508.855 C 390.693 503.143, 391.945 498.350, 397.529 476 C 398.422 472.425, 400.272 465.032, 401.640 459.570 C 403.008 454.109, 403.855 448.560, 403.524 447.239 C 403.192 445.919, 401.448 441.612, 399.648 437.669 C 397.848 433.726, 395.796 428.925, 395.087 427 C 394.378 425.075, 393.417 422.600, 392.951 421.500 C 391.491 418.053, 387.711 400.922, 387.603 397.263 C 387.452 392.144, 389.364 391.318, 397.676 392.913 C 406.610 394.627, 418.658 400.481, 428.821 408.047 C 434.034 411.928, 437.994 414.151, 439.748 414.182 C 441.584 414.215, 446.678 411.446, 455.049 405.866 C 466.032 398.544, 479.173 391.820, 492.500 386.704 C 498.474 384.411, 513.013 380.169, 517 379.556 C 530.362 377.502, 534.713 377.033, 544.352 376.606 C 555.750 376.101, 559 374.836, 559 370.904 C 559 369.922, 559.450 368.840, 560 368.500 C 560.550 368.160, 561 367.097, 561 366.137 C 561 362.856, 569.909 346.507, 574.607 341.169 C 579.726 335.350, 586.453 330.576, 588.451 331.343 C 589.146 331.610, 589.994 333.104, 590.334 334.664 C 594.110 351.994, 595.083 357.863, 595.524 365.990 C 596.164 377.777, 595.918 377.439, 618.171 397 C 627.244 404.975, 634.314 411.643, 633.882 411.817 C 633.450 411.992, 627.562 410.763, 620.798 409.087 C 594.036 402.455, 578.004 402.292, 565.939 408.531 C 562.034 410.551, 559.646 415.435, 559.599 421.500 C 559.488 435.568, 578.533 458.274, 599 468.477 C 603.125 470.533, 607.251 472.598, 608.169 473.066 C 609.088 473.534, 613.588 474.895, 618.169 476.091 C 625.098 477.900, 630.707 478.391, 651.500 479.010 C 666.339 479.452, 677.923 480.242, 680 480.956 C 685.479 482.837, 696.102 482.294, 698.407 480.015 C 700.176 478.266, 700.200 477.954, 698.731 475.712 C 697.860 474.382, 694.190 471.766, 690.577 469.897 C 682.830 465.891, 681.970 463.536, 687.963 462.732 C 693.848 461.942, 699.500 458.889, 699.500 456.500 C 699.500 454.922, 698.235 454.122, 693.500 452.706 C 676.355 447.579, 673.503 446.403, 673.199 444.337 C 672.939 442.562, 673.587 442.209, 678.076 441.677 C 684.055 440.969, 688.263 438.606, 687.803 436.214 C 687.392 434.081, 681.625 430.824, 671.295 426.892 C 665.250 424.591, 662.880 423.173, 662.295 421.507 C 661.858 420.263, 658.966 417.053, 655.869 414.373 C 652.772 411.693, 643.953 403.831, 636.271 396.901 C 628.589 389.972, 619.385 381.963, 615.816 379.103 L 609.327 373.904 608.178 362.156 C 606.026 340.167, 599.932 321.567, 593.848 318.421 C 589.769 316.312, 587.001 316.660, 579.996 320.160 M 580.268 347.250 C 578.520 349.485, 577 355.202, 577 359.538 C 577 364.083, 579.076 367.425, 582.500 368.390 C 586.543 369.530, 587.506 367.648, 587.416 358.779 C 587.370 354.220, 586.792 349.479, 586.131 348.245 C 584.816 345.789, 581.809 345.278, 580.268 347.250 M 655.750 360.080 C 652.620 361.903, 653.888 362.894, 659.740 363.200 C 667.698 363.616, 667.755 365.369, 660.080 373.573 C 656.736 377.148, 654 380.491, 654 381.001 C 654 383.001, 658.711 384.260, 666.633 384.377 C 673.230 384.475, 675.271 384.151, 676.634 382.791 C 678.250 381.178, 678.192 381.024, 675.608 380.041 C 674.102 379.468, 671.099 379, 668.935 379 C 665.436 379, 665 378.731, 665 376.573 C 665 375.237, 666.013 373.325, 667.250 372.323 C 670.584 369.622, 675 364.037, 675 362.521 C 675 359.538, 659.956 357.630, 655.750 360.080 M 520.667 390.667 C 519.348 391.985, 520.054 394.824, 523.234 400.990 C 526.942 408.179, 530.151 410.950, 532.505 408.996 C 534.748 407.134, 534.331 404.322, 530.932 398.381 C 527.067 391.626, 522.865 388.468, 520.667 390.667 M 501.667 394.667 C 500.290 396.043, 501.093 399.866, 503.961 405.590 C 507.069 411.792, 509.880 414.367, 512.460 413.377 C 515.531 412.198, 514.013 406.234, 508.610 398.250 C 505.970 394.348, 503.342 392.992, 501.667 394.667 M 398.063 405.424 C 397.177 406.492, 397.156 407.927, 397.978 411.174 C 399.564 417.430, 402.076 423.167, 404.359 425.750 C 408.657 430.611, 414 427.100, 414 419.415 C 414 414.610, 409.932 408.628, 404.708 405.750 C 400.856 403.628, 399.605 403.567, 398.063 405.424 M 539.039 417.928 C 537.913 420.030, 538.109 420.835, 541.731 429 C 545.867 438.326, 549.976 441.341, 552.125 436.625 C 553.035 434.627, 552.621 433.080, 549.516 426.875 C 544.076 416.002, 541.326 413.654, 539.039 417.928 M 520.667 421.667 C 519.448 422.885, 519.977 427.648, 521.715 431.096 C 522.657 432.968, 523.521 435.085, 523.633 435.799 C 524.029 438.315, 529.124 444, 530.984 444 C 535.716 444, 534.110 435.538, 527.331 424.750 C 525.164 421.301, 522.339 419.994, 520.667 421.667 M 618.564 434.929 C 613.922 440.059, 603.186 441.787, 595.628 438.622 C 587.901 435.386, 583.880 437.607, 588.713 442.441 C 594.438 448.165, 608.326 449.486, 617.025 445.134 C 622.662 442.314, 626.852 436.732, 625.004 434.504 C 623.293 432.444, 620.656 432.618, 618.564 434.929 M 379 440.228 C 359.475 445.937, 346.208 451.433, 332 459.698 C 324.674 463.960, 312.655 473.475, 304.981 481.087 C 299.502 486.523, 297.306 488.087, 295.657 487.727 C 294.471 487.469, 289.512 486.074, 284.638 484.629 C 273.606 481.356, 269.928 481.297, 266.396 484.336 C 263.753 486.609, 263.713 486.804, 264.899 491.586 C 265.960 495.866, 271.176 507.259, 275.617 515 C 276.475 516.495, 276.818 518.706, 276.469 520.500 C 273.947 533.490, 273.214 559.036, 274.954 573.253 C 275.510 577.789, 276.219 583.750, 276.531 586.500 C 276.842 589.250, 278.503 596.675, 280.220 603 C 283.130 613.714, 283.645 614.773, 287.754 618.500 C 293.389 623.610, 296.660 630.774, 297.568 639.997 C 298.208 646.485, 298.818 648.055, 303.310 654.771 C 312.760 668.900, 324.799 680.098, 340.690 689.540 C 351.135 695.746, 351.786 696.916, 349.503 705.351 C 348.526 708.961, 348.032 712.991, 348.391 714.423 C 348.960 716.690, 349.548 716.997, 353.269 716.976 C 358.932 716.944, 366.713 713.601, 377 706.779 C 383.757 702.298, 386.833 700.908, 392 700.003 C 412.331 696.442, 433.113 686.599, 446.869 674.014 L 451.238 670.017 447.164 663.159 C 439.190 649.737, 433.758 632.665, 432.318 616.500 C 431.305 605.120, 430.783 601, 430.354 601 C 430.105 601, 428.686 601.596, 427.200 602.325 C 420.807 605.462, 413.990 602.969, 415.297 597.972 C 416.126 594.804, 413.730 594.565, 409.553 597.399 C 404.295 600.968, 402.263 601.402, 399.451 599.560 C 396.456 597.597, 396.400 595.742, 399.101 587.938 C 400.256 584.599, 400.985 581.652, 400.722 581.388 C 400.458 581.124, 398.275 581.805, 395.871 582.900 C 393.467 583.995, 388.852 585.672, 385.615 586.625 C 380.387 588.165, 379.438 588.196, 377.115 586.896 C 372.290 584.197, 373.151 581.808, 382.509 571.934 C 387.261 566.919, 390.922 562.589, 390.645 562.311 C 390.367 562.034, 387.196 562.984, 383.598 564.424 C 373.425 568.494, 365 567.991, 365 563.314 C 365 562.522, 368.278 558.414, 372.284 554.187 C 379.921 546.128, 384.532 540.199, 383.763 539.429 C 383.512 539.179, 381.677 539.655, 379.686 540.487 C 375.001 542.444, 369.561 542.418, 367.571 540.429 C 365.613 538.471, 365.591 538.931, 368.079 529.980 C 369.222 525.866, 371.922 515.300, 374.080 506.500 C 376.237 497.700, 378.662 488.250, 379.468 485.500 C 380.275 482.750, 382.315 475.100, 384 468.500 C 385.686 461.900, 387.534 455.315, 388.106 453.866 C 388.976 451.663, 388.642 450.234, 386.059 445.116 C 384.361 441.752, 382.865 439.046, 382.736 439.102 C 382.606 439.158, 380.925 439.665, 379 440.228 M 550.698 448.654 C 543.654 450.261, 538.487 453.993, 536.979 458.564 C 534.840 465.043, 538.542 469.521, 547.041 470.737 L 552.500 471.518 555.187 479.009 C 558.513 488.279, 558.583 489.702, 555.750 490.495 C 546.514 493.082, 541.422 499.022, 545.200 502.800 C 547.235 504.835, 551.458 504.156, 561.767 500.139 C 567.216 498.015, 574.001 495.719, 576.845 495.037 C 583.415 493.461, 586.785 489.808, 584.637 486.593 C 583.529 484.935, 582.228 484.509, 578.370 484.542 C 575.691 484.565, 571.925 484.924, 570 485.339 L 566.500 486.094 563.201 477.403 L 559.901 468.712 562.328 466.106 C 566.083 462.074, 567.248 459.134, 566.554 455.436 C 565.919 452.051, 562.463 448.782, 558.500 447.817 C 557.400 447.549, 553.889 447.926, 550.698 448.654 M 498.346 463.820 C 497.770 464.194, 496.104 466.408, 494.643 468.740 C 489.905 476.305, 480.054 480.795, 470.869 479.577 C 465.341 478.844, 462.283 480.791, 463.981 483.964 C 466.037 487.806, 473.880 488.941, 482.500 486.644 C 493.785 483.637, 500.031 477.694, 502.580 467.538 C 503.009 465.828, 502.647 464.881, 501.284 464.152 C 500.243 463.595, 498.921 463.446, 498.346 463.820 M 648.200 492.200 C 646.192 494.208, 646.843 496.914, 650.098 500.096 C 653.497 503.419, 656.853 505, 660.506 505 C 666.429 505, 664.552 499.959, 656.751 494.918 C 649.996 490.552, 649.884 490.516, 648.200 492.200 M 620.361 509.502 C 619.246 512.408, 621.195 516.481, 625.999 521.285 C 630.143 525.429, 631.337 526.091, 634.176 525.819 C 636.782 525.569, 637.571 524.996, 637.831 523.164 C 638.081 521.400, 636.591 519.258, 631.747 514.414 C 625.332 507.999, 621.562 506.372, 620.361 509.502 M 707.063 521.424 C 704.844 524.098, 707.377 525.646, 717.273 527.668 C 723.791 528.999, 726.491 529.180, 727.773 528.371 C 732.526 525.373, 726.095 521.227, 715.288 520.321 C 709.645 519.848, 708.212 520.040, 707.063 521.424 M 576.011 524.487 C 574.344 526.495, 575.322 529.798, 579.287 535.551 C 583.754 542.033, 586.929 544.307, 590.323 543.455 C 595.267 542.214, 593.057 536.552, 583.804 526.750 C 580 522.721, 577.967 522.130, 576.011 524.487 M 660.487 524.386 C 658.878 525.563, 658.757 526.171, 659.716 528.276 C 661.051 531.206, 671.925 537, 676.088 537 C 678.689 537, 682 534.806, 682 533.084 C 682 531.664, 678.559 529.382, 672.500 526.782 C 663.876 523.081, 662.616 522.829, 660.487 524.386 M 758.990 534.512 C 757.955 535.759, 757.945 536.508, 758.939 538.284 C 760.326 540.763, 770.933 550.019, 773.944 551.378 C 778.859 553.597, 780.740 548.481, 776.834 543.516 C 774.557 540.622, 765.980 534.742, 762.391 533.616 C 761.039 533.192, 759.819 533.513, 758.990 534.512 M 518.171 541.750 C 516.907 544.212, 517.714 548.505, 520.454 553.887 C 523.517 559.904, 527.152 563.257, 530.152 562.832 C 533.812 562.314, 533.145 556.675, 528.501 548.872 C 523.220 539.999, 520.156 537.887, 518.171 541.750 M 811 543.224 C 811 543.518, 812.117 546.198, 813.482 549.179 C 814.846 552.160, 816.865 558.177, 817.966 562.550 C 824.506 588.507, 812.542 614.099, 796.686 608.071 C 794.990 607.426, 793.670 607.533, 792.371 608.422 C 784.294 613.947, 773.699 608.904, 769.157 597.373 C 762.898 581.483, 761.427 578.579, 757.319 574.010 C 752.175 568.289, 745.350 564.192, 735.500 560.912 C 729.654 558.966, 726.439 558.583, 716 558.591 C 695.696 558.607, 680.880 562.668, 655.026 575.302 C 643.206 581.079, 626.733 591.665, 620 597.810 L 615.500 601.918 621 601.958 C 624.025 601.980, 631.298 601.543, 637.161 600.987 C 648.903 599.874, 666.366 600.951, 677.198 603.457 C 686.082 605.512, 698.885 612.256, 704.460 617.816 C 716.166 629.492, 718.007 646.018, 708.119 650.655 C 705.150 652.047, 703.878 653.417, 702.937 656.237 C 700.444 663.699, 693.030 665.941, 676.751 664.156 C 656.627 661.948, 643.800 665.548, 617 680.926 C 611.246 684.227, 592.015 693.701, 585.368 696.509 C 566.940 704.292, 546.848 708.397, 528 708.229 C 516.894 708.129, 505.893 706.496, 495.984 703.476 C 494.300 702.962, 484.513 711.980, 476.411 721.513 C 459.760 741.101, 450.964 767.740, 455.467 784.940 C 459.373 799.860, 466.486 807.188, 481.012 811.257 C 488.905 813.468, 491.298 813.780, 513.500 815.485 C 548.195 818.149, 560.217 820.578, 588.465 830.633 C 597.934 834.003, 616.025 839.182, 627 841.663 C 652.159 847.352, 694.561 853.613, 720.944 855.535 C 724.550 855.798, 732.675 856.446, 739 856.975 C 745.325 857.505, 754.100 858.200, 758.500 858.520 C 778.838 859.999, 802.602 862.337, 826 865.161 C 853.947 868.533, 852.744 868.376, 862 869.885 C 865.575 870.468, 870.300 871.214, 872.500 871.542 C 877.001 872.214, 906.566 877.566, 927 881.408 C 973.218 890.097, 999.636 890.998, 1064.500 886.096 C 1071.650 885.556, 1085.330 884.852, 1094.900 884.533 C 1114.719 883.871, 1125.942 881.850, 1137.213 876.913 C 1145.579 873.248, 1148.239 871.436, 1155.437 864.500 C 1166.791 853.558, 1175.716 833.750, 1181.569 806.500 C 1182.987 799.900, 1184.977 790.675, 1185.991 786 C 1187.006 781.325, 1189.487 772.775, 1191.506 767 C 1193.524 761.225, 1195.531 755.344, 1195.966 753.932 C 1196.401 752.519, 1197.244 750.494, 1197.839 749.432 C 1198.435 748.369, 1200.139 744.800, 1201.625 741.500 C 1208.197 726.914, 1221.453 712.294, 1233.700 706.126 C 1251.178 697.322, 1276.274 695.625, 1286.487 702.556 C 1288.306 703.790, 1290.853 705.129, 1292.147 705.532 C 1294.805 706.358, 1307.320 712.698, 1313.777 716.489 C 1318.856 719.471, 1319.292 719.539, 1318.626 717.250 C 1318.346 716.288, 1317.863 713.700, 1317.553 711.500 C 1316.463 703.765, 1315.599 700.354, 1311.473 687.500 C 1307.011 673.597, 1294.974 657.347, 1282.654 648.590 C 1263.710 635.126, 1235.297 626.306, 1210 626.039 C 1204.225 625.978, 1195.450 625.479, 1190.500 624.930 C 1174.999 623.212, 1170.242 621.602, 1147.817 610.482 C 1130.494 601.893, 1106.005 592, 1102.065 592 C 1100.914 592, 1099.191 591.582, 1098.236 591.072 C 1096.177 589.971, 1076.038 586.281, 1067.500 585.440 C 1064.200 585.115, 1059.250 584.443, 1056.500 583.947 C 1053.750 583.451, 1047 582.589, 1041.500 582.031 C 1036 581.473, 1030.375 580.828, 1029 580.597 C 1027.625 580.366, 1024.250 579.885, 1021.500 579.527 C 1016.121 578.827, 994.057 573.628, 987.500 571.516 C 983.605 570.261, 965.583 565.398, 953.500 562.340 C 950.200 561.506, 944.701 559.970, 941.279 558.928 C 937.858 557.886, 933.133 556.761, 930.779 556.428 C 928.426 556.096, 923.800 554.989, 920.500 553.970 C 913.909 551.933, 886.558 547.389, 875.500 546.494 C 871.650 546.183, 866.025 545.706, 863 545.435 C 848.911 544.172, 811 542.560, 811 543.224 M 292.667 549.667 C 291.408 550.925, 292.002 555.999, 294.140 562.246 C 297.217 571.238, 311.245 599.341, 326.461 627 C 328.428 630.575, 331.177 635.750, 332.570 638.500 C 344.214 661.485, 346.583 665.512, 348.628 665.804 C 355.155 666.735, 350.869 648.664, 339.554 627.544 C 336.594 622.020, 332.555 614.392, 330.579 610.593 C 328.602 606.795, 326.606 603.195, 326.144 602.593 C 325.681 601.992, 323.376 597.900, 321.021 593.500 C 318.667 589.100, 314.839 582.125, 312.516 578 C 308.551 570.961, 304.191 563.100, 299.758 555 C 297.113 550.167, 294.290 548.044, 292.667 549.667 M 611.350 551.765 C 608.048 553.875, 610.437 559.355, 616.807 564.282 C 622.718 568.854, 627.962 569.017, 628.821 564.657 C 629.196 562.752, 623.298 557.017, 617.322 553.476 C 612.622 550.691, 612.905 550.772, 611.350 551.765 M 485.229 555.171 C 483.573 556.827, 483.682 560.237, 485.613 567.117 C 488.030 575.731, 492.684 579.495, 495.991 575.511 C 497.654 573.507, 496.625 569.029, 492.658 561.009 C 489.415 554.451, 487.474 552.926, 485.229 555.171 M 563.544 561.344 C 560.680 563.439, 562.345 567.534, 568.507 573.550 C 574.185 579.094, 578.984 581.088, 581.541 578.966 C 584.563 576.458, 583.208 573.807, 575.401 566.954 C 572.289 564.222, 566.451 560, 565.787 560 C 565.564 560, 564.555 560.605, 563.544 561.344 M 455.982 577.521 C 454.275 579.579, 455.383 589.817, 457.938 595.593 C 459.504 599.132, 460.387 600, 462.425 600 C 466.015 600, 466.619 596.464, 464.528 587.696 C 461.975 576.986, 459.184 573.663, 455.982 577.521 M 489.616 596.527 C 487.515 598.627, 487.576 599.788, 490.083 605.454 C 492.419 610.737, 499.318 618, 501.998 618 C 504.543 618, 506.184 615.555, 505.457 612.846 C 504.733 610.147, 494.066 595.833, 492.366 595.280 C 491.742 595.077, 490.505 595.638, 489.616 596.527 M 1036.667 608.730 C 1035.577 610.494, 1039.292 612.740, 1047 614.978 C 1064.902 620.176, 1079.682 626.883, 1089.500 634.264 C 1096.752 639.716, 1099.823 642.624, 1106.981 650.816 C 1111.356 655.822, 1112.970 657.029, 1114.981 656.794 C 1117.143 656.542, 1117.478 656.032, 1117.346 653.193 C 1117.170 649.394, 1113.728 644.029, 1106.308 635.986 C 1097.217 626.131, 1082.774 617.707, 1067 613.058 C 1062.875 611.843, 1058.186 610.429, 1056.580 609.917 C 1051.980 608.450, 1037.378 607.579, 1036.667 608.730 M 529.250 617.672 C 527.417 618.397, 527.726 622.449, 529.750 624.230 C 535.163 628.995, 546.257 632.013, 549.500 629.603 C 552.631 627.277, 550.375 624.951, 541.392 621.240 C 531.980 617.353, 530.877 617.029, 529.250 617.672 M 1325.834 619.553 C 1321.401 620.939, 1316.099 625.632, 1315.923 628.327 C 1315.881 628.972, 1315.665 630.400, 1315.443 631.500 C 1315.221 632.600, 1314.942 639.831, 1314.822 647.569 C 1314.619 660.776, 1314.745 661.833, 1316.875 664.825 C 1319.438 668.424, 1323.309 677.553, 1326.089 686.551 C 1328.929 695.748, 1333.947 722.433, 1333.983 728.529 C 1333.996 730.908, 1335.352 732.898, 1340.305 737.807 C 1343.773 741.244, 1346.906 743.760, 1347.268 743.399 C 1347.849 742.818, 1348.124 710.241, 1348.077 647.701 C 1348.067 633.660, 1347.690 627.142, 1346.781 625.286 C 1344.142 619.897, 1333.795 617.065, 1325.834 619.553 M 259.684 627.449 C 254.432 629.322, 252.183 631.611, 250.883 636.409 C 250.083 639.359, 249.951 673.823, 250.409 760 C 250.758 825.725, 251.272 892.325, 251.550 908 C 251.829 923.675, 252.044 938.832, 252.028 941.683 C 251.992 948.289, 252.920 948.717, 268 949.043 C 276.941 949.236, 284.684 947.460, 286.053 944.901 C 286.688 943.715, 286.841 924.373, 286.482 890.778 C 286.175 862.025, 285.711 805.650, 285.451 765.500 C 284.856 673.557, 284.366 641.466, 283.485 636.771 C 281.839 627.998, 270.547 623.575, 259.684 627.449 M 465.667 626.667 C 464.193 628.141, 465.156 633.365, 467.900 638.779 C 471.414 645.711, 474.512 648.752, 478.500 649.179 C 481.104 649.458, 481.541 649.148, 481.809 646.832 C 482.031 644.907, 480.412 641.631, 476.001 635.082 C 470.309 626.629, 467.771 624.563, 465.667 626.667 M 583.213 629.852 C 577.195 630.473, 574.575 632.020, 575.341 634.500 C 576.286 637.558, 590.812 639.035, 598.193 636.824 C 602.861 635.426, 604.705 632.830, 602.395 630.913 C 600.569 629.397, 592.140 628.931, 583.213 629.852 M 510.053 643.436 C 507.435 646.590, 511.955 650.616, 521.863 653.954 C 529.150 656.409, 533.296 656.554, 535.070 654.416 C 537.097 651.973, 535.138 649.922, 528.436 647.473 C 525.171 646.280, 520.758 644.561, 518.628 643.652 C 513.871 641.622, 511.606 641.565, 510.053 643.436 M 611.661 649.718 C 603.511 652.401, 601.855 653.916, 604.108 656.630 C 605.930 658.825, 614.151 657.928, 620.540 654.837 C 626.176 652.111, 628.296 649.451, 626 647.987 C 623.666 646.499, 620.153 646.923, 611.661 649.718 M 560.602 660 C 555.492 660.522, 553.191 662.450, 554.283 665.294 C 555.042 667.272, 561.988 668.370, 569.124 667.640 C 572.081 667.337, 575.002 667.070, 575.615 667.045 C 576.228 667.020, 577.915 666.068, 579.363 664.929 C 581.549 663.210, 581.814 662.521, 580.926 660.862 C 579.984 659.101, 579.013 658.903, 572.679 659.183 C 568.731 659.357, 563.296 659.725, 560.602 660 M 494.056 669.433 C 493.122 670.558, 493.225 671.413, 494.531 673.408 C 498.223 679.042, 514.900 684.235, 517.858 680.671 C 519.771 678.367, 517.733 675.391, 513.258 673.953 C 511.191 673.289, 506.926 671.678, 503.780 670.373 C 497.136 667.617, 495.680 667.476, 494.056 669.433 M 298.130 750.500 C 298.205 794.500, 298.471 831.890, 298.722 833.588 L 299.179 836.676 316.840 838.337 C 326.553 839.251, 337.650 840.218, 341.500 840.486 C 345.350 840.754, 358.625 841.664, 371 842.509 C 383.375 843.354, 396.200 844.252, 399.500 844.506 C 402.800 844.759, 411.575 845.429, 419 845.994 C 426.425 846.559, 434.300 847.232, 436.500 847.489 C 438.700 847.746, 445 848.206, 450.500 848.510 C 456 848.815, 465.675 849.484, 472 849.997 C 496.343 851.974, 510.103 852.995, 526.500 854.040 C 535.850 854.636, 545.075 855.298, 547 855.511 C 548.925 855.725, 558.600 856.603, 568.500 857.463 C 578.400 858.323, 588.300 859.229, 590.500 859.477 C 592.700 859.724, 603.050 860.638, 613.500 861.506 C 623.950 862.375, 638.575 863.739, 646 864.536 C 666.397 866.727, 669 866.992, 675.500 867.538 C 678.800 867.815, 688.250 868.700, 696.500 869.504 C 715.201 871.326, 730.467 872.647, 748.500 874.004 C 756.200 874.584, 764.975 875.270, 768 875.530 C 771.025 875.790, 779.800 876.469, 787.500 877.037 C 795.200 877.606, 810.050 878.722, 820.500 879.517 C 854.245 882.084, 855.568 882.151, 854 881.199 C 853.175 880.697, 847.889 879.747, 842.252 879.087 C 836.616 878.426, 831.216 877.739, 830.252 877.560 C 829.289 877.380, 825.575 876.903, 822 876.500 C 818.425 876.097, 814.673 875.613, 813.662 875.424 C 812.652 875.235, 807.291 874.582, 801.750 873.973 C 796.209 873.363, 790.511 872.721, 789.088 872.547 C 787.665 872.373, 782.900 871.953, 778.500 871.613 C 732.754 868.080, 694.020 864.819, 681.500 863.447 C 639.556 858.852, 608.873 852.406, 572.996 840.653 C 550.003 833.121, 545.620 832.297, 519 830.502 C 476.234 827.618, 463.929 824.172, 452.565 811.897 C 445.598 804.372, 442.411 798.198, 440.348 788.232 C 437.592 774.921, 440.294 756.551, 447.109 742.272 C 450.359 735.462, 458.394 722.285, 460.385 720.500 C 460.998 719.950, 462.821 717.700, 464.435 715.500 C 466.049 713.300, 470.436 708.496, 474.185 704.825 C 477.933 701.154, 480.991 697.779, 480.979 697.325 C 480.968 696.871, 478.155 694.715, 474.729 692.532 C 471.303 690.350, 466.582 686.800, 464.237 684.643 L 459.975 680.722 454.237 685.663 C 445.772 692.954, 442.309 695.364, 434 699.744 C 422.079 706.029, 409.495 710.171, 395.343 712.469 C 392.859 712.873, 388.698 714.896, 385.005 717.496 C 370.488 727.719, 355.471 732.656, 346.800 730.058 C 340.686 728.226, 338.349 726.353, 335.920 721.334 C 333.738 716.827, 333.660 713.433, 335.534 704.449 C 336.090 701.785, 335.811 701.236, 333.335 700.118 C 323.574 695.708, 309.809 684.473, 300.109 673 L 297.995 670.500 298.130 750.500 M 718.361 714.502 C 718.044 715.328, 718.039 717.016, 718.351 718.252 C 719.350 722.212, 731.815 734.752, 740.321 740.353 C 748.089 745.469, 762.548 752.856, 768 754.494 C 769.375 754.907, 770.955 755.606, 771.512 756.047 C 775.474 759.189, 799.701 765.489, 819 768.396 C 836.040 770.963, 850.731 775.450, 864.989 782.441 C 875.607 787.648, 877.180 788.073, 879.510 786.369 C 881.292 785.066, 881.274 784.921, 879.027 782.529 C 875.816 779.111, 864.622 772.478, 855.277 768.456 C 847.998 765.323, 832.949 760.868, 825 759.493 C 811.557 757.168, 782.505 749.106, 774.216 745.400 C 755.877 737.201, 745.962 731.430, 734 721.993 C 722.308 712.768, 719.536 711.441, 718.361 714.502 M 1257.553 714.063 C 1254.832 714.518, 1249.367 716.491, 1245.408 718.448 C 1230.700 725.717, 1220.579 741.314, 1213.461 767.678 C 1210.152 779.933, 1209.333 796.651, 1211.418 809.349 C 1212.307 814.765, 1213.445 819.963, 1213.946 820.899 C 1215.272 823.376, 1227.439 825.939, 1241.419 826.687 C 1252.360 827.272, 1253.285 827.185, 1252.688 825.630 C 1249.613 817.617, 1248.662 810.548, 1248.633 795.500 C 1248.604 780.599, 1248.830 778.607, 1251.924 766.500 C 1253.751 759.350, 1255.548 753.050, 1255.918 752.500 C 1256.288 751.950, 1257.655 748.800, 1258.956 745.500 C 1260.256 742.200, 1262.148 738.306, 1263.160 736.846 C 1264.172 735.386, 1265 733.809, 1265 733.341 C 1265 732.873, 1267.429 729.261, 1270.398 725.315 C 1277.607 715.732, 1277.457 716.061, 1275.350 714.465 C 1273.304 712.915, 1265.471 712.738, 1257.553 714.063 M 1308.370 735.250 C 1300.504 744.193, 1293.587 761.288, 1290.460 779.512 C 1289.137 787.225, 1288.896 792.347, 1289.402 802 C 1290.153 816.304, 1291.357 822, 1293.631 822 C 1295.728 822, 1314.571 818.169, 1319.231 816.795 C 1322.618 815.796, 1322.894 815.456, 1322.231 813.097 C 1321.829 811.669, 1321.528 805.775, 1321.562 800 C 1321.651 785.044, 1324.807 773.391, 1332.204 760.706 C 1333.742 758.069, 1334.987 755.369, 1334.971 754.706 C 1334.931 753.085, 1330.779 748.663, 1322.966 741.920 C 1316.352 736.213, 1312.025 733, 1310.952 733 C 1310.620 733, 1309.458 734.013, 1308.370 735.250 M 311.250 748.601 C 309.117 749.566, 309.873 752.001, 312.631 753.050 C 316.161 754.392, 322.463 755.750, 328.240 756.413 C 330.846 756.712, 333.996 757.193, 335.240 757.483 C 336.483 757.772, 347.625 758.673, 360 759.485 C 372.375 760.297, 389.025 761.465, 397 762.082 C 413.921 763.390, 427.141 762.958, 429.477 761.019 C 432.598 758.429, 428.924 756.916, 414.876 755.004 C 399.996 752.978, 384.595 751.783, 356 750.435 C 340.793 749.718, 330.244 749.155, 320.500 748.540 C 316.100 748.263, 311.938 748.290, 311.250 748.601 M 1080 762.304 C 1080 763.572, 1081.350 766.737, 1083 769.339 C 1084.650 771.941, 1086 774.313, 1086 774.611 C 1086 774.908, 1088.025 777.784, 1090.500 781 C 1092.975 784.216, 1095 787.075, 1095 787.353 C 1095 787.631, 1096.770 790.524, 1098.934 793.781 C 1101.097 797.038, 1104.797 803.595, 1107.156 808.351 C 1111.576 817.263, 1113.413 818.851, 1114.248 814.483 C 1114.750 811.857, 1109.979 796.876, 1107.756 794.098 C 1107.053 793.219, 1105.621 790.925, 1104.574 789 C 1103.526 787.075, 1101.024 783.475, 1099.013 781 C 1097.001 778.525, 1092.556 772.788, 1089.133 768.250 C 1082.835 759.901, 1080 758.055, 1080 762.304 M 1328.750 829.284 L 1313 833.396 1312.897 860.948 C 1312.841 876.102, 1312.777 890.439, 1312.755 892.808 C 1312.734 895.177, 1313.253 897.652, 1313.909 898.308 C 1314.702 899.100, 1319.192 899.500, 1327.301 899.500 C 1340.971 899.500, 1345.969 898.201, 1346.045 894.629 C 1347.168 841.637, 1347.123 825.006, 1345.859 825.086 C 1345.112 825.133, 1337.412 827.022, 1328.750 829.284 M 1191.423 833.967 C 1190.222 834.453, 1188.572 836.833, 1187.512 839.607 C 1184.711 846.942, 1177.565 860.082, 1173.425 865.509 C 1171.051 868.622, 1171.006 869.055, 1171.047 888.341 C 1171.088 908.031, 1171.452 909.982, 1174.550 907.124 C 1175.072 906.641, 1177.525 905.130, 1180 903.765 C 1199.772 892.859, 1221.871 879.610, 1246 864.196 C 1262.394 853.724, 1282 840.505, 1282 839.924 C 1282 839.601, 1276.938 839.972, 1270.750 840.748 C 1248.673 843.515, 1220.779 841.236, 1201 835.049 C 1193.712 832.769, 1194.238 832.828, 1191.423 833.967 M 1287 850.975 C 1281.225 854.800, 1275.600 858.554, 1274.500 859.316 C 1268.692 863.343, 1227.172 889.008, 1212 897.951 C 1184.433 914.199, 1183.843 914.541, 1177.262 918.113 L 1171.024 921.500 1171.012 939.250 C 1171.005 949.013, 1171.299 957, 1171.665 957 C 1172.271 957, 1177.920 954.007, 1193 945.697 C 1196.025 944.030, 1201.800 940.716, 1205.833 938.333 C 1209.866 935.950, 1213.326 934, 1213.521 934 C 1213.717 934, 1220.993 929.881, 1229.689 924.847 C 1238.385 919.812, 1247.547 914.525, 1250.050 913.097 C 1252.552 911.669, 1263.017 905.550, 1273.304 899.500 C 1283.590 893.450, 1292.943 887.990, 1294.088 887.366 C 1295.232 886.742, 1296.560 885.840, 1297.038 885.362 C 1298.009 884.391, 1299.047 843.994, 1298.100 844.010 C 1297.770 844.015, 1292.775 847.149, 1287 850.975 M 299 871 L 299 891 302.250 891.013 C 306.298 891.030, 367.882 896.123, 380.500 897.484 C 382.700 897.722, 398 899.071, 414.500 900.483 C 431 901.895, 446.525 903.254, 449 903.504 C 451.475 903.754, 461.825 904.654, 472 905.504 C 482.175 906.354, 492.300 907.255, 494.500 907.506 C 496.700 907.757, 504.350 908.440, 511.500 909.023 C 518.650 909.606, 531.025 910.716, 539 911.489 C 546.975 912.261, 557.325 913.163, 562 913.493 C 566.675 913.823, 571.625 914.273, 573 914.493 C 574.375 914.713, 579.100 915.157, 583.500 915.480 C 595.513 916.360, 614.975 917.971, 619.500 918.459 C 628.038 919.381, 634.795 919.987, 642 920.478 C 649.308 920.977, 673.989 922.888, 681 923.499 C 682.925 923.666, 696.200 924.742, 710.500 925.889 C 724.800 927.036, 738.300 928.191, 740.500 928.457 C 742.700 928.722, 748.775 929.204, 754 929.528 C 759.225 929.853, 767.775 930.535, 773 931.044 C 778.225 931.553, 790.994 932.435, 801.376 933.004 C 811.758 933.573, 820.533 934.209, 820.876 934.418 C 821.219 934.628, 825.775 935.089, 831 935.443 C 836.225 935.798, 842.525 936.266, 845 936.484 C 847.475 936.701, 852.425 937.124, 856 937.422 C 859.575 937.720, 870.375 938.633, 880 939.451 C 889.625 940.269, 904.250 941.415, 912.500 941.997 C 920.750 942.579, 932 943.498, 937.500 944.040 C 943 944.581, 960.325 945.916, 976 947.006 C 991.675 948.096, 1011.250 949.458, 1019.500 950.032 C 1027.750 950.607, 1039 951.488, 1044.500 951.989 C 1050 952.490, 1058.325 953.165, 1063 953.489 C 1067.675 953.813, 1075.550 954.503, 1080.500 955.022 C 1085.450 955.541, 1093.325 956.086, 1098 956.233 L 1106.500 956.500 1106.702 935.319 L 1106.904 914.138 1104.096 913.521 C 1102.551 913.182, 1100.885 913.003, 1100.394 913.123 C 1099.902 913.244, 1097.475 913.037, 1095 912.665 C 1090.367 911.967, 1056.321 909.188, 1043 908.421 C 1025.789 907.429, 965.264 903.181, 958.564 902.494 C 955.779 902.208, 950.575 901.539, 947 901.007 C 936.632 899.465, 891.370 895.260, 866.500 893.530 C 862.100 893.224, 855.800 892.756, 852.500 892.490 C 849.200 892.225, 838.850 891.556, 829.500 891.004 C 820.150 890.451, 806.875 889.560, 800 889.022 C 793.125 888.485, 780.075 887.578, 771 887.007 C 754.102 885.943, 743.125 885.146, 709 882.510 C 698.275 881.681, 686.800 880.801, 683.500 880.554 C 664.764 879.154, 645.227 877.583, 619 875.367 C 602.775 873.995, 581.850 872.258, 572.500 871.506 C 563.150 870.754, 542.450 869.002, 526.500 867.613 C 497.169 865.059, 452.182 861.470, 437.500 860.513 C 433.100 860.226, 426.575 859.766, 423 859.492 C 419.425 859.217, 406.825 858.320, 395 857.498 C 383.175 856.676, 371.475 855.784, 369 855.515 C 366.525 855.247, 358.875 854.773, 352 854.463 C 345.125 854.153, 331.871 853.247, 322.546 852.450 C 313.221 851.652, 304.108 851, 302.296 851 L 299 851 299 871 M 1154 883.709 C 1153.175 884.013, 1151.825 884.803, 1151 885.465 C 1148.472 887.495, 1132.510 893.912, 1127.104 895.071 L 1122 896.166 1121.984 908.833 C 1121.975 915.800, 1121.935 941.935, 1121.895 966.910 C 1121.825 1009.980, 1121.916 1012.377, 1123.661 1013.410 C 1130.238 1017.307, 1150.995 1016.450, 1155.343 1012.102 C 1157.115 1010.329, 1157.199 1007.349, 1157.150 947.372 C 1157.121 912.792, 1157.076 884.163, 1157.049 883.750 C 1156.994 882.909, 1156.205 882.899, 1154 883.709 M 1084 900.075 C 1084 900.584, 1086.138 901.034, 1088.750 901.077 C 1091.362 901.119, 1094.400 901.315, 1095.500 901.513 C 1104.961 903.214, 1106 903.173, 1106 901.106 C 1106 899.205, 1105.373 899.092, 1095 899.120 C 1088.948 899.136, 1084 899.566, 1084 900.075" stroke="none" fill="#2942C9" fill-rule="evenodd"/>
    </g>
  </g>
</svg>
